<?xml version="1.0" encoding="utf-8"?>
<!-- Generator: Adobe Illustrator 24.0.1, SVG Export Plug-In . SVG Version: 6.00 Build 0)  -->
<svg version="1.1" id="icon" xmlns="http://www.w3.org/2000/svg" xmlns:xlink="http://www.w3.org/1999/xlink" x="0px" y="0px"
	 viewBox="0 0 20 20" style="enable-background:new 0 0 20 20;" xml:space="preserve">
<style type="text/css">
	.st0{fill:#00A9A6;}
</style>
<g>
	<path class="st0" d="M17.6,11.2H2.4c-0.7,0-1.2-0.5-1.2-1.2s0.5-1.2,1.2-1.2h15.3c0.7,0,1.2,0.5,1.2,1.2S18.3,11.2,17.6,11.2z"/>
</g>
<g>
	<path class="st0" d="M10.3,19.5c-0.3,0-0.6-0.1-0.8-0.4C9,18.7,9,18,9.5,17.5L17,10L9.5,2.5C9,2,9,1.3,9.5,0.8s1.2-0.5,1.7,0
		l8.4,8.4c0.2,0.2,0.4,0.5,0.4,0.8c0,0.3-0.1,0.6-0.4,0.8l-8.4,8.4C10.9,19.4,10.6,19.5,10.3,19.5z"/>
</g>
</svg>
