<?xml version="1.0" encoding="utf-8"?>
<!-- Generator: Adobe Illustrator 24.0.1, SVG Export Plug-In . SVG Version: 6.00 Build 0)  -->
<svg version="1.1" id="圖層_6" xmlns="http://www.w3.org/2000/svg" xmlns:xlink="http://www.w3.org/1999/xlink" x="0px" y="0px"
	 viewBox="0 0 50.4 92.7" style="enable-background:new 0 0 50.4 92.7;" xml:space="preserve">
<style type="text/css">
	.st0{fill:none;stroke:#FFFFFF;stroke-width:3;stroke-miterlimit:10;}
	.st1{fill:#0F90C9;}
</style>
<g>
	<path class="st0" d="M2.8,90.3c-0.8-0.8-0.8-2.1,0-2.8l40.8-40.8L2.8,5.8C2,5,2,3.7,2.8,2.9s2-0.8,2.8,0l42.2,42.2
		c0.8,0.8,0.8,2,0,2.8L5.6,90.3c-0.4,0.4-0.9,0.6-1.4,0.6S3.2,90.7,2.8,90.3z"/>
</g>
<g>
	<path class="st1" d="M2.8,90.3c-0.8-0.8-0.8-2.1,0-2.8l40.8-40.8L2.8,5.8C2,5,2,3.7,2.8,2.9s2-0.8,2.8,0l42.2,42.2
		c0.8,0.8,0.8,2,0,2.8L5.6,90.3c-0.4,0.4-0.9,0.6-1.4,0.6S3.2,90.7,2.8,90.3z"/>
</g>
</svg>
