<?xml version="1.0" encoding="utf-8"?>
<!-- Generator: Adobe Illustrator 24.0.1, SVG Export Plug-In . SVG Version: 6.00 Build 0)  -->
<svg version="1.1" id="icon" xmlns="http://www.w3.org/2000/svg" xmlns:xlink="http://www.w3.org/1999/xlink" x="0px" y="0px"
	 viewBox="0 0 20 20" style="enable-background:new 0 0 20 20;" xml:space="preserve">
<style type="text/css">
	.st0{fill:#FFFFFF;}
</style>
<g>
	<path class="st0" d="M17.62,11.19H2.38c-0.66,0-1.19-0.53-1.19-1.19s0.53-1.19,1.19-1.19h15.25c0.66,0,1.19,0.53,1.19,1.19
		S18.28,11.19,17.62,11.19z"/>
</g>
<g>
	<path class="st0" d="M10.31,19.55c-0.3,0-0.61-0.12-0.84-0.35c-0.46-0.46-0.46-1.22,0-1.68L17,10.01L9.47,2.48
		c-0.46-0.46-0.46-1.22,0-1.68c0.46-0.46,1.22-0.46,1.68,0l8.37,8.37c0.22,0.22,0.35,0.53,0.35,0.84c0,0.32-0.13,0.62-0.35,0.84
		l-8.37,8.36C10.92,19.44,10.62,19.55,10.31,19.55z"/>
</g>
</svg>
