<?xml version="1.0" encoding="utf-8"?>
<!-- Generator: Adobe Illustrator 24.0.1, SVG Export Plug-In . SVG Version: 6.00 Build 0)  -->
<svg version="1.1" id="icon" xmlns="http://www.w3.org/2000/svg" xmlns:xlink="http://www.w3.org/1999/xlink" x="0px" y="0px"
	 viewBox="0 0 19.1 18.7" style="enable-background:new 0 0 19.1 18.7;" xml:space="preserve">
<style type="text/css">
	.st0{fill:#FF6E8B;}
</style>
<g>
	<path class="st0" d="M8.4,16.4V1.2C8.4,0.5,8.9,0,9.5,0s1.2,0.5,1.2,1.2v15.3c0,0.7-0.5,1.2-1.2,1.2S8.4,17.1,8.4,16.4z"/>
</g>
<g>
	<path class="st0" d="M0,9.1c0-0.3,0.1-0.6,0.4-0.8c0.5-0.5,1.2-0.5,1.7,0l7.5,7.5l7.5-7.5c0.5-0.5,1.2-0.5,1.7,0
		c0.5,0.5,0.5,1.2,0,1.7l-8.4,8.4c-0.2,0.2-0.5,0.4-0.8,0.4c-0.3,0-0.6-0.1-0.8-0.4L0.3,10C0.1,9.7,0,9.4,0,9.1z"/>
</g>
</svg>
