<?xml version="1.0" encoding="utf-8"?>
<!-- Generator: Adobe Illustrator 24.0.1, SVG Export Plug-In . SVG Version: 6.00 Build 0)  -->
<svg version="1.1" id="icon" xmlns="http://www.w3.org/2000/svg" xmlns:xlink="http://www.w3.org/1999/xlink" x="0px" y="0px"
	 viewBox="0 0 74 31" style="enable-background:new 0 0 74 31;" xml:space="preserve">
<style type="text/css">
	.st0{fill:#0F90C9;}
</style>
<g>
	<g>
		<path class="st0" d="M61.4,30.9H12.6c-6.7,0-12.2-5.5-12.2-12.2c0-0.5,0.4-1,1-1s1,0.5,1,1c0,5.6,4.6,10.2,10.2,10.2h48.8
			c5.6,0,10.2-4.6,10.2-10.2S67,8.6,61.4,8.6h-6.8c-0.5,0-1-0.4-1-1s0.5-1,1-1h6.8c6.7,0,12.2,5.5,12.2,12.2S68.1,30.9,61.4,30.9z"
			/>
	</g>
	<g>
		<path class="st0" d="M59.6,16.1c-0.3,0-0.5-0.1-0.7-0.3l-7-7c-0.2-0.2-0.3-0.4-0.3-0.7c0-0.3,0.1-0.5,0.3-0.7l7-7
			c0.4-0.4,1-0.4,1.4,0s0.4,1,0,1.4L54,8.1l6.3,6.3c0.4,0.4,0.4,1,0,1.4C60.1,16,59.9,16.1,59.6,16.1z"/>
	</g>
	<g>
		<g>
			<path class="st0" d="M20,17c-0.6,0.5-1.3,0.6-2.1,0.6h-3.5c-0.4,0-0.7-0.2-1-0.4c-0.2-0.2-0.4-0.5-0.4-0.9V8.2
				c0-0.4,0.1-0.7,0.4-0.9c0.2-0.2,0.6-0.3,0.9-0.3h3.6c0.8,0,1.6,0.5,2,1.2c0.4,0.7,0.5,1.7,0.3,2.4c-0.2,0.7-0.6,1.2-1.2,1.5
				c0.6,0.1,1.1,0.6,1.5,1.1c0.4,0.6,0.4,1.4,0.3,2.1C20.9,15.9,20.6,16.5,20,17z M17.9,7.9h-3c-0.2,0-0.4,0.2-0.4,0.4v3.2h3.2
				c0.5,0,1-0.3,1.3-0.8c0.3-0.6,0.4-1.4,0.1-2C19,8.3,18.5,7.9,17.9,7.9z M19.2,13.1c-0.4-0.4-0.9-0.5-1.4-0.5h-3.3v3.6
				c0,0.2,0.2,0.4,0.4,0.4h2.8c0.5,0,1.2-0.1,1.6-0.5c0.3-0.3,0.4-1,0.4-1.4C19.7,14.1,19.6,13.4,19.2,13.1z"/>
		</g>
		<g>
			<path class="st0" d="M27.9,17.6c-0.1-0.3-0.3-0.7-0.3-1c-0.7,0.6-1.5,1-2.4,1.2c-0.6,0.1-1.4,0-1.9-0.3c-0.5-0.3-0.9-0.7-1-1.2
				c-0.2-0.6-0.2-1.2,0-1.7c0.2-0.6,0.7-1,1.4-1.3c0.5-0.2,1.3-0.3,1.9-0.3c0.7-0.1,1.5-0.3,1.9-0.7c0-0.3,0-0.8-0.3-1.1
				c-0.3-0.3-0.7-0.4-1.1-0.5c-0.5-0.1-1.2,0-1.7,0.2c-0.5,0.2-0.8,0.6-0.9,1.1h-1.4c0.1-0.8,0.8-1.6,1.6-2c0.7-0.3,1.7-0.5,2.4-0.4
				c0.8,0,1.6,0.3,2.2,0.8c0.5,0.5,0.6,1.1,0.6,1.9c0,1,0,2.3,0,3c0,0.8,0.3,1.7,0.6,2.3H27.9z M27.4,13.5c-0.5,0.3-1.1,0.5-1.7,0.5
				c-0.5,0-1,0.1-1.4,0.2c-0.4,0.1-0.6,0.3-0.7,0.6c-0.1,0.3-0.1,0.7,0,1c0.1,0.4,0.4,0.6,0.8,0.7c0.3,0.1,0.6,0.1,1,0
				c0.9-0.1,1.7-0.6,2.2-1.4C27.4,14.7,27.4,14,27.4,13.5z"/>
		</g>
		<g>
			<path class="st0" d="M36.1,16.9c-0.6,0.6-1.4,0.9-2.2,0.9c-0.8,0-1.7-0.2-2.3-0.8c-1.4-1.2-1.5-3.7-1-5.2c0.3-0.8,1-1.4,1.8-1.8
				c0.9-0.4,2.1-0.4,3,0.1c0.7,0.4,1.5,1.3,1.6,2h-1.5c-0.2-0.6-0.7-1.3-1.3-1.4c-0.8-0.2-1.6,0.2-2.1,0.9c-0.7,1.1-0.6,2.9-0.1,4
				c0.3,0.6,0.8,0.9,1.3,1.1c0.6,0.1,1.2,0,1.6-0.4c0.4-0.4,0.7-1.1,0.7-1.6h1.4C37,15.5,36.7,16.3,36.1,16.9z"/>
		</g>
		<g>
			<path class="st0" d="M43.4,17.6l-2.9-4l-0.8,0.7v3.3h-1.4V6.9h1.4v5.6l2.9-2.7h2l-3.1,2.9l3.6,5C45.1,17.6,43.4,17.6,43.4,17.6z"
				/>
		</g>
	</g>
</g>
</svg>
