<?xml version="1.0" encoding="utf-8"?>
<!-- Generator: Adobe Illustrator 24.0.1, SVG Export Plug-In . SVG Version: 6.00 Build 0)  -->
<svg version="1.1" id="icon" xmlns="http://www.w3.org/2000/svg" xmlns:xlink="http://www.w3.org/1999/xlink" x="0px" y="0px"
	 viewBox="0 0 74 31" style="enable-background:new 0 0 74 31;" xml:space="preserve">
<style type="text/css">
	.st0{fill:#FFFFFF;}
</style>
<g>
	<g>
		<path class="st0" d="M61.41,30.93H12.59c-6.71,0-12.17-5.46-12.17-12.17c0-0.55,0.45-1,1-1s1,0.45,1,1
			c0,5.61,4.56,10.17,10.17,10.17h48.83c5.61,0,10.17-4.56,10.17-10.17S67.02,8.58,61.41,8.58h-6.83c-0.55,0-1-0.45-1-1s0.45-1,1-1
			h6.83c6.71,0,12.17,5.46,12.17,12.17S68.13,30.93,61.41,30.93z"/>
	</g>
	<g>
		<path class="st0" d="M59.63,16.15c-0.26,0-0.51-0.1-0.71-0.29l-7.04-7.03c-0.19-0.19-0.29-0.44-0.29-0.71
			c0-0.26,0.11-0.52,0.29-0.71l7.04-7.04c0.39-0.39,1.02-0.39,1.41,0s0.39,1.02,0,1.41L54,8.11l6.33,6.32
			c0.39,0.39,0.39,1.02,0,1.41C60.14,16.05,59.89,16.15,59.63,16.15z"/>
	</g>
	<g>
		<g>
			<path class="st0" d="M20.04,17.03c-0.57,0.51-1.3,0.58-2.1,0.58h-3.51c-0.38,0-0.72-0.17-0.96-0.42
				c-0.21-0.24-0.35-0.54-0.35-0.87V8.18c0-0.39,0.15-0.72,0.4-0.95c0.24-0.21,0.56-0.33,0.95-0.33h3.63c0.81,0,1.62,0.48,2.05,1.18
				c0.42,0.68,0.5,1.67,0.29,2.42c-0.2,0.72-0.58,1.17-1.23,1.54c0.61,0.14,1.15,0.57,1.48,1.12c0.36,0.62,0.42,1.41,0.3,2.1
				C20.88,15.94,20.58,16.55,20.04,17.03z M17.93,7.91h-3.01c-0.24,0-0.44,0.18-0.44,0.41v3.24h3.25c0.51,0,1.02-0.31,1.29-0.75
				c0.34-0.55,0.36-1.42,0.12-2.04C18.96,8.29,18.45,7.91,17.93,7.91z M19.17,13.06c-0.39-0.38-0.9-0.46-1.44-0.46h-3.25v3.58
				c0,0.23,0.23,0.41,0.42,0.41h2.83c0.55,0,1.23-0.09,1.6-0.53c0.31-0.34,0.43-0.99,0.42-1.44C19.74,14.08,19.58,13.43,19.17,13.06
				z"/>
		</g>
		<g>
			<path class="st0" d="M27.87,17.63c-0.13-0.33-0.25-0.72-0.3-1.04c-0.67,0.62-1.51,1.05-2.43,1.16c-0.65,0.08-1.37,0.01-1.92-0.29
				c-0.5-0.27-0.85-0.66-1.02-1.2c-0.18-0.55-0.17-1.2,0.03-1.72c0.24-0.62,0.72-1.02,1.37-1.25c0.54-0.2,1.3-0.27,1.93-0.33
				c0.71-0.06,1.5-0.33,1.92-0.71c0.03-0.28,0-0.75-0.28-1.06c-0.27-0.29-0.69-0.44-1.1-0.48c-0.52-0.07-1.19,0.02-1.68,0.23
				c-0.5,0.21-0.79,0.63-0.93,1.14h-1.41c0.1-0.83,0.79-1.59,1.57-1.96c0.66-0.32,1.67-0.46,2.38-0.43
				c0.78,0.03,1.62,0.25,2.18,0.82c0.45,0.48,0.61,1.11,0.6,1.86c-0.01,0.97-0.01,2.29,0,2.98c0.02,0.75,0.26,1.73,0.56,2.28H27.87z
				 M27.42,13.51c-0.54,0.29-1.15,0.5-1.71,0.54c-0.52,0.04-1.04,0.11-1.42,0.24c-0.36,0.13-0.58,0.3-0.74,0.63
				c-0.13,0.32-0.15,0.69-0.04,1.02c0.12,0.35,0.41,0.57,0.75,0.69c0.29,0.09,0.65,0.08,0.96,0.01c0.93-0.15,1.69-0.64,2.21-1.44
				C27.42,14.71,27.42,13.97,27.42,13.51z"/>
		</g>
		<g>
			<path class="st0" d="M36.11,16.88c-0.58,0.6-1.36,0.86-2.19,0.88c-0.85,0.04-1.69-0.22-2.32-0.75c-1.42-1.18-1.5-3.73-0.96-5.2
				c0.29-0.78,0.99-1.44,1.77-1.8c0.92-0.43,2.13-0.4,3.01,0.08c0.68,0.38,1.46,1.33,1.62,2.04h-1.46
				c-0.19-0.58-0.71-1.25-1.35-1.38c-0.84-0.17-1.64,0.18-2.12,0.92c-0.72,1.08-0.63,2.85-0.06,3.97c0.27,0.55,0.77,0.93,1.33,1.07
				c0.58,0.15,1.19,0.04,1.64-0.38c0.38-0.35,0.69-1.07,0.73-1.56h1.38C37.02,15.53,36.66,16.33,36.11,16.88z"/>
		</g>
		<g>
			<path class="st0" d="M43.38,17.63l-2.92-4.02l-0.81,0.72v3.3h-1.4V6.91h1.4v5.62l2.92-2.7h2l-3.12,2.85l3.61,4.95H43.38z"/>
		</g>
	</g>
</g>
</svg>
