<?xml version="1.0" encoding="utf-8"?>
<!-- Generator: Adobe Illustrator 24.0.1, SVG Export Plug-In . SVG Version: 6.00 Build 0)  -->
<svg version="1.1" id="c9110790-68f5-421a-bd61-01bf55405315"
	 xmlns="http://www.w3.org/2000/svg" xmlns:xlink="http://www.w3.org/1999/xlink" x="0px" y="0px" viewBox="0 0 851.35 615.79"
	 style="enable-background:new 0 0 851.35 615.79;" xml:space="preserve">
<style type="text/css">
	.st0{opacity:0.1;fill:#0F9E9B;enable-background:new    ;}
</style>
<g>
	<path class="st0" d="M265.72,86.77c28.34-25.29,72.92-30.45,113.48-28.41c127.39,6.33,242.4,67.83,341.86,137.4
		c36.01,25.19,71.46,52.33,94.84,87.01c47.59,70.6,33.46,168.42-32.71,226.58c-22.51,19.79-49.8,34.96-77.82,48.45
		c-49.82,23.91-103.57,43.11-160.11,48.56c-40.32,3.9-81.14,0.73-121.22-4.71c-111.97-15.25-221.9-48.78-314.04-106.3
		c-40.41-25.2-78.5-56.53-95.16-97.3s-6-92.43,35.27-116.56c17.07-9.98,37.48-14.49,57.45-18.72c29.41-6.23,59.29-12.38,85.82-25.04
		c27.42-13.09,59.85-38.39,54.43-67.34C242.01,139.33,237.38,112.03,265.72,86.77z"/>
	<circle class="st0" cx="780.05" cy="176.39" r="19.77"/>
	<circle class="st0" cx="168.63" cy="162.31" r="15.55"/>
	<circle class="st0" cx="202.98" cy="57.59" r="49.9"/>
	<circle class="st0" cx="197.5" cy="141.28" r="5.48"/>
</g>
</svg>
