<?xml version="1.0" encoding="utf-8"?>
<!-- Generator: Adobe Illustrator 24.0.1, SVG Export Plug-In . SVG Version: 6.00 Build 0)  -->
<svg version="1.1" id="_x0A_cream" xmlns="http://www.w3.org/2000/svg" xmlns:xlink="http://www.w3.org/1999/xlink" x="0px" y="0px"
	 viewBox="0 0 85.85 89.56" style="enable-background:new 0 0 85.85 89.56;" xml:space="preserve">
<style type="text/css">
	.st0{fill:#689524;}
	.st1{fill:#517D0C;}
	.st2{fill:#80B92D;}
	.st3{fill:#324368;}
	.st4{fill:#233259;}
	.st5{fill:#3E2F4D;}
	.st6{fill:#46537A;}
	.st7{opacity:0.5;}
	.st8{fill:#FFFFFF;}
	.st9{fill:#40517E;}
	.st10{fill:#1C2847;}
	.st11{fill:#3A2C47;}
	.st12{fill:#303D60;}
	.st13{fill:#394870;}
	.st14{opacity:0.7;}
</style>
<g id="圖層_5">
</g>
<g>
	<g>
		<path class="st0" d="M44.52,21.16c4.25,15.04-6.89,31.35-6.89,31.35s-18.03-8.06-22.28-23.1c-3.12-14.57,0.51-24.23,7.64-28.7
			C30.75,1.39,39.45,7.68,44.52,21.16z"/>
		<path class="st1" d="M22.82,0.84c-7.01,4.51-10.56,14.12-7.46,28.58c3.97,14.04,19.96,22,22.05,22.99L22.82,0.84z"/>
		<path class="st2" d="M36.92,52.17c0.44,0.21,0.71,0.34,0.71,0.34s0.16-0.25,0.43-0.66L23.63,0.8c-0.21-0.03-0.43-0.06-0.64-0.08
			c-0.18,0.11-0.34,0.24-0.51,0.36L36.92,52.17z"/>
	</g>
	<g>
		<path class="st0" d="M72.46,46.25C58.97,57,37.62,52.62,37.62,52.62s0.51-21.79,14-32.53c13.49-9.39,24.87-9.82,32.46-4.47
			C86.71,23.8,84.02,35.34,72.46,46.25z"/>
		<path class="st1" d="M83.89,15.49c-7.59-5.2-18.89-4.72-32.27,4.6c-12.6,10.03-13.88,29.69-13.99,32.25L83.89,15.49z"/>
		<path class="st2" d="M37.66,51.75c-0.03,0.54-0.04,0.86-0.04,0.86s0.32,0.06,0.86,0.16L84.27,16.3c-0.06-0.23-0.12-0.46-0.19-0.68
			c-0.19-0.13-0.39-0.25-0.58-0.37L37.66,51.75z"/>
	</g>
	<g>
		<path class="st3" d="M38.55,48.58c0-10.52-8.53-19.05-19.05-19.05c-10.53,0-19.06,8.53-19.06,19.05S8.98,67.63,19.5,67.63
			C30.02,67.63,38.55,59.1,38.55,48.58z"/>
		<g>
			<path class="st4" d="M15.6,48.02c1.21-1.07,3.51-2.12,5.11-2.33l3.26-0.43c1.6-0.22,2.4-1.42,1.78-2.68L24.47,40
				c-0.63-1.26-0.78-3.46-0.33-4.89l0.91-2.91c0.45-1.43-0.49-2.36-2.09-2.07l-3.25,0.6c-1.6,0.29-3.98-0.02-5.32-0.7l-2.69-1.36
				c-1.32-0.67-2.71-0.04-3.07,1.4L7.9,33c-0.36,1.45-1.69,3.46-2.96,4.47l-2.58,2.07c-1.26,1.02-1.17,2.34,0.2,2.94l2.79,1.22
				c1.37,0.6,2.94,2.16,3.49,3.46l1.1,2.64c0.54,1.3,1.98,1.49,3.19,0.41L15.6,48.02z"/>
			<path class="st5" d="M21.63,35.67c-1.54-3.36-5.96-4.64-9.89-2.85c-3.92,1.79-5.85,5.98-4.31,9.34c1.54,3.37,5.97,4.65,9.89,2.86
				C21.24,43.22,23.17,39.04,21.63,35.67z"/>
			<path class="st6" d="M20.82,36.04c-1.36-2.98-5.28-4.11-8.76-2.52c-3.47,1.59-5.18,5.29-3.82,8.27c1.36,2.98,5.28,4.12,8.76,2.53
				C20.47,42.73,22.18,39.02,20.82,36.04z"/>
			<path class="st5" d="M16.08,38.21c-0.33-0.73-1.3-1.01-2.16-0.62c-0.86,0.39-1.28,1.3-0.94,2.03c0.34,0.73,1.3,1.02,2.16,0.62
				C15.99,39.86,16.41,38.95,16.08,38.21z"/>
		</g>
		<g class="st7">
			<path class="st8" d="M9.62,40.12c-1.24-0.54-1.2-1.56-0.86-2.69c0.57-1.86,2.14-2.78,3.39-2.24c1.25,0.54,0.39,1.42-0.58,2.6
				C10.82,38.73,10.86,40.67,9.62,40.12z"/>
		</g>
	</g>
	<g>
		<path class="st9" d="M73.62,60.62c0-10.52-8.53-19.05-19.05-19.05s-19.05,8.53-19.05,19.05s8.53,19.05,19.05,19.05
			S73.62,71.14,73.62,60.62z"/>
		<g class="st7">
			<path class="st8" d="M41.11,52.99c-1.26-0.83-1.33-2.43-0.33-3.95c1-1.52,2.68-2.38,3.94-1.55c1.26,0.82,0.35,2.12-0.64,3.63
				C43.08,52.64,42.37,53.82,41.11,52.99z"/>
		</g>
		<path class="st10" d="M54.44,65.75c1.5-0.53,3.95-0.53,5.44,0l3.05,1.08c1.5,0.54,2.69-0.33,2.64-1.92l-0.09-3.23
			c-0.05-1.59,0.71-3.92,1.68-5.18l1.97-2.56c0.97-1.26,0.52-2.65-1.01-3.11l-3.1-0.91c-1.53-0.45-3.51-1.89-4.41-3.2l-1.83-2.67
			c-0.9-1.31-2.37-1.31-3.26,0l-1.83,2.67c-0.9,1.32-2.88,2.76-4.41,3.2l-3.1,0.91c-1.52,0.45-1.98,1.85-1.01,3.11l1.97,2.56
			c0.97,1.26,1.72,3.59,1.68,5.18l-0.09,3.23c-0.04,1.59,1.14,2.45,2.64,1.92L54.44,65.75z"/>
		<circle class="st11" cx="57.16" cy="55.9" r="7.56"/>
		<path class="st12" d="M63.86,55.9c0-3.7-3-6.7-6.7-6.7c-3.7,0-6.7,3-6.7,6.7c0,3.7,3,6.7,6.7,6.7
			C60.86,62.6,63.86,59.6,63.86,55.9z"/>
		<circle class="st11" cx="57.16" cy="55.9" r="1.65"/>
	</g>
	<g>
		<path class="st12" d="M44.8,68.56c0-10.52-8.53-19.05-19.05-19.05S6.69,58.03,6.69,68.56c0,10.52,8.53,19.05,19.05,19.05
			S44.8,79.08,44.8,68.56z"/>
		<g>
			<path class="st10" d="M17.15,76.78c1.56-0.26,3.96,0.18,5.33,0.97l2.79,1.61c1.37,0.79,2.69,0.15,2.93-1.42l0.49-3.19
				c0.24-1.57,1.4-3.73,2.57-4.8l2.39-2.17c1.17-1.06,0.98-2.52-0.43-3.23l-2.87-1.45c-1.41-0.71-3.09-2.48-3.74-3.94l-1.31-2.95
				c-0.64-1.45-2.08-1.71-3.2-0.58l-2.27,2.3c-1.12,1.13-3.31,2.2-4.89,2.36l-3.2,0.35c-1.57,0.17-2.27,1.47-1.54,2.88l1.47,2.88
				c0.72,1.41,1.04,3.84,0.71,5.4l-0.66,3.16c-0.33,1.55,0.68,2.62,2.24,2.36L17.15,76.78z"/>
			<path class="st11" d="M28.99,68.92c0.75-4.1-1.96-8.04-6.05-8.79c-4.09-0.74-8.01,1.98-8.76,6.09c-0.75,4.11,1.96,8.05,6.05,8.79
				C24.32,75.77,28.24,73.04,28.99,68.92z"/>
			<path class="st13" d="M28.14,68.77c0.66-3.64-1.74-7.12-5.36-7.78c-3.62-0.66-7.09,1.76-7.76,5.4c-0.66,3.64,1.74,7.13,5.36,7.79
				C24,74.83,27.48,72.41,28.14,68.77z"/>
			<path class="st11" d="M23.2,67.87c0.16-0.9-0.43-1.76-1.32-1.92c-0.89-0.16-1.75,0.43-1.91,1.33c-0.16,0.89,0.43,1.75,1.32,1.92
				C22.18,69.36,23.03,68.77,23.2,67.87z"/>
		</g>
		<g class="st14">
			<path class="st8" d="M13.13,57.89c-0.74-0.81-0.45-2.13,0.48-3.14c1.54-1.65,3.78-2.12,4.52-1.31c0.74,0.8-0.23,2.75-1.72,3.67
				C15.24,57.84,13.87,58.69,13.13,57.89z"/>
		</g>
	</g>
</g>
</svg>
