<?xml version="1.0" encoding="utf-8"?>
<!-- Generator: Adobe Illustrator 24.0.1, SVG Export Plug-In . SVG Version: 6.00 Build 0)  -->
<svg version="1.1" id="圖層_1" xmlns="http://www.w3.org/2000/svg" xmlns:xlink="http://www.w3.org/1999/xlink" x="0px" y="0px"
	 viewBox="0 0 22 20" style="enable-background:new 0 0 22 20;" xml:space="preserve">
<style type="text/css">
	.st0{fill:#0F90C9;}
</style>
<path class="st0" d="M10.21,19.91c-5.44,0-9.86-4.42-9.86-9.86s4.42-9.86,9.86-9.86c5.43,0,9.86,4.42,9.86,9.86
	S15.65,19.91,10.21,19.91z M10.21,2.19c-4.33,0-7.86,3.52-7.86,7.86s3.52,7.86,7.86,7.86c4.33,0,7.86-3.52,7.86-7.86
	S14.54,2.19,10.21,2.19z"/>
<path class="st0" d="M9.7,14.3c0,0-0.01,0-0.01,0c-0.29,0-0.56-0.13-0.75-0.35L4.25,8.41C3.89,7.99,3.95,7.36,4.37,7
	c0.42-0.36,1.05-0.3,1.41,0.12l3.94,4.65L19.74,0.54c0.37-0.41,1-0.45,1.41-0.08c0.41,0.37,0.45,1,0.08,1.41L10.45,13.96
	C10.26,14.17,9.99,14.3,9.7,14.3z"/>
</svg>
