<?xml version="1.0" encoding="utf-8"?>
<!-- Generator: Adobe Illustrator 24.0.1, SVG Export Plug-In . SVG Version: 6.00 Build 0)  -->
<svg version="1.1" id="icon" xmlns="http://www.w3.org/2000/svg" xmlns:xlink="http://www.w3.org/1999/xlink" x="0px" y="0px"
	 viewBox="0 0 58.06 17" style="enable-background:new 0 0 58.06 17;" xml:space="preserve">
<style type="text/css">
	.st0{fill:#FFFFFF;}
</style>
<g>
	<g>
		<g>
			<path class="st0" d="M8.73,13.23c-0.98,0.48-2.25,0.61-3.31,0.46c-1.14-0.15-2.1-0.6-2.86-1.49c-0.92-1.05-1.31-2.35-1.32-3.78
				C1.2,6.4,1.86,4.39,3.77,3.37c1.32-0.72,3.21-0.83,4.66-0.21c1.25,0.52,2.16,1.68,2.64,2.92H9.53C9.05,5.17,8.54,4.48,7.56,4.08
				C6.77,3.76,5.81,3.69,4.98,4.02C3.17,4.74,2.55,6.55,2.6,8.37c0.04,1.54,0.5,3.01,1.89,3.87c0.99,0.62,2.49,0.64,3.54,0.04
				c0.78-0.45,1.41-1.33,1.68-2.19h1.54C10.86,11.35,9.95,12.63,8.73,13.23z"/>
		</g>
		<g>
			<path class="st0" d="M12.62,13.62V2.89h1.41v10.72H12.62z"/>
		</g>
		<g>
			<path class="st0" d="M20.63,13.5c-0.9,0.38-2.13,0.33-3.03-0.06c-0.9-0.39-1.57-1.08-1.87-2.04c-0.33-1.08-0.31-2.62,0.14-3.65
				c0.4-0.94,1.17-1.6,2.16-1.89c0.98-0.29,2.12-0.19,2.96,0.27c0.88,0.5,1.32,1.11,1.59,2.05c0.29,1,0.29,2.14,0.03,3.13
				C22.35,12.27,21.54,13.12,20.63,13.5z M18.99,6.75c-0.83,0.03-1.67,0.58-1.92,1.4c-0.29,0.93-0.25,2.04-0.03,3.01
				c0.17,0.76,0.9,1.39,1.67,1.51c0.87,0.14,1.92-0.13,2.34-0.99c0.54-1.1,0.5-2.66,0.06-3.75C20.78,7.09,19.88,6.7,18.99,6.75z"/>
		</g>
		<g>
			<path class="st0" d="M29.67,12.94c-0.61,0.62-1.59,0.79-2.42,0.84c-0.78,0.03-1.62-0.12-2.25-0.63c-0.62-0.5-1.02-1.28-1.2-2.04
				h1.42c0.06,0.48,0.27,0.99,0.65,1.29c0.39,0.31,0.99,0.34,1.47,0.33c0.51-0.02,1-0.17,1.36-0.51c0.23-0.23,0.3-0.54,0.27-0.86
				c-0.03-0.38-0.29-0.6-0.58-0.75c-0.5-0.24-1.79-0.64-2.52-0.81c-0.48-0.12-1.23-0.48-1.54-0.99c-0.3-0.51-0.34-1.21-0.09-1.74
				c0.27-0.58,0.85-1.05,1.44-1.23c0.98-0.3,2.19-0.25,3.1,0.21c0.76,0.39,1.15,1.14,1.38,1.95h-1.45c-0.1-0.48-0.39-0.98-0.87-1.17
				c-0.54-0.21-1.53-0.2-2.02,0.18c-0.3,0.22-0.49,0.64-0.38,0.97c0.1,0.3,0.56,0.53,0.84,0.6c0.93,0.24,2.2,0.63,2.97,1
				c0.63,0.3,1.06,0.96,1.09,1.65C30.38,11.88,30.12,12.49,29.67,12.94z"/>
		</g>
		<g>
			<path class="st0" d="M37.17,13.32c-0.61,0.41-1.69,0.52-2.55,0.45c-0.96-0.09-1.81-0.48-2.38-1.29
				c-0.55-0.78-0.84-1.82-0.83-2.83c0-0.86,0.21-1.68,0.6-2.37c0.64-1.12,1.8-1.59,3.01-1.6c1.11-0.02,1.95,0.28,2.61,1.03
				c0.57,0.65,0.86,1.67,0.81,2.52c-0.03,0.51-0.33,0.75-0.83,0.75h-4.81c0.09,0.92,0.38,1.8,1.06,2.35
				c0.42,0.34,0.95,0.44,1.49,0.41c0.43-0.03,0.84-0.17,1.15-0.48c0.32-0.31,0.5-0.76,0.58-1.15h1.49
				C38.4,11.85,37.92,12.82,37.17,13.32z M36.36,7.05c-0.6-0.42-1.49-0.39-2.15-0.18c-0.88,0.27-1.32,1.21-1.35,2.06h4
				c0.2,0,0.29-0.17,0.29-0.33C37.16,8.05,36.83,7.38,36.36,7.05z"/>
		</g>
	</g>
	<g>
		<path class="st0" d="M56.83,15.75c-0.26,0-0.51-0.1-0.71-0.29l-12.5-12.5c-0.39-0.39-0.39-1.02,0-1.41s1.02-0.39,1.41,0l12.5,12.5
			c0.39,0.39,0.39,1.02,0,1.41C57.34,15.65,57.08,15.75,56.83,15.75z"/>
	</g>
	<g>
		<path class="st0" d="M44.33,15.75c-0.26,0-0.51-0.1-0.71-0.29c-0.39-0.39-0.39-1.02,0-1.41l12.5-12.5c0.39-0.39,1.02-0.39,1.41,0
			s0.39,1.02,0,1.41l-12.5,12.5C44.84,15.65,44.58,15.75,44.33,15.75z"/>
	</g>
</g>
</svg>
