<?xml version="1.0" encoding="utf-8"?>
<!-- Generator: Adobe Illustrator 24.0.1, SVG Export Plug-In . SVG Version: 6.00 Build 0)  -->
<svg version="1.1" id="_x0A_cream" xmlns="http://www.w3.org/2000/svg" xmlns:xlink="http://www.w3.org/1999/xlink" x="0px" y="0px"
	 viewBox="0 0 65 52.5" style="enable-background:new 0 0 65 52.5;" xml:space="preserve">
<style type="text/css">
	.st0{fill:#FFF8E7;}
	.st1{fill:#ECDEBA;}
</style>
<g id="圖層_5">
	<g>
		<g>
			<g>
				<path class="st0" d="M32.42,27.47c6.05,0,11.68,0.68,16.45,1.85c0.38-0.18,0.76-0.35,1.19-0.51c3.16-1.2,6.78-1.05,7.75-4.91
					c1.75,2.49,4.19,6.95,2.53,10.41c1.94,1.57,3.06,3.32,3.06,5.17c0,6.63-13.87,12.01-30.98,12.01S1.45,46.11,1.45,39.48
					C1.45,32.84,15.32,27.47,32.42,27.47z"/>
				<path class="st1" d="M61.56,43.53c-7.32,7.31-20.66,9.72-40.52,7.22c-3.68-7.81,10.72-9.01,15.32-7.37
					c10.76,3.83,12.38-3.76,13.41-3.54c6.74,1.44,6.24-4.11,7.64-5.24c3.98-3.23,2.49-7.75,0.4-10.71c0.03-0.11,0.06-0.23,0.08-0.34
					c0.11,0.08,9.78,2.23,4.8,13.5c0.01,0.02,0.02,0.04,0.02,0.06C63.64,39.47,64.5,41.46,61.56,43.53z"/>
				<path class="st1" d="M13.53,48.68c-2.65-7.22,3.24-6.19,7.07-8.69c1.64-1.07,9.8-1.2,13.15-2.43c4.67-1.72,3.35-3.9,9.61-3.75
					c1.84,0.05,3.38,1.14,6.56-0.37c3.09-1.47,2.61-2.86,3.76-4.35c1.3-1.68,3.54-1.25,4.14-5.21c0.23-1.48,0.49-3.23,0.25-4.47
					c-0.86-4.3-7.11-7.46-7.92-7.86c-0.04,1.45-0.32,2.95-1.09,4.23c-0.18,0.3-0.38,0.59-0.62,0.85c-0.8,0.92-1.94,1.64-3.57,2.01
					c-0.48,0.11-0.93,0.18-1.36,0.23c-3.37-0.69-15.33-0.04-25.3,9.8C8.66,30.2,5.89,37.82,3.95,43.82
					C6.57,46.65,9.88,48.01,13.53,48.68z"/>
			</g>
			<path class="st0" d="M51.47,1.01h-5.55c2.26,4.27-7.52,12.56-9.79,12.72c-8.95,0.62-9.29,5.44-10.99,7.03
				c-1.61,1.5-4.34-0.61-6.22,0.09c-5.5,2.04-10.77,5.12-15.02,11.5l0.02,0.12c0,0-3.29,4.03-3.07,5.98
				c0.02,0.17,0.06,0.35,0.12,0.53c0.59,1.87,1.34,3.11,3.29,3.11c0,0,0.44-3.87,6.96-6.7c3.03-1.31,2.48-3.8,11.16-2.62
				c10.06,1.36,8.14-6.6,11.6-6.15c12.04,1.55,10.42-7.86,10.9-7.97C51,17.28,52.39,4.83,51.78,1.76
				C51.72,1.49,51.56,1.26,51.47,1.01z"/>
			<path class="st0" d="M26.31,7.01c-1.32,1.97-7.63,4.59-11.01,5.47c-3.53,0.92-6.48,2.19-6.79,4.95c-0.04,0.4-0.05,0.84-0.02,1.29
				c0.12,1.9-0.95,3.63-2.56,4.64c-0.27,0.17-0.48,0.34-0.61,0.51c-1.36,1.84-2.95,4.2-1.5,8c0.03,0.21,0.06,0.38,0.07,0.48
				c2.66-4,5.65-5.05,9.2-6.12c1.99-0.6,3.98-0.3,6.19-3.54c1.2-1.76,7.95,0.13,9.83-1.26c4.64-3.43-1.93-7.08,7.01-7.7
				c2.27-0.16,12.05-8.45,9.79-12.72L26.31,7.01z"/>
		</g>
	</g>
</g>
</svg>
