<?xml version="1.0" encoding="utf-8"?>
<!-- Generator: Adobe Illustrator 24.0.1, SVG Export Plug-In . SVG Version: 6.00 Build 0)  -->
<svg version="1.1" id="圖層_1" xmlns="http://www.w3.org/2000/svg" xmlns:xlink="http://www.w3.org/1999/xlink" x="0px" y="0px"
	 viewBox="0 0 186.2 175" style="enable-background:new 0 0 186.2 175;" xml:space="preserve">
<style type="text/css">
	.st0{fill:#0F90C9;}
	.st1{fill:none;stroke:#FFFFFF;stroke-miterlimit:10;}
	.st2{enable-background:new    ;}
	.st3{fill:#FFFFFF;}
</style>
<g>
	<g>
		<polygon class="st0" points="93,174 184,48.7 149.3,1.1 37,1 2.2,48.5 		"/>
		<polygon class="st1" points="93,158.9 172,50.1 141.9,8.8 44.4,8.7 14.2,50 		"/>
	</g>
	<g class="st2">
		<path class="st3" d="M101.7,35.3l0,5.9c0,0.6-0.2,1-0.5,1.3c-0.3,0.2-0.7,0.4-1.2,0.4l-1.6,0l-0.6-1.3l1.7,0
			c0.2,0,0.4-0.1,0.4-0.4l0-5.1c-0.6,0.2-1.8,0.6-2.4,0.8l0-1.6c0.7-0.2,1.6-0.5,2.4-0.8l0-4.3l-2.3,0l0-1.4l2.3,0l0-3.5l1.8,0
			l0,3.5l1.4,0l0,1.4l-1.4,0l0,3.5c0.6-0.2,1.3-0.6,1.9-1l0,1.7C103.1,34.7,102.2,35.1,101.7,35.3z M112.1,42.8
			c-1.2-0.9-2.3-2.1-2.9-3.4c-0.7,1.3-2,2.6-3.3,3.4l-3.5,0c2.2-0.9,4.5-2.5,5.5-4.8l-4.5,0l0-1.4l4.7,0c0.1-0.4,0.1-0.8,0.1-1.2
			l1.8,0c0,0.3,0,0.8-0.1,1.2l4.9,0l0,1.4l-5.2,0c-0.1,0.2-0.2,0.5-0.2,0.6l1.2,0c0.9,1.8,2.7,3.1,4.4,4.2L112.1,42.8z M112.2,36
			l0-4.4c0-0.3-0.2-0.5-0.5-0.5l-5.2,0c-0.2,0-0.5,0.2-0.5,0.4l0,4.6l-1.8,0l0-5.1l-1.6,0c1.8-1.5,3-3.5,3.9-5.6l2,0
			c-0.2,0.4-0.4,1-0.6,1.4l2.4,0c0.4,0,0.8,0.2,0.9,0.5c0.2,0.3,0.2,0.7,0.1,1.2c-0.2,0.5-0.5,0.9-0.7,1.3l1.3,0
			c0.6,0,1.1,0.2,1.5,0.5c0.3,0.3,0.4,0.7,0.4,1.2l0,4.5L112.2,36z M110.1,35c-0.3-0.5-0.6-1-0.8-1.5c-0.3,0.5-0.6,1-0.9,1.5l-2.1,0
			c0.9-1,1.6-2.2,1.9-3.6l1.7,0c-0.1,0.4-0.2,0.8-0.3,1.2l0.9,0c0.4,0.9,0.9,1.7,1.6,2.4L110.1,35z M109.3,28l-1.9,0
			c-0.3,0.6-0.7,1.2-1,1.7l2.3,0c0.3-0.4,0.6-0.9,0.8-1.4C109.5,28.1,109.5,28,109.3,28z"/>
		<path class="st3" d="M120,42.9c-0.5,0-1-0.2-1.4-0.5c-0.4-0.3-0.6-0.8-0.6-1.4l0-13.3c0-0.6,0.2-1,0.5-1.3
			c0.3-0.4,0.8-0.6,1.4-0.6l14.5,0l0,1.3l-14.1,0c-0.3,0-0.6,0.2-0.6,0.5l0,13.4c0,0.3,0.2,0.6,0.6,0.6l14.6,0l0,1.3L120,42.9z
			 M121.9,34.9c-0.6-1-1.2-2.2-1.6-3.3l1.8,0c0.5,0.9,1.1,2.2,2,3.3L121.9,34.9z M121.8,31c-0.6-1-1.1-2.1-1.6-3.3l1.8,0
			c0.5,1.1,1.1,2.2,1.8,3.3L121.8,31z M122.3,40.6l-2,0c0.9-1.6,1.4-3.3,1.8-5.1l1.7,0C123.5,37.2,123,39,122.3,40.6z M126.2,40.2
			c-0.5,0-0.8-0.2-1.1-0.5c-0.3-0.3-0.4-0.8-0.4-1.1l0-5.7l-1.3,0c1.2-1.5,1.9-3.3,2.5-5.1l1.9,0c-0.2,0.7-0.5,1.5-0.7,2.2l1.9,0
			c-0.3-0.7-0.6-1.5-0.8-2.2l1.8,0c0.2,0.8,0.5,1.5,0.9,2.2l3.7,0l0,1.3l-3.7,0l0,1.6l3.3,0l0,1.3l-3.3,0l0,1.6l3.3,0l0,1.3l-3.3,0
			l0,1.7l4,0l0,1.3L126.2,40.2z M129,37.2l-2.6,0l0,1.3c0,0.3,0.2,0.5,0.4,0.5l2.1,0L129,37.2z M129,34.2l-2.6,0l0,1.6l2.6,0
			L129,34.2z M129,31.3l-2.6,0l0,1.6l2.6,0L129,31.3z"/>
	</g>
	<g class="st2">
		<path class="st3" d="M100.7,55l0,11.9l-1.7,0l0-8.8l-1.4,0c1.4-2.7,2.2-5.6,2.5-8.7l1.8,0C101.8,51,101.2,53.2,100.7,55z
			 M110.5,66.8c-0.8-0.3-1.6-0.7-2.3-1c-0.5,0.3-1.6,0.8-2.2,1.1l-4.3,0c1.6-0.6,3.5-1.3,4.8-2c-0.4-0.2-1.2-0.8-1.6-1.2
			c-0.2,0.2-0.5,0.5-0.7,0.6l-2.6,0c1.3-0.9,2.7-2,3.7-3.3l2.1,0c0,0.1-0.2,0.3-0.3,0.4l4.5,0c0.5,0,0.8,0.3,0.9,0.6
			c0.1,0.3,0.1,0.7-0.2,1c-0.7,0.7-1.6,1.3-2.4,1.8c1.7,0.8,3.9,1.5,5.5,2L110.5,66.8z M113.2,59l0-1.1c0-0.2-0.1-0.3-0.3-0.3l-9,0
			c-0.3,0-0.4,0.3-0.4,0.5l0,0.9l-1.7,0l0-0.9c0-0.6,0.2-1.1,0.6-1.3c0.3-0.2,0.7-0.3,1.2-0.4l0-3.3c0-0.6,0.2-1,0.5-1.3
			c0.3-0.3,0.7-0.4,1.3-0.4l1.7,0c0.1-0.2,0.3-0.6,0.3-0.8l-4.9,0l0-1.1l12.2,0l0,1.1l-5.5,0c-0.1,0.3-0.2,0.6-0.3,0.8l2.9,0
			c0.5,0,0.9,0.2,1.1,0.5c0.3,0.3,0.4,0.7,0.4,1.2l0,3.2c0.6,0,1,0.2,1.3,0.5c0.3,0.3,0.4,0.7,0.4,1.2l0,0.9L113.2,59z M104.4,60.9
			l-1.9,0c0.7-0.8,1.2-1.6,1.5-2.6l1.7,0C105.3,59.5,104.7,60.4,104.4,60.9z M111.3,55.8l-6.2,0l0,0.7l6.2,0L111.3,55.8z
			 M111.3,54.2l-6.2,0l0,0.6l6.2,0L111.3,54.2z M111.3,53c0-0.2-0.2-0.4-0.4-0.4l-5.5,0c-0.2,0-0.3,0.2-0.3,0.4v0.1l6.2,0V53z
			 M106,62.6c-0.1,0.1-0.3,0.3-0.5,0.5l1.2,0c0.4,0.3,1.1,0.8,1.4,0.9c0.7-0.4,1.4-0.9,2.1-1.4L106,62.6z M110.6,60.7l-3.3,0
			c-0.3,0-0.6-0.1-0.8-0.4c-0.2-0.2-0.4-0.6-0.4-0.9l0-1.4l1.7,0l0,1.1c0,0.3,0.2,0.5,0.5,0.5l2.9,0L110.6,60.7z M108.6,59.2
			c-0.2-0.4-0.4-0.9-0.5-1.3l1.8,0c0.1,0.3,0.3,0.9,0.5,1.3L108.6,59.2z M112.2,60.9c-0.6-0.8-1.2-1.7-1.5-2.7l1.8,0
			c0.4,1,1,1.8,1.8,2.7L112.2,60.9z"/>
		<path class="st3" d="M119.6,66.6l-2.1,0c1-1.3,1.6-2.8,2-4.3l1.9,0C121,63.8,120.4,65.3,119.6,66.6z M132.8,61.7
			c-0.2-0.2-0.3-0.5-0.5-0.8c-4.3,0.2-9.9,0.5-14.8,0.4l0-1.4c2.4,0.1,5.2,0.1,7.7,0l0-1.4l-5.2,0c-0.5,0-0.9-0.2-1.1-0.5
			c-0.2-0.3-0.4-0.7-0.4-1.2l0-2.3c0-0.5,0.1-0.9,0.4-1.2c0.3-0.3,0.8-0.5,1.3-0.5l5,0l0-1.1l-7.3,0l0-1.3l7.3,0l0-1.2l1.8,0l0,1.2
			l7.4,0l0,1.3l-7.4,0l0,1l5.2,0c0.4,0,0.9,0.2,1.2,0.5c0.3,0.3,0.4,0.7,0.4,1.1l0,2.4c0,0.5-0.2,1-0.5,1.3
			c-0.3,0.3-0.8,0.5-1.3,0.5l-5,0l0,1.3c1.4-0.1,3.2-0.2,4.6-0.3c-0.1-0.2-0.2-0.5-0.3-0.7l2,0c0.4,1,0.9,2,1.6,2.8L132.8,61.7z
			 M125.3,56.3l-4.9,0v0.4c0,0.3,0.2,0.5,0.4,0.5l4.4,0L125.3,56.3z M125.3,54.1l-4.4,0c-0.3,0-0.5,0.2-0.5,0.5l0,0.4l4.9,0
			L125.3,54.1z M130.8,66.8l-7.1,0c-0.3,0-0.6-0.1-0.9-0.4c-0.3-0.3-0.5-0.7-0.5-1.1l0-3.4l1.8,0l0,2.9c0,0.4,0.3,0.6,0.7,0.6l6.7,0
			L130.8,66.8z M127.2,64.6c-0.5-0.9-0.8-1.8-1.1-2.8l1.8,0c0.3,1,0.7,1.9,1.2,2.8L127.2,64.6z M132,56.3l-5,0l0,1l4.5,0
			c0.3,0,0.4-0.3,0.4-0.6V56.3z M132,54.7c0-0.4-0.2-0.6-0.6-0.6l-4.4,0l0,0.9l5,0L132,54.7z M132.9,66.6c-0.9-1.3-1.6-2.8-1.9-4.3
			l1.9,0c0.4,1.6,1.2,3,2.2,4.3L132.9,66.6z"/>
	</g>
	<g>
		<path class="st3" d="M111.2,99.5c0,10-8.2,18.2-18.2,18.1s-18.2-8.2-18.1-18.2s8.2-18.2,18.2-18.1
			C103.1,81.3,111.2,89.4,111.2,99.5"/>
	</g>
	<g class="st2">
		<path class="st0" d="M88.8,96.5c0-0.2,0-0.4-0.1-0.6c0-0.2-0.1-0.4-0.2-0.6c-0.2-0.5-0.5-0.9-0.9-1.1c-0.3-0.1-0.6-0.2-1-0.2
			c-0.4,0-0.7,0.1-1,0.2c-0.4,0.2-0.7,0.4-0.9,0.7c-0.3,0.3-0.5,0.6-0.6,1c-0.2,0.4-0.3,0.8-0.4,1.2c-0.1,0.4-0.1,0.9-0.1,1.3
			c0,0.5,0.1,1.1,0.1,1.6c0.1,0.5,0.2,1,0.5,1.4c0.2,0.3,0.4,0.6,0.7,0.8c0.3,0.2,0.6,0.4,1,0.5c0.3,0.1,0.7,0.1,1,0.1
			c0.3,0,0.7-0.1,1-0.2c0.2-0.1,0.4-0.2,0.6-0.4s0.5-0.4,0.7-0.7l0-1.5c0-0.1,0-0.1-0.1-0.2c-0.1-0.1-0.1-0.1-0.2-0.1l-2.3,0l0-1.4
			l3.9,0c0.2,0,0.4,0.1,0.5,0.2c0.2,0.1,0.3,0.2,0.4,0.4c0.1,0.2,0.2,0.5,0.2,0.7l0,4.5l-2.5,0l0-1c-0.4,0.4-0.9,0.7-1.4,0.9
			c-0.5,0.2-1.1,0.3-1.6,0.3c-0.5,0-1-0.1-1.5-0.2c-0.5-0.1-0.9-0.3-1.4-0.6c-0.4-0.2-0.8-0.5-1.1-0.9c-0.3-0.3-0.6-0.7-0.7-1.1
			c-0.2-0.6-0.4-1.2-0.5-1.9c-0.1-0.7-0.1-1.4,0-2.1c0.1-0.6,0.2-1.2,0.4-1.7c0.2-0.5,0.5-1,0.9-1.5c0.4-0.5,0.9-0.8,1.4-1.1
			c0.5-0.3,1.1-0.5,1.7-0.6c0.6-0.1,1.2-0.1,1.8-0.1c0.6,0.1,1.2,0.2,1.8,0.4c0.3,0.1,0.6,0.3,0.9,0.5c0.3,0.2,0.6,0.5,0.8,0.7
			c0.2,0.3,0.5,0.6,0.6,1.1c0.2,0.4,0.3,0.9,0.4,1.2L88.8,96.5z"/>
	</g>
	<g class="st2">
		<path class="st0" d="M104.6,98.6c0,0.7-0.1,1.4-0.3,2.1c-0.2,0.7-0.5,1.3-1,1.8c-0.5,0.6-1,1-1.7,1.3c-0.6,0.3-1.3,0.4-2,0.5
			c-0.5,0-1.1,0-1.6-0.1c-0.5-0.1-1-0.2-1.5-0.4c-0.4-0.2-0.8-0.4-1.2-0.7c-0.4-0.3-0.7-0.6-1-1.1c-0.4-0.6-0.6-1.2-0.8-1.9
			c-0.2-0.7-0.2-1.4-0.2-2.1c0-0.7,0.2-1.4,0.4-2c0.2-0.6,0.5-1.2,0.9-1.7c0.3-0.4,0.6-0.7,1-0.9c0.4-0.2,0.8-0.4,1.2-0.6
			c0.4-0.1,0.7-0.2,1.1-0.3c0.4-0.1,0.8-0.1,1.2-0.1c0.5,0,1,0.1,1.4,0.2c0.5,0.1,0.9,0.3,1.3,0.5c0.4,0.2,0.7,0.5,1,0.8
			c0.3,0.3,0.6,0.7,0.8,1.1c0.3,0.5,0.5,1.1,0.6,1.7C104.6,97.4,104.6,98,104.6,98.6z M102,98.2c0-0.5-0.1-1-0.2-1.5
			s-0.2-0.9-0.4-1.4c-0.1-0.2-0.2-0.4-0.4-0.6c-0.2-0.2-0.4-0.3-0.6-0.4s-0.4-0.2-0.7-0.2c-0.2,0-0.5-0.1-0.7-0.1
			c-0.5,0-0.9,0.1-1.3,0.3c-0.4,0.2-0.7,0.5-1,0.9c-0.3,0.5-0.5,1-0.6,1.6c-0.1,0.6-0.1,1.2-0.1,1.7c0,0.2,0,0.5,0,0.8
			c0,0.3,0.1,0.6,0.1,0.9s0.1,0.6,0.2,0.9c0.1,0.3,0.2,0.5,0.4,0.7c0.1,0.2,0.3,0.4,0.5,0.5c0.2,0.1,0.4,0.3,0.6,0.4
			c0.2,0.1,0.5,0.1,0.7,0.2c0.2,0,0.5,0,0.7,0c0.3,0,0.5-0.1,0.7-0.2c0.2-0.1,0.5-0.2,0.7-0.4c0.2-0.2,0.4-0.3,0.5-0.6
			c0.2-0.2,0.3-0.5,0.3-0.8c0.1-0.4,0.2-0.9,0.3-1.4C102,99.2,102,98.7,102,98.2z"/>
	</g>
	<path class="st3" d="M87.5,40.8l-9.3-9.3c-0.2-0.2-0.5-0.2-0.7-0.1c-0.2,0.1-0.4,0.3-0.4,0.6v3l-21.5,0c-0.4,0-0.7,0.3-0.7,0.7V43
		l-9.1,9.1c-0.3,0.3-0.3,0.7,0,0.9l9.3,9.3c0.1,0.1,0.3,0.2,0.5,0.2c0.1,0,0.2,0,0.2,0c0.2-0.1,0.4-0.3,0.4-0.6v-3l21.5,0
		c0.4,0,0.7-0.3,0.7-0.7l0-7.5l9.1-9.1C87.8,41.5,87.8,41,87.5,40.8z M78.4,49v-2c0-0.1,0-0.2-0.1-0.3c-0.1-0.2-0.3-0.4-0.6-0.4
		h-4.7c-0.4,0-0.7,0.3-0.7,0.7c0,0.4,0.3,0.7,0.7,0.7h4l0,10.1l-21.5,0c-0.4,0-0.7,0.3-0.7,0.7v2l-7.7-7.7l7.7-7.7v2
		c0,0.2,0.1,0.3,0.2,0.5c0.1,0.1,0.3,0.2,0.5,0.2h0h4.7c0.4,0,0.7-0.3,0.7-0.7c0-0.4-0.3-0.7-0.7-0.7h-4l0-10.1l21.5,0
		c0.4,0,0.7-0.3,0.7-0.7v-2l7.7,7.7L78.4,49z M67.3,41.4v-1.1c0-0.4-0.3-0.7-0.7-0.7c-0.4,0-0.7,0.3-0.7,0.7v1.1
		c-2,0.3-2.8,1.8-2.8,2.8c0,1.9,1,2.9,3.3,3.3c2.1,0.4,2.2,1.1,2.2,2c0,0.8-0.8,1.6-2.1,1.6c-1.3,0-2.2-0.8-2.2-0.9
		c-0.2-0.3-0.7-0.3-0.9,0c-0.3,0.2-0.3,0.7,0,0.9c0,0,0.9,1,2.4,1.2v1.1c0,0.4,0.3,0.7,0.7,0.7c0.4,0,0.7-0.3,0.7-0.7v-1
		c1.7-0.2,2.8-1.6,2.8-2.9c0-1.8-1-2.8-3.3-3.3c-2.1-0.4-2.2-1.1-2.2-2c0,0,0.1-1.5,2.2-1.5c1.7,0,2,1,2.1,1.2
		c0.1,0.3,0.4,0.6,0.8,0.5c0.4-0.1,0.6-0.4,0.5-0.8C69.9,42.9,69.2,41.7,67.3,41.4z"/>
</g>
</svg>
