<?xml version="1.0" encoding="utf-8"?>
<!-- Generator: Adobe Illustrator 24.0.1, SVG Export Plug-In . SVG Version: 6.00 Build 0)  -->
<svg version="1.1" id="圖層_1" xmlns="http://www.w3.org/2000/svg" xmlns:xlink="http://www.w3.org/1999/xlink" x="0px" y="0px"
	 viewBox="0 0 186.2 175" style="enable-background:new 0 0 186.2 175;" xml:space="preserve">
<style type="text/css">
	.st0{fill:#0F90C9;}
	.st1{fill:none;stroke:#FFFFFF;stroke-miterlimit:10;}
	.st2{enable-background:new    ;}
	.st3{fill:#FFFFFF;}
</style>
<g>
	<g>
		<polygon class="st0" points="93.4,174 184,48.5 149.2,1 36.8,1.3 2.2,48.9 		"/>
		<polygon class="st1" points="93.4,158.9 172,49.9 141.8,8.7 44.2,8.9 14.2,50.3 		"/>
	</g>
	<g class="st2">
		<path class="st3" d="M91.3,29.5c-0.8-1.3-1.4-2.7-2-4l2.1,0c0.5,1.4,1.2,2.8,2.2,4L91.3,29.5z M91.2,34.6
			c-0.7-1.4-1.3-2.9-1.9-4.3l2,0c0.5,1.5,1.1,3,2.1,4.3L91.2,34.6z M91.4,42.9l-2,0c0.9-2.4,1.5-4.9,2.1-7.4l1.9,0
			C92.8,38.1,92.3,40.6,91.4,42.9z M97,28.3c-0.5,0.7-1,1.5-1.5,2.1l-2.3,0c1.4-1.5,2.3-3.2,3.2-5l2.1,0c-0.2,0.5-0.5,1.1-0.8,1.4
			l8.7,0l0,1.4L97,28.3z M105.4,35.7l-0.2,3.2l1.6,0l0,1.4l-1.7,0l-0.1,0.6c-0.1,0.6-0.3,1.1-0.8,1.5c-0.4,0.3-1,0.6-2,0.6l-1.4,0
			l-0.8-1.4l2.4,0c0.3,0,0.7-0.3,0.7-0.6l0.1-0.6l-7.1,0c-0.5,0-0.9-0.2-1.2-0.6c-0.3-0.4-0.5-0.9-0.4-1.4l0.4-2.7l-1.1,0l0-1.3
			l1.3,0l0.3-2.8c0.1-0.5,0.3-0.9,0.6-1.2c0.3-0.3,0.7-0.4,1.1-0.4l6.6,0c0.6,0,1.1,0.3,1.4,0.7c0.3,0.4,0.4,0.9,0.4,1.4l0,2.3
			l1.4,0l0,1.3L105.4,35.7z M96.8,35.7l-0.4,2.8c0,0.3,0.1,0.4,0.3,0.4l2.8,0c-0.3-0.7-0.7-1.9-0.8-2.5l1.8,0
			c0.2,0.7,0.5,1.8,0.9,2.5l2,0l0.3-3.2L96.8,35.7z M103.6,31.9c0-0.2-0.2-0.5-0.5-0.5l-5.4,0c-0.2,0-0.5,0.1-0.6,0.4l-0.3,2.6
			l2.7,0c-0.3-0.7-0.6-1.5-0.7-2.2l1.8,0c0.2,0.7,0.4,1.5,0.8,2.2l2.1,0L103.6,31.9z"/>
		<path class="st3" d="M112.9,43l-3,0c1.7-1.3,3.4-2.8,4.4-4.5c-0.9-1.1-2.2-2.9-3-4.2l2,0c0.5,0.9,1.1,1.7,1.8,2.5
			c0.8-2,1.1-4.3,1.2-6.6c0-0.3-0.2-0.5-0.5-0.5l-2.8,0c-0.4,1.4-0.9,2.8-1.6,4.1l-2.1,0c1.5-2.5,2.2-5.3,2.6-8.3l1.9,0
			c-0.1,0.9-0.3,1.9-0.4,2.7l3.1,0c0.5,0,0.9,0.2,1.2,0.5c0.3,0.4,0.5,0.9,0.5,1.6C117.9,35.9,116.8,39.2,112.9,43z M124.7,37.4
			c-1.2-1.7-2.6-4.5-3.4-6.7l0,12.3l-1.8,0l0-17.5l1.8,0l0,4.6l1.7,0c0.9,2.5,2.3,5.2,4,7.3L124.7,37.4z"/>
		<path class="st3" d="M131.6,31.2l1,0l0,11.7l-1.8,0l0-10.9l-1.5,0c1.3-2,2.1-4.2,2.8-6.5l1.8,0C133.4,27.4,132.6,29.3,131.6,31.2z
			 M133.4,31.9l0-1.2l5.8,0l0-0.9l-4.7,0l0-1.2l4.7,0l0-0.9l-5.1,0l0-1.2l5.1,0l0-1.1l1.8,0l0,1.1l5.3,0l0,1.2l-5.3,0l0,0.9l4.7,0
			l0,1.2l-4.7,0l0,0.9l5.9,0l0,1.2L133.4,31.9z M136.6,42.8l-3.2,0c1.1-0.5,2.1-1.2,3-2l2.7,0C138.3,41.6,137.5,42.2,136.6,42.8z
			 M145.3,39.7c-0.3,0.3-0.8,0.5-1.2,0.5l-8,0c-0.3,0-0.7-0.1-0.9-0.4c-0.4-0.3-0.6-0.7-0.6-1.2l0-4.5c0-0.3,0.2-0.6,0.4-0.9
			c0.3-0.3,0.7-0.5,1-0.5l8,0c0.6,0,1,0.2,1.3,0.6c0.2,0.3,0.4,0.7,0.4,1.1l0,4.2C145.7,39.1,145.6,39.4,145.3,39.7z M144,34.3
			c0-0.2-0.2-0.4-0.5-0.4l-6.5,0c-0.4,0-0.6,0.2-0.6,0.4l0,0.4l7.7,0L144,34.3z M144,35.9l-7.7,0l0,0.9l7.7,0L144,35.9z M144,38
			l-7.7,0l0,0.5c0,0.3,0.3,0.5,0.5,0.5l6.7,0c0.2,0,0.4-0.2,0.4-0.5L144,38z M144.2,42.8c-0.8-0.6-1.5-1.3-2.1-2l2.5,0
			c0.8,0.8,1.8,1.5,2.8,2L144.2,42.8z"/>
	</g>
	<g class="st2">
		<path class="st3" d="M92.7,55.2l0,11.9L91,67l0-8.8l-1.4,0c1.4-2.7,2.2-5.6,2.5-8.7l1.8,0C93.8,51.1,93.2,53.4,92.7,55.2z
			 M102.5,66.9c-0.8-0.3-1.6-0.7-2.3-1c-0.5,0.3-1.6,0.8-2.2,1.1l-4.3,0c1.6-0.6,3.5-1.3,4.8-2c-0.4-0.2-1.2-0.8-1.6-1.2
			c-0.2,0.2-0.5,0.5-0.7,0.6l-2.6,0c1.3-0.9,2.7-2,3.7-3.3l2.1,0c0,0.1-0.2,0.3-0.3,0.4l4.5,0c0.5,0,0.8,0.3,0.9,0.6
			c0.1,0.3,0.1,0.7-0.2,1c-0.7,0.7-1.6,1.3-2.4,1.8c1.7,0.8,3.9,1.5,5.5,2L102.5,66.9z M105.2,59.1l0-1.1c0-0.2-0.1-0.3-0.3-0.3
			l-9,0c-0.3,0-0.4,0.3-0.4,0.5l0,0.9l-1.7,0l0-0.9c0-0.6,0.2-1.1,0.6-1.3c0.3-0.2,0.7-0.3,1.2-0.4l0-3.3c0-0.6,0.2-1,0.5-1.3
			c0.3-0.3,0.7-0.4,1.3-0.4l1.7,0c0.1-0.2,0.3-0.6,0.3-0.8l-4.9,0l0-1.1l12.2,0l0,1.1l-5.5,0c-0.1,0.3-0.2,0.6-0.3,0.8l2.9,0
			c0.5,0,0.9,0.2,1.1,0.5c0.3,0.3,0.4,0.7,0.4,1.2l0,3.2c0.6,0,1,0.2,1.3,0.5c0.3,0.3,0.4,0.7,0.4,1.2l0,0.9L105.2,59.1z M96.4,61
			l-1.9,0c0.7-0.8,1.2-1.6,1.5-2.6l1.7,0C97.3,59.6,96.8,60.5,96.4,61z M103.3,53.1c0-0.2-0.2-0.4-0.4-0.4l-5.5,0
			c-0.2,0-0.3,0.2-0.3,0.4v0.1l6.2,0V53.1z M103.3,54.3l-6.2,0l0,0.6l6.2,0L103.3,54.3z M103.3,55.9l-6.2,0l0,0.7l6.2,0L103.3,55.9z
			 M98,62.7c-0.1,0.1-0.3,0.3-0.5,0.5l1.2,0c0.4,0.3,1.1,0.8,1.4,0.9c0.7-0.4,1.4-0.9,2.1-1.4L98,62.7z M102.6,60.8l-3.3,0
			c-0.3,0-0.6-0.1-0.8-0.4c-0.2-0.2-0.4-0.6-0.4-0.9l0-1.4l1.7,0l0,1.1c0,0.3,0.2,0.5,0.5,0.5l2.9,0L102.6,60.8z M100.6,59.3
			c-0.2-0.4-0.4-0.9-0.5-1.3l1.8,0c0.1,0.3,0.3,0.9,0.5,1.3L100.6,59.3z M104.2,61c-0.6-0.8-1.2-1.7-1.5-2.7l1.8,0
			c0.4,1,1,1.8,1.8,2.7L104.2,61z"/>
		<path class="st3" d="M111.7,66.7l-2.1,0c1-1.3,1.6-2.8,2-4.3l1.9,0C113,63.9,112.4,65.3,111.7,66.7z M124.8,61.8
			c-0.2-0.2-0.3-0.5-0.5-0.8c-4.3,0.3-9.9,0.5-14.8,0.5l0-1.4c2.4,0.1,5.2,0.1,7.7,0l0-1.4l-5.2,0c-0.5,0-0.9-0.2-1.1-0.5
			c-0.2-0.3-0.4-0.7-0.4-1.2l0-2.3c0-0.5,0.1-0.9,0.4-1.2c0.3-0.3,0.8-0.5,1.3-0.5l5,0l0-1.1l-7.3,0l0-1.3l7.3,0l0-1.2l1.8,0l0,1.2
			l7.4,0l0,1.3l-7.4,0l0,1l5.2,0c0.4,0,0.9,0.2,1.2,0.5c0.3,0.3,0.4,0.7,0.4,1.1l0,2.4c0,0.5-0.2,1-0.5,1.3
			c-0.3,0.3-0.8,0.5-1.3,0.5l-5,0l0,1.3c1.4-0.1,3.2-0.2,4.6-0.3c-0.1-0.2-0.2-0.5-0.3-0.7l2,0c0.4,1,0.9,2,1.6,2.8L124.8,61.8z
			 M117.3,54.2l-4.4,0c-0.3,0-0.5,0.2-0.5,0.5l0,0.4l4.9,0L117.3,54.2z M117.3,56.3l-4.9,0l0,0.4c0,0.3,0.2,0.5,0.4,0.5l4.4,0
			L117.3,56.3z M122.8,66.8l-7.1,0c-0.3,0-0.6-0.1-0.9-0.4c-0.3-0.3-0.5-0.7-0.5-1.1l0-3.4l1.8,0l0,2.9c0,0.4,0.3,0.6,0.7,0.6l6.7,0
			L122.8,66.8z M119.2,64.6c-0.5-0.9-0.8-1.8-1.1-2.8l1.8,0c0.3,1,0.7,1.9,1.2,2.8L119.2,64.6z M124,54.7c0-0.4-0.2-0.6-0.6-0.6
			l-4.4,0l0,0.9l5,0L124,54.7z M124,56.3l-5,0l0,1l4.5,0c0.3,0,0.4-0.3,0.4-0.6L124,56.3z M124.9,66.7c-0.9-1.3-1.6-2.8-2-4.3l1.9,0
			c0.4,1.6,1.2,3,2.2,4.3L124.9,66.7z"/>
	</g>
	<g>
		<path class="st3" d="M111.4,99.5c0,10-8.1,18.2-18.1,18.2c-10,0-18.2-8.1-18.2-18.1c0-10,8.1-18.2,18.1-18.2
			C103.2,81.3,111.4,89.4,111.4,99.5"/>
	</g>
	<g class="st2">
		<path class="st0" d="M88.9,96.6c0-0.2,0-0.4-0.1-0.6c0-0.2-0.1-0.4-0.2-0.6c-0.2-0.5-0.5-0.9-0.9-1.1c-0.3-0.1-0.6-0.2-1-0.2
			c-0.4,0-0.7,0.1-1,0.3c-0.4,0.2-0.7,0.4-0.9,0.7c-0.3,0.3-0.5,0.6-0.6,1c-0.2,0.4-0.3,0.8-0.4,1.2c-0.1,0.4-0.1,0.9-0.1,1.3
			c0,0.5,0.1,1.1,0.1,1.6c0.1,0.5,0.2,1,0.5,1.4c0.2,0.3,0.4,0.6,0.7,0.8s0.6,0.4,1,0.5c0.3,0.1,0.7,0.1,1,0.1c0.3,0,0.7-0.1,1-0.2
			c0.2-0.1,0.4-0.2,0.6-0.4c0.2-0.2,0.5-0.4,0.7-0.7l0-1.5c0-0.1,0-0.1-0.1-0.2c-0.1-0.1-0.1-0.1-0.2-0.1l-2.3,0l0-1.4l3.9,0
			c0.2,0,0.4,0.1,0.5,0.2c0.2,0.1,0.3,0.2,0.4,0.4c0.1,0.2,0.2,0.5,0.2,0.7l0,4.5l-2.5,0l0-1c-0.4,0.4-0.9,0.7-1.4,0.9
			s-1.1,0.3-1.6,0.3c-0.5,0-1-0.1-1.5-0.2c-0.5-0.1-1-0.3-1.4-0.6c-0.4-0.2-0.8-0.5-1.1-0.9c-0.3-0.3-0.6-0.7-0.7-1.1
			c-0.2-0.6-0.4-1.2-0.5-1.9c-0.1-0.7-0.1-1.4,0-2.1c0.1-0.6,0.2-1.2,0.4-1.7c0.2-0.5,0.5-1,0.9-1.5c0.4-0.5,0.9-0.8,1.4-1.1
			c0.5-0.3,1.1-0.5,1.7-0.6c0.6-0.1,1.2-0.1,1.8-0.1c0.6,0.1,1.2,0.2,1.8,0.4c0.3,0.1,0.6,0.3,0.9,0.5c0.3,0.2,0.6,0.5,0.8,0.7
			c0.2,0.3,0.5,0.6,0.6,1.1c0.2,0.4,0.3,0.8,0.4,1.2L88.9,96.6z"/>
	</g>
	<g class="st2">
		<path class="st0" d="M104.8,98.7c0,0.7-0.1,1.4-0.3,2.1c-0.2,0.7-0.5,1.3-1,1.8c-0.5,0.6-1,1-1.7,1.3c-0.6,0.3-1.3,0.4-2,0.5
			c-0.5,0-1.1,0-1.6-0.1c-0.5-0.1-1-0.2-1.5-0.4c-0.4-0.2-0.8-0.4-1.2-0.7c-0.4-0.3-0.7-0.6-1-1.1c-0.4-0.6-0.6-1.2-0.8-1.9
			c-0.2-0.7-0.2-1.4-0.2-2.1c0-0.7,0.1-1.4,0.3-2c0.2-0.6,0.5-1.2,0.9-1.7c0.3-0.4,0.6-0.7,1-0.9c0.4-0.2,0.8-0.4,1.2-0.6
			c0.4-0.1,0.7-0.2,1.1-0.3c0.4-0.1,0.8-0.1,1.2-0.1c0.5,0,1,0,1.4,0.1c0.5,0.1,0.9,0.3,1.3,0.5c0.4,0.2,0.7,0.5,1,0.8
			c0.3,0.3,0.6,0.7,0.8,1.1c0.3,0.5,0.5,1.1,0.6,1.7S104.8,98.1,104.8,98.7z M102.2,98.3c0-0.5-0.1-1-0.2-1.5
			c-0.1-0.5-0.2-0.9-0.4-1.4c-0.1-0.2-0.2-0.4-0.4-0.6c-0.2-0.2-0.4-0.3-0.6-0.4c-0.2-0.1-0.4-0.2-0.7-0.2s-0.5-0.1-0.7-0.1
			c-0.5,0-0.9,0.1-1.3,0.3c-0.4,0.2-0.7,0.5-0.9,0.9c-0.3,0.5-0.5,1-0.6,1.6c-0.1,0.6-0.1,1.2-0.1,1.7c0,0.2,0,0.5,0,0.8
			c0,0.3,0.1,0.6,0.1,0.9c0.1,0.3,0.1,0.6,0.2,0.9c0.1,0.3,0.2,0.5,0.4,0.7c0.1,0.2,0.3,0.4,0.5,0.5c0.2,0.1,0.4,0.3,0.6,0.4
			c0.2,0.1,0.5,0.1,0.7,0.2c0.2,0,0.5,0,0.7,0c0.3,0,0.5-0.1,0.7-0.2s0.5-0.2,0.7-0.4c0.2-0.2,0.4-0.3,0.5-0.6s0.3-0.5,0.3-0.8
			c0.1-0.4,0.2-0.9,0.2-1.4C102.2,99.3,102.2,98.8,102.2,98.3z"/>
	</g>
	<path class="st3" d="M75.7,63.9h-1.3l0-1.7c0-0.6-0.5-1.1-1.1-1.1h-0.9v0c0-0.2,0.1-0.3,0.1-0.4c0-0.7-0.4-1.3-1.1-1.6l0,0l0-13.3
		l0,0c0.7-0.3,1.1-0.9,1.1-1.6c0-0.1,0-0.3-0.1-0.4v0h0.9c0.8,0,1.6-0.7,1.5-1.5v-1.3h1.2c0.4,0,0.7-0.3,0.7-0.7l0-2.1
		c0-0.2-0.1-0.5-0.3-0.6l-20-11.4c-0.2-0.1-0.5-0.1-0.7,0l-20,11.5c-0.2,0.1-0.3,0.3-0.3,0.6l0,2.1c0,0.4,0.3,0.7,0.7,0.7h1.1v1.3
		c0,0.8,0.7,1.5,1.5,1.5h1v0c0,0.2-0.1,0.3,0,0.4c0,0.7,0.4,1.3,1.1,1.6l0,0l0,13.3l0,0c-0.7,0.3-1.1,0.9-1.1,1.6
		c0,0.1,0,0.3,0.1,0.4v0h-0.9c-0.6,0-1.1,0.5-1.1,1.1V64h-1.1c-0.6,0-1.1,0.5-1.1,1.1v2c0,0.6,0.5,1.1,1.1,1.1l39.1-0.1
		c0.6,0,1.1-0.5,1.1-1.1v-2C76.8,64.4,76.3,63.9,75.7,63.9 M36.7,39.7v-1.1l0,0L56,27.5l0,0l19.4,11v1.1L36.7,39.7z M38.7,42.5
		c-0.1,0-0.2-0.1-0.2-0.2v-1.1c0-0.1,0.1-0.2,0.2-0.2l34.6-0.1c0.1,0,0.2,0.1,0.2,0.2v1.1c0,0.1-0.1,0.2-0.2,0.2L38.7,42.5z
		 M67.5,47.2C67.5,47.2,67.5,47.2,67.5,47.2C67.5,47.2,67.5,47.2,67.5,47.2c-0.2-0.1-0.3-0.1-0.4-0.1c-0.1,0-0.3,0-0.4,0.1l0,0
		c-0.2,0.1-0.3,0.3-0.3,0.5v0.1c0,0,0,0.1,0,0.1l0,11l-2.3,0l0-13l5.8,0l0,13l-2.3,0l0-11.2C67.8,47.5,67.7,47.4,67.5,47.2
		 M70.7,60.2c0.2,0,0.4,0.2,0.4,0.4s-0.2,0.4-0.4,0.4l-7.2,0c-0.2,0-0.4-0.2-0.4-0.4c0-0.2,0.2-0.4,0.4-0.4L70.7,60.2z M70.7,44.6
		l-7.2,0c-0.2,0-0.4-0.2-0.4-0.4c0-0.2,0.2-0.4,0.4-0.4l7.2,0c0.2,0,0.4,0.2,0.4,0.4C71.1,44.4,70.9,44.6,70.7,44.6 M61.8,61.1
		L61.8,61.1l-0.5,0v0c0-0.1,0.1-0.3,0-0.4c0-0.7-0.4-1.3-1.1-1.6l0,0l0-13.3l0,0c0.7-0.3,1.1-0.9,1.1-1.6c0-0.1,0-0.3-0.1-0.4v0h0.5
		v0c0,0.1,0,0.3,0,0.4c0,0.7,0.4,1.3,1.1,1.6l0,0l0,13.3l0,0c-0.7,0.3-1.1,0.9-1.1,1.6C61.8,60.8,61.8,61,61.8,61.1 M56.7,47.9v-0.1
		c0-0.2-0.1-0.4-0.2-0.5c0,0,0,0,0,0l0,0c-0.1-0.1-0.2-0.1-0.4-0.1c-0.4,0-0.7,0.3-0.7,0.7v0.1c0,0,0,0,0,0l0,11l-2.3,0l0-13l5.8,0
		l0,13l-2.3,0L56.7,47.9C56.7,48,56.7,47.9,56.7,47.9 M59.6,60.3c0.2,0,0.4,0.2,0.4,0.4c0,0.2-0.2,0.4-0.4,0.4l-7.2,0
		c-0.2,0-0.4-0.2-0.4-0.4c0-0.2,0.2-0.4,0.4-0.4L59.6,60.3z M59.6,44.6l-7.2,0c-0.2,0-0.4-0.2-0.4-0.4c0-0.2,0.2-0.4,0.4-0.4l7.2,0
		c0.2,0,0.4,0.2,0.4,0.4C60,44.4,59.8,44.6,59.6,44.6 M50.8,61.2L50.8,61.2l-0.5,0v0c0-0.2,0-0.3,0-0.4c0-0.7-0.4-1.3-1.1-1.6l0,0
		l0-13.3l0,0c0.7-0.3,1.1-0.9,1.1-1.6c0-0.1,0-0.3-0.1-0.4v0h0.5v0c0,0.2,0,0.3,0,0.4c0,0.7,0.4,1.3,1.1,1.6l0,0l0,13.3l0,0
		c-0.7,0.3-1.1,0.9-1.1,1.6C50.7,60.9,50.7,61,50.8,61.2 M45.6,47.9v-0.1c0-0.2-0.1-0.4-0.2-0.5c0,0,0,0,0,0s0,0,0,0
		c-0.1-0.1-0.2-0.1-0.4-0.1c-0.4,0-0.7,0.3-0.7,0.7l0,11.2L42,59l0-13l5.8,0l0,13l-2.3,0L45.6,47.9C45.6,48,45.6,48,45.6,47.9
		 M48.5,60.3c0.2,0,0.4,0.2,0.4,0.4s-0.2,0.4-0.4,0.4l-7.2,0c-0.2,0-0.4-0.2-0.4-0.4c0-0.2,0.2-0.4,0.4-0.4L48.5,60.3z M48.5,44.7
		l-7.2,0c-0.2,0-0.4-0.2-0.4-0.4s0.2-0.4,0.4-0.4l7.2,0c0.2,0,0.4,0.2,0.4,0.4C49,44.5,48.8,44.6,48.5,44.7 M39,62.5l34.1-0.1v1.5
		L39,64L39,62.5z M75.5,65.2l0,1.5l-38.7,0.1v0l0-1.5L75.5,65.2L75.5,65.2z"/>
</g>
</svg>
