<?xml version="1.0" encoding="utf-8"?>
<!-- Generator: Adobe Illustrator 24.0.1, SVG Export Plug-In . SVG Version: 6.00 Build 0)  -->
<svg version="1.1" id="圖層_1" xmlns="http://www.w3.org/2000/svg" xmlns:xlink="http://www.w3.org/1999/xlink" x="0px" y="0px"
	 viewBox="0 0 186.2 175" style="enable-background:new 0 0 186.2 175;" xml:space="preserve">
<style type="text/css">
	.st0{fill:#0F90C9;}
	.st1{fill:none;stroke:#FFFFFF;stroke-miterlimit:10;}
	.st2{enable-background:new    ;}
	.st3{fill:#FFFFFF;}
</style>
<g>
	<g>
		<polygon class="st0" points="93.8,174.1 184,48.2 149,0.9 36.7,1.5 2.2,49.3 		"/>
		<polygon class="st1" points="93.7,159 172,49.7 141.6,8.6 44.1,9.2 14.2,50.6 		"/>
	</g>
	<g class="st2">
		<path class="st3" d="M112.3,39.2c-0.8-0.9-2-2.4-2.6-3.6l-7.2,0c-0.5,1-1.8,2.8-2.6,3.6l-2.5,0c1-0.9,2.6-2.6,3.1-3.6l-3.1,0
			l0-1.4l3.2,0l0-5.8l-2.7,0l0-1.4l2.7,0l0-1.7l1.8,0l0,1.7l7.4,0l0-1.7l1.8,0l0,1.7l2.8,0l0,1.4l-2.8,0l0,5.8l3.2,0l0,1.4l-3.1,0
			c0.7,1.1,2.2,2.7,3.1,3.6L112.3,39.2z M97.9,43l0-1.4l7.4,0l0-2.4l-3.9,0l0-1.3l3.9,0l0-1.7l1.8,0l0,1.7l3.9,0l0,1.3l-3.9,0l0,2.4
			l7.4,0l0,1.4L97.9,43z M109.7,28.5l-7.4,0l0,1l7.4,0L109.7,28.5z M109.7,30.8l-7.4,0l0,1.1l7.4,0L109.7,30.8z M109.7,33.2l-7.4,0
			l0,1.1l7.4,0L109.7,33.2z"/>
		<path class="st3" d="M132.4,31.7c-0.4-0.4-1-1.1-1.4-1.6l0,1.1l-4.1,0l0,2.7l6.9,0l0,1.4l-6.9,0l0,6l7.8,0l0,1.4l-17.5,0.1l0-1.4
			l7.8,0l0-6l-6.9,0l0-1.4l6.9,0l0-2.7l-4.2,0l0-1.1c-0.4,0.5-1.1,1.3-1.4,1.5l-2.4,0c1.8-1.6,3.2-3.5,4.5-5.3
			c0.2-0.4,0.5-0.6,0.9-0.7c0.3-0.1,0.6-0.2,1-0.2l5,0c0.5,0,1,0.2,1.3,0.4c0.3,0.2,0.5,0.5,0.7,0.8c1.2,1.8,2.8,3.4,4.4,5
			L132.4,31.7z M121.2,40.6c-0.7-1.4-1.2-2.8-1.7-4.3l1.9,0c0.5,1.5,1.1,2.9,1.9,4.3L121.2,40.6z M128.8,27.2
			c-0.1-0.2-0.4-0.3-0.7-0.3l-4.4,0c-0.3,0-0.5,0.1-0.6,0.3c-0.5,0.7-1.3,1.9-1.9,2.7l9.6-0.1C130.2,29.1,129.3,28,128.8,27.2z
			 M130.9,40.5l-2.1,0c0.9-1.3,1.3-2.8,1.8-4.3l1.8,0C132.1,37.7,131.5,39.1,130.9,40.5z"/>
	</g>
	<g class="st2">
		<path class="st3" d="M100.7,55.1l0.1,11.9L99,67l0-8.8l-1.4,0c1.4-2.7,2.2-5.6,2.5-8.8l1.8,0C101.7,51.1,101.2,53.3,100.7,55.1z
			 M110.5,66.9c-0.8-0.3-1.6-0.7-2.3-1c-0.5,0.3-1.6,0.8-2.2,1.1l-4.3,0c1.6-0.6,3.5-1.3,4.8-2c-0.4-0.2-1.2-0.8-1.6-1.2
			c-0.2,0.2-0.5,0.5-0.7,0.6l-2.6,0c1.3-0.9,2.7-2,3.7-3.3l2.1,0c0,0.1-0.2,0.3-0.3,0.4l4.5,0c0.5,0,0.8,0.3,0.9,0.6
			c0.1,0.3,0.1,0.7-0.2,1c-0.7,0.7-1.6,1.3-2.4,1.8c1.7,0.8,3.9,1.5,5.5,1.9L110.5,66.9z M113.1,59l0-1.1c0-0.2-0.1-0.3-0.3-0.3
			l-9,0.1c-0.3,0-0.4,0.3-0.4,0.5l0,0.9l-1.7,0l0-0.9c0-0.6,0.2-1.1,0.6-1.3c0.3-0.2,0.7-0.3,1.2-0.4l0-3.3c0-0.6,0.2-1,0.5-1.3
			c0.3-0.3,0.7-0.4,1.3-0.4l1.7,0c0.1-0.2,0.3-0.6,0.3-0.8l-4.9,0l0-1.1l12.2-0.1l0,1.1l-5.5,0c-0.1,0.3-0.2,0.6-0.3,0.8l2.9,0
			c0.5,0,0.9,0.2,1.1,0.5c0.3,0.3,0.4,0.7,0.4,1.2l0,3.2c0.6,0,1,0.2,1.3,0.5c0.3,0.3,0.4,0.7,0.4,1.2l0,0.9L113.1,59z M104.3,61
			l-1.9,0c0.7-0.8,1.2-1.6,1.5-2.6l1.7,0C105.3,59.5,104.7,60.5,104.3,61z M111.3,53.1c0-0.2-0.2-0.4-0.4-0.4l-5.5,0
			c-0.2,0-0.3,0.2-0.3,0.4l0,0.1l6.2,0L111.3,53.1z M111.3,54.2l-6.2,0l0,0.6l6.2,0L111.3,54.2z M111.3,55.8l-6.2,0l0,0.7l6.2,0
			L111.3,55.8z M106,62.7c-0.1,0.1-0.3,0.3-0.5,0.5l1.2,0c0.4,0.3,1.1,0.8,1.4,0.9c0.7-0.4,1.4-0.9,2.1-1.4L106,62.7z M110.5,60.8
			l-3.3,0c-0.3,0-0.6-0.1-0.8-0.4c-0.2-0.2-0.4-0.6-0.4-0.9l0-1.4l1.7,0l0,1.1c0,0.3,0.2,0.5,0.5,0.5l2.9,0L110.5,60.8z M108.5,59.2
			c-0.2-0.4-0.4-0.9-0.5-1.3l1.8,0c0.1,0.3,0.3,0.9,0.5,1.3L108.5,59.2z M112.1,60.9c-0.6-0.8-1.2-1.7-1.5-2.7l1.8,0
			c0.4,1,1,1.8,1.8,2.7L112.1,60.9z"/>
		<path class="st3" d="M119.6,66.6l-2.1,0c1-1.3,1.5-2.8,2-4.3l1.9,0C121,63.8,120.4,65.2,119.6,66.6z M132.8,61.6
			c-0.2-0.2-0.3-0.5-0.5-0.8c-4.3,0.3-9.9,0.5-14.8,0.5l0-1.4c2.4,0.1,5.2,0.1,7.7,0l0-1.4l-5.2,0c-0.5,0-0.9-0.2-1.1-0.5
			c-0.2-0.3-0.4-0.7-0.4-1.2l0-2.3c0-0.5,0.1-0.9,0.4-1.2c0.3-0.3,0.8-0.5,1.3-0.5l5,0l0-1.1l-7.3,0l0-1.3l7.3,0l0-1.2l1.8,0l0,1.2
			l7.4,0l0,1.3l-7.4,0l0,1l5.2,0c0.4,0,0.9,0.2,1.2,0.5c0.3,0.3,0.4,0.7,0.4,1.1l0,2.4c0,0.5-0.2,1-0.5,1.3
			c-0.3,0.3-0.8,0.5-1.3,0.5l-5,0l0,1.3c1.4-0.1,3.2-0.2,4.6-0.3c-0.1-0.2-0.2-0.5-0.3-0.7l2,0c0.4,1,1,2,1.6,2.8L132.8,61.6z
			 M125.2,54.1l-4.4,0c-0.3,0-0.5,0.2-0.5,0.5l0,0.4l4.9,0L125.2,54.1z M125.2,56.2l-4.9,0l0,0.4c0,0.3,0.2,0.5,0.4,0.5l4.4,0
			L125.2,56.2z M130.8,66.7l-7.1,0c-0.3,0-0.6-0.1-0.9-0.4c-0.3-0.3-0.5-0.7-0.5-1.1l0-3.4l1.8,0l0,2.9c0,0.4,0.3,0.6,0.7,0.6l6.7,0
			L130.8,66.7z M127.1,64.5c-0.5-0.9-0.9-1.8-1.1-2.8l1.8,0c0.3,1,0.7,1.9,1.3,2.8L127.1,64.5z M132,54.6c0-0.4-0.2-0.6-0.6-0.6
			l-4.4,0l0,0.9l5,0L132,54.6z M132,56.2l-5,0l0,1l4.5,0c0.3,0,0.4-0.3,0.4-0.6L132,56.2z M132.9,66.5c-0.9-1.3-1.6-2.8-2-4.3l1.9,0
			c0.4,1.6,1.2,3,2.2,4.3L132.9,66.5z"/>
	</g>
	<g>
		<path class="st3" d="M111.6,99.5c0.1,10-8,18.2-18.1,18.3s-18.2-8-18.3-18.1c-0.1-10,8-18.2,18.1-18.3
			C103.3,81.4,111.5,89.5,111.6,99.5"/>
	</g>
	<g class="st2">
		<path class="st0" d="M89,96.7c0-0.2,0-0.4-0.1-0.6c0-0.2-0.1-0.4-0.2-0.6c-0.2-0.5-0.5-0.9-0.9-1.1c-0.3-0.1-0.6-0.2-1-0.2
			c-0.4,0-0.7,0.1-1,0.3c-0.4,0.2-0.7,0.4-0.9,0.7c-0.2,0.3-0.5,0.6-0.6,1c-0.2,0.4-0.3,0.8-0.4,1.2c-0.1,0.4-0.1,0.9-0.1,1.3
			c0,0.5,0.1,1.1,0.1,1.6s0.2,1,0.5,1.4c0.2,0.3,0.4,0.6,0.7,0.8c0.3,0.2,0.6,0.4,1,0.5c0.3,0.1,0.7,0.1,1,0.1c0.3,0,0.7-0.1,1-0.2
			c0.2-0.1,0.4-0.2,0.6-0.4c0.2-0.2,0.5-0.4,0.7-0.7l0-1.5c0-0.1,0-0.1-0.1-0.2s-0.1-0.1-0.2-0.1l-2.3,0l0-1.4l3.9,0
			c0.2,0,0.4,0.1,0.5,0.2c0.2,0.1,0.3,0.2,0.4,0.4c0.1,0.2,0.2,0.5,0.2,0.7l0,4.5l-2.5,0l0-1c-0.4,0.4-0.9,0.7-1.4,0.9
			s-1.1,0.3-1.6,0.3c-0.5,0-1-0.1-1.5-0.2s-1-0.3-1.4-0.6c-0.4-0.2-0.8-0.5-1.1-0.9c-0.3-0.3-0.6-0.7-0.7-1.1
			c-0.2-0.6-0.4-1.2-0.5-1.9c-0.1-0.7-0.1-1.4,0-2.1c0.1-0.6,0.2-1.2,0.4-1.7c0.2-0.6,0.5-1,0.9-1.5c0.4-0.5,0.9-0.8,1.4-1.1
			c0.5-0.3,1.1-0.5,1.7-0.6c0.6-0.1,1.2-0.2,1.8-0.1c0.6,0,1.2,0.2,1.8,0.4c0.3,0.1,0.6,0.3,0.9,0.5c0.3,0.2,0.6,0.5,0.8,0.7
			c0.2,0.3,0.5,0.6,0.6,1.1c0.2,0.4,0.3,0.8,0.4,1.2L89,96.7z"/>
	</g>
	<g class="st2">
		<path class="st0" d="M104.8,98.7c0,0.7-0.1,1.4-0.3,2.1c-0.2,0.7-0.5,1.3-1,1.8c-0.5,0.6-1,1-1.6,1.3s-1.3,0.5-2,0.5
			c-0.5,0-1.1,0-1.6-0.1c-0.5-0.1-1-0.2-1.5-0.4c-0.4-0.2-0.8-0.4-1.2-0.7c-0.4-0.3-0.7-0.6-1-1.1c-0.4-0.6-0.6-1.2-0.8-1.9
			c-0.2-0.7-0.2-1.4-0.2-2.1c0-0.7,0.1-1.4,0.3-2c0.2-0.6,0.5-1.2,0.9-1.7c0.3-0.4,0.6-0.7,1-0.9s0.8-0.4,1.2-0.6
			c0.4-0.1,0.7-0.2,1.1-0.3c0.4-0.1,0.8-0.1,1.2-0.1c0.5,0,1,0,1.4,0.1c0.5,0.1,0.9,0.3,1.3,0.5c0.4,0.2,0.7,0.5,1,0.8
			c0.3,0.3,0.6,0.7,0.8,1.1c0.3,0.5,0.5,1.1,0.6,1.7C104.8,97.4,104.8,98.1,104.8,98.7z M102.2,98.3c0-0.5-0.1-1-0.2-1.5
			c-0.1-0.5-0.2-0.9-0.4-1.4c-0.1-0.2-0.2-0.4-0.4-0.6s-0.4-0.3-0.6-0.4c-0.2-0.1-0.4-0.2-0.7-0.2c-0.2,0-0.5-0.1-0.7-0.1
			c-0.5,0-0.9,0.1-1.3,0.3s-0.7,0.5-0.9,0.9c-0.3,0.5-0.5,1-0.6,1.6s-0.1,1.2-0.1,1.7c0,0.2,0,0.5,0.1,0.8s0.1,0.6,0.1,0.9
			s0.1,0.6,0.2,0.9c0.1,0.3,0.2,0.5,0.4,0.7c0.1,0.2,0.3,0.4,0.5,0.5c0.2,0.1,0.4,0.3,0.6,0.3c0.2,0.1,0.5,0.1,0.7,0.2
			c0.2,0,0.5,0,0.7,0c0.3,0,0.5-0.1,0.7-0.2c0.2-0.1,0.5-0.2,0.7-0.4c0.2-0.2,0.4-0.3,0.5-0.6c0.2-0.2,0.3-0.5,0.3-0.8
			c0.1-0.4,0.2-0.9,0.2-1.4C102.2,99.3,102.2,98.8,102.2,98.3z"/>
	</g>
	<path class="st3" d="M51.4,50.7c1.8,0,3.3-1.5,3.3-3.3c0-0.6-0.2-1.2-0.5-1.7l5.2-4.7c0.6,0.4,1.2,0.7,2,0.7c1.2,0,2.2-0.6,2.8-1.5
		l4.1,1.8c-0.1,0.2-0.1,0.5-0.1,0.7c0,1.8,1.5,3.3,3.3,3.3c1.8,0,3.3-1.5,3.3-3.3c0-0.7-0.2-1.4-0.7-1.9l5.8-6.4
		c0.5,0.3,1,0.5,1.6,0.4c1.8,0,3.3-1.5,3.3-3.3c0-1.8-1.5-3.3-3.3-3.3s-3.3,1.5-3.3,3.3c0,0.8,0.3,1.4,0.7,2l-5.8,6.4
		c-0.5-0.3-1.1-0.5-1.7-0.5c-1.1,0-2.1,0.6-2.7,1.4l-4.2-1.8c0-0.2,0.1-0.4,0.1-0.6c0-1.8-1.5-3.3-3.3-3.3c-1.8,0-3.3,1.5-3.3,3.3
		c0,0.6,0.2,1.1,0.5,1.6l-5.3,4.8c-0.5-0.4-1.2-0.6-1.9-0.6c-1.8,0-3.3,1.5-3.3,3.3C48.1,49.2,49.6,50.7,51.4,50.7z M81.7,29.3
		c1.1,0,2,0.9,2,2c0,1.1-0.9,2-2,2c-1.1,0-2-0.9-2-2S80.6,29.3,81.7,29.3z M71.6,40.5c1.1,0,2,0.9,2,2s-0.9,2-2,2c-1.1,0-2-0.9-2-2
		C69.6,41.4,70.5,40.5,71.6,40.5z M61.5,36.3c1.1,0,2,0.9,2,2s-0.9,2-2,2s-2-0.9-2-2C59.5,37.2,60.4,36.3,61.5,36.3z M51.4,45.4
		c1.1,0,2,0.9,2,2s-0.9,2-2,2c-1.1,0-2-0.9-2-2C49.4,46.3,50.3,45.4,51.4,45.4z M87.1,64.9l-1.9,0l-0.2-26.7c0-0.4-0.3-0.7-0.7-0.7
		l-5.4,0c-0.4,0-0.7,0.3-0.7,0.7L78.5,65l-3.4,0L75,49.5c0-0.4-0.3-0.7-0.7-0.7l-5.4,0c-0.4,0-0.7,0.3-0.7,0.7l0.1,15.5l-3.4,0
		l-0.1-19.8c0-0.4-0.3-0.7-0.7-0.7l-5.4,0c-0.4,0-0.7,0.3-0.7,0.7l0.1,19.8l-3.4,0l-0.1-10.7c0-0.4-0.3-0.7-0.7-0.7l-5.4,0
		c-0.4,0-0.7,0.3-0.7,0.7l0.1,10.7l-1.9,0c-0.4,0-0.7,0.3-0.7,0.7s0.3,0.7,0.7,0.7l2.5,0l0,0l5.4,0c0,0,0,0,0,0l4.7,0l0,0l5.4,0
		c0,0,0,0,0,0l4.7,0l0,0l5.4,0c0,0,0,0,0,0l4.7,0l0,0l4.7,0l3.2,0c0.4,0,0.7-0.3,0.7-0.7C87.8,65.2,87.5,64.9,87.1,64.9z M53.6,65.1
		l-3.1,0l-1,0l-0.1-10.1l4.1,0L53.6,65.1z M63.7,65.1h-0.9l-3.2,0L59.5,46l4.1,0L63.7,65.1z M73.8,65L73.8,65l-4.1,0l-0.1-14.9
		l4.1,0L73.8,65z M83.9,65l-4.1,0l-0.2-26l4.1,0L83.9,65z"/>
</g>
</svg>
