<?xml version="1.0" encoding="utf-8"?>
<!-- Generator: Adobe Illustrator 24.0.1, SVG Export Plug-In . SVG Version: 6.00 Build 0)  -->
<svg version="1.1" id="圖層_1" xmlns="http://www.w3.org/2000/svg" xmlns:xlink="http://www.w3.org/1999/xlink" x="0px" y="0px"
	 viewBox="0 0 186.2 175" style="enable-background:new 0 0 186.2 175;" xml:space="preserve">
<style type="text/css">
	.st0{fill:#0F90C9;}
	.st1{fill:none;stroke:#FFFFFF;stroke-miterlimit:10;}
	.st2{enable-background:new    ;}
	.st3{fill:#FFFFFF;}
</style>
<g>
	<g>
		<polygon class="st0" points="92.8,174 184,48.9 149.4,1.2 37,1 2.2,48.5 		"/>
		<polygon class="st1" points="92.9,158.9 172,50.3 142,8.9 44.4,8.7 14.2,49.9 		"/>
	</g>
	<g class="st2">
		<path class="st3" d="M85.5,34.7c0,0.4-0.1,1-0.1,1.3l4.8,0c0.4,0,0.8,0.2,1.1,0.5c0.2,0.3,0.4,0.6,0.4,1l0,2.9
			c0,0.5-0.2,0.9-0.6,1.1c-0.3,0.2-0.7,0.4-1.1,0.4l-2.8,0l-0.8-1.3l3.1,0c0.2,0,0.4-0.2,0.4-0.5l0-2.4c0-0.2-0.2-0.4-0.4-0.4
			l-4.4,0c-0.6,1.8-2,3.4-3.6,4.6l-3.3,0c1.5-0.7,3.6-2.1,4.7-4.1c0.5-0.9,0.8-2,0.8-3.2l-5,0l0-1.3l6.3,0c-0.2-0.3-0.5-1-0.7-1.5
			l-6.1,0l0,1.2c0,2.9,0,5.8-0.8,8.5l-1.9,0c0.8-2.7,0.8-5.2,0.8-8.7l0-6.1c0-0.5,0.2-0.9,0.5-1.1c0.3-0.3,0.8-0.5,1.2-0.5
			c4.7,0,9.3-0.2,14-0.7l0,1.4c-4.4,0.4-9.6,0.6-13.5,0.6c-0.3,0-0.4,0.2-0.4,0.4l0,0.7l12.4,0c0.4,0,0.8,0.2,1.1,0.5
			c0.2,0.3,0.3,0.6,0.3,1l0,1.1c0,0.5-0.2,0.9-0.5,1.2c-0.3,0.3-0.7,0.4-1.2,0.4l-4.1,0c0.1,0.4,0.6,1.2,0.8,1.5l5.9,0l0,1.3
			L85.5,34.7z M90.1,29.4c0-0.2-0.1-0.4-0.4-0.4l-11.5,0l0,1.5l11.5,0c0.2,0,0.4-0.1,0.4-0.4L90.1,29.4z"/>
	</g>
	<g class="st2">
		<path class="st3" d="M102.5,35.1c-1.1-1.5-1.7-2.4-3.2-3.4l2.5,0c1.5,1.3,1.9,1.8,2.9,3.4L102.5,35.1z"/>
	</g>
	<g class="st2">
		<path class="st3" d="M113.9,31.2l0.9,0l0,11.7l-1.8,0l0-11l-1.7,0c1.7-2.1,2.5-4.5,3.2-6.5l1.9,0
			C115.7,27.4,114.9,29.4,113.9,31.2z M115.9,28.8l0-1.4l5.4,0c-0.2-0.7-0.5-1.4-0.7-2.1l2,0c0.2,0.6,0.4,1.5,0.7,2.1l5.7,0l0,1.4
			L115.9,28.8z M128,42.4c-0.3,0.3-0.8,0.5-1.4,0.5l-8.5,0c-0.5,0-0.9-0.1-1.3-0.4c-0.4-0.3-0.6-0.7-0.6-1.3l0-3.2
			c0-0.5,0.2-1,0.6-1.3c0.3-0.2,0.7-0.4,1.1-0.4l8.7,0c0.6,0,1,0.2,1.3,0.5c0.3,0.3,0.4,0.7,0.4,1.2l0,3
			C128.5,41.6,128.3,42.1,128,42.4z M116.6,34.8l0-1.4l11.4,0l0,1.4L116.6,34.8z M116.6,31.7l0-1.4l11.4,0l0,1.4L116.6,31.7z
			 M126.6,38.3c0-0.3-0.1-0.5-0.5-0.5l-7.4,0c-0.3,0-0.5,0.2-0.5,0.5l0,2.7c0,0.3,0.2,0.4,0.4,0.4l7.5,0c0.2,0,0.4-0.2,0.4-0.4
			L126.6,38.3z"/>
		<path class="st3" d="M135.6,27.7l0,4l-1.8,0l0-2.6l-2.4,0c1.4-0.9,2.7-2.3,3.5-3.7l2.2,0C136.8,26.2,136.3,27,135.6,27.7z
			 M135.1,43l-3.4,0c1.3-0.6,2.7-1.2,3.8-2.2l2.7,0C137.3,41.7,136.2,42.4,135.1,43z M147.1,39.9c-0.3,0.3-0.7,0.5-1.4,0.5l-11.3,0
			c-0.4,0-0.7-0.2-1-0.6c-0.3-0.3-0.4-0.7-0.4-1.1l0-4.7c0-0.3,0.2-0.8,0.6-1.1c0.3-0.3,0.7-0.4,1.1-0.4l11.2,0
			c0.5,0,0.9,0.2,1.2,0.5c0.3,0.3,0.5,0.7,0.5,1.2l0,4.4C147.5,39.1,147.4,39.6,147.1,39.9z M145.8,38.1l-11.1,0l0,0.6
			c0,0.2,0.3,0.5,0.5,0.5l10.1,0c0.2,0,0.4-0.2,0.4-0.4L145.8,38.1z M145.8,35.9l-11.1,0l0,1l11.1,0L145.8,35.9z M145.8,34.2
			c0-0.3-0.2-0.5-0.5-0.5l-10,0c-0.2,0-0.5,0.2-0.5,0.4l0,0.5l11.1,0L145.8,34.2z M148.6,31.8l-3.9,0c-0.5,0-1-0.3-1.3-0.5
			c-0.7-0.7-1.5-1.9-2-2.6l-4.4,0.2l0-1.4l3.5-0.1c-0.3-0.4-0.9-1.4-1.2-1.9l2,0c0.3,0.5,0.9,1.4,1.2,1.8l2.1-0.1
			c-0.2-0.5-0.5-1.1-0.7-1.6l1.9,0c0.2,0.5,0.4,1.1,0.7,1.5l2.1-0.1l0,1.3l-5.2,0.2c0.3,0.5,0.9,1.2,1.2,1.6
			c0.2,0.2,0.5,0.4,0.8,0.4l3.7,0L148.6,31.8z M145.4,43c-1-0.6-2.1-1.3-3-2.2l2.8,0c0.9,0.8,2.4,1.6,3.8,2.2L145.4,43z"/>
	</g>
	<g class="st2">
		<path class="st3" d="M78.7,55l0,11.9l-1.7,0l0-8.8l-1.4,0c1.4-2.7,2.2-5.6,2.6-8.7l1.8,0C79.7,51,79.2,53.2,78.7,55z M88.4,66.8
			c-0.8-0.3-1.6-0.7-2.3-1c-0.5,0.3-1.6,0.8-2.2,1.1l-4.3,0c1.6-0.6,3.5-1.3,4.8-2c-0.4-0.2-1.2-0.8-1.6-1.2
			c-0.2,0.2-0.5,0.5-0.7,0.6l-2.6,0c1.3-0.9,2.7-2,3.7-3.3l2.1,0c0,0.1-0.2,0.3-0.3,0.4l4.5,0c0.5,0,0.8,0.3,0.9,0.6
			c0.1,0.3,0.1,0.7-0.2,1c-0.7,0.7-1.6,1.3-2.4,1.8c1.7,0.8,3.9,1.5,5.5,2L88.4,66.8z M91.1,59l0-1.1c0-0.2-0.1-0.3-0.3-0.3l-9,0
			c-0.3,0-0.4,0.3-0.4,0.5l0,0.9l-1.7,0l0-0.9c0-0.6,0.2-1.1,0.6-1.3c0.3-0.2,0.7-0.3,1.2-0.4l0-3.3c0-0.6,0.2-1,0.5-1.3
			c0.3-0.3,0.7-0.4,1.3-0.4l1.7,0c0.1-0.2,0.3-0.6,0.3-0.8l-4.9,0l0-1.1l12.2,0l0,1.1l-5.5,0c-0.1,0.3-0.2,0.6-0.3,0.8l2.9,0
			c0.5,0,0.9,0.2,1.1,0.5c0.3,0.3,0.4,0.7,0.4,1.2l0,3.2c0.6,0,1,0.2,1.3,0.5c0.3,0.3,0.4,0.7,0.4,1.2l0,0.9L91.1,59z M82.3,60.9
			l-1.9,0c0.7-0.8,1.2-1.6,1.5-2.6l1.7,0C83.3,59.5,82.7,60.4,82.3,60.9z M89.3,55.8l-6.2,0l0,0.7l6.2,0L89.3,55.8z M89.3,54.2
			l-6.2,0l0,0.6l6.2,0L89.3,54.2z M89.3,53c0-0.2-0.2-0.4-0.4-0.4l-5.5,0c-0.2,0-0.3,0.2-0.3,0.4v0.1l6.2,0V53z M84,62.6
			c-0.1,0.1-0.3,0.3-0.5,0.5l1.2,0c0.4,0.3,1.1,0.8,1.4,0.9c0.7-0.4,1.4-0.9,2.1-1.4L84,62.6z M88.5,60.7l-3.3,0
			c-0.3,0-0.6-0.1-0.8-0.4c-0.2-0.2-0.4-0.6-0.4-0.9l0-1.4l1.7,0l0,1.1c0,0.3,0.2,0.5,0.5,0.5l2.9,0L88.5,60.7z M86.6,59.2
			c-0.2-0.4-0.4-0.9-0.5-1.3l1.8,0c0.1,0.3,0.3,0.9,0.5,1.3L86.6,59.2z M90.1,60.9c-0.6-0.8-1.2-1.7-1.5-2.7l1.8,0
			c0.4,1,1,1.8,1.8,2.7L90.1,60.9z"/>
		<path class="st3" d="M97.6,66.6l-2.1,0c1-1.3,1.6-2.8,2-4.3l1.9,0C99,63.8,98.4,65.3,97.6,66.6z M110.8,61.8
			c-0.2-0.2-0.3-0.5-0.5-0.8c-4.3,0.2-9.9,0.5-14.8,0.4l0-1.4c2.4,0.1,5.2,0.1,7.7,0l0-1.4l-5.2,0c-0.5,0-0.9-0.2-1.1-0.5
			c-0.2-0.3-0.4-0.7-0.4-1.2l0-2.3c0-0.5,0.1-0.9,0.4-1.2c0.3-0.3,0.8-0.5,1.3-0.5l5,0l0-1.1l-7.3,0l0-1.3l7.3,0l0-1.2l1.8,0l0,1.2
			l7.4,0l0,1.3l-7.4,0l0,1l5.2,0c0.4,0,0.9,0.2,1.2,0.5c0.3,0.3,0.4,0.7,0.4,1.1l0,2.4c0,0.5-0.2,1-0.5,1.3
			c-0.3,0.3-0.8,0.5-1.3,0.5l-5,0l0,1.3c1.4-0.1,3.2-0.2,4.6-0.3c-0.1-0.2-0.2-0.5-0.3-0.7l2,0c0.4,1,0.9,2,1.6,2.8L110.8,61.8z
			 M103.3,56.3l-4.9,0l0,0.4c0,0.3,0.2,0.5,0.4,0.5l4.4,0L103.3,56.3z M103.3,54.1l-4.4,0c-0.3,0-0.5,0.2-0.5,0.5l0,0.4l4.9,0
			L103.3,54.1z M108.7,66.9l-7.1,0c-0.3,0-0.6-0.1-0.9-0.4c-0.3-0.3-0.5-0.7-0.5-1.1l0-3.4l1.8,0l0,2.9c0,0.4,0.3,0.6,0.7,0.6l6.7,0
			L108.7,66.9z M105.1,64.6c-0.5-0.9-0.8-1.8-1.1-2.8l1.8,0c0.3,1,0.7,1.9,1.2,2.8L105.1,64.6z M110,56.3l-5,0l0,1l4.5,0
			c0.3,0,0.4-0.3,0.4-0.6L110,56.3z M110,54.7c0-0.4-0.2-0.6-0.6-0.6l-4.4,0l0,0.9l5,0L110,54.7z M110.9,66.7
			c-0.9-1.3-1.6-2.8-1.9-4.3l1.9,0c0.4,1.6,1.2,3,2.2,4.3L110.9,66.7z"/>
	</g>
	<g>
		<path class="st3" d="M111.2,99.5c0,10-8.2,18.1-18.2,18.1s-18.1-8.2-18.1-18.2S83,81.3,93,81.3C103.1,81.4,111.2,89.5,111.2,99.5"
			/>
	</g>
	<g class="st2">
		<path class="st0" d="M88.6,96.5c0-0.2,0-0.4-0.1-0.6c0-0.2-0.1-0.4-0.2-0.6c-0.2-0.5-0.5-0.9-0.9-1.1c-0.3-0.1-0.6-0.2-1-0.2
			c-0.4,0-0.7,0.1-1,0.2c-0.4,0.2-0.7,0.4-0.9,0.7c-0.3,0.3-0.5,0.6-0.6,1c-0.2,0.4-0.3,0.8-0.4,1.2c-0.1,0.4-0.1,0.9-0.1,1.3
			c0,0.5,0,1.1,0.1,1.6s0.2,1,0.5,1.4c0.2,0.3,0.4,0.6,0.7,0.8c0.3,0.2,0.6,0.4,1,0.5c0.3,0.1,0.7,0.1,1,0.1c0.3,0,0.7-0.1,1-0.2
			c0.2-0.1,0.4-0.2,0.6-0.4c0.2-0.2,0.5-0.4,0.7-0.6l0-1.5c0-0.1,0-0.1-0.1-0.2s-0.1-0.1-0.2-0.1l-2.3,0l0-1.4l3.9,0
			c0.2,0,0.4,0.1,0.5,0.2c0.2,0.1,0.3,0.2,0.4,0.4c0.1,0.2,0.2,0.5,0.2,0.7l0,4.5l-2.5,0l0-1c-0.4,0.4-0.9,0.7-1.4,0.9
			s-1.1,0.3-1.6,0.3c-0.5,0-1-0.1-1.5-0.2c-0.5-0.1-0.9-0.3-1.4-0.6c-0.4-0.2-0.8-0.5-1.1-0.9c-0.3-0.3-0.6-0.7-0.7-1.1
			c-0.2-0.6-0.4-1.2-0.5-1.9c-0.1-0.7-0.1-1.4,0-2.1c0.1-0.6,0.2-1.2,0.4-1.7c0.2-0.5,0.5-1,0.9-1.5c0.4-0.5,0.9-0.8,1.4-1.1
			c0.5-0.3,1.1-0.5,1.7-0.6c0.6-0.1,1.2-0.1,1.8-0.1s1.2,0.2,1.8,0.4c0.3,0.1,0.6,0.3,0.9,0.5s0.6,0.5,0.8,0.7
			c0.2,0.3,0.5,0.6,0.6,1.1c0.2,0.4,0.3,0.9,0.4,1.2L88.6,96.5z"/>
	</g>
	<g class="st2">
		<path class="st0" d="M104.5,98.7c0,0.7-0.1,1.4-0.3,2.1c-0.2,0.7-0.5,1.3-1,1.8c-0.5,0.6-1,1-1.7,1.3c-0.6,0.3-1.3,0.4-2,0.5
			c-0.5,0-1.1,0-1.6-0.1c-0.5-0.1-1-0.2-1.5-0.4c-0.4-0.2-0.8-0.4-1.2-0.7c-0.4-0.3-0.7-0.6-1-1.1c-0.4-0.6-0.6-1.2-0.8-1.9
			c-0.2-0.7-0.2-1.4-0.2-2.1c0-0.7,0.2-1.4,0.4-2c0.2-0.6,0.5-1.2,0.9-1.7c0.3-0.4,0.6-0.7,1-0.9c0.4-0.2,0.8-0.4,1.2-0.6
			c0.4-0.1,0.7-0.2,1.1-0.3c0.4-0.1,0.8-0.1,1.2-0.1c0.5,0,1,0.1,1.4,0.2c0.5,0.1,0.9,0.3,1.3,0.5c0.4,0.2,0.7,0.5,1,0.8
			c0.3,0.3,0.6,0.7,0.8,1.1c0.3,0.5,0.5,1.1,0.6,1.7S104.5,98.1,104.5,98.7z M101.9,98.2c0-0.5-0.1-1-0.2-1.5
			c-0.1-0.5-0.2-0.9-0.4-1.4c-0.1-0.2-0.2-0.4-0.4-0.6c-0.2-0.2-0.4-0.3-0.6-0.4c-0.2-0.1-0.4-0.2-0.7-0.2c-0.2,0-0.5-0.1-0.7-0.1
			c-0.5,0-0.9,0.1-1.3,0.3c-0.4,0.2-0.7,0.5-1,0.9c-0.3,0.5-0.5,1-0.6,1.6S96,98,96,98.6c0,0.2,0,0.5,0,0.8c0,0.3,0.1,0.6,0.1,0.9
			c0.1,0.3,0.1,0.6,0.2,0.9c0.1,0.3,0.2,0.5,0.4,0.7s0.3,0.4,0.5,0.5c0.2,0.1,0.4,0.3,0.6,0.4c0.2,0.1,0.5,0.1,0.7,0.2
			c0.2,0,0.5,0,0.7,0c0.3,0,0.5-0.1,0.7-0.2c0.2-0.1,0.5-0.2,0.7-0.4c0.2-0.2,0.4-0.3,0.5-0.6c0.2-0.2,0.3-0.5,0.3-0.8
			c0.1-0.4,0.2-0.9,0.3-1.4C101.9,99.2,101.9,98.7,101.9,98.2z"/>
	</g>
	<path class="st3" d="M64.6,45.2L50.4,31.7c-0.2-0.2-0.6-0.2-0.9,0L35.3,45.1c-0.2,0.2-0.4,0.4-0.4,0.9l0,21.2
		c0,0.3,0.3,0.6,0.6,0.6l10.2,0l8.3,0l10.3,0c0.3,0,0.6-0.3,0.6-0.6L65,46C65,45.6,64.8,45.4,64.6,45.2z M46.3,66.6l0-7l7,0l0,7
		L46.3,66.6z M54.6,66.7l0-7.6c0-0.3-0.3-0.6-0.6-0.6l-8.3,0c-0.3,0-0.6,0.3-0.6,0.6l0,7.6l-9,0l0-20.6l13.8-13l13.8,13l0,20.6
		L54.6,66.7z M70.8,45.3L50.4,26c-0.2-0.2-0.6-0.2-0.9,0L29.1,45.2c-0.3,0.2-0.3,0.7,0,0.9c0.2,0.3,0.6,0.3,0.9,0l20-18.8l19.9,18.9
		c0.1,0.1,0.3,0.2,0.4,0.2c0.2,0,0.3-0.1,0.5-0.2C71,46,71,45.6,70.8,45.3z"/>
</g>
</svg>
