<?xml version="1.0" encoding="utf-8"?>
<!-- Generator: Adobe Illustrator 24.0.1, SVG Export Plug-In . SVG Version: 6.00 Build 0)  -->
<svg version="1.1" id="圖層_1" xmlns="http://www.w3.org/2000/svg" xmlns:xlink="http://www.w3.org/1999/xlink" x="0px" y="0px"
	 viewBox="0 0 186.2 175" style="enable-background:new 0 0 186.2 175;" xml:space="preserve">
<style type="text/css">
	.st0{fill:#0F90C9;}
	.st1{fill:none;stroke:#FFFFFF;stroke-miterlimit:10;}
	.st2{enable-background:new    ;}
	.st3{fill:#FFFFFF;}
</style>
<g>
	<g>
		<polygon class="st0" points="37,1 2.2,48.6 93.1,174 184,48.7 149.3,1.1 37,1 		"/>
		<polygon class="st1" points="93.1,158.9 172,50.1 141.9,8.8 44.3,8.7 14.2,50 		"/>
		<g class="st2">
			<path class="st3" d="M77.7,48l-3,0c1.7-1.3,3.4-2.8,4.4-4.5c-0.9-1.1-2.2-2.9-3-4.2l2,0c0.5,0.9,1.1,1.7,1.8,2.5
				c0.8-2,1.1-4.3,1.2-6.6c0-0.3-0.2-0.5-0.5-0.5l-2.8,0c-0.4,1.4-0.9,2.8-1.6,4.1l-2.1,0c1.5-2.5,2.2-5.3,2.7-8.3h1.9
				c-0.1,0.9-0.3,1.9-0.4,2.7l3.1,0c0.5,0,0.9,0.2,1.2,0.5c0.3,0.4,0.5,0.9,0.5,1.6C82.7,40.9,81.6,44.2,77.7,48z M89.5,42.4
				c-1.2-1.7-2.6-4.5-3.3-6.7l0,12.3l-1.8,0l0-17.5l1.8,0l0,4.6l1.7,0c0.9,2.5,2.3,5.2,4,7.3L89.5,42.4z"/>
			<path class="st3" d="M95.4,32.9c-0.3-0.6-0.8-1.4-0.9-2l1.8,0c0.2,0.7,0.7,1.5,1,2L95.4,32.9z M108.7,40c-0.4-0.4-1.1-1-1.4-1.3
				c-0.3,0.4-0.9,1-1.3,1.3l-2.7,0c1.1-0.8,2.3-1.9,2.9-2.6c-0.5-0.6-1.2-1.7-1.6-2.4H103l0,3.7c0,0.4-0.1,0.7-0.4,0.9
				c-0.2,0.2-0.6,0.4-1,0.4h-1.1l-0.5-1.4l0.9,0c0.2,0,0.4-0.2,0.4-0.4l0-3.1c0-0.3-0.3-0.5-0.6-0.5l-1.1,0l0,5.2l-1.7,0l0-5.2h-1.2
				c-0.2,0-0.5,0.2-0.5,0.5l0,4.9l-1.7,0l0-5.3c0-0.4,0.2-0.7,0.4-1c0.3-0.2,0.6-0.4,1.1-0.4l1.8,0l0-2.9l1.8,0l0,2.9l1.8,0
				c0.4,0,0.8,0.2,1,0.4c0.3,0.3,0.5,0.7,0.5,1.1c0.9-1.1,1.5-2.8,2-4.4h1.8c-0.1,0.4-0.3,1-0.5,1.5l5.4,0l0,1.4l-1.1,0
				c-0.4,1.3-1.2,2.9-2.1,4.1c0.8,0.8,2.3,2.1,3.3,2.7L108.7,40z M110,46.7c-0.3,0.3-0.8,0.4-1.3,0.4l-1.9,0l-0.6-1.4l2.1,0
				c0.2,0,0.4-0.2,0.4-0.5l0-1.9c0-0.3-0.2-0.5-0.4-0.5l-4.5,0l0,5.1l-1.7,0l0-5.1l-4.5,0c-0.2,0-0.5,0.2-0.5,0.4l0,3.9l-1.7,0l0-4
				c0-0.5,0.2-0.9,0.5-1.2c0.3-0.2,0.7-0.3,1.2-0.3l4.9,0l0-0.9l1.7,0v0.9l5.1,0c0.6,0,1,0.2,1.3,0.5c0.2,0.3,0.3,0.7,0.3,1.1l0,2.5
				C110.5,46.1,110.3,46.4,110,46.7z M97.3,38.7h-1c0.2-0.9,0.3-2.2,0.3-3.3h0.8C97.6,36.5,97.5,37.8,97.3,38.7z M100.1,38.2
				c-0.1-0.8-0.2-2-0.2-2.8l0.9,0c0,0.9,0.1,2.1,0.3,2.8L100.1,38.2z M102.1,32.9l-2,0c0.4-0.5,0.7-1.3,0.9-2l1.9,0
				C102.7,31.5,102.4,32.3,102.1,32.9z M105.8,33.3c-0.2,0.4-0.4,0.9-0.6,1.3h1.2c0.2,0.4,0.6,1,0.9,1.3c0.5-0.7,1.1-1.9,1.4-2.6
				L105.8,33.3z"/>
			<path class="st3" d="M117.5,36.1l0,11.9h-1.7l0-8.8l-1.4,0c1.4-2.7,2.2-5.6,2.5-8.7l1.8,0C118.5,32.1,118,34.3,117.5,36.1z
				 M127.2,47.9c-0.8-0.3-1.6-0.7-2.3-1c-0.5,0.3-1.6,0.8-2.2,1.1l-4.3,0c1.6-0.6,3.5-1.3,4.8-2c-0.4-0.2-1.2-0.8-1.6-1.2
				c-0.2,0.2-0.5,0.5-0.7,0.6l-2.6,0c1.3-0.9,2.7-2,3.7-3.3l2.1,0c0,0.1-0.2,0.3-0.3,0.4l4.5,0c0.5,0,0.8,0.3,0.9,0.6
				c0.1,0.3,0.1,0.7-0.2,1c-0.7,0.7-1.6,1.3-2.4,1.8c1.7,0.8,3.9,1.5,5.5,2L127.2,47.9z M129.9,40.1V39c0-0.2-0.1-0.3-0.3-0.3l-9,0
				c-0.3,0-0.4,0.3-0.4,0.5v0.9l-1.7,0v-0.9c0-0.6,0.2-1.1,0.6-1.3c0.3-0.2,0.7-0.3,1.2-0.4l0-3.3c0-0.6,0.2-1,0.5-1.3
				c0.3-0.3,0.7-0.4,1.3-0.4h1.7c0.1-0.2,0.3-0.6,0.3-0.8l-4.9,0v-1.1l12.2,0v1.1l-5.5,0c-0.1,0.3-0.2,0.6-0.3,0.8l2.9,0
				c0.5,0,0.9,0.2,1.1,0.5c0.3,0.3,0.4,0.7,0.4,1.2l0,3.2c0.6,0,1,0.2,1.3,0.5c0.3,0.3,0.4,0.7,0.4,1.2v0.9L129.9,40.1z M121.1,42
				l-1.9,0c0.7-0.8,1.2-1.6,1.5-2.6l1.7,0C122.1,40.5,121.5,41.5,121.1,42z M128.1,36.9l-6.2,0v0.7l6.2,0V36.9z M128.1,35.3l-6.2,0
				v0.6l6.2,0V35.3z M128.1,34.1c0-0.2-0.2-0.4-0.4-0.4l-5.5,0c-0.2,0-0.3,0.2-0.3,0.4v0.1l6.2,0V34.1z M122.8,43.7
				c-0.1,0.1-0.3,0.3-0.5,0.5h1.2c0.4,0.3,1.1,0.8,1.4,0.9c0.7-0.4,1.4-0.9,2.1-1.4L122.8,43.7z M127.3,41.8l-3.3,0
				c-0.3,0-0.6-0.1-0.8-0.4c-0.2-0.2-0.4-0.6-0.4-0.9v-1.4l1.7,0v1.1c0,0.3,0.2,0.5,0.5,0.5l2.9,0L127.3,41.8z M125.3,40.3
				c-0.2-0.4-0.4-0.9-0.5-1.3l1.8,0c0.1,0.3,0.3,0.9,0.5,1.3L125.3,40.3z M128.9,41.9c-0.6-0.8-1.2-1.7-1.5-2.7l1.8,0
				c0.4,1,1,1.8,1.8,2.7L128.9,41.9z"/>
			<path class="st3" d="M136.1,46.1l-1.8,0c0.9-2.8,1.4-5.7,1.7-8.7l1.7,0C137.3,40.4,136.9,43.3,136.1,46.1z M140.3,36.5l0,11.4
				l-1.7,0l0-11.4l-4.2,0v-1.4l4.2,0l0-2.5c-1,0.1-2.7,0.2-3.6,0.2l0-1.5c2.9,0,5.7-0.3,8.3-0.9v1.5c-0.7,0.1-2.1,0.4-3,0.5l0,2.7
				l3.6,0v1.4L140.3,36.5z M142.7,46.1c-0.7-2.7-1.2-6-1.5-8.7l1.6,0c0.3,3,0.8,5.9,1.6,8.7L142.7,46.1z M145.1,43.5l0-12.1l1.8,0
				l0,12.1L145.1,43.5z M150.9,47.4c-0.3,0.3-0.8,0.5-1.4,0.5l-2.8,0l-0.6-1.4l2.9,0c0.3,0,0.5-0.2,0.5-0.5l0-15.5l1.8,0l0,15.7
				C151.4,46.6,151.2,47.1,150.9,47.4z"/>
		</g>
		<g class="st2">
			<path class="st3" d="M91.2,71.9l-8,0c-1,0-2-0.2-2.9-0.6c-0.9-0.4-1.8-1-2.6-1.7c-0.3,0.8-0.8,1.7-1.2,2.3l-2.2,0
				c1.7-2.4,2.7-5,3.2-7.9l1.8,0c-0.2,1.4-0.6,2.9-1.1,4.2c1.1,1,2.4,1.8,3.8,2l0-8l-7.4,0l0-1.4l16.7,0l0,1.4l-7.5,0l0,2.7l6.5,0
				l0,1.4l-6.5,0l0,4.1l8,0L91.2,71.9z M89.2,60.1l0-1.9c0-0.3-0.3-0.5-0.5-0.5l-11.5,0c-0.2,0-0.4,0.2-0.4,0.5l0,1.9h-1.8l0-2
				c0-0.7,0.2-1.1,0.6-1.4c0.3-0.2,0.7-0.4,1.1-0.4l5.5,0c-0.3-0.4-0.8-1.3-1-1.9l2.2,0c0.3,0.6,0.8,1.6,1.1,1.9l5.2,0
				c0.6,0,1,0.3,1.2,0.6c0.2,0.4,0.4,0.8,0.4,1.3l0,1.8L89.2,60.1z"/>
			<path class="st3" d="M100.9,58.2c-0.7,1.7-2.2,3.9-3.3,5.1l1.3,0l0,8.7l-1.8,0l0-8c-0.1,0.2-0.3,0.4-0.5,0.5l-2.5,0
				c2.1-1.9,3.7-3.8,4.8-6.2l-4.6,0v-1.4l5.1,0c0.2-0.5,0.6-1.7,0.8-2.4l1.9,0c-0.1,0.6-0.5,1.6-0.7,2.4l10.2,0v1.4L100.9,58.2z
				 M106.2,66.4l0,4c0,0.6-0.2,0.9-0.5,1.2c-0.3,0.2-0.7,0.3-1.1,0.3h-1.9l-0.7-1.4l2,0c0.2,0,0.4-0.1,0.4-0.4l0-3.8l-4.6,0l0-1.3
				l4.6,0v-1.6c1.3-0.6,2.7-1.3,3.9-2.2c-0.7,0.1-1.6,0.1-2.3,0.1l-5.3,0l0-1.4l8.5,0c0.5,0,0.8,0.3,1,0.6c0.2,0.4,0.2,1-0.3,1.4
				c-1,0.8-2.4,1.6-3.7,2.3v0.8l5.3,0l0,1.3L106.2,66.4z"/>
		</g>
		<g>
			<path class="st3" d="M111.2,99.5c0,10-8.1,18.2-18.2,18.2c-10,0-18.2-8.1-18.2-18.2c0-10,8.1-18.2,18.2-18.2
				C103.1,81.3,111.2,89.4,111.2,99.5"/>
		</g>
		<g class="st2">
			<path class="st0" d="M88.6,96.5c0-0.2,0-0.4-0.1-0.6c0-0.2-0.1-0.4-0.2-0.6c-0.2-0.5-0.5-0.9-0.9-1.1c-0.3-0.1-0.6-0.2-1-0.2
				s-0.7,0.1-1,0.2c-0.4,0.2-0.7,0.4-0.9,0.7c-0.3,0.3-0.5,0.6-0.6,1c-0.2,0.4-0.3,0.8-0.4,1.2c-0.1,0.4-0.1,0.9-0.1,1.3
				c0,0.5,0.1,1.1,0.1,1.6c0.1,0.5,0.2,1,0.5,1.4c0.2,0.3,0.4,0.6,0.7,0.8c0.3,0.2,0.6,0.4,1,0.5c0.3,0.1,0.7,0.1,1,0.1
				c0.3,0,0.7-0.1,1-0.2c0.2-0.1,0.4-0.2,0.6-0.4c0.2-0.2,0.5-0.4,0.7-0.7l0-1.5c0-0.1,0-0.1-0.1-0.2s-0.1-0.1-0.2-0.1l-2.3,0l0-1.4
				l3.9,0c0.2,0,0.4,0.1,0.5,0.2c0.2,0.1,0.3,0.2,0.4,0.4c0.1,0.2,0.2,0.5,0.2,0.7l0,4.5l-2.5,0l0-1c-0.4,0.4-0.9,0.7-1.4,0.9
				c-0.5,0.2-1.1,0.3-1.6,0.3c-0.5,0-1-0.1-1.5-0.2c-0.5-0.1-0.9-0.3-1.4-0.6c-0.4-0.2-0.8-0.5-1.1-0.9c-0.3-0.3-0.6-0.7-0.7-1.1
				c-0.2-0.6-0.4-1.2-0.5-1.9c-0.1-0.7-0.1-1.4,0-2.1c0.1-0.6,0.2-1.2,0.4-1.7c0.2-0.5,0.5-1,0.9-1.5c0.4-0.5,0.9-0.8,1.4-1.1
				c0.5-0.3,1.1-0.5,1.7-0.6c0.6-0.1,1.2-0.1,1.8-0.1c0.6,0.1,1.2,0.2,1.8,0.4c0.3,0.1,0.6,0.3,0.9,0.5c0.3,0.2,0.6,0.5,0.8,0.7
				c0.2,0.3,0.5,0.6,0.6,1.1c0.2,0.4,0.3,0.9,0.4,1.2L88.6,96.5z"/>
		</g>
		<g class="st2">
			<path class="st0" d="M104.5,98.7c0,0.7-0.1,1.4-0.3,2.1c-0.2,0.7-0.5,1.3-1,1.8c-0.5,0.6-1,1-1.7,1.3c-0.6,0.3-1.3,0.4-2,0.5
				c-0.5,0-1.1,0-1.6-0.1c-0.5-0.1-1-0.2-1.5-0.4c-0.4-0.2-0.8-0.4-1.2-0.7c-0.4-0.3-0.7-0.6-1-1.1c-0.4-0.6-0.6-1.2-0.8-1.9
				c-0.2-0.7-0.2-1.4-0.2-2.1c0-0.7,0.1-1.4,0.4-2s0.5-1.2,0.9-1.7c0.3-0.4,0.6-0.7,1-0.9c0.4-0.2,0.8-0.4,1.2-0.6
				c0.4-0.1,0.7-0.2,1.1-0.3c0.4-0.1,0.8-0.1,1.2-0.1c0.5,0,1,0,1.4,0.1c0.5,0.1,0.9,0.3,1.3,0.5c0.4,0.2,0.7,0.5,1,0.8
				c0.3,0.3,0.6,0.7,0.8,1.1c0.3,0.5,0.5,1.1,0.6,1.7C104.4,97.4,104.5,98,104.5,98.7z M101.9,98.2c0-0.5-0.1-1-0.2-1.5
				s-0.2-0.9-0.4-1.4c-0.1-0.2-0.2-0.4-0.4-0.6c-0.2-0.2-0.4-0.3-0.6-0.4c-0.2-0.1-0.4-0.2-0.7-0.2c-0.2,0-0.5-0.1-0.7-0.1
				c-0.5,0-0.9,0.1-1.3,0.3s-0.7,0.5-1,0.9c-0.3,0.5-0.5,1-0.6,1.6C96,97.5,96,98,96,98.6c0,0.2,0,0.5,0,0.8c0,0.3,0.1,0.6,0.1,0.9
				c0.1,0.3,0.1,0.6,0.2,0.9c0.1,0.3,0.2,0.5,0.4,0.7s0.3,0.4,0.5,0.5s0.4,0.3,0.6,0.4s0.5,0.1,0.7,0.2c0.2,0,0.5,0,0.7,0
				c0.3,0,0.5-0.1,0.7-0.2c0.2-0.1,0.5-0.2,0.7-0.4c0.2-0.2,0.4-0.3,0.5-0.6c0.2-0.2,0.3-0.5,0.3-0.8c0.1-0.4,0.2-0.9,0.3-1.4
				C101.9,99.2,101.9,98.7,101.9,98.2z"/>
		</g>
	</g>
	<path class="st3" d="M59.3,46c-1,0-1.8,0.8-1.8,1.8c0,1,0.8,1.8,1.8,1.8c1,0,1.8-0.8,1.8-1.8S60.3,46,59.3,46z M59.3,48.2
		c-0.2,0-0.4-0.2-0.4-0.4c0-0.2,0.2-0.4,0.4-0.4c0.2,0,0.4,0.2,0.4,0.4S59.5,48.2,59.3,48.2z M65.4,47.7h-0.8c-1-2.4-2.8-4.5-5.2-6
		v-5.5V36c0-0.3,0-0.6-0.1-0.8C59.1,35,58.9,35,58.8,35c-2.5,0-4.6,1.8-5,4.3c-1.3-0.3-3.1-0.4-4.4-0.4c-4.1,0-8,1.4-11,3.9
		c-1.5,1.3-2.7,2.8-3.4,4.4c-1.1,0-2-1-2-2.1c0-0.5,0.4-1,0.6-1.3c0.2-0.3,0.2-0.7-0.1-0.9c-0.3-0.2-0.7-0.2-0.9,0.1
		c-0.3,0.4-0.8,1.2-0.8,2.1c0,1.7,1.2,3.1,2.8,3.4c-0.4,1.2-0.6,2.5-0.6,3.8c0,4.3,2.5,8.4,6.6,10.9v2.6c0,1.3,1,2.3,2.3,2.3h1.1
		c1.3,0,2.3-1,2.3-2.3v-0.4c2.1,0.4,4.8,0.4,7,0v0.4c0,1.3,1,2.3,2.3,2.3h1.1c1.3,0,2.3-1,2.3-2.3v-2.6c2.2-1.3,4-3.2,5.2-5.3h1.3
		c1.3,0,2.3-1,2.3-2.3V50C67.7,48.7,66.7,47.7,65.4,47.7z M66.4,55.5c0,0.5-0.4,1-1,1h-1.2c-0.2,0-0.7,0-1.2,0.4
		c-0.3,0.3-0.5,0.8-0.6,1c0,0.1,0,0.1-0.1,0.2c-0.1,0.2-0.2,0.3-0.2,0.4c-1.1,1.5-2.5,2.7-4.2,3.7c-0.3,0.2-0.4,0.5-0.3,0.7v2.8
		c0,0.6-0.5,1-1,1h-1.1c-0.5,0-1-0.4-1-1v-1.2c0-0.2-0.1-0.4-0.2-0.5c-0.1-0.1-0.3-0.1-0.4-0.1c0,0-0.1,0-0.2,0
		c-1.2,0.3-3.1,0.4-4.3,0.4c-1.2,0-2.5-0.1-3.7-0.4c-0.2,0-0.4,0-0.6,0.1s-0.2,0.3-0.2,0.5v1.2c0,0.6-0.5,1-1,1h-1.1
		c-0.5,0-1-0.4-1-1v-3c0-0.2-0.1-0.5-0.3-0.6c-3.9-2.2-6.3-6-6.3-10c0-6.6,6.4-12,14.2-12c1.2,0,3.1,0.1,4.4,0.5c0.1,0,0.7,0.2,1,0
		c0.2-0.2,0.2-0.5,0.2-0.6c0,0,0,0,0,0c0-1.8,1.3-3.3,3.1-3.6v5.4c0,0.2,0,0.4,0.1,0.5c0.1,0.2,0.2,0.3,0.3,0.3
		c1.9,1,3.4,2.7,4.6,4.9c0,0,0,0.1,0.1,0.2c0.1,0.3,0.3,0.8,0.6,1c0.5,0.4,1,0.4,1.2,0.4h0.5c0.6,0,1,0.5,1,1L66.4,55.5z M49.6,42.9
		c-1.7,0-3.3,0.6-4.7,1.5c-0.2,0.1-0.2,0.2-0.3,0.4c0,0.2,0,0.3,0.1,0.5c0.1,0.2,0.3,0.3,0.5,0.3c0.2,0,0.3,0,0.4-0.1
		c1.2-0.8,2.5-1.2,4-1.3c1.4,0,2.8,0.3,4,1.1c0.2,0.1,0.3,0.1,0.5,0.1c0.2,0,0.3-0.2,0.4-0.3c0.2-0.3,0.1-0.7-0.2-0.9
		C52.9,43.3,51.3,42.9,49.6,42.9z M49.7,35.4c2.7,0,4.8-2.2,4.8-4.8s-2.2-4.8-4.8-4.8s-4.8,2.2-4.8,4.8C44.8,33.3,47,35.4,49.7,35.4
		z M49.7,27.1c1.9,0,3.5,1.6,3.5,3.5c0,1.9-1.6,3.5-3.5,3.5c-1.9,0-3.5-1.6-3.5-3.5S47.7,27.1,49.7,27.1z"/>
</g>
</svg>
