<?xml version="1.0" encoding="utf-8"?>
<!-- Generator: Adobe Illustrator 24.0.1, SVG Export Plug-In . SVG Version: 6.00 Build 0)  -->
<svg version="1.1" id="圖層_1" xmlns="http://www.w3.org/2000/svg" xmlns:xlink="http://www.w3.org/1999/xlink" x="0px" y="0px"
	 viewBox="0 0 75 75" style="enable-background:new 0 0 75 75;" xml:space="preserve">
<style type="text/css">
	.st0{fill:#0F90C9;}
	.st1{fill:#FFFFFF;}
</style>
<g id="圖層_1_1_">
	<circle class="st0" cx="37.5" cy="37.5" r="37"/>
</g>
<g id="圖層_2_1_">
	<g>
		<path class="st1" d="M52.17,35.75L37.95,22.3c-0.24-0.23-0.63-0.23-0.88,0L22.84,35.72c-0.18,0.18-0.4,0.41-0.4,0.93l-0.02,21.23
			c0,0.35,0.29,0.64,0.64,0.64l10.23,0.01l8.3,0.01l10.31,0.01c0.35,0,0.64-0.28,0.64-0.64l0.02-21.33
			C52.56,36.21,52.42,36,52.17,35.75z M33.93,57.25l0.01-6.97l7.02,0.01l-0.01,6.97L33.93,57.25z M42.23,57.26l0.01-7.61
			c0-0.35-0.29-0.64-0.64-0.64L33.3,49c-0.35,0-0.64,0.29-0.64,0.64l-0.01,7.61l-8.96-0.01l0.02-20.6l13.8-13.01l13.77,13.02
			l-0.02,20.61L42.23,57.26z M58.33,35.91L37.96,16.63c-0.25-0.23-0.63-0.23-0.88,0L16.67,35.87c-0.26,0.24-0.27,0.65-0.03,0.9
			c0.24,0.26,0.65,0.27,0.9,0.03l19.97-18.83l19.94,18.86c0.12,0.12,0.28,0.17,0.44,0.17c0.17,0,0.34-0.07,0.47-0.2
			C58.6,36.55,58.59,36.15,58.33,35.91z"/>
	</g>
</g>
</svg>
