<?xml version="1.0" encoding="utf-8"?>
<!-- Generator: Adobe Illustrator 24.0.1, SVG Export Plug-In . SVG Version: 6.00 Build 0)  -->
<svg version="1.1" id="圖層_1" xmlns="http://www.w3.org/2000/svg" xmlns:xlink="http://www.w3.org/1999/xlink" x="0px" y="0px"
	 viewBox="0 0 75 75" style="enable-background:new 0 0 75 75;" xml:space="preserve">
<style type="text/css">
	.st0{fill:#0F90C9;}
	.st1{fill:#FFFFFF;}
</style>
<g id="圖層_1_1_">
	<circle class="st0" cx="37.5" cy="37.5" r="37"/>
</g>
<g id="圖層_2_1_">
	<g>
		<path class="st1" d="M22.25,40.96c1.82-0.01,3.3-1.5,3.29-3.33c0-0.63-0.19-1.2-0.5-1.7l5.26-4.72c0.56,0.43,1.25,0.69,2.01,0.69
			c1.17-0.01,2.18-0.62,2.77-1.54l4.11,1.75c-0.05,0.22-0.07,0.45-0.07,0.69c0.01,1.83,1.5,3.3,3.33,3.29
			c1.82-0.01,3.3-1.5,3.29-3.33c0-0.73-0.25-1.39-0.65-1.94l5.77-6.41c0.49,0.28,1.04,0.45,1.64,0.44c1.82-0.01,3.3-1.5,3.29-3.33
			c-0.01-1.82-1.5-3.3-3.33-3.29c-1.83,0.01-3.3,1.5-3.29,3.33c0,0.75,0.27,1.43,0.69,1.98l-5.75,6.39c-0.5-0.3-1.08-0.48-1.7-0.47
			c-1.12,0.01-2.11,0.57-2.7,1.43l-4.16-1.77c0.03-0.18,0.05-0.37,0.05-0.56c-0.01-1.83-1.5-3.3-3.33-3.29
			c-1.82,0.01-3.3,1.5-3.29,3.33c0,0.59,0.17,1.14,0.45,1.61l-5.28,4.75c-0.55-0.39-1.21-0.63-1.94-0.63
			c-1.82,0.01-3.3,1.5-3.29,3.33C18.93,39.49,20.43,40.97,22.25,40.96z M52.48,19.56c1.1-0.01,2,0.88,2,1.98c0.01,1.1-0.88,2-1.98,2
			c-1.1,0.01-2-0.88-2-1.98C50.49,20.46,51.38,19.57,52.48,19.56z M42.43,30.79c1.1-0.01,2,0.88,2,1.98c0.01,1.1-0.88,2-1.98,2
			c-1.1,0.01-2-0.88-2-1.98C40.44,31.69,41.33,30.79,42.43,30.79z M32.29,26.59c1.1-0.01,2,0.88,2,1.98c0.01,1.1-0.88,2-1.98,2
			c-1.1,0.01-2-0.88-2.01-1.98C30.3,27.5,31.19,26.6,32.29,26.59z M22.22,35.66c1.1-0.01,2,0.88,2,1.98c0.01,1.1-0.88,2-1.98,2
			c-1.1,0.01-2-0.88-2.01-1.98C20.23,36.56,21.12,35.66,22.22,35.66z M57.91,55.23l-1.86,0.01l-0.14-26.7c0-0.36-0.3-0.66-0.66-0.65
			l-5.42,0.03c-0.36,0-0.66,0.3-0.66,0.66l0.14,26.7l-3.38,0.02l-0.08-15.52c0-0.36-0.3-0.66-0.66-0.66l-5.42,0.03
			c-0.36,0-0.66,0.3-0.65,0.66l0.08,15.52l-3.38,0.02l-0.1-19.77c0-0.36-0.3-0.66-0.66-0.66l-5.42,0.03c-0.36,0-0.66,0.3-0.65,0.66
			l0.1,19.77L25.7,55.4l-0.06-10.74c0-0.36-0.3-0.66-0.66-0.65l-5.42,0.03c-0.36,0-0.66,0.3-0.65,0.66l0.06,10.74l-1.87,0.01
			c-0.36,0-0.66,0.3-0.66,0.66s0.3,0.66,0.66,0.65l2.52-0.01l0,0l5.42-0.03c0,0,0,0,0.01,0l4.68-0.02l0,0l5.42-0.03c0,0,0,0,0.01,0
			l4.68-0.02l0,0l5.42-0.03c0,0,0,0,0.01,0l4.69-0.02l0,0l4.71-0.03l3.23-0.02c0.36,0,0.66-0.3,0.65-0.66
			C58.57,55.52,58.27,55.22,57.91,55.23z M24.38,55.4l-3.09,0.02l-1.02,0.01l-0.05-10.09l4.11-0.02L24.38,55.4z M34.5,55.35h-0.88
			l-3.23,0.02l-0.1-19.11l4.11-0.02L34.5,55.35z M44.61,55.3L44.61,55.3l-4.11,0.02l-0.08-14.86l4.11-0.02L44.61,55.3z M54.73,55.24
			l-4.11,0.02l-0.14-26.04l4.11-0.02L54.73,55.24z"/>
	</g>
</g>
</svg>
