<?xml version="1.0" encoding="utf-8"?>
<!-- Generator: Adobe Illustrator 24.0.1, SVG Export Plug-In . SVG Version: 6.00 Build 0)  -->
<svg version="1.1" xmlns="http://www.w3.org/2000/svg" xmlns:xlink="http://www.w3.org/1999/xlink" x="0px" y="0px"
	 viewBox="0 0 75 75" style="enable-background:new 0 0 75 75;" xml:space="preserve">
<style type="text/css">
	.st0{fill:#0F90C9;}
	.st1{fill:#FFFFFF;}
</style>
<g id="圖層_1">
	<circle class="st0" cx="37.5" cy="37.5" r="37"/>
</g>
<g id="圖層_2">
	<g>
		<path class="st1" d="M47.17,36.74c-0.97-0.02-1.78,0.76-1.8,1.73c-0.02,0.97,0.76,1.78,1.73,1.8c0.97,0.02,1.78-0.76,1.79-1.73
			C48.92,37.56,48.14,36.76,47.17,36.74z M47.13,38.95c-0.24,0-0.44-0.21-0.43-0.45c0-0.24,0.21-0.44,0.45-0.43
			c0.24,0,0.44,0.21,0.43,0.45C47.58,38.76,47.38,38.95,47.13,38.95z M53.21,38.51l-0.81-0.01c-0.96-2.41-2.7-4.53-5.04-6.14
			l0.1-5.55l0-0.07c0.01-0.29,0.01-0.61-0.09-0.76c-0.17-0.24-0.39-0.27-0.55-0.27c-2.49-0.05-4.65,1.74-5.09,4.18
			c-1.33-0.31-3.13-0.47-4.36-0.5c-4.13-0.08-8.05,1.23-11.02,3.67c-1.51,1.24-2.7,2.7-3.52,4.33c-1.13-0.05-2.02-1-2-2.13
			c0.01-0.5,0.38-1.04,0.6-1.32c0.22-0.29,0.17-0.7-0.11-0.93c-0.29-0.22-0.7-0.17-0.93,0.11c-0.32,0.41-0.86,1.23-0.88,2.11
			c-0.03,1.66,1.15,3.11,2.78,3.42c-0.45,1.22-0.68,2.49-0.71,3.79c-0.08,4.35,2.31,8.47,6.41,11.04l-0.05,2.58
			c-0.02,1.27,0.99,2.33,2.27,2.36l1.1,0.02c1.28,0.02,2.33-0.99,2.36-2.27l0.01-0.44c2.12,0.42,4.81,0.47,6.95,0.13l-0.01,0.44
			c-0.02,1.27,0.99,2.33,2.27,2.36l1.1,0.02c1.28,0.02,2.33-0.99,2.36-2.27l0.05-2.58c2.27-1.31,4.09-3.11,5.27-5.2l1.33,0.02
			c1.27,0.02,2.33-0.99,2.36-2.27l0.1-5.51C55.5,39.59,54.48,38.53,53.21,38.51z M54.05,46.35c-0.01,0.55-0.46,0.99-1.01,0.98
			l-1.19-0.02c-0.18-0.01-0.72-0.04-1.21,0.35c-0.32,0.26-0.52,0.75-0.63,1.01c-0.03,0.06-0.05,0.12-0.06,0.15
			c-0.08,0.15-0.17,0.3-0.25,0.44c-1.1,1.45-2.54,2.67-4.27,3.61c-0.27,0.14-0.4,0.44-0.33,0.74l-0.05,2.78
			c-0.01,0.55-0.46,0.99-1.01,0.98l-1.1-0.02c-0.55-0.01-0.98-0.46-0.97-1.01l0.02-1.25c0-0.2-0.08-0.39-0.24-0.52
			c-0.12-0.1-0.26-0.15-0.41-0.15c-0.05,0-0.1,0-0.15,0.01c-1.25,0.26-3.09,0.36-4.27,0.33c-1.25-0.02-2.5-0.19-3.7-0.48
			c-0.19-0.05-0.4-0.01-0.56,0.12c-0.16,0.12-0.26,0.31-0.26,0.51l-0.02,1.25c-0.01,0.55-0.46,0.99-1.01,0.98l-1.1-0.02
			c-0.55-0.01-0.99-0.46-0.98-1.01l0.05-2.96c0-0.24-0.12-0.46-0.32-0.58c-3.89-2.32-6.17-6.09-6.1-10.09
			c0.12-6.63,6.6-11.9,14.45-11.75c1.19,0.02,3.07,0.2,4.38,0.54c0.07,0.02,0.71,0.18,1.02-0.03c0.25-0.16,0.24-0.44,0.23-0.58
			c0-0.02,0-0.03,0-0.04c0.08-1.79,1.4-3.25,3.16-3.53l-0.1,5.36c0,0.19,0,0.37,0.06,0.51c0.08,0.17,0.17,0.28,0.27,0.34
			c1.87,1.05,3.37,2.71,4.47,4.96c0.02,0.03,0.04,0.08,0.06,0.15c0.11,0.28,0.28,0.76,0.59,1.03c0.47,0.41,1.02,0.4,1.19,0.4
			l0.49,0.01c0.55,0.01,0.99,0.46,0.98,1.01L54.05,46.35z M37.53,33.47c-1.69,0.01-3.31,0.51-4.71,1.44
			c-0.15,0.1-0.25,0.25-0.29,0.43c-0.04,0.17,0,0.35,0.1,0.5c0.11,0.17,0.29,0.28,0.49,0.3c0.15,0.01,0.31-0.02,0.43-0.11
			c1.18-0.78,2.56-1.2,3.99-1.22c1.43-0.01,2.81,0.39,4.01,1.15c0.15,0.1,0.33,0.13,0.5,0.09c0.17-0.04,0.32-0.14,0.42-0.29
			c0.2-0.31,0.11-0.72-0.2-0.92C40.85,33.93,39.21,33.46,37.53,33.47z M37.72,25.97c2.66,0.05,4.86-2.07,4.91-4.73
			c0.05-2.66-2.07-4.86-4.73-4.91c-2.66-0.05-4.86,2.07-4.91,4.73C32.94,23.72,35.07,25.92,37.72,25.97z M37.88,17.64
			c1.93,0.04,3.48,1.64,3.44,3.57c-0.04,1.94-1.64,3.48-3.57,3.44c-1.93-0.04-3.48-1.64-3.44-3.57
			C34.34,19.15,35.95,17.61,37.88,17.64z"/>
	</g>
</g>
</svg>
