<?xml version="1.0" encoding="utf-8"?>
<!-- Generator: Adobe Illustrator 24.0.1, SVG Export Plug-In . SVG Version: 6.00 Build 0)  -->
<svg version="1.1" id="圖層_1" xmlns="http://www.w3.org/2000/svg" xmlns:xlink="http://www.w3.org/1999/xlink" x="0px" y="0px"
	 viewBox="0 0 75 75" style="enable-background:new 0 0 75 75;" xml:space="preserve">
<style type="text/css">
	.st0{fill:#0F90C9;}
	.st1{fill:#FFFFFF;}
</style>
<g id="圖層_1_1_">
	<circle class="st0" cx="37.5" cy="37.5" r="37"/>
</g>
<g id="圖層_2_1_">
	<g>
		<path class="st1" d="M58.22,30.9l-9.51-9.11c-0.19-0.18-0.48-0.24-0.72-0.13s-0.4,0.35-0.39,0.62l0.07,2.97l-21.52,0.48
			c-0.36,0.01-0.65,0.31-0.64,0.67l0.17,7.47l-8.91,9.33c-0.25,0.26-0.24,0.68,0.02,0.93l9.51,9.09c0.13,0.12,0.3,0.19,0.47,0.18
			c0.09,0,0.17-0.02,0.25-0.06c0.24-0.11,0.4-0.35,0.39-0.62l-0.07-2.97l21.52-0.48c0.36-0.01,0.65-0.31,0.64-0.67l-0.17-7.47
			l8.9-9.31C58.49,31.57,58.48,31.15,58.22,30.9z M49.29,39.28l-0.04-2.03c0-0.09-0.02-0.18-0.06-0.26
			c-0.11-0.23-0.34-0.39-0.62-0.39l-4.66,0.1c-0.36,0.01-0.65,0.31-0.64,0.67c0.01,0.36,0.31,0.65,0.67,0.64l4.01-0.09l0.22,10.06
			l-21.52,0.48c-0.36,0.01-0.65,0.31-0.64,0.67l0.05,2.03l-7.88-7.54l7.54-7.9l0.04,2.03c0,0.18,0.08,0.35,0.2,0.46
			c0.12,0.12,0.29,0.19,0.47,0.18h0.01l4.65-0.1c0.36-0.01,0.65-0.31,0.64-0.67c-0.01-0.36-0.31-0.65-0.67-0.64l-4,0.09l-0.22-10.05
			l21.52-0.48c0.36-0.01,0.65-0.31,0.64-0.67l-0.05-2.03l7.88,7.56L49.29,39.28z M38.04,32.01l-0.02-1.08
			c-0.01-0.36-0.31-0.65-0.67-0.64c-0.36,0.01-0.65,0.31-0.64,0.67l0.02,1.1c-2.01,0.34-2.76,1.87-2.73,2.85
			c0.04,1.92,1.06,2.9,3.41,3.26c2.09,0.32,2.28,1.09,2.3,1.91c0.02,0.79-0.75,1.65-2.02,1.68c-1.35,0.03-2.19-0.8-2.22-0.83
			c-0.25-0.26-0.67-0.27-0.93-0.02c-0.26,0.25-0.27,0.67-0.02,0.93c0.04,0.04,0.95,0.96,2.45,1.18l0.02,1.05
			c0.01,0.36,0.31,0.65,0.67,0.64c0.36-0.01,0.65-0.31,0.64-0.67L38.28,43c1.74-0.29,2.76-1.68,2.74-2.96
			c-0.04-1.84-1.09-2.82-3.41-3.18c-2.09-0.32-2.28-1.06-2.3-1.99c0-0.02,0.03-1.53,2.19-1.58c1.71-0.04,2.06,1,2.1,1.12
			c0.09,0.35,0.45,0.56,0.79,0.47c0.35-0.09,0.57-0.44,0.48-0.8C40.69,33.41,39.88,32.19,38.04,32.01z"/>
	</g>
</g>
</svg>
