<?xml version="1.0" encoding="utf-8"?>
<!-- Generator: Adobe Illustrator 24.0.1, SVG Export Plug-In . SVG Version: 6.00 Build 0)  -->
<svg version="1.1" id="圖層_1" xmlns="http://www.w3.org/2000/svg" xmlns:xlink="http://www.w3.org/1999/xlink" x="0px" y="0px"
	 viewBox="0 0 75 75" style="enable-background:new 0 0 75 75;" xml:space="preserve">
<style type="text/css">
	.st0{fill:#0F90C9;}
	.st1{fill:#FFFFFF;}
</style>
<g id="圖層_1_1_">
	<circle class="st0" cx="37.5" cy="37.5" r="37"/>
</g>
<g id="圖層_2_1_">
	<g>
		<path class="st1" d="M57.28,53.84l-1.26,0.02l-0.03-1.73c-0.01-0.6-0.51-1.09-1.12-1.07l-0.93,0.02v-0.01
			c0.03-0.15,0.05-0.29,0.05-0.43c-0.01-0.71-0.45-1.34-1.12-1.6l0,0l-0.25-13.27l0,0c0.66-0.28,1.07-0.93,1.06-1.64
			c0-0.14-0.02-0.28-0.06-0.43v-0.01l0.95-0.02c0.85-0.01,1.53-0.72,1.52-1.57l-0.02-1.28l1.22-0.02c0.37-0.01,0.66-0.31,0.65-0.68
			l-0.04-2.14c0-0.24-0.14-0.46-0.35-0.57L37.33,16.35c-0.21-0.11-0.46-0.11-0.66,0.01l-19.78,11.8c-0.2,0.12-0.33,0.34-0.32,0.58
			l0.04,2.14c0.01,0.37,0.31,0.66,0.68,0.65l1.08-0.02l0.02,1.28c0.02,0.85,0.72,1.53,1.57,1.52l0.95-0.02v0.01
			c-0.03,0.15-0.05,0.29-0.05,0.43c0.01,0.71,0.45,1.34,1.12,1.6l0,0l0.25,13.27l0,0c-0.66,0.28-1.07,0.93-1.06,1.64
			c0,0.14,0.02,0.28,0.06,0.43v0.01L20.3,51.7c-0.6,0.01-1.09,0.51-1.08,1.12l0.03,1.73l-1.12,0.02c-0.6,0.01-1.09,0.51-1.08,1.12
			l0.04,1.96c0.01,0.6,0.51,1.09,1.11,1.08l39.13-0.74c0.61-0.01,1.11-0.52,1.1-1.12l-0.04-1.96
			C58.38,54.31,57.88,53.82,57.28,53.84 M17.93,30.2l-0.02-1.1l0,0l19.12-11.41l0,0l19.53,10.68l0.02,1.1L17.93,30.2z M19.94,32.99
			c-0.12,0-0.23-0.1-0.23-0.22l-0.02-1.06c0-0.12,0.1-0.23,0.22-0.23l34.61-0.65c0.12,0,0.23,0.1,0.23,0.22l0.02,1.06
			c0,0.12-0.1,0.23-0.22,0.23L19.94,32.99z M48.81,37.28c-0.01-0.01-0.01-0.01-0.02-0.01c-0.01,0-0.01-0.01-0.02-0.01
			c-0.12-0.08-0.24-0.12-0.37-0.12c-0.13,0-0.26,0.05-0.39,0.15L48,37.3c-0.16,0.13-0.26,0.32-0.25,0.52v0.11c0,0.04,0,0.07,0,0.07
			l0.2,11l-2.26,0.04l-0.24-13.01l5.84-0.11l0.24,13.01l-2.26,0.04l-0.21-11.18C49.07,37.59,48.97,37.41,48.81,37.28 M52.23,50.23
			c0.24-0.01,0.44,0.19,0.45,0.43c0,0.24-0.19,0.44-0.43,0.45l-7.16,0.13c-0.24,0-0.44-0.19-0.44-0.43s0.19-0.44,0.43-0.44
			L52.23,50.23z M51.93,34.59l-7.16,0.13c-0.24,0-0.44-0.19-0.44-0.43s0.19-0.44,0.43-0.44l7.16-0.13c0.24,0,0.44,0.19,0.44,0.43
			C52.37,34.38,52.18,34.58,51.93,34.59 M43.38,51.26L43.38,51.26l-0.52,0.02v-0.01c0.03-0.14,0.05-0.29,0.05-0.43
			c-0.01-0.71-0.45-1.34-1.12-1.6l0,0l-0.25-13.26l0,0c0.66-0.28,1.07-0.93,1.06-1.64c0-0.14-0.02-0.28-0.06-0.43V33.9l0.52-0.01
			v0.01c-0.03,0.15-0.05,0.29-0.05,0.43c0.01,0.71,0.45,1.34,1.12,1.6l0,0l0.25,13.27l0,0c-0.66,0.28-1.07,0.93-1.06,1.64
			C43.32,50.97,43.34,51.11,43.38,51.26 M38,38.11v-0.12c0-0.19-0.1-0.37-0.26-0.5c-0.01-0.01-0.02-0.01-0.03-0.02l-0.02-0.01
			c-0.12-0.08-0.24-0.12-0.36-0.11c-0.36,0.01-0.65,0.31-0.65,0.67v0.14c0,0.02,0,0.02,0,0.03l0.2,11.01l-2.26,0.04l-0.24-13.01
			l5.84-0.11l0.24,13.01l-2.26,0.04l-0.2-11C38,38.17,38,38.14,38,38.11 M41.15,50.43c0.24,0,0.44,0.19,0.44,0.43
			s-0.19,0.44-0.43,0.44L34,51.43c-0.24,0-0.44-0.19-0.44-0.43c-0.01-0.24,0.19-0.44,0.43-0.44L41.15,50.43z M40.86,34.79
			l-7.16,0.13c-0.24,0-0.44-0.19-0.44-0.43s0.19-0.44,0.43-0.44l7.16-0.13c0.24,0,0.44,0.19,0.44,0.43
			C41.29,34.59,41.1,34.79,40.86,34.79 M32.31,51.46L32.31,51.46l-0.52,0.02v-0.01c0.03-0.15,0.05-0.29,0.05-0.43
			c-0.01-0.72-0.45-1.34-1.12-1.6l0,0l-0.25-13.26l0,0c0.66-0.29,1.07-0.93,1.06-1.64c0-0.14-0.02-0.28-0.06-0.43V34.1l0.52-0.01
			v0.01c-0.03,0.15-0.05,0.29-0.05,0.43c0.01,0.71,0.45,1.34,1.12,1.6l0,0l0.25,13.26l0,0c-0.66,0.28-1.07,0.93-1.06,1.64
			C32.25,51.18,32.27,51.32,32.31,51.46 M26.92,38.31v-0.12c0-0.19-0.1-0.37-0.26-0.5c-0.01-0.01-0.02-0.02-0.03-0.02
			s-0.01-0.01-0.02-0.01c-0.12-0.08-0.24-0.12-0.36-0.11c-0.36,0.01-0.65,0.31-0.65,0.67l0.21,11.18l-2.26,0.04l-0.24-13.01
			l5.84-0.11l0.24,13.01l-2.26,0.04l-0.21-11C26.93,38.38,26.93,38.35,26.92,38.31 M30.08,50.64c0.24-0.01,0.44,0.19,0.45,0.43
			c0,0.24-0.19,0.44-0.43,0.44l-7.16,0.13c-0.24,0.01-0.44-0.19-0.44-0.43s0.19-0.44,0.43-0.44L30.08,50.64z M29.79,35l-7.16,0.13
			c-0.24,0-0.44-0.19-0.44-0.43s0.19-0.44,0.43-0.45l7.16-0.13c0.24,0,0.44,0.19,0.44,0.43C30.22,34.8,30.03,34.99,29.79,35
			 M20.55,53.01l34.12-0.64l0.03,1.51l-34.12,0.64L20.55,53.01z M57.08,55.16l0.01,1.51L18.4,57.39v-0.01l-0.01-1.51L57.08,55.16
			L57.08,55.16z"/>
	</g>
</g>
</svg>
