<?xml version="1.0" encoding="utf-8"?>
<!-- Generator: Adobe Illustrator 24.0.1, SVG Export Plug-In . SVG Version: 6.00 Build 0)  -->
<svg version="1.1" id="圖層_1" xmlns="http://www.w3.org/2000/svg" xmlns:xlink="http://www.w3.org/1999/xlink" x="0px" y="0px"
	 viewBox="0 0 253 110.25" style="enable-background:new 0 0 253 110.25;" xml:space="preserve">
<style type="text/css">
	.st0{enable-background:new    ;}
	.st1{fill:#0F90C9;}
</style>
<g class="st0">
	<path class="st1" d="M3.09,34.37v-2.81h2.63V19.64c0-0.38,0.08-0.76,0.25-1.12s0.4-0.68,0.68-0.97c0.26-0.26,0.57-0.48,0.92-0.65
		c0.35-0.17,0.7-0.25,1.06-0.25h6.91l0.25-1.44H3.56v-2.84h12.89l0.29-1.4H6.76c-0.38,0-0.73-0.07-1.04-0.22
		c-0.31-0.14-0.58-0.35-0.79-0.61C4.52,9.68,4.31,9.13,4.31,8.48V5.31c0-0.7,0.23-1.27,0.68-1.73C5.48,3.13,6.16,2.9,7.05,2.9h24.44
		c0.7,0,1.28,0.2,1.76,0.61c0.24,0.22,0.43,0.47,0.58,0.76s0.22,0.61,0.22,0.97v3.42c0,0.7-0.25,1.26-0.76,1.69
		c-0.48,0.41-1.07,0.61-1.76,0.61h-9.29l-0.36,1.4h12.71v2.84H21.23l-0.32,1.44h8.71c0.41,0,0.81,0.09,1.21,0.27
		c0.4,0.18,0.74,0.43,1.03,0.74c0.58,0.58,0.86,1.25,0.86,2.02v11.88h2.59v2.81H3.09z M12.66,5.78H9.86c-0.14,0-0.26,0.07-0.36,0.2
		C9.4,6.11,9.35,6.25,9.35,6.39v1.12c0,0.38,0.19,0.58,0.58,0.58h2.74V5.78z M27.39,20c0-0.19-0.07-0.36-0.22-0.5
		c-0.14-0.14-0.32-0.22-0.54-0.22h-14.9c-0.19,0-0.36,0.07-0.5,0.2s-0.22,0.31-0.22,0.52v0.79h16.38V20z M27.39,22.81H11.01v1.48
		h16.38V22.81z M27.39,26.34H11.01v1.55h16.38V26.34z M27.39,29.94H11.01v1.62h16.38V29.94z M20.84,5.78h-3.31v2.3h3.31V5.78z
		 M28.97,6.39c0-0.17-0.06-0.31-0.18-0.43c-0.12-0.12-0.28-0.18-0.47-0.18h-2.66v2.3h2.77c0.36,0,0.54-0.19,0.54-0.58V6.39z"/>
	<path class="st1" d="M46.68,34.47v-2.99h10.04v-2.12h-7.38v-2.02h-3.92c-0.26,2.54-0.74,4.92-1.44,7.13h-5.15
		c0.24-0.65,0.46-1.38,0.65-2.2c0.19-0.82,0.35-1.65,0.49-2.5c0.13-0.85,0.23-1.7,0.31-2.54c0.07-0.84,0.11-1.63,0.11-2.38V19.5
		c0-0.5,0.08-0.95,0.23-1.33c0.16-0.38,0.37-0.72,0.63-1.01c0.7-0.72,1.61-1.08,2.74-1.08h26.89v3.1h-9.14v2.45h7.99v3.02h-7.99
		v1.84h6.3v2.88h-6.3v2.12h9.32v2.99H46.68z M39.92,7.91V4.88h12.24c-0.14-0.26-0.31-0.61-0.5-1.04c-0.19-0.43-0.36-0.84-0.5-1.22
		l6.01-0.04c0.22,0.38,0.43,0.77,0.63,1.15c0.2,0.38,0.44,0.77,0.7,1.15h11.56v3.02H39.92z M58.2,14.96
		c-0.48-0.17-0.99-0.34-1.53-0.5c-0.54-0.17-1.13-0.35-1.78-0.54c-0.17,0.07-0.38,0.15-0.65,0.23c-0.26,0.08-0.53,0.17-0.81,0.27
		c-0.28,0.1-0.55,0.19-0.83,0.29c-0.28,0.1-0.51,0.18-0.7,0.25H40.17c1.73-0.48,3.44-1,5.15-1.55c1.7-0.55,3.19-1.06,4.46-1.51
		c-1.03-0.41-2.06-0.86-3.08-1.37c-1.02-0.5-2.03-1-3.04-1.48h9.72c0.24,0.14,0.55,0.3,0.94,0.47c0.38,0.17,0.68,0.29,0.9,0.36
		c0.34-0.12,0.65-0.25,0.95-0.38c0.3-0.13,0.61-0.28,0.92-0.45h9.18c-0.96,0.55-1.96,1.07-2.99,1.55s-2.02,0.9-2.95,1.26
		c1.46,0.6,3.01,1.16,4.63,1.67c1.62,0.52,3.2,0.99,4.73,1.42H58.2z M56.73,19.17H46.07c-0.12,0-0.24,0.05-0.36,0.14
		s-0.18,0.19-0.18,0.29v6.91c0.67-1.01,1.27-2.03,1.8-3.08c0.53-1.04,1.01-2.13,1.44-3.26h5.18c-0.07,0.19-0.16,0.43-0.27,0.72
		s-0.19,0.53-0.23,0.72h3.28V19.17z M56.73,24.65h-4.64c-0.17,0.31-0.36,0.65-0.58,1.01c-0.22,0.36-0.38,0.64-0.5,0.83h5.72V24.65z"
		/>
	<path class="st1" d="M84.12,30.77c-0.98,0.41-1.99,0.8-3.02,1.17c-1.03,0.37-2.05,0.72-3.04,1.04c-1,0.32-1.9,0.57-2.72,0.74v-3.46
		c1.2-0.34,2.32-0.68,3.35-1.04v-10.4H76.1V15.5h2.59V7.26h-3.31V3.95h11.27v3.31H83.8v8.24h2.16v3.31H83.8v8.5
		c0.19-0.05,0.41-0.11,0.67-0.2s0.52-0.18,0.81-0.29s0.56-0.21,0.83-0.31c0.26-0.1,0.49-0.18,0.68-0.25v3.35
		C86,29.97,85.11,30.36,84.12,30.77z M86.64,34.33v-3.28h7.7v-3.71h-6.52v-3.24h6.52v-3.31h-3.38c-0.86,0-1.6-0.28-2.2-0.83
		c-0.31-0.31-0.56-0.69-0.74-1.13c-0.18-0.44-0.27-0.95-0.27-1.53V5.89c0-0.91,0.32-1.66,0.97-2.23c0.58-0.5,1.24-0.76,1.98-0.76
		h11.95c1.06,0,1.86,0.31,2.41,0.94c0.29,0.31,0.5,0.65,0.63,1.03c0.13,0.37,0.2,0.75,0.2,1.13v11.88c0,0.84-0.28,1.54-0.83,2.09
		c-0.26,0.26-0.58,0.47-0.94,0.61c-0.36,0.14-0.77,0.22-1.22,0.22h-3.49v3.31h6.52v3.24h-6.52v3.71h7.63v3.28H86.64z M94.35,6.11
		h-1.44c-0.19,0-0.37,0.07-0.52,0.22c-0.16,0.14-0.23,0.3-0.23,0.47v3.38h2.2V6.11z M94.35,13.41h-2.2v3.42
		c0,0.17,0.09,0.33,0.27,0.49c0.18,0.16,0.34,0.23,0.49,0.23h1.44V13.41z M101.58,6.93c0-0.24-0.08-0.44-0.25-0.59
		c-0.17-0.16-0.36-0.23-0.58-0.23h-1.33v4.07h2.16V6.93z M101.58,13.41h-2.16v4.14h1.44c0.19,0,0.36-0.07,0.5-0.2
		s0.22-0.27,0.22-0.41V13.41z"/>
	<path class="st1" d="M117.1,30.93c-0.29,1.16-0.64,2.32-1.04,3.47h-5.33c0.53-1.22,0.97-2.42,1.31-3.58
		c0.35-1.16,0.63-2.32,0.85-3.47h4.9C117.62,28.57,117.39,29.76,117.1,30.93z M123.9,25.26c-0.55,0.55-1.27,0.83-2.16,0.83h-6.98
		c-0.41,0-0.79-0.09-1.13-0.27c-0.35-0.18-0.65-0.41-0.92-0.7c-0.5-0.58-0.76-1.26-0.76-2.05V5.89c0-0.36,0.09-0.68,0.27-0.97
		c0.18-0.29,0.4-0.54,0.67-0.76c0.6-0.48,1.27-0.72,2.02-0.72h6.7c0.89,0,1.64,0.35,2.27,1.04c0.24,0.26,0.43,0.55,0.58,0.86
		s0.22,0.65,0.22,1.01v17.03C124.66,24.18,124.41,24.8,123.9,25.26z M119.76,7.29c0-0.19-0.07-0.35-0.2-0.49
		c-0.13-0.13-0.29-0.2-0.49-0.2h-1.76c-0.17,0-0.31,0.08-0.41,0.25s-0.16,0.31-0.16,0.43v2.59h3.02V7.29z M119.76,12.91h-3.02v3.6
		h3.02V12.91z M119.76,19.57h-3.02v2.63c0,0.24,0.07,0.44,0.22,0.59c0.14,0.16,0.31,0.23,0.5,0.23h1.66c0.43,0,0.65-0.24,0.65-0.72
		V19.57z M121.02,34.4c-0.53-1.1-0.94-2.25-1.22-3.44c-0.29-1.19-0.54-2.39-0.76-3.62h4.93c0.1,0.53,0.22,1.1,0.38,1.73
		c0.16,0.62,0.34,1.25,0.54,1.87c0.2,0.62,0.42,1.24,0.65,1.84c0.23,0.6,0.46,1.14,0.7,1.62H121.02z M132.96,17.73
		c-0.18,1.42-0.4,2.83-0.67,4.23c-0.26,1.4-0.56,2.75-0.88,4.05s-0.67,2.44-1.03,3.42h-5.4c1.08-2.78,1.84-5.45,2.29-7.99
		c0.44-2.54,0.73-5.09,0.85-7.63h5.22C133.26,15.01,133.14,16.32,132.96,17.73z M140.54,11.83v19.01c0,0.41-0.08,0.82-0.25,1.22
		s-0.38,0.78-0.65,1.12c-0.29,0.36-0.63,0.65-1.03,0.86c-0.4,0.22-0.8,0.32-1.21,0.32h-7.31l-0.97-3.31h5.62
		c0.17,0,0.31-0.08,0.43-0.25s0.18-0.31,0.18-0.43V11.83h-9.61V8.48h9.61V2.72h5.18v5.76h2.34v3.35H140.54z"/>
	<path class="st1" d="M165.95,29.22v5.33h-5.54v-5.33h-12.96v-3.31h12.96v-2.77h-11.16v-3.24h4.86c-0.34-0.82-0.64-1.64-0.92-2.47
		c-0.28-0.83-0.55-1.69-0.81-2.57h-4.97v-3.31h12.85V8.7h-10.48v-3.2h10.48V2.76h5.58v2.74h10.48v3.2h-10.48v2.84h12.92v3.31h-4.82
		c-0.26,0.84-0.56,1.69-0.88,2.54s-0.65,1.69-0.99,2.5h5.15v3.24h-11.27v2.77h12.89v3.31H165.95z M158.1,14.85
		c0.43,1.8,1.01,3.48,1.73,5.04h6.34c0.41-0.82,0.79-1.64,1.13-2.48c0.35-0.84,0.65-1.69,0.92-2.56H158.1z"/>
	<path class="st1" d="M191.73,23.82c-0.26-0.94-0.46-1.9-0.59-2.9c-0.13-1-0.25-2-0.34-3.01c-0.07,0.14-0.16,0.29-0.25,0.45
		s-0.19,0.33-0.29,0.52v15.59h-5.15V22.99h-2.38c1.13-1.94,2.16-3.9,3.1-5.87c0.94-1.97,1.81-4.08,2.63-6.34
		c0.05-0.12,0.04-0.25-0.04-0.38c-0.07-0.13-0.18-0.2-0.32-0.2h-4.9V6.83h2.92c-0.19-0.67-0.37-1.35-0.52-2.03
		c-0.16-0.68-0.31-1.37-0.45-2.07h5.08c0.05,0.24,0.11,0.54,0.2,0.9c0.08,0.36,0.17,0.73,0.27,1.12c0.1,0.38,0.19,0.76,0.29,1.13
		c0.09,0.37,0.18,0.69,0.25,0.95h0.5c0.41,0,0.76,0.07,1.04,0.22c0.29,0.14,0.54,0.34,0.76,0.58c0.22,0.26,0.36,0.59,0.43,0.97
		c0.07,0.38,0.05,0.78-0.07,1.19c-0.17,0.55-0.35,1.14-0.56,1.76c-0.2,0.62-0.42,1.25-0.65,1.87c-0.23,0.62-0.47,1.24-0.72,1.84
		c-0.25,0.6-0.5,1.15-0.74,1.66h2.38c0.12,1.15,0.26,2.32,0.43,3.49s0.38,2.32,0.65,3.42H191.73z M194.46,6.29V3.12h20.52v3.17
		H194.46z M214.34,32.53c-0.14,0.38-0.35,0.71-0.61,0.97c-0.58,0.65-1.42,0.97-2.52,0.97h-12.17c-0.53,0-1.04-0.07-1.53-0.22
		c-0.49-0.14-0.92-0.37-1.28-0.68c-0.7-0.58-1.04-1.36-1.04-2.34v-8.89c0-1.06,0.34-1.86,1.01-2.41c0.67-0.6,1.55-0.9,2.63-0.9
		h12.53c0.46,0,0.87,0.08,1.24,0.25s0.7,0.38,0.99,0.65c0.65,0.65,0.97,1.45,0.97,2.41v8.89C214.55,31.71,214.48,32.15,214.34,32.53
		z M212.93,16.11c-0.29,0.34-0.64,0.61-1.06,0.83s-0.88,0.32-1.39,0.32h-11.56c-0.98,0-1.74-0.32-2.27-0.97
		c-0.48-0.55-0.72-1.28-0.72-2.2v-3.06c0-0.86,0.26-1.56,0.79-2.09c0.65-0.65,1.46-0.97,2.45-0.97h11.48c0.91,0,1.66,0.32,2.23,0.97
		c0.53,0.58,0.79,1.27,0.79,2.09v3.06C213.69,14.87,213.44,15.54,212.93,16.11z M202.56,22.16h-1.98c-0.19,0-0.36,0.08-0.5,0.23
		c-0.14,0.16-0.22,0.33-0.22,0.52v2.12h2.7V22.16z M202.56,27.99h-2.7v2.63c0,0.17,0.07,0.32,0.22,0.47
		c0.14,0.14,0.29,0.22,0.43,0.22h2.05V27.99z M208.76,11.61c0-0.17-0.07-0.32-0.2-0.45c-0.13-0.13-0.28-0.2-0.45-0.2h-6.55
		c-0.19,0-0.34,0.06-0.45,0.18c-0.11,0.12-0.16,0.28-0.16,0.47v2.05c0,0.38,0.17,0.58,0.5,0.58h6.73c0.14,0,0.28-0.06,0.4-0.18
		s0.18-0.25,0.18-0.4V11.61z M209.8,22.92c0-0.22-0.07-0.4-0.2-0.54c-0.13-0.14-0.29-0.22-0.49-0.22h-1.8v2.88h2.48V22.92z
		 M209.8,27.99h-2.48v3.31h1.87c0.19,0,0.34-0.07,0.45-0.22c0.11-0.14,0.16-0.3,0.16-0.47V27.99z"/>
	<path class="st1" d="M229.26,5.28c-0.61,0.91-1.23,1.75-1.85,2.52v7.7h-5.33v-5.18h-3.02c2.14-2.42,3.98-4.98,5.54-7.67h6.23
		C230.39,3.49,229.87,4.37,229.26,5.28z M243.46,34.47c-0.77-0.5-1.52-1.06-2.27-1.66c-0.74-0.6-1.49-1.22-2.23-1.87h-7.13
		c-0.77,0.62-1.55,1.23-2.36,1.82c-0.8,0.59-1.63,1.16-2.47,1.71h-7.92c0.89-0.55,1.79-1.13,2.72-1.75
		c0.92-0.61,1.81-1.23,2.65-1.85c-0.36-0.02-0.69-0.11-0.99-0.27s-0.57-0.35-0.81-0.59c-0.34-0.29-0.59-0.63-0.77-1.03
		c-0.18-0.4-0.27-0.82-0.27-1.28v-8.28c0-0.82,0.31-1.51,0.94-2.09c0.5-0.46,1.06-0.68,1.66-0.68h21.13c1.1,0,1.97,0.35,2.59,1.04
		c0.55,0.55,0.83,1.32,0.83,2.3v8.1c0,0.41-0.06,0.76-0.18,1.06c-0.12,0.3-0.28,0.58-0.47,0.85c-0.26,0.31-0.58,0.55-0.94,0.72
		c-0.36,0.17-0.72,0.26-1.08,0.29c0.84,0.65,1.7,1.25,2.57,1.8s1.77,1.1,2.68,1.66H243.46z M243.42,20.18
		c0-0.14-0.06-0.27-0.18-0.38c-0.12-0.11-0.25-0.16-0.4-0.16h-15.26c-0.19,0-0.36,0.07-0.5,0.22c-0.14,0.14-0.22,0.28-0.22,0.4v0.47
		h16.56V20.18z M243.42,23.13h-16.56v1.19h16.56V23.13z M243.42,26.77h-16.56v0.54c0,0.17,0.07,0.31,0.22,0.43
		c0.14,0.12,0.29,0.18,0.43,0.18h15.34c0.14,0,0.28-0.06,0.4-0.18s0.18-0.24,0.18-0.36V26.77z M250.34,15.46h-7.42
		c-1.39,0-2.51-0.42-3.35-1.26c-0.72-0.7-1.37-1.45-1.96-2.25c-0.59-0.8-1.16-1.61-1.71-2.43l-6.01,0.4l-0.25-3.1l4.25-0.25
		c-0.41-0.65-0.8-1.3-1.17-1.94c-0.37-0.65-0.74-1.31-1.1-1.98h5.87c0.34,0.62,0.7,1.23,1.1,1.82c0.4,0.59,0.8,1.17,1.21,1.75
		l2.74-0.25c-0.29-0.43-0.57-0.94-0.85-1.51c-0.28-0.58-0.51-1.1-0.7-1.58h5.51c0.22,0.48,0.47,0.97,0.76,1.48
		c0.29,0.5,0.58,0.96,0.86,1.37l2.74-0.18l0.18,3.06l-9.18,0.58c0.34,0.48,0.68,0.95,1.04,1.4c0.36,0.46,0.74,0.89,1.15,1.3
		c0.34,0.34,0.78,0.5,1.33,0.5h5.83L250.34,15.46z"/>
</g>
<g class="st0">
	<path class="st1" d="M69.25,74.25c-1.06,0.5-2.06,0.89-3.02,1.17h-2.68c1.44-0.49,2.75-0.97,3.93-1.46
		c1.18-0.48,2.19-1.04,3.04-1.66h1.92C71.38,73.1,70.31,73.75,69.25,74.25z M69.12,54.55c-0.5,0.55-1.03,1.07-1.59,1.57l0.96-0.05
		v5.2h-1.2v-4.94c-0.33,0.29-0.67,0.58-1.01,0.87c-0.35,0.29-0.69,0.57-1.04,0.84h-1.59c1.02-0.8,2-1.61,2.94-2.43
		s1.83-1.73,2.68-2.72h1.33C70.12,53.46,69.63,54.01,69.12,54.55z M84.11,70.25c-0.1,0.26-0.24,0.49-0.43,0.68
		c-0.19,0.21-0.43,0.37-0.71,0.49c-0.29,0.12-0.63,0.18-1.03,0.18H68.4c-0.8,0-1.4-0.19-1.79-0.57c-0.45-0.4-0.68-0.99-0.68-1.77
		v-5.02c0-0.59,0.19-1.09,0.57-1.51c0.42-0.45,0.98-0.68,1.69-0.68h13.73c0.38,0,0.71,0.05,1,0.16c0.29,0.1,0.52,0.25,0.71,0.44
		c0.21,0.19,0.36,0.42,0.47,0.7s0.16,0.57,0.16,0.88v5.17C84.26,69.71,84.21,69.99,84.11,70.25z M83.06,64.11
		c0-0.33-0.11-0.6-0.33-0.82c-0.22-0.22-0.49-0.33-0.82-0.33H68.4c-0.4,0-0.71,0.11-0.94,0.34c-0.23,0.22-0.34,0.54-0.34,0.94v0.68
		h15.94V64.11z M83.06,65.8H67.12v2.03h15.94V65.8z M67.12,68.69v0.83c0,0.36,0.11,0.65,0.32,0.86s0.52,0.31,0.92,0.31h13.57
		c0.31,0,0.58-0.1,0.79-0.3s0.33-0.49,0.33-0.87v-0.83H67.12z M85.56,60.83h-3.07c-0.66,0-1.27-0.13-1.85-0.39
		c-0.59-0.26-1.12-0.64-1.59-1.14c-0.42-0.45-0.82-0.9-1.22-1.34c-0.4-0.44-0.79-0.9-1.17-1.36l-6.45,0.47v-0.91l5.75-0.42
		c-0.35-0.45-0.69-0.91-1.04-1.38s-0.68-0.94-0.99-1.43h1.17c0.68,0.9,1.38,1.81,2.11,2.73l4.86-0.36
		c-0.29-0.31-0.62-0.68-0.99-1.12c-0.36-0.43-0.68-0.84-0.94-1.22h1.17c0.52,0.73,1.19,1.48,2,2.26l2.47-0.18v0.91l-7.85,0.57
		c0.29,0.35,0.6,0.7,0.91,1.05s0.63,0.71,0.96,1.05c0.35,0.36,0.74,0.67,1.18,0.92c0.44,0.25,0.91,0.38,1.42,0.38h3.74L85.56,60.83z
		 M83.74,75.42c-1.07-0.29-2.1-0.71-3.07-1.23c-0.97-0.53-1.88-1.16-2.73-1.89h1.74c0.38,0.33,0.84,0.65,1.38,0.95
		c0.54,0.3,1.12,0.58,1.74,0.85c0.62,0.26,1.27,0.5,1.94,0.73c0.67,0.22,1.32,0.42,1.96,0.6H83.74z"/>
	<path class="st1" d="M92.38,70.84c-0.46,0.99-0.94,1.86-1.44,2.63h-1.4c0.66-0.87,1.21-1.79,1.66-2.78c0.45-0.99,0.8-1.9,1.04-2.73
		h1.22C93.2,68.89,92.84,69.86,92.38,70.84z M96.63,55.76v2.78h4.65v0.99H90.68v-0.99h4.78v-2.78h-5.64v-0.99h5.64V52.9h1.17v1.87
		h5.67v0.99H96.63z M96.63,66.63v6.81c0,0.62-0.16,1.12-0.47,1.48c-0.29,0.33-0.73,0.49-1.3,0.49h-1.98l-0.44-0.91h2.16
		c0.55,0,0.83-0.29,0.83-0.86v-7.02h-5.59v-0.99h12.45v0.99H96.63z M90.96,62.83v-0.99h10.09v0.99H90.96z M100.74,72.98
		c-0.5-0.76-0.93-1.56-1.29-2.38c-0.36-0.82-0.66-1.7-0.92-2.64h1.2c0.24,0.83,0.54,1.66,0.9,2.48c0.35,0.82,0.86,1.67,1.52,2.54
		H100.74z M111.43,75.45c-0.61-0.78-1.16-1.64-1.66-2.57c-0.5-0.94-0.95-1.91-1.35-2.91c-0.35-0.88-0.65-1.77-0.9-2.65
		c-0.25-0.88-0.46-1.75-0.64-2.6c-0.17,1.14-0.39,2.2-0.66,3.16c-0.27,0.96-0.6,1.88-1,2.74c-0.4,0.87-0.84,1.69-1.31,2.48
		c-0.48,0.79-1.01,1.57-1.6,2.35h-1.4c0.66-0.85,1.27-1.72,1.82-2.61c0.55-0.89,1.06-1.85,1.51-2.87c0.35-0.8,0.65-1.62,0.9-2.48
		c0.25-0.86,0.46-1.78,0.61-2.77c0.23-1.44,0.31-3.06,0.26-4.86h1.17c0,1.59-0.08,3.06-0.23,4.39h0.96
		c0.19,0.92,0.41,1.82,0.66,2.69c0.25,0.88,0.54,1.73,0.87,2.56c0.43,1.13,0.93,2.18,1.48,3.17s1.19,1.92,1.9,2.78H111.43z
		 M111.71,59.04c-0.09,0.49-0.23,1.07-0.44,1.74s-0.45,1.34-0.73,2h-1.22c0.26-0.62,0.5-1.31,0.73-2.05s0.41-1.41,0.55-2
		c0.07-0.29,0.05-0.55-0.05-0.78c-0.1-0.22-0.32-0.34-0.65-0.34h-5.12c-0.28,0.81-0.58,1.6-0.92,2.35c-0.34,0.75-0.72,1.5-1.16,2.22
		h-1.33c0.55-0.85,1.03-1.72,1.43-2.6c0.4-0.88,0.75-1.77,1.04-2.65c0.23-0.69,0.42-1.38,0.6-2.05c0.17-0.68,0.34-1.34,0.49-2h1.17
		c-0.14,0.66-0.29,1.3-0.44,1.91c-0.16,0.62-0.33,1.21-0.52,1.78h4.63c0.81,0,1.38,0.21,1.69,0.62
		C111.78,57.61,111.87,58.22,111.71,59.04z"/>
	<path class="st1" d="M127.73,68.11v4.6c0,0.36-0.04,0.72-0.12,1.05s-0.21,0.63-0.4,0.87c-0.43,0.52-1.12,0.78-2.05,0.78h-3.46
		l-0.49-1.09h4.11c0.29,0,0.57-0.1,0.83-0.31c0.26-0.21,0.39-0.49,0.39-0.83v-5.07h-10.69V67.1h10.69v-5.33h-9.05v-1.01h9.05v-5.38
		c-1.58,0.16-3.13,0.29-4.67,0.4c-1.53,0.11-2.93,0.19-4.17,0.22v-1.01c1.44-0.05,3.01-0.14,4.72-0.26
		c1.71-0.12,3.41-0.28,5.12-0.47c1.71-0.19,3.35-0.4,4.93-0.62c1.58-0.22,2.95-0.47,4.11-0.73v1.04c-0.47,0.1-1.03,0.22-1.68,0.34
		c-0.65,0.12-1.36,0.24-2.12,0.35c-0.76,0.11-1.57,0.22-2.42,0.33c-0.85,0.1-1.72,0.2-2.62,0.29v5.51h9.33v1.01h-9.33v5.33h10.66
		v1.01H127.73z"/>
	<path class="st1" d="M143.04,71.99c-0.19,1.28-0.39,2.43-0.6,3.46h-1.09c0.14-0.55,0.26-1.14,0.38-1.75
		c0.11-0.62,0.21-1.24,0.3-1.86c0.09-0.62,0.16-1.24,0.21-1.86c0.05-0.62,0.08-1.19,0.08-1.73h1.07
		C143.35,69.46,143.23,70.71,143.04,71.99z M148.45,67.2c-0.12-0.19-0.22-0.37-0.3-0.53c-0.08-0.16-0.16-0.34-0.25-0.53L147.33,67
		h-4.86c-0.26,0-0.47-0.05-0.62-0.16c-0.16-0.1-0.26-0.23-0.31-0.39c-0.04-0.14-0.04-0.29,0-0.44c0.03-0.16,0.12-0.3,0.26-0.44
		c0.73-0.85,1.43-1.72,2.12-2.6c0.68-0.88,1.33-1.78,1.94-2.68h-3.56c-0.24,0-0.43-0.05-0.57-0.16c-0.14-0.1-0.23-0.22-0.29-0.36
		c-0.07-0.16-0.09-0.33-0.06-0.51c0.03-0.18,0.09-0.33,0.2-0.46c0.83-0.97,1.63-1.93,2.4-2.89c0.77-0.95,1.48-1.95,2.12-2.99h1.43
		c-0.88,1.2-1.72,2.3-2.5,3.31c-0.78,1.01-1.6,2.04-2.47,3.08h3.95c0.66-0.94,1.17-1.73,1.53-2.39h1.35
		c-0.52,0.81-1.03,1.6-1.54,2.35c-0.5,0.75-1.02,1.5-1.55,2.24s-1.08,1.48-1.65,2.22c-0.57,0.75-1.19,1.51-1.85,2.29h5.04
		c-0.26-0.55-0.48-1.11-0.68-1.68s-0.37-1.17-0.55-1.81h1.04c0.21,0.83,0.46,1.62,0.77,2.35c0.3,0.74,0.66,1.5,1.08,2.3H148.45z
		 M145.17,75.45c-0.1-1.09-0.2-2.28-0.29-3.56c-0.09-1.28-0.14-2.5-0.16-3.64h1.04c0.04,2.31,0.19,4.71,0.47,7.2H145.17z
		 M148.16,74.46c-0.09-0.54-0.17-1.05-0.23-1.55s-0.13-0.99-0.2-1.48c-0.06-0.49-0.11-1-0.16-1.52c-0.04-0.52-0.07-1.07-0.09-1.66
		h1.07c0,0.52,0.02,1.03,0.05,1.52c0.04,0.49,0.08,0.99,0.13,1.48c0.05,0.49,0.12,1,0.21,1.52c0.09,0.52,0.19,1.08,0.31,1.69H148.16
		z M153.66,74.25c-0.74,0.47-1.47,0.86-2.2,1.17h-2.11c0.95-0.43,1.81-0.86,2.57-1.27s1.44-0.84,2.03-1.27h1.61
		C155.04,73.32,154.4,73.78,153.66,74.25z M157.45,55.04v1.64h6.03v0.86h-13.13v-0.86h5.95v-1.64h-6.92v-0.86h6.92v-1.3h1.14v1.3
		h6.87v0.86H157.45z M163.35,62.73c-0.33,0.29-0.77,0.44-1.33,0.44h-10.35c-0.54,0-0.98-0.16-1.33-0.47
		c-0.31-0.31-0.47-0.7-0.47-1.17V60.5c0-0.49,0.18-0.88,0.55-1.2c0.33-0.28,0.75-0.42,1.25-0.42h10.35c0.52,0,0.95,0.15,1.3,0.44
		c0.31,0.31,0.47,0.7,0.47,1.17v1.04C163.79,62.04,163.64,62.44,163.35,62.73z M162.33,71.88c-0.36,0.33-0.88,0.49-1.53,0.49h-7.88
		c-0.73,0-1.26-0.16-1.59-0.49c-0.36-0.35-0.55-0.87-0.55-1.56v-4.06c0-0.59,0.17-1.05,0.49-1.38c0.35-0.38,0.88-0.57,1.59-0.57
		h7.93c0.66,0,1.16,0.16,1.51,0.47c0.36,0.35,0.54,0.85,0.54,1.51v4.13C162.85,71.07,162.68,71.55,162.33,71.88z M154.22,59.69h-2.5
		c-0.23,0-0.4,0.08-0.53,0.23c-0.13,0.16-0.2,0.36-0.2,0.6v1.04c0,0.23,0.07,0.42,0.21,0.57c0.14,0.16,0.31,0.23,0.52,0.23h2.5
		V59.69z M161.45,65.46c-0.17-0.17-0.39-0.26-0.65-0.26h-7.93c-0.35,0-0.58,0.11-0.72,0.33c-0.13,0.22-0.19,0.46-0.19,0.74v0.49
		h9.75v-0.57C161.71,65.88,161.62,65.63,161.45,65.46z M161.71,67.57h-9.75v1.51h9.75V67.57z M161.71,69.88h-9.75v0.57
		c0,0.69,0.34,1.04,1.01,1.04h7.83c0.31,0,0.54-0.09,0.69-0.27c0.15-0.18,0.22-0.43,0.22-0.74V69.88z M158.43,59.69h-3.15v2.68h3.15
		V59.69z M162.31,75.42c-0.26-0.12-0.56-0.28-0.9-0.48s-0.69-0.42-1.05-0.65c-0.36-0.23-0.72-0.47-1.07-0.71
		c-0.35-0.24-0.65-0.48-0.91-0.7h1.69c0.29,0.21,0.63,0.43,1.01,0.68c0.38,0.24,0.78,0.48,1.18,0.7c0.41,0.23,0.81,0.44,1.22,0.65
		s0.78,0.38,1.13,0.52H162.31z M162.7,60.52c0-0.24-0.07-0.44-0.2-0.6c-0.13-0.16-0.31-0.23-0.53-0.23h-2.5v2.68h2.5
		c0.48,0,0.73-0.27,0.73-0.81V60.52z"/>
	<path class="st1" d="M189.45,62.58c-0.23,0.24-0.57,0.36-1.04,0.36h-2.03l-0.31-0.81h2.08c0.12,0,0.24-0.05,0.35-0.16
		c0.11-0.1,0.17-0.23,0.17-0.36V61.3c0-0.16-0.04-0.29-0.13-0.39c-0.09-0.1-0.22-0.16-0.39-0.16h-5.59v2.73h3.41
		c0.75,0,1.33,0.21,1.74,0.62c0.38,0.4,0.57,1,0.57,1.82v4.32c0,0.76-0.17,1.33-0.52,1.69c-0.4,0.4-1.01,0.6-1.82,0.6h-13.57
		c-0.88,0-1.51-0.24-1.87-0.73c-0.29-0.38-0.44-0.9-0.44-1.56v-4.32c0-0.69,0.15-1.25,0.44-1.66c0.19-0.24,0.44-0.43,0.74-0.57
		c0.3-0.14,0.68-0.21,1.13-0.21h9v-2.73h-6.03c-0.5,0.52-1.21,1.02-2.11,1.51c-0.9,0.49-2.09,0.96-3.56,1.43h-2.52
		c1.63-0.52,2.97-1.01,4.03-1.48c1.06-0.47,1.91-0.95,2.55-1.46h-3.46c-0.55,0-0.96-0.14-1.22-0.42c-0.23-0.26-0.3-0.61-0.23-1.07
		l0.18-0.96c0.07-0.38,0.26-0.68,0.57-0.91c0.29-0.17,0.66-0.26,1.09-0.26h4.81v-1.87h-7.05v-0.81h7.05V52.9h1.2v1.56h4.71V52.9h1.2
		v1.56h4.63c0.61,0,1.05,0.15,1.33,0.44c0.24,0.24,0.36,0.59,0.36,1.04v0.49c0,0.31-0.04,0.56-0.12,0.75
		c-0.08,0.19-0.2,0.35-0.35,0.47c-0.26,0.19-0.67,0.29-1.22,0.29h-4.63v2h5.59c0.22,0,0.44,0.02,0.64,0.07s0.38,0.12,0.53,0.22
		c0.31,0.19,0.47,0.53,0.47,1.01v0.42C189.79,62.05,189.68,62.35,189.45,62.58z M175.46,73.87c-0.45,0.23-0.91,0.45-1.38,0.65
		c-0.47,0.2-0.97,0.38-1.5,0.53c-0.53,0.16-1.12,0.29-1.78,0.42h-3.22c0.88-0.23,1.67-0.43,2.37-0.61c0.69-0.18,1.32-0.36,1.88-0.53
		s1.08-0.35,1.56-0.55c0.48-0.19,0.94-0.42,1.39-0.68h2.08C176.38,73.38,175.91,73.64,175.46,73.87z M170.86,57.95
		c-0.21,0-0.37,0.04-0.49,0.12c-0.12,0.08-0.2,0.22-0.23,0.43L170,59.3c-0.04,0.17-0.01,0.33,0.08,0.46c0.09,0.13,0.22,0.2,0.42,0.2
		h4.08c0.48-0.59,0.77-1.26,0.86-2H170.86z M187.09,65.46c0-0.33-0.11-0.61-0.32-0.83c-0.22-0.22-0.54-0.34-0.98-0.34h-13.23
		c-0.45,0-0.78,0.11-0.99,0.34c-0.21,0.23-0.31,0.51-0.31,0.86v0.75h15.83V65.46z M187.09,67.02h-15.83V69h15.83V67.02z
		 M171.25,69.75v0.75c0,0.36,0.12,0.66,0.35,0.88c0.23,0.22,0.55,0.34,0.95,0.34h13.23c0.42,0,0.74-0.12,0.96-0.35
		c0.22-0.23,0.34-0.52,0.34-0.87v-0.75H171.25z M181.37,57.95h-4.73c-0.03,0.35-0.1,0.68-0.21,1.01c-0.1,0.33-0.25,0.66-0.44,0.99
		h5.38V57.95z M181.37,55.27h-4.71v1.87h4.71V55.27z M188.02,75.47c-1.02-0.23-2.01-0.52-2.98-0.88c-0.96-0.36-1.91-0.86-2.85-1.48
		h2.05c0.5,0.31,1.04,0.58,1.62,0.79c0.58,0.22,1.17,0.41,1.77,0.58c0.6,0.17,1.19,0.33,1.78,0.48s1.15,0.32,1.69,0.51H188.02z
		 M187.76,55.92c0-0.43-0.22-0.65-0.68-0.65h-4.52v1.87h4.52c0.19,0,0.35-0.06,0.48-0.18c0.13-0.12,0.2-0.28,0.2-0.47V55.92z"/>
</g>
<g class="st0">
	<path class="st1" d="M63.07,96.71v7.72c0,0.35,0.1,0.64,0.31,0.88s0.46,0.36,0.75,0.36h3.67l-0.7,1.01h-3.02
		c-0.68,0-1.22-0.25-1.64-0.75c-0.38-0.43-0.57-0.97-0.57-1.61v-7.62h-2.16v3.3c0,0.47-0.17,0.82-0.49,1.07
		c-0.28,0.23-0.61,0.34-0.99,0.34h-1.2l-0.42-0.96h1.43c0.14,0,0.26-0.05,0.36-0.14c0.1-0.09,0.16-0.24,0.16-0.43v-9.96
		c0-0.85-0.45-1.27-1.35-1.27H56.1v18.04h-1.2V88.65h-1.22c-0.4,0-0.7,0.13-0.91,0.4s-0.31,0.58-0.31,0.92v11.47h-1.14V90.27
		c0-0.73,0.21-1.33,0.62-1.79c0.45-0.54,1.1-0.81,1.95-0.81h1.01v-3.59h1.2v3.59h1.07c0.88,0,1.54,0.23,1.98,0.7
		c0.38,0.43,0.57,1.05,0.57,1.85v5.49h2.16v-8.89c0-0.33,0.06-0.64,0.18-0.92s0.29-0.54,0.49-0.77c0.38-0.43,0.88-0.65,1.51-0.65
		h8.4v1.01h-8.29c-0.29,0-0.55,0.12-0.77,0.36c-0.22,0.24-0.33,0.52-0.33,0.83v1.53h8.92v1.01h-8.92v2.73h8.94v1.01h-8.94v2.73
		h10.37v1.01H63.07z M72.32,106.62c-0.83-0.68-1.57-1.33-2.22-1.98s-1.27-1.31-1.85-2.01c-0.58-0.7-1.15-1.45-1.7-2.24
		s-1.14-1.67-1.77-2.64h1.33c0.43,0.66,0.84,1.26,1.22,1.82c0.38,0.55,0.77,1.08,1.17,1.59c0.55-0.52,1.05-1.04,1.5-1.56
		c0.44-0.52,0.84-1.07,1.18-1.66h1.35c-0.26,0.42-0.52,0.8-0.78,1.16s-0.52,0.69-0.79,1.01c-0.27,0.32-0.55,0.64-0.83,0.95
		c-0.29,0.31-0.6,0.63-0.95,0.96c0.66,0.8,1.37,1.56,2.13,2.29c0.76,0.73,1.66,1.5,2.7,2.31H72.32z"/>
	<path class="st1" d="M83.66,86.42c0.23,0.4,0.52,0.83,0.88,1.3c0.36,0.47,0.78,0.94,1.25,1.4h-1.46c-0.45-0.42-0.84-0.85-1.16-1.3
		c-0.32-0.45-0.6-0.92-0.84-1.4h-1.87c-0.36,0.5-0.75,0.98-1.16,1.44c-0.41,0.46-0.81,0.88-1.21,1.26h-1.48
		c0.81-0.73,1.57-1.54,2.26-2.43c0.69-0.89,1.27-1.75,1.74-2.59h1.33c-0.14,0.24-0.28,0.49-0.42,0.73
		c-0.14,0.24-0.29,0.49-0.47,0.73h7.1v0.86H83.66z M97.78,94.53v-1.69c0-0.31-0.1-0.59-0.31-0.83c-0.21-0.24-0.5-0.36-0.88-0.36
		H79.63c-0.35,0-0.63,0.11-0.84,0.33c-0.22,0.22-0.33,0.48-0.33,0.79v1.77h-1.2v-1.61c0-0.62,0.17-1.13,0.52-1.51
		c0.43-0.47,1.03-0.7,1.79-0.7h8.09c-0.17-0.22-0.33-0.46-0.46-0.71c-0.13-0.25-0.26-0.52-0.38-0.82h1.3
		c0.09,0.24,0.21,0.49,0.36,0.73c0.16,0.24,0.35,0.51,0.57,0.81h7.46c0.75,0,1.33,0.18,1.74,0.55c0.47,0.38,0.7,0.94,0.7,1.66v1.61
		H97.78z M97.07,106.12c-0.38,0.36-0.96,0.55-1.74,0.55H82.05c-0.9,0-1.56-0.23-1.98-0.68c-0.33-0.38-0.49-0.91-0.49-1.59v-8.42
		c0-0.81,0.23-1.41,0.7-1.79c0.42-0.36,1.01-0.55,1.79-0.55h11.96c0.76,0,1.34,0.17,1.74,0.52c0.38,0.33,0.57,0.86,0.57,1.59v0.91
		c0,0.64-0.2,1.14-0.6,1.48c-0.38,0.36-0.95,0.55-1.72,0.55H80.77v2.08h14.56c0.73,0,1.29,0.17,1.69,0.52
		c0.43,0.38,0.65,0.95,0.65,1.69v1.46C97.67,105.16,97.47,105.73,97.07,106.12z M95.15,95.67c0-0.75-0.42-1.12-1.25-1.12H82.15
		c-0.47,0-0.81,0.13-1.04,0.38s-0.34,0.55-0.34,0.9v1.95h13.21c0.4,0,0.69-0.07,0.88-0.22s0.29-0.42,0.29-0.82V95.67z M96.48,102.85
		c0-0.4-0.12-0.69-0.35-0.88s-0.51-0.29-0.82-0.29H80.77v2.86c0,0.4,0.11,0.7,0.33,0.91c0.22,0.21,0.5,0.31,0.84,0.31h13.34
		c0.33,0,0.61-0.1,0.85-0.29s0.35-0.49,0.35-0.88V102.85z M94.03,86.37c0.24,0.43,0.55,0.89,0.92,1.38
		c0.37,0.49,0.78,0.95,1.23,1.38h-1.46c-0.38-0.35-0.75-0.77-1.1-1.26c-0.36-0.49-0.65-0.99-0.9-1.5h-1.85
		c-0.36,0.5-0.74,0.97-1.12,1.39c-0.38,0.42-0.75,0.79-1.12,1.1h-1.53c0.83-0.69,1.57-1.46,2.21-2.31c0.64-0.85,1.19-1.66,1.64-2.44
		h1.35c-0.26,0.47-0.55,0.94-0.86,1.4h7.8v0.86H94.03z"/>
	<path class="st1" d="M124.45,93.78c-0.23,0.24-0.57,0.36-1.04,0.36h-2.03l-0.31-0.81h2.08c0.12,0,0.24-0.05,0.35-0.16
		c0.11-0.1,0.17-0.23,0.17-0.36V92.5c0-0.16-0.04-0.29-0.13-0.39c-0.09-0.1-0.22-0.16-0.39-0.16h-5.59v2.73h3.41
		c0.75,0,1.33,0.21,1.74,0.62c0.38,0.4,0.57,1,0.57,1.82v4.32c0,0.76-0.17,1.33-0.52,1.69c-0.4,0.4-1.01,0.6-1.82,0.6h-13.57
		c-0.88,0-1.51-0.24-1.87-0.73c-0.29-0.38-0.44-0.9-0.44-1.56v-4.32c0-0.69,0.15-1.25,0.44-1.66c0.19-0.24,0.44-0.43,0.74-0.57
		s0.68-0.21,1.13-0.21h9v-2.73h-6.03c-0.5,0.52-1.21,1.02-2.11,1.51c-0.9,0.49-2.09,0.96-3.56,1.43h-2.52
		c1.63-0.52,2.97-1.01,4.03-1.48c1.06-0.47,1.91-0.95,2.55-1.46h-3.46c-0.56,0-0.96-0.14-1.22-0.42c-0.23-0.26-0.3-0.61-0.23-1.07
		l0.18-0.96c0.07-0.38,0.26-0.68,0.57-0.91c0.29-0.17,0.66-0.26,1.09-0.26h4.81v-1.87h-7.05v-0.81h7.05V84.1h1.2v1.56h4.71V84.1h1.2
		v1.56h4.63c0.61,0,1.05,0.15,1.33,0.44c0.24,0.24,0.36,0.59,0.36,1.04v0.49c0,0.31-0.04,0.56-0.12,0.75
		c-0.08,0.19-0.2,0.35-0.35,0.47c-0.26,0.19-0.67,0.29-1.22,0.29h-4.63v2h5.59c0.23,0,0.44,0.02,0.64,0.07
		c0.2,0.04,0.38,0.12,0.53,0.22c0.31,0.19,0.47,0.53,0.47,1.01v0.42C124.79,93.25,124.68,93.55,124.45,93.78z M110.46,105.07
		c-0.45,0.23-0.91,0.45-1.38,0.65c-0.47,0.2-0.97,0.38-1.5,0.53c-0.53,0.16-1.12,0.29-1.78,0.42h-3.22
		c0.88-0.23,1.67-0.43,2.37-0.61c0.69-0.18,1.32-0.36,1.88-0.53c0.56-0.17,1.08-0.35,1.56-0.55c0.48-0.19,0.94-0.42,1.39-0.68h2.08
		C111.38,104.58,110.91,104.84,110.46,105.07z M105.86,89.15c-0.21,0-0.37,0.04-0.49,0.12c-0.12,0.08-0.2,0.22-0.23,0.43L105,90.5
		c-0.03,0.17-0.01,0.33,0.08,0.46c0.09,0.13,0.23,0.2,0.42,0.2h4.08c0.48-0.59,0.77-1.26,0.86-2H105.86z M122.09,96.66
		c0-0.33-0.11-0.61-0.32-0.83c-0.22-0.22-0.54-0.34-0.98-0.34h-13.23c-0.45,0-0.78,0.11-0.99,0.34c-0.21,0.23-0.31,0.51-0.31,0.86
		v0.75h15.83V96.66z M122.09,98.22h-15.83v1.98h15.83V98.22z M106.25,100.95v0.75c0,0.36,0.12,0.66,0.35,0.88
		c0.23,0.22,0.55,0.34,0.95,0.34h13.23c0.42,0,0.74-0.12,0.96-0.35c0.23-0.23,0.34-0.52,0.34-0.87v-0.75H106.25z M116.37,89.15
		h-4.73c-0.03,0.35-0.1,0.68-0.21,1.01c-0.1,0.33-0.25,0.66-0.44,0.99h5.38V89.15z M116.37,86.47h-4.71v1.87h4.71V86.47z
		 M123.02,106.67c-1.02-0.23-2.02-0.52-2.98-0.88c-0.96-0.36-1.91-0.86-2.85-1.48h2.05c0.5,0.31,1.04,0.58,1.62,0.79
		c0.58,0.22,1.17,0.41,1.77,0.58c0.6,0.17,1.19,0.33,1.78,0.48s1.15,0.32,1.69,0.51H123.02z M122.76,87.12
		c0-0.43-0.23-0.65-0.68-0.65h-4.52v1.87h4.52c0.19,0,0.35-0.06,0.48-0.18c0.13-0.12,0.2-0.28,0.2-0.47V87.12z"/>
</g>
<g class="st0">
	<path class="st1" d="M142.08,102.2v2.37c0,0.61-0.21,1.12-0.62,1.53c-0.21,0.23-0.46,0.39-0.75,0.51
		c-0.29,0.11-0.62,0.17-0.96,0.17h-5.67l-0.88-2.31h4.63c0.14,0,0.25-0.06,0.35-0.17c0.09-0.11,0.14-0.23,0.14-0.35v-1.74h-9.65
		v-2.16h9.65v-0.47c0-0.26,0.12-0.43,0.36-0.52c0.38-0.12,0.85-0.27,1.39-0.46c0.55-0.18,1.02-0.35,1.42-0.51h-10.97v-2.08h17.32
		c0.24,0,0.45,0.07,0.62,0.22c0.17,0.15,0.3,0.32,0.39,0.51c0.09,0.22,0.1,0.45,0.03,0.66c-0.07,0.22-0.23,0.39-0.47,0.51
		c-0.42,0.19-0.87,0.38-1.37,0.57c-0.49,0.19-1,0.38-1.52,0.56c-0.52,0.18-1.04,0.36-1.56,0.52c-0.52,0.17-1.01,0.33-1.48,0.48h9.15
		v2.16H142.08z M128.87,87.82v-2.24h9.02c-0.05-0.1-0.11-0.23-0.18-0.38s-0.14-0.3-0.22-0.47c-0.08-0.17-0.16-0.33-0.23-0.48
		c-0.08-0.16-0.14-0.29-0.19-0.42h4.39c0.12,0.29,0.25,0.59,0.39,0.88c0.14,0.29,0.3,0.58,0.49,0.86h8.94v2.24H128.87z M149.26,94.4
		c-0.35,0.33-0.87,0.49-1.56,0.49h-15.34c-0.68,0-1.2-0.21-1.56-0.62c-0.33-0.38-0.49-0.89-0.49-1.53v-2.16c0-0.5,0.17-0.9,0.49-1.2
		c0.19-0.17,0.42-0.3,0.68-0.38c0.26-0.08,0.54-0.12,0.83-0.12h15.47c0.59,0,1.07,0.18,1.43,0.55c0.38,0.38,0.57,0.88,0.57,1.51
		v2.08C149.78,93.63,149.6,94.09,149.26,94.4z M145.8,91.41c0-0.1-0.04-0.19-0.13-0.26c-0.09-0.07-0.18-0.1-0.29-0.1h-10.76
		c-0.09,0-0.17,0.04-0.26,0.12c-0.09,0.08-0.13,0.16-0.13,0.25v0.88c0,0.14,0.04,0.24,0.13,0.31c0.09,0.07,0.19,0.1,0.31,0.1h10.63
		c0.12,0,0.23-0.04,0.34-0.12c0.1-0.08,0.16-0.19,0.16-0.33V91.41z"/>
	<path class="st1" d="M160.35,88.45c-0.48,1.51-1.03,2.99-1.65,4.45h1.22v13.96h-3.9V93.98h-1.95c1.51-3.26,2.66-6.63,3.46-10.11
		h4.11C161.25,85.41,160.82,86.94,160.35,88.45z M174.5,99.57c-0.33-0.54-0.61-1.07-0.84-1.59c-0.23-0.52-0.45-1.07-0.64-1.64h1.25
		v-0.73c0-0.29-0.16-0.44-0.47-0.44h-2.05c0.14,0.31,0.31,0.63,0.51,0.96c0.2,0.33,0.39,0.63,0.58,0.91h-3.17
		c-0.19-0.28-0.38-0.58-0.56-0.92c-0.18-0.34-0.33-0.65-0.46-0.95h-3.98c-0.14,0-0.26,0.04-0.35,0.13c-0.1,0.09-0.14,0.2-0.14,0.34
		v0.78h1.17c-0.24,0.55-0.51,1.09-0.79,1.61c-0.29,0.52-0.61,1.03-0.97,1.53h-3.28c0.29-0.38,0.58-0.78,0.86-1.21
		s0.52-0.85,0.73-1.26h-1.07v-1.9c0-0.47,0.15-0.87,0.44-1.2c0.35-0.35,0.76-0.53,1.25-0.55v-4.68c0-0.59,0.16-1.05,0.47-1.38
		c0.31-0.4,0.8-0.6,1.46-0.6h2.34c0.07-0.14,0.13-0.29,0.2-0.44c0.06-0.16,0.12-0.31,0.17-0.47h-5.25V84.1h15.52v1.79h-6.5
		c-0.1,0.33-0.23,0.63-0.39,0.91h3.64c0.24,0,0.48,0.05,0.73,0.14c0.24,0.09,0.45,0.24,0.62,0.43c0.14,0.14,0.25,0.29,0.33,0.47
		c0.08,0.17,0.12,0.36,0.12,0.57v4.99c0.24,0.05,0.47,0.13,0.69,0.23c0.22,0.1,0.39,0.24,0.53,0.42c0.26,0.28,0.39,0.63,0.39,1.07
		v1.9h-1.25c0.31,0.85,0.74,1.7,1.27,2.55H174.5z M171.33,106.83c-0.29-0.12-0.59-0.26-0.9-0.4c-0.3-0.15-0.6-0.3-0.9-0.46
		c-0.36,0.17-0.73,0.33-1.09,0.48c-0.36,0.15-0.74,0.27-1.12,0.38h-6.94c2.06-0.73,4.09-1.53,6.08-2.42
		c-0.19-0.09-0.38-0.19-0.56-0.31c-0.18-0.12-0.37-0.25-0.56-0.39c-0.07,0.09-0.15,0.17-0.23,0.26s-0.17,0.17-0.26,0.26h-4.26
		c0.78-0.76,1.54-1.57,2.29-2.43s1.44-1.73,2.08-2.61h1.43c-0.19-0.14-0.35-0.32-0.47-0.53c-0.12-0.22-0.18-0.45-0.18-0.69v-2.03
		h3.04v1.53c0,0.1,0.05,0.2,0.16,0.3c0.1,0.1,0.2,0.14,0.29,0.14h4.13l-0.54,1.59h-4.13c-0.09,0.14-0.18,0.28-0.29,0.43
		c-0.1,0.15-0.22,0.28-0.34,0.4h6.5c0.24,0,0.45,0.07,0.64,0.22c0.18,0.15,0.32,0.33,0.4,0.53c0.09,0.23,0.12,0.46,0.09,0.69
		c-0.03,0.23-0.13,0.45-0.33,0.64c-0.43,0.42-0.89,0.78-1.36,1.09c-0.48,0.31-0.98,0.62-1.5,0.91c0.85,0.45,1.72,0.88,2.6,1.27
		c0.88,0.4,1.79,0.78,2.71,1.14H171.33z M172.4,88.91c0-0.09-0.05-0.17-0.14-0.26s-0.19-0.13-0.27-0.13h-5.38
		c-0.1,0-0.21,0.04-0.31,0.1s-0.16,0.17-0.16,0.29v0.36h6.27V88.91z M172.4,90.55h-6.27v0.7h6.27V90.55z M172.4,92.66h-6.27v0.81
		h6.27V92.66z M166.96,101.83c-0.09,0.14-0.18,0.27-0.29,0.39c-0.1,0.12-0.21,0.24-0.31,0.36h2.55c0.09,0.05,0.19,0.11,0.3,0.17
		s0.21,0.11,0.3,0.14c0.29-0.14,0.6-0.3,0.92-0.49c0.32-0.19,0.62-0.38,0.9-0.57H166.96z"/>
	<path class="st1" d="M185.25,103.81c-0.3,0.88-0.65,1.76-1.05,2.63h-3.87c0.4-0.85,0.77-1.72,1.11-2.61
		c0.34-0.89,0.62-1.8,0.84-2.72h3.8C185.83,102.03,185.56,102.93,185.25,103.81z M199.38,100.17c-0.14-0.14-0.27-0.29-0.4-0.44
		c-0.13-0.16-0.25-0.31-0.35-0.47c-2.98,0.14-5.97,0.25-8.96,0.33c-2.99,0.08-5.97,0.12-8.93,0.12v-2.24
		c1.59,0.04,3.18,0.05,4.74,0.05c1.57,0,3.14-0.02,4.72-0.05v-1.4h-6.03c-0.31,0-0.62-0.06-0.91-0.18s-0.55-0.31-0.75-0.57
		c-0.33-0.38-0.49-0.91-0.49-1.59v-3.28c0-0.29,0.05-0.56,0.16-0.79c0.1-0.23,0.25-0.45,0.44-0.64c0.45-0.42,0.99-0.62,1.61-0.62
		h5.98V87.3h-9.39v-2.03h9.39v-1.38h3.8v1.38h9.41v2.03H194v1.09h6.01c0.71,0,1.28,0.22,1.72,0.65c0.38,0.42,0.57,0.95,0.57,1.61
		v3.17c0,0.64-0.2,1.16-0.6,1.56c-0.45,0.45-1.04,0.68-1.77,0.68H194v1.33c0.19,0,0.43-0.01,0.71-0.03
		c0.29-0.02,0.58-0.03,0.88-0.04c0.3-0.01,0.6-0.02,0.9-0.04s0.55-0.03,0.78-0.03c-0.17-0.26-0.29-0.49-0.36-0.68h4.39
		c0.36,0.61,0.74,1.21,1.14,1.82c0.4,0.61,0.86,1.2,1.38,1.77H199.38z M190.21,90.26h-3.95c-0.1,0-0.21,0.04-0.32,0.12
		c-0.11,0.08-0.17,0.18-0.17,0.3v0.6h4.45V90.26z M190.21,93.15h-4.45v0.6c0,0.09,0.05,0.18,0.14,0.29c0.1,0.1,0.19,0.16,0.27,0.16
		h4.03V93.15z M198.03,106.85h-8.97c-0.4,0-0.74-0.07-1.03-0.22c-0.29-0.15-0.52-0.34-0.71-0.58c-0.35-0.49-0.52-1.09-0.52-1.82
		v-3.77h3.69v3.59c0,0.16,0.06,0.3,0.17,0.43c0.11,0.13,0.25,0.2,0.43,0.2h7.57L198.03,106.85z M192.7,103.71
		c-0.26-0.57-0.49-1.15-0.69-1.74c-0.2-0.59-0.38-1.19-0.53-1.79h3.77c0.31,1.2,0.76,2.38,1.35,3.54H192.7z M198.47,90.66
		c0-0.09-0.05-0.17-0.14-0.26c-0.1-0.09-0.19-0.13-0.27-0.13H194v1.01h4.47V90.66z M198.47,93.15H194v1.04h4
		c0.1,0,0.21-0.04,0.31-0.12c0.1-0.08,0.16-0.17,0.16-0.27V93.15z M200.14,106.41c-0.43-0.85-0.82-1.72-1.14-2.6
		c-0.33-0.88-0.62-1.79-0.88-2.73h3.77c0.26,0.92,0.57,1.82,0.94,2.7c0.36,0.88,0.76,1.76,1.2,2.63H200.14z"/>
</g>
</svg>
