<?xml version="1.0" encoding="utf-8"?>
<!-- Generator: Adobe Illustrator 24.0.1, SVG Export Plug-In . SVG Version: 6.00 Build 0)  -->
<svg version="1.1" id="圖層_1" xmlns="http://www.w3.org/2000/svg" xmlns:xlink="http://www.w3.org/1999/xlink" x="0px" y="0px"
	 viewBox="0 0 328.25 79.25" style="enable-background:new 0 0 328.25 79.25;" xml:space="preserve">
<style type="text/css">
	.st0{enable-background:new    ;}
	.st1{fill:#0F90C9;}
</style>
<g class="st0">
	<path class="st1" d="M2.67,44.88v-3.59h3.36V26.06c0-0.49,0.11-0.97,0.32-1.43c0.21-0.46,0.51-0.87,0.87-1.24
		c0.34-0.34,0.73-0.61,1.17-0.83c0.44-0.21,0.9-0.32,1.36-0.32h8.83l0.32-1.84H3.27v-3.63h16.47l0.37-1.79H7.36
		c-0.49,0-0.94-0.09-1.33-0.28c-0.4-0.18-0.74-0.44-1.01-0.78c-0.52-0.58-0.78-1.29-0.78-2.12V7.75c0-0.89,0.29-1.62,0.87-2.21
		c0.61-0.58,1.49-0.87,2.62-0.87h31.23c0.89,0,1.64,0.26,2.25,0.78c0.31,0.28,0.55,0.6,0.74,0.97c0.18,0.37,0.28,0.78,0.28,1.24
		v4.37c0,0.89-0.32,1.61-0.97,2.16c-0.61,0.52-1.37,0.78-2.25,0.78H27.14l-0.46,1.79h16.24v3.63H25.85l-0.41,1.84h11.13
		c0.52,0,1.04,0.12,1.54,0.34c0.51,0.23,0.94,0.54,1.31,0.94c0.74,0.74,1.1,1.59,1.1,2.58v15.18h3.31v3.59H2.67z M14.9,8.35h-3.59
		c-0.18,0-0.34,0.08-0.46,0.25c-0.12,0.17-0.18,0.34-0.18,0.53v1.43c0,0.49,0.25,0.74,0.74,0.74h3.5V8.35z M33.72,26.52
		c0-0.25-0.09-0.46-0.28-0.64c-0.18-0.18-0.41-0.28-0.69-0.28H13.71c-0.25,0-0.46,0.08-0.64,0.25c-0.18,0.17-0.28,0.39-0.28,0.67
		v1.01h20.93V26.52z M33.72,30.11H12.79V32h20.93V30.11z M33.72,34.62H12.79v1.98h20.93V34.62z M33.72,39.22H12.79v2.07h20.93V39.22
		z M25.35,8.35h-4.23v2.94h4.23V8.35z M35.74,9.13c0-0.21-0.08-0.4-0.23-0.55c-0.15-0.15-0.35-0.23-0.6-0.23h-3.4v2.94h3.54
		c0.46,0,0.69-0.25,0.69-0.74V9.13z"/>
	<path class="st1" d="M58.37,45.01V41.2h12.83v-2.71h-9.43v-2.58h-5.01c-0.34,3.25-0.95,6.29-1.84,9.11h-6.58
		c0.31-0.83,0.58-1.76,0.83-2.81c0.25-1.04,0.45-2.11,0.62-3.2c0.17-1.09,0.3-2.17,0.39-3.24s0.14-2.08,0.14-3.04v-6.85
		c0-0.64,0.1-1.21,0.3-1.7c0.2-0.49,0.47-0.92,0.81-1.29c0.89-0.92,2.05-1.38,3.5-1.38h34.36v3.96H77.6v3.13h10.21v3.86H77.6v2.35
		h8.05v3.68H77.6v2.71h11.91v3.82H58.37z M49.73,11.07V7.2h15.64c-0.18-0.34-0.4-0.78-0.64-1.33c-0.25-0.55-0.46-1.07-0.64-1.56
		l7.68-0.05c0.28,0.49,0.54,0.98,0.81,1.47c0.26,0.49,0.56,0.98,0.9,1.47h14.77v3.86H49.73z M73.09,20.08
		c-0.61-0.21-1.27-0.43-1.96-0.64s-1.45-0.44-2.28-0.69c-0.21,0.09-0.49,0.19-0.83,0.3c-0.34,0.11-0.68,0.22-1.04,0.35
		c-0.35,0.12-0.71,0.25-1.06,0.37c-0.35,0.12-0.65,0.23-0.9,0.32h-15c2.21-0.61,4.4-1.27,6.58-1.98c2.18-0.71,4.08-1.35,5.7-1.93
		c-1.32-0.52-2.63-1.1-3.93-1.75c-1.3-0.64-2.6-1.27-3.89-1.89h12.42c0.31,0.18,0.71,0.38,1.2,0.6c0.49,0.21,0.87,0.37,1.15,0.46
		c0.43-0.15,0.84-0.31,1.22-0.48c0.38-0.17,0.77-0.36,1.17-0.58H83.4c-1.23,0.71-2.5,1.37-3.82,1.98c-1.32,0.61-2.58,1.15-3.77,1.61
		c1.87,0.77,3.84,1.48,5.91,2.14c2.07,0.66,4.09,1.26,6.05,1.82H73.09z M71.21,25.46H57.59c-0.15,0-0.31,0.06-0.46,0.18
		c-0.15,0.12-0.23,0.25-0.23,0.37v8.83c0.86-1.29,1.62-2.6,2.3-3.93c0.67-1.33,1.29-2.72,1.84-4.16h6.62
		c-0.09,0.25-0.21,0.55-0.35,0.92c-0.14,0.37-0.24,0.68-0.3,0.92h4.19V25.46z M71.21,32.46h-5.93c-0.21,0.4-0.46,0.83-0.74,1.29
		s-0.49,0.81-0.64,1.06h7.31V32.46z"/>
	<path class="st1" d="M106.21,40.28c-1.26,0.52-2.55,1.02-3.86,1.5c-1.32,0.48-2.61,0.92-3.89,1.33c-1.27,0.41-2.43,0.73-3.47,0.94
		v-4.42c1.53-0.43,2.96-0.87,4.28-1.33V25h-3.31v-4.23h3.31V10.24h-4.23V6h14.4v4.23h-3.63v10.53h2.76V25h-2.76v10.86
		c0.25-0.06,0.53-0.15,0.85-0.25c0.32-0.11,0.67-0.23,1.04-0.37s0.72-0.27,1.06-0.39c0.34-0.12,0.63-0.23,0.87-0.32v4.28
		C108.61,39.26,107.47,39.75,106.21,40.28z M109.43,44.83v-4.19h9.84v-4.74h-8.33v-4.14h8.33v-4.23h-4.32
		c-1.1,0-2.04-0.35-2.81-1.06c-0.4-0.4-0.71-0.88-0.94-1.45s-0.35-1.22-0.35-1.96V8.49c0-1.17,0.41-2.12,1.24-2.85
		c0.74-0.64,1.58-0.97,2.53-0.97h15.27c1.35,0,2.38,0.4,3.08,1.2c0.37,0.4,0.64,0.84,0.81,1.31c0.17,0.48,0.25,0.96,0.25,1.45v15.18
		c0,1.07-0.35,1.96-1.06,2.67c-0.34,0.34-0.74,0.6-1.2,0.78c-0.46,0.18-0.98,0.28-1.56,0.28h-4.46v4.23h8.33v4.14h-8.33v4.74h9.75
		v4.19H109.43z M119.28,8.77h-1.84c-0.25,0-0.47,0.09-0.67,0.28c-0.2,0.18-0.3,0.38-0.3,0.6v4.32h2.81V8.77z M119.28,18.1h-2.81
		v4.37c0,0.21,0.11,0.42,0.34,0.62s0.44,0.3,0.62,0.3h1.84V18.1z M128.52,9.82c0-0.31-0.11-0.56-0.32-0.76
		c-0.21-0.2-0.46-0.3-0.74-0.3h-1.7v5.2h2.76V9.82z M128.52,18.1h-2.76v5.29h1.84c0.25,0,0.46-0.08,0.64-0.25s0.28-0.35,0.28-0.53
		V18.1z"/>
	<path class="st1" d="M148.35,40.48c-0.37,1.49-0.81,2.97-1.33,4.44h-6.81c0.67-1.56,1.23-3.09,1.68-4.58
		c0.44-1.49,0.8-2.97,1.08-4.44h6.26C149.01,37.47,148.72,39,148.35,40.48z M157.04,33.24c-0.71,0.71-1.63,1.06-2.76,1.06h-8.92
		c-0.52,0-1-0.11-1.45-0.34c-0.44-0.23-0.84-0.53-1.17-0.9c-0.64-0.74-0.97-1.61-0.97-2.62V8.49c0-0.46,0.12-0.87,0.35-1.24
		s0.51-0.69,0.85-0.97c0.77-0.61,1.63-0.92,2.58-0.92h8.56c1.13,0,2.1,0.45,2.9,1.33c0.31,0.34,0.55,0.71,0.74,1.1
		c0.18,0.4,0.28,0.83,0.28,1.29v21.76C158.01,31.86,157.69,32.66,157.04,33.24z M151.75,10.28c0-0.25-0.08-0.45-0.25-0.62
		c-0.17-0.17-0.38-0.25-0.62-0.25h-2.25c-0.21,0-0.39,0.11-0.53,0.32c-0.14,0.21-0.21,0.4-0.21,0.55v3.31h3.86V10.28z M151.75,17.46
		h-3.86v4.6h3.86V17.46z M151.75,25.97h-3.86v3.36c0,0.31,0.09,0.56,0.28,0.76c0.18,0.2,0.4,0.3,0.64,0.3h2.12
		c0.55,0,0.83-0.31,0.83-0.92V25.97z M153.36,44.92c-0.67-1.41-1.2-2.88-1.56-4.39c-0.37-1.52-0.69-3.06-0.97-4.62h6.3
		c0.12,0.67,0.28,1.41,0.48,2.21c0.2,0.8,0.43,1.59,0.69,2.39c0.26,0.8,0.54,1.58,0.83,2.35c0.29,0.77,0.59,1.46,0.9,2.07H153.36z
		 M168.61,23.62c-0.23,1.81-0.51,3.61-0.85,5.41c-0.34,1.79-0.71,3.52-1.13,5.17c-0.41,1.66-0.85,3.11-1.31,4.37h-6.9
		c1.38-3.56,2.35-6.96,2.92-10.21c0.57-3.25,0.93-6.5,1.08-9.75h6.67C169,20.14,168.84,21.81,168.61,23.62z M178.3,16.08v24.29
		c0,0.52-0.11,1.04-0.32,1.56c-0.21,0.52-0.49,1-0.83,1.43c-0.37,0.46-0.81,0.83-1.31,1.1c-0.51,0.28-1.02,0.41-1.54,0.41h-9.34
		l-1.24-4.23h7.18c0.21,0,0.4-0.11,0.55-0.32c0.15-0.21,0.23-0.4,0.23-0.55V16.08h-12.28V11.8h12.28V4.44h6.62v7.36h2.99v4.28H178.3
		z"/>
	<path class="st1" d="M210.77,38.3v6.81h-7.08V38.3h-16.56v-4.23h16.56v-3.54h-14.26v-4.14h6.21c-0.43-1.04-0.82-2.09-1.17-3.15
		c-0.35-1.06-0.7-2.15-1.03-3.29h-6.35v-4.23h16.42v-3.63h-13.39V7.98h13.39v-3.5h7.13v3.5h13.39v4.09h-13.39v3.63h16.51v4.23h-6.16
		c-0.34,1.07-0.71,2.15-1.13,3.24s-0.84,2.15-1.27,3.2h6.58v4.14h-14.4v3.54h16.47v4.23H210.77z M200.74,19.94
		c0.55,2.3,1.29,4.45,2.21,6.44h8.1c0.52-1.04,1-2.1,1.45-3.17c0.44-1.07,0.83-2.16,1.17-3.27H200.74z"/>
	<path class="st1" d="M243.71,31.4c-0.34-1.2-0.59-2.43-0.76-3.7c-0.17-1.27-0.31-2.55-0.44-3.84c-0.09,0.18-0.2,0.38-0.32,0.58
		c-0.12,0.2-0.25,0.42-0.37,0.67v19.92h-6.58V30.34h-3.04c1.44-2.48,2.76-4.98,3.96-7.5c1.2-2.51,2.32-5.21,3.36-8.1
		c0.06-0.15,0.05-0.31-0.05-0.48c-0.09-0.17-0.23-0.25-0.41-0.25h-6.26V9.69h3.73c-0.25-0.86-0.47-1.73-0.67-2.6
		c-0.2-0.87-0.39-1.75-0.58-2.64h6.49c0.06,0.31,0.15,0.69,0.25,1.15c0.11,0.46,0.22,0.94,0.34,1.43c0.12,0.49,0.25,0.97,0.37,1.45
		c0.12,0.48,0.23,0.88,0.32,1.22h0.64c0.52,0,0.97,0.09,1.33,0.28c0.37,0.18,0.69,0.43,0.97,0.74c0.28,0.34,0.46,0.75,0.55,1.24
		c0.09,0.49,0.06,1-0.09,1.52c-0.21,0.71-0.45,1.46-0.71,2.25c-0.26,0.8-0.54,1.6-0.83,2.39c-0.29,0.8-0.6,1.58-0.92,2.35
		c-0.32,0.77-0.64,1.47-0.94,2.12h3.04c0.15,1.47,0.34,2.96,0.55,4.46c0.21,1.5,0.49,2.96,0.83,4.37H243.71z M247.2,9V4.95h26.22V9
		H247.2z M272.6,42.53c-0.18,0.49-0.44,0.9-0.78,1.24c-0.74,0.83-1.81,1.24-3.22,1.24h-15.55c-0.67,0-1.33-0.09-1.96-0.28
		c-0.63-0.18-1.17-0.48-1.63-0.87c-0.89-0.74-1.33-1.73-1.33-2.99V29.51c0-1.35,0.43-2.38,1.29-3.08c0.86-0.77,1.98-1.15,3.36-1.15
		h16.01c0.58,0,1.11,0.11,1.59,0.32c0.47,0.21,0.9,0.49,1.26,0.83c0.83,0.83,1.24,1.86,1.24,3.08v11.36
		C272.87,41.49,272.78,42.04,272.6,42.53z M270.8,21.55c-0.37,0.43-0.82,0.78-1.36,1.06c-0.54,0.28-1.13,0.41-1.77,0.41h-14.77
		c-1.26,0-2.22-0.41-2.9-1.24c-0.61-0.71-0.92-1.64-0.92-2.81v-3.91c0-1.1,0.34-1.99,1.01-2.67c0.83-0.83,1.87-1.24,3.13-1.24h14.67
		c1.17,0,2.12,0.41,2.85,1.24c0.67,0.74,1.01,1.63,1.01,2.67v3.91C271.77,19.96,271.45,20.82,270.8,21.55z M257.55,29.28h-2.53
		c-0.25,0-0.46,0.1-0.64,0.3c-0.18,0.2-0.28,0.42-0.28,0.67v2.71h3.45V29.28z M257.55,36.73h-3.45v3.36c0,0.22,0.09,0.41,0.28,0.6
		c0.18,0.18,0.37,0.28,0.55,0.28h2.62V36.73z M265.47,15.8c0-0.21-0.08-0.41-0.25-0.58c-0.17-0.17-0.36-0.25-0.58-0.25h-8.37
		c-0.25,0-0.44,0.08-0.57,0.23c-0.14,0.15-0.21,0.35-0.21,0.6v2.62c0,0.49,0.21,0.74,0.64,0.74h8.6c0.18,0,0.35-0.08,0.51-0.23
		c0.15-0.15,0.23-0.32,0.23-0.51V15.8z M266.8,30.25c0-0.28-0.08-0.51-0.25-0.69c-0.17-0.18-0.38-0.28-0.62-0.28h-2.3v3.68h3.17
		V30.25z M266.8,36.73h-3.17v4.23h2.39c0.25,0,0.44-0.09,0.58-0.28c0.14-0.18,0.21-0.38,0.21-0.6V36.73z"/>
	<path class="st1" d="M291.66,7.71c-0.78,1.17-1.57,2.24-2.37,3.22v9.84h-6.81v-6.62h-3.86c2.73-3.1,5.09-6.36,7.08-9.8h7.96
		C293.11,5.42,292.45,6.54,291.66,7.71z M309.81,45.01c-0.98-0.64-1.95-1.35-2.9-2.12c-0.95-0.77-1.9-1.56-2.85-2.39h-9.11
		c-0.98,0.8-1.99,1.57-3.01,2.32c-1.03,0.75-2.08,1.48-3.15,2.19h-10.12c1.13-0.71,2.29-1.45,3.47-2.23s2.31-1.57,3.38-2.37
		c-0.46-0.03-0.88-0.14-1.27-0.34c-0.38-0.2-0.73-0.45-1.04-0.76c-0.43-0.37-0.76-0.81-0.99-1.31c-0.23-0.51-0.35-1.05-0.35-1.63
		V25.79c0-1.04,0.4-1.93,1.2-2.67c0.64-0.58,1.35-0.87,2.12-0.87h27c1.41,0,2.51,0.45,3.31,1.33c0.71,0.71,1.06,1.69,1.06,2.94
		v10.35c0,0.52-0.08,0.97-0.23,1.36s-0.35,0.74-0.6,1.08c-0.34,0.4-0.74,0.71-1.2,0.92s-0.92,0.34-1.38,0.37
		c1.07,0.83,2.17,1.59,3.29,2.3c1.12,0.71,2.26,1.41,3.43,2.12H309.81z M309.76,26.75c0-0.18-0.08-0.34-0.23-0.48
		c-0.15-0.14-0.32-0.21-0.51-0.21h-19.5c-0.25,0-0.46,0.09-0.64,0.28c-0.18,0.18-0.28,0.35-0.28,0.51v0.6h21.16V26.75z
		 M309.76,30.52H288.6v1.52h21.16V30.52z M309.76,35.17H288.6v0.69c0,0.21,0.09,0.4,0.28,0.55c0.18,0.15,0.37,0.23,0.55,0.23h19.6
		c0.18,0,0.35-0.08,0.51-0.23c0.15-0.15,0.23-0.31,0.23-0.46V35.17z M318.6,20.73h-9.48c-1.78,0-3.21-0.54-4.28-1.61
		c-0.92-0.89-1.76-1.85-2.51-2.88c-0.75-1.03-1.48-2.06-2.18-3.1l-7.68,0.51l-0.32-3.96l5.43-0.32c-0.52-0.83-1.02-1.66-1.5-2.48
		c-0.48-0.83-0.94-1.67-1.4-2.53h7.5c0.43,0.8,0.9,1.57,1.4,2.32c0.51,0.75,1.02,1.5,1.54,2.23l3.5-0.32
		c-0.37-0.55-0.73-1.2-1.08-1.93c-0.35-0.74-0.65-1.41-0.9-2.02h7.04c0.28,0.61,0.6,1.24,0.97,1.89c0.37,0.64,0.74,1.23,1.1,1.75
		l3.5-0.23l0.23,3.91l-11.73,0.74c0.43,0.61,0.87,1.21,1.33,1.79c0.46,0.58,0.95,1.13,1.47,1.66c0.43,0.43,1,0.64,1.7,0.64h7.45
		L318.6,20.73z"/>
</g>
<g class="st0">
	<path class="st1" d="M7.25,73.77c-1.06,0.5-2.06,0.89-3.02,1.17H1.56c1.44-0.49,2.75-0.97,3.93-1.46c1.18-0.48,2.19-1.04,3.04-1.66
		h1.92C9.38,72.62,8.31,73.27,7.25,73.77z M7.12,54.08c-0.5,0.55-1.03,1.07-1.59,1.57L6.5,55.6v5.2H5.3v-4.94
		c-0.33,0.29-0.67,0.58-1.01,0.87c-0.35,0.29-0.69,0.57-1.04,0.84H1.66c1.02-0.8,2-1.61,2.94-2.43s1.83-1.73,2.68-2.72h1.33
		C8.12,52.98,7.63,53.53,7.12,54.08z M22.11,69.77c-0.1,0.26-0.24,0.49-0.43,0.68c-0.19,0.21-0.43,0.37-0.71,0.49
		c-0.29,0.12-0.63,0.18-1.03,0.18H6.4c-0.8,0-1.4-0.19-1.79-0.57c-0.45-0.4-0.68-0.99-0.68-1.77v-5.02c0-0.59,0.19-1.09,0.57-1.51
		c0.42-0.45,0.98-0.68,1.69-0.68h13.73c0.38,0,0.71,0.05,1,0.16c0.29,0.1,0.52,0.25,0.71,0.44c0.21,0.19,0.36,0.42,0.47,0.7
		s0.16,0.57,0.16,0.88v5.17C22.26,69.23,22.21,69.51,22.11,69.77z M21.06,63.63c0-0.33-0.11-0.6-0.33-0.82
		c-0.22-0.22-0.49-0.33-0.82-0.33H6.4c-0.4,0-0.71,0.11-0.94,0.34c-0.23,0.22-0.34,0.54-0.34,0.94v0.68h15.94V63.63z M21.06,65.32
		H5.12v2.03h15.94V65.32z M5.12,68.21v0.83c0,0.36,0.11,0.65,0.32,0.86s0.52,0.31,0.92,0.31h13.57c0.31,0,0.58-0.1,0.79-0.3
		s0.33-0.49,0.33-0.87v-0.83H5.12z M23.56,60.36h-3.07c-0.66,0-1.27-0.13-1.85-0.39c-0.59-0.26-1.12-0.64-1.59-1.14
		c-0.42-0.45-0.82-0.9-1.22-1.34c-0.4-0.44-0.79-0.9-1.17-1.36l-6.45,0.47v-0.91l5.75-0.42c-0.35-0.45-0.69-0.91-1.04-1.38
		s-0.68-0.94-0.99-1.43h1.17c0.68,0.9,1.38,1.81,2.11,2.73l4.86-0.36c-0.29-0.31-0.62-0.68-0.99-1.12
		c-0.36-0.43-0.68-0.84-0.94-1.22h1.17c0.52,0.73,1.19,1.48,2,2.26l2.47-0.18v0.91l-7.85,0.57c0.29,0.35,0.6,0.7,0.91,1.05
		s0.63,0.71,0.96,1.05c0.35,0.36,0.74,0.67,1.18,0.92c0.44,0.25,0.91,0.38,1.42,0.38h3.74L23.56,60.36z M21.74,74.94
		c-1.07-0.29-2.1-0.71-3.07-1.23c-0.97-0.53-1.88-1.16-2.73-1.89h1.74c0.38,0.33,0.84,0.65,1.38,0.95c0.54,0.3,1.12,0.58,1.74,0.85
		c0.62,0.26,1.27,0.5,1.94,0.73c0.67,0.22,1.32,0.42,1.96,0.6H21.74z"/>
	<path class="st1" d="M31.37,70.37c-0.46,0.99-0.94,1.86-1.44,2.63h-1.4c0.66-0.87,1.21-1.79,1.66-2.78c0.45-0.99,0.8-1.9,1.04-2.73
		h1.22C32.19,68.42,31.83,69.38,31.37,70.37z M35.62,55.29v2.78h4.65v0.99H29.67v-0.99h4.78v-2.78h-5.64V54.3h5.64v-1.87h1.17v1.87
		h5.67v0.99H35.62z M35.62,66.16v6.81c0,0.62-0.16,1.12-0.47,1.48c-0.29,0.33-0.73,0.49-1.3,0.49h-1.98l-0.44-0.91h2.16
		c0.55,0,0.83-0.29,0.83-0.86v-7.02h-5.59v-0.99h12.45v0.99H35.62z M29.95,62.36v-0.99h10.09v0.99H29.95z M39.73,72.5
		c-0.5-0.76-0.93-1.56-1.29-2.38c-0.36-0.82-0.66-1.7-0.92-2.64h1.2c0.24,0.83,0.54,1.66,0.9,2.48c0.35,0.82,0.86,1.67,1.52,2.54
		H39.73z M50.41,74.97c-0.61-0.78-1.16-1.64-1.66-2.57c-0.5-0.94-0.95-1.91-1.35-2.91c-0.35-0.88-0.65-1.77-0.9-2.65
		c-0.25-0.88-0.46-1.75-0.64-2.6c-0.17,1.14-0.39,2.2-0.66,3.16c-0.27,0.96-0.6,1.88-1,2.74c-0.4,0.87-0.84,1.69-1.31,2.48
		c-0.48,0.79-1.01,1.57-1.6,2.35h-1.4c0.66-0.85,1.27-1.72,1.82-2.61c0.55-0.89,1.06-1.85,1.51-2.87c0.35-0.8,0.65-1.62,0.9-2.48
		c0.25-0.86,0.46-1.78,0.61-2.77c0.23-1.44,0.31-3.06,0.26-4.86h1.17c0,1.59-0.08,3.06-0.23,4.39h0.96
		c0.19,0.92,0.41,1.82,0.66,2.69c0.25,0.88,0.54,1.73,0.87,2.56c0.43,1.13,0.93,2.18,1.48,3.17s1.19,1.92,1.9,2.78H50.41z
		 M50.7,58.56c-0.09,0.49-0.23,1.07-0.44,1.74s-0.45,1.34-0.73,2h-1.22c0.26-0.62,0.5-1.31,0.73-2.05s0.41-1.41,0.55-2
		c0.07-0.29,0.05-0.55-0.05-0.78c-0.1-0.22-0.32-0.34-0.65-0.34h-5.12c-0.28,0.81-0.58,1.6-0.92,2.35c-0.34,0.75-0.72,1.5-1.16,2.22
		h-1.33c0.55-0.85,1.03-1.72,1.43-2.6c0.4-0.88,0.75-1.77,1.04-2.65c0.23-0.69,0.42-1.38,0.6-2.05c0.17-0.68,0.34-1.34,0.49-2h1.17
		c-0.14,0.66-0.29,1.3-0.44,1.91c-0.16,0.62-0.33,1.21-0.52,1.78h4.63c0.81,0,1.38,0.21,1.69,0.62
		C50.77,57.13,50.86,57.75,50.7,58.56z"/>
	<path class="st1" d="M67.7,67.64v4.6c0,0.36-0.04,0.72-0.12,1.05c-0.08,0.34-0.21,0.63-0.4,0.87c-0.43,0.52-1.12,0.78-2.05,0.78
		h-3.46l-0.49-1.09h4.11c0.29,0,0.57-0.1,0.83-0.31c0.26-0.21,0.39-0.49,0.39-0.83v-5.07H55.82v-1.01h10.69v-5.33h-9.05v-1.01h9.05
		V54.9c-1.58,0.16-3.13,0.29-4.67,0.4c-1.53,0.11-2.93,0.19-4.17,0.22v-1.01c1.44-0.05,3.01-0.14,4.72-0.26
		c1.71-0.12,3.41-0.28,5.12-0.47c1.71-0.19,3.35-0.4,4.93-0.62c1.58-0.22,2.95-0.47,4.11-0.73v1.04c-0.47,0.1-1.03,0.22-1.68,0.34
		s-1.36,0.24-2.12,0.35c-0.76,0.11-1.57,0.22-2.42,0.33c-0.85,0.1-1.73,0.2-2.63,0.29v5.51h9.33v1.01H67.7v5.33h10.66v1.01H67.7z"/>
	<path class="st1" d="M84.01,71.51c-0.19,1.28-0.39,2.43-0.6,3.46h-1.09c0.14-0.55,0.26-1.14,0.38-1.75
		c0.11-0.62,0.21-1.24,0.3-1.86s0.16-1.24,0.21-1.86c0.05-0.62,0.08-1.19,0.08-1.73h1.07C84.31,68.98,84.2,70.23,84.01,71.51z
		 M89.41,66.73c-0.12-0.19-0.22-0.37-0.3-0.53c-0.08-0.16-0.16-0.34-0.25-0.53l-0.57,0.86h-4.86c-0.26,0-0.47-0.05-0.62-0.16
		c-0.16-0.1-0.26-0.23-0.31-0.39c-0.04-0.14-0.04-0.29,0-0.44c0.03-0.16,0.12-0.3,0.26-0.44c0.73-0.85,1.43-1.72,2.12-2.6
		c0.68-0.88,1.33-1.78,1.94-2.68h-3.56c-0.24,0-0.43-0.05-0.57-0.16c-0.14-0.1-0.23-0.22-0.29-0.36c-0.07-0.16-0.09-0.33-0.06-0.51
		c0.03-0.18,0.09-0.33,0.19-0.46c0.83-0.97,1.63-1.93,2.4-2.89c0.77-0.95,1.48-1.95,2.12-2.99h1.43c-0.88,1.2-1.72,2.3-2.5,3.31
		c-0.78,1.01-1.6,2.04-2.47,3.08h3.95c0.66-0.94,1.17-1.73,1.53-2.39h1.35c-0.52,0.81-1.03,1.6-1.53,2.35
		c-0.5,0.75-1.02,1.5-1.55,2.24c-0.53,0.74-1.08,1.48-1.65,2.22c-0.57,0.75-1.19,1.51-1.85,2.29h5.04
		c-0.26-0.55-0.49-1.11-0.68-1.68s-0.37-1.17-0.55-1.81h1.04c0.21,0.83,0.46,1.62,0.77,2.35c0.3,0.74,0.66,1.5,1.08,2.3H89.41z
		 M86.14,74.97c-0.1-1.09-0.2-2.28-0.29-3.56c-0.09-1.28-0.14-2.5-0.16-3.64h1.04c0.03,2.31,0.19,4.71,0.47,7.2H86.14z M89.13,73.98
		c-0.09-0.54-0.17-1.05-0.23-1.55c-0.07-0.49-0.13-0.99-0.2-1.48c-0.06-0.49-0.11-1-0.16-1.52c-0.04-0.52-0.07-1.07-0.09-1.66h1.07
		c0,0.52,0.02,1.03,0.05,1.52c0.03,0.49,0.08,0.99,0.13,1.48c0.05,0.49,0.12,1,0.21,1.52c0.09,0.52,0.19,1.08,0.31,1.69H89.13z
		 M94.63,73.77c-0.74,0.47-1.47,0.86-2.2,1.17h-2.11c0.95-0.43,1.81-0.86,2.57-1.27c0.76-0.42,1.44-0.84,2.03-1.27h1.61
		C96,72.85,95.36,73.31,94.63,73.77z M98.41,54.56v1.64h6.03v0.86H91.31V56.2h5.95v-1.64h-6.92V53.7h6.92v-1.3h1.14v1.3h6.86v0.86
		H98.41z M104.31,62.26c-0.33,0.29-0.77,0.44-1.33,0.44H92.64c-0.54,0-0.98-0.16-1.33-0.47c-0.31-0.31-0.47-0.7-0.47-1.17v-1.04
		c0-0.49,0.18-0.88,0.55-1.2c0.33-0.28,0.75-0.42,1.25-0.42h10.35c0.52,0,0.95,0.15,1.3,0.44c0.31,0.31,0.47,0.7,0.47,1.17v1.04
		C104.75,61.56,104.61,61.96,104.31,62.26z M103.3,71.41c-0.36,0.33-0.88,0.49-1.53,0.49h-7.88c-0.73,0-1.26-0.16-1.59-0.49
		c-0.36-0.35-0.55-0.87-0.55-1.56v-4.06c0-0.59,0.16-1.05,0.49-1.38c0.35-0.38,0.88-0.57,1.59-0.57h7.93c0.66,0,1.16,0.16,1.51,0.47
		c0.36,0.35,0.55,0.85,0.55,1.51v4.13C103.82,70.59,103.64,71.08,103.3,71.41z M95.19,59.21h-2.5c-0.23,0-0.4,0.08-0.53,0.23
		c-0.13,0.16-0.19,0.36-0.19,0.6v1.04c0,0.23,0.07,0.42,0.21,0.57c0.14,0.16,0.31,0.23,0.52,0.23h2.5V59.21z M102.41,64.99
		c-0.17-0.17-0.39-0.26-0.65-0.26h-7.93c-0.35,0-0.58,0.11-0.72,0.33c-0.13,0.22-0.19,0.46-0.19,0.74v0.49h9.75v-0.57
		C102.67,65.4,102.59,65.16,102.41,64.99z M102.67,67.09h-9.75v1.51h9.75V67.09z M102.67,69.41h-9.75v0.57
		c0,0.69,0.34,1.04,1.01,1.04h7.83c0.31,0,0.54-0.09,0.69-0.27c0.15-0.18,0.22-0.43,0.22-0.74V69.41z M99.4,59.21h-3.15v2.68h3.15
		V59.21z M103.27,74.94c-0.26-0.12-0.56-0.28-0.9-0.48s-0.69-0.42-1.05-0.65c-0.36-0.23-0.72-0.47-1.07-0.71
		c-0.35-0.24-0.65-0.48-0.91-0.7h1.69c0.29,0.21,0.63,0.43,1.01,0.68c0.38,0.24,0.78,0.48,1.18,0.7c0.41,0.23,0.81,0.44,1.22,0.65
		c0.41,0.21,0.78,0.38,1.13,0.52H103.27z M103.66,60.05c0-0.24-0.07-0.44-0.2-0.6c-0.13-0.16-0.31-0.23-0.53-0.23h-2.5v2.68h2.5
		c0.48,0,0.73-0.27,0.73-0.81V60.05z"/>
	<path class="st1" d="M131.4,62.1c-0.23,0.24-0.57,0.36-1.04,0.36h-2.03l-0.31-0.81h2.08c0.12,0,0.24-0.05,0.35-0.16
		c0.11-0.1,0.17-0.23,0.17-0.36v-0.31c0-0.16-0.04-0.29-0.13-0.39c-0.09-0.1-0.22-0.16-0.39-0.16h-5.59v2.73h3.41
		c0.75,0,1.33,0.21,1.74,0.62c0.38,0.4,0.57,1,0.57,1.82v4.32c0,0.76-0.17,1.33-0.52,1.69c-0.4,0.4-1.01,0.6-1.82,0.6h-13.57
		c-0.88,0-1.51-0.24-1.87-0.73c-0.29-0.38-0.44-0.9-0.44-1.56v-4.32c0-0.69,0.15-1.25,0.44-1.66c0.19-0.24,0.44-0.43,0.74-0.57
		s0.68-0.21,1.13-0.21h9v-2.73h-6.03c-0.5,0.52-1.21,1.02-2.11,1.51c-0.9,0.49-2.09,0.96-3.56,1.43h-2.52
		c1.63-0.52,2.97-1.01,4.03-1.48c1.06-0.47,1.91-0.95,2.55-1.46h-3.46c-0.56,0-0.96-0.14-1.22-0.42c-0.23-0.26-0.3-0.61-0.23-1.07
		l0.18-0.96c0.07-0.38,0.26-0.68,0.57-0.91c0.29-0.17,0.66-0.26,1.09-0.26h4.81v-1.87h-7.05v-0.81h7.05v-1.56h1.2v1.56h4.71v-1.56
		h1.2v1.56h4.63c0.61,0,1.05,0.15,1.33,0.44c0.24,0.24,0.36,0.59,0.36,1.04v0.49c0,0.31-0.04,0.56-0.12,0.75
		c-0.08,0.19-0.2,0.35-0.35,0.47c-0.26,0.19-0.67,0.29-1.22,0.29h-4.63v2h5.59c0.23,0,0.44,0.02,0.64,0.07
		c0.2,0.04,0.38,0.12,0.53,0.22c0.31,0.19,0.47,0.53,0.47,1.01v0.42C131.74,61.57,131.63,61.88,131.4,62.1z M117.42,73.4
		c-0.45,0.23-0.91,0.45-1.38,0.65c-0.47,0.2-0.97,0.38-1.5,0.53c-0.53,0.16-1.12,0.29-1.78,0.42h-3.22
		c0.88-0.23,1.67-0.43,2.37-0.61c0.69-0.18,1.32-0.36,1.88-0.53c0.56-0.17,1.08-0.35,1.56-0.55c0.48-0.19,0.94-0.42,1.39-0.68h2.08
		C118.33,72.91,117.87,73.16,117.42,73.4z M112.81,57.47c-0.21,0-0.37,0.04-0.49,0.12c-0.12,0.08-0.2,0.22-0.23,0.43l-0.13,0.81
		c-0.03,0.17-0.01,0.33,0.08,0.46c0.09,0.13,0.23,0.2,0.42,0.2h4.08c0.48-0.59,0.77-1.26,0.86-2H112.81z M129.04,64.99
		c0-0.33-0.11-0.61-0.32-0.83c-0.22-0.22-0.54-0.34-0.98-0.34H114.5c-0.45,0-0.78,0.11-0.99,0.34c-0.21,0.23-0.31,0.51-0.31,0.86
		v0.75h15.83V64.99z M129.04,66.55H113.2v1.98h15.83V66.55z M113.2,69.28v0.75c0,0.36,0.12,0.66,0.35,0.88
		c0.23,0.22,0.55,0.34,0.95,0.34h13.23c0.42,0,0.74-0.12,0.96-0.35c0.23-0.23,0.34-0.52,0.34-0.87v-0.75H113.2z M123.32,57.47h-4.73
		c-0.03,0.35-0.1,0.68-0.21,1.01c-0.1,0.33-0.25,0.66-0.44,0.99h5.38V57.47z M123.32,54.79h-4.71v1.87h4.71V54.79z M129.97,75
		c-1.02-0.23-2.02-0.52-2.98-0.88c-0.96-0.36-1.91-0.86-2.85-1.48h2.05c0.5,0.31,1.04,0.58,1.62,0.79c0.58,0.22,1.17,0.41,1.77,0.58
		c0.6,0.17,1.19,0.33,1.78,0.48s1.15,0.32,1.69,0.51H129.97z M129.71,55.44c0-0.43-0.23-0.65-0.68-0.65h-4.52v1.87h4.52
		c0.19,0,0.35-0.06,0.48-0.18c0.13-0.12,0.2-0.28,0.2-0.47V55.44z"/>
	<path class="st1" d="M149.34,65.9c-0.66-0.71-1.33-1.39-2.03-2.05c-0.69-0.66-1.5-1.38-2.42-2.16h1.72
		c0.38,0.28,0.75,0.56,1.09,0.86c0.35,0.29,0.7,0.61,1.05,0.94c0.35,0.33,0.72,0.69,1.08,1.09c0.36,0.4,0.75,0.84,1.14,1.33H149.34z
		"/>
	<path class="st1" d="M175.99,65.04v7.72c0,0.35,0.1,0.64,0.31,0.88s0.46,0.36,0.75,0.36h3.67l-0.7,1.01h-3.02
		c-0.68,0-1.22-0.25-1.64-0.75c-0.38-0.43-0.57-0.97-0.57-1.61v-7.62h-2.16v3.3c0,0.47-0.17,0.82-0.49,1.07
		c-0.28,0.23-0.61,0.34-0.99,0.34h-1.2l-0.42-0.96h1.43c0.14,0,0.26-0.05,0.36-0.14c0.1-0.09,0.16-0.24,0.16-0.43v-9.96
		c0-0.85-0.45-1.27-1.35-1.27h-1.12v18.04h-1.2V56.98h-1.22c-0.4,0-0.7,0.13-0.91,0.4s-0.31,0.58-0.31,0.92v11.47h-1.14V58.59
		c0-0.73,0.21-1.33,0.62-1.79c0.45-0.54,1.1-0.81,1.95-0.81h1.01V52.4h1.2v3.59h1.07c0.88,0,1.54,0.23,1.98,0.7
		c0.38,0.43,0.57,1.05,0.57,1.85v5.49h2.16v-8.89c0-0.33,0.06-0.64,0.18-0.92s0.29-0.54,0.49-0.77c0.38-0.43,0.88-0.65,1.51-0.65
		h8.4v1.01h-8.29c-0.29,0-0.55,0.12-0.77,0.36s-0.33,0.52-0.33,0.83v1.53h8.92v1.01h-8.92v2.73h8.94v1.01h-8.94v2.73h10.37v1.01
		H175.99z M185.25,74.94c-0.83-0.68-1.57-1.33-2.22-1.98c-0.65-0.64-1.27-1.31-1.85-2.01c-0.58-0.7-1.15-1.45-1.7-2.24
		s-1.14-1.67-1.77-2.64h1.33c0.43,0.66,0.84,1.26,1.22,1.82c0.38,0.55,0.77,1.08,1.17,1.59c0.55-0.52,1.05-1.04,1.5-1.56
		c0.44-0.52,0.84-1.07,1.18-1.66h1.35c-0.26,0.42-0.52,0.8-0.78,1.16s-0.52,0.69-0.79,1.01c-0.27,0.32-0.55,0.64-0.83,0.95
		c-0.29,0.31-0.6,0.63-0.95,0.96c0.66,0.8,1.37,1.56,2.13,2.29c0.76,0.73,1.66,1.5,2.7,2.31H185.25z"/>
	<path class="st1" d="M197.57,54.74c0.23,0.4,0.52,0.83,0.88,1.3c0.36,0.47,0.78,0.94,1.25,1.4h-1.46c-0.45-0.42-0.84-0.85-1.16-1.3
		c-0.32-0.45-0.6-0.92-0.84-1.4h-1.87c-0.36,0.5-0.75,0.98-1.16,1.44c-0.41,0.46-0.81,0.88-1.21,1.26h-1.48
		c0.81-0.73,1.57-1.54,2.26-2.43s1.27-1.75,1.74-2.59h1.33c-0.14,0.24-0.28,0.49-0.42,0.73c-0.14,0.24-0.29,0.49-0.47,0.73h7.1v0.86
		H197.57z M211.69,62.85v-1.69c0-0.31-0.1-0.59-0.31-0.83c-0.21-0.24-0.5-0.36-0.88-0.36h-16.95c-0.35,0-0.63,0.11-0.84,0.33
		s-0.33,0.48-0.33,0.79v1.77h-1.2v-1.61c0-0.62,0.17-1.13,0.52-1.51c0.43-0.47,1.03-0.7,1.79-0.7h8.09
		c-0.17-0.22-0.33-0.46-0.46-0.71c-0.13-0.25-0.26-0.52-0.38-0.82h1.3c0.09,0.24,0.21,0.49,0.36,0.73c0.16,0.24,0.35,0.51,0.57,0.81
		h7.46c0.75,0,1.33,0.18,1.74,0.55c0.47,0.38,0.7,0.94,0.7,1.66v1.61H211.69z M210.99,74.45c-0.38,0.36-0.96,0.55-1.74,0.55h-13.29
		c-0.9,0-1.56-0.23-1.98-0.68c-0.33-0.38-0.49-0.91-0.49-1.59v-8.42c0-0.81,0.23-1.41,0.7-1.79c0.42-0.36,1.01-0.55,1.79-0.55h11.96
		c0.76,0,1.34,0.17,1.74,0.52c0.38,0.33,0.57,0.86,0.57,1.59v0.91c0,0.64-0.2,1.14-0.6,1.48c-0.38,0.36-0.95,0.55-1.72,0.55h-13.26
		v2.08h14.56c0.73,0,1.29,0.17,1.69,0.52c0.43,0.38,0.65,0.95,0.65,1.69v1.46C211.59,73.49,211.39,74.05,210.99,74.45z M209.07,64
		c0-0.75-0.42-1.12-1.25-1.12h-11.75c-0.47,0-0.82,0.13-1.04,0.38c-0.23,0.25-0.34,0.55-0.34,0.9v1.95h13.21
		c0.4,0,0.69-0.07,0.88-0.22c0.19-0.15,0.29-0.42,0.29-0.82V64z M210.39,71.17c0-0.4-0.12-0.69-0.35-0.88
		c-0.23-0.19-0.51-0.29-0.82-0.29h-14.53v2.86c0,0.4,0.11,0.7,0.33,0.91c0.22,0.21,0.5,0.31,0.84,0.31h13.34
		c0.33,0,0.61-0.1,0.84-0.29c0.23-0.19,0.35-0.49,0.35-0.88V71.17z M207.95,54.69c0.24,0.43,0.55,0.89,0.92,1.38
		c0.37,0.49,0.78,0.95,1.24,1.38h-1.46c-0.38-0.35-0.75-0.77-1.11-1.26s-0.65-0.99-0.9-1.5h-1.85c-0.36,0.5-0.74,0.97-1.12,1.39
		c-0.38,0.42-0.75,0.79-1.12,1.1h-1.53c0.83-0.69,1.57-1.46,2.21-2.31c0.64-0.85,1.19-1.66,1.64-2.44h1.35
		c-0.26,0.47-0.55,0.94-0.86,1.4h7.8v0.86H207.95z"/>
	<path class="st1" d="M239.36,62.1c-0.23,0.24-0.57,0.36-1.04,0.36h-2.03l-0.31-0.81h2.08c0.12,0,0.24-0.05,0.35-0.16
		c0.11-0.1,0.17-0.23,0.17-0.36v-0.31c0-0.16-0.04-0.29-0.13-0.39c-0.09-0.1-0.22-0.16-0.39-0.16h-5.59v2.73h3.41
		c0.75,0,1.33,0.21,1.74,0.62c0.38,0.4,0.57,1,0.57,1.82v4.32c0,0.76-0.17,1.33-0.52,1.69c-0.4,0.4-1.01,0.6-1.82,0.6h-13.57
		c-0.88,0-1.51-0.24-1.87-0.73c-0.29-0.38-0.44-0.9-0.44-1.56v-4.32c0-0.69,0.15-1.25,0.44-1.66c0.19-0.24,0.44-0.43,0.74-0.57
		c0.3-0.14,0.68-0.21,1.13-0.21h9v-2.73h-6.03c-0.5,0.52-1.21,1.02-2.11,1.51s-2.09,0.96-3.56,1.43h-2.52
		c1.63-0.52,2.97-1.01,4.03-1.48c1.06-0.47,1.91-0.95,2.55-1.46h-3.46c-0.55,0-0.96-0.14-1.22-0.42c-0.23-0.26-0.3-0.61-0.23-1.07
		l0.18-0.96c0.07-0.38,0.26-0.68,0.57-0.91c0.29-0.17,0.66-0.26,1.09-0.26h4.81v-1.87h-7.05v-0.81h7.05v-1.56h1.2v1.56h4.71v-1.56
		h1.2v1.56h4.63c0.61,0,1.05,0.15,1.33,0.44c0.24,0.24,0.36,0.59,0.36,1.04v0.49c0,0.31-0.04,0.56-0.12,0.75s-0.2,0.35-0.35,0.47
		c-0.26,0.19-0.67,0.29-1.22,0.29h-4.63v2h5.59c0.23,0,0.44,0.02,0.64,0.07c0.2,0.04,0.38,0.12,0.53,0.22
		c0.31,0.19,0.47,0.53,0.47,1.01v0.42C239.69,61.57,239.58,61.88,239.36,62.1z M225.37,73.4c-0.45,0.23-0.91,0.45-1.38,0.65
		s-0.97,0.38-1.5,0.53c-0.53,0.16-1.12,0.29-1.78,0.42h-3.22c0.88-0.23,1.67-0.43,2.37-0.61c0.69-0.18,1.32-0.36,1.88-0.53
		c0.56-0.17,1.08-0.35,1.56-0.55c0.48-0.19,0.94-0.42,1.39-0.68h2.08C226.29,72.91,225.82,73.16,225.37,73.4z M220.77,57.47
		c-0.21,0-0.37,0.04-0.49,0.12c-0.12,0.08-0.2,0.22-0.23,0.43l-0.13,0.81c-0.04,0.17-0.01,0.33,0.08,0.46
		c0.09,0.13,0.22,0.2,0.42,0.2h4.08c0.48-0.59,0.77-1.26,0.86-2H220.77z M236.99,64.99c0-0.33-0.11-0.61-0.33-0.83
		c-0.22-0.22-0.54-0.34-0.97-0.34h-13.23c-0.45,0-0.78,0.11-0.99,0.34c-0.21,0.23-0.31,0.51-0.31,0.86v0.75h15.83V64.99z
		 M236.99,66.55h-15.83v1.98h15.83V66.55z M221.16,69.28v0.75c0,0.36,0.12,0.66,0.35,0.88c0.23,0.22,0.55,0.34,0.95,0.34h13.23
		c0.42,0,0.74-0.12,0.96-0.35c0.22-0.23,0.34-0.52,0.34-0.87v-0.75H221.16z M231.27,57.47h-4.73c-0.04,0.35-0.1,0.68-0.21,1.01
		c-0.1,0.33-0.25,0.66-0.44,0.99h5.38V57.47z M231.27,54.79h-4.71v1.87h4.71V54.79z M237.93,75c-1.02-0.23-2.01-0.52-2.98-0.88
		c-0.96-0.36-1.91-0.86-2.85-1.48h2.05c0.5,0.31,1.04,0.58,1.62,0.79c0.58,0.22,1.17,0.41,1.77,0.58c0.6,0.17,1.19,0.33,1.78,0.48
		c0.59,0.15,1.15,0.32,1.69,0.51H237.93z M237.67,55.44c0-0.43-0.23-0.65-0.68-0.65h-4.52v1.87h4.52c0.19,0,0.35-0.06,0.48-0.18
		c0.13-0.12,0.2-0.28,0.2-0.47V55.44z"/>
</g>
<g class="st0">
	<path class="st1" d="M260.78,70.52v2.37c0,0.61-0.21,1.12-0.62,1.53c-0.21,0.23-0.46,0.39-0.75,0.51
		c-0.29,0.11-0.62,0.17-0.96,0.17h-5.67l-0.88-2.31h4.63c0.14,0,0.26-0.06,0.35-0.17c0.09-0.11,0.14-0.23,0.14-0.35v-1.74h-9.65
		v-2.16h9.65V67.9c0-0.26,0.12-0.43,0.36-0.52c0.38-0.12,0.84-0.27,1.39-0.46c0.55-0.18,1.02-0.35,1.42-0.51h-10.97v-2.08h17.32
		c0.24,0,0.45,0.07,0.62,0.22c0.17,0.15,0.3,0.32,0.39,0.51c0.09,0.22,0.09,0.45,0.03,0.66c-0.07,0.22-0.23,0.39-0.47,0.51
		c-0.42,0.19-0.87,0.38-1.36,0.57c-0.49,0.19-1,0.38-1.52,0.56c-0.52,0.18-1.04,0.36-1.56,0.52c-0.52,0.17-1.01,0.33-1.48,0.48h9.15
		v2.16H260.78z M247.57,56.15v-2.24h9.02c-0.05-0.1-0.11-0.23-0.18-0.38s-0.14-0.3-0.22-0.47c-0.08-0.17-0.16-0.33-0.23-0.48
		s-0.14-0.29-0.2-0.42h4.39c0.12,0.29,0.25,0.59,0.39,0.88c0.14,0.29,0.3,0.58,0.49,0.86h8.94v2.24H247.57z M267.96,62.72
		c-0.35,0.33-0.87,0.49-1.56,0.49h-15.34c-0.68,0-1.2-0.21-1.56-0.62c-0.33-0.38-0.49-0.89-0.49-1.53V58.9c0-0.5,0.16-0.9,0.49-1.2
		c0.19-0.17,0.42-0.3,0.68-0.38s0.54-0.12,0.83-0.12h15.47c0.59,0,1.07,0.18,1.43,0.55c0.38,0.38,0.57,0.88,0.57,1.51v2.08
		C268.48,61.95,268.3,62.41,267.96,62.72z M264.5,59.73c0-0.1-0.04-0.19-0.13-0.26c-0.09-0.07-0.18-0.1-0.29-0.1h-10.76
		c-0.09,0-0.17,0.04-0.26,0.12s-0.13,0.16-0.13,0.25v0.88c0,0.14,0.04,0.24,0.13,0.31c0.09,0.07,0.19,0.1,0.31,0.1H264
		c0.12,0,0.23-0.04,0.34-0.12c0.1-0.08,0.16-0.19,0.16-0.33V59.73z"/>
	<path class="st1" d="M280.03,56.77c-0.48,1.51-1.03,2.99-1.65,4.45h1.22v13.96h-3.9V62.31h-1.95c1.51-3.26,2.66-6.63,3.46-10.11
		h4.11C280.94,53.74,280.51,55.26,280.03,56.77z M294.19,67.9c-0.33-0.54-0.61-1.07-0.84-1.59c-0.23-0.52-0.45-1.07-0.64-1.64h1.25
		v-0.73c0-0.29-0.16-0.44-0.47-0.44h-2.05c0.14,0.31,0.31,0.63,0.51,0.96c0.2,0.33,0.39,0.63,0.58,0.91h-3.17
		c-0.19-0.28-0.38-0.58-0.56-0.92c-0.18-0.34-0.33-0.65-0.46-0.95h-3.98c-0.14,0-0.26,0.04-0.35,0.13c-0.1,0.09-0.14,0.2-0.14,0.34
		v0.78h1.17c-0.24,0.55-0.51,1.09-0.79,1.61c-0.29,0.52-0.61,1.03-0.98,1.53h-3.28c0.29-0.38,0.58-0.78,0.86-1.21
		s0.52-0.85,0.73-1.26h-1.07v-1.9c0-0.47,0.15-0.87,0.44-1.2c0.35-0.35,0.76-0.53,1.25-0.55v-4.68c0-0.59,0.16-1.05,0.47-1.38
		c0.31-0.4,0.8-0.6,1.46-0.6h2.34c0.07-0.14,0.13-0.29,0.2-0.44c0.06-0.16,0.12-0.31,0.17-0.47h-5.25v-1.79h15.52v1.79h-6.5
		c-0.1,0.33-0.23,0.63-0.39,0.91h3.64c0.24,0,0.49,0.05,0.73,0.14c0.24,0.09,0.45,0.24,0.62,0.43c0.14,0.14,0.25,0.29,0.32,0.47
		c0.08,0.17,0.12,0.36,0.12,0.57v4.99c0.24,0.05,0.47,0.13,0.69,0.23c0.22,0.1,0.39,0.24,0.53,0.42c0.26,0.28,0.39,0.63,0.39,1.07
		v1.9h-1.25c0.31,0.85,0.74,1.7,1.27,2.55H294.19z M291.02,75.15c-0.29-0.12-0.59-0.26-0.9-0.4c-0.3-0.15-0.6-0.3-0.9-0.46
		c-0.36,0.17-0.73,0.33-1.09,0.48c-0.36,0.15-0.74,0.27-1.12,0.38h-6.94c2.06-0.73,4.09-1.53,6.08-2.42
		c-0.19-0.09-0.38-0.19-0.56-0.31c-0.18-0.12-0.37-0.25-0.56-0.39c-0.07,0.09-0.15,0.17-0.23,0.26s-0.17,0.17-0.26,0.26h-4.26
		c0.78-0.76,1.54-1.57,2.29-2.43s1.44-1.73,2.08-2.61h1.43c-0.19-0.14-0.35-0.32-0.47-0.53c-0.12-0.22-0.18-0.45-0.18-0.69v-2.03
		h3.04v1.53c0,0.1,0.05,0.2,0.16,0.3c0.1,0.1,0.2,0.14,0.29,0.14h4.13l-0.55,1.59h-4.13c-0.09,0.14-0.18,0.28-0.29,0.43
		c-0.1,0.15-0.22,0.28-0.34,0.4h6.5c0.24,0,0.45,0.07,0.64,0.22c0.18,0.15,0.32,0.33,0.4,0.53c0.09,0.23,0.12,0.46,0.09,0.69
		c-0.03,0.23-0.13,0.45-0.33,0.64c-0.43,0.42-0.89,0.78-1.37,1.09c-0.48,0.31-0.97,0.62-1.5,0.91c0.85,0.45,1.72,0.88,2.6,1.27
		c0.88,0.4,1.79,0.78,2.7,1.14H291.02z M292.08,57.24c0-0.09-0.05-0.17-0.14-0.26c-0.09-0.09-0.19-0.13-0.27-0.13h-5.38
		c-0.1,0-0.21,0.04-0.31,0.1c-0.1,0.07-0.16,0.17-0.16,0.29v0.36h6.27V57.24z M292.08,58.88h-6.27v0.7h6.27V58.88z M292.08,60.98
		h-6.27v0.81h6.27V60.98z M286.65,70.16c-0.09,0.14-0.18,0.27-0.29,0.39c-0.1,0.12-0.21,0.24-0.31,0.36h2.55
		c0.09,0.05,0.19,0.11,0.3,0.17c0.11,0.06,0.21,0.11,0.3,0.14c0.29-0.14,0.6-0.3,0.92-0.49c0.32-0.19,0.62-0.38,0.9-0.57H286.65z"/>
	<path class="st1" d="M305.93,72.14c-0.3,0.88-0.65,1.76-1.05,2.63H301c0.4-0.85,0.77-1.72,1.11-2.61c0.34-0.89,0.62-1.8,0.84-2.72
		h3.8C306.5,70.35,306.23,71.25,305.93,72.14z M320.06,68.5c-0.14-0.14-0.27-0.29-0.4-0.44c-0.13-0.16-0.25-0.31-0.35-0.47
		c-2.98,0.14-5.97,0.25-8.96,0.33c-2.99,0.08-5.97,0.12-8.93,0.12v-2.24c1.59,0.04,3.18,0.05,4.75,0.05c1.57,0,3.14-0.02,4.72-0.05
		v-1.4h-6.03c-0.31,0-0.62-0.06-0.91-0.18c-0.29-0.12-0.55-0.31-0.75-0.57c-0.33-0.38-0.49-0.91-0.49-1.59v-3.28
		c0-0.29,0.05-0.56,0.16-0.79c0.1-0.23,0.25-0.45,0.44-0.64c0.45-0.42,0.99-0.62,1.61-0.62h5.98v-1.09h-9.39V53.6h9.39v-1.38h3.8
		v1.38h9.41v2.03h-9.41v1.09h6.01c0.71,0,1.28,0.22,1.72,0.65c0.38,0.42,0.57,0.95,0.57,1.61v3.17c0,0.64-0.2,1.16-0.6,1.56
		c-0.45,0.45-1.04,0.68-1.77,0.68h-5.93v1.33c0.19,0,0.43-0.01,0.71-0.03c0.29-0.02,0.58-0.03,0.88-0.04c0.3-0.01,0.6-0.02,0.9-0.04
		s0.55-0.03,0.78-0.03c-0.17-0.26-0.29-0.49-0.36-0.68h4.39c0.36,0.61,0.75,1.21,1.14,1.82c0.4,0.61,0.86,1.2,1.38,1.77H320.06z
		 M310.88,58.59h-3.95c-0.1,0-0.21,0.04-0.32,0.12c-0.11,0.08-0.17,0.18-0.17,0.3v0.6h4.45V58.59z M310.88,61.48h-4.45v0.6
		c0,0.09,0.05,0.18,0.14,0.29c0.09,0.1,0.19,0.16,0.27,0.16h4.03V61.48z M318.71,75.18h-8.97c-0.4,0-0.74-0.07-1.03-0.22
		s-0.52-0.34-0.71-0.58c-0.35-0.49-0.52-1.09-0.52-1.82v-3.77h3.69v3.59c0,0.16,0.06,0.3,0.17,0.43c0.11,0.13,0.26,0.2,0.43,0.2
		h7.57L318.71,75.18z M313.38,72.03c-0.26-0.57-0.49-1.15-0.69-1.74c-0.2-0.59-0.38-1.19-0.53-1.79h3.77
		c0.31,1.2,0.76,2.38,1.35,3.54H313.38z M319.15,58.98c0-0.09-0.05-0.17-0.14-0.26c-0.1-0.09-0.19-0.13-0.27-0.13h-4.06v1.01h4.47
		V58.98z M319.15,61.48h-4.47v1.04h4c0.1,0,0.21-0.04,0.31-0.12c0.1-0.08,0.16-0.17,0.16-0.27V61.48z M320.81,74.74
		c-0.43-0.85-0.82-1.72-1.14-2.6c-0.33-0.88-0.62-1.79-0.88-2.73h3.77c0.26,0.92,0.57,1.82,0.94,2.7c0.36,0.88,0.76,1.76,1.2,2.63
		H320.81z"/>
</g>
</svg>
