<?xml version="1.0" encoding="utf-8"?>
<!-- Generator: Adobe Illustrator 24.0.1, SVG Export Plug-In . SVG Version: 6.00 Build 0)  -->
<svg version="1.1" id="圖層_1" xmlns="http://www.w3.org/2000/svg" xmlns:xlink="http://www.w3.org/1999/xlink" x="0px" y="0px"
	 viewBox="0 0 283 79.25" style="enable-background:new 0 0 283 79.25;" xml:space="preserve">
<style type="text/css">
	.st0{enable-background:new    ;}
	.st1{fill:#0F90C9;}
</style>
<g class="st0">
	<path class="st1" d="M19.82,23.19c-0.14,2.34-0.34,4.65-0.58,6.93h-2.38c0.26-2.33,0.46-4.65,0.58-6.97
		c0.12-2.32,0.19-4.67,0.22-7.07h2.27C20,18.48,19.97,20.85,19.82,23.19z M25.33,14.06v20.41h-4.61V14.06h-3.49v-3.24h3.49V7.04
		c-0.48,0.07-0.97,0.13-1.46,0.18c-0.49,0.05-0.98,0.08-1.46,0.11v-3.2c1.75-0.17,3.5-0.4,5.24-0.7c1.74-0.3,3.44-0.65,5.09-1.06
		v3.31c-0.96,0.26-1.9,0.47-2.81,0.61v4.54h3.24v3.24H25.33z M31.34,34.04h-4.46c0.41-0.7,0.75-1.45,1.03-2.25s0.52-1.61,0.74-2.43
		h-1.91c-0.19-2.23-0.35-4.45-0.47-6.66c-0.12-2.21-0.16-4.42-0.11-6.62h2.09c0,2.04,0.05,4.08,0.16,6.12
		c0.11,2.04,0.28,4.08,0.52,6.12h4.1C32.7,30.31,32.14,32.22,31.34,34.04z M29.11,16.73v-2.16h7.24v-1.69h-6.66v-2.16H47.9v2.16
		h-6.59v1.69h7.52v2.16H29.11z M47.51,23.39v0.94c0,0.62-0.2,1.14-0.61,1.55c-0.46,0.46-1.02,0.68-1.69,0.68h-14.8V24.5h11.7
		c0.12,0,0.25-0.06,0.4-0.18s0.22-0.24,0.22-0.36v-0.58H29.18v-2.27h13.54v-0.68c0-0.1-0.05-0.21-0.14-0.34
		c-0.1-0.13-0.2-0.2-0.32-0.2H30.37v-2.09h14.98c0.67,0,1.22,0.25,1.66,0.76c0.34,0.41,0.5,0.92,0.5,1.55v1.01h1.55v2.27H47.51z
		 M39.05,5.85c-3.17,0.17-6.37,0.25-9.61,0.25V3.62c3.53-0.05,6.9-0.17,10.12-0.36c3.22-0.19,6.29-0.46,9.22-0.79v2.74
		C45.46,5.47,42.22,5.69,39.05,5.85z M30.84,9.99c-0.29-0.46-0.55-0.93-0.77-1.42C29.84,8.08,29.64,7.56,29.47,7h4.72
		c0.19,0.53,0.41,1.04,0.65,1.53c0.24,0.49,0.49,0.98,0.76,1.46H30.84z M43.48,34.47h-7.24c-0.7,0-1.27-0.23-1.73-0.68
		c-0.53-0.48-0.79-1.1-0.79-1.87v-3.71h4.57v3.2c0,0.12,0.07,0.25,0.2,0.38c0.13,0.13,0.26,0.2,0.38,0.2h5.22L43.48,34.47z
		 M36.92,9.99c-0.58-0.94-1.01-1.93-1.3-2.99h5.11c0.12,0.53,0.28,1.04,0.47,1.53c0.19,0.49,0.42,0.98,0.68,1.46H36.92z
		 M39.59,30.87c-0.22-0.53-0.41-1.08-0.59-1.66c-0.18-0.58-0.32-1.16-0.41-1.76h3.78c0.26,1.27,0.64,2.41,1.12,3.42H39.59z
		 M48.14,8.34c-0.23,0.58-0.51,1.13-0.85,1.66h-4.75c0.55-1.06,1.06-2.2,1.51-3.42h4.72C48.58,7.17,48.37,7.76,48.14,8.34z
		 M45.06,34c-0.34-0.91-0.63-1.84-0.88-2.79c-0.25-0.95-0.47-1.91-0.67-2.9h4.07c0.19,0.98,0.43,1.96,0.7,2.92
		c0.28,0.96,0.62,1.88,1.03,2.77H45.06z"/>
	<path class="st1" d="M59.87,9.13c-0.47,2.09-1.03,4.15-1.67,6.19h1.22v19.19H54.6V16.37h-1.8c0.77-2.21,1.46-4.45,2.07-6.71
		c0.61-2.27,1.09-4.57,1.42-6.89h4.82C60.76,4.92,60.34,7.04,59.87,9.13z M84.3,34.47H74.08c-1.42,0-2.89-0.26-4.43-0.79
		c-0.67-0.24-1.31-0.52-1.91-0.83c-0.6-0.31-1.14-0.67-1.62-1.08c-0.19,0.43-0.4,0.88-0.61,1.35c-0.22,0.47-0.46,0.93-0.72,1.39
		h-4.64c0.53-1.06,1.02-2.1,1.48-3.13c0.46-1.03,0.86-2.1,1.22-3.2c-1.39-2.25-2.32-4.67-2.77-7.24h3.2
		c0.05,0.36,0.15,0.78,0.31,1.26c0.16,0.48,0.32,0.89,0.49,1.22c0.19-0.74,0.33-1.52,0.41-2.34c0.08-0.82,0.16-1.6,0.23-2.34H63.2
		c-0.82,0-1.4-0.25-1.76-0.76c-0.31-0.5-0.34-1.15-0.07-1.94c0.5-1.42,1-2.87,1.48-4.37c0.48-1.5,0.91-2.97,1.3-4.41h-2.77v-3.1
		h5.36c0.48,0,0.88,0.11,1.21,0.32s0.57,0.49,0.74,0.83c0.14,0.29,0.23,0.6,0.25,0.94c0.02,0.34-0.01,0.67-0.11,1.01
		c-0.41,1.42-0.83,2.82-1.28,4.21c-0.44,1.39-0.89,2.78-1.35,4.18h0.68c0.7,0,1.26,0.22,1.69,0.65c0.38,0.41,0.55,0.96,0.5,1.66
		c-0.12,1.92-0.33,3.71-0.63,5.38c-0.3,1.67-0.71,3.43-1.24,5.27c0.43,0.43,0.94,0.81,1.51,1.13c0.58,0.32,1.19,0.59,1.84,0.81
		c0.7,0.24,1.42,0.41,2.16,0.52c0.74,0.11,1.44,0.16,2.09,0.16h10.48L84.3,34.47z M83.76,13.02v2.3c0,0.67-0.25,1.28-0.76,1.84
		c-0.19,0.19-0.41,0.35-0.65,0.49c-0.24,0.13-0.5,0.2-0.79,0.2h-2.95v1.91h5.36v2.95h-5.36v1.76h6.26v3.1h-6.26v2.52l-4.68,0.04
		v-2.56H69v-3.1h4.93V22.7H69.9v-2.95h4.03v-1.91h-4.1v-2.92h4.1v-1.91h-5.22v-2.99h5.22V8.16h-4.18V5.21h4.18V2.76h4.68v2.45h2.59
		c0.36,0,0.71,0.08,1.06,0.23c0.35,0.16,0.65,0.38,0.92,0.67c0.17,0.19,0.31,0.41,0.41,0.65c0.11,0.24,0.16,0.5,0.16,0.79v2.48h1.4
		v2.99H83.76z M80.16,8.73c0-0.12-0.07-0.25-0.2-0.38c-0.13-0.13-0.26-0.2-0.38-0.2h-0.97v1.87h1.55V8.73z M80.16,13.02h-1.55v1.91
		h0.94c0.14,0,0.28-0.07,0.41-0.2c0.13-0.13,0.2-0.26,0.2-0.38V13.02z"/>
	<path class="st1" d="M98.12,30.77c-0.98,0.41-1.99,0.8-3.02,1.17c-1.03,0.37-2.05,0.72-3.04,1.04c-1,0.32-1.9,0.57-2.72,0.74v-3.46
		c1.2-0.34,2.32-0.68,3.35-1.04v-10.4H90.1V15.5h2.59V7.26h-3.31V3.95h11.27v3.31H97.8v8.24h2.16v3.31H97.8v8.5
		c0.19-0.05,0.41-0.11,0.67-0.2s0.52-0.18,0.81-0.29s0.56-0.21,0.83-0.31c0.26-0.1,0.49-0.18,0.68-0.25v3.35
		C100,29.97,99.11,30.36,98.12,30.77z M100.64,34.33v-3.28h7.7v-3.71h-6.52v-3.24h6.52v-3.31h-3.38c-0.86,0-1.6-0.28-2.2-0.83
		c-0.31-0.31-0.56-0.69-0.74-1.13c-0.18-0.44-0.27-0.95-0.27-1.53V5.89c0-0.91,0.32-1.66,0.97-2.23c0.58-0.5,1.24-0.76,1.98-0.76
		h11.95c1.06,0,1.86,0.31,2.41,0.94c0.29,0.31,0.5,0.65,0.63,1.03c0.13,0.37,0.2,0.75,0.2,1.13v11.88c0,0.84-0.28,1.54-0.83,2.09
		c-0.26,0.26-0.58,0.47-0.94,0.61c-0.36,0.14-0.77,0.22-1.22,0.22h-3.49v3.31h6.52v3.24h-6.52v3.71h7.63v3.28H100.64z M108.35,6.11
		h-1.44c-0.19,0-0.37,0.07-0.52,0.22c-0.16,0.14-0.23,0.3-0.23,0.47v3.38h2.2V6.11z M108.35,13.41h-2.2v3.42
		c0,0.17,0.09,0.33,0.27,0.49c0.18,0.16,0.34,0.23,0.49,0.23h1.44V13.41z M115.58,6.93c0-0.24-0.08-0.44-0.25-0.59
		c-0.17-0.16-0.36-0.23-0.58-0.23h-1.33v4.07h2.16V6.93z M115.58,13.41h-2.16v4.14h1.44c0.19,0,0.36-0.07,0.5-0.2
		s0.22-0.27,0.22-0.41V13.41z"/>
	<path class="st1" d="M131.1,30.93c-0.29,1.16-0.64,2.32-1.04,3.47h-5.33c0.53-1.22,0.97-2.42,1.31-3.58
		c0.35-1.16,0.63-2.32,0.85-3.47h4.9C131.62,28.57,131.39,29.76,131.1,30.93z M137.9,25.26c-0.55,0.55-1.27,0.83-2.16,0.83h-6.98
		c-0.41,0-0.79-0.09-1.13-0.27c-0.35-0.18-0.65-0.41-0.92-0.7c-0.5-0.58-0.76-1.26-0.76-2.05V5.89c0-0.36,0.09-0.68,0.27-0.97
		c0.18-0.29,0.4-0.54,0.67-0.76c0.6-0.48,1.27-0.72,2.02-0.72h6.7c0.89,0,1.64,0.35,2.27,1.04c0.24,0.26,0.43,0.55,0.58,0.86
		s0.22,0.65,0.22,1.01v17.03C138.66,24.18,138.41,24.8,137.9,25.26z M133.76,7.29c0-0.19-0.07-0.35-0.2-0.49
		c-0.13-0.13-0.29-0.2-0.49-0.2h-1.76c-0.17,0-0.31,0.08-0.41,0.25s-0.16,0.31-0.16,0.43v2.59h3.02V7.29z M133.76,12.91h-3.02v3.6
		h3.02V12.91z M133.76,19.57h-3.02v2.63c0,0.24,0.07,0.44,0.22,0.59c0.14,0.16,0.31,0.23,0.5,0.23h1.66c0.43,0,0.65-0.24,0.65-0.72
		V19.57z M135.02,34.4c-0.53-1.1-0.94-2.25-1.22-3.44c-0.29-1.19-0.54-2.39-0.76-3.62h4.93c0.1,0.53,0.22,1.1,0.38,1.73
		c0.16,0.62,0.34,1.25,0.54,1.87c0.2,0.62,0.42,1.24,0.65,1.84c0.23,0.6,0.46,1.14,0.7,1.62H135.02z M146.96,17.73
		c-0.18,1.42-0.4,2.83-0.67,4.23c-0.26,1.4-0.56,2.75-0.88,4.05s-0.67,2.44-1.03,3.42h-5.4c1.08-2.78,1.84-5.45,2.29-7.99
		c0.44-2.54,0.73-5.09,0.85-7.63h5.22C147.26,15.01,147.14,16.32,146.96,17.73z M154.54,11.83v19.01c0,0.41-0.08,0.82-0.25,1.22
		s-0.38,0.78-0.65,1.12c-0.29,0.36-0.63,0.65-1.03,0.86c-0.4,0.22-0.8,0.32-1.21,0.32h-7.31l-0.97-3.31h5.62
		c0.17,0,0.31-0.08,0.43-0.25s0.18-0.31,0.18-0.43V11.83h-9.61V8.48h9.61V2.72h5.18v5.76h2.34v3.35H154.54z"/>
	<path class="st1" d="M187.66,12.98c-0.1-0.12-0.2-0.25-0.32-0.4c-0.12-0.14-0.2-0.25-0.25-0.32c-1.22,0.98-2.5,1.92-3.82,2.81
		c-1.32,0.89-2.63,1.72-3.92,2.48h8.17c0.58,0,1.08,0.08,1.51,0.25c0.43,0.17,0.8,0.4,1.12,0.68c0.67,0.67,1.01,1.6,1.01,2.77v9.4
		c0,1.03-0.26,1.87-0.79,2.52c-0.7,0.77-1.75,1.15-3.17,1.15h-17.71c-1.22,0-2.16-0.35-2.81-1.04c-0.62-0.62-0.94-1.5-0.94-2.63
		v-9.43h-4.97c1.22-0.5,2.53-1.04,3.91-1.6c1.38-0.56,2.78-1.16,4.19-1.78c1.42-0.62,2.82-1.29,4.21-2
		c1.39-0.71,2.71-1.46,3.96-2.25h-5.69l-1.55-3.13h4.28c0.12,0,0.23-0.06,0.34-0.18c0.11-0.12,0.16-0.24,0.16-0.36V2.83h5.4v7.52
		c0,0.19-0.05,0.47-0.14,0.85c-0.1,0.37-0.21,0.64-0.32,0.81c0.38-0.22,0.77-0.47,1.17-0.76c0.4-0.29,0.79-0.58,1.17-0.86h3.85
		c-0.58-0.91-1.13-1.87-1.67-2.86s-1.05-1.95-1.53-2.86h5.9c0.7,1.44,1.47,2.86,2.32,4.27c0.85,1.4,1.85,2.75,3.01,4.05H187.66z
		 M169.76,8.9c-0.79,1.38-1.64,2.74-2.56,4.09h-6.3c1.03-1.3,1.97-2.65,2.83-4.07c0.85-1.42,1.63-2.83,2.32-4.25h5.9
		C171.29,6.11,170.56,7.52,169.76,8.9z M185.82,20.97c0-0.12-0.04-0.22-0.11-0.31c-0.07-0.08-0.17-0.13-0.29-0.13h-11.74
		c-0.41,0.17-0.85,0.37-1.33,0.59c-0.48,0.23-0.9,0.43-1.26,0.59v0.54h14.72V20.97z M185.82,25.11H171.1v1.73h14.72V25.11z
		 M185.82,29.65H171.1v1.3c0,0.1,0.03,0.19,0.09,0.27c0.06,0.08,0.15,0.13,0.27,0.13h13.97c0.26,0,0.4-0.13,0.4-0.4V29.65z"/>
	<path class="st1" d="M217.61,34.51c-0.38-0.14-0.85-0.33-1.4-0.56c-0.55-0.23-1.12-0.46-1.71-0.7s-1.16-0.48-1.71-0.72
		c-0.55-0.24-1.02-0.44-1.4-0.61c-0.74,0.55-1.52,1.06-2.32,1.51c-0.8,0.46-1.59,0.82-2.36,1.08h-9.94c1.63-0.7,3.23-1.45,4.81-2.25
		c1.57-0.8,3.11-1.72,4.63-2.75c-1.15-0.62-2.29-1.27-3.4-1.93c-1.12-0.66-2.21-1.37-3.29-2.14h8.71c0.19,0.1,0.42,0.21,0.68,0.34
		c0.26,0.13,0.46,0.23,0.58,0.31c0.12-0.26,0.22-0.54,0.31-0.85c0.08-0.3,0.16-0.58,0.23-0.85h-7.45c-1.18,0-2.06-0.36-2.66-1.08
		c-0.46-0.58-0.68-1.31-0.68-2.2v-9.11c0-0.48,0.08-0.89,0.25-1.24s0.38-0.63,0.65-0.85c0.31-0.26,0.67-0.46,1.08-0.59
		c0.41-0.13,0.84-0.2,1.3-0.2h7.92V6.5h-12.96V3.23h31.28V6.5h-12.96v2.63h8.24c0.46,0,0.88,0.09,1.28,0.27
		c0.4,0.18,0.73,0.43,0.99,0.74c0.24,0.26,0.43,0.56,0.58,0.88c0.14,0.32,0.22,0.65,0.22,0.99v9.14c0,1.03-0.31,1.82-0.94,2.38
		c-0.65,0.58-1.55,0.86-2.7,0.86h-7.85c-0.12,0.67-0.3,1.37-0.54,2.11c-0.24,0.73-0.47,1.37-0.68,1.93
		c0.94,0.48,2.03,0.99,3.29,1.53s2.58,1.08,3.96,1.62s2.76,1.07,4.14,1.58c1.38,0.52,2.66,0.97,3.83,1.35H217.61z M210.41,12.3
		h-5.11c-0.19,0-0.38,0.08-0.56,0.25c-0.18,0.17-0.27,0.35-0.27,0.54v2.09h5.94V12.3z M210.41,18.31h-5.94v1.94
		c0,0.26,0.08,0.49,0.23,0.67c0.16,0.18,0.4,0.27,0.74,0.27h4.97V18.31z M221.75,13.09c0-0.22-0.1-0.4-0.31-0.56
		c-0.2-0.16-0.44-0.23-0.7-0.23h-4.97v2.88h5.98V13.09z M221.75,18.31h-5.98v2.88h5.15c0.26,0,0.47-0.1,0.61-0.31
		c0.14-0.2,0.22-0.41,0.22-0.63V18.31z"/>
	<path class="st1" d="M264.59,20.72c0.22,0.46,0.29,0.94,0.23,1.46c-0.06,0.52-0.27,0.95-0.63,1.31c-2.3,2.33-5.15,4.4-8.53,6.21
		c-3.38,1.81-7.2,3.4-11.45,4.77h-11.52c2.04-0.7,4.01-1.42,5.92-2.18c1.91-0.76,3.82-1.55,5.74-2.39
		c-0.58-0.62-1.12-1.24-1.64-1.85c-0.52-0.61-1.03-1.27-1.53-1.96h-8.42c1.73-0.96,3.43-1.98,5.11-3.06s3.32-2.27,4.93-3.56h-10.08
		c1.82-0.65,3.64-1.35,5.45-2.11c1.81-0.76,3.61-1.54,5.38-2.36c-0.67-0.58-1.31-1.18-1.93-1.82c-0.61-0.64-1.23-1.3-1.85-2h-6.95
		c1.08-0.72,2.08-1.42,3.01-2.11c0.92-0.68,1.81-1.37,2.65-2.05c0.84-0.68,1.65-1.39,2.43-2.12c0.78-0.73,1.55-1.51,2.32-2.32h7.34
		c-0.17,0.29-0.41,0.62-0.74,0.99c-0.32,0.37-0.62,0.68-0.88,0.92h11.16c0.6,0,1.1,0.14,1.51,0.43c0.41,0.29,0.71,0.65,0.9,1.08
		c0.19,0.46,0.25,0.95,0.18,1.49c-0.07,0.54-0.32,1.04-0.76,1.49c-0.86,0.94-1.84,1.82-2.93,2.66c-1.09,0.84-2.23,1.63-3.42,2.36
		c-1.19,0.73-2.4,1.4-3.64,2.02c-1.24,0.61-2.43,1.16-3.58,1.64h4.07c-0.34,0.29-0.67,0.58-0.99,0.86
		c-0.32,0.29-0.65,0.56-0.99,0.83h11.99c0.53,0,0.97,0.13,1.31,0.4C264.13,20.01,264.4,20.34,264.59,20.72z M245.4,7.76
		c-0.48,0.41-0.97,0.81-1.48,1.21c-0.5,0.4-1.03,0.79-1.58,1.17h3.6c0.38,0.43,0.79,0.86,1.22,1.3c0.43,0.43,0.89,0.82,1.37,1.15
		c1.44-0.72,2.84-1.49,4.19-2.3c1.36-0.82,2.56-1.66,3.62-2.52H245.4z M246.23,22.77c-0.53,0.41-1.06,0.8-1.6,1.19
		c-0.54,0.38-1.1,0.76-1.67,1.12h4.18c0.31,0.46,0.65,0.9,1.03,1.33s0.75,0.83,1.13,1.19c1.39-0.7,2.77-1.45,4.14-2.27
		c1.37-0.82,2.66-1.67,3.89-2.56H246.23z"/>
</g>
<g class="st0">
	<path class="st1" d="M8.99,71.1c-0.63,1.49-1.4,2.95-2.3,4.37H5.25c1.02-1.49,1.85-2.99,2.5-4.51c0.64-1.52,1.19-2.99,1.64-4.41
		h1.27C10.18,68.1,9.62,69.61,8.99,71.1z M9.39,64.81c-0.75-0.78-1.46-1.62-2.16-2.54c-0.69-0.91-1.31-1.86-1.85-2.85h1.3
		c0.52,0.83,1.14,1.7,1.87,2.61s1.55,1.83,2.47,2.77H9.39z M9.52,58.31c-0.75-0.78-1.47-1.62-2.16-2.54
		c-0.69-0.91-1.31-1.86-1.85-2.85h1.33c0.28,0.43,0.56,0.87,0.85,1.3c0.29,0.43,0.6,0.87,0.95,1.31c0.35,0.44,0.72,0.89,1.13,1.35
		s0.86,0.93,1.37,1.42H9.52z M26.11,65.67l-0.42,5.07h2.03v0.88h-2.08l-0.1,1.27c-0.09,0.81-0.37,1.44-0.86,1.87
		c-0.47,0.43-1.08,0.65-1.85,0.65h-2.68l-0.62-0.96h3.28c0.16,0,0.32-0.04,0.48-0.1c0.16-0.07,0.32-0.16,0.46-0.27
		c0.14-0.11,0.26-0.25,0.35-0.4c0.1-0.16,0.15-0.32,0.17-0.49l0.13-1.56h-9.28c-0.83,0-1.46-0.21-1.87-0.62s-0.57-1.01-0.47-1.79
		l0.52-3.54h-1.87v-0.94h2l0.52-3.59c0.05-0.35,0.13-0.67,0.23-0.96s0.27-0.54,0.49-0.73c0.38-0.35,0.96-0.52,1.74-0.52H24
		c0.81,0,1.43,0.21,1.85,0.62c0.47,0.43,0.66,1.08,0.57,1.95l-0.23,3.22h1.87v0.94H26.11z M15.78,55.89
		c-0.35,0.59-0.72,1.17-1.12,1.73c-0.4,0.56-0.82,1.1-1.27,1.6h-1.48c0.99-1.11,1.81-2.19,2.47-3.24c0.66-1.05,1.2-2.08,1.64-3.08
		h1.25c-0.14,0.35-0.29,0.69-0.44,1.03c-0.16,0.34-0.33,0.68-0.52,1.03h11.44v0.94H15.78z M14.48,65.67l-0.52,3.77
		c-0.05,0.42,0.04,0.74,0.27,0.96s0.53,0.34,0.9,0.34h9.36l0.39-5.07H14.48z M24.94,60.25c-0.24-0.27-0.53-0.4-0.86-0.4h-7.67
		c-0.35,0-0.64,0.11-0.87,0.32c-0.23,0.22-0.37,0.5-0.4,0.85l-0.52,3.72h10.35l0.31-3.69C25.29,60.78,25.18,60.52,24.94,60.25z
		 M20.44,69.91c-0.49-0.43-0.97-0.94-1.46-1.53c-0.49-0.59-0.89-1.22-1.22-1.9h1.35c0.62,1.06,1.59,2.2,2.89,3.43H20.44z
		 M20.7,63.98c-0.49-0.43-0.95-0.92-1.39-1.47c-0.44-0.55-0.83-1.12-1.16-1.73h1.3c0.29,0.52,0.67,1.03,1.12,1.53
		c0.45,0.5,1,1.06,1.64,1.66H20.7z"/>
	<path class="st1" d="M42.43,59.01c-0.12,1.63-0.36,3.16-0.7,4.59c-0.35,1.43-0.92,2.85-1.72,4.25c-0.71,1.25-1.62,2.49-2.73,3.73
		c-1.11,1.24-2.51,2.53-4.21,3.86h-1.79c2.86-2.11,5.08-4.3,6.66-6.55c-0.78-0.85-1.47-1.71-2.05-2.59
		c-0.59-0.88-1.14-1.85-1.64-2.93h1.25c0.24,0.62,0.64,1.34,1.2,2.15c0.55,0.81,1.19,1.6,1.9,2.38c0.87-1.4,1.52-2.85,1.95-4.33
		c0.43-1.48,0.67-3.06,0.7-4.75c0-0.26-0.03-0.52-0.1-0.77s-0.23-0.38-0.47-0.38h-5.64c-0.29,1.04-0.65,2.03-1.05,2.98
		c-0.41,0.95-0.87,1.95-1.39,3h-1.43c0.55-1.02,1.04-2,1.44-2.94c0.41-0.94,0.75-1.84,1.03-2.72c0.28-0.88,0.5-1.74,0.68-2.59
		c0.17-0.85,0.29-1.69,0.36-2.52h1.3c-0.09,0.69-0.19,1.35-0.3,1.96s-0.24,1.21-0.38,1.78h5.25c0.69,0,1.22,0.23,1.59,0.68
		c0.17,0.21,0.28,0.46,0.31,0.74C42.47,58.35,42.47,58.67,42.43,59.01z M52.83,68.37c-0.64-0.61-1.27-1.27-1.87-1.99
		c-0.61-0.72-1.19-1.47-1.74-2.25c-0.61-0.85-1.16-1.69-1.65-2.54s-0.91-1.65-1.26-2.43V75.5h-1.2V52.88h1.2v5.88h1.09
		c0.33,0.75,0.74,1.52,1.22,2.33c0.48,0.81,1.02,1.62,1.61,2.43c0.64,0.88,1.32,1.74,2.04,2.57c0.72,0.83,1.45,1.6,2.2,2.29H52.83z"
		/>
	<path class="st1" d="M61.74,56.83c-0.53,1.3-1.13,2.6-1.81,3.9h0.99v14.69h-1.2V61.15c-0.23,0.4-0.45,0.81-0.69,1.22
		c-0.23,0.42-0.48,0.83-0.74,1.25h-1.35c1.16-1.8,2.12-3.56,2.89-5.28c0.76-1.72,1.44-3.53,2.03-5.43h1.27
		C62.73,54.22,62.27,55.53,61.74,56.83z M62.27,60.99v-0.91h8.16v-1.85h-6.71v-0.91h6.71v-1.87h-7.23v-0.91h7.23V52.9h1.2v1.64h7.88
		v0.91h-7.88v1.87h7.1v0.91h-7.1v1.85h8.35v0.91H62.27z M67.07,74.09c-0.81,0.52-1.57,0.97-2.3,1.35h-2.24
		c0.99-0.45,1.92-0.94,2.78-1.46c0.87-0.52,1.61-1.02,2.24-1.51h1.64C68.58,73.04,67.88,73.57,67.07,74.09z M77.38,71.16
		c-0.42,0.38-0.96,0.57-1.64,0.57h-9.49c-0.73,0-1.29-0.2-1.69-0.6c-0.42-0.4-0.62-0.94-0.62-1.61v-4.68c0-0.36,0.06-0.68,0.17-0.95
		c0.11-0.27,0.26-0.5,0.46-0.69c0.43-0.4,1-0.6,1.69-0.6h9.46c0.75,0,1.32,0.2,1.72,0.6c0.4,0.4,0.6,0.95,0.6,1.64v4.65
		C78.03,70.2,77.81,70.76,77.38,71.16z M76.56,63.89c-0.18-0.23-0.45-0.35-0.79-0.35H66.2c-0.33,0-0.59,0.11-0.78,0.33
		c-0.19,0.22-0.29,0.52-0.29,0.92v0.55h11.7v-0.55C76.83,64.42,76.74,64.12,76.56,63.89z M76.83,66.24h-11.7v1.82h11.7V66.24z
		 M76.83,68.97h-11.7v0.6c0,0.4,0.1,0.7,0.3,0.91s0.46,0.31,0.77,0.31h9.59c0.31,0,0.56-0.11,0.75-0.34
		c0.19-0.22,0.29-0.53,0.29-0.91V68.97z M77.85,75.45c-0.31-0.16-0.66-0.36-1.04-0.6c-0.38-0.24-0.77-0.5-1.17-0.78
		c-0.4-0.28-0.78-0.55-1.13-0.83c-0.36-0.28-0.66-0.53-0.92-0.75h1.77c0.76,0.57,1.54,1.11,2.34,1.61c0.8,0.5,1.64,0.95,2.52,1.35
		H77.85z"/>
	<path class="st1" d="M95.6,70.25v3.17c0,0.68-0.19,1.2-0.57,1.56c-0.36,0.33-0.86,0.49-1.48,0.49h-2.7l-0.65-0.88h2.99
		c0.38,0,0.68-0.1,0.91-0.31s0.34-0.51,0.34-0.91v-3.12H83.59v-0.91h10.84v-1.07c0.54-0.12,1.13-0.28,1.78-0.48s1.3-0.42,1.94-0.65
		c0.64-0.23,1.25-0.48,1.82-0.74c0.57-0.26,1.06-0.51,1.46-0.75H85.75v-0.88H102c0.29,0,0.51,0.07,0.64,0.22s0.19,0.32,0.17,0.51
		c-0.05,0.33-0.23,0.57-0.52,0.73c-0.43,0.26-0.93,0.52-1.48,0.78s-1.12,0.51-1.7,0.74c-0.58,0.23-1.17,0.45-1.77,0.64
		c-0.6,0.19-1.17,0.36-1.73,0.49v0.47h10.76v0.91H95.6z M83.64,56.18v-0.91h10.76c-0.29-0.29-0.59-0.67-0.88-1.12
		c-0.29-0.45-0.56-0.88-0.81-1.27h1.4c0.19,0.35,0.47,0.75,0.83,1.21c0.36,0.46,0.7,0.85,1.01,1.18h9.8v0.91H83.64z M102.88,62.52
		c-0.19,0.19-0.44,0.32-0.75,0.39s-0.7,0.1-1.17,0.1H88.61c-0.95,0-1.61-0.21-1.98-0.62c-0.31-0.35-0.47-0.87-0.47-1.56V60
		c0-0.69,0.2-1.2,0.6-1.53c0.4-0.35,1.01-0.52,1.85-0.52h12.35c0.85,0,1.47,0.17,1.87,0.52c0.38,0.35,0.57,0.86,0.57,1.53v0.83
		C103.4,61.63,103.23,62.19,102.88,62.52z M102.21,59.9c0-0.29-0.09-0.54-0.27-0.74c-0.18-0.2-0.43-0.3-0.74-0.3H88.48
		c-0.38,0-0.66,0.1-0.85,0.3s-0.27,0.45-0.27,0.74v1.25c0,0.29,0.08,0.53,0.25,0.7c0.16,0.17,0.42,0.26,0.77,0.26h12.82
		c0.31,0,0.56-0.08,0.74-0.25c0.18-0.17,0.27-0.4,0.27-0.71V59.9z"/>
</g>
<g class="st0">
	<path class="st1" d="M122.67,68.3v4.94c0,0.35-0.06,0.66-0.2,0.94c-0.13,0.28-0.31,0.51-0.53,0.7c-0.24,0.21-0.52,0.36-0.82,0.47
		c-0.3,0.1-0.61,0.16-0.92,0.16h-4.52l-0.81-2.42h3.09c0.19,0,0.37-0.09,0.53-0.26c0.16-0.17,0.25-0.35,0.25-0.52v-4h-9.44v-2.42
		h9.44v-3.41h-8.22v-2.52h8.22v-3.74c-0.66,0.03-1.37,0.07-2.13,0.1c-0.76,0.04-1.53,0.07-2.3,0.09c-0.77,0.03-1.53,0.05-2.28,0.07
		s-1.43,0.04-2.05,0.05v-2.5c3.47-0.03,7.02-0.16,10.67-0.36c3.65-0.21,7.24-0.56,10.78-1.07v2.39c-1.14,0.17-2.47,0.35-3.99,0.52
		c-1.52,0.17-3.11,0.33-4.77,0.47v3.98h8.16v2.52h-8.16v3.41H132v2.42H122.67z"/>
	<path class="st1" d="M137.93,72.61c-0.1,1.08-0.25,2.1-0.44,3.07h-2.42c0.24-0.97,0.42-1.99,0.53-3.05
		c0.11-1.07,0.19-2.11,0.25-3.13h2.26C138.1,70.5,138.04,71.54,137.93,72.61z M152.7,55.71v0.99h4.89v1.77h-13.47v-0.68l-4.81,8.42
		h1.77c-0.03-0.36-0.07-0.77-0.1-1.21c-0.03-0.44-0.07-0.83-0.1-1.16h2.31c0.05,0.83,0.15,1.63,0.29,2.39
		c0.14,0.76,0.29,1.53,0.47,2.31h-2.37c-0.09-0.29-0.17-0.59-0.23-0.9c-0.07-0.3-0.13-0.6-0.18-0.9l-0.57,1.79h-3.8
		c-0.28,0-0.52-0.06-0.72-0.18s-0.36-0.28-0.48-0.47c-0.29-0.45-0.3-0.94-0.03-1.46l2.55-4.6h-1.2c-0.33,0-0.63-0.07-0.91-0.22
		c-0.28-0.15-0.5-0.34-0.68-0.58c-0.14-0.23-0.22-0.47-0.25-0.74s0.03-0.55,0.17-0.84l3.46-6.86h3.64l-3.77,6.94h0.86l1.09-2h3.59
		V56.7h4.94v-0.99h-5.43v-1.9h5.43v-1.22h3.64v1.22h5.38v1.9H152.7z M139.02,75.68c-0.09-1.01-0.17-2.04-0.23-3.11
		c-0.07-1.07-0.09-2.09-0.05-3.08h2.05c0,0.99,0.03,2.02,0.1,3.09c0.07,1.07,0.17,2.11,0.31,3.09H139.02z M141.91,74.82
		c-0.14-0.85-0.26-1.72-0.35-2.63c-0.1-0.9-0.17-1.8-0.22-2.7h2.05c0.05,0.88,0.13,1.78,0.22,2.68c0.09,0.9,0.22,1.79,0.38,2.65
		H141.91z M149.14,74.52c-0.38,0.42-0.79,0.81-1.22,1.16h-4.34c0.47-0.38,0.92-0.76,1.35-1.14c0.43-0.38,0.85-0.81,1.25-1.27h4.03
		C149.88,73.68,149.52,74.1,149.14,74.52z M157.46,63.33c-0.24,0.28-0.6,0.42-1.07,0.42h-10.95c-0.43,0-0.81-0.16-1.12-0.47
		c-0.28-0.28-0.42-0.63-0.42-1.07v-1.56c0-0.42,0.13-0.75,0.39-1.01c0.16-0.16,0.34-0.27,0.55-0.34s0.42-0.1,0.65-0.1h10.74
		c0.52,0,0.94,0.2,1.25,0.6c0.22,0.28,0.34,0.61,0.34,0.99v1.51C157.82,62.74,157.7,63.09,157.46,63.33z M156.78,72.25
		c-0.35,0.29-0.77,0.44-1.27,0.44h-9.49c-0.24,0-0.47-0.06-0.68-0.17c-0.21-0.11-0.38-0.26-0.52-0.46
		c-0.26-0.31-0.39-0.68-0.39-1.09v-4.97c0-0.4,0.14-0.74,0.42-1.01c0.4-0.36,0.86-0.55,1.38-0.55h9.23c0.29,0,0.56,0.06,0.79,0.18
		s0.43,0.28,0.58,0.47c0.29,0.35,0.44,0.76,0.44,1.25v4.76C157.28,71.59,157.11,71.97,156.78,72.25z M147.94,60.89h-0.75
		c-0.23,0-0.34,0.1-0.34,0.31v0.49c0,0.1,0.04,0.19,0.12,0.26c0.08,0.07,0.16,0.1,0.25,0.1h0.73V60.89z M153.66,66.35
		c0-0.09-0.04-0.16-0.13-0.22c-0.09-0.06-0.17-0.09-0.26-0.09h-4.94c-0.23,0-0.34,0.1-0.34,0.31v0.42h5.67V66.35z M153.66,68.11
		h-5.67v0.78h5.67V68.11z M153.66,70.25h-5.67v0.47c0,0.09,0.03,0.17,0.1,0.23c0.07,0.07,0.14,0.1,0.21,0.1h5.04
		c0.1,0,0.18-0.03,0.23-0.1c0.05-0.07,0.08-0.15,0.08-0.23V70.25z M151.43,60.89h-1.04v1.17h1.04V60.89z M153.92,75.68
		c-0.4-0.35-0.8-0.73-1.2-1.14c-0.4-0.42-0.75-0.84-1.07-1.27h4.19c0.4,0.45,0.81,0.88,1.24,1.29s0.86,0.78,1.31,1.13H153.92z
		 M154.94,61.2c0-0.09-0.04-0.16-0.12-0.22s-0.16-0.09-0.25-0.09h-0.68v1.17h0.75c0.1,0,0.18-0.04,0.22-0.12
		c0.04-0.08,0.07-0.16,0.07-0.25V61.2z"/>
	<path class="st1" d="M178.39,75.63c-0.57-0.31-1.11-0.67-1.62-1.07c-0.51-0.4-1.04-0.85-1.6-1.35h-4.81
		c-0.56,0.47-1.14,0.9-1.74,1.3c-0.61,0.4-1.22,0.77-1.85,1.12h-6.11c0.71-0.36,1.43-0.76,2.14-1.18c0.72-0.42,1.4-0.87,2.04-1.34
		c-0.29,0-0.56-0.05-0.81-0.16c-0.24-0.1-0.46-0.24-0.65-0.42c-0.21-0.21-0.37-0.45-0.49-0.74s-0.18-0.59-0.18-0.92v-6.16h-2.24
		c0.87-0.36,1.7-0.77,2.5-1.21c0.8-0.44,1.59-0.94,2.37-1.5h-1.66c-0.71,0-1.26-0.22-1.64-0.65c-0.45-0.47-0.56-1.11-0.34-1.92
		l0.26-1.09c0.1-0.47,0.32-0.81,0.65-1.04c0.29-0.17,0.66-0.26,1.09-0.26h4.19v-1.07h-6.55V54h6.55v-1.33h3.77V54h2.24v-1.33h3.69
		V54h3.59c0.61,0,1.13,0.21,1.59,0.62c0.16,0.16,0.29,0.34,0.39,0.55c0.1,0.21,0.16,0.44,0.16,0.7v1.2c0,0.45-0.16,0.86-0.47,1.22
		c-0.36,0.4-0.8,0.6-1.3,0.6h-3.95v1.14h4.52c0.54,0,1.01,0.18,1.43,0.55c0.14,0.14,0.26,0.3,0.35,0.48
		c0.1,0.18,0.14,0.39,0.14,0.61v1.04c0,0.54-0.19,0.98-0.57,1.33c-0.19,0.19-0.42,0.33-0.68,0.4s-0.54,0.09-0.83,0.04
		c0.17,0.19,0.31,0.41,0.42,0.65c0.1,0.24,0.16,0.51,0.16,0.81v5.1c0,0.61-0.18,1.11-0.55,1.51c-0.38,0.38-0.88,0.62-1.48,0.7
		c0.61,0.47,1.22,0.9,1.83,1.29c0.62,0.39,1.27,0.76,1.96,1.11H178.39z M166.04,58.88c-0.28,0-0.44,0.1-0.49,0.29l-0.08,0.47
		c-0.04,0.1,0,0.2,0.09,0.27c0.1,0.08,0.2,0.12,0.3,0.12h1.33c0.09-0.16,0.17-0.34,0.26-0.55c0.09-0.21,0.15-0.41,0.18-0.6H166.04z
		 M178.75,66.29c0-0.09-0.05-0.18-0.14-0.29c-0.1-0.1-0.19-0.16-0.27-0.16h-11.39c-0.1,0-0.21,0.04-0.31,0.13
		c-0.1,0.09-0.16,0.19-0.16,0.31v0.36h12.27V66.29z M178.75,68.14h-12.27v0.81h12.27V68.14z M178.75,70.4h-12.27v0.34
		c0,0.12,0.06,0.23,0.17,0.33c0.11,0.1,0.23,0.14,0.35,0.14h11.23c0.12,0,0.24-0.04,0.35-0.13c0.11-0.09,0.17-0.2,0.17-0.34V70.4z
		 M173.89,62h-3.67c-0.62,0.75-1.34,1.38-2.16,1.9h5.82V62z M173.89,58.88h-2.39c-0.05,0.36-0.15,0.75-0.29,1.14h2.68V58.88z
		 M173.89,55.97h-2.24v1.07h2.24V55.97z M179.58,56.28c0-0.09-0.04-0.16-0.13-0.22c-0.09-0.06-0.17-0.09-0.26-0.09h-1.61v1.07h1.64
		c0.09,0,0.17-0.04,0.25-0.13c0.08-0.09,0.12-0.17,0.12-0.26V56.28z M180.36,62.39c0-0.09-0.02-0.17-0.07-0.26S180.2,62,180.13,62
		h-2.55v1.9h1.59l-0.39-1.17h1.2C180.23,62.73,180.36,62.62,180.36,62.39z"/>
	<path class="st1" d="M199.37,68.22c0.07,0.62,0.06,1.25-0.04,1.87c-0.1,0.62-0.29,1.21-0.58,1.74c-0.38,0.68-0.88,1.21-1.5,1.6
		s-1.29,0.68-2.01,0.87c-0.87,0.21-1.75,0.29-2.67,0.23c-0.91-0.05-1.78-0.19-2.61-0.42c-0.66-0.19-1.23-0.54-1.7-1.05
		c-0.48-0.51-0.85-1.08-1.13-1.7c-0.21-0.5-0.35-1.01-0.42-1.53c-0.07-0.52-0.1-1.06-0.08-1.61h4.13c0.02,0.33,0.03,0.67,0.04,1.01
		s0.04,0.69,0.09,1.01c0.09,0.55,0.28,0.99,0.57,1.3c0.29,0.31,0.62,0.52,0.99,0.62c0.66,0.16,1.26,0.04,1.82-0.34
		c0.24-0.19,0.46-0.42,0.64-0.69s0.29-0.59,0.33-0.97c0.03-0.35,0.06-0.73,0.09-1.16s0.02-0.82-0.01-1.18c-0.04-0.4-0.1-0.73-0.21-1
		c-0.1-0.27-0.24-0.5-0.42-0.69c-0.21-0.23-0.46-0.38-0.75-0.47c-0.29-0.09-0.63-0.13-1.01-0.13h-2.26V63.2h2.18
		c0.42,0,0.77-0.06,1.07-0.19s0.54-0.32,0.73-0.56c0.31-0.42,0.49-0.97,0.55-1.66c0.03-0.4,0.03-0.79-0.01-1.18
		s-0.11-0.76-0.19-1.11c-0.09-0.29-0.26-0.54-0.53-0.74c-0.27-0.2-0.56-0.33-0.87-0.38c-0.29-0.05-0.58-0.04-0.87,0.03
		c-0.29,0.07-0.52,0.22-0.71,0.44c-0.35,0.4-0.57,0.85-0.68,1.35c-0.1,0.5-0.17,1.02-0.18,1.56h-4.24c0-0.66,0.11-1.3,0.33-1.94
		c0.22-0.63,0.52-1.2,0.92-1.7c0.42-0.54,0.88-0.95,1.39-1.23c0.51-0.29,1.08-0.51,1.7-0.66c0.73-0.19,1.48-0.28,2.26-0.27
		c0.78,0.01,1.53,0.13,2.26,0.38c1.28,0.4,2.24,1.09,2.86,2.08c0.26,0.42,0.46,0.88,0.58,1.39c0.13,0.51,0.17,1.06,0.12,1.65
		c-0.09,1.01-0.44,1.86-1.07,2.57c-0.31,0.35-0.65,0.62-1.03,0.83c-0.37,0.21-0.78,0.38-1.23,0.52c0.36,0.05,0.73,0.16,1.1,0.31
		s0.71,0.36,1,0.62c0.45,0.38,0.76,0.82,0.94,1.33C199.21,67.13,199.32,67.66,199.37,68.22z"/>
	<path class="st1" d="M209.38,66.1c-0.4,0.15-0.77,0.28-1.12,0.4v6.94c0,0.33-0.07,0.63-0.22,0.91c-0.15,0.28-0.34,0.52-0.58,0.73
		c-0.23,0.19-0.48,0.34-0.75,0.44c-0.28,0.1-0.56,0.16-0.86,0.16h-3.09l-0.65-2.39h1.87c0.14,0,0.26-0.07,0.38-0.2
		c0.11-0.13,0.17-0.26,0.17-0.4v-4.97c-0.36,0.12-0.79,0.25-1.29,0.38c-0.49,0.13-0.9,0.24-1.21,0.33V65.9
		c0.16-0.03,0.35-0.08,0.57-0.14s0.46-0.13,0.69-0.2c0.23-0.07,0.46-0.14,0.68-0.21s0.4-0.13,0.56-0.18v-5.75h-2.47v-2.42h2.47
		v-4.29h3.74v4.29h2.08v2.42h-2.08v4.52c0.29-0.09,0.65-0.2,1.05-0.35c0.41-0.15,0.75-0.28,1.03-0.4v2.52
		C210.1,65.83,209.78,65.95,209.38,66.1z M221.83,63.17v12.51h-3.74V63.17h-3.12c-0.02,1.11-0.06,2.21-0.12,3.29
		s-0.16,2.15-0.3,3.21s-0.34,2.09-0.6,3.09c-0.26,1.01-0.61,1.98-1.04,2.91h-4.03c0.47-0.88,0.85-1.82,1.14-2.79
		c0.29-0.98,0.52-1.98,0.69-2.99s0.28-2.04,0.34-3.07c0.06-1.03,0.09-2.04,0.09-3.03v-7.23c0-0.8,0.22-1.41,0.65-1.85
		c0.24-0.24,0.55-0.42,0.94-0.55c0.38-0.12,0.82-0.2,1.33-0.23c1.73-0.1,3.48-0.26,5.24-0.48c1.76-0.22,3.48-0.49,5.16-0.82v2.47
		c-1.47,0.31-2.93,0.56-4.38,0.75c-1.45,0.19-2.92,0.36-4.41,0.49c-0.19,0.02-0.35,0.09-0.48,0.21c-0.13,0.12-0.19,0.28-0.19,0.47
		v3.77h10.04v2.37H221.83z"/>
</g>
<g class="st0">
	<path class="st1" d="M232.47,56.7c-0.47,1.14-1.01,2.31-1.64,3.48h0.7V75.5h-1.2V61.04c-0.22,0.38-0.46,0.76-0.7,1.14
		c-0.24,0.38-0.5,0.77-0.78,1.17h-1.22c0.66-0.92,1.23-1.81,1.73-2.67c0.49-0.86,0.94-1.71,1.33-2.56c0.39-0.85,0.74-1.7,1.05-2.56
		c0.31-0.86,0.61-1.75,0.88-2.67h1.17C233.38,54.29,232.94,55.56,232.47,56.7z M248.33,75.47c-1.14-0.29-2.22-0.62-3.24-0.96
		c-1.01-0.35-2.07-0.76-3.16-1.25c-1.04,0.45-2.12,0.85-3.24,1.2s-2.31,0.68-3.58,1.01h-2.63c1.73-0.47,3.27-0.92,4.62-1.35
		c1.34-0.43,2.59-0.88,3.73-1.33c-0.66-0.31-1.34-0.65-2.04-1c-0.7-0.35-1.44-0.75-2.22-1.18c-0.31,0.28-0.62,0.54-0.91,0.78
		c-0.29,0.24-0.59,0.46-0.88,0.65h-1.61c1.16-0.78,2.13-1.55,2.91-2.31c0.78-0.76,1.47-1.53,2.08-2.31h1.4
		c-0.31,0.42-0.65,0.83-1.01,1.25h8.58c0.38,0,0.63,0.17,0.75,0.49c0.03,0.14,0.03,0.29-0.01,0.46s-0.14,0.31-0.3,0.43
		c-0.73,0.55-1.46,1.05-2.21,1.5s-1.52,0.85-2.31,1.24c1.18,0.47,2.45,0.91,3.81,1.34c1.36,0.42,2.92,0.88,4.69,1.37H248.33z
		 M236.42,66.2c-0.54,0.58-1.13,1.15-1.79,1.7h-1.53c0.76-0.61,1.44-1.22,2.04-1.85c0.6-0.62,1.1-1.27,1.49-1.92h1.35
		C237.48,64.93,236.96,65.62,236.42,66.2z M249.58,65.41v-1.33c0-0.28-0.08-0.5-0.23-0.68c-0.16-0.17-0.36-0.26-0.6-0.26H235.2
		c-0.24,0-0.43,0.09-0.56,0.26c-0.13,0.17-0.2,0.4-0.2,0.68v1.33h-1.2V64c0-0.54,0.15-0.95,0.44-1.25c0.31-0.31,0.77-0.47,1.38-0.47
		h0.57v-4.86c0-0.61,0.16-1.06,0.47-1.35c0.35-0.38,0.89-0.57,1.64-0.57h3.15c0.1-0.22,0.21-0.46,0.31-0.69
		c0.1-0.23,0.2-0.46,0.29-0.69h-7.38v-0.86h16.12v0.86h-7.62c-0.09,0.24-0.18,0.48-0.29,0.71c-0.1,0.23-0.2,0.46-0.29,0.66h4.11
		c0.73,0,1.27,0.16,1.64,0.47c0.38,0.33,0.57,0.81,0.57,1.46v4.86h0.52c0.62,0,1.08,0.14,1.38,0.42c0.35,0.29,0.52,0.73,0.52,1.3
		v1.4H249.58z M246.53,69.8c0.09-0.05,0.11-0.11,0.08-0.18c-0.04-0.07-0.1-0.1-0.18-0.1h-8.61c-0.19,0.21-0.38,0.39-0.57,0.53
		c-0.19,0.15-0.39,0.32-0.6,0.51h1.77c0.61,0.35,1.2,0.66,1.77,0.95c0.57,0.29,1.15,0.56,1.74,0.82c0.85-0.38,1.64-0.77,2.38-1.16
		C245.05,70.78,245.79,70.32,246.53,69.8z M247.21,57.43c0-0.71-0.36-1.07-1.07-1.07h-8.4c-0.66,0-0.99,0.36-0.99,1.07v0.34h10.45
		V57.43z M247.21,58.62h-10.45v1.4h10.45V58.62z M247.21,60.89h-10.45v1.4h10.45V60.89z M246.4,67.31h-5.67
		c-0.66,0-1.17-0.18-1.53-0.55c-0.28-0.29-0.42-0.69-0.42-1.2v-1.64h1.12v1.61c0,0.29,0.09,0.52,0.27,0.68
		c0.18,0.16,0.4,0.23,0.66,0.23h6.01L246.4,67.31z M243.28,65.8c-0.26-0.33-0.51-0.66-0.74-0.99c-0.23-0.33-0.45-0.66-0.64-0.99
		h1.25c0.19,0.29,0.4,0.61,0.64,0.94c0.23,0.33,0.52,0.68,0.85,1.04H243.28z M249.39,67.88c-0.33-0.29-0.63-0.58-0.91-0.87
		c-0.28-0.29-0.54-0.58-0.78-0.87c-0.24-0.29-0.49-0.6-0.73-0.92c-0.24-0.32-0.5-0.67-0.78-1.05h1.27c0.92,1.32,2.04,2.56,3.35,3.72
		H249.39z"/>
	<path class="st1" d="M257.47,72.34c-0.53,0.88-1.21,1.7-2.04,2.48h-1.53c0.88-0.76,1.63-1.59,2.25-2.5s1.12-1.84,1.52-2.81h1.27
		C258.49,70.52,258,71.46,257.47,72.34z M275.42,68.84c-0.24-0.24-0.47-0.49-0.69-0.74s-0.43-0.52-0.64-0.79
		c-1.35,0.12-2.9,0.24-4.65,0.36c-1.75,0.12-3.54,0.23-5.36,0.31c-1.82,0.09-3.59,0.16-5.32,0.22c-1.73,0.06-3.23,0.1-4.51,0.12
		v-0.91c0.64,0,1.37-0.01,2.18-0.03c0.81-0.02,1.68-0.04,2.59-0.07s1.86-0.06,2.85-0.09c0.99-0.04,1.98-0.08,2.96-0.13v-2.5h-6.53
		c-0.87,0-1.49-0.22-1.87-0.65c-0.33-0.38-0.49-0.91-0.49-1.59v-2.5c0-0.36,0.05-0.68,0.14-0.94c0.09-0.26,0.23-0.49,0.4-0.68
		c0.42-0.42,1.05-0.62,1.9-0.62h6.45v-2.05h-9.93V54.7h9.93V52.9h1.2v1.79h10.09v0.88h-10.09v2.05h6.47c0.81,0,1.42,0.16,1.82,0.49
		c0.42,0.33,0.62,0.88,0.62,1.66v2.55c0,0.69-0.17,1.23-0.52,1.61c-0.38,0.43-0.99,0.65-1.82,0.65h-6.58v2.44
		c1.4-0.09,2.75-0.17,4.03-0.25c1.28-0.08,2.43-0.17,3.43-0.27c-0.26-0.36-0.51-0.76-0.75-1.2h1.25c0.33,0.54,0.73,1.1,1.2,1.69
		s1.04,1.2,1.72,1.82H275.42z M264.84,58.49h-6.55c-0.35,0-0.62,0.1-0.83,0.3c-0.21,0.2-0.31,0.45-0.31,0.74v1.12h7.7V58.49z
		 M264.84,61.54h-7.7v1.12c0,0.29,0.11,0.55,0.33,0.75c0.22,0.21,0.48,0.31,0.79,0.31h6.58V61.54z M271.31,75.42h-8.61
		c-0.33,0-0.63-0.06-0.9-0.18c-0.27-0.12-0.5-0.28-0.69-0.47c-0.16-0.19-0.28-0.4-0.38-0.62c-0.1-0.23-0.14-0.48-0.14-0.75v-4.55
		h1.17v4.58c0,0.28,0.1,0.51,0.31,0.7s0.46,0.29,0.75,0.29h8.97L271.31,75.42z M267.85,72.77c-0.42-0.54-0.84-1.17-1.27-1.91
		s-0.81-1.47-1.12-2.2h1.25c0.29,0.69,0.65,1.37,1.05,2.03c0.41,0.66,0.91,1.35,1.5,2.08H267.85z M273.5,58.78
		c-0.19-0.19-0.47-0.29-0.83-0.29h-6.63v2.16h7.75v-1.09C273.78,59.23,273.69,58.97,273.5,58.78z M273.78,61.54h-7.75v2.18h6.71
		c0.29,0,0.54-0.11,0.74-0.34c0.2-0.22,0.3-0.46,0.3-0.7V61.54z M275.63,74.87c-1.28-1.63-2.28-3.41-2.99-5.36h1.25
		c0.33,0.85,0.75,1.73,1.26,2.65c0.51,0.92,1.14,1.82,1.88,2.7H275.63z"/>
</g>
</svg>
