<?xml version="1.0" encoding="utf-8"?>
<!-- Generator: Adobe Illustrator 24.0.1, SVG Export Plug-In . SVG Version: 6.00 Build 0)  -->
<svg version="1.1" id="圖層_1" xmlns="http://www.w3.org/2000/svg" xmlns:xlink="http://www.w3.org/1999/xlink" x="0px" y="0px"
	 viewBox="0 0 428 79.25" style="enable-background:new 0 0 428 79.25;" xml:space="preserve">
<style type="text/css">
	.st0{enable-background:new    ;}
	.st1{fill:#0F90C9;}
</style>
<g class="st0">
	<path class="st1" d="M7.87,27.3c-1.26,0-2.21-0.44-2.85-1.33c-0.49-0.67-0.74-1.52-0.74-2.53v-9.57H2.25
		c0.71-1.53,1.35-3.08,1.93-4.65c0.58-1.56,1.1-3.17,1.56-4.83h5.57c-0.15,0.61-0.33,1.21-0.53,1.79c-0.2,0.58-0.42,1.15-0.67,1.7
		h2.76c-0.15-0.55-0.31-1.13-0.48-1.73c-0.17-0.6-0.3-1.19-0.39-1.77h5.61c0.15,0.49,0.34,1.09,0.57,1.79
		c0.23,0.71,0.42,1.27,0.58,1.7h3.31v3.5h-3.86v2.02h3.17v3.13h-3.17v2.02h3.27v3.17h-3.27v2.16h4.14v3.4H7.87z M30.68,45.15
		c-1.17-0.52-2.35-1.04-3.54-1.54c-1.2-0.51-2.44-1.02-3.73-1.54c-1.29,0.52-2.54,1.03-3.75,1.52c-1.21,0.49-2.51,0.95-3.89,1.38
		H2.71c2.61-0.92,5.14-1.84,7.59-2.76c2.45-0.92,4.89-1.92,7.31-2.99c-1.29-0.71-2.65-1.5-4.07-2.39c-1.43-0.89-2.88-1.82-4.35-2.81
		h9.94c0.61,0.37,1.3,0.77,2.07,1.22c0.77,0.45,1.46,0.82,2.07,1.13c1.26-0.52,2.46-1.07,3.61-1.63c1.15-0.57,2.34-1.23,3.56-2H5.57
		V29.1H38.5c0.49,0,0.9,0.14,1.24,0.41c0.34,0.28,0.58,0.61,0.74,1.01c0.15,0.4,0.21,0.82,0.16,1.26c-0.05,0.45-0.27,0.81-0.67,1.08
		c-0.64,0.49-1.46,1.04-2.44,1.63c-0.98,0.6-1.99,1.19-3.01,1.77c-1.03,0.58-2.02,1.13-2.99,1.63c-0.97,0.51-1.77,0.91-2.42,1.22
		c2.45,1.07,4.91,2.1,7.36,3.08c2.45,0.98,4.98,1.96,7.59,2.94H30.68z M12.6,11.39h-2.58v2.02h2.58V11.39z M12.6,16.54h-2.58v2.02
		h2.58V16.54z M12.6,21.74h-2.58v1.33c0,0.25,0.08,0.45,0.23,0.6c0.15,0.15,0.35,0.23,0.6,0.23h1.75V21.74z M26.59,27.3
		c-0.52,0-0.97-0.11-1.36-0.32c-0.38-0.21-0.71-0.49-0.99-0.83c-0.52-0.67-0.78-1.47-0.78-2.39v-9.84H21.8
		c0.67-1.56,1.31-3.12,1.91-4.67c0.6-1.55,1.11-3.15,1.54-4.81h5.47c-0.15,0.49-0.34,1.07-0.55,1.75c-0.21,0.67-0.41,1.23-0.6,1.66
		h3.22c-0.25-0.52-0.48-1.08-0.69-1.68c-0.21-0.6-0.4-1.19-0.55-1.77h5.7c0.15,0.55,0.34,1.12,0.55,1.7
		c0.21,0.58,0.48,1.17,0.78,1.75h4.28v3.54h-4.83v2.02h3.86v3.13h-3.86v2.07h3.86v3.13h-3.86v2.16h5.24v3.4H26.59z M32.38,11.39
		h-3.17v2.02h3.17V11.39z M32.38,16.54h-3.17v2.07h3.17V16.54z M32.38,21.74h-3.17v1.24c0,0.31,0.09,0.54,0.28,0.69
		c0.18,0.15,0.41,0.23,0.69,0.23h2.21V21.74z"/>
	<path class="st1" d="M59.92,12.38c-0.94,2.65-2.02,5.3-3.24,7.94h1.89v24.7h-6.99v-23h-3.36c1.47-2.79,2.77-5.68,3.89-8.67
		c1.12-2.99,2.15-5.99,3.1-8.99h7.18C61.67,7.05,60.85,9.72,59.92,12.38z M60.26,26.29v-4.23h16.05c0.55-1.32,1.04-2.61,1.45-3.89
		c0.41-1.27,0.77-2.6,1.08-3.98h6.99c-0.34,1.38-0.7,2.71-1.08,4c-0.38,1.29-0.84,2.58-1.36,3.86h6.26v4.23H60.26z M61.96,12.45
		V8.31h9.57c-0.18-0.64-0.38-1.29-0.57-1.93c-0.2-0.64-0.33-1.3-0.39-1.98h7.45c0.12,0.67,0.28,1.33,0.48,1.98
		c0.2,0.64,0.42,1.29,0.67,1.93h9.2v4.14H61.96z M86.2,43.45c-0.34,0.4-0.75,0.71-1.24,0.94c-0.49,0.23-1.07,0.34-1.75,0.34H67.39
		c-1.41,0-2.52-0.43-3.31-1.29c-0.74-0.8-1.1-1.84-1.1-3.13v-6.81c0-1.38,0.32-2.44,0.97-3.17c0.74-0.89,1.9-1.33,3.5-1.33h15.92
		c0.52,0,1.01,0.12,1.47,0.35c0.46,0.23,0.87,0.51,1.24,0.85c0.34,0.37,0.61,0.78,0.83,1.24c0.21,0.46,0.32,0.94,0.32,1.43v7.36
		C87.22,41.52,86.88,42.59,86.2,43.45z M66.61,20.96c-0.49-1.07-0.91-2.18-1.27-3.31s-0.65-2.28-0.9-3.45h7.04
		c0.31,1.17,0.65,2.31,1.04,3.43c0.38,1.12,0.81,2.23,1.27,3.33H66.61z M80.41,34.02c0-0.25-0.08-0.44-0.23-0.58
		c-0.15-0.14-0.35-0.21-0.6-0.21h-9.15c-0.18,0-0.35,0.08-0.51,0.23c-0.15,0.15-0.23,0.34-0.23,0.55v5.8c0,0.15,0.08,0.31,0.25,0.48
		c0.17,0.17,0.33,0.25,0.48,0.25h8.97c0.28,0,0.51-0.08,0.71-0.23c0.2-0.15,0.3-0.35,0.3-0.6V34.02z"/>
	<path class="st1" d="M101.8,31.54c-0.25,3.34-0.63,6.66-1.15,9.94h-6.03c0.55-3.43,0.98-6.82,1.29-10.17
		c0.31-3.34,0.51-6.65,0.6-9.94h5.8C102.21,24.8,102.04,28.19,101.8,31.54z M110.08,18.93v26.04h-6.35V18.93h-8.79v-4.19h8.79v-4.74
		c-1.35,0.09-2.68,0.17-4,0.23c-1.32,0.06-2.65,0.11-4,0.14V6.19c3.77-0.15,7.48-0.4,11.13-0.74c3.65-0.34,7.28-0.83,10.9-1.47v4.46
		c-1.29,0.21-2.55,0.4-3.79,0.55c-1.24,0.15-2.54,0.29-3.89,0.41v5.34h8.23v4.19H110.08z M113.48,41.52
		c-0.52-3.16-0.94-6.44-1.24-9.84c-0.31-3.4-0.52-6.84-0.64-10.3h5.8c0.15,3.62,0.4,7.09,0.74,10.42c0.34,3.33,0.84,6.57,1.52,9.73
		H113.48z M120.2,35.31V8.9h5.57v26.4H120.2z M133.68,44c-0.74,0.67-1.66,1.01-2.76,1.01h-7.45l-1.38-4.28h5.43
		c0.15,0,0.32-0.05,0.51-0.16s0.28-0.27,0.28-0.48V4.44h6.58v36.98C134.87,42.44,134.47,43.3,133.68,44z"/>
	<path class="st1" d="M164.96,37.56v7.45h-7.08v-7.45h-16.93v-4.09h16.93v-2.9h7.08v2.9h16.51v4.09H164.96z M149.52,25.42
		c-0.57,1.35-1.16,2.59-1.77,3.73h-6.67c0.31-0.55,0.62-1.17,0.94-1.84c0.32-0.67,0.63-1.36,0.92-2.05
		c0.29-0.69,0.57-1.36,0.83-2.02c0.26-0.66,0.47-1.23,0.62-1.73h6.53C150.56,22.76,150.09,24.07,149.52,25.42z M163.48,11.66
		L159.11,17h1.98l1.79-1.75h7.64l-6.39,6.49h5.2c0.34,1.29,0.75,2.55,1.24,3.79c0.49,1.24,1.03,2.48,1.61,3.7h-5.7
		c-0.25-0.46-0.47-0.94-0.67-1.43c-0.2-0.49-0.39-0.98-0.58-1.47L164.22,29h-10.07c-0.49,0-0.9-0.13-1.22-0.39
		c-0.32-0.26-0.56-0.59-0.71-0.99c-0.15-0.4-0.19-0.81-0.11-1.24c0.08-0.43,0.28-0.81,0.62-1.15l4.78-4.69h-3.54
		c-0.52,0-0.94-0.13-1.27-0.39c-0.32-0.26-0.56-0.56-0.71-0.9c-0.25-0.77-0.11-1.49,0.41-2.16l4.42-5.43h-15.09v-4h15.78
		c-0.18-0.43-0.41-0.98-0.67-1.66c-0.26-0.67-0.45-1.23-0.57-1.66h7.68c0.15,0.49,0.38,1.07,0.67,1.75c0.29,0.67,0.56,1.2,0.81,1.56
		h15.27v4H163.48z M144.81,19.76c-1.23-2.09-2.22-4.26-2.99-6.53h6.35c0.86,2.27,1.93,4.45,3.22,6.53H144.81z M164.27,23.6
		c-0.18-0.63-0.32-1.14-0.41-1.54l-3.22,3.13h4.14C164.62,24.76,164.45,24.23,164.27,23.6z M179.35,16.68
		c-0.46,1.13-0.98,2.19-1.56,3.17h-6.76c0.61-1.04,1.2-2.14,1.75-3.29c0.55-1.15,0.98-2.25,1.29-3.29h6.49
		C180.21,14.41,179.81,15.54,179.35,16.68z M174.89,29.19c-0.61-1.26-1.18-2.51-1.7-3.75c-0.52-1.24-0.97-2.54-1.33-3.89h6.49
		c0.89,2.64,2.02,5.18,3.4,7.64H174.89z"/>
	<path class="st1" d="M209.81,28.59c-0.71,1.78-1.79,3.13-3.27,4.05h-3.73c0.71-0.43,1.42-0.94,2.14-1.54
		c0.72-0.6,1.34-1.28,1.86-2.05c0.61-0.86,0.97-1.78,1.06-2.76h-4.14v-6.81h6.99v3.73C210.73,25.23,210.42,27.03,209.81,28.59z"/>
	<path class="st1" d="M252.26,43.73c-0.34,0.43-0.75,0.77-1.24,1.04c-0.49,0.26-0.98,0.39-1.47,0.39h-5.93l-1.33-4.19h3.68
		c0.15,0,0.32-0.08,0.51-0.23c0.18-0.15,0.28-0.32,0.28-0.51V17.28c0-0.18-0.1-0.38-0.3-0.58c-0.2-0.2-0.41-0.3-0.62-0.3h-2.62v8.51
		c0,3.34-0.26,6.74-0.78,10.19s-1.43,6.8-2.71,10.05h-7.27c0.71-1.56,1.3-3.21,1.79-4.95c0.49-1.73,0.9-3.48,1.22-5.24
		c0.32-1.76,0.55-3.5,0.69-5.22c0.14-1.72,0.21-3.33,0.21-4.83V16.4h-3.36v-4.28h3.36V4.44h6.85v7.68h5.66
		c1.32,0,2.36,0.37,3.13,1.1c0.86,0.77,1.29,1.81,1.29,3.13v25.07C253.28,42.22,252.94,42.99,252.26,43.73z M272.89,42.48
		c-0.23,0.46-0.54,0.86-0.94,1.2c-0.83,0.67-1.83,1.01-2.99,1.01h-9.75c-0.55,0-1.08-0.11-1.59-0.32c-0.51-0.21-0.93-0.54-1.26-0.97
		c-0.34-0.37-0.6-0.79-0.78-1.26c-0.18-0.48-0.28-1.02-0.28-1.63V10.38c0-0.86,0.32-1.64,0.97-2.35c0.74-0.83,1.62-1.24,2.67-1.24
		h10.26c1.2,0,2.18,0.38,2.94,1.15c0.74,0.8,1.1,1.78,1.1,2.94v30.04C273.24,41.5,273.12,42.02,272.89,42.48z M266.8,12.03
		c0-0.15-0.09-0.33-0.28-0.53c-0.18-0.2-0.37-0.3-0.55-0.3h-3.45c-0.22,0-0.41,0.09-0.6,0.28c-0.18,0.18-0.28,0.37-0.28,0.55v27.6
		c0,0.18,0.09,0.36,0.28,0.53c0.18,0.17,0.38,0.25,0.6,0.25h3.45c0.21,0,0.41-0.09,0.58-0.28c0.17-0.18,0.25-0.35,0.25-0.51V12.03z"
		/>
	<path class="st1" d="M289.92,12.38c-0.94,2.65-2.02,5.3-3.24,7.94h1.89v24.7h-6.99v-23h-3.36c1.47-2.79,2.77-5.68,3.89-8.67
		c1.12-2.99,2.15-5.99,3.11-8.99h7.18C291.67,7.05,290.85,9.72,289.92,12.38z M290.26,26.29v-4.23h16.05
		c0.55-1.32,1.03-2.61,1.45-3.89c0.41-1.27,0.77-2.6,1.08-3.98h6.99c-0.34,1.38-0.7,2.71-1.08,4c-0.38,1.29-0.84,2.58-1.36,3.86
		h6.26v4.23H290.26z M291.96,12.45V8.31h9.57c-0.18-0.64-0.38-1.29-0.58-1.93c-0.2-0.64-0.33-1.3-0.39-1.98h7.45
		c0.12,0.67,0.28,1.33,0.48,1.98c0.2,0.64,0.42,1.29,0.67,1.93h9.2v4.14H291.96z M316.2,43.45c-0.34,0.4-0.75,0.71-1.24,0.94
		c-0.49,0.23-1.07,0.34-1.75,0.34h-15.82c-1.41,0-2.51-0.43-3.31-1.29c-0.74-0.8-1.1-1.84-1.1-3.13v-6.81
		c0-1.38,0.32-2.44,0.97-3.17c0.74-0.89,1.9-1.33,3.5-1.33h15.92c0.52,0,1.01,0.12,1.47,0.35c0.46,0.23,0.87,0.51,1.24,0.85
		c0.34,0.37,0.61,0.78,0.83,1.24s0.32,0.94,0.32,1.43v7.36C317.22,41.52,316.88,42.59,316.2,43.45z M296.61,20.96
		c-0.49-1.07-0.91-2.18-1.27-3.31s-0.65-2.28-0.9-3.45h7.04c0.31,1.17,0.65,2.31,1.03,3.43c0.38,1.12,0.81,2.23,1.27,3.33H296.61z
		 M310.41,34.02c0-0.25-0.08-0.44-0.23-0.58s-0.35-0.21-0.6-0.21h-9.15c-0.18,0-0.35,0.08-0.51,0.23s-0.23,0.34-0.23,0.55v5.8
		c0,0.15,0.08,0.31,0.25,0.48c0.17,0.17,0.33,0.25,0.48,0.25h8.97c0.28,0,0.51-0.08,0.71-0.23c0.2-0.15,0.3-0.35,0.3-0.6V34.02z"/>
	<path class="st1" d="M324.94,12.35V8.26h4.23c-0.25-0.61-0.47-1.27-0.67-1.96c-0.2-0.69-0.38-1.37-0.53-2.05h6.53
		c0.09,0.61,0.25,1.28,0.48,2c0.23,0.72,0.45,1.39,0.67,2h3.31v4.09H324.94z M338.01,43.01c-0.18,0.35-0.43,0.67-0.74,0.94
		c-0.25,0.25-0.54,0.45-0.9,0.62c-0.35,0.17-0.7,0.25-1.04,0.25h-6.44c-0.37,0-0.72-0.07-1.06-0.21c-0.34-0.14-0.66-0.33-0.97-0.58
		c-0.4-0.31-0.71-0.67-0.94-1.08c-0.23-0.41-0.34-0.87-0.34-1.36v-8.97c0-0.98,0.31-1.78,0.92-2.39c0.64-0.71,1.49-1.06,2.53-1.06
		h5.89c1.01,0,1.84,0.35,2.48,1.06c0.58,0.58,0.87,1.33,0.87,2.25v9.38C338.28,42.28,338.19,42.66,338.01,43.01z M325.63,19.35
		v-4.14h12.6v4.14H325.63z M325.63,26.52v-4.14h12.6v4.14H325.63z M332.99,34.11c0-0.25-0.06-0.44-0.18-0.6
		c-0.12-0.15-0.28-0.23-0.46-0.23h-0.83c-0.25,0-0.42,0.08-0.53,0.25c-0.11,0.17-0.16,0.36-0.16,0.58v5.61
		c0,0.25,0.07,0.44,0.21,0.6c0.14,0.15,0.28,0.23,0.44,0.23h0.87c0.18,0,0.34-0.08,0.46-0.23c0.12-0.15,0.18-0.35,0.18-0.6V34.11z
		 M363.93,25.97c-0.81,2.67-1.76,5.17-2.83,7.5c0.15,1.32,0.31,2.49,0.46,3.52s0.32,2.08,0.51,3.15c0.06,0.25,0.18,0.44,0.34,0.57
		c0.17,0.14,0.38,0.21,0.62,0.21h2.85l-1.1,4.09h-4.55c-1.01,0-1.86-0.26-2.53-0.78c-0.37-0.31-0.67-0.76-0.9-1.36
		c-0.23-0.6-0.42-1.17-0.58-1.72c-0.37,0.52-0.7,1-0.99,1.45c-0.29,0.44-0.67,0.94-1.13,1.5h-5.38c1.41-1.53,2.61-3.04,3.59-4.53
		c0.98-1.49,1.9-3.11,2.76-4.85c-0.43-3.16-0.78-6.31-1.06-9.45c-0.28-3.14-0.51-6.31-0.69-9.5h-6.81c-0.18,0-0.38,0.08-0.6,0.25
		c-0.21,0.17-0.32,0.36-0.32,0.57v3.59h3.31c1.26,0,2.18,0.31,2.76,0.92c0.52,0.58,0.78,1.4,0.78,2.44v13.62
		c0,0.74-0.25,1.38-0.74,1.93c-0.25,0.31-0.55,0.55-0.92,0.74c-0.37,0.18-0.77,0.28-1.2,0.28h-2.81L346.01,36h1.15
		c0.25,0,0.42-0.08,0.53-0.23c0.11-0.15,0.16-0.34,0.16-0.55V24.96c0-0.43-0.21-0.64-0.64-0.64h-1.61v9.15
		c0,0.86-0.02,1.81-0.07,2.85c-0.05,1.04-0.14,2.09-0.28,3.13c-0.14,1.04-0.33,2.05-0.58,3.04s-0.57,1.82-0.97,2.53h-5.52
		c0.43-0.83,0.76-1.75,0.99-2.76c0.23-1.01,0.4-2.05,0.51-3.1c0.11-1.06,0.18-2.09,0.21-3.11c0.03-1.01,0.05-1.95,0.05-2.81V15.53
		c0-0.52,0.09-1.02,0.28-1.5c0.18-0.47,0.44-0.9,0.78-1.26c0.74-0.8,1.61-1.2,2.62-1.2h9.57c-0.06-1.17-0.12-2.36-0.16-3.59
		s-0.04-2.44,0.02-3.63h5.84c0,2.42,0.09,4.83,0.28,7.22h6.3v4.19h-6.03c0.03,1.38,0.1,2.86,0.21,4.44c0.11,1.58,0.24,3,0.39,4.25
		c0.34-1.07,0.66-2.18,0.97-3.31s0.54-2.16,0.69-3.08h4.32C365.44,20.66,364.74,23.3,363.93,25.97z M361.05,10.01
		c-0.25-0.8-0.44-1.63-0.6-2.51c-0.15-0.87-0.28-1.75-0.37-2.64h4.23c0.15,0.89,0.31,1.76,0.48,2.6c0.17,0.84,0.39,1.7,0.67,2.55
		H361.05z"/>
	<path class="st1" d="M379.11,40.18c-0.48,1.29-0.99,2.56-1.54,3.82h-7.18c0.64-1.23,1.25-2.49,1.82-3.79
		c0.57-1.3,1.08-2.61,1.54-3.93h6.58C379.99,37.59,379.58,38.9,379.11,40.18z M371.17,17.5v-3.5h8.46
		c-0.12-0.25-0.28-0.52-0.48-0.83c-0.2-0.31-0.39-0.62-0.58-0.94s-0.36-0.63-0.53-0.92c-0.17-0.29-0.3-0.54-0.39-0.76h-5.34V7.11
		h15.64c-0.18-0.31-0.41-0.74-0.69-1.29c-0.28-0.55-0.49-1.01-0.64-1.38h7.41c0.15,0.34,0.4,0.78,0.74,1.33
		c0.34,0.55,0.61,1,0.83,1.33h14.67v3.45h-5.43c-0.28,0.49-0.67,1.08-1.17,1.77c-0.51,0.69-0.93,1.25-1.26,1.68h8.92v3.5H371.17z
		 M408.87,30.57c-0.17,0.55-0.44,1.04-0.8,1.47c-0.68,0.77-1.66,1.15-2.94,1.15h-26.45c-0.67,0-1.31-0.05-1.91-0.16
		c-0.6-0.11-1.14-0.3-1.63-0.58c-0.52-0.31-0.94-0.73-1.26-1.26c-0.32-0.54-0.48-1.23-0.48-2.09v-5.75c0-1.29,0.38-2.28,1.15-2.99
		c0.71-0.71,1.69-1.06,2.94-1.06h27.19c1.29,0,2.36,0.38,3.22,1.15c0.83,0.77,1.24,1.78,1.24,3.04v5.29
		C409.12,29.42,409.04,30.02,408.87,30.57z M402.27,23.53c0-0.21-0.12-0.41-0.37-0.6c-0.25-0.18-0.48-0.28-0.69-0.28h-20.29
		c-0.52,0-0.78,0.23-0.78,0.69v1.2h22.13V23.53z M402.27,27.53h-22.13V29c0,0.18,0.08,0.38,0.25,0.58c0.17,0.2,0.34,0.3,0.53,0.3
		h20.61c0.49,0,0.74-0.31,0.74-0.92V27.53z M401.07,45.01h-13.89c-0.83,0-1.58-0.07-2.25-0.21c-0.67-0.14-1.26-0.38-1.75-0.71
		c-0.95-0.71-1.43-1.92-1.43-3.63v-5.89h6.67v5.66c0,0.28,0.1,0.5,0.3,0.67c0.2,0.17,0.42,0.25,0.67,0.25h13.39L401.07,45.01z
		 M385.2,10.56c0.34,0.61,0.69,1.21,1.06,1.79c0.37,0.58,0.75,1.13,1.15,1.66h7.27c0.43-0.46,0.89-1.04,1.38-1.73
		c0.49-0.69,0.87-1.26,1.15-1.72H385.2z M393.12,39.36c-0.52-0.74-0.97-1.5-1.36-2.3s-0.74-1.62-1.08-2.48h6.58
		c0.28,0.8,0.62,1.61,1.04,2.44c0.41,0.83,0.87,1.61,1.36,2.35H393.12z M404.98,44.14c-0.67-1.23-1.28-2.48-1.82-3.75
		c-0.54-1.27-0.99-2.58-1.36-3.93h6.76c0.4,1.35,0.89,2.68,1.47,3.98c0.58,1.3,1.27,2.54,2.07,3.7H404.98z"/>
</g>
<g class="st0">
	<path class="st1" d="M22.36,73.68c-1.79-0.52-3.44-1.29-4.98-2.31c-1.53-1.02-3.01-2.4-4.43-4.13c-0.3,0.8-0.69,1.51-1.18,2.14
		c-0.49,0.63-1.07,1.2-1.73,1.7c-0.73,0.55-1.55,1.04-2.46,1.46c-0.91,0.42-1.9,0.8-2.98,1.14H1.61c1.4-0.45,2.69-0.92,3.86-1.4
		c1.17-0.49,2.21-1.03,3.11-1.64c0.85-0.57,1.56-1.22,2.15-1.95c0.58-0.73,1.01-1.59,1.29-2.57H2.47v-0.96h9.75
		c0.05-0.26,0.09-0.53,0.1-0.81c0.02-0.28,0.03-0.56,0.03-0.86v-1.01H1.98v-0.96h10.37v-2.78H3.43v-0.96h8.92v-3.02H2.44v-0.96h6.86
		c-0.16-0.17-0.32-0.37-0.48-0.6c-0.17-0.23-0.33-0.46-0.48-0.69c-0.16-0.23-0.3-0.47-0.44-0.7c-0.14-0.23-0.26-0.45-0.36-0.64h1.33
		c0.17,0.36,0.44,0.79,0.79,1.29c0.35,0.49,0.71,0.94,1.05,1.34h4.63c0.36-0.4,0.71-0.83,1.04-1.29c0.33-0.46,0.59-0.91,0.78-1.34
		h1.3c-0.28,0.59-0.56,1.09-0.86,1.51c-0.29,0.42-0.59,0.79-0.88,1.12h6.92v0.96H13.55v3.02h9.2v0.96h-9.18v2.78h10.69v0.96H13.57
		v0.94c0,0.31-0.01,0.61-0.03,0.9c-0.02,0.29-0.04,0.57-0.08,0.85h10.37v0.96H13.29c-0.04,0.12-0.06,0.24-0.09,0.35
		c-0.03,0.11-0.06,0.22-0.09,0.33h0.86c0.75,0.8,1.5,1.52,2.26,2.17c0.76,0.65,1.58,1.25,2.46,1.81c0.88,0.56,1.82,1.07,2.83,1.55
		c1.01,0.48,2.14,0.93,3.37,1.36H22.36z"/>
	<path class="st1" d="M50.31,73.68h-5.69c-0.8,0-1.42-0.21-1.87-0.62c-0.21-0.21-0.37-0.47-0.49-0.78
		c-0.12-0.31-0.18-0.67-0.18-1.07V60.24h-5.93v3.17c0,1.51-0.14,2.78-0.42,3.81c-0.28,1.03-0.68,1.94-1.2,2.72
		c-0.55,0.82-1.23,1.5-2.03,2.07c-0.8,0.56-1.71,1.12-2.73,1.68h-2.05c0.71-0.42,1.37-0.81,1.96-1.17c0.6-0.36,1.13-0.72,1.61-1.08
		c0.48-0.35,0.91-0.71,1.29-1.07c0.38-0.36,0.71-0.73,0.99-1.13c0.5-0.69,0.86-1.5,1.08-2.42c0.22-0.92,0.33-2.05,0.33-3.41v-3.17
		h-7.02v-1.01h22.49v1.01h-7.18v10.95c0,0.45,0.09,0.8,0.26,1.05s0.5,0.38,0.99,0.38h6.21L50.31,73.68z M29.43,52.54v-1.01h19.68
		v1.01H29.43z"/>
	<path class="st1" d="M65.16,66.4c-0.02,0.83-0.16,1.56-0.42,2.2c-0.26,0.63-0.62,1.17-1.07,1.62c-0.52,0.5-1.15,0.89-1.9,1.16
		s-1.58,0.42-2.5,0.46c-0.81,0.04-1.6-0.06-2.37-0.27c-0.76-0.22-1.42-0.55-1.98-1c-0.47-0.4-0.88-0.92-1.22-1.57
		c-0.35-0.65-0.62-1.41-0.83-2.28h1.35c0.14,0.5,0.33,1.04,0.58,1.6c0.25,0.56,0.58,1.02,0.98,1.37c0.4,0.35,0.9,0.61,1.5,0.78
		c0.6,0.17,1.22,0.27,1.86,0.29c1.47,0.02,2.61-0.34,3.41-1.07c0.76-0.75,1.16-1.84,1.2-3.28c0.02-0.52-0.05-1.03-0.21-1.52
		c-0.16-0.49-0.42-0.94-0.78-1.34c-0.71-0.75-1.72-1.12-3.02-1.12h-2.68v-1.07h2.68c0.5,0,0.95-0.08,1.35-0.23
		c0.4-0.16,0.75-0.37,1.04-0.65c0.36-0.35,0.63-0.75,0.79-1.22c0.16-0.47,0.23-0.95,0.19-1.46s-0.16-0.98-0.36-1.43
		s-0.5-0.84-0.88-1.17c-0.42-0.36-0.9-0.64-1.46-0.83s-1.16-0.25-1.82-0.18c-0.61,0.07-1.19,0.24-1.74,0.52s-1.01,0.66-1.35,1.14
		c-0.24,0.35-0.46,0.75-0.65,1.21c-0.19,0.46-0.38,0.97-0.57,1.52h-1.35c0.21-0.75,0.45-1.41,0.71-2c0.27-0.59,0.58-1.11,0.95-1.56
		c0.45-0.54,1-0.96,1.66-1.26c0.66-0.3,1.36-0.5,2.11-0.58c0.78-0.09,1.54-0.04,2.27,0.14c0.74,0.18,1.39,0.48,1.96,0.9
		c0.45,0.33,0.83,0.73,1.13,1.21s0.52,1.02,0.64,1.62c0.09,0.5,0.09,1.01,0.01,1.51c-0.08,0.5-0.24,0.97-0.48,1.4
		c-0.26,0.45-0.62,0.85-1.07,1.2s-0.98,0.6-1.59,0.75c1.32,0.21,2.31,0.72,2.96,1.53c0.29,0.36,0.53,0.79,0.7,1.29
		C65.1,65.22,65.17,65.78,65.16,66.4z"/>
	<path class="st1" d="M72.54,55.07c-0.56,1.16-1.16,2.29-1.82,3.38h0.96v15.24h-1.2V58.81c-0.24,0.4-0.49,0.79-0.75,1.16
		c-0.26,0.37-0.53,0.76-0.81,1.16h-1.35c1.21-1.66,2.24-3.28,3.09-4.86c0.85-1.58,1.54-3.28,2.08-5.1h1.3
		C73.6,52.6,73.09,53.9,72.54,55.07z M89.13,73.06c-0.43,0.43-0.99,0.65-1.66,0.65H76.83c-0.4,0-0.74-0.07-1.03-0.2
		c-0.29-0.13-0.52-0.3-0.72-0.51c-0.24-0.24-0.42-0.52-0.52-0.84s-0.16-0.65-0.16-0.98V54.05c0-0.76,0.21-1.36,0.62-1.79
		c0.45-0.5,1.05-0.75,1.79-0.75h10.56c0.74,0,1.34,0.23,1.79,0.68c0.45,0.45,0.68,1.08,0.68,1.87v17.08
		C89.86,71.96,89.61,72.61,89.13,73.06z M88.69,53.74c0-0.43-0.11-0.75-0.33-0.94c-0.22-0.19-0.5-0.29-0.84-0.29H76.75
		c-0.36,0-0.65,0.11-0.86,0.33s-0.31,0.52-0.31,0.9v17.71c0,0.4,0.11,0.71,0.33,0.92c0.22,0.22,0.5,0.33,0.84,0.33h10.79
		c0.35,0,0.62-0.11,0.83-0.34c0.21-0.23,0.31-0.51,0.31-0.86V53.74z M82.71,58.34v3.95h1.04c0.43,0,0.8,0.08,1.09,0.25
		s0.54,0.37,0.73,0.61c0.19,0.24,0.33,0.52,0.43,0.83c0.1,0.31,0.14,0.62,0.14,0.91v2.73c0,0.38-0.05,0.73-0.16,1.04
		c-0.1,0.31-0.25,0.58-0.44,0.81c-0.42,0.5-1,0.75-1.74,0.75h-3.28c-0.78,0-1.39-0.26-1.82-0.78c-0.4-0.49-0.6-1.1-0.6-1.85v-2.68
		c0-0.73,0.2-1.33,0.6-1.82c0.19-0.24,0.43-0.44,0.73-0.58c0.29-0.15,0.64-0.22,1.04-0.22h1.04v-3.95h-4.39v-1.01h4.39v-3.74h1.2
		v3.74h4.47v1.01H82.71z M84.94,64.5c0-0.35-0.12-0.63-0.36-0.86c-0.24-0.22-0.56-0.34-0.94-0.34H80.5c-0.4,0-0.7,0.14-0.9,0.42
		c-0.2,0.28-0.3,0.59-0.3,0.94v3.22c0,0.4,0.12,0.72,0.35,0.98c0.23,0.25,0.52,0.38,0.87,0.38h3.25c0.35,0,0.63-0.13,0.85-0.38
		c0.22-0.25,0.32-0.58,0.32-0.98V64.5z"/>
	<path class="st1" d="M114.48,72.93c-0.43,0.52-1.07,0.78-1.92,0.78h-4.63l-0.49-1.04h5.15c0.43,0,0.76-0.14,0.98-0.42
		c0.22-0.28,0.32-0.62,0.32-1.01v-4.86H97.37c-0.09,0.66-0.2,1.29-0.35,1.88c-0.15,0.6-0.33,1.19-0.53,1.78
		c-0.21,0.59-0.45,1.18-0.73,1.78c-0.28,0.6-0.59,1.22-0.94,1.86h-1.35c0.52-0.94,0.96-1.81,1.31-2.63
		c0.35-0.81,0.65-1.62,0.88-2.42c0.23-0.8,0.4-1.62,0.51-2.46c0.1-0.84,0.16-1.74,0.16-2.69v-9c0-0.92,0.19-1.6,0.57-2.05
		c0.47-0.59,1.28-0.88,2.44-0.88h13.13c0.47,0,0.86,0.07,1.18,0.22c0.32,0.15,0.58,0.35,0.79,0.61c0.23,0.26,0.39,0.57,0.48,0.92
		c0.1,0.36,0.14,0.75,0.14,1.18v16.56C115.08,71.85,114.88,72.48,114.48,72.93z M113.88,59.49H97.53v4.03c0,0.33,0,0.65-0.01,0.95
		c-0.01,0.3-0.02,0.6-0.04,0.9h16.41V59.49z M113.88,54.31c0-0.43-0.1-0.83-0.3-1.18c-0.2-0.36-0.55-0.53-1.05-0.53H99.22
		c-0.5,0-0.91,0.17-1.22,0.49s-0.47,0.74-0.47,1.22v4.16h16.35V54.31z"/>
	<path class="st1" d="M142.09,73.68h-10.06c-0.64,0-1.29-0.08-1.95-0.25c-0.66-0.16-1.31-0.39-1.95-0.69
		c-0.85-0.4-1.65-0.89-2.39-1.47c-0.75-0.58-1.39-1.21-1.92-1.89c-0.75,1.53-1.65,2.96-2.7,4.29h-1.35
		c0.61-0.76,1.18-1.57,1.73-2.43c0.55-0.86,1.04-1.75,1.5-2.69c0.45-0.92,0.85-1.83,1.2-2.74c0.35-0.91,0.62-1.81,0.83-2.69h1.22
		c-0.24,0.87-0.52,1.73-0.83,2.6c-0.31,0.87-0.67,1.73-1.07,2.6c0.36,0.49,0.81,0.97,1.35,1.47c0.54,0.49,1.13,0.95,1.77,1.37
		c0.5,0.33,1.02,0.62,1.55,0.86c0.53,0.24,1.05,0.42,1.57,0.52V60.81h-10.09V59.8h21.37v1.01h-10.09v4.29h9.2v1.01h-9.2v6.55h10.84
		L142.09,73.68z M140.43,58.47v-2.5c0-0.31-0.1-0.59-0.31-0.83c-0.21-0.24-0.5-0.36-0.88-0.36h-16.17c-0.35,0-0.63,0.12-0.85,0.36
		c-0.22,0.24-0.32,0.52-0.32,0.83v2.5h-1.2v-2.31c0-0.68,0.2-1.23,0.6-1.66c0.21-0.23,0.46-0.4,0.74-0.53
		c0.29-0.13,0.61-0.2,0.97-0.2h7.77c-0.26-0.38-0.52-0.78-0.78-1.21c-0.26-0.42-0.51-0.89-0.75-1.39h1.3
		c0.19,0.4,0.44,0.84,0.74,1.33c0.3,0.49,0.62,0.91,0.95,1.27h6.94c0.68,0,1.23,0.17,1.66,0.49c0.52,0.42,0.78,1.01,0.78,1.77v2.44
		H140.43z"/>
	<path class="st1" d="M153.22,55.74c-0.5,1-1.06,1.99-1.68,2.95s-1.26,1.88-1.94,2.74h0.88v12.27h-1.2V61.8
		c-0.8,0.99-1.6,1.84-2.42,2.55h-1.61c0.57-0.55,1.16-1.16,1.75-1.81s1.18-1.34,1.75-2.07c0.57-0.73,1.12-1.49,1.64-2.29
		c0.52-0.8,1-1.61,1.43-2.44h-5.98v-1.07h6.53c0.55-1.14,0.99-2.31,1.3-3.51h1.33c-0.31,1.16-0.75,2.33-1.3,3.51h14.64v1.07H153.22z
		 M160.94,66.5v5.07c0,0.71-0.21,1.26-0.62,1.64c-0.4,0.33-0.96,0.49-1.69,0.49h-2.52l-0.6-1.01h3.28c0.64,0,0.96-0.32,0.96-0.96
		V66.5h-7.98v-1.07h7.98v-2.03c1.11-0.55,2.13-1.11,3.05-1.66s1.62-1.03,2.09-1.43c0.05-0.04,0.07-0.09,0.05-0.17
		c-0.02-0.08-0.08-0.12-0.18-0.12h-10.63v-1.07h11.21c0.26,0,0.48,0.06,0.65,0.17c0.17,0.11,0.3,0.25,0.39,0.4
		c0.09,0.19,0.1,0.39,0.05,0.6c-0.05,0.21-0.17,0.41-0.36,0.6c-0.21,0.21-0.51,0.45-0.9,0.71s-0.82,0.55-1.3,0.84
		c-0.48,0.29-0.97,0.58-1.48,0.87s-0.99,0.54-1.44,0.77v1.51h7.38v1.07H160.94z"/>
	<path class="st1" d="M184.05,68.51v3.17c0,0.68-0.19,1.2-0.57,1.56c-0.36,0.33-0.86,0.49-1.48,0.49h-2.7l-0.65-0.88h2.99
		c0.38,0,0.68-0.1,0.91-0.31s0.34-0.51,0.34-0.91v-3.12h-10.84V67.6h10.84v-1.07c0.54-0.12,1.13-0.28,1.78-0.48s1.3-0.42,1.94-0.65
		c0.64-0.23,1.25-0.48,1.82-0.74c0.57-0.26,1.06-0.51,1.46-0.75H174.2v-0.88h16.25c0.29,0,0.51,0.07,0.64,0.22s0.19,0.32,0.17,0.51
		c-0.05,0.33-0.23,0.57-0.52,0.73c-0.43,0.26-0.93,0.52-1.48,0.78s-1.12,0.51-1.7,0.74c-0.58,0.23-1.17,0.45-1.77,0.64
		c-0.6,0.19-1.17,0.36-1.73,0.49v0.47h10.76v0.91H184.05z M172.09,54.44v-0.91h10.76c-0.29-0.29-0.59-0.67-0.88-1.12
		c-0.29-0.45-0.56-0.88-0.81-1.27h1.4c0.19,0.35,0.47,0.75,0.83,1.21c0.36,0.46,0.7,0.85,1.01,1.18h9.8v0.91H172.09z M191.33,60.79
		c-0.19,0.19-0.44,0.32-0.75,0.39s-0.7,0.1-1.17,0.1h-12.35c-0.95,0-1.61-0.21-1.98-0.62c-0.31-0.35-0.47-0.87-0.47-1.56v-0.83
		c0-0.69,0.2-1.2,0.6-1.53c0.4-0.35,1.01-0.52,1.85-0.52h12.35c0.85,0,1.47,0.17,1.87,0.52c0.38,0.35,0.57,0.86,0.57,1.53v0.83
		C191.85,59.89,191.68,60.46,191.33,60.79z M190.66,58.16c0-0.29-0.09-0.54-0.27-0.74c-0.18-0.2-0.43-0.3-0.74-0.3h-12.71
		c-0.38,0-0.66,0.1-0.85,0.3s-0.27,0.45-0.27,0.74v1.25c0,0.29,0.08,0.53,0.25,0.7c0.16,0.17,0.42,0.26,0.77,0.26h12.82
		c0.31,0,0.56-0.08,0.74-0.25c0.18-0.17,0.27-0.4,0.27-0.71V58.16z"/>
</g>
<g class="st0">
	<path class="st1" d="M208.39,63.88c-0.71,0-1.25-0.25-1.61-0.75c-0.28-0.38-0.42-0.86-0.42-1.43v-5.41h-1.14
		c0.4-0.87,0.76-1.74,1.09-2.63c0.33-0.88,0.62-1.79,0.88-2.73h3.15c-0.09,0.35-0.19,0.68-0.3,1.01c-0.11,0.33-0.24,0.65-0.38,0.96
		h1.56c-0.09-0.31-0.18-0.64-0.27-0.97s-0.17-0.67-0.22-1h3.17c0.09,0.28,0.19,0.62,0.33,1.01c0.13,0.4,0.24,0.72,0.32,0.96h1.87
		v1.98h-2.18v1.14h1.79v1.77h-1.79v1.14h1.85v1.79h-1.85v1.22h2.34v1.92H208.39z M221.28,73.97c-0.66-0.29-1.33-0.58-2-0.87
		s-1.38-0.58-2.11-0.87c-0.73,0.29-1.43,0.58-2.12,0.86c-0.69,0.28-1.42,0.54-2.2,0.78h-7.38c1.47-0.52,2.9-1.04,4.29-1.56
		c1.39-0.52,2.76-1.08,4.13-1.69c-0.73-0.4-1.5-0.85-2.3-1.35c-0.81-0.5-1.62-1.03-2.46-1.59h5.62c0.35,0.21,0.74,0.44,1.17,0.69
		c0.43,0.25,0.82,0.46,1.17,0.64c0.71-0.29,1.39-0.6,2.04-0.92c0.65-0.32,1.32-0.7,2.02-1.13h-14.07v-2.05h18.62
		c0.28,0,0.51,0.08,0.7,0.23c0.19,0.16,0.33,0.35,0.42,0.57c0.09,0.23,0.12,0.46,0.09,0.71c-0.03,0.25-0.15,0.46-0.38,0.61
		c-0.36,0.28-0.82,0.58-1.38,0.92s-1.12,0.67-1.7,1c-0.58,0.33-1.14,0.64-1.69,0.92c-0.55,0.29-1,0.52-1.37,0.69
		c1.39,0.61,2.77,1.19,4.16,1.74c1.39,0.55,2.82,1.11,4.29,1.66H221.28z M211.06,54.88h-1.46v1.14h1.46V54.88z M211.06,57.79h-1.46
		v1.14h1.46V57.79z M211.06,60.73h-1.46v0.75c0,0.14,0.04,0.25,0.13,0.34c0.09,0.09,0.2,0.13,0.34,0.13h0.99V60.73z M218.97,63.88
		c-0.29,0-0.55-0.06-0.77-0.18s-0.4-0.28-0.56-0.47c-0.29-0.38-0.44-0.83-0.44-1.35v-5.56h-0.94c0.38-0.88,0.74-1.76,1.08-2.64
		c0.34-0.88,0.63-1.78,0.87-2.72h3.09c-0.09,0.28-0.19,0.61-0.31,0.99c-0.12,0.38-0.23,0.69-0.34,0.94h1.82
		c-0.14-0.29-0.27-0.61-0.39-0.95s-0.23-0.67-0.31-1H225c0.09,0.31,0.19,0.63,0.31,0.96c0.12,0.33,0.27,0.66,0.44,0.99h2.42v2h-2.73
		v1.14h2.18v1.77h-2.18v1.17h2.18v1.77h-2.18v1.22h2.96v1.92H218.97z M222.24,54.88h-1.79v1.14h1.79V54.88z M222.24,57.79h-1.79
		v1.17h1.79V57.79z M222.24,60.73h-1.79v0.7c0,0.17,0.05,0.3,0.16,0.39c0.1,0.09,0.23,0.13,0.39,0.13h1.25V60.73z"/>
	<path class="st1" d="M237.81,55.44c-0.53,1.5-1.14,2.99-1.83,4.49h1.07v13.96h-3.95v-13h-1.9c0.83-1.58,1.56-3.21,2.2-4.9
		c0.63-1.69,1.22-3.38,1.76-5.08h4.06C238.8,52.43,238.33,53.94,237.81,55.44z M238,63.31v-2.39h9.07c0.31-0.75,0.58-1.48,0.82-2.2
		c0.23-0.72,0.44-1.47,0.61-2.25h3.95c-0.19,0.78-0.39,1.53-0.61,2.26c-0.22,0.73-0.47,1.46-0.77,2.18h3.54v2.39H238z M238.96,55.48
		v-2.34h5.41c-0.1-0.36-0.21-0.73-0.33-1.09c-0.11-0.36-0.19-0.74-0.22-1.12h4.21c0.07,0.38,0.16,0.75,0.27,1.12
		c0.11,0.36,0.24,0.73,0.38,1.09h5.2v2.34H238.96z M252.66,73c-0.19,0.23-0.42,0.4-0.7,0.53s-0.61,0.2-0.99,0.2h-8.94
		c-0.8,0-1.42-0.24-1.87-0.73c-0.42-0.45-0.62-1.04-0.62-1.77v-3.85c0-0.78,0.18-1.38,0.55-1.79c0.42-0.5,1.07-0.75,1.98-0.75h9
		c0.29,0,0.57,0.06,0.83,0.19c0.26,0.13,0.49,0.29,0.7,0.48c0.19,0.21,0.35,0.44,0.47,0.7c0.12,0.26,0.18,0.53,0.18,0.81v4.16
		C253.24,71.91,253.04,72.52,252.66,73z M241.59,60.29c-0.28-0.61-0.52-1.23-0.71-1.87c-0.2-0.64-0.37-1.29-0.51-1.95h3.98
		c0.17,0.66,0.37,1.3,0.58,1.94s0.46,1.26,0.72,1.88H241.59z M249.39,67.68c0-0.14-0.04-0.25-0.13-0.33s-0.2-0.12-0.34-0.12h-5.17
		c-0.1,0-0.2,0.04-0.29,0.13s-0.13,0.19-0.13,0.31v3.28c0,0.09,0.05,0.18,0.14,0.27c0.09,0.09,0.19,0.14,0.27,0.14h5.07
		c0.16,0,0.29-0.04,0.4-0.13c0.11-0.09,0.17-0.2,0.17-0.34V67.68z"/>
</g>
<g class="st0">
	<path class="st1" d="M272.4,67.05v6.71h-1.2v-6.71h-11.44v-1.01h3.12v-4.32c0-0.83,0.2-1.47,0.6-1.92
		c0.43-0.49,1.07-0.73,1.92-0.73h5.8v-4.55h-7.41c-0.45,0.78-0.93,1.53-1.44,2.26c-0.51,0.73-1.07,1.45-1.68,2.16h-1.46
		c1.2-1.35,2.24-2.71,3.12-4.07c0.88-1.36,1.53-2.61,1.92-3.76h1.2c-0.17,0.4-0.36,0.8-0.55,1.2c-0.19,0.4-0.38,0.8-0.57,1.2h17.71
		v1.01h-9.65v4.55l8.48-0.03v1.01h-8.48v5.98h9.91v1.01H272.4z M271.21,60.06l-5.69,0.03c-0.45,0-0.81,0.13-1.07,0.4
		s-0.39,0.62-0.39,1.05v4.5h7.15V60.06z"/>
	<path class="st1" d="M288.64,65.63c-0.44,1.85-1.11,3.78-1.99,5.81h-1.09c0.45-1.08,0.84-2.09,1.16-3.06
		c0.32-0.96,0.6-1.9,0.83-2.82c0.23-0.92,0.43-1.83,0.58-2.73c0.16-0.9,0.29-1.83,0.39-2.78h1.07
		C289.4,61.93,289.08,63.79,288.64,65.63z M292.79,58.32v15.42h-1.2V58.32h-5.85v-1.04h5.85v-4.16c-0.88,0.12-1.78,0.24-2.68,0.35
		c-0.9,0.11-1.79,0.22-2.68,0.33v-1.07c0.97-0.1,1.9-0.21,2.79-0.32c0.89-0.11,1.79-0.24,2.7-0.38s1.84-0.29,2.79-0.47
		c0.95-0.17,1.98-0.37,3.07-0.6V52c-0.73,0.19-1.49,0.36-2.3,0.51c-0.81,0.15-1.64,0.29-2.51,0.43v4.34h6.01v1.04H292.79z
		 M297.93,71.45c-0.88-2.03-1.55-3.96-1.99-5.81c-0.44-1.85-0.76-3.71-0.95-5.58h1.07c0.1,0.95,0.23,1.88,0.39,2.78
		s0.35,1.81,0.58,2.73s0.51,1.86,0.83,2.82c0.32,0.96,0.71,1.98,1.16,3.06H297.93z M300.85,67.96V52.88h1.2v15.08H300.85z
		 M307.68,71.05c0,0.36-0.04,0.71-0.12,1.04c-0.08,0.33-0.21,0.62-0.4,0.86c-0.43,0.52-1.12,0.78-2.05,0.78h-2.37l-0.44-1.01h2.91
		c0.85,0,1.27-0.4,1.27-1.2V51.19h1.2V71.05z"/>
	<path class="st1" d="M323.67,68.51v5.17h-1.2v-5.17h-10.84v-1.01h10.84v-1.59h1.2v1.59h10.66v1.01H323.67z M315.67,63.37
		c-0.73,0.82-1.46,1.53-2.18,2.12h-1.53c0.99-0.81,1.83-1.61,2.54-2.38s1.35-1.56,1.94-2.35h1.3
		C317.08,61.68,316.39,62.55,315.67,63.37z M315.77,59.69c-0.68-0.55-1.32-1.14-1.94-1.77s-1.17-1.29-1.68-2h1.27
		c0.33,0.38,0.62,0.72,0.88,1.01c0.26,0.29,0.53,0.58,0.82,0.85s0.6,0.55,0.95,0.86c0.35,0.3,0.76,0.66,1.25,1.05H315.77z
		 M312.36,54.42V53.4h10.66c-0.24-0.33-0.47-0.7-0.69-1.11s-0.4-0.78-0.56-1.13h1.25c0.14,0.28,0.33,0.63,0.58,1.07
		c0.25,0.43,0.5,0.82,0.74,1.17h9.46v1.01H312.36z M327.37,65.46c-0.14-0.17-0.29-0.35-0.44-0.55c-0.16-0.19-0.31-0.38-0.47-0.57
		l-0.57,0.83h-7.36c-0.19,0-0.35-0.05-0.47-0.16c-0.12-0.1-0.2-0.23-0.23-0.36c-0.04-0.14-0.03-0.29,0.03-0.46
		c0.05-0.17,0.17-0.32,0.36-0.46c0.83-0.57,1.69-1.2,2.57-1.88s1.74-1.39,2.57-2.12h-4.55c-0.36,0-0.57-0.12-0.62-0.36
		c-0.07-0.28,0.02-0.52,0.26-0.73c0.76-0.59,1.53-1.21,2.31-1.86c0.78-0.65,1.47-1.26,2.08-1.83h1.59c-0.28,0.26-0.61,0.56-1,0.91
		c-0.39,0.35-0.8,0.7-1.23,1.07c-0.43,0.36-0.85,0.72-1.26,1.05c-0.41,0.34-0.77,0.62-1.08,0.84h4.52c0.35-0.29,0.67-0.59,0.96-0.88
		s0.57-0.58,0.83-0.86h1.53c-0.47,0.49-1.05,1.05-1.74,1.7s-1.43,1.31-2.21,1.98c-0.78,0.67-1.56,1.31-2.35,1.92
		c-0.79,0.62-1.51,1.15-2.17,1.6h7.18c-0.35-0.45-0.69-0.92-1.04-1.42s-0.68-1.02-0.99-1.57h1.25c0.4,0.66,0.85,1.33,1.35,2
		c0.5,0.68,1.08,1.4,1.74,2.16H327.37z M332.64,65.49c-0.73-0.59-1.46-1.3-2.18-2.12c-0.73-0.82-1.41-1.69-2.05-2.61h1.3
		c0.59,0.8,1.24,1.58,1.94,2.35c0.7,0.77,1.55,1.56,2.53,2.38H332.64z M332.14,57.92c-0.62,0.62-1.26,1.21-1.94,1.77h-1.56
		c0.5-0.4,0.92-0.75,1.26-1.05c0.34-0.3,0.65-0.59,0.94-0.86s0.56-0.55,0.82-0.85c0.26-0.29,0.55-0.63,0.88-1.01h1.27
		C333.31,56.63,332.75,57.3,332.14,57.92z"/>
</g>
</svg>
