<?xml version="1.0" encoding="utf-8"?>
<!-- Generator: Adobe Illustrator 24.0.1, SVG Export Plug-In . SVG Version: 6.00 Build 0)  -->
<svg version="1.1" id="圖層_1" xmlns="http://www.w3.org/2000/svg" xmlns:xlink="http://www.w3.org/1999/xlink" x="0px" y="0px"
	 viewBox="0 0 327 79.25" style="enable-background:new 0 0 327 79.25;" xml:space="preserve">
<style type="text/css">
	.st0{enable-background:new    ;}
	.st1{fill:#0F90C9;}
</style>
<g class="st0">
	<path class="st1" d="M7.16,20.61c-0.98,0-1.73-0.35-2.23-1.04c-0.38-0.53-0.58-1.19-0.58-1.98V10.1H2.76
		c0.55-1.2,1.06-2.41,1.51-3.64C4.73,5.24,5.14,3.98,5.5,2.69h4.36C9.74,3.17,9.6,3.63,9.44,4.09c-0.16,0.46-0.33,0.9-0.52,1.33
		h2.16c-0.12-0.43-0.25-0.88-0.38-1.35c-0.13-0.47-0.23-0.93-0.31-1.39h4.39c0.12,0.38,0.27,0.85,0.45,1.4
		c0.18,0.55,0.33,1,0.45,1.33h2.59v2.74h-3.02v1.58h2.48v2.45h-2.48v1.58h2.56v2.48h-2.56v1.69h3.24v2.66H7.16z M25.01,34.58
		c-0.91-0.41-1.84-0.81-2.77-1.21c-0.94-0.4-1.91-0.8-2.92-1.21c-1.01,0.41-1.99,0.8-2.93,1.19c-0.95,0.38-1.96,0.74-3.04,1.08H3.12
		c2.04-0.72,4.02-1.44,5.94-2.16c1.92-0.72,3.83-1.5,5.72-2.34c-1.01-0.55-2.07-1.18-3.19-1.87c-1.12-0.7-2.25-1.43-3.4-2.2h7.78
		c0.48,0.29,1.02,0.61,1.62,0.95c0.6,0.35,1.14,0.64,1.62,0.88c0.98-0.41,1.93-0.83,2.83-1.28s1.83-0.97,2.79-1.57H5.36v-2.84h25.78
		c0.38,0,0.71,0.11,0.97,0.32c0.26,0.22,0.46,0.48,0.58,0.79c0.12,0.31,0.16,0.64,0.13,0.99c-0.04,0.35-0.21,0.63-0.52,0.85
		c-0.5,0.38-1.14,0.81-1.91,1.28c-0.77,0.47-1.55,0.93-2.36,1.39c-0.8,0.46-1.58,0.88-2.34,1.28c-0.76,0.4-1.39,0.71-1.89,0.95
		c1.92,0.84,3.84,1.64,5.76,2.41c1.92,0.77,3.9,1.54,5.94,2.3H25.01z M10.86,8.16H8.85v1.58h2.02V8.16z M10.86,12.19H8.85v1.58h2.02
		V12.19z M10.86,16.26H8.85v1.04c0,0.19,0.06,0.35,0.18,0.47s0.28,0.18,0.47,0.18h1.37V16.26z M21.81,20.61
		c-0.41,0-0.76-0.08-1.06-0.25c-0.3-0.17-0.56-0.38-0.77-0.65c-0.41-0.53-0.61-1.15-0.61-1.87v-7.7h-1.3
		c0.53-1.22,1.03-2.44,1.49-3.65c0.47-1.21,0.87-2.47,1.21-3.76h4.28c-0.12,0.38-0.26,0.84-0.43,1.37c-0.17,0.53-0.32,0.96-0.47,1.3
		h2.52c-0.19-0.41-0.37-0.85-0.54-1.31c-0.17-0.47-0.31-0.93-0.43-1.39h4.46c0.12,0.43,0.26,0.88,0.43,1.33s0.37,0.91,0.61,1.37
		h3.35v2.77h-3.78v1.58h3.02v2.45h-3.02v1.62h3.02v2.45h-3.02v1.69h4.1v2.66H21.81z M26.34,8.16h-2.48v1.58h2.48V8.16z M26.34,12.19
		h-2.48v1.62h2.48V12.19z M26.34,16.26h-2.48v0.97c0,0.24,0.07,0.42,0.22,0.54s0.32,0.18,0.54,0.18h1.73V16.26z"/>
	<path class="st1" d="M47.89,8.93c-0.73,2.08-1.58,4.15-2.54,6.21h1.48v19.33h-5.47v-18h-2.63c1.15-2.18,2.17-4.45,3.04-6.79
		C42.65,7.35,43.46,5,44.2,2.65h5.62C49.26,4.76,48.62,6.86,47.89,8.93z M48.16,19.82v-3.31h12.56c0.43-1.03,0.81-2.05,1.13-3.04
		c0.32-1,0.61-2.03,0.85-3.11h5.47c-0.26,1.08-0.55,2.12-0.85,3.13c-0.3,1.01-0.65,2.02-1.06,3.02h4.9v3.31H48.16z M49.49,8.99V5.75
		h7.49c-0.14-0.5-0.29-1.01-0.45-1.51s-0.26-1.02-0.31-1.55h5.83c0.1,0.53,0.22,1.04,0.38,1.55c0.16,0.5,0.33,1.01,0.52,1.51h7.2
		v3.24H49.49z M68.46,33.25c-0.26,0.31-0.59,0.56-0.97,0.74c-0.38,0.18-0.84,0.27-1.37,0.27H53.74c-1.1,0-1.97-0.34-2.59-1.01
		c-0.58-0.62-0.86-1.44-0.86-2.45v-5.33c0-1.08,0.25-1.91,0.76-2.48c0.58-0.7,1.49-1.04,2.74-1.04h12.46c0.41,0,0.79,0.09,1.15,0.27
		c0.36,0.18,0.68,0.4,0.97,0.67c0.26,0.29,0.48,0.61,0.65,0.97c0.17,0.36,0.25,0.73,0.25,1.12v5.76
		C69.26,31.74,68.99,32.58,68.46,33.25z M53.13,15.65c-0.38-0.84-0.71-1.7-0.99-2.59c-0.28-0.89-0.51-1.79-0.7-2.7h5.51
		c0.24,0.91,0.51,1.81,0.81,2.68c0.3,0.88,0.63,1.75,0.99,2.61H53.13z M63.93,25.87c0-0.19-0.06-0.34-0.18-0.45
		c-0.12-0.11-0.28-0.16-0.47-0.16h-7.16c-0.14,0-0.28,0.06-0.4,0.18c-0.12,0.12-0.18,0.26-0.18,0.43v4.54c0,0.12,0.07,0.25,0.2,0.38
		s0.26,0.2,0.38,0.2h7.02c0.22,0,0.4-0.06,0.56-0.18c0.16-0.12,0.23-0.28,0.23-0.47V25.87z"/>
	<path class="st1" d="M80.67,23.93c-0.19,2.62-0.49,5.21-0.9,7.78h-4.72c0.43-2.69,0.77-5.34,1.01-7.96
		c0.24-2.62,0.4-5.21,0.47-7.78h4.54C80.99,18.66,80.86,21.31,80.67,23.93z M87.15,14.06v20.38h-4.97V14.06H75.3v-3.28h6.88V7.08
		c-1.06,0.07-2.1,0.13-3.13,0.18c-1.03,0.05-2.08,0.08-3.13,0.11V4.09c2.95-0.12,5.86-0.31,8.71-0.58c2.86-0.26,5.7-0.65,8.53-1.15
		v3.49c-1.01,0.17-2,0.31-2.97,0.43s-1.99,0.23-3.04,0.32v4.18h6.44v3.28H87.15z M89.81,31.74c-0.41-2.47-0.73-5.04-0.97-7.7
		c-0.24-2.66-0.41-5.35-0.5-8.06h4.54c0.12,2.83,0.31,5.55,0.58,8.15c0.26,2.6,0.66,5.14,1.19,7.61H89.81z M95.07,26.88V6.21h4.36
		v20.66H95.07z M105.62,33.68c-0.58,0.53-1.3,0.79-2.16,0.79h-5.83l-1.08-3.35h4.25c0.12,0,0.25-0.04,0.4-0.13
		c0.14-0.08,0.22-0.21,0.22-0.38V2.72h5.15v28.94C106.55,32.46,106.24,33.13,105.62,33.68z"/>
	<path class="st1" d="M130.1,28.64v5.83h-5.54v-5.83H111.3v-3.2h13.25v-2.27h5.54v2.27h12.92v3.2H130.1z M118.02,19.14
		c-0.44,1.06-0.91,2.03-1.39,2.92h-5.22c0.24-0.43,0.49-0.91,0.74-1.44c0.25-0.53,0.49-1.06,0.72-1.6c0.23-0.54,0.44-1.07,0.65-1.58
		c0.2-0.52,0.37-0.97,0.49-1.35h5.11C118.83,17.06,118.46,18.08,118.02,19.14z M128.94,8.37l-3.42,4.18h1.55l1.4-1.37h5.98l-5,5.08
		h4.07c0.26,1.01,0.59,2,0.97,2.97c0.38,0.97,0.8,1.94,1.26,2.9h-4.46c-0.19-0.36-0.37-0.73-0.52-1.12
		c-0.16-0.38-0.31-0.77-0.45-1.15l-0.79,2.09h-7.88c-0.38,0-0.7-0.1-0.95-0.31s-0.44-0.46-0.56-0.77c-0.12-0.31-0.15-0.64-0.09-0.97
		c0.06-0.34,0.22-0.64,0.49-0.9l3.74-3.67h-2.77c-0.41,0-0.74-0.1-0.99-0.31s-0.44-0.44-0.56-0.7c-0.19-0.6-0.08-1.16,0.32-1.69
		l3.46-4.25h-11.81V5.24h12.35c-0.14-0.34-0.32-0.77-0.52-1.3c-0.2-0.53-0.35-0.96-0.45-1.3h6.01c0.12,0.38,0.29,0.84,0.52,1.37
		c0.23,0.53,0.44,0.94,0.63,1.22h11.95v3.13H128.94z M114.33,14.71c-0.96-1.63-1.74-3.33-2.34-5.11h4.97
		c0.67,1.78,1.51,3.48,2.52,5.11H114.33z M129.56,17.71c-0.14-0.49-0.25-0.89-0.32-1.21l-2.52,2.45h3.24
		C129.83,18.62,129.7,18.21,129.56,17.71z M141.36,12.3c-0.36,0.89-0.77,1.72-1.22,2.48h-5.29c0.48-0.82,0.94-1.67,1.37-2.57
		c0.43-0.9,0.77-1.76,1.01-2.57h5.08C142.04,10.52,141.72,11.41,141.36,12.3z M137.87,22.09c-0.48-0.98-0.92-1.96-1.33-2.93
		c-0.41-0.97-0.76-1.99-1.04-3.04h5.08c0.7,2.06,1.58,4.06,2.66,5.98H137.87z"/>
	<path class="st1" d="M165.2,21.62c-0.55,1.39-1.4,2.45-2.56,3.17h-2.92c0.55-0.34,1.11-0.74,1.67-1.21c0.56-0.47,1.05-1,1.46-1.6
		c0.48-0.67,0.76-1.39,0.83-2.16h-3.24v-5.33h5.47v2.92C165.92,18.99,165.68,20.4,165.2,21.62z"/>
	<path class="st1" d="M198.42,33.46c-0.26,0.34-0.59,0.61-0.97,0.81c-0.38,0.2-0.77,0.31-1.15,0.31h-4.64l-1.04-3.28h2.88
		c0.12,0,0.25-0.06,0.4-0.18c0.14-0.12,0.22-0.25,0.22-0.4V12.77c0-0.14-0.08-0.29-0.23-0.45s-0.32-0.23-0.49-0.23h-2.05v6.66
		c0,2.62-0.2,5.27-0.61,7.97c-0.41,2.7-1.12,5.32-2.12,7.87h-5.69c0.55-1.22,1.02-2.51,1.4-3.87c0.38-1.36,0.7-2.72,0.95-4.1
		s0.43-2.74,0.54-4.09c0.11-1.34,0.16-2.6,0.16-3.78v-6.66h-2.63V8.73h2.63V2.72h5.36v6.01h4.43c1.03,0,1.85,0.29,2.45,0.86
		c0.67,0.6,1.01,1.42,1.01,2.45v19.62C199.22,32.29,198.95,32.89,198.42,33.46z M214.57,32.49c-0.18,0.36-0.43,0.67-0.74,0.94
		c-0.65,0.53-1.43,0.79-2.34,0.79h-7.63c-0.43,0-0.85-0.08-1.24-0.25c-0.4-0.17-0.73-0.42-0.99-0.76c-0.26-0.29-0.47-0.62-0.61-0.99
		c-0.14-0.37-0.22-0.8-0.22-1.28V7.37c0-0.67,0.25-1.28,0.76-1.84c0.58-0.65,1.27-0.97,2.09-0.97h8.03c0.94,0,1.7,0.3,2.3,0.9
		c0.58,0.62,0.86,1.39,0.86,2.3v23.51C214.84,31.73,214.75,32.13,214.57,32.49z M209.8,8.66c0-0.12-0.07-0.26-0.22-0.41
		c-0.14-0.16-0.29-0.23-0.43-0.23h-2.7c-0.17,0-0.32,0.07-0.47,0.22c-0.14,0.14-0.22,0.29-0.22,0.43v21.6
		c0,0.14,0.07,0.28,0.22,0.41c0.14,0.13,0.3,0.2,0.47,0.2h2.7c0.17,0,0.32-0.07,0.45-0.22c0.13-0.14,0.2-0.28,0.2-0.4V8.66z"/>
	<path class="st1" d="M227.89,8.93c-0.73,2.08-1.58,4.15-2.54,6.21h1.48v19.33h-5.47v-18h-2.63c1.15-2.18,2.17-4.45,3.04-6.79
		c0.88-2.34,1.69-4.69,2.43-7.04h5.62C229.26,4.76,228.62,6.86,227.89,8.93z M228.16,19.82v-3.31h12.56
		c0.43-1.03,0.81-2.05,1.13-3.04s0.61-2.03,0.85-3.11h5.47c-0.26,1.08-0.55,2.12-0.85,3.13s-0.65,2.02-1.06,3.02h4.9v3.31H228.16z
		 M229.49,8.99V5.75h7.49c-0.14-0.5-0.29-1.01-0.45-1.51s-0.26-1.02-0.31-1.55h5.83c0.1,0.53,0.22,1.04,0.38,1.55
		c0.16,0.5,0.33,1.01,0.52,1.51h7.2v3.24H229.49z M248.46,33.25c-0.26,0.31-0.59,0.56-0.97,0.74s-0.84,0.27-1.37,0.27h-12.38
		c-1.1,0-1.97-0.34-2.59-1.01c-0.58-0.62-0.86-1.44-0.86-2.45v-5.33c0-1.08,0.25-1.91,0.76-2.48c0.58-0.7,1.49-1.04,2.74-1.04h12.46
		c0.41,0,0.79,0.09,1.15,0.27c0.36,0.18,0.68,0.4,0.97,0.67c0.26,0.29,0.48,0.61,0.65,0.97c0.17,0.36,0.25,0.73,0.25,1.12v5.76
		C249.26,31.74,248.99,32.58,248.46,33.25z M233.13,15.65c-0.38-0.84-0.71-1.7-0.99-2.59c-0.28-0.89-0.51-1.79-0.7-2.7h5.51
		c0.24,0.91,0.51,1.81,0.81,2.68c0.3,0.88,0.63,1.75,0.99,2.61H233.13z M243.93,25.87c0-0.19-0.06-0.34-0.18-0.45
		c-0.12-0.11-0.28-0.16-0.47-0.16h-7.16c-0.14,0-0.28,0.06-0.4,0.18c-0.12,0.12-0.18,0.26-0.18,0.43v4.54c0,0.12,0.07,0.25,0.2,0.38
		s0.26,0.2,0.38,0.2h7.02c0.22,0,0.4-0.06,0.56-0.18c0.16-0.12,0.23-0.28,0.23-0.47V25.87z"/>
	<path class="st1" d="M255.3,8.91v-3.2h3.31c-0.19-0.48-0.37-0.99-0.52-1.53s-0.29-1.07-0.41-1.6h5.11c0.07,0.48,0.2,1,0.38,1.57
		s0.35,1.09,0.52,1.57h2.59v3.2H255.3z M265.53,32.91c-0.14,0.28-0.34,0.52-0.58,0.74c-0.19,0.19-0.43,0.35-0.7,0.49
		c-0.28,0.13-0.55,0.2-0.81,0.2h-5.04c-0.29,0-0.56-0.05-0.83-0.16c-0.26-0.11-0.52-0.26-0.76-0.45c-0.31-0.24-0.56-0.52-0.74-0.85
		s-0.27-0.68-0.27-1.06v-7.02c0-0.77,0.24-1.39,0.72-1.87c0.5-0.55,1.16-0.83,1.98-0.83h4.61c0.79,0,1.44,0.28,1.94,0.83
		c0.46,0.46,0.68,1.04,0.68,1.76v7.34C265.74,32.34,265.67,32.63,265.53,32.91z M255.84,14.39v-3.24h9.86v3.24H255.84z M255.84,20
		v-3.24h9.86V20H255.84z M261.6,25.94c0-0.19-0.05-0.35-0.14-0.47s-0.22-0.18-0.36-0.18h-0.65c-0.19,0-0.33,0.07-0.41,0.2
		s-0.13,0.28-0.13,0.45v4.39c0,0.19,0.05,0.35,0.16,0.47c0.11,0.12,0.22,0.18,0.34,0.18h0.68c0.14,0,0.26-0.06,0.36-0.18
		s0.14-0.28,0.14-0.47V25.94z M285.81,19.57c-0.64,2.09-1.38,4.04-2.21,5.87c0.12,1.03,0.24,1.95,0.36,2.75
		c0.12,0.8,0.25,1.63,0.4,2.47c0.05,0.19,0.14,0.34,0.27,0.45c0.13,0.11,0.29,0.16,0.49,0.16h2.23l-0.86,3.2h-3.56
		c-0.79,0-1.45-0.2-1.98-0.61c-0.29-0.24-0.52-0.59-0.7-1.06c-0.18-0.47-0.33-0.92-0.45-1.35c-0.29,0.41-0.55,0.79-0.77,1.13
		s-0.52,0.74-0.88,1.17h-4.21c1.1-1.2,2.04-2.38,2.81-3.55c0.77-1.16,1.49-2.43,2.16-3.8c-0.34-2.47-0.61-4.94-0.83-7.4
		c-0.22-2.46-0.4-4.94-0.54-7.43h-5.33c-0.14,0-0.3,0.07-0.47,0.2s-0.25,0.28-0.25,0.45v2.81h2.59c0.98,0,1.7,0.24,2.16,0.72
		c0.41,0.46,0.61,1.09,0.61,1.91v10.66c0,0.58-0.19,1.08-0.58,1.51c-0.19,0.24-0.43,0.43-0.72,0.58s-0.6,0.22-0.94,0.22h-2.2
		l-0.61-3.2h0.9c0.19,0,0.33-0.06,0.41-0.18c0.08-0.12,0.13-0.26,0.13-0.43v-8.03c0-0.34-0.17-0.5-0.5-0.5h-1.26v7.16
		c0,0.67-0.02,1.42-0.05,2.23c-0.04,0.82-0.11,1.63-0.22,2.45c-0.11,0.82-0.26,1.61-0.45,2.38c-0.19,0.77-0.44,1.43-0.76,1.98h-4.32
		c0.34-0.65,0.59-1.37,0.77-2.16c0.18-0.79,0.31-1.6,0.4-2.43c0.08-0.83,0.14-1.64,0.16-2.43c0.02-0.79,0.04-1.52,0.04-2.2V11.4
		c0-0.41,0.07-0.8,0.22-1.17c0.14-0.37,0.35-0.7,0.61-0.99c0.58-0.62,1.26-0.94,2.05-0.94h7.49c-0.05-0.91-0.09-1.85-0.13-2.81
		s-0.03-1.91,0.02-2.84h4.57c0,1.9,0.07,3.78,0.22,5.65h4.93v3.28h-4.72c0.02,1.08,0.08,2.24,0.16,3.47s0.19,2.35,0.31,3.33
		c0.26-0.84,0.52-1.7,0.76-2.59c0.24-0.89,0.42-1.69,0.54-2.41h3.38C287,15.42,286.45,17.48,285.81,19.57z M283.56,7.08
		c-0.19-0.62-0.35-1.28-0.47-1.96s-0.22-1.37-0.29-2.07h3.31c0.12,0.7,0.25,1.38,0.38,2.03c0.13,0.66,0.31,1.33,0.52,2H283.56z"/>
	<path class="st1" d="M297.69,30.69c-0.37,1.01-0.77,2-1.21,2.99h-5.62c0.5-0.96,0.98-1.95,1.42-2.97c0.44-1.02,0.85-2.05,1.21-3.08
		h5.15C298.38,28.67,298.07,29.69,297.69,30.69z M291.48,12.95v-2.74h6.62c-0.1-0.19-0.22-0.41-0.38-0.65
		c-0.16-0.24-0.31-0.49-0.45-0.74c-0.14-0.25-0.28-0.49-0.41-0.72c-0.13-0.23-0.23-0.43-0.31-0.59h-4.18v-2.7h12.24
		c-0.14-0.24-0.32-0.58-0.54-1.01c-0.22-0.43-0.38-0.79-0.5-1.08h5.8c0.12,0.26,0.31,0.61,0.58,1.04c0.26,0.43,0.48,0.78,0.65,1.04
		h11.48v2.7h-4.25c-0.22,0.38-0.52,0.85-0.92,1.39c-0.4,0.54-0.73,0.98-0.99,1.31h6.98v2.74H291.48z M320.99,23.17
		c-0.13,0.43-0.34,0.82-0.63,1.15c-0.53,0.6-1.3,0.9-2.3,0.9h-20.7c-0.53,0-1.03-0.04-1.49-0.13c-0.47-0.08-0.89-0.23-1.28-0.45
		c-0.41-0.24-0.74-0.57-0.99-0.99s-0.38-0.97-0.38-1.64v-4.5c0-1.01,0.3-1.79,0.9-2.34c0.55-0.55,1.32-0.83,2.3-0.83h21.28
		c1.01,0,1.85,0.3,2.52,0.9c0.65,0.6,0.97,1.39,0.97,2.38v4.14C321.18,22.27,321.12,22.74,320.99,23.17z M315.82,17.66
		c0-0.17-0.1-0.32-0.29-0.47c-0.19-0.14-0.37-0.22-0.54-0.22h-15.88c-0.41,0-0.61,0.18-0.61,0.54v0.94h17.32V17.66z M315.82,20.79
		H298.5v1.15c0,0.14,0.07,0.29,0.2,0.45c0.13,0.16,0.27,0.23,0.41,0.23h16.13c0.38,0,0.58-0.24,0.58-0.72V20.79z M314.88,34.47
		h-10.87c-0.65,0-1.24-0.05-1.76-0.16c-0.53-0.11-0.98-0.29-1.37-0.56c-0.74-0.55-1.12-1.5-1.12-2.84V26.3h5.22v4.43
		c0,0.22,0.08,0.39,0.23,0.52c0.16,0.13,0.33,0.2,0.52,0.2h10.48L314.88,34.47z M302.46,7.51c0.26,0.48,0.54,0.95,0.83,1.4
		c0.29,0.46,0.59,0.89,0.9,1.3h5.69c0.34-0.36,0.7-0.81,1.08-1.35s0.68-0.99,0.9-1.35H302.46z M308.66,30.04
		c-0.41-0.58-0.76-1.17-1.06-1.8c-0.3-0.62-0.58-1.27-0.85-1.94h5.15c0.22,0.62,0.49,1.26,0.81,1.91c0.32,0.65,0.68,1.26,1.06,1.84
		H308.66z M317.94,33.79c-0.53-0.96-1-1.94-1.42-2.93c-0.42-1-0.77-2.02-1.06-3.08h5.29c0.31,1.06,0.7,2.09,1.15,3.11
		c0.46,1.02,1,1.99,1.62,2.9H317.94z"/>
</g>
<g class="st0">
	<path class="st1" d="M22.34,75.42c-1.79-0.52-3.44-1.29-4.98-2.31c-1.53-1.02-3.01-2.4-4.43-4.13c-0.3,0.8-0.69,1.51-1.18,2.14
		c-0.49,0.63-1.07,1.2-1.73,1.7c-0.73,0.55-1.55,1.04-2.46,1.46c-0.91,0.42-1.9,0.8-2.98,1.14H1.59c1.4-0.45,2.69-0.92,3.86-1.4
		c1.17-0.49,2.21-1.03,3.11-1.64c0.85-0.57,1.56-1.22,2.15-1.95c0.58-0.73,1.01-1.59,1.29-2.57H2.45v-0.96h9.75
		c0.05-0.26,0.09-0.53,0.1-0.81c0.02-0.28,0.03-0.56,0.03-0.86v-1.01H1.96v-0.96h10.37v-2.78H3.41v-0.96h8.92v-3.02H2.42v-0.96h6.86
		c-0.16-0.17-0.32-0.37-0.48-0.6c-0.17-0.23-0.33-0.46-0.48-0.69c-0.16-0.23-0.3-0.47-0.44-0.7c-0.14-0.23-0.26-0.45-0.36-0.64h1.33
		c0.17,0.36,0.44,0.79,0.79,1.29c0.35,0.49,0.71,0.94,1.05,1.34h4.63c0.36-0.4,0.71-0.83,1.04-1.29c0.33-0.46,0.59-0.91,0.78-1.34
		h1.3c-0.28,0.59-0.56,1.09-0.86,1.51c-0.29,0.42-0.59,0.79-0.88,1.12h6.92v0.96H13.53v3.02h9.2v0.96h-9.18v2.78h10.69v0.96H13.55
		v0.94c0,0.31-0.01,0.61-0.03,0.9c-0.02,0.29-0.04,0.57-0.08,0.85h10.37v0.96H13.27c-0.04,0.12-0.06,0.24-0.09,0.35
		c-0.03,0.11-0.06,0.22-0.09,0.33h0.86c0.75,0.8,1.5,1.52,2.26,2.17c0.76,0.65,1.58,1.25,2.46,1.81c0.88,0.56,1.82,1.07,2.83,1.55
		c1.01,0.48,2.14,0.93,3.37,1.36H22.34z"/>
	<path class="st1" d="M50.29,75.42H44.6c-0.8,0-1.42-0.21-1.87-0.62c-0.21-0.21-0.37-0.47-0.49-0.78c-0.12-0.31-0.18-0.67-0.18-1.07
		V61.98h-5.93v3.17c0,1.51-0.14,2.78-0.42,3.81c-0.28,1.03-0.68,1.94-1.2,2.72c-0.55,0.82-1.23,1.5-2.03,2.07
		c-0.8,0.56-1.71,1.12-2.73,1.68H27.7c0.71-0.42,1.37-0.81,1.96-1.17c0.6-0.36,1.13-0.72,1.61-1.08c0.48-0.35,0.91-0.71,1.29-1.07
		c0.38-0.36,0.71-0.73,0.99-1.13c0.5-0.69,0.86-1.5,1.08-2.42c0.22-0.92,0.33-2.05,0.33-3.41v-3.17h-7.02v-1.01h22.49v1.01h-7.18
		v10.95c0,0.45,0.09,0.8,0.26,1.05s0.5,0.38,0.99,0.38h6.21L50.29,75.42z M29.41,54.28v-1.01h19.68v1.01H29.41z"/>
	<path class="st1" d="M65.14,68.14c-0.02,0.83-0.16,1.56-0.42,2.2c-0.26,0.63-0.62,1.17-1.07,1.62c-0.52,0.5-1.15,0.89-1.9,1.16
		s-1.58,0.42-2.5,0.46c-0.81,0.04-1.6-0.06-2.37-0.27c-0.76-0.22-1.42-0.55-1.98-1c-0.47-0.4-0.88-0.92-1.22-1.57
		c-0.35-0.65-0.62-1.41-0.83-2.28h1.35c0.14,0.5,0.33,1.04,0.58,1.6c0.25,0.56,0.58,1.02,0.98,1.37c0.4,0.35,0.9,0.61,1.5,0.78
		c0.6,0.17,1.22,0.27,1.86,0.29c1.47,0.02,2.61-0.34,3.41-1.07c0.76-0.75,1.16-1.84,1.2-3.28c0.02-0.52-0.05-1.03-0.21-1.52
		c-0.16-0.49-0.42-0.94-0.78-1.34c-0.71-0.75-1.72-1.12-3.02-1.12h-2.68V63.1h2.68c0.5,0,0.95-0.08,1.35-0.23
		c0.4-0.16,0.75-0.37,1.04-0.65c0.36-0.35,0.63-0.75,0.79-1.22c0.16-0.47,0.23-0.95,0.19-1.46s-0.16-0.98-0.36-1.43
		s-0.5-0.84-0.88-1.17c-0.42-0.36-0.9-0.64-1.46-0.83s-1.16-0.25-1.82-0.18c-0.61,0.07-1.19,0.24-1.74,0.52s-1.01,0.66-1.35,1.14
		c-0.24,0.35-0.46,0.75-0.65,1.21c-0.19,0.46-0.38,0.97-0.57,1.52h-1.35c0.21-0.75,0.45-1.41,0.71-2c0.27-0.59,0.58-1.11,0.95-1.56
		c0.45-0.54,1-0.96,1.66-1.26c0.66-0.3,1.36-0.5,2.11-0.58c0.78-0.09,1.54-0.04,2.27,0.14c0.74,0.18,1.39,0.48,1.96,0.9
		c0.45,0.33,0.83,0.73,1.13,1.21s0.52,1.02,0.64,1.62c0.09,0.5,0.09,1.01,0.01,1.51c-0.08,0.5-0.24,0.97-0.48,1.4
		c-0.26,0.45-0.62,0.85-1.07,1.2s-0.98,0.6-1.59,0.75c1.32,0.21,2.31,0.72,2.96,1.53c0.29,0.36,0.53,0.79,0.7,1.29
		C65.08,66.96,65.15,67.52,65.14,68.14z"/>
	<path class="st1" d="M72.52,56.8c-0.56,1.16-1.16,2.29-1.82,3.38h0.96v15.24h-1.2V60.55c-0.24,0.4-0.49,0.79-0.75,1.16
		c-0.26,0.37-0.53,0.76-0.81,1.16h-1.35c1.21-1.66,2.24-3.28,3.09-4.86c0.85-1.58,1.54-3.28,2.08-5.1h1.3
		C73.58,54.34,73.07,55.64,72.52,56.8z M89.11,74.79c-0.43,0.43-0.99,0.65-1.66,0.65H76.81c-0.4,0-0.74-0.07-1.03-0.2
		c-0.29-0.13-0.52-0.3-0.72-0.51c-0.24-0.24-0.42-0.52-0.52-0.84s-0.16-0.65-0.16-0.98V55.79c0-0.76,0.21-1.36,0.62-1.79
		c0.45-0.5,1.05-0.75,1.79-0.75h10.56c0.74,0,1.34,0.23,1.79,0.68c0.45,0.45,0.68,1.08,0.68,1.87v17.08
		C89.84,73.7,89.59,74.34,89.11,74.79z M88.67,55.48c0-0.43-0.11-0.75-0.33-0.94c-0.22-0.19-0.5-0.29-0.84-0.29H76.73
		c-0.36,0-0.65,0.11-0.86,0.33s-0.31,0.52-0.31,0.9v17.71c0,0.4,0.11,0.71,0.33,0.92c0.22,0.22,0.5,0.33,0.84,0.33h10.79
		c0.35,0,0.62-0.11,0.83-0.34c0.21-0.23,0.31-0.51,0.31-0.86V55.48z M82.69,60.08v3.95h1.04c0.43,0,0.8,0.08,1.09,0.25
		s0.54,0.37,0.73,0.61c0.19,0.24,0.33,0.52,0.43,0.83c0.1,0.31,0.14,0.62,0.14,0.91v2.73c0,0.38-0.05,0.73-0.16,1.04
		c-0.1,0.31-0.25,0.58-0.44,0.81c-0.42,0.5-1,0.75-1.74,0.75H80.5c-0.78,0-1.39-0.26-1.82-0.78c-0.4-0.49-0.6-1.1-0.6-1.85v-2.68
		c0-0.73,0.2-1.33,0.6-1.82c0.19-0.24,0.43-0.44,0.73-0.58c0.29-0.15,0.64-0.22,1.04-0.22h1.04v-3.95H77.1v-1.01h4.39v-3.74h1.2
		v3.74h4.47v1.01H82.69z M84.92,66.24c0-0.35-0.12-0.63-0.36-0.86c-0.24-0.22-0.56-0.34-0.94-0.34h-3.15c-0.4,0-0.7,0.14-0.9,0.42
		c-0.2,0.28-0.3,0.59-0.3,0.94v3.22c0,0.4,0.12,0.72,0.35,0.98c0.23,0.25,0.52,0.38,0.87,0.38h3.25c0.35,0,0.63-0.13,0.85-0.38
		c0.22-0.25,0.32-0.58,0.32-0.98V66.24z"/>
	<path class="st1" d="M114.46,74.67c-0.43,0.52-1.07,0.78-1.92,0.78h-4.63l-0.49-1.04h5.15c0.43,0,0.76-0.14,0.98-0.42
		c0.22-0.28,0.32-0.62,0.32-1.01v-4.86H97.35C97.26,68.77,97.15,69.4,97,70c-0.15,0.6-0.33,1.19-0.53,1.78
		c-0.21,0.59-0.45,1.18-0.73,1.78c-0.28,0.6-0.59,1.22-0.94,1.86h-1.35c0.52-0.94,0.96-1.81,1.31-2.63
		c0.35-0.81,0.65-1.62,0.88-2.42c0.23-0.8,0.4-1.62,0.51-2.46c0.1-0.84,0.16-1.74,0.16-2.69v-9c0-0.92,0.19-1.6,0.57-2.05
		c0.47-0.59,1.28-0.88,2.44-0.88h13.13c0.47,0,0.86,0.07,1.18,0.22c0.32,0.15,0.58,0.35,0.79,0.61c0.23,0.26,0.39,0.57,0.48,0.92
		c0.1,0.36,0.14,0.75,0.14,1.18v16.56C115.06,73.59,114.86,74.21,114.46,74.67z M113.86,61.22H97.51v4.03c0,0.33,0,0.65-0.01,0.95
		c-0.01,0.3-0.02,0.6-0.04,0.9h16.41V61.22z M113.86,56.05c0-0.43-0.1-0.83-0.3-1.18c-0.2-0.36-0.55-0.53-1.05-0.53H99.2
		c-0.5,0-0.91,0.17-1.22,0.49s-0.47,0.74-0.47,1.22v4.16h16.35V56.05z"/>
	<path class="st1" d="M142.07,75.42h-10.06c-0.64,0-1.29-0.08-1.95-0.25c-0.66-0.16-1.31-0.39-1.95-0.69
		c-0.85-0.4-1.65-0.89-2.39-1.47c-0.75-0.58-1.39-1.21-1.92-1.89c-0.75,1.53-1.65,2.96-2.7,4.29h-1.35
		c0.61-0.76,1.18-1.57,1.73-2.43c0.55-0.86,1.04-1.75,1.5-2.69c0.45-0.92,0.85-1.83,1.2-2.74c0.35-0.91,0.62-1.81,0.83-2.69h1.22
		c-0.24,0.87-0.52,1.73-0.83,2.6c-0.31,0.87-0.67,1.73-1.07,2.6c0.36,0.49,0.81,0.97,1.35,1.47c0.54,0.49,1.13,0.95,1.77,1.37
		c0.5,0.33,1.02,0.62,1.55,0.86c0.53,0.24,1.05,0.42,1.57,0.52V62.55h-10.09v-1.01h21.37v1.01h-10.09v4.29h9.2v1.01h-9.2v6.55h10.84
		L142.07,75.42z M140.41,60.21v-2.5c0-0.31-0.1-0.59-0.31-0.83c-0.21-0.24-0.5-0.36-0.88-0.36h-16.17c-0.35,0-0.63,0.12-0.85,0.36
		c-0.22,0.24-0.32,0.52-0.32,0.83v2.5h-1.2V57.9c0-0.68,0.2-1.23,0.6-1.66c0.21-0.23,0.46-0.4,0.74-0.53
		c0.29-0.13,0.61-0.2,0.97-0.2h7.77c-0.26-0.38-0.52-0.78-0.78-1.21c-0.26-0.42-0.51-0.89-0.75-1.39h1.3
		c0.19,0.4,0.44,0.84,0.74,1.33c0.3,0.49,0.62,0.91,0.95,1.27h6.94c0.68,0,1.23,0.17,1.66,0.49c0.52,0.42,0.78,1.01,0.78,1.77v2.44
		H140.41z"/>
	<path class="st1" d="M153.2,57.48c-0.5,1-1.06,1.99-1.68,2.95s-1.26,1.88-1.94,2.74h0.88v12.27h-1.2V63.54
		c-0.8,0.99-1.6,1.84-2.42,2.55h-1.61c0.57-0.55,1.16-1.16,1.75-1.81s1.18-1.34,1.75-2.07c0.57-0.73,1.12-1.49,1.64-2.29
		c0.52-0.8,1-1.61,1.43-2.44h-5.98v-1.07h6.53c0.55-1.14,0.99-2.31,1.3-3.51h1.33c-0.31,1.16-0.75,2.33-1.3,3.51h14.64v1.07H153.2z
		 M160.92,68.24v5.07c0,0.71-0.21,1.26-0.62,1.64c-0.4,0.33-0.96,0.49-1.69,0.49h-2.52l-0.6-1.01h3.28c0.64,0,0.96-0.32,0.96-0.96
		v-5.23h-7.98v-1.07h7.98v-2.03c1.11-0.55,2.13-1.11,3.05-1.66s1.63-1.03,2.09-1.43c0.05-0.04,0.07-0.09,0.05-0.17
		c-0.02-0.08-0.08-0.12-0.18-0.12h-10.63V60.7h11.21c0.26,0,0.48,0.06,0.65,0.17c0.17,0.11,0.3,0.25,0.39,0.4
		c0.09,0.19,0.1,0.39,0.05,0.6s-0.17,0.41-0.36,0.6c-0.21,0.21-0.51,0.45-0.9,0.71c-0.39,0.27-0.82,0.55-1.3,0.84
		s-0.97,0.58-1.48,0.87s-0.99,0.54-1.44,0.77v1.51h7.38v1.07H160.92z"/>
	<path class="st1" d="M184.03,70.25v3.17c0,0.68-0.19,1.2-0.57,1.56c-0.36,0.33-0.86,0.49-1.48,0.49h-2.7l-0.65-0.88h2.99
		c0.38,0,0.68-0.1,0.91-0.31c0.22-0.21,0.34-0.51,0.34-0.91v-3.12h-10.84v-0.91h10.84v-1.07c0.54-0.12,1.13-0.28,1.78-0.48
		c0.65-0.2,1.29-0.42,1.94-0.65c0.64-0.23,1.25-0.48,1.82-0.74s1.06-0.51,1.46-0.75h-15.68v-0.88h16.25c0.29,0,0.51,0.07,0.64,0.22
		s0.19,0.32,0.17,0.51c-0.05,0.33-0.23,0.57-0.52,0.73c-0.43,0.26-0.93,0.52-1.48,0.78s-1.12,0.51-1.7,0.74
		c-0.58,0.23-1.17,0.45-1.77,0.64c-0.6,0.19-1.17,0.36-1.73,0.49v0.47h10.76v0.91H184.03z M172.07,56.18v-0.91h10.76
		c-0.29-0.29-0.59-0.67-0.88-1.12c-0.29-0.45-0.56-0.88-0.81-1.27h1.4c0.19,0.35,0.47,0.75,0.83,1.21c0.36,0.46,0.7,0.85,1.01,1.18
		h9.8v0.91H172.07z M191.31,62.52c-0.19,0.19-0.44,0.32-0.75,0.39c-0.31,0.07-0.7,0.1-1.17,0.1h-12.35c-0.95,0-1.61-0.21-1.98-0.62
		c-0.31-0.35-0.47-0.87-0.47-1.56V60c0-0.69,0.2-1.2,0.6-1.53c0.4-0.35,1.01-0.52,1.85-0.52h12.35c0.85,0,1.47,0.17,1.87,0.52
		c0.38,0.35,0.57,0.86,0.57,1.53v0.83C191.83,61.63,191.66,62.19,191.31,62.52z M190.64,59.9c0-0.29-0.09-0.54-0.27-0.74
		s-0.43-0.3-0.74-0.3h-12.71c-0.38,0-0.66,0.1-0.84,0.3c-0.18,0.2-0.27,0.45-0.27,0.74v1.25c0,0.29,0.08,0.53,0.25,0.7
		c0.17,0.17,0.42,0.26,0.77,0.26h12.82c0.31,0,0.56-0.08,0.74-0.25s0.27-0.4,0.27-0.71V59.9z"/>
</g>
<g class="st0">
	<path class="st1" d="M200.47,65.62c-0.71,0-1.25-0.25-1.61-0.75c-0.28-0.38-0.42-0.86-0.42-1.43v-5.41h-1.14
		c0.4-0.87,0.76-1.74,1.09-2.63s0.62-1.79,0.88-2.73h3.15c-0.09,0.35-0.19,0.68-0.3,1.01c-0.11,0.33-0.24,0.65-0.38,0.96h1.56
		c-0.09-0.31-0.18-0.64-0.27-0.97c-0.09-0.34-0.17-0.67-0.22-1h3.17c0.09,0.28,0.2,0.62,0.33,1.01c0.13,0.4,0.24,0.72,0.33,0.96
		h1.87v1.98h-2.18v1.14h1.79v1.77h-1.79v1.14h1.85v1.79h-1.85v1.22h2.34v1.92H200.47z M213.36,75.71c-0.66-0.29-1.33-0.58-2-0.87
		c-0.68-0.29-1.38-0.58-2.11-0.87c-0.73,0.29-1.43,0.58-2.12,0.86s-1.42,0.54-2.2,0.78h-7.38c1.47-0.52,2.9-1.04,4.29-1.56
		c1.39-0.52,2.76-1.08,4.13-1.69c-0.73-0.4-1.5-0.85-2.3-1.35s-1.62-1.03-2.46-1.59h5.62c0.35,0.21,0.74,0.44,1.17,0.69
		c0.43,0.25,0.82,0.46,1.17,0.64c0.71-0.29,1.39-0.6,2.04-0.92c0.65-0.32,1.32-0.7,2.01-1.13h-14.07v-2.05h18.62
		c0.28,0,0.51,0.08,0.7,0.23c0.19,0.16,0.33,0.35,0.42,0.57c0.09,0.23,0.12,0.46,0.09,0.71c-0.03,0.25-0.15,0.46-0.38,0.61
		c-0.36,0.28-0.82,0.58-1.38,0.92s-1.12,0.67-1.7,1c-0.58,0.33-1.14,0.64-1.69,0.92s-1,0.52-1.37,0.69
		c1.39,0.61,2.77,1.19,4.16,1.74c1.39,0.55,2.82,1.11,4.29,1.66H213.36z M203.14,56.62h-1.46v1.14h1.46V56.62z M203.14,59.53h-1.46
		v1.14h1.46V59.53z M203.14,62.47h-1.46v0.75c0,0.14,0.04,0.25,0.13,0.34c0.09,0.09,0.2,0.13,0.34,0.13h0.99V62.47z M211.05,65.62
		c-0.29,0-0.55-0.06-0.77-0.18c-0.22-0.12-0.4-0.28-0.56-0.47c-0.29-0.38-0.44-0.83-0.44-1.35v-5.56h-0.94
		c0.38-0.88,0.74-1.76,1.08-2.64c0.34-0.88,0.63-1.78,0.87-2.72h3.09c-0.09,0.28-0.19,0.61-0.31,0.99
		c-0.12,0.38-0.23,0.69-0.34,0.94h1.82c-0.14-0.29-0.27-0.61-0.39-0.95c-0.12-0.34-0.23-0.67-0.31-1h3.22
		c0.09,0.31,0.19,0.63,0.31,0.96s0.27,0.66,0.44,0.99h2.42v2h-2.73v1.14h2.18v1.77h-2.18v1.17h2.18v1.77h-2.18v1.22h2.96v1.92
		H211.05z M214.32,56.62h-1.79v1.14h1.79V56.62z M214.32,59.53h-1.79v1.17h1.79V59.53z M214.32,62.47h-1.79v0.7
		c0,0.17,0.05,0.3,0.16,0.39c0.1,0.09,0.23,0.13,0.39,0.13h1.25V62.47z"/>
	<path class="st1" d="M229.88,57.18c-0.53,1.5-1.14,2.99-1.83,4.49h1.07v13.96h-3.95v-13h-1.9c0.83-1.58,1.56-3.21,2.2-4.9
		c0.63-1.69,1.22-3.38,1.75-5.08h4.06C230.88,54.17,230.41,55.68,229.88,57.18z M230.08,65.05v-2.39h9.07
		c0.31-0.75,0.59-1.48,0.82-2.2c0.23-0.72,0.44-1.47,0.61-2.25h3.95c-0.19,0.78-0.39,1.53-0.61,2.26c-0.22,0.73-0.47,1.46-0.77,2.18
		h3.54v2.39H230.08z M231.04,57.22v-2.34h5.41c-0.1-0.36-0.21-0.73-0.33-1.09c-0.11-0.36-0.19-0.74-0.22-1.12h4.21
		c0.07,0.38,0.16,0.75,0.27,1.12c0.11,0.36,0.24,0.73,0.38,1.09h5.2v2.34H231.04z M244.74,74.74c-0.19,0.23-0.43,0.4-0.7,0.53
		c-0.28,0.13-0.61,0.2-0.99,0.2h-8.94c-0.8,0-1.42-0.24-1.87-0.73c-0.42-0.45-0.62-1.04-0.62-1.77v-3.85c0-0.78,0.18-1.38,0.55-1.79
		c0.42-0.5,1.07-0.75,1.98-0.75h9c0.29,0,0.57,0.06,0.83,0.19s0.49,0.29,0.7,0.48c0.19,0.21,0.35,0.44,0.47,0.7
		c0.12,0.26,0.18,0.53,0.18,0.81v4.16C245.32,73.65,245.12,74.26,244.74,74.74z M233.67,62.03c-0.28-0.61-0.52-1.23-0.71-1.87
		c-0.2-0.64-0.37-1.29-0.51-1.95h3.98c0.17,0.66,0.37,1.3,0.58,1.94s0.46,1.26,0.71,1.88H233.67z M241.47,69.41
		c0-0.14-0.04-0.25-0.13-0.33c-0.09-0.08-0.2-0.12-0.34-0.12h-5.17c-0.1,0-0.2,0.04-0.29,0.13c-0.09,0.09-0.13,0.19-0.13,0.31v3.28
		c0,0.09,0.05,0.18,0.14,0.27c0.09,0.09,0.19,0.14,0.27,0.14h5.07c0.16,0,0.29-0.04,0.4-0.13c0.11-0.09,0.17-0.2,0.17-0.34V69.41z"
		/>
</g>
<g class="st0">
	<path class="st1" d="M262.5,68.79v6.71h-1.2v-6.71h-11.44v-1.01h3.12v-4.32c0-0.83,0.2-1.47,0.6-1.92
		c0.43-0.49,1.07-0.73,1.92-0.73h5.8v-4.55h-7.41c-0.45,0.78-0.93,1.53-1.44,2.26c-0.51,0.73-1.07,1.45-1.68,2.16h-1.46
		c1.2-1.35,2.24-2.71,3.12-4.07c0.88-1.36,1.53-2.61,1.92-3.76h1.2c-0.17,0.4-0.36,0.8-0.55,1.2c-0.19,0.4-0.38,0.8-0.57,1.2h17.71
		v1.01h-9.65v4.55l8.48-0.03v1.01h-8.48v5.98h9.91v1.01H262.5z M261.31,61.79l-5.69,0.03c-0.45,0-0.81,0.13-1.07,0.4
		s-0.39,0.62-0.39,1.05v4.5h7.15V61.79z"/>
	<path class="st1" d="M278.74,67.37c-0.44,1.85-1.11,3.78-1.99,5.81h-1.09c0.45-1.08,0.84-2.09,1.16-3.06
		c0.32-0.96,0.6-1.9,0.83-2.82c0.23-0.92,0.43-1.83,0.58-2.73c0.16-0.9,0.29-1.83,0.39-2.78h1.07
		C279.5,63.67,279.18,65.53,278.74,67.37z M282.89,60.05v15.42h-1.2V60.05h-5.85v-1.04h5.85v-4.16c-0.88,0.12-1.78,0.24-2.68,0.35
		c-0.9,0.11-1.79,0.22-2.68,0.33v-1.07c0.97-0.1,1.9-0.21,2.79-0.32c0.89-0.11,1.79-0.24,2.7-0.38s1.84-0.29,2.79-0.47
		c0.95-0.17,1.98-0.37,3.07-0.6v1.04c-0.73,0.19-1.49,0.36-2.3,0.51c-0.81,0.15-1.64,0.29-2.51,0.43v4.34h6.01v1.04H282.89z
		 M288.03,73.18c-0.88-2.03-1.55-3.96-1.99-5.81c-0.44-1.85-0.76-3.71-0.95-5.58h1.07c0.1,0.95,0.23,1.88,0.39,2.78
		s0.35,1.81,0.58,2.73s0.51,1.86,0.83,2.82c0.32,0.96,0.71,1.98,1.16,3.06H288.03z M290.95,69.7V54.62h1.2V69.7H290.95z
		 M297.78,72.79c0,0.36-0.04,0.71-0.12,1.04c-0.08,0.33-0.21,0.62-0.4,0.86c-0.43,0.52-1.12,0.78-2.05,0.78h-2.37l-0.44-1.01h2.91
		c0.85,0,1.27-0.4,1.27-1.2V52.93h1.2V72.79z"/>
	<path class="st1" d="M313.77,70.25v5.17h-1.2v-5.17h-10.84v-1.01h10.84v-1.59h1.2v1.59h10.66v1.01H313.77z M305.77,65.11
		c-0.73,0.82-1.46,1.53-2.18,2.12h-1.53c0.99-0.81,1.83-1.61,2.54-2.38s1.35-1.56,1.94-2.35h1.3
		C307.18,63.42,306.49,64.29,305.77,65.11z M305.87,61.43c-0.68-0.55-1.32-1.14-1.94-1.77s-1.17-1.29-1.68-2h1.27
		c0.33,0.38,0.62,0.72,0.88,1.01c0.26,0.29,0.53,0.58,0.82,0.85s0.6,0.55,0.95,0.86c0.35,0.3,0.76,0.66,1.25,1.05H305.87z
		 M302.46,56.15v-1.01h10.66c-0.24-0.33-0.47-0.7-0.69-1.11s-0.4-0.78-0.56-1.13h1.25c0.14,0.28,0.33,0.63,0.58,1.07
		c0.25,0.43,0.5,0.82,0.74,1.17h9.46v1.01H302.46z M317.47,67.2c-0.14-0.17-0.29-0.35-0.44-0.55c-0.16-0.19-0.31-0.38-0.47-0.57
		l-0.57,0.83h-7.36c-0.19,0-0.35-0.05-0.47-0.16c-0.12-0.1-0.2-0.23-0.23-0.36c-0.04-0.14-0.03-0.29,0.03-0.46
		c0.05-0.17,0.17-0.32,0.36-0.46c0.83-0.57,1.69-1.2,2.57-1.88s1.74-1.39,2.57-2.12h-4.55c-0.36,0-0.57-0.12-0.62-0.36
		c-0.07-0.28,0.02-0.52,0.26-0.73c0.76-0.59,1.53-1.21,2.31-1.86c0.78-0.65,1.47-1.26,2.08-1.83h1.59c-0.28,0.26-0.61,0.56-1,0.91
		c-0.39,0.35-0.8,0.7-1.23,1.07c-0.43,0.36-0.85,0.72-1.26,1.05c-0.41,0.34-0.77,0.62-1.08,0.84h4.52c0.35-0.29,0.67-0.59,0.96-0.88
		s0.57-0.58,0.83-0.86h1.53c-0.47,0.49-1.05,1.05-1.74,1.7s-1.43,1.31-2.21,1.98c-0.78,0.67-1.56,1.31-2.35,1.92
		c-0.79,0.62-1.51,1.15-2.17,1.6h7.18c-0.35-0.45-0.69-0.92-1.04-1.42s-0.68-1.02-0.99-1.57h1.25c0.4,0.66,0.85,1.33,1.35,2
		c0.5,0.68,1.08,1.4,1.74,2.16H317.47z M322.74,67.23c-0.73-0.59-1.46-1.3-2.18-2.12c-0.73-0.82-1.41-1.69-2.05-2.61h1.3
		c0.59,0.8,1.24,1.58,1.94,2.35c0.7,0.77,1.55,1.56,2.53,2.38H322.74z M322.24,59.66c-0.62,0.62-1.26,1.21-1.94,1.77h-1.56
		c0.5-0.4,0.92-0.75,1.26-1.05c0.34-0.3,0.65-0.59,0.94-0.86s0.56-0.55,0.82-0.85c0.26-0.29,0.55-0.63,0.88-1.01h1.27
		C323.41,58.37,322.85,59.04,322.24,59.66z"/>
</g>
</svg>
