<?xml version="1.0" encoding="utf-8"?>
<!-- Generator: Adobe Illustrator 24.0.1, SVG Export Plug-In . SVG Version: 6.00 Build 0)  -->
<svg version="1.1" id="圖層_1" xmlns="http://www.w3.org/2000/svg" xmlns:xlink="http://www.w3.org/1999/xlink" x="0px" y="0px"
	 viewBox="0 0 320 79.25" style="enable-background:new 0 0 320 79.25;" xml:space="preserve">
<style type="text/css">
	.st0{enable-background:new    ;}
	.st1{fill:#0F90C9;}
</style>
<g class="st0">
	<path class="st1" d="M6.16,30.59c-0.18,2.99-0.43,5.94-0.74,8.85H2.39c0.34-2.97,0.58-5.94,0.74-8.9c0.15-2.96,0.25-5.97,0.28-9.04
		h2.9C6.39,24.57,6.35,27.6,6.16,30.59z M13.2,18.93v26.08H7.31V18.93H2.85v-4.14h4.46V9.96c-0.61,0.09-1.23,0.17-1.86,0.23
		c-0.63,0.06-1.25,0.11-1.86,0.14V6.24c2.24-0.21,4.47-0.51,6.69-0.9c2.22-0.38,4.39-0.83,6.51-1.36v4.23
		C15.56,8.55,14.37,8.81,13.2,9v5.8h4.14v4.14H13.2z M20.88,44.46h-5.7c0.52-0.89,0.96-1.85,1.31-2.88c0.35-1.03,0.67-2.06,0.94-3.1
		H15c-0.25-2.85-0.44-5.69-0.6-8.51c-0.15-2.82-0.2-5.64-0.14-8.46h2.67c0,2.61,0.07,5.21,0.21,7.82c0.14,2.61,0.36,5.21,0.67,7.82
		h5.24C22.62,39.69,21.9,42.13,20.88,44.46z M18.03,22.33v-2.76h9.25v-2.16h-8.51v-2.76h23.28v2.76h-8.42v2.16h9.61v2.76H18.03z
		 M41.54,30.85v1.2c0,0.8-0.26,1.46-0.78,1.98c-0.58,0.58-1.3,0.87-2.16,0.87H19.69v-2.62h14.95c0.15,0,0.32-0.08,0.51-0.23
		c0.18-0.15,0.28-0.31,0.28-0.46v-0.74h-17.3v-2.9h17.3v-0.87c0-0.12-0.06-0.27-0.18-0.44s-0.26-0.25-0.41-0.25H19.64v-2.67h19.14
		c0.86,0,1.56,0.32,2.12,0.97c0.43,0.52,0.64,1.18,0.64,1.98v1.29h1.98v2.9H41.54z M30.73,8.44c-4.05,0.21-8.14,0.32-12.28,0.32
		V5.59c4.51-0.06,8.82-0.21,12.93-0.46c4.11-0.25,8.03-0.58,11.78-1.01v3.5C38.92,7.95,34.78,8.23,30.73,8.44z M20.24,13.73
		c-0.37-0.58-0.7-1.19-0.99-1.82c-0.29-0.63-0.54-1.29-0.76-2h6.03c0.25,0.67,0.52,1.33,0.83,1.96c0.31,0.63,0.63,1.25,0.97,1.86
		H20.24z M36.39,45.01h-9.25c-0.89,0-1.63-0.29-2.21-0.87c-0.67-0.61-1.01-1.41-1.01-2.39v-4.74h5.84v4.09
		c0,0.15,0.08,0.31,0.25,0.48c0.17,0.17,0.33,0.25,0.48,0.25h6.67L36.39,45.01z M28.01,13.73c-0.74-1.2-1.29-2.47-1.66-3.82h6.53
		c0.15,0.67,0.35,1.33,0.6,1.96c0.25,0.63,0.54,1.25,0.87,1.86H28.01z M31.42,40.41c-0.28-0.67-0.53-1.38-0.76-2.12
		c-0.23-0.74-0.41-1.49-0.53-2.25h4.83c0.34,1.63,0.81,3.08,1.43,4.37H31.42z M42.34,11.62c-0.29,0.74-0.65,1.44-1.08,2.12h-6.07
		c0.71-1.35,1.35-2.81,1.93-4.37h6.03C42.9,10.13,42.63,10.88,42.34,11.62z M38.41,44.42c-0.43-1.17-0.81-2.35-1.13-3.56
		c-0.32-1.21-0.61-2.45-0.85-3.7h5.2c0.25,1.26,0.54,2.5,0.9,3.73c0.35,1.23,0.79,2.41,1.31,3.54H38.41z"/>
	<path class="st1" d="M57.34,12.63c-0.6,2.67-1.31,5.31-2.14,7.91h1.56v24.52H50.6V21.88h-2.3c0.98-2.82,1.86-5.68,2.65-8.58
		c0.78-2.9,1.39-5.83,1.82-8.81h6.16C58.47,7.25,57.94,9.96,57.34,12.63z M88.55,45.01H75.49c-1.81,0-3.7-0.34-5.66-1.01
		c-0.86-0.31-1.67-0.66-2.44-1.06c-0.77-0.4-1.46-0.86-2.07-1.38c-0.25,0.55-0.51,1.13-0.78,1.72c-0.28,0.6-0.58,1.19-0.92,1.77
		h-5.93c0.67-1.35,1.3-2.68,1.89-4s1.1-2.68,1.56-4.09c-1.78-2.88-2.96-5.96-3.54-9.25h4.09c0.06,0.46,0.19,1,0.39,1.61
		c0.2,0.61,0.41,1.13,0.62,1.56c0.24-0.95,0.42-1.95,0.53-2.99c0.11-1.04,0.21-2.04,0.3-2.99h-1.93c-1.04,0-1.79-0.32-2.25-0.97
		c-0.4-0.64-0.43-1.47-0.09-2.48c0.64-1.81,1.27-3.67,1.89-5.59c0.61-1.92,1.17-3.79,1.66-5.63h-3.54V6.28h6.85
		c0.61,0,1.13,0.14,1.54,0.41s0.73,0.63,0.94,1.06c0.18,0.37,0.29,0.77,0.32,1.2c0.03,0.43-0.02,0.86-0.14,1.29
		c-0.52,1.81-1.07,3.6-1.63,5.38c-0.57,1.78-1.14,3.56-1.73,5.34h0.87c0.89,0,1.61,0.28,2.16,0.83c0.49,0.52,0.71,1.23,0.64,2.12
		c-0.15,2.45-0.42,4.75-0.8,6.88c-0.38,2.13-0.91,4.38-1.59,6.74c0.55,0.55,1.2,1.04,1.93,1.45c0.74,0.41,1.52,0.76,2.35,1.04
		c0.89,0.31,1.81,0.53,2.76,0.67c0.95,0.14,1.84,0.21,2.67,0.21h13.39L88.55,45.01z M87.86,17.6v2.94c0,0.86-0.32,1.64-0.97,2.35
		c-0.25,0.25-0.52,0.45-0.83,0.62c-0.31,0.17-0.64,0.25-1.01,0.25h-3.77v2.44h6.85v3.77h-6.85v2.25h8v3.96h-8v3.22l-5.98,0.05v-3.27
		H69v-3.96h6.3v-2.25h-5.15V26.2h5.15v-2.44h-5.24v-3.73h5.24V17.6h-6.67v-3.82h6.67v-2.39h-5.34V7.62h5.34V4.49h5.98v3.13h3.31
		c0.46,0,0.91,0.1,1.36,0.3c0.44,0.2,0.83,0.48,1.17,0.85c0.21,0.25,0.39,0.52,0.53,0.83c0.14,0.31,0.21,0.64,0.21,1.01v3.17h1.79
		v3.82H87.86z M83.26,12.12c0-0.15-0.08-0.31-0.25-0.48c-0.17-0.17-0.33-0.25-0.48-0.25h-1.24v2.39h1.98V12.12z M83.26,17.6h-1.98
		v2.44h1.2c0.18,0,0.36-0.08,0.53-0.25c0.17-0.17,0.25-0.33,0.25-0.48V17.6z"/>
	<path class="st1" d="M106.21,40.28c-1.26,0.52-2.55,1.02-3.86,1.5c-1.32,0.48-2.61,0.92-3.89,1.33c-1.27,0.41-2.43,0.73-3.47,0.94
		v-4.42c1.53-0.43,2.96-0.87,4.28-1.33V25h-3.31v-4.23h3.31V10.24h-4.23V6h14.4v4.23h-3.63v10.53h2.76V25h-2.76v10.86
		c0.25-0.06,0.53-0.15,0.85-0.25c0.32-0.11,0.67-0.23,1.04-0.37s0.72-0.27,1.06-0.39c0.34-0.12,0.63-0.23,0.87-0.32v4.28
		C108.61,39.26,107.47,39.75,106.21,40.28z M109.43,44.83v-4.19h9.84v-4.74h-8.33v-4.14h8.33v-4.23h-4.32
		c-1.1,0-2.04-0.35-2.81-1.06c-0.4-0.4-0.71-0.88-0.94-1.45s-0.35-1.22-0.35-1.96V8.49c0-1.17,0.41-2.12,1.24-2.85
		c0.74-0.64,1.58-0.97,2.53-0.97h15.27c1.35,0,2.38,0.4,3.08,1.2c0.37,0.4,0.64,0.84,0.81,1.31c0.17,0.48,0.25,0.96,0.25,1.45v15.18
		c0,1.07-0.35,1.96-1.06,2.67c-0.34,0.34-0.74,0.6-1.2,0.78c-0.46,0.18-0.98,0.28-1.56,0.28h-4.46v4.23h8.33v4.14h-8.33v4.74h9.75
		v4.19H109.43z M119.28,8.77h-1.84c-0.25,0-0.47,0.09-0.67,0.28c-0.2,0.18-0.3,0.38-0.3,0.6v4.32h2.81V8.77z M119.28,18.1h-2.81
		v4.37c0,0.21,0.11,0.42,0.34,0.62s0.44,0.3,0.62,0.3h1.84V18.1z M128.52,9.82c0-0.31-0.11-0.56-0.32-0.76
		c-0.21-0.2-0.46-0.3-0.74-0.3h-1.7v5.2h2.76V9.82z M128.52,18.1h-2.76v5.29h1.84c0.25,0,0.46-0.08,0.64-0.25s0.28-0.35,0.28-0.53
		V18.1z"/>
	<path class="st1" d="M148.35,40.48c-0.37,1.49-0.81,2.97-1.33,4.44h-6.81c0.67-1.56,1.23-3.09,1.68-4.58
		c0.44-1.49,0.8-2.97,1.08-4.44h6.26C149.01,37.47,148.72,39,148.35,40.48z M157.04,33.24c-0.71,0.71-1.63,1.06-2.76,1.06h-8.92
		c-0.52,0-1-0.11-1.45-0.34c-0.44-0.23-0.84-0.53-1.17-0.9c-0.64-0.74-0.97-1.61-0.97-2.62V8.49c0-0.46,0.12-0.87,0.35-1.24
		s0.51-0.69,0.85-0.97c0.77-0.61,1.63-0.92,2.58-0.92h8.56c1.13,0,2.1,0.45,2.9,1.33c0.31,0.34,0.55,0.71,0.74,1.1
		c0.18,0.4,0.28,0.83,0.28,1.29v21.76C158.01,31.86,157.69,32.66,157.04,33.24z M151.75,10.28c0-0.25-0.08-0.45-0.25-0.62
		c-0.17-0.17-0.38-0.25-0.62-0.25h-2.25c-0.21,0-0.39,0.11-0.53,0.32c-0.14,0.21-0.21,0.4-0.21,0.55v3.31h3.86V10.28z M151.75,17.46
		h-3.86v4.6h3.86V17.46z M151.75,25.97h-3.86v3.36c0,0.31,0.09,0.56,0.28,0.76c0.18,0.2,0.4,0.3,0.64,0.3h2.12
		c0.55,0,0.83-0.31,0.83-0.92V25.97z M153.36,44.92c-0.67-1.41-1.2-2.88-1.56-4.39c-0.37-1.52-0.69-3.06-0.97-4.62h6.3
		c0.12,0.67,0.28,1.41,0.48,2.21c0.2,0.8,0.43,1.59,0.69,2.39c0.26,0.8,0.54,1.58,0.83,2.35c0.29,0.77,0.59,1.46,0.9,2.07H153.36z
		 M168.61,23.62c-0.23,1.81-0.51,3.61-0.85,5.41c-0.34,1.79-0.71,3.52-1.13,5.17c-0.41,1.66-0.85,3.11-1.31,4.37h-6.9
		c1.38-3.56,2.35-6.96,2.92-10.21c0.57-3.25,0.93-6.5,1.08-9.75h6.67C169,20.14,168.84,21.81,168.61,23.62z M178.3,16.08v24.29
		c0,0.52-0.11,1.04-0.32,1.56c-0.21,0.52-0.49,1-0.83,1.43c-0.37,0.46-0.81,0.83-1.31,1.1c-0.51,0.28-1.02,0.41-1.54,0.41h-9.34
		l-1.24-4.23h7.18c0.21,0,0.4-0.11,0.55-0.32c0.15-0.21,0.23-0.4,0.23-0.55V16.08h-12.28V11.8h12.28V4.44h6.62v7.36h2.99v4.28H178.3
		z"/>
	<path class="st1" d="M220.62,17.55c-0.12-0.15-0.26-0.32-0.41-0.51c-0.15-0.18-0.26-0.32-0.32-0.41c-1.56,1.26-3.19,2.45-4.88,3.59
		s-3.36,2.19-5.01,3.17h10.44c0.74,0,1.38,0.11,1.93,0.32c0.55,0.22,1.03,0.51,1.43,0.87c0.86,0.86,1.29,2.04,1.29,3.54v12.01
		c0,1.32-0.34,2.39-1.01,3.22c-0.89,0.98-2.24,1.47-4.05,1.47h-22.63c-1.56,0-2.76-0.44-3.59-1.33c-0.8-0.8-1.2-1.92-1.2-3.36V28.08
		h-6.35c1.56-0.64,3.23-1.33,4.99-2.05c1.76-0.72,3.55-1.48,5.36-2.28c1.81-0.8,3.6-1.65,5.38-2.55c1.78-0.9,3.46-1.86,5.06-2.88
		h-7.27l-1.98-4h5.47c0.15,0,0.3-0.08,0.44-0.23c0.14-0.15,0.21-0.31,0.21-0.46V4.58h6.9v9.61c0,0.25-0.06,0.61-0.18,1.08
		c-0.12,0.48-0.26,0.82-0.41,1.04c0.49-0.28,0.99-0.6,1.49-0.97c0.51-0.37,1-0.74,1.5-1.1h4.92c-0.74-1.17-1.45-2.38-2.14-3.66
		c-0.69-1.27-1.34-2.49-1.96-3.66h7.54c0.89,1.84,1.88,3.66,2.97,5.45s2.37,3.52,3.84,5.18H220.62z M197.75,12.33
		c-1.01,1.76-2.1,3.5-3.27,5.22h-8.05c1.32-1.66,2.52-3.39,3.61-5.2s2.08-3.62,2.97-5.43h7.54C199.7,8.77,198.77,10.57,197.75,12.33
		z M218.27,27.76c0-0.15-0.05-0.28-0.14-0.39c-0.09-0.11-0.21-0.16-0.37-0.16h-15c-0.52,0.21-1.09,0.47-1.7,0.76
		c-0.61,0.29-1.15,0.54-1.61,0.76v0.69h18.81V27.76z M218.27,33.05h-18.81v2.21h18.81V33.05z M218.27,38.85h-18.81v1.66
		c0,0.12,0.04,0.24,0.12,0.35c0.08,0.11,0.19,0.16,0.34,0.16h17.85c0.34,0,0.51-0.17,0.51-0.51V38.85z"/>
	<path class="st1" d="M258.89,45.06c-0.49-0.18-1.09-0.42-1.79-0.71c-0.71-0.29-1.43-0.59-2.18-0.9c-0.75-0.31-1.48-0.61-2.19-0.92
		s-1.3-0.57-1.79-0.78c-0.95,0.71-1.94,1.35-2.97,1.93c-1.03,0.58-2.03,1.04-3.01,1.38h-12.7c2.08-0.89,4.13-1.85,6.14-2.88
		c2.01-1.03,3.98-2.2,5.91-3.52c-1.47-0.8-2.92-1.62-4.35-2.46c-1.43-0.84-2.83-1.75-4.21-2.74h11.13c0.25,0.12,0.54,0.27,0.87,0.44
		c0.34,0.17,0.58,0.3,0.74,0.39c0.15-0.34,0.28-0.7,0.39-1.08c0.11-0.38,0.21-0.74,0.3-1.08h-9.52c-1.5,0-2.64-0.46-3.4-1.38
		c-0.58-0.74-0.87-1.67-0.87-2.81V16.31c0-0.61,0.11-1.14,0.32-1.59c0.21-0.44,0.49-0.81,0.83-1.08c0.4-0.34,0.86-0.59,1.38-0.76
		c0.52-0.17,1.07-0.25,1.66-0.25h10.12V9.27h-16.56V5.08h39.97v4.19h-16.56v3.36h10.53c0.58,0,1.13,0.12,1.63,0.35
		c0.51,0.23,0.93,0.54,1.26,0.94c0.31,0.34,0.55,0.71,0.74,1.13s0.28,0.84,0.28,1.27v11.68c0,1.32-0.4,2.33-1.2,3.04
		c-0.83,0.74-1.98,1.1-3.45,1.1h-10.03c-0.15,0.86-0.38,1.76-0.69,2.69c-0.31,0.94-0.6,1.76-0.87,2.46c1.2,0.61,2.6,1.27,4.21,1.96
		c1.61,0.69,3.3,1.38,5.06,2.07c1.76,0.69,3.53,1.36,5.29,2.02s3.4,1.23,4.9,1.73H258.89z M249.69,16.68h-6.53
		c-0.25,0-0.48,0.11-0.71,0.32c-0.23,0.21-0.34,0.45-0.34,0.69v2.67h7.59V16.68z M249.69,24.36h-7.59v2.48c0,0.34,0.1,0.62,0.3,0.85
		c0.2,0.23,0.51,0.34,0.94,0.34h6.35V24.36z M264.18,17.69c0-0.28-0.13-0.51-0.39-0.71c-0.26-0.2-0.56-0.3-0.9-0.3h-6.35v3.68h7.64
		V17.69z M264.18,24.36h-7.64v3.68h6.58c0.34,0,0.6-0.13,0.78-0.39c0.18-0.26,0.28-0.53,0.28-0.8V24.36z"/>
	<path class="st1" d="M318.92,27.44c0.28,0.58,0.38,1.2,0.3,1.86c-0.08,0.66-0.34,1.22-0.8,1.68c-2.94,2.97-6.58,5.62-10.9,7.93
		c-4.32,2.32-9.2,4.35-14.63,6.1h-14.72c2.61-0.89,5.13-1.82,7.57-2.78c2.44-0.97,4.88-1.99,7.34-3.06
		c-0.74-0.8-1.43-1.59-2.09-2.37c-0.66-0.78-1.31-1.62-1.96-2.51h-10.76c2.21-1.23,4.38-2.53,6.53-3.91c2.15-1.38,4.25-2.9,6.3-4.55
		h-12.88c2.33-0.83,4.65-1.72,6.97-2.69c2.32-0.97,4.61-1.97,6.88-3.01c-0.86-0.74-1.68-1.51-2.46-2.32s-1.57-1.66-2.37-2.55h-8.88
		c1.38-0.92,2.66-1.82,3.84-2.69s2.31-1.75,3.38-2.62c1.07-0.87,2.11-1.78,3.1-2.71c1-0.94,1.99-1.92,2.97-2.97h9.38
		c-0.21,0.37-0.53,0.79-0.94,1.27s-0.79,0.87-1.13,1.17h14.26c0.77,0,1.41,0.18,1.93,0.55c0.52,0.37,0.9,0.83,1.15,1.38
		c0.25,0.58,0.32,1.22,0.23,1.91c-0.09,0.69-0.41,1.33-0.97,1.91c-1.1,1.2-2.35,2.33-3.75,3.4s-2.85,2.08-4.37,3.01
		c-1.52,0.94-3.07,1.79-4.65,2.58c-1.58,0.78-3.1,1.48-4.58,2.09h5.2c-0.43,0.37-0.85,0.74-1.26,1.1c-0.41,0.37-0.84,0.72-1.27,1.06
		h15.32c0.67,0,1.23,0.17,1.68,0.51C318.33,26.54,318.67,26.95,318.92,27.44z M294.4,10.88c-0.61,0.52-1.24,1.04-1.89,1.54
		c-0.64,0.51-1.32,1-2.02,1.5h4.6c0.49,0.55,1.01,1.1,1.56,1.66c0.55,0.55,1.13,1.04,1.75,1.47c1.84-0.92,3.63-1.9,5.36-2.94
		c1.73-1.04,3.27-2.12,4.62-3.22H294.4z M295.46,30.06c-0.67,0.52-1.36,1.03-2.05,1.52c-0.69,0.49-1.4,0.97-2.14,1.43h5.34
		c0.4,0.58,0.83,1.15,1.31,1.7c0.48,0.55,0.96,1.06,1.45,1.52c1.78-0.89,3.54-1.86,5.29-2.9c1.75-1.04,3.4-2.13,4.97-3.27H295.46z"
		/>
</g>
<g class="st0">
	<path class="st1" d="M5.4,70.63C4.76,72.12,4,73.57,3.09,75H1.66c1.02-1.49,1.85-2.99,2.5-4.51c0.64-1.52,1.19-2.99,1.64-4.41h1.27
		C6.59,67.62,6.03,69.14,5.4,70.63z M5.8,64.34c-0.75-0.78-1.46-1.62-2.16-2.54c-0.69-0.91-1.31-1.86-1.85-2.85h1.3
		c0.52,0.83,1.14,1.7,1.87,2.61s1.55,1.83,2.47,2.77H5.8z M5.93,57.84c-0.75-0.78-1.47-1.62-2.16-2.54
		c-0.69-0.91-1.31-1.86-1.85-2.85h1.33c0.28,0.43,0.56,0.87,0.85,1.3c0.29,0.43,0.6,0.87,0.95,1.31c0.35,0.44,0.72,0.89,1.13,1.35
		s0.86,0.93,1.37,1.42H5.93z M22.52,65.19l-0.42,5.07h2.03v0.88h-2.08l-0.1,1.27c-0.09,0.81-0.37,1.44-0.86,1.87
		c-0.47,0.43-1.08,0.65-1.85,0.65h-2.68l-0.62-0.96h3.28c0.16,0,0.32-0.04,0.48-0.1c0.16-0.07,0.32-0.16,0.46-0.27
		c0.14-0.11,0.26-0.25,0.35-0.4c0.1-0.16,0.15-0.32,0.17-0.49l0.13-1.56h-9.28c-0.83,0-1.46-0.21-1.87-0.62s-0.57-1.01-0.47-1.79
		l0.52-3.54H7.83v-0.94h2l0.52-3.59c0.05-0.35,0.13-0.67,0.23-0.96s0.27-0.54,0.49-0.73c0.38-0.35,0.96-0.52,1.74-0.52h7.59
		c0.81,0,1.43,0.21,1.85,0.62c0.47,0.43,0.66,1.08,0.57,1.95l-0.23,3.22h1.87v0.94H22.52z M12.19,55.42
		c-0.35,0.59-0.72,1.17-1.12,1.73c-0.4,0.56-0.82,1.1-1.27,1.6H8.32c0.99-1.11,1.81-2.19,2.47-3.24c0.66-1.05,1.2-2.08,1.64-3.08
		h1.25c-0.14,0.35-0.29,0.69-0.44,1.03c-0.16,0.34-0.33,0.68-0.52,1.03h11.44v0.94H12.19z M10.89,65.19l-0.52,3.77
		c-0.05,0.42,0.04,0.74,0.27,0.96s0.53,0.34,0.9,0.34h9.36l0.39-5.07H10.89z M21.35,59.77c-0.24-0.27-0.53-0.4-0.86-0.4h-7.67
		c-0.35,0-0.64,0.11-0.87,0.32c-0.23,0.22-0.37,0.5-0.4,0.85l-0.52,3.72h10.35l0.31-3.69C21.7,60.31,21.59,60.04,21.35,59.77z
		 M16.85,69.43c-0.49-0.43-0.97-0.94-1.46-1.53c-0.49-0.59-0.89-1.22-1.22-1.9h1.35c0.62,1.06,1.59,2.2,2.89,3.43H16.85z
		 M17.11,63.5c-0.49-0.43-0.95-0.92-1.39-1.47c-0.44-0.55-0.83-1.12-1.16-1.73h1.3c0.29,0.52,0.67,1.03,1.12,1.53
		c0.45,0.5,1,1.06,1.64,1.66H17.11z"/>
	<path class="st1" d="M39.83,58.54c-0.12,1.63-0.36,3.16-0.7,4.59c-0.35,1.43-0.92,2.85-1.72,4.25c-0.71,1.25-1.62,2.49-2.73,3.73
		c-1.11,1.24-2.51,2.53-4.21,3.86h-1.79c2.86-2.11,5.08-4.3,6.66-6.55c-0.78-0.85-1.47-1.71-2.05-2.59
		c-0.59-0.88-1.14-1.85-1.64-2.93h1.25c0.24,0.62,0.64,1.34,1.2,2.15c0.55,0.81,1.19,1.6,1.9,2.38c0.87-1.4,1.52-2.85,1.95-4.33
		c0.43-1.48,0.67-3.06,0.7-4.75c0-0.26-0.03-0.52-0.1-0.77s-0.23-0.38-0.47-0.38h-5.64c-0.29,1.04-0.65,2.03-1.05,2.98
		c-0.41,0.95-0.87,1.95-1.39,3h-1.43c0.55-1.02,1.04-2,1.44-2.94c0.41-0.94,0.75-1.84,1.03-2.72c0.28-0.88,0.5-1.74,0.68-2.59
		c0.17-0.85,0.29-1.69,0.36-2.52h1.3c-0.09,0.69-0.19,1.35-0.3,1.96s-0.24,1.21-0.38,1.78h5.25c0.69,0,1.22,0.23,1.59,0.68
		c0.17,0.21,0.28,0.46,0.31,0.74C39.87,57.88,39.87,58.19,39.83,58.54z M50.23,67.9c-0.64-0.61-1.27-1.27-1.87-1.99
		c-0.61-0.72-1.19-1.47-1.74-2.25c-0.61-0.85-1.16-1.69-1.65-2.54s-0.91-1.65-1.26-2.43v16.33h-1.2V52.4h1.2v5.88h1.09
		c0.33,0.75,0.74,1.52,1.22,2.33c0.48,0.81,1.02,1.62,1.61,2.43c0.64,0.88,1.32,1.74,2.04,2.57c0.72,0.83,1.45,1.6,2.2,2.29H50.23z"
		/>
	<path class="st1" d="M60.12,56.35c-0.53,1.3-1.13,2.6-1.81,3.9h0.99v14.69h-1.2V60.67c-0.23,0.4-0.45,0.81-0.69,1.22
		c-0.23,0.42-0.48,0.83-0.74,1.25h-1.35c1.16-1.8,2.12-3.56,2.89-5.28c0.76-1.72,1.44-3.53,2.03-5.43h1.27
		C61.12,53.75,60.65,55.05,60.12,56.35z M60.66,60.51V59.6h8.16v-1.85h-6.71v-0.91h6.71v-1.87h-7.23v-0.91h7.23v-1.64h1.2v1.64h7.88
		v0.91h-7.88v1.87h7.1v0.91h-7.1v1.85h8.35v0.91H60.66z M65.46,73.62c-0.81,0.52-1.57,0.97-2.3,1.35h-2.24
		c0.99-0.45,1.92-0.94,2.78-1.46c0.87-0.52,1.61-1.02,2.24-1.51h1.64C66.97,72.56,66.26,73.1,65.46,73.62z M75.76,70.68
		c-0.42,0.38-0.96,0.57-1.64,0.57h-9.49c-0.73,0-1.29-0.2-1.69-0.6c-0.42-0.4-0.62-0.94-0.62-1.61v-4.68c0-0.36,0.06-0.68,0.17-0.95
		c0.11-0.27,0.26-0.5,0.46-0.69c0.43-0.4,1-0.6,1.69-0.6h9.46c0.75,0,1.32,0.2,1.72,0.6c0.4,0.4,0.6,0.95,0.6,1.64v4.65
		C76.41,69.73,76.2,70.28,75.76,70.68z M74.95,63.41c-0.18-0.23-0.45-0.35-0.79-0.35h-9.57c-0.33,0-0.59,0.11-0.78,0.33
		c-0.19,0.22-0.29,0.52-0.29,0.92v0.55h11.7v-0.55C75.22,63.95,75.13,63.65,74.95,63.41z M75.22,65.77h-11.7v1.82h11.7V65.77z
		 M75.22,68.5h-11.7v0.6c0,0.4,0.1,0.7,0.3,0.91s0.46,0.31,0.77,0.31h9.59c0.31,0,0.56-0.11,0.75-0.34
		c0.19-0.22,0.29-0.53,0.29-0.91V68.5z M76.23,74.97c-0.31-0.16-0.66-0.36-1.04-0.6c-0.38-0.24-0.77-0.5-1.17-0.78
		c-0.4-0.28-0.78-0.55-1.13-0.83c-0.36-0.28-0.66-0.53-0.92-0.75h1.77c0.76,0.57,1.54,1.11,2.34,1.61c0.8,0.5,1.64,0.95,2.52,1.35
		H76.23z"/>
	<path class="st1" d="M94.98,69.77v3.17c0,0.68-0.19,1.2-0.57,1.56C94.04,74.83,93.55,75,92.92,75h-2.7l-0.65-0.88h2.99
		c0.38,0,0.68-0.1,0.91-0.31s0.34-0.51,0.34-0.91v-3.12H82.97v-0.91h10.84v-1.07c0.54-0.12,1.13-0.28,1.78-0.48s1.3-0.42,1.94-0.65
		c0.64-0.23,1.25-0.48,1.82-0.74c0.57-0.26,1.06-0.51,1.46-0.75H85.12v-0.88h16.25c0.29,0,0.51,0.07,0.64,0.22s0.19,0.32,0.17,0.51
		c-0.05,0.33-0.23,0.57-0.52,0.73c-0.43,0.26-0.93,0.52-1.48,0.78s-1.12,0.51-1.7,0.74c-0.58,0.23-1.17,0.45-1.77,0.64
		c-0.6,0.19-1.17,0.36-1.73,0.49v0.47h10.76v0.91H94.98z M83.02,55.7v-0.91h10.76c-0.29-0.29-0.59-0.67-0.88-1.12
		c-0.29-0.45-0.56-0.88-0.81-1.27h1.4c0.19,0.35,0.47,0.75,0.83,1.21c0.36,0.46,0.7,0.85,1.01,1.18h9.8v0.91H83.02z M102.26,62.05
		c-0.19,0.19-0.44,0.32-0.75,0.39s-0.7,0.1-1.17,0.1H87.98c-0.95,0-1.61-0.21-1.98-0.62c-0.31-0.35-0.47-0.87-0.47-1.56v-0.83
		c0-0.69,0.2-1.2,0.6-1.53c0.4-0.35,1.01-0.52,1.85-0.52h12.35c0.85,0,1.47,0.17,1.87,0.52c0.38,0.35,0.57,0.86,0.57,1.53v0.83
		C102.78,61.16,102.6,61.72,102.26,62.05z M101.58,59.42c0-0.29-0.09-0.54-0.27-0.74c-0.18-0.2-0.43-0.3-0.74-0.3H87.85
		c-0.38,0-0.66,0.1-0.85,0.3s-0.27,0.45-0.27,0.74v1.25c0,0.29,0.08,0.53,0.25,0.7c0.16,0.17,0.42,0.26,0.77,0.26h12.82
		c0.31,0,0.56-0.08,0.74-0.25c0.18-0.17,0.27-0.4,0.27-0.71V59.42z"/>
</g>
<g class="st0">
	<path class="st1" d="M124.28,67.82v4.94c0,0.35-0.06,0.66-0.2,0.94c-0.13,0.28-0.31,0.51-0.53,0.7c-0.24,0.21-0.52,0.36-0.82,0.47
		c-0.3,0.1-0.61,0.16-0.92,0.16h-4.52l-0.81-2.42h3.09c0.19,0,0.37-0.09,0.53-0.26c0.16-0.17,0.25-0.35,0.25-0.52v-4h-9.44V65.4
		h9.44V62h-8.22v-2.52h8.22v-3.74c-0.66,0.03-1.37,0.07-2.13,0.1c-0.76,0.04-1.53,0.07-2.3,0.09c-0.77,0.03-1.53,0.05-2.28,0.07
		s-1.43,0.04-2.05,0.05v-2.5c3.47-0.03,7.02-0.16,10.67-0.36c3.65-0.21,7.24-0.56,10.78-1.07v2.39c-1.14,0.17-2.47,0.35-3.99,0.52
		c-1.52,0.17-3.11,0.33-4.77,0.47v3.98h8.16V62h-8.16v3.41h9.33v2.42H124.28z"/>
	<path class="st1" d="M140.53,72.14c-0.1,1.08-0.25,2.1-0.44,3.07h-2.42c0.24-0.97,0.42-1.99,0.53-3.05
		c0.11-1.07,0.19-2.11,0.25-3.13h2.26C140.69,70.02,140.63,71.06,140.53,72.14z M155.3,55.24v0.99h4.89v1.77h-13.47v-0.68
		l-4.81,8.42h1.77c-0.03-0.36-0.07-0.77-0.1-1.21c-0.03-0.44-0.07-0.83-0.1-1.16h2.31c0.05,0.83,0.15,1.63,0.29,2.39
		c0.14,0.76,0.29,1.53,0.47,2.31h-2.37c-0.09-0.29-0.17-0.59-0.23-0.9c-0.07-0.3-0.13-0.6-0.18-0.9l-0.57,1.79h-3.8
		c-0.28,0-0.52-0.06-0.72-0.18s-0.36-0.28-0.48-0.47c-0.29-0.45-0.3-0.94-0.03-1.46l2.55-4.6h-1.2c-0.33,0-0.63-0.07-0.91-0.22
		c-0.28-0.15-0.5-0.34-0.68-0.58c-0.14-0.23-0.22-0.47-0.25-0.74s0.03-0.55,0.17-0.84l3.46-6.86h3.64l-3.77,6.94h0.86l1.09-2h3.59
		v-0.83h4.94v-0.99h-5.43v-1.9h5.43v-1.22h3.64v1.22h5.38v1.9H155.3z M141.62,75.2c-0.09-1.01-0.17-2.04-0.23-3.11
		c-0.07-1.07-0.09-2.09-0.05-3.08h2.05c0,0.99,0.03,2.02,0.1,3.09c0.07,1.07,0.17,2.11,0.31,3.09H141.62z M144.51,74.35
		c-0.14-0.85-0.26-1.72-0.35-2.63c-0.1-0.9-0.17-1.8-0.22-2.7h2.05c0.05,0.88,0.13,1.78,0.22,2.68s0.22,1.79,0.38,2.65H144.51z
		 M151.74,74.05c-0.38,0.42-0.79,0.81-1.22,1.16h-4.34c0.47-0.38,0.92-0.76,1.35-1.14c0.43-0.38,0.85-0.81,1.25-1.27h4.03
		C152.47,73.2,152.12,73.62,151.74,74.05z M160.06,62.85c-0.24,0.28-0.6,0.42-1.07,0.42h-10.95c-0.43,0-0.81-0.16-1.12-0.47
		c-0.28-0.28-0.42-0.63-0.42-1.07v-1.56c0-0.42,0.13-0.75,0.39-1.01c0.16-0.16,0.34-0.27,0.55-0.34s0.42-0.1,0.65-0.1h10.74
		c0.52,0,0.94,0.2,1.25,0.6c0.23,0.28,0.34,0.61,0.34,0.99v1.51C160.42,62.26,160.3,62.61,160.06,62.85z M159.38,71.77
		c-0.35,0.29-0.77,0.44-1.27,0.44h-9.49c-0.24,0-0.47-0.06-0.68-0.17c-0.21-0.11-0.38-0.26-0.52-0.46
		c-0.26-0.31-0.39-0.68-0.39-1.09v-4.97c0-0.4,0.14-0.74,0.42-1.01c0.4-0.36,0.86-0.55,1.38-0.55h9.23c0.29,0,0.56,0.06,0.79,0.18
		c0.23,0.12,0.43,0.28,0.58,0.47c0.29,0.35,0.44,0.76,0.44,1.25v4.76C159.87,71.11,159.71,71.5,159.38,71.77z M150.54,60.41h-0.75
		c-0.23,0-0.34,0.1-0.34,0.31v0.49c0,0.1,0.04,0.19,0.12,0.26c0.08,0.07,0.16,0.1,0.25,0.1h0.73V60.41z M156.26,65.87
		c0-0.09-0.04-0.16-0.13-0.22c-0.09-0.06-0.17-0.09-0.26-0.09h-4.94c-0.23,0-0.34,0.1-0.34,0.31v0.42h5.67V65.87z M156.26,67.64
		h-5.67v0.78h5.67V67.64z M156.26,69.77h-5.67v0.47c0,0.09,0.03,0.17,0.1,0.23c0.07,0.07,0.14,0.1,0.21,0.1h5.04
		c0.1,0,0.18-0.03,0.23-0.1c0.05-0.07,0.08-0.15,0.08-0.23V69.77z M154.02,60.41h-1.04v1.17h1.04V60.41z M156.52,75.2
		c-0.4-0.35-0.8-0.73-1.2-1.14c-0.4-0.42-0.75-0.84-1.07-1.27h4.19c0.4,0.45,0.81,0.88,1.24,1.29c0.42,0.41,0.86,0.78,1.31,1.13
		H156.52z M157.53,60.72c0-0.09-0.04-0.16-0.12-0.22s-0.16-0.09-0.25-0.09h-0.68v1.17h0.75c0.1,0,0.18-0.04,0.22-0.12
		s0.07-0.16,0.07-0.25V60.72z"/>
	<path class="st1" d="M181.97,75.15c-0.57-0.31-1.11-0.67-1.62-1.07c-0.51-0.4-1.04-0.85-1.6-1.35h-4.81
		c-0.56,0.47-1.14,0.9-1.74,1.3c-0.61,0.4-1.22,0.77-1.85,1.12h-6.11c0.71-0.36,1.43-0.76,2.14-1.18c0.72-0.42,1.4-0.87,2.04-1.34
		c-0.29,0-0.56-0.05-0.81-0.16c-0.24-0.1-0.46-0.24-0.65-0.42c-0.21-0.21-0.37-0.45-0.49-0.74s-0.18-0.59-0.18-0.92v-6.16h-2.24
		c0.87-0.36,1.7-0.77,2.5-1.21c0.8-0.44,1.59-0.94,2.37-1.5h-1.66c-0.71,0-1.26-0.22-1.64-0.65c-0.45-0.47-0.56-1.11-0.34-1.92
		l0.26-1.09c0.1-0.47,0.32-0.81,0.65-1.04c0.29-0.17,0.66-0.26,1.09-0.26h4.19V55.5h-6.55v-1.98h6.55v-1.33h3.77v1.33h2.24v-1.33
		h3.69v1.33h3.59c0.61,0,1.13,0.21,1.59,0.62c0.16,0.16,0.29,0.34,0.39,0.55c0.1,0.21,0.16,0.44,0.16,0.7v1.2
		c0,0.45-0.16,0.86-0.47,1.22c-0.36,0.4-0.8,0.6-1.3,0.6h-3.95v1.14h4.52c0.54,0,1.01,0.18,1.43,0.55c0.14,0.14,0.26,0.3,0.35,0.48
		c0.1,0.18,0.14,0.39,0.14,0.61v1.04c0,0.54-0.19,0.98-0.57,1.33c-0.19,0.19-0.42,0.33-0.68,0.4s-0.54,0.09-0.83,0.04
		c0.17,0.19,0.31,0.41,0.42,0.65c0.1,0.24,0.16,0.51,0.16,0.81v5.1c0,0.61-0.18,1.11-0.55,1.51c-0.38,0.38-0.88,0.62-1.48,0.7
		c0.61,0.47,1.22,0.9,1.83,1.29c0.62,0.39,1.27,0.76,1.96,1.11H181.97z M169.62,58.41c-0.28,0-0.44,0.1-0.49,0.29l-0.08,0.47
		c-0.04,0.1,0,0.2,0.09,0.27c0.1,0.08,0.2,0.12,0.3,0.12h1.33c0.09-0.16,0.17-0.34,0.26-0.55c0.09-0.21,0.15-0.41,0.18-0.6H169.62z
		 M182.34,65.82c0-0.09-0.05-0.18-0.14-0.29c-0.1-0.1-0.19-0.16-0.27-0.16h-11.39c-0.1,0-0.21,0.04-0.31,0.13
		c-0.1,0.09-0.16,0.19-0.16,0.31v0.36h12.27V65.82z M182.34,67.66h-12.27v0.81h12.27V67.66z M182.34,69.93h-12.27v0.34
		c0,0.12,0.06,0.23,0.17,0.33c0.11,0.1,0.23,0.14,0.35,0.14h11.23c0.12,0,0.24-0.04,0.35-0.13c0.11-0.09,0.17-0.2,0.17-0.34V69.93z
		 M177.48,61.53h-3.67c-0.62,0.75-1.34,1.38-2.16,1.9h5.82V61.53z M177.48,58.41h-2.39c-0.05,0.36-0.15,0.75-0.29,1.14h2.68V58.41z
		 M177.48,55.5h-2.24v1.07h2.24V55.5z M183.17,55.81c0-0.09-0.04-0.16-0.13-0.22c-0.09-0.06-0.17-0.09-0.26-0.09h-1.61v1.07h1.64
		c0.09,0,0.17-0.04,0.25-0.13c0.08-0.09,0.12-0.17,0.12-0.26V55.81z M183.95,61.92c0-0.09-0.02-0.17-0.07-0.26s-0.1-0.13-0.17-0.13
		h-2.55v1.9h1.59l-0.39-1.17h1.2C183.82,62.26,183.95,62.14,183.95,61.92z"/>
	<path class="st1" d="M203.94,67.74c0.07,0.62,0.06,1.25-0.04,1.87c-0.1,0.62-0.29,1.21-0.59,1.74c-0.38,0.68-0.88,1.21-1.49,1.6
		c-0.62,0.39-1.29,0.68-2.02,0.87c-0.87,0.21-1.75,0.29-2.67,0.23c-0.91-0.05-1.78-0.19-2.61-0.42c-0.66-0.19-1.23-0.54-1.7-1.05
		c-0.48-0.51-0.85-1.08-1.13-1.7c-0.21-0.5-0.35-1.01-0.42-1.53c-0.07-0.52-0.1-1.06-0.08-1.61h4.13c0.02,0.33,0.03,0.67,0.04,1.01
		s0.04,0.69,0.09,1.01c0.09,0.55,0.28,0.99,0.57,1.3c0.29,0.31,0.62,0.52,0.99,0.62c0.66,0.16,1.27,0.04,1.82-0.34
		c0.24-0.19,0.46-0.42,0.64-0.69c0.18-0.27,0.29-0.59,0.33-0.97c0.04-0.35,0.07-0.73,0.09-1.16c0.03-0.42,0.02-0.82-0.01-1.18
		c-0.04-0.4-0.1-0.73-0.21-1c-0.1-0.27-0.24-0.5-0.42-0.69c-0.21-0.23-0.46-0.38-0.75-0.47s-0.63-0.13-1.01-0.13h-2.26v-2.34h2.18
		c0.42,0,0.77-0.06,1.07-0.19s0.54-0.32,0.73-0.56c0.31-0.42,0.49-0.97,0.55-1.66c0.03-0.4,0.03-0.79-0.01-1.18
		c-0.04-0.39-0.11-0.76-0.2-1.11c-0.09-0.29-0.26-0.54-0.53-0.74s-0.56-0.33-0.87-0.38c-0.29-0.05-0.58-0.04-0.87,0.03
		c-0.29,0.07-0.52,0.22-0.71,0.44c-0.35,0.4-0.57,0.85-0.68,1.35c-0.1,0.5-0.17,1.02-0.18,1.56h-4.24c0-0.66,0.11-1.3,0.33-1.94
		c0.22-0.63,0.52-1.2,0.92-1.7c0.42-0.54,0.88-0.95,1.39-1.23c0.51-0.29,1.08-0.51,1.7-0.66c0.73-0.19,1.48-0.28,2.26-0.27
		c0.78,0.01,1.53,0.13,2.26,0.38c1.28,0.4,2.24,1.09,2.86,2.08c0.26,0.42,0.46,0.88,0.58,1.39c0.13,0.51,0.17,1.06,0.12,1.65
		c-0.09,1.01-0.44,1.86-1.07,2.57c-0.31,0.35-0.66,0.62-1.03,0.83c-0.37,0.21-0.78,0.38-1.24,0.52c0.36,0.05,0.73,0.16,1.11,0.31
		c0.37,0.16,0.71,0.36,1,0.62c0.45,0.38,0.76,0.82,0.94,1.33C203.78,66.66,203.89,67.19,203.94,67.74z"/>
	<path class="st1" d="M214.94,65.62c-0.4,0.15-0.77,0.28-1.12,0.4v6.94c0,0.33-0.07,0.63-0.22,0.91s-0.34,0.52-0.58,0.73
		c-0.23,0.19-0.48,0.34-0.75,0.44c-0.28,0.1-0.56,0.16-0.86,0.16h-3.09l-0.65-2.39h1.87c0.14,0,0.26-0.07,0.38-0.2
		c0.11-0.13,0.17-0.26,0.17-0.4v-4.97c-0.36,0.12-0.79,0.25-1.29,0.38s-0.9,0.24-1.21,0.33v-2.52c0.16-0.03,0.35-0.08,0.57-0.14
		c0.22-0.06,0.46-0.13,0.69-0.2c0.23-0.07,0.46-0.14,0.68-0.21s0.4-0.13,0.56-0.18v-5.75h-2.47v-2.42h2.47v-4.29h3.74v4.29h2.08
		v2.42h-2.08v4.52c0.29-0.09,0.65-0.2,1.05-0.35c0.41-0.15,0.75-0.28,1.03-0.4v2.52C215.66,65.35,215.34,65.48,214.94,65.62z
		 M227.4,62.7V75.2h-3.74V62.7h-3.12c-0.02,1.11-0.06,2.21-0.12,3.29c-0.06,1.08-0.16,2.15-0.3,3.21c-0.14,1.06-0.34,2.09-0.6,3.09
		c-0.26,1.01-0.61,1.98-1.04,2.91h-4.03c0.47-0.88,0.85-1.82,1.14-2.79s0.52-1.98,0.69-2.99c0.16-1.01,0.28-2.04,0.34-3.07
		c0.06-1.03,0.09-2.04,0.09-3.03v-7.23c0-0.8,0.22-1.41,0.65-1.85c0.24-0.24,0.55-0.42,0.94-0.55c0.38-0.12,0.82-0.2,1.33-0.23
		c1.73-0.1,3.48-0.26,5.24-0.48c1.76-0.22,3.48-0.49,5.16-0.82v2.47c-1.47,0.31-2.93,0.56-4.38,0.75c-1.45,0.19-2.92,0.36-4.41,0.49
		c-0.19,0.02-0.35,0.09-0.48,0.21c-0.13,0.12-0.2,0.28-0.2,0.47v3.77h10.04v2.37H227.4z"/>
</g>
<g class="st0">
	<path class="st1" d="M240.58,56.22c-0.47,1.14-1.01,2.31-1.64,3.48h0.7v15.31h-1.2V60.57c-0.22,0.38-0.46,0.76-0.7,1.14
		c-0.24,0.38-0.5,0.77-0.78,1.17h-1.22c0.66-0.92,1.23-1.81,1.73-2.67c0.49-0.86,0.94-1.71,1.33-2.56c0.39-0.85,0.74-1.7,1.05-2.56
		c0.31-0.86,0.61-1.75,0.88-2.67h1.17C241.49,53.81,241.05,55.08,240.58,56.22z M256.44,75c-1.14-0.29-2.22-0.62-3.24-0.96
		c-1.01-0.35-2.07-0.76-3.16-1.25c-1.04,0.45-2.12,0.85-3.24,1.2c-1.12,0.35-2.31,0.68-3.57,1.01h-2.63
		c1.73-0.47,3.27-0.92,4.62-1.35c1.34-0.43,2.59-0.88,3.73-1.33c-0.66-0.31-1.34-0.65-2.04-1c-0.7-0.35-1.44-0.75-2.22-1.18
		c-0.31,0.28-0.62,0.54-0.91,0.78c-0.29,0.24-0.59,0.46-0.88,0.65h-1.61c1.16-0.78,2.13-1.55,2.91-2.31
		c0.78-0.76,1.47-1.53,2.08-2.31h1.4c-0.31,0.42-0.65,0.83-1.01,1.25h8.58c0.38,0,0.63,0.17,0.75,0.49
		c0.04,0.14,0.03,0.29-0.01,0.46s-0.14,0.31-0.3,0.43c-0.73,0.55-1.46,1.05-2.21,1.5c-0.75,0.44-1.52,0.85-2.31,1.24
		c1.18,0.47,2.45,0.91,3.81,1.34s2.93,0.88,4.69,1.37H256.44z M244.53,65.73c-0.54,0.58-1.13,1.15-1.79,1.7h-1.53
		c0.76-0.61,1.44-1.22,2.04-1.85c0.6-0.62,1.1-1.27,1.5-1.92h1.35C245.59,64.46,245.07,65.15,244.53,65.73z M257.69,64.93v-1.33
		c0-0.28-0.08-0.5-0.23-0.68c-0.16-0.17-0.36-0.26-0.6-0.26h-13.54c-0.24,0-0.43,0.09-0.56,0.26c-0.13,0.17-0.19,0.4-0.19,0.68v1.33
		h-1.2v-1.4c0-0.54,0.15-0.95,0.44-1.25c0.31-0.31,0.77-0.47,1.38-0.47h0.57v-4.86c0-0.61,0.16-1.06,0.47-1.35
		c0.35-0.38,0.89-0.57,1.64-0.57H249c0.1-0.22,0.21-0.46,0.31-0.69c0.1-0.23,0.2-0.46,0.29-0.69h-7.38v-0.86h16.12v0.86h-7.62
		c-0.09,0.24-0.18,0.48-0.29,0.71c-0.1,0.23-0.2,0.46-0.29,0.66h4.11c0.73,0,1.27,0.16,1.64,0.47c0.38,0.33,0.57,0.81,0.57,1.46
		v4.86h0.52c0.62,0,1.08,0.14,1.38,0.42c0.35,0.29,0.52,0.73,0.52,1.3v1.4H257.69z M254.64,69.33c0.09-0.05,0.11-0.11,0.08-0.18
		c-0.04-0.07-0.1-0.1-0.18-0.1h-8.61c-0.19,0.21-0.38,0.39-0.57,0.53c-0.19,0.15-0.39,0.32-0.6,0.51h1.77
		c0.61,0.35,1.2,0.66,1.77,0.95c0.57,0.29,1.15,0.56,1.74,0.82c0.85-0.38,1.64-0.77,2.38-1.16C253.16,70.3,253.9,69.85,254.64,69.33
		z M255.32,56.95c0-0.71-0.36-1.07-1.07-1.07h-8.4c-0.66,0-0.99,0.36-0.99,1.07v0.34h10.45V56.95z M255.32,58.15h-10.45v1.4h10.45
		V58.15z M255.32,60.41h-10.45v1.4h10.45V60.41z M254.51,66.83h-5.67c-0.66,0-1.17-0.18-1.53-0.55c-0.28-0.29-0.42-0.69-0.42-1.2
		v-1.64h1.12v1.61c0,0.29,0.09,0.52,0.27,0.68c0.18,0.16,0.4,0.23,0.66,0.23h6.01L254.51,66.83z M251.39,65.32
		c-0.26-0.33-0.51-0.66-0.74-0.99c-0.23-0.33-0.45-0.66-0.64-0.99h1.25c0.19,0.29,0.4,0.61,0.64,0.94c0.23,0.33,0.52,0.68,0.85,1.04
		H251.39z M257.5,67.4c-0.33-0.29-0.63-0.58-0.91-0.87c-0.28-0.29-0.54-0.58-0.78-0.87c-0.24-0.29-0.49-0.6-0.73-0.92
		c-0.24-0.32-0.5-0.67-0.78-1.05h1.27c0.92,1.32,2.04,2.56,3.35,3.72H257.5z"/>
	<path class="st1" d="M266.56,71.86c-0.53,0.88-1.21,1.7-2.04,2.48h-1.53c0.88-0.76,1.63-1.59,2.25-2.5s1.12-1.84,1.52-2.81h1.27
		C267.58,70.05,267.09,70.99,266.56,71.86z M284.52,68.37c-0.24-0.24-0.47-0.49-0.69-0.74s-0.43-0.52-0.64-0.79
		c-1.35,0.12-2.9,0.24-4.65,0.36c-1.75,0.12-3.54,0.23-5.36,0.31s-3.59,0.16-5.32,0.22c-1.73,0.06-3.23,0.1-4.51,0.12v-0.91
		c0.64,0,1.37-0.01,2.18-0.03c0.82-0.02,1.68-0.04,2.59-0.07s1.86-0.06,2.85-0.09c0.99-0.04,1.98-0.08,2.96-0.13v-2.5h-6.53
		c-0.87,0-1.49-0.22-1.87-0.65c-0.33-0.38-0.49-0.91-0.49-1.59v-2.5c0-0.36,0.05-0.68,0.14-0.94c0.09-0.26,0.23-0.49,0.4-0.68
		c0.42-0.42,1.05-0.62,1.9-0.62h6.45v-2.05H264v-0.88h9.93v-1.79h1.2v1.79h10.09v0.88h-10.09v2.05h6.47c0.81,0,1.42,0.16,1.82,0.49
		c0.42,0.33,0.62,0.88,0.62,1.66v2.55c0,0.69-0.17,1.23-0.52,1.61c-0.38,0.43-0.99,0.65-1.82,0.65h-6.58v2.44
		c1.4-0.09,2.75-0.17,4.03-0.25c1.28-0.08,2.43-0.17,3.43-0.27c-0.26-0.36-0.51-0.76-0.75-1.2h1.25c0.33,0.54,0.73,1.1,1.2,1.69
		c0.47,0.59,1.04,1.2,1.72,1.82H284.52z M273.94,58.02h-6.55c-0.35,0-0.62,0.1-0.83,0.3c-0.21,0.2-0.31,0.45-0.31,0.74v1.12h7.7
		V58.02z M273.94,61.06h-7.7v1.12c0,0.29,0.11,0.55,0.32,0.75s0.48,0.31,0.79,0.31h6.58V61.06z M280.41,74.94h-8.61
		c-0.33,0-0.63-0.06-0.9-0.18c-0.27-0.12-0.5-0.28-0.69-0.47c-0.16-0.19-0.28-0.4-0.38-0.62c-0.1-0.23-0.14-0.48-0.14-0.75v-4.55
		h1.17v4.58c0,0.28,0.1,0.51,0.31,0.7s0.46,0.29,0.75,0.29h8.97L280.41,74.94z M276.95,72.29c-0.42-0.54-0.84-1.17-1.27-1.91
		s-0.81-1.47-1.12-2.2h1.25c0.29,0.69,0.65,1.37,1.05,2.03c0.41,0.66,0.9,1.35,1.49,2.08H276.95z M282.59,58.3
		c-0.19-0.19-0.47-0.29-0.83-0.29h-6.63v2.16h7.75v-1.09C282.88,58.75,282.78,58.49,282.59,58.3z M282.88,61.06h-7.75v2.18h6.71
		c0.29,0,0.54-0.11,0.74-0.34c0.2-0.22,0.3-0.46,0.3-0.7V61.06z M284.73,74.4c-1.28-1.63-2.28-3.41-2.99-5.36h1.25
		c0.33,0.85,0.75,1.73,1.26,2.65c0.51,0.92,1.14,1.82,1.89,2.7H284.73z"/>
</g>
</svg>
