<?xml version="1.0" encoding="utf-8"?>
<!-- Generator: Adobe Illustrator 24.0.1, SVG Export Plug-In . SVG Version: 6.00 Build 0)  -->
<svg version="1.1" id="圖層_1" xmlns="http://www.w3.org/2000/svg" xmlns:xlink="http://www.w3.org/1999/xlink" x="0px" y="0px"
	 viewBox="0 0 428 79.25" style="enable-background:new 0 0 428 79.25;" xml:space="preserve">
<style type="text/css">
	.st0{enable-background:new    ;}
	.st1{fill:#0F90C9;}
</style>
<g class="st0">
	<path class="st1" d="M14.21,40.28c-1.26,0.52-2.55,1.02-3.86,1.5c-1.32,0.48-2.61,0.92-3.89,1.33c-1.27,0.41-2.43,0.73-3.47,0.94
		v-4.42c1.53-0.43,2.96-0.87,4.28-1.33V25H3.96v-4.23h3.31V10.24H3.04V6h14.4v4.23H13.8v10.53h2.76V25H13.8v10.86
		c0.25-0.06,0.53-0.15,0.85-0.25c0.32-0.11,0.67-0.23,1.04-0.37s0.72-0.27,1.06-0.39c0.34-0.12,0.63-0.23,0.87-0.32v4.28
		C16.61,39.26,15.47,39.75,14.21,40.28z M17.43,44.83v-4.19h9.84v-4.74h-8.33v-4.14h8.33v-4.23h-4.32c-1.1,0-2.04-0.35-2.81-1.06
		c-0.4-0.4-0.71-0.88-0.94-1.45s-0.35-1.22-0.35-1.96V8.49c0-1.17,0.41-2.12,1.24-2.85c0.74-0.64,1.58-0.97,2.53-0.97H37.9
		c1.35,0,2.38,0.4,3.08,1.2c0.37,0.4,0.64,0.84,0.81,1.31c0.17,0.48,0.25,0.96,0.25,1.45v15.18c0,1.07-0.35,1.96-1.06,2.67
		c-0.34,0.34-0.74,0.6-1.2,0.78c-0.46,0.18-0.98,0.28-1.56,0.28h-4.46v4.23h8.33v4.14h-8.33v4.74h9.75v4.19H17.43z M27.28,8.77
		h-1.84c-0.25,0-0.47,0.09-0.67,0.28c-0.2,0.18-0.3,0.38-0.3,0.6v4.32h2.81V8.77z M27.28,18.1h-2.81v4.37
		c0,0.21,0.11,0.42,0.34,0.62s0.44,0.3,0.62,0.3h1.84V18.1z M36.52,9.82c0-0.31-0.11-0.56-0.32-0.76c-0.21-0.2-0.46-0.3-0.74-0.3
		h-1.7v5.2h2.76V9.82z M36.52,18.1h-2.76v5.29h1.84c0.25,0,0.46-0.08,0.64-0.25s0.28-0.35,0.28-0.53V18.1z"/>
	<path class="st1" d="M56.35,40.48c-0.37,1.49-0.81,2.97-1.33,4.44h-6.81c0.67-1.56,1.23-3.09,1.68-4.58
		c0.44-1.49,0.8-2.97,1.08-4.44h6.26C57.01,37.47,56.72,39,56.35,40.48z M65.04,33.24c-0.71,0.71-1.63,1.06-2.76,1.06h-8.92
		c-0.52,0-1-0.11-1.45-0.34c-0.44-0.23-0.84-0.53-1.17-0.9c-0.64-0.74-0.97-1.61-0.97-2.62V8.49c0-0.46,0.12-0.87,0.35-1.24
		s0.51-0.69,0.85-0.97c0.77-0.61,1.63-0.92,2.58-0.92h8.56c1.13,0,2.1,0.45,2.9,1.33c0.31,0.34,0.55,0.71,0.74,1.1
		c0.18,0.4,0.28,0.83,0.28,1.29v21.76C66.01,31.86,65.69,32.66,65.04,33.24z M59.75,10.28c0-0.25-0.08-0.45-0.25-0.62
		c-0.17-0.17-0.38-0.25-0.62-0.25h-2.25c-0.21,0-0.39,0.11-0.53,0.32c-0.14,0.21-0.21,0.4-0.21,0.55v3.31h3.86V10.28z M59.75,17.46
		h-3.86v4.6h3.86V17.46z M59.75,25.97h-3.86v3.36c0,0.31,0.09,0.56,0.28,0.76c0.18,0.2,0.4,0.3,0.64,0.3h2.12
		c0.55,0,0.83-0.31,0.83-0.92V25.97z M61.36,44.92c-0.67-1.41-1.2-2.88-1.56-4.39c-0.37-1.52-0.69-3.06-0.97-4.62h6.3
		c0.12,0.67,0.28,1.41,0.48,2.21c0.2,0.8,0.43,1.59,0.69,2.39c0.26,0.8,0.54,1.58,0.83,2.35c0.29,0.77,0.59,1.46,0.9,2.07H61.36z
		 M76.61,23.62c-0.23,1.81-0.51,3.61-0.85,5.41c-0.34,1.79-0.71,3.52-1.13,5.17c-0.41,1.66-0.85,3.11-1.31,4.37h-6.9
		c1.38-3.56,2.35-6.96,2.92-10.21c0.57-3.25,0.93-6.5,1.08-9.75h6.67C77,20.14,76.84,21.81,76.61,23.62z M86.3,16.08v24.29
		c0,0.52-0.11,1.04-0.32,1.56c-0.21,0.52-0.49,1-0.83,1.43c-0.37,0.46-0.81,0.83-1.31,1.1c-0.51,0.28-1.02,0.41-1.54,0.41h-9.34
		l-1.24-4.23h7.18c0.21,0,0.4-0.11,0.55-0.32c0.15-0.21,0.23-0.4,0.23-0.55V16.08H67.39V11.8h12.28V4.44h6.62v7.36h2.99v4.28H86.3z"
		/>
	<path class="st1" d="M105.69,43.68c-3.57,0.43-7.21,0.75-10.93,0.97V40.5c1.2-0.09,2.45-0.21,3.77-0.34
		c1.32-0.14,2.58-0.28,3.77-0.44v-6.58h-6.03V29h6.03v-4.23h6.81V29h6.16v4.14h-6.16v5.89c1.01-0.09,2.16-0.22,3.45-0.39
		s2.5-0.35,3.63-0.53v4C112.76,42.73,109.26,43.25,105.69,43.68z M106.9,9.32l-4.09,9.29h5.75c-0.31-1.01-0.57-2.03-0.78-3.06
		c-0.21-1.03-0.41-2.08-0.6-3.15h5.89c0.34,1.78,0.76,3.56,1.27,5.36c0.51,1.79,1.1,3.52,1.77,5.18h-6.12
		c-0.25-0.61-0.47-1.21-0.67-1.79c-0.2-0.58-0.39-1.18-0.57-1.79l-1.2,3.59h-9.57c-0.43,0-0.82-0.13-1.17-0.39
		c-0.35-0.26-0.64-0.59-0.85-0.99c-0.18-0.34-0.29-0.71-0.32-1.13c-0.03-0.41,0.03-0.81,0.18-1.17l4.32-9.94h-4.97V5.13h21.25v4.19
		H106.9z M128.62,45.11c-0.52-0.74-1.04-1.48-1.54-2.23c-0.51-0.75-1-1.51-1.5-2.28c-0.43,0.8-0.89,1.57-1.38,2.32
		c-0.49,0.75-1.01,1.48-1.56,2.19h-7.36c1.2-1.75,2.37-3.54,3.52-5.38c1.15-1.84,2.19-3.7,3.1-5.57c-0.92-1.9-1.75-3.83-2.48-5.77
		s-1.43-3.93-2.07-5.96h6.53c0.18,0.61,0.38,1.23,0.6,1.84c0.21,0.61,0.44,1.21,0.69,1.79c0.52-1.66,0.95-3.33,1.29-5.04
		c0.34-1.7,0.63-3.44,0.87-5.22h-3.08c-0.25,0.83-0.51,1.63-0.81,2.42c-0.29,0.78-0.59,1.57-0.9,2.37h-6.67
		c1.01-2.61,1.89-5.26,2.65-7.96c0.75-2.7,1.4-5.44,1.96-8.23h6.58c-0.25,1.17-0.5,2.35-0.76,3.56c-0.26,1.21-0.53,2.4-0.81,3.57
		h10.07v4.28h-1.98c-0.43,3.22-1,6.36-1.7,9.41c-0.71,3.05-1.7,6-2.99,8.86c1.17,1.87,2.35,3.72,3.56,5.54
		c1.21,1.83,2.45,3.66,3.7,5.5H128.62z"/>
	<path class="st1" d="M174.71,16.03v-3.54c0-0.25-0.12-0.47-0.35-0.69s-0.47-0.32-0.71-0.32H148.4c-0.15,0-0.32,0.08-0.51,0.25
		c-0.18,0.17-0.28,0.33-0.28,0.48v3.77h-6.3v-5.34c0-0.52,0.1-0.97,0.3-1.36c0.2-0.38,0.47-0.71,0.81-0.99
		c0.37-0.31,0.8-0.54,1.29-0.69c0.49-0.15,0.98-0.23,1.47-0.23h12.28c-0.15-0.4-0.32-0.88-0.51-1.45s-0.35-1.04-0.51-1.4h7.36
		c0.43,0.89,0.9,1.84,1.43,2.85h11.87c0.61,0,1.17,0.08,1.68,0.25c0.51,0.17,0.94,0.42,1.31,0.76c0.67,0.61,1.01,1.49,1.01,2.62
		v5.01H174.71z M178.94,43.86c-0.67,0.64-1.64,0.97-2.9,0.97H146c-0.52,0-1.02-0.12-1.5-0.34c-0.48-0.23-0.88-0.54-1.22-0.94
		c-0.31-0.34-0.55-0.72-0.74-1.15c-0.18-0.43-0.28-0.87-0.28-1.33v-7.31c0-1.23,0.35-2.16,1.06-2.81c0.74-0.74,1.78-1.1,3.13-1.1
		h29.49c1.2,0,2.16,0.32,2.9,0.97c0.34,0.34,0.61,0.73,0.83,1.17c0.21,0.44,0.32,0.97,0.32,1.59v7.68
		C180,42.35,179.65,43.22,178.94,43.86z M177.05,27.3c-0.64,0.55-1.49,0.83-2.53,0.83h-27c-0.89,0-1.66-0.35-2.3-1.06
		c-0.55-0.61-0.83-1.3-0.83-2.07v-2.9c0-1.07,0.35-1.89,1.06-2.44c0.61-0.49,1.47-0.74,2.58-0.74h26.17c1.13,0,2.05,0.31,2.76,0.92
		c0.71,0.61,1.06,1.44,1.06,2.48v2.76C178.02,26.08,177.7,26.81,177.05,27.3z M157.87,33.47h-8.28c-0.18,0-0.34,0.08-0.48,0.23
		c-0.14,0.15-0.21,0.31-0.21,0.46v1.38h8.97V33.47z M157.87,39.12h-8.97v1.38c0,0.15,0.08,0.32,0.23,0.48
		c0.15,0.17,0.31,0.25,0.46,0.25h8.28V39.12z M149.22,17.09V13.5h24.1v3.59H149.22z M171.07,23.16c0-0.15-0.06-0.29-0.18-0.41
		c-0.12-0.12-0.26-0.18-0.41-0.18h-18.86c-0.15,0-0.28,0.05-0.37,0.16c-0.09,0.11-0.14,0.24-0.14,0.39v0.74
		c0,0.15,0.05,0.28,0.16,0.39c0.11,0.11,0.24,0.16,0.39,0.16h18.86c0.15,0,0.28-0.05,0.39-0.16c0.11-0.11,0.16-0.24,0.16-0.39V23.16
		z M173.42,34.2c0-0.18-0.09-0.35-0.28-0.51c-0.18-0.15-0.35-0.23-0.51-0.23h-8.23v2.07h9.02V34.2z M173.42,39.12h-9.02v2.12h8.37
		c0.15,0,0.3-0.08,0.44-0.23c0.14-0.15,0.21-0.31,0.21-0.46V39.12z"/>
	<path class="st1" d="M198.4,38.67v6.39h-6.3v-6.39h-5.2v-4h5.2v-2.3h-1.47c-0.8,0-1.52-0.28-2.16-0.83
		c-0.64-0.64-0.97-1.43-0.97-2.35V17.55c0-0.43,0.09-0.83,0.28-1.2s0.43-0.69,0.74-0.97c0.64-0.55,1.36-0.83,2.16-0.83h1.43v-2.35
		h-5.29V8.17h5.29V4.21h6.3v3.96h5.15v4.05h-5.15v2.35h1.29c0.98,0,1.78,0.31,2.39,0.92c0.64,0.64,0.97,1.47,0.97,2.48v11.32
		c0,0.89-0.29,1.63-0.87,2.21c-0.52,0.58-1.2,0.87-2.02,0.87h-1.75v2.3h5.61v4H198.4z M192.79,18.61H192
		c-0.25,0-0.43,0.08-0.55,0.25c-0.12,0.17-0.18,0.33-0.18,0.48v2.16h1.52V18.61z M192.79,25.23h-1.52v2.3
		c0,0.18,0.07,0.36,0.21,0.53c0.14,0.17,0.31,0.25,0.53,0.25h0.78V25.23z M199.27,19.35c0-0.49-0.25-0.74-0.74-0.74h-0.78v2.9h1.52
		V19.35z M199.27,25.23h-1.52v3.08h0.83c0.46,0,0.69-0.25,0.69-0.74V25.23z M203.87,44.78v-4.23h8.42v-6.07h-7.04v-4.23h20.84v4.23
		h-7.18v6.07h8.6v4.23H203.87z M209.81,19.16c-0.21,0.67-0.2,1.38,0.05,2.12l2.53,7.27h-5.61l-2.39-6.99
		c-0.15-0.46-0.23-0.98-0.23-1.56c0-0.58,0.08-1.1,0.23-1.56l2.76-7.96h5.57L209.81,19.16z M204.52,8.95V4.72h22.63v4.23H204.52z
		 M217.21,18.56c-0.15,0.4-0.22,0.83-0.21,1.29s0.1,0.89,0.25,1.29l2.62,7.41h-5.75l-2.44-6.9c-0.21-0.61-0.33-1.18-0.34-1.7
		c-0.02-0.52,0.08-1.09,0.3-1.7l2.67-7.77h5.66L217.21,18.56z M221.63,28.54l-2.71-7.82c-0.34-1.04-0.31-2.12,0.09-3.22l2.39-7.04
		h5.66l-2.62,7.87c-0.12,0.34-0.17,0.68-0.14,1.04c0.03,0.35,0.09,0.68,0.18,0.99l2.85,8.19H221.63z"/>
	<path class="st1" d="M237.45,37.68c-0.15,1.89-0.41,3.75-0.78,5.59h-4.37c0.43-1.81,0.74-3.66,0.92-5.57
		c0.18-1.9,0.29-3.82,0.32-5.75h4.28C237.73,33.88,237.61,35.79,237.45,37.68z M252.59,18.43c0.25,0.8,0.55,1.61,0.92,2.44
		s0.77,1.56,1.2,2.21h-6.58c-0.15-0.25-0.31-0.52-0.46-0.83c-0.15-0.31-0.28-0.58-0.37-0.83l-0.92,1.56h-10.95
		c-0.43,0-0.78-0.09-1.06-0.28c-0.28-0.18-0.48-0.41-0.6-0.69c-0.25-0.61-0.12-1.24,0.37-1.89l1.52-1.7h-2.76v-2.81h1.75v-8.1
		c0-0.8,0.28-1.44,0.83-1.93c0.34-0.34,0.74-0.57,1.22-0.71c0.47-0.14,0.97-0.21,1.5-0.21h15.69v2.94h-12.42
		c-0.37,0-0.55,0.17-0.55,0.51v0.69h12.28v2.07H240.9v1.33h12.28v1.98H240.9v1.43h13.98v2.81H252.59z M245.23,30.48v14.49h-6.26
		V30.48h-5.84v-3.77h5.84v-2.62h6.26v2.62h6.67v3.77H245.23z M246.45,19.32c-0.11-0.35-0.19-0.65-0.25-0.9h-3.17l-1.47,1.79h5.24
		C246.67,19.97,246.55,19.67,246.45,19.32z M247.57,43.36c-0.37-1.78-0.64-3.62-0.83-5.52c-0.18-1.9-0.31-3.83-0.37-5.8h4.14
		c0.12,1.99,0.31,3.93,0.55,5.8c0.25,1.87,0.58,3.71,1.01,5.52H247.57z M267.03,45.01c-0.31-0.49-0.58-1-0.81-1.52
		c-0.23-0.52-0.45-1.04-0.67-1.56l-1.24,3.08h-9.34c-0.52,0-0.97-0.12-1.33-0.35c-0.37-0.23-0.64-0.51-0.83-0.85
		c-0.4-0.74-0.37-1.55,0.09-2.44l3.82-6.95h-5.8c1.1-1.53,2.07-3.11,2.9-4.74c0.83-1.62,1.61-3.3,2.35-5.01h6.3
		c-0.43,1.29-0.94,2.56-1.52,3.82c-0.58,1.26-1.21,2.47-1.89,3.63h5.84l-4.97,8.88h5.2c-0.21-0.61-0.43-1.25-0.64-1.91
		c-0.21-0.66-0.4-1.33-0.55-2h6.07c0.49,1.44,1.02,2.81,1.59,4.09c0.57,1.29,1.25,2.56,2.05,3.82H267.03z M269.51,7.18
		c-1.47,0.84-3.01,1.62-4.6,2.32h-10.49c1.53-0.74,3.08-1.54,4.65-2.42c1.56-0.87,3.05-1.75,4.46-2.64h10.3
		C272.43,5.42,270.99,6.33,269.51,7.18z M269.51,20.24c-1.38,1.03-2.79,1.99-4.23,2.88h-10.26c1.66-0.92,3.31-1.89,4.97-2.92
		s3.24-2.12,4.74-3.29h8.69C272.2,18.1,270.89,19.21,269.51,20.24z M269.42,13.6c-1.35,0.86-2.76,1.64-4.23,2.35h-10.03
		c1.56-0.8,3.11-1.62,4.65-2.48c1.53-0.86,3.02-1.78,4.46-2.76h9.11C272.09,11.77,270.77,12.74,269.42,13.6z M267.49,34.53
		c-0.67-1.56-1.24-3.14-1.7-4.74c-0.46-1.59-0.81-3.27-1.06-5.01h5.93c0.34,1.72,0.76,3.4,1.26,5.06c0.51,1.66,1.16,3.22,1.96,4.69
		H267.49z"/>
	<path class="st1" d="M291.87,28.15c-0.71,0.26-1.37,0.5-1.98,0.71v12.28c0,0.58-0.13,1.12-0.39,1.61
		c-0.26,0.49-0.61,0.92-1.04,1.29c-0.4,0.34-0.84,0.6-1.33,0.78c-0.49,0.18-1,0.28-1.52,0.28h-5.47l-1.15-4.23h3.31
		c0.25,0,0.47-0.12,0.67-0.34c0.2-0.23,0.3-0.47,0.3-0.71v-8.79c-0.64,0.21-1.4,0.44-2.28,0.67s-1.59,0.42-2.14,0.58v-4.46
		c0.28-0.06,0.61-0.15,1.01-0.25c0.4-0.11,0.8-0.22,1.22-0.35c0.41-0.12,0.81-0.25,1.2-0.37c0.38-0.12,0.71-0.23,0.99-0.32V16.36
		h-4.37v-4.28h4.37V4.49h6.62v7.59h3.68v4.28h-3.68v8c0.52-0.15,1.14-0.36,1.86-0.62c0.72-0.26,1.33-0.5,1.82-0.71v4.46
		C293.14,27.67,292.58,27.89,291.87,28.15z M313.9,22.98v22.13h-6.62V22.98h-5.52c-0.03,1.96-0.1,3.9-0.21,5.82
		c-0.11,1.92-0.28,3.81-0.53,5.68c-0.25,1.87-0.6,3.7-1.06,5.47c-0.46,1.78-1.07,3.5-1.84,5.15H291c0.83-1.56,1.5-3.21,2.02-4.95
		c0.52-1.73,0.93-3.5,1.22-5.29c0.29-1.79,0.49-3.6,0.6-5.43c0.11-1.82,0.16-3.61,0.16-5.36V11.29c0-1.41,0.38-2.5,1.15-3.27
		c0.43-0.43,0.98-0.75,1.66-0.97s1.46-0.35,2.35-0.41c3.07-0.18,6.16-0.47,9.27-0.85c3.11-0.38,6.16-0.87,9.13-1.45v4.37
		c-2.61,0.55-5.19,1-7.75,1.33c-2.56,0.34-5.16,0.63-7.8,0.87c-0.34,0.03-0.62,0.15-0.85,0.37c-0.23,0.21-0.35,0.49-0.35,0.83v6.67
		h17.76v4.19H313.9z"/>
</g>
<g class="st0">
	<path class="st1" d="M23.14,71.07c-1.99-1.58-3.66-3.45-4.99-5.62H8.03c-1.33,2.17-3,4.04-4.99,5.62H1.33
		c0.48-0.35,0.98-0.74,1.49-1.17c0.51-0.43,1.01-0.89,1.5-1.38s0.94-0.99,1.38-1.51s0.81-1.04,1.14-1.56H1.85v-0.91h4.32v-9.13H2.39
		v-0.91h3.77v-2.08h1.2v2.08h11.41v-2.08h1.2v2.08h3.82v0.91h-3.82v9.13h4.42v0.91h-5.02c0.31,0.52,0.68,1.04,1.12,1.56
		s0.9,1.02,1.39,1.51s1,0.95,1.51,1.38c0.51,0.43,1,0.82,1.47,1.17H23.14z M2.39,74.61V73.7h10.14v-3.3H6.32v-0.91h6.21V66.7h1.2
		v2.78h6.16v0.91h-6.16v3.3h10.09v0.91H2.39z M18.77,55.42H7.36v2.31h11.41V55.42z M18.77,58.59H7.36v2.52h11.41V58.59z
		 M18.77,61.97H7.36v2.57h11.41V61.97z"/>
	<path class="st1" d="M50.23,60.77c-0.49-0.45-0.97-0.94-1.44-1.47c-0.48-0.53-0.94-1.07-1.38-1.61c-0.44-0.55-0.86-1.09-1.26-1.62
		c-0.4-0.54-0.76-1.04-1.09-1.51c-0.19-0.26-0.4-0.46-0.64-0.6s-0.61-0.21-1.13-0.21H37.1c-0.55,0-0.96,0.09-1.22,0.26
		c-0.26,0.17-0.46,0.36-0.6,0.55c-0.66,1.02-1.43,2.06-2.31,3.11S31.1,59.75,30,60.77h-1.69c0.59-0.52,1.16-1.07,1.72-1.64
		s1.08-1.15,1.59-1.74c0.5-0.59,0.98-1.17,1.42-1.73s0.84-1.11,1.18-1.62c0.26-0.42,0.62-0.73,1.07-0.94
		c0.52-0.24,1.11-0.36,1.77-0.36h6.32c0.61,0,1.12,0.09,1.53,0.26c0.5,0.19,0.89,0.5,1.17,0.94c0.33,0.49,0.71,1.03,1.13,1.62
		s0.89,1.2,1.4,1.81c0.51,0.61,1.04,1.2,1.6,1.79c0.55,0.59,1.13,1.13,1.72,1.61H50.23z M28.83,74.63v-0.99h10.71v-8.11h-9.46v-0.99
		h9.46v-4.63h-6.68v-0.99h14.51v0.99h-6.66v4.63h9.57v0.99h-9.57v8.11h10.63v0.99H28.83z M35.33,72.68c-0.8-0.99-1.5-1.96-2.11-2.91
		c-0.61-0.95-1.14-1.96-1.59-3.02h1.25c0.85,1.85,2.14,3.83,3.87,5.93H35.33z M46.98,69.77c-0.61,0.95-1.31,1.92-2.11,2.91h-1.43
		c1.73-2.1,3.02-4.07,3.87-5.93h1.25C48.12,67.81,47.59,68.82,46.98,69.77z"/>
	<path class="st1" d="M67.7,71.15v3.82h-1.17v-3.82H55.8v-0.91h10.74v-2.16h-6.68c-0.88,0-1.5-0.21-1.85-0.62
		c-0.28-0.33-0.42-0.82-0.42-1.48V62.1c0-0.54,0.15-1,0.44-1.38c0.36-0.5,0.94-0.75,1.74-0.75h14.51c0.81,0,1.41,0.22,1.79,0.65
		c0.29,0.35,0.44,0.82,0.44,1.43v3.9c0,0.4-0.05,0.73-0.14,0.99s-0.24,0.48-0.43,0.65c-0.21,0.19-0.46,0.32-0.75,0.39
		s-0.62,0.1-0.96,0.1H67.7v2.16h10.71v0.91H67.7z M65.36,57.68c-0.36,0.31-0.85,0.47-1.46,0.47h-5.3c-0.64,0-1.14-0.18-1.48-0.55
		c-0.35-0.31-0.52-0.78-0.52-1.4v-1.46c0-0.57,0.17-1.05,0.52-1.43c0.36-0.36,0.87-0.55,1.51-0.55h5.23c0.61,0,1.1,0.17,1.48,0.49
		c0.38,0.38,0.57,0.88,0.57,1.48v1.46C65.91,56.84,65.73,57.33,65.36,57.68z M64.74,54.64c0-0.28-0.08-0.51-0.25-0.69
		c-0.17-0.18-0.38-0.27-0.64-0.27h-5.23c-0.26,0-0.47,0.09-0.62,0.26c-0.16,0.17-0.23,0.41-0.23,0.7v1.66
		c0,0.29,0.07,0.52,0.22,0.69c0.15,0.17,0.36,0.25,0.64,0.25h5.28c0.24,0,0.44-0.09,0.6-0.26c0.16-0.17,0.23-0.4,0.23-0.68V54.64z
		 M66.53,60.88h-6.76c-0.29,0-0.53,0.1-0.71,0.29s-0.27,0.42-0.27,0.68v1.69h7.75V60.88z M66.53,64.44h-7.75v1.64
		c0,0.73,0.36,1.09,1.09,1.09h6.66V64.44z M75.32,61.89c0-0.31-0.08-0.56-0.25-0.74c-0.17-0.18-0.41-0.27-0.74-0.27H67.7v2.65h7.62
		V61.89z M67.7,64.44v2.73h6.53c0.33,0,0.59-0.1,0.79-0.3s0.3-0.46,0.3-0.79v-1.64H67.7z M76.99,57.68
		c-0.36,0.31-0.85,0.47-1.46,0.47h-5.3c-0.64,0-1.14-0.18-1.48-0.55c-0.35-0.31-0.52-0.78-0.52-1.4v-1.46
		c0-0.57,0.17-1.05,0.52-1.43c0.36-0.36,0.87-0.55,1.51-0.55h5.23c0.61,0,1.1,0.17,1.48,0.49c0.38,0.38,0.57,0.88,0.57,1.48v1.46
		C77.53,56.84,77.35,57.33,76.99,57.68z M76.36,54.64c0-0.28-0.08-0.51-0.25-0.69c-0.17-0.18-0.38-0.27-0.64-0.27h-5.23
		c-0.26,0-0.47,0.09-0.62,0.26c-0.16,0.17-0.23,0.41-0.23,0.7v1.66c0,0.29,0.07,0.52,0.22,0.69c0.15,0.17,0.36,0.25,0.64,0.25h5.28
		c0.24,0,0.44-0.09,0.6-0.26c0.16-0.17,0.23-0.4,0.23-0.68V54.64z"/>
	<path class="st1" d="M89.8,55.11c0.21,0.5,0.47,0.98,0.78,1.42c0.31,0.44,0.68,0.9,1.12,1.37h-1.4c-0.68-0.83-1.24-1.76-1.69-2.78
		h-2.13c-0.61,0.97-1.34,1.9-2.21,2.78h-1.46c0.92-0.88,1.69-1.81,2.31-2.77c0.62-0.96,1.13-1.87,1.53-2.72h1.27
		c-0.14,0.29-0.29,0.59-0.44,0.88c-0.16,0.29-0.32,0.59-0.49,0.88h7.1v0.94H89.8z M94.69,71.98v2.99h-1.17v-2.99H82.86v-0.91h10.66
		v-2.11h-9.52v-0.91h9.52v-2.11H84.5v-0.88h9.02v-2.31H82.81v-0.91h10.71v-2.05H84.5v-0.91h9.02v-1.12h1.17v1.12h6.6
		c0.64,0,1.15,0.17,1.53,0.52c0.38,0.38,0.57,0.88,0.57,1.48v0.96h1.98v0.91h-1.98v1.17c0,0.62-0.18,1.11-0.55,1.46
		c-0.38,0.38-0.92,0.57-1.61,0.57h-6.55v2.11h9.49v0.91h-9.49v2.11h10.74v0.91H94.69z M100.2,55.08c0.24,0.45,0.51,0.88,0.81,1.3
		c0.29,0.42,0.69,0.88,1.2,1.4h-1.4c-0.42-0.5-0.76-0.95-1.03-1.35c-0.27-0.4-0.52-0.85-0.74-1.35h-2.03
		c-0.23,0.35-0.46,0.69-0.71,1.03c-0.25,0.34-0.52,0.69-0.82,1.05h-1.4c0.78-0.9,1.4-1.74,1.87-2.52c0.47-0.78,0.82-1.53,1.07-2.24
		h1.25c-0.1,0.29-0.22,0.58-0.35,0.87s-0.26,0.58-0.4,0.87h7.75v0.94H100.2z M101.95,60.11c-0.17-0.22-0.46-0.32-0.86-0.32h-6.4
		v2.05h7.51v-0.91C102.21,60.6,102.12,60.33,101.95,60.11z M102.21,62.75h-7.51v2.31h6.45c0.29,0,0.55-0.09,0.75-0.29
		c0.21-0.19,0.31-0.47,0.31-0.83V62.75z"/>
	<path class="st1" d="M130.99,68.89c-0.38,0.42-0.95,0.62-1.72,0.62h-7.62v5.46h-1.2v-5.46h-7.44c-0.42,0-0.78-0.07-1.08-0.2
		c-0.3-0.13-0.56-0.32-0.77-0.56c-0.38-0.45-0.57-1.09-0.57-1.92v-8.71c0-0.4,0.05-0.76,0.14-1.09c0.1-0.33,0.25-0.61,0.46-0.86
		c0.42-0.5,1.02-0.75,1.82-0.75h7.44v-2.99h1.2v2.99h7.59c0.75,0,1.33,0.23,1.74,0.68c0.45,0.5,0.68,1.18,0.68,2.03v8.68
		C131.66,67.71,131.44,68.4,130.99,68.89z M120.46,56.43h-7.44c-0.4,0-0.7,0.15-0.91,0.46c-0.21,0.3-0.31,0.63-0.31,0.97v3.98h8.66
		V56.43z M120.46,62.85h-8.66v4.21c0,0.38,0.11,0.71,0.32,1s0.52,0.43,0.9,0.43h7.44V62.85z M130.12,56.86
		c-0.23-0.29-0.53-0.43-0.9-0.43h-7.57v5.41h8.81v-3.98C130.47,57.48,130.35,57.15,130.12,56.86z M130.47,62.85h-8.81v5.64h7.59
		c0.38,0,0.68-0.14,0.9-0.43s0.33-0.62,0.33-1V62.85z"/>
	<path class="st1" d="M139.72,71.3c-0.23,0.47-0.46,0.91-0.72,1.31c-0.25,0.41-0.52,0.8-0.81,1.17c-0.29,0.37-0.6,0.76-0.95,1.16
		h-1.43c0.42-0.49,0.79-0.93,1.13-1.34c0.34-0.41,0.64-0.81,0.91-1.21c0.27-0.4,0.51-0.81,0.72-1.25c0.21-0.43,0.4-0.92,0.57-1.46
		h1.25C140.17,70.3,139.95,70.84,139.72,71.3z M143.44,68.16c-0.38,0.31-0.94,0.47-1.66,0.47h-2.24c-0.76,0-1.34-0.22-1.74-0.65
		c-0.42-0.42-0.62-1.01-0.62-1.79V55.29c0-0.68,0.16-1.25,0.49-1.72c0.19-0.24,0.43-0.44,0.71-0.58c0.29-0.15,0.63-0.22,1.03-0.22
		h2.44c0.45,0,0.83,0.07,1.13,0.21s0.55,0.33,0.74,0.57c0.33,0.47,0.49,1.05,0.49,1.74v10.89
		C144.22,67.08,143.96,67.74,143.44,68.16z M143.08,54.9c0-0.35-0.1-0.63-0.31-0.86s-0.49-0.34-0.83-0.34h-2.57
		c-0.35,0-0.61,0.12-0.78,0.35c-0.17,0.23-0.26,0.52-0.26,0.84v2.7h4.76V54.9z M143.08,58.56h-4.76v3.93h4.76V58.56z M143.08,63.43
		h-4.76v3.09c0,0.35,0.12,0.63,0.35,0.84c0.23,0.22,0.52,0.33,0.87,0.33h2.26c0.35,0,0.65-0.1,0.9-0.3c0.25-0.2,0.38-0.49,0.38-0.87
		V63.43z M144.43,74.94c-0.56-0.73-1.07-1.51-1.55-2.35c-0.48-0.84-0.92-1.78-1.34-2.82h1.2c0.36,0.99,0.81,1.88,1.33,2.69
		c0.52,0.81,1.12,1.63,1.79,2.48H144.43z M152.67,61.27v1.92h2.91c0.75,0,1.32,0.24,1.72,0.73c0.33,0.43,0.49,0.98,0.49,1.64v4.11
		h1.56v0.83h-1.56v2.13c0,0.71-0.19,1.28-0.57,1.72c-0.4,0.43-0.95,0.65-1.64,0.65h-2.31l-0.49-0.83h2.76c0.4,0,0.68-0.13,0.86-0.38
		c0.17-0.25,0.26-0.55,0.26-0.9V70.5h-9.15V75h-1.14v-4.5h-1.22v-0.83h1.22v-4.11c0-0.71,0.2-1.28,0.6-1.72
		c0.19-0.19,0.42-0.35,0.68-0.47c0.26-0.12,0.56-0.18,0.91-0.18h3.02v-1.92h-6.47v-0.83h3.64v-2.18h-2.76v-0.83h2.76v-2.08h-3.28
		v-0.83h3.28v-2.13h1.14v2.13h4.6v-2.13h1.12v2.13h3.46v0.83h-3.46v2.08h2.76v0.83h-2.76v2.18h3.8v0.83H152.67z M151.55,64.02h-2.91
		c-0.4,0-0.69,0.12-0.87,0.36c-0.18,0.24-0.27,0.55-0.27,0.94v1.12h4.06V64.02z M151.55,67.27h-4.06v2.39h4.06V67.27z M154.47,55.34
		h-4.6v2.08h4.6V55.34z M154.47,58.25h-4.6v2.18h4.6V58.25z M156.65,65.32c0-0.4-0.1-0.71-0.29-0.95c-0.19-0.23-0.48-0.35-0.86-0.35
		h-2.83v2.42h3.98V65.32z M156.65,67.27h-3.98v2.39h3.98V67.27z"/>
	<path class="st1" d="M175.94,69.77v3.17c0,0.68-0.19,1.2-0.57,1.56c-0.36,0.33-0.86,0.49-1.48,0.49h-2.7l-0.65-0.88h2.99
		c0.38,0,0.68-0.1,0.91-0.31s0.34-0.51,0.34-0.91v-3.12h-10.84v-0.91h10.84v-1.07c0.54-0.12,1.13-0.28,1.78-0.48s1.3-0.42,1.94-0.65
		c0.64-0.23,1.25-0.48,1.82-0.74c0.57-0.26,1.06-0.51,1.46-0.75h-15.68v-0.88h16.25c0.29,0,0.51,0.07,0.64,0.22s0.19,0.32,0.17,0.51
		c-0.05,0.33-0.23,0.57-0.52,0.73c-0.43,0.26-0.93,0.52-1.48,0.78s-1.12,0.51-1.7,0.74c-0.58,0.23-1.17,0.45-1.77,0.64
		c-0.6,0.19-1.17,0.36-1.73,0.49v0.47h10.76v0.91H175.94z M163.98,55.7v-0.91h10.76c-0.29-0.29-0.59-0.67-0.88-1.12
		c-0.29-0.45-0.56-0.88-0.81-1.27h1.4c0.19,0.35,0.47,0.75,0.83,1.21c0.36,0.46,0.7,0.85,1.01,1.18h9.8v0.91H163.98z M183.22,62.05
		c-0.19,0.19-0.44,0.32-0.75,0.39s-0.7,0.1-1.17,0.1h-12.35c-0.95,0-1.61-0.21-1.98-0.62c-0.31-0.35-0.47-0.87-0.47-1.56v-0.83
		c0-0.69,0.2-1.2,0.6-1.53c0.4-0.35,1.01-0.52,1.85-0.52h12.35c0.85,0,1.47,0.17,1.87,0.52c0.38,0.35,0.57,0.86,0.57,1.53v0.83
		C183.74,61.16,183.57,61.72,183.22,62.05z M182.55,59.42c0-0.29-0.09-0.54-0.27-0.74c-0.18-0.2-0.43-0.3-0.74-0.3h-12.71
		c-0.38,0-0.66,0.1-0.85,0.3s-0.27,0.45-0.27,0.74v1.25c0,0.29,0.08,0.53,0.25,0.7c0.16,0.17,0.42,0.26,0.77,0.26h12.82
		c0.31,0,0.56-0.08,0.74-0.25c0.18-0.17,0.27-0.4,0.27-0.71V59.42z"/>
</g>
<g class="st0">
	<path class="st1" d="M206.18,67.82v4.94c0,0.35-0.06,0.66-0.2,0.94c-0.13,0.28-0.31,0.51-0.53,0.7c-0.24,0.21-0.52,0.36-0.82,0.47
		c-0.3,0.1-0.61,0.16-0.92,0.16h-4.52l-0.81-2.42h3.09c0.19,0,0.37-0.09,0.53-0.26c0.16-0.17,0.25-0.35,0.25-0.52v-4h-9.44V65.4
		h9.44V62h-8.22v-2.52h8.22v-3.74c-0.66,0.03-1.37,0.07-2.13,0.1c-0.76,0.04-1.53,0.07-2.3,0.09c-0.77,0.03-1.53,0.05-2.28,0.07
		s-1.43,0.04-2.05,0.05v-2.5c3.47-0.03,7.02-0.16,10.67-0.36c3.65-0.21,7.24-0.56,10.78-1.07v2.39c-1.14,0.17-2.47,0.35-3.99,0.52
		c-1.52,0.17-3.11,0.33-4.77,0.47v3.98h8.16V62h-8.16v3.41h9.33v2.42H206.18z"/>
	<path class="st1" d="M222.43,72.14c-0.1,1.08-0.25,2.1-0.44,3.07h-2.42c0.24-0.97,0.42-1.99,0.53-3.05
		c0.11-1.07,0.2-2.11,0.25-3.13h2.26C222.59,70.02,222.53,71.06,222.43,72.14z M237.2,55.24v0.99h4.89v1.77h-13.47v-0.68l-4.81,8.42
		h1.77c-0.03-0.36-0.07-0.77-0.1-1.21c-0.04-0.44-0.07-0.83-0.1-1.16h2.31c0.05,0.83,0.15,1.63,0.29,2.39
		c0.14,0.76,0.29,1.53,0.47,2.31h-2.37c-0.09-0.29-0.17-0.59-0.23-0.9c-0.07-0.3-0.13-0.6-0.18-0.9l-0.57,1.79h-3.8
		c-0.28,0-0.52-0.06-0.72-0.18s-0.36-0.28-0.48-0.47c-0.29-0.45-0.3-0.94-0.03-1.46l2.55-4.6h-1.2c-0.33,0-0.63-0.07-0.91-0.22
		c-0.28-0.15-0.5-0.34-0.68-0.58c-0.14-0.23-0.22-0.47-0.25-0.74c-0.03-0.27,0.03-0.55,0.17-0.84l3.46-6.86h3.64l-3.77,6.94h0.86
		l1.09-2h3.59v-0.83h4.94v-0.99h-5.43v-1.9h5.43v-1.22h3.64v1.22h5.38v1.9H237.2z M223.52,75.2c-0.09-1.01-0.17-2.04-0.23-3.11
		c-0.07-1.07-0.09-2.09-0.05-3.08h2.05c0,0.99,0.03,2.02,0.1,3.09c0.07,1.07,0.17,2.11,0.31,3.09H223.52z M226.41,74.35
		c-0.14-0.85-0.26-1.72-0.35-2.63c-0.1-0.9-0.17-1.8-0.22-2.7h2.05c0.05,0.88,0.13,1.78,0.22,2.68c0.1,0.9,0.22,1.79,0.38,2.65
		H226.41z M233.64,74.05c-0.38,0.42-0.79,0.81-1.22,1.16h-4.34c0.47-0.38,0.92-0.76,1.35-1.14c0.43-0.38,0.85-0.81,1.25-1.27h4.03
		C234.37,73.2,234.02,73.62,233.64,74.05z M241.96,62.85c-0.24,0.28-0.6,0.42-1.07,0.42h-10.95c-0.43,0-0.81-0.16-1.12-0.47
		c-0.28-0.28-0.42-0.63-0.42-1.07v-1.56c0-0.42,0.13-0.75,0.39-1.01c0.16-0.16,0.34-0.27,0.55-0.34s0.42-0.1,0.65-0.1h10.74
		c0.52,0,0.94,0.2,1.25,0.6c0.23,0.28,0.34,0.61,0.34,0.99v1.51C242.32,62.26,242.2,62.61,241.96,62.85z M241.28,71.77
		c-0.35,0.29-0.77,0.44-1.27,0.44h-9.49c-0.24,0-0.47-0.06-0.68-0.17c-0.21-0.11-0.38-0.26-0.52-0.46
		c-0.26-0.31-0.39-0.68-0.39-1.09v-4.97c0-0.4,0.14-0.74,0.42-1.01c0.4-0.36,0.86-0.55,1.38-0.55h9.23c0.29,0,0.56,0.06,0.79,0.18
		c0.23,0.12,0.43,0.28,0.58,0.47c0.29,0.35,0.44,0.76,0.44,1.25v4.76C241.77,71.11,241.61,71.5,241.28,71.77z M232.44,60.41h-0.75
		c-0.23,0-0.34,0.1-0.34,0.31v0.49c0,0.1,0.04,0.19,0.12,0.26c0.08,0.07,0.16,0.1,0.25,0.1h0.73V60.41z M238.16,65.87
		c0-0.09-0.04-0.16-0.13-0.22s-0.17-0.09-0.26-0.09h-4.94c-0.23,0-0.34,0.1-0.34,0.31v0.42h5.67V65.87z M238.16,67.64h-5.67v0.78
		h5.67V67.64z M238.16,69.77h-5.67v0.47c0,0.09,0.04,0.17,0.1,0.23c0.07,0.07,0.14,0.1,0.21,0.1h5.04c0.1,0,0.18-0.03,0.23-0.1
		c0.05-0.07,0.08-0.15,0.08-0.23V69.77z M235.92,60.41h-1.04v1.17h1.04V60.41z M238.42,75.2c-0.4-0.35-0.8-0.73-1.2-1.14
		c-0.4-0.42-0.75-0.84-1.07-1.27h4.19c0.4,0.45,0.81,0.88,1.24,1.29c0.42,0.41,0.86,0.78,1.31,1.13H238.42z M239.43,60.72
		c0-0.09-0.04-0.16-0.12-0.22s-0.16-0.09-0.25-0.09h-0.68v1.17h0.75c0.1,0,0.18-0.04,0.22-0.12c0.04-0.08,0.07-0.16,0.07-0.25V60.72
		z"/>
	<path class="st1" d="M263.87,75.15c-0.57-0.31-1.11-0.67-1.62-1.07c-0.51-0.4-1.04-0.85-1.6-1.35h-4.81
		c-0.55,0.47-1.14,0.9-1.74,1.3s-1.22,0.77-1.85,1.12h-6.11c0.71-0.36,1.43-0.76,2.15-1.18c0.72-0.42,1.4-0.87,2.04-1.34
		c-0.29,0-0.56-0.05-0.81-0.16c-0.24-0.1-0.46-0.24-0.65-0.42c-0.21-0.21-0.37-0.45-0.49-0.74s-0.18-0.59-0.18-0.92v-6.16h-2.24
		c0.87-0.36,1.7-0.77,2.5-1.21c0.8-0.44,1.59-0.94,2.37-1.5h-1.66c-0.71,0-1.26-0.22-1.64-0.65c-0.45-0.47-0.56-1.11-0.34-1.92
		l0.26-1.09c0.1-0.47,0.32-0.81,0.65-1.04c0.29-0.17,0.66-0.26,1.09-0.26h4.19V55.5h-6.55v-1.98h6.55v-1.33h3.77v1.33h2.24v-1.33
		h3.69v1.33h3.59c0.61,0,1.13,0.21,1.59,0.62c0.16,0.16,0.29,0.34,0.39,0.55c0.1,0.21,0.16,0.44,0.16,0.7v1.2
		c0,0.45-0.16,0.86-0.47,1.22c-0.36,0.4-0.8,0.6-1.3,0.6h-3.95v1.14h4.52c0.54,0,1.01,0.18,1.43,0.55c0.14,0.14,0.26,0.3,0.35,0.48
		c0.09,0.18,0.14,0.39,0.14,0.61v1.04c0,0.54-0.19,0.98-0.57,1.33c-0.19,0.19-0.42,0.33-0.68,0.4c-0.26,0.08-0.54,0.09-0.83,0.04
		c0.17,0.19,0.31,0.41,0.42,0.65c0.1,0.24,0.16,0.51,0.16,0.81v5.1c0,0.61-0.18,1.11-0.55,1.51c-0.38,0.38-0.88,0.62-1.48,0.7
		c0.61,0.47,1.22,0.9,1.83,1.29c0.62,0.39,1.27,0.76,1.96,1.11H263.87z M251.52,58.41c-0.28,0-0.44,0.1-0.49,0.29l-0.08,0.47
		c-0.04,0.1,0,0.2,0.09,0.27c0.09,0.08,0.2,0.12,0.3,0.12h1.33c0.09-0.16,0.17-0.34,0.26-0.55s0.15-0.41,0.18-0.6H251.52z
		 M264.24,65.82c0-0.09-0.05-0.18-0.14-0.29c-0.1-0.1-0.19-0.16-0.27-0.16h-11.39c-0.1,0-0.21,0.04-0.31,0.13
		c-0.1,0.09-0.16,0.19-0.16,0.31v0.36h12.27V65.82z M264.24,67.66h-12.27v0.81h12.27V67.66z M264.24,69.93h-12.27v0.34
		c0,0.12,0.06,0.23,0.17,0.33c0.11,0.1,0.23,0.14,0.35,0.14h11.23c0.12,0,0.24-0.04,0.35-0.13c0.11-0.09,0.17-0.2,0.17-0.34V69.93z
		 M259.38,61.53h-3.67c-0.62,0.75-1.34,1.38-2.16,1.9h5.82V61.53z M259.38,58.41h-2.39c-0.05,0.36-0.15,0.75-0.29,1.14h2.68V58.41z
		 M259.38,55.5h-2.24v1.07h2.24V55.5z M265.07,55.81c0-0.09-0.04-0.16-0.13-0.22c-0.09-0.06-0.17-0.09-0.26-0.09h-1.61v1.07h1.64
		c0.09,0,0.17-0.04,0.25-0.13c0.08-0.09,0.12-0.17,0.12-0.26V55.81z M265.85,61.92c0-0.09-0.02-0.17-0.06-0.26
		c-0.04-0.09-0.1-0.13-0.17-0.13h-2.55v1.9h1.59l-0.39-1.17h1.2C265.72,62.26,265.85,62.14,265.85,61.92z"/>
	<path class="st1" d="M285.53,63.5v7.12c0.17,0.02,0.39,0.02,0.64,0.01c0.25-0.01,0.45-0.03,0.58-0.06v2.21
		c-0.19,0.04-0.39,0.06-0.61,0.08s-0.42,0.04-0.61,0.05v2.24h-3.59v-1.98c-0.49,0.04-1.09,0.08-1.81,0.14
		c-0.72,0.06-1.46,0.12-2.22,0.18c-0.76,0.06-1.51,0.12-2.24,0.18c-0.73,0.06-1.35,0.11-1.87,0.14v-2.21c0.17,0,0.4-0.01,0.68-0.04
		s0.5-0.06,0.68-0.09V63.5h-1.35v-2.16h22.8v2.16H285.53z M294.66,59.73c-0.38,0.42-0.87,0.62-1.46,0.62h-15.89
		c-0.69,0-1.26-0.23-1.69-0.7c-0.16-0.17-0.28-0.37-0.38-0.6c-0.1-0.22-0.14-0.48-0.14-0.75v-3.77c0-0.59,0.21-1.09,0.62-1.51
		c0.4-0.4,0.87-0.6,1.4-0.6h15.76c0.71,0,1.26,0.2,1.66,0.6c0.45,0.42,0.68,1,0.68,1.77v3.43
		C295.23,58.85,295.04,59.35,294.66,59.73z M281.94,63.5h-3.12v1.12h3.12V63.5z M281.94,66.6h-3.12v1.17h3.12V66.6z M281.94,69.67
		h-3.12v1.51c0.21-0.02,0.46-0.03,0.74-0.05c0.29-0.02,0.58-0.04,0.87-0.07c0.29-0.03,0.58-0.05,0.84-0.08
		c0.27-0.03,0.49-0.05,0.66-0.07V69.67z M291.41,54.9c0-0.09-0.04-0.17-0.12-0.26c-0.08-0.09-0.18-0.13-0.3-0.13h-11.54
		c-0.28,0-0.42,0.13-0.42,0.39v0.6h12.38V54.9z M291.41,57.32h-12.38v0.57c0,0.1,0.04,0.2,0.12,0.29c0.08,0.09,0.17,0.13,0.27,0.13
		h11.6c0.1,0,0.2-0.04,0.27-0.12c0.08-0.08,0.12-0.17,0.12-0.27V57.32z M292.92,75.05c-0.09-0.07-0.2-0.16-0.34-0.27
		c-0.14-0.11-0.28-0.23-0.43-0.36s-0.3-0.26-0.46-0.39c-0.16-0.13-0.29-0.25-0.39-0.35c-0.19,0.19-0.42,0.42-0.7,0.69
		c-0.28,0.27-0.53,0.5-0.75,0.69h-4.19c0.59-0.57,1.17-1.16,1.75-1.77c0.58-0.61,1.13-1.21,1.65-1.79c-0.5-0.54-0.99-1.11-1.46-1.7
		c-0.47-0.6-0.88-1.19-1.22-1.78h3.93c0.09,0.14,0.21,0.31,0.36,0.52s0.29,0.36,0.39,0.47c0.21-0.24,0.41-0.51,0.61-0.79
		s0.37-0.58,0.51-0.87c0.04-0.09,0.03-0.17-0.03-0.26c-0.05-0.09-0.15-0.13-0.29-0.13h-5.56v-2.21h7.83c0.43,0,0.8,0.08,1.09,0.25
		c0.29,0.17,0.51,0.38,0.65,0.64c0.16,0.29,0.22,0.63,0.2,1c-0.03,0.37-0.14,0.75-0.35,1.13c-0.36,0.62-0.75,1.24-1.17,1.85
		c-0.42,0.61-0.85,1.21-1.3,1.82c0.68,0.66,1.34,1.28,2,1.87c0.66,0.59,1.33,1.18,2.03,1.77H292.92z"/>
	<path class="st1" d="M307,56.78c-0.51,1.52-1.1,3.01-1.75,4.48h0.83v13.88h-3.82V62.31h-1.82c0.8-1.63,1.5-3.29,2.09-4.98
		c0.6-1.69,1.15-3.41,1.65-5.16h4.26C307.99,53.73,307.51,55.27,307,56.78z M323.02,75.18l-3.02-0.03c-0.64,0-1.16-0.16-1.56-0.47
		c-0.42-0.36-0.69-0.93-0.83-1.69c-0.1-0.62-0.21-1.31-0.33-2.05c-0.11-0.75-0.22-1.5-0.33-2.28c-0.1-0.77-0.2-1.53-0.3-2.28
		c-0.1-0.75-0.18-1.42-0.25-2.03h-4.6v7.7c0,0.19,0.07,0.34,0.21,0.46c0.14,0.11,0.3,0.17,0.49,0.17h1.09
		c-0.12-0.59-0.23-1.19-0.33-1.79c-0.1-0.61-0.18-1.21-0.25-1.82h2.94c0.17,1.04,0.36,2.07,0.57,3.08c0.21,1.01,0.46,2.01,0.75,3
		h-3.07c-0.09-0.29-0.17-0.58-0.23-0.86s-0.14-0.55-0.21-0.83l-0.62,1.66h-3.04c-0.57,0-1.07-0.18-1.48-0.55
		c-0.47-0.43-0.7-1.01-0.7-1.74V55.76c0-0.57,0.16-1.04,0.49-1.4c0.42-0.45,1-0.7,1.74-0.75c2.17-0.16,4.31-0.37,6.42-0.65
		c2.12-0.28,4.24-0.59,6.37-0.94v2.47c-0.59,0.12-1.17,0.22-1.75,0.31s-1.17,0.17-1.78,0.26c0.05,1.11,0.13,2.25,0.22,3.41
		c0.09,1.16,0.19,2.31,0.3,3.43h3.48v2.47h-3.2c0.14,1.32,0.3,2.63,0.49,3.95c0.19,1.32,0.42,2.62,0.7,3.9
		c0.03,0.14,0.1,0.25,0.19,0.33s0.21,0.12,0.35,0.12h1.74L323.02,75.18z M315.67,55.6c-0.23,0.04-0.49,0.07-0.79,0.12
		c-0.3,0.04-0.62,0.08-0.94,0.12c-0.32,0.04-0.63,0.07-0.92,0.1c-0.29,0.03-0.55,0.06-0.78,0.08c-0.1,0-0.2,0.05-0.29,0.14
		c-0.09,0.1-0.13,0.19-0.13,0.27v5.46h4.32C315.96,59.81,315.8,57.71,315.67,55.6z"/>
	<path class="st1" d="M331.86,73.75v-15c-0.26,0.21-0.55,0.42-0.86,0.62c-0.31,0.21-0.63,0.4-0.96,0.58
		c-0.33,0.18-0.65,0.34-0.98,0.48c-0.32,0.14-0.61,0.25-0.87,0.34V58.2c0.36-0.16,0.74-0.36,1.14-0.61c0.4-0.25,0.79-0.53,1.17-0.83
		c0.38-0.3,0.75-0.63,1.09-0.97s0.63-0.69,0.86-1.04h3.64v19.01H331.86z"/>
	<path class="st1" d="M350.82,65.62c-0.4,0.15-0.77,0.28-1.12,0.4v6.94c0,0.33-0.07,0.63-0.22,0.91s-0.34,0.52-0.58,0.73
		c-0.23,0.19-0.48,0.34-0.75,0.44c-0.28,0.1-0.56,0.16-0.86,0.16h-3.09l-0.65-2.39h1.87c0.14,0,0.26-0.07,0.38-0.2
		c0.11-0.13,0.17-0.26,0.17-0.4v-4.97c-0.36,0.12-0.79,0.25-1.29,0.38s-0.9,0.24-1.21,0.33v-2.52c0.16-0.03,0.35-0.08,0.57-0.14
		c0.22-0.06,0.46-0.13,0.69-0.2c0.23-0.07,0.46-0.14,0.68-0.21s0.4-0.13,0.56-0.18v-5.75h-2.47v-2.42h2.47v-4.29h3.74v4.29h2.08
		v2.42h-2.08v4.52c0.29-0.09,0.65-0.2,1.05-0.35c0.41-0.15,0.75-0.28,1.03-0.4v2.52C351.54,65.35,351.22,65.48,350.82,65.62z
		 M363.27,62.7V75.2h-3.74V62.7h-3.12c-0.02,1.11-0.06,2.21-0.12,3.29c-0.06,1.08-0.16,2.15-0.3,3.21c-0.14,1.06-0.34,2.09-0.6,3.09
		c-0.26,1.01-0.61,1.98-1.04,2.91h-4.03c0.47-0.88,0.85-1.82,1.14-2.79s0.52-1.98,0.69-2.99c0.16-1.01,0.28-2.04,0.34-3.07
		c0.06-1.03,0.09-2.04,0.09-3.03v-7.23c0-0.8,0.22-1.41,0.65-1.85c0.24-0.24,0.55-0.42,0.94-0.55c0.38-0.12,0.82-0.2,1.33-0.23
		c1.73-0.1,3.48-0.26,5.24-0.48c1.76-0.22,3.48-0.49,5.16-0.82v2.47c-1.47,0.31-2.93,0.56-4.38,0.75c-1.45,0.19-2.92,0.36-4.41,0.49
		c-0.19,0.02-0.35,0.09-0.48,0.21c-0.13,0.12-0.2,0.28-0.2,0.47v3.77h10.04v2.37H363.27z"/>
</g>
<g class="st0">
	<path class="st1" d="M377.08,56.22c-0.47,1.14-1.01,2.31-1.64,3.48h0.7v15.31h-1.2V60.57c-0.22,0.38-0.46,0.76-0.7,1.14
		c-0.24,0.38-0.5,0.77-0.78,1.17h-1.22c0.66-0.92,1.23-1.81,1.73-2.67c0.49-0.86,0.94-1.71,1.33-2.56c0.39-0.85,0.74-1.7,1.05-2.56
		c0.31-0.86,0.61-1.75,0.88-2.67h1.17C377.99,53.81,377.55,55.08,377.08,56.22z M392.94,75c-1.14-0.29-2.22-0.62-3.24-0.96
		c-1.01-0.35-2.07-0.76-3.16-1.25c-1.04,0.45-2.12,0.85-3.24,1.2c-1.12,0.35-2.31,0.68-3.57,1.01h-2.63
		c1.73-0.47,3.27-0.92,4.62-1.35c1.34-0.43,2.59-0.88,3.73-1.33c-0.66-0.31-1.34-0.65-2.04-1c-0.7-0.35-1.44-0.75-2.22-1.18
		c-0.31,0.28-0.62,0.54-0.91,0.78c-0.29,0.24-0.59,0.46-0.88,0.65h-1.61c1.16-0.78,2.13-1.55,2.91-2.31
		c0.78-0.76,1.47-1.53,2.08-2.31h1.4c-0.31,0.42-0.65,0.83-1.01,1.25h8.58c0.38,0,0.63,0.17,0.75,0.49
		c0.04,0.14,0.03,0.29-0.01,0.46s-0.14,0.31-0.3,0.43c-0.73,0.55-1.46,1.05-2.21,1.5c-0.75,0.44-1.52,0.85-2.31,1.24
		c1.18,0.47,2.45,0.91,3.81,1.34s2.93,0.88,4.69,1.37H392.94z M381.03,65.73c-0.54,0.58-1.13,1.15-1.79,1.7h-1.53
		c0.76-0.61,1.44-1.22,2.04-1.85c0.6-0.62,1.1-1.27,1.5-1.92h1.35C382.09,64.46,381.57,65.15,381.03,65.73z M394.19,64.93v-1.33
		c0-0.28-0.08-0.5-0.23-0.68c-0.16-0.17-0.36-0.26-0.6-0.26h-13.54c-0.24,0-0.43,0.09-0.56,0.26c-0.13,0.17-0.19,0.4-0.19,0.68v1.33
		h-1.2v-1.4c0-0.54,0.15-0.95,0.44-1.25c0.31-0.31,0.77-0.47,1.38-0.47h0.57v-4.86c0-0.61,0.16-1.06,0.47-1.35
		c0.35-0.38,0.89-0.57,1.64-0.57h3.15c0.1-0.22,0.21-0.46,0.31-0.69c0.1-0.23,0.2-0.46,0.29-0.69h-7.38v-0.86h16.12v0.86h-7.62
		c-0.09,0.24-0.18,0.48-0.29,0.71c-0.1,0.23-0.2,0.46-0.29,0.66h4.11c0.73,0,1.27,0.16,1.64,0.47c0.38,0.33,0.57,0.81,0.57,1.46
		v4.86h0.52c0.62,0,1.08,0.14,1.38,0.42c0.35,0.29,0.52,0.73,0.52,1.3v1.4H394.19z M391.14,69.33c0.09-0.05,0.11-0.11,0.08-0.18
		c-0.04-0.07-0.1-0.1-0.18-0.1h-8.61c-0.19,0.21-0.38,0.39-0.57,0.53c-0.19,0.15-0.39,0.32-0.6,0.51h1.77
		c0.61,0.35,1.2,0.66,1.77,0.95c0.57,0.29,1.15,0.56,1.74,0.82c0.85-0.38,1.64-0.77,2.38-1.16C389.66,70.3,390.4,69.85,391.14,69.33
		z M391.82,56.95c0-0.71-0.36-1.07-1.07-1.07h-8.4c-0.66,0-0.99,0.36-0.99,1.07v0.34h10.45V56.95z M391.82,58.15h-10.45v1.4h10.45
		V58.15z M391.82,60.41h-10.45v1.4h10.45V60.41z M391.01,66.83h-5.67c-0.66,0-1.17-0.18-1.53-0.55c-0.28-0.29-0.42-0.69-0.42-1.2
		v-1.64h1.12v1.61c0,0.29,0.09,0.52,0.27,0.68c0.18,0.16,0.4,0.23,0.66,0.23h6.01L391.01,66.83z M387.89,65.32
		c-0.26-0.33-0.51-0.66-0.74-0.99c-0.23-0.33-0.45-0.66-0.64-0.99h1.25c0.19,0.29,0.4,0.61,0.64,0.94c0.23,0.33,0.52,0.68,0.85,1.04
		H387.89z M394,67.4c-0.33-0.29-0.63-0.58-0.91-0.87c-0.28-0.29-0.54-0.58-0.78-0.87c-0.24-0.29-0.49-0.6-0.73-0.92
		c-0.24-0.32-0.5-0.67-0.78-1.05h1.27c0.92,1.32,2.04,2.56,3.35,3.72H394z"/>
	<path class="st1" d="M403.06,71.86c-0.53,0.88-1.21,1.7-2.04,2.48h-1.53c0.88-0.76,1.63-1.59,2.25-2.5s1.12-1.84,1.52-2.81h1.27
		C404.08,70.05,403.59,70.99,403.06,71.86z M421.02,68.37c-0.24-0.24-0.47-0.49-0.69-0.74s-0.43-0.52-0.64-0.79
		c-1.35,0.12-2.9,0.24-4.65,0.36c-1.75,0.12-3.54,0.23-5.36,0.31s-3.59,0.16-5.32,0.22c-1.73,0.06-3.23,0.1-4.51,0.12v-0.91
		c0.64,0,1.37-0.01,2.18-0.03c0.82-0.02,1.68-0.04,2.59-0.07s1.86-0.06,2.85-0.09c0.99-0.04,1.98-0.08,2.96-0.13v-2.5h-6.53
		c-0.87,0-1.49-0.22-1.87-0.65c-0.33-0.38-0.49-0.91-0.49-1.59v-2.5c0-0.36,0.05-0.68,0.14-0.94c0.09-0.26,0.23-0.49,0.4-0.68
		c0.42-0.42,1.05-0.62,1.9-0.62h6.45v-2.05h-9.93v-0.88h9.93v-1.79h1.2v1.79h10.09v0.88h-10.09v2.05h6.47
		c0.81,0,1.42,0.16,1.82,0.49c0.42,0.33,0.62,0.88,0.62,1.66v2.55c0,0.69-0.17,1.23-0.52,1.61c-0.38,0.43-0.99,0.65-1.82,0.65h-6.58
		v2.44c1.4-0.09,2.75-0.17,4.03-0.25c1.28-0.08,2.43-0.17,3.43-0.27c-0.26-0.36-0.51-0.76-0.75-1.2h1.25
		c0.33,0.54,0.73,1.1,1.2,1.69c0.47,0.59,1.04,1.2,1.72,1.82H421.02z M410.44,58.02h-6.55c-0.35,0-0.62,0.1-0.83,0.3
		c-0.21,0.2-0.31,0.45-0.31,0.74v1.12h7.7V58.02z M410.44,61.06h-7.7v1.12c0,0.29,0.11,0.55,0.32,0.75s0.48,0.31,0.79,0.31h6.58
		V61.06z M416.91,74.94h-8.61c-0.33,0-0.63-0.06-0.9-0.18c-0.27-0.12-0.5-0.28-0.69-0.47c-0.16-0.19-0.28-0.4-0.38-0.62
		c-0.1-0.23-0.14-0.48-0.14-0.75v-4.55h1.17v4.58c0,0.28,0.1,0.51,0.31,0.7s0.46,0.29,0.75,0.29h8.97L416.91,74.94z M413.45,72.29
		c-0.42-0.54-0.84-1.17-1.27-1.91s-0.81-1.47-1.12-2.2h1.25c0.29,0.69,0.65,1.37,1.05,2.03c0.41,0.66,0.9,1.35,1.49,2.08H413.45z
		 M419.09,58.3c-0.19-0.19-0.47-0.29-0.83-0.29h-6.63v2.16h7.75v-1.09C419.38,58.75,419.28,58.49,419.09,58.3z M419.38,61.06h-7.75
		v2.18h6.71c0.29,0,0.54-0.11,0.74-0.34c0.2-0.22,0.3-0.46,0.3-0.7V61.06z M421.23,74.4c-1.28-1.63-2.28-3.41-2.99-5.36h1.25
		c0.33,0.85,0.75,1.73,1.26,2.65c0.51,0.92,1.14,1.82,1.89,2.7H421.23z"/>
</g>
</svg>
