<?xml version="1.0" encoding="utf-8"?>
<!-- Generator: Adobe Illustrator 24.0.1, SVG Export Plug-In . SVG Version: 6.00 Build 0)  -->
<svg version="1.1" id="圖層_1" xmlns="http://www.w3.org/2000/svg" xmlns:xlink="http://www.w3.org/1999/xlink" x="0px" y="0px"
	 viewBox="0 0 355.25 79.25" style="enable-background:new 0 0 355.25 79.25;" xml:space="preserve">
<style type="text/css">
	.st0{enable-background:new    ;}
	.st1{fill:#0F90C9;}
</style>
<g class="st0">
	<path class="st1" d="M14.4,38.67v6.39H8.1v-6.39H2.9v-4h5.2v-2.3H6.62c-0.8,0-1.52-0.28-2.16-0.83c-0.64-0.64-0.97-1.43-0.97-2.35
		V17.55c0-0.43,0.09-0.83,0.28-1.2s0.43-0.69,0.74-0.97c0.64-0.55,1.36-0.83,2.16-0.83H8.1v-2.35H2.81V8.17H8.1V4.21h6.3v3.96h5.15
		v4.05H14.4v2.35h1.29c0.98,0,1.78,0.31,2.39,0.92c0.64,0.64,0.97,1.47,0.97,2.48v11.32c0,0.89-0.29,1.63-0.87,2.21
		c-0.52,0.58-1.2,0.87-2.02,0.87H14.4v2.3h5.61v4H14.4z M8.79,18.61H8c-0.25,0-0.43,0.08-0.55,0.25c-0.12,0.17-0.18,0.33-0.18,0.48
		v2.16h1.52V18.61z M8.79,25.23H7.27v2.3c0,0.18,0.07,0.36,0.21,0.53c0.14,0.17,0.31,0.25,0.53,0.25h0.78V25.23z M15.27,19.35
		c0-0.49-0.25-0.74-0.74-0.74h-0.78v2.9h1.52V19.35z M15.27,25.23h-1.52v3.08h0.83c0.46,0,0.69-0.25,0.69-0.74V25.23z M19.87,44.78
		v-4.23h8.42v-6.07h-7.04v-4.23h20.84v4.23h-7.18v6.07h8.6v4.23H19.87z M25.81,19.16c-0.21,0.67-0.2,1.38,0.05,2.12l2.53,7.27h-5.61
		l-2.39-6.99c-0.15-0.46-0.23-0.98-0.23-1.56c0-0.58,0.08-1.1,0.23-1.56l2.76-7.96h5.57L25.81,19.16z M20.52,8.95V4.72h22.63v4.23
		H20.52z M33.21,18.56c-0.15,0.4-0.22,0.83-0.21,1.29c0.02,0.46,0.1,0.89,0.25,1.29l2.62,7.41h-5.75l-2.44-6.9
		c-0.21-0.61-0.33-1.18-0.34-1.7c-0.02-0.52,0.08-1.09,0.3-1.7l2.67-7.77h5.66L33.21,18.56z M37.63,28.54l-2.71-7.82
		c-0.34-1.04-0.31-2.12,0.09-3.22l2.39-7.04h5.66l-2.62,7.87c-0.12,0.34-0.17,0.68-0.14,1.04c0.03,0.35,0.09,0.68,0.18,0.99
		l2.85,8.19H37.63z"/>
	<path class="st1" d="M53.45,37.68c-0.15,1.89-0.41,3.75-0.78,5.59H48.3c0.43-1.81,0.74-3.66,0.92-5.57
		c0.18-1.9,0.29-3.82,0.32-5.75h4.28C53.73,33.88,53.6,35.79,53.45,37.68z M68.59,18.43c0.25,0.8,0.55,1.61,0.92,2.44
		c0.37,0.83,0.77,1.56,1.2,2.21h-6.58c-0.15-0.25-0.31-0.52-0.46-0.83c-0.15-0.31-0.28-0.58-0.37-0.83l-0.92,1.56H51.43
		c-0.43,0-0.78-0.09-1.06-0.28c-0.28-0.18-0.48-0.41-0.6-0.69c-0.25-0.61-0.12-1.24,0.37-1.89l1.52-1.7H48.9v-2.81h1.75v-8.1
		c0-0.8,0.28-1.44,0.83-1.93c0.34-0.34,0.74-0.57,1.22-0.71c0.48-0.14,0.97-0.21,1.5-0.21h15.69v2.94H57.45
		c-0.37,0-0.55,0.17-0.55,0.51v0.69h12.28v2.07H56.9v1.33h12.28v1.98H56.9v1.43h13.98v2.81H68.59z M61.23,30.48v14.49h-6.26V30.48
		h-5.84v-3.77h5.84v-2.62h6.26v2.62h6.67v3.77H61.23z M62.44,19.32c-0.11-0.35-0.19-0.65-0.25-0.9h-3.17l-1.47,1.79h5.24
		C62.67,19.97,62.55,19.67,62.44,19.32z M63.57,43.36c-0.37-1.78-0.64-3.62-0.83-5.52c-0.18-1.9-0.31-3.83-0.37-5.8h4.14
		c0.12,1.99,0.31,3.93,0.55,5.8c0.25,1.87,0.58,3.71,1.01,5.52H63.57z M83.03,45.01c-0.31-0.49-0.57-1-0.8-1.52
		s-0.45-1.04-0.67-1.56l-1.24,3.08h-9.34c-0.52,0-0.97-0.12-1.33-0.35c-0.37-0.23-0.64-0.51-0.83-0.85
		c-0.4-0.74-0.37-1.55,0.09-2.44l3.82-6.95h-5.8c1.1-1.53,2.07-3.11,2.9-4.74c0.83-1.62,1.61-3.3,2.35-5.01h6.3
		c-0.43,1.29-0.94,2.56-1.52,3.82c-0.58,1.26-1.21,2.47-1.89,3.63h5.84l-4.97,8.88h5.2c-0.21-0.61-0.43-1.25-0.64-1.91
		c-0.21-0.66-0.4-1.33-0.55-2h6.07c0.49,1.44,1.02,2.81,1.59,4.09c0.57,1.29,1.25,2.56,2.05,3.82H83.03z M85.51,7.18
		c-1.47,0.84-3.01,1.62-4.6,2.32H70.43c1.53-0.74,3.08-1.54,4.65-2.42c1.56-0.87,3.05-1.75,4.46-2.64h10.3
		C88.43,5.42,86.99,6.33,85.51,7.18z M85.51,20.24c-1.38,1.03-2.79,1.99-4.23,2.88H71.02c1.66-0.92,3.31-1.89,4.97-2.92
		c1.66-1.03,3.23-2.12,4.74-3.29h8.69C88.2,18.1,86.89,19.21,85.51,20.24z M85.42,13.6c-1.35,0.86-2.76,1.64-4.23,2.35H71.16
		c1.56-0.8,3.11-1.62,4.65-2.48c1.53-0.86,3.02-1.78,4.46-2.76h9.11C88.09,11.77,86.77,12.74,85.42,13.6z M83.49,34.53
		c-0.68-1.56-1.24-3.14-1.7-4.74c-0.46-1.59-0.81-3.27-1.06-5.01h5.93c0.34,1.72,0.76,3.4,1.27,5.06c0.51,1.66,1.16,3.22,1.95,4.69
		H83.49z"/>
	<path class="st1" d="M127.83,29.83v-2.12h-4.51c-0.58-1.07-1.03-2.15-1.33-3.22c-0.49,1.17-1.06,2.22-1.7,3.17h-5.15v1.98h-6.35
		V17.46h-2.62c0.09-0.15,0.22-0.35,0.39-0.6c0.17-0.25,0.3-0.46,0.39-0.64h-2.3v7.73c0.34-0.09,0.77-0.22,1.29-0.39
		c0.52-0.17,0.95-0.3,1.29-0.39v4.32c-0.34,0.15-0.77,0.31-1.29,0.46c-0.52,0.15-0.95,0.28-1.29,0.37v12.56
		c0,1.32-0.43,2.33-1.29,3.04c-0.74,0.64-1.7,0.97-2.9,0.97H95.4l-0.83-4.14h2.81c0.31,0,0.55-0.14,0.74-0.41
		c0.18-0.28,0.28-0.55,0.28-0.83v-8.92c-0.43,0.12-1,0.27-1.73,0.44c-0.72,0.17-1.31,0.3-1.77,0.39v-4.32
		c0.21-0.06,0.48-0.12,0.78-0.18c0.31-0.06,0.62-0.14,0.94-0.23c0.32-0.09,0.64-0.18,0.97-0.28c0.32-0.09,0.59-0.18,0.81-0.28v-9.89
		h-3.5v-4.14h3.5V4.49h6.26v7.59h2.53v3.73c1.17-1.56,2.25-3.3,3.24-5.22c1-1.92,1.89-3.92,2.69-6h6.9
		c-0.09,0.34-0.2,0.71-0.32,1.13c-0.12,0.41-0.25,0.79-0.37,1.13h7.82c1.01,0,1.81,0.4,2.39,1.2c0.25,0.37,0.41,0.78,0.48,1.24
		c0.08,0.46-0.01,0.92-0.25,1.38c-0.31,0.64-0.71,1.36-1.22,2.14c-0.51,0.78-0.94,1.42-1.31,1.91h2.58c1.29,0,2.33,0.37,3.13,1.1
		c0.89,0.89,1.33,2.1,1.33,3.63v10.4H127.83z M127.83,45.24c-1.07-1.17-2.09-2.38-3.06-3.66c-0.97-1.27-1.83-2.6-2.6-3.98
		c-0.8,1.38-1.76,2.71-2.88,3.98c-1.12,1.27-2.32,2.45-3.61,3.52h-9.48c0.92-0.58,1.86-1.24,2.81-1.98
		c0.95-0.74,1.86-1.52,2.74-2.37c0.87-0.84,1.69-1.72,2.44-2.64s1.4-1.87,1.96-2.85h-9.06v-4h10.67c0.09-0.31,0.2-0.7,0.32-1.17
		c0.12-0.47,0.21-0.88,0.28-1.22h6.58c-0.06,0.34-0.12,0.73-0.18,1.17c-0.06,0.45-0.14,0.85-0.23,1.22h11.09v4h-12.28
		c-0.12,0.25-0.26,0.53-0.41,0.85c-0.15,0.32-0.29,0.59-0.41,0.8h6.35c1.07,1.41,2.2,2.83,3.38,4.25c1.18,1.43,2.49,2.78,3.93,4.07
		H127.83z M116.1,18.84c-0.25,0-0.47,0.12-0.67,0.35c-0.2,0.23-0.3,0.45-0.3,0.67v7.08c0.8-1.29,1.48-2.6,2.05-3.93
		c0.57-1.33,1.04-2.72,1.4-4.16H116.1z M122.59,11.43c0.06-0.12,0.07-0.24,0.02-0.35c-0.05-0.11-0.15-0.16-0.3-0.16h-4.83
		c-0.12,0.25-0.28,0.54-0.46,0.87c-0.18,0.34-0.38,0.68-0.57,1.03c-0.2,0.35-0.39,0.69-0.58,1.01c-0.18,0.32-0.35,0.61-0.51,0.85
		h5.15c0.15-0.21,0.33-0.47,0.53-0.78c0.2-0.31,0.4-0.61,0.6-0.92c0.2-0.31,0.38-0.6,0.55-0.87
		C122.37,11.85,122.5,11.62,122.59,11.43z M127.83,19.9c0-0.34-0.1-0.6-0.3-0.78c-0.2-0.18-0.47-0.28-0.81-0.28h-3.13
		c-0.06,0.37-0.16,0.84-0.3,1.4c-0.14,0.57-0.27,1.02-0.39,1.36h2.76c0.28,0.86,0.58,1.69,0.92,2.51s0.75,1.59,1.24,2.32V19.9z"/>
	<path class="st1" d="M148.63,8.67c-0.25,0-0.44,0.1-0.6,0.3c-0.15,0.2-0.23,0.45-0.23,0.76v30.45c0,0.21,0.09,0.41,0.28,0.57
		c0.18,0.17,0.38,0.25,0.6,0.25h32.57v3.82h-35.05c-1.56,0-2.81-0.43-3.73-1.29c-0.89-0.83-1.33-1.98-1.33-3.45V8.63
		c0-0.52,0.12-1.01,0.37-1.47c0.25-0.46,0.58-0.86,1.01-1.2c0.37-0.34,0.79-0.61,1.27-0.83c0.48-0.21,0.96-0.32,1.45-0.32h36.11
		v3.86H148.63z M156.24,33.77c-0.32,1.79-0.67,3.56-1.03,5.31h-6.85c0.46-1.75,0.87-3.52,1.24-5.31c0.37-1.79,0.66-3.63,0.87-5.5
		h6.49C156.8,30.14,156.56,31.97,156.24,33.77z M150.79,26.84c-0.52-1.2-0.97-2.42-1.33-3.68c-0.37-1.26-0.71-2.51-1.01-3.77h6.67
		c0.25,1.29,0.58,2.55,1.01,3.77c0.43,1.23,0.9,2.45,1.43,3.68H150.79z M150.79,17.78c-0.43-1.29-0.84-2.56-1.22-3.82
		c-0.38-1.26-0.73-2.54-1.03-3.86h6.39c0.34,1.32,0.71,2.62,1.13,3.91c0.41,1.29,0.88,2.54,1.4,3.77H150.79z M162.79,39.17
		c-1.41,0-2.42-0.41-3.04-1.24c-0.28-0.34-0.48-0.75-0.6-1.24c-0.12-0.49-0.18-1.04-0.18-1.66V21.78h-2.44
		c0.8-1.87,1.49-3.77,2.07-5.7c0.58-1.93,1.07-3.92,1.47-5.98h6.72c-0.12,0.77-0.28,1.55-0.46,2.35c-0.18,0.8-0.38,1.56-0.6,2.3h3.4
		c-0.25-0.74-0.47-1.5-0.67-2.28c-0.2-0.78-0.38-1.57-0.53-2.37h6.3c0.34,1.59,0.78,3.14,1.33,4.65h5.43v3.63h-5.75v3.08H180v3.59
		h-4.74v3.31h4.69v3.5h-4.69v3.73h5.75v3.59H162.79z M169.1,18.38h-3.73v3.08h3.73V18.38z M169.1,25.05h-3.73v3.31h3.73V25.05z
		 M169.1,31.86h-3.73v2.62c0,0.28,0.12,0.53,0.37,0.76c0.25,0.23,0.51,0.34,0.78,0.34h2.58V31.86z"/>
	<path class="st1" d="M208.38,31.9c0.12,1.1,0.1,2.21-0.07,3.31c-0.17,1.1-0.51,2.13-1.04,3.08c-0.67,1.2-1.56,2.14-2.65,2.83
		c-1.09,0.69-2.28,1.2-3.56,1.54c-1.53,0.37-3.11,0.51-4.71,0.41c-1.61-0.09-3.15-0.34-4.62-0.74c-1.17-0.34-2.17-0.96-3.01-1.86
		s-1.51-1.91-2-3.01c-0.37-0.89-0.61-1.79-0.74-2.71c-0.12-0.92-0.17-1.87-0.14-2.85h7.31c0.03,0.58,0.05,1.18,0.07,1.79
		c0.01,0.61,0.07,1.21,0.16,1.79c0.15,0.98,0.49,1.75,1.01,2.3c0.52,0.55,1.1,0.92,1.75,1.1c1.17,0.28,2.24,0.08,3.22-0.6
		c0.43-0.34,0.8-0.74,1.13-1.22c0.32-0.47,0.51-1.05,0.58-1.72c0.06-0.61,0.12-1.29,0.16-2.05c0.05-0.75,0.04-1.45-0.02-2.09
		c-0.06-0.71-0.18-1.29-0.37-1.77c-0.18-0.48-0.43-0.88-0.74-1.22c-0.37-0.4-0.81-0.67-1.33-0.83c-0.52-0.15-1.12-0.23-1.79-0.23h-4
		v-4.14h3.86c0.74,0,1.36-0.12,1.89-0.34c0.52-0.23,0.95-0.56,1.29-0.99c0.55-0.74,0.87-1.72,0.97-2.94
		c0.06-0.71,0.05-1.4-0.02-2.09c-0.08-0.69-0.19-1.34-0.34-1.96c-0.15-0.52-0.47-0.96-0.94-1.31s-0.99-0.58-1.54-0.67
		c-0.52-0.09-1.04-0.08-1.54,0.05c-0.51,0.12-0.93,0.38-1.26,0.78c-0.61,0.71-1.01,1.5-1.2,2.39c-0.18,0.89-0.29,1.81-0.32,2.76
		h-7.5c0-1.17,0.19-2.31,0.58-3.43c0.38-1.12,0.93-2.12,1.63-3.01c0.74-0.95,1.56-1.68,2.46-2.19c0.9-0.51,1.91-0.9,3.01-1.17
		c1.29-0.34,2.62-0.5,4-0.48c1.38,0.02,2.71,0.24,4,0.67c2.27,0.71,3.96,1.93,5.06,3.68c0.46,0.74,0.81,1.56,1.04,2.46
		c0.23,0.9,0.3,1.88,0.21,2.92c-0.15,1.78-0.78,3.3-1.89,4.55c-0.55,0.61-1.16,1.1-1.82,1.47c-0.66,0.37-1.39,0.67-2.18,0.92
		c0.64,0.09,1.29,0.28,1.96,0.55c0.66,0.28,1.25,0.64,1.77,1.1c0.8,0.67,1.35,1.46,1.66,2.35S208.29,30.92,208.38,31.9z"/>
	<path class="st1" d="M231.43,35.17v7.36h-7.22v-7.36h-9.89c-0.61,0-1.14-0.14-1.59-0.44c-0.44-0.29-0.79-0.65-1.03-1.08
		c-0.46-0.89-0.4-1.79,0.18-2.71l13.16-21.02c0.43-0.71,1-1.14,1.72-1.31c0.72-0.17,1.42-0.18,2.09-0.02
		c0.71,0.15,1.31,0.49,1.82,1.01s0.76,1.15,0.76,1.89v19.5h3.54v4.19H231.43z M224.2,19.9l-6.99,11.09h6.99V19.9z"/>
	<path class="st1" d="M260.82,27.17c0.28,1.29,0.38,2.64,0.32,4.05c-0.06,1.41-0.26,2.75-0.6,4c-0.4,1.41-1.03,2.74-1.91,3.98
		s-2.03,2.17-3.47,2.78c-1.41,0.58-2.91,0.95-4.51,1.1s-3.16,0.05-4.69-0.32c-1.38-0.34-2.55-0.84-3.52-1.52
		c-0.97-0.67-1.82-1.64-2.55-2.9c-0.55-0.92-0.97-1.91-1.26-2.97c-0.29-1.06-0.47-2.14-0.53-3.24h7.59c-0.03,0.95-0.03,1.83,0,2.62
		c0.03,0.8,0.31,1.6,0.83,2.39c0.43,0.71,0.93,1.2,1.5,1.5c0.57,0.29,1.14,0.41,1.72,0.34c0.83-0.06,1.6-0.44,2.32-1.13
		c0.72-0.69,1.2-1.6,1.45-2.74c0.18-0.77,0.32-1.8,0.41-3.1c0.09-1.3,0.03-2.6-0.18-3.89c-0.15-0.95-0.39-1.79-0.71-2.53
		c-0.32-0.74-0.84-1.29-1.54-1.66c-0.58-0.31-1.19-0.45-1.82-0.44c-0.63,0.02-1.22,0.19-1.77,0.53c-0.67,0.4-1.17,0.88-1.47,1.45
		c-0.31,0.57-0.52,1.02-0.64,1.36h-6.95l1.93-15c0.09-0.86,0.46-1.58,1.1-2.16c0.58-0.52,1.26-0.78,2.02-0.78h16.24v4.19h-11.68
		c-0.15,0-0.31,0.07-0.46,0.21c-0.15,0.14-0.25,0.28-0.28,0.44l-0.87,6.99c0.52-0.46,1.13-0.81,1.82-1.04
		c0.69-0.23,1.4-0.38,2.14-0.44c1.04-0.06,2.07,0.03,3.08,0.28c1.01,0.25,1.95,0.67,2.81,1.29c1.07,0.74,1.96,1.66,2.67,2.76
		C260.05,24.68,260.54,25.88,260.82,27.17z"/>
</g>
<g class="st0">
	<path class="st1" d="M22.36,74.94c-1.79-0.52-3.44-1.29-4.98-2.31c-1.53-1.02-3.01-2.4-4.43-4.13c-0.3,0.8-0.69,1.51-1.18,2.14
		c-0.49,0.63-1.07,1.2-1.73,1.7c-0.73,0.55-1.55,1.04-2.46,1.46c-0.91,0.42-1.9,0.8-2.98,1.14H1.61c1.4-0.45,2.69-0.92,3.86-1.4
		c1.17-0.49,2.21-1.03,3.11-1.64c0.85-0.57,1.56-1.22,2.15-1.95c0.58-0.73,1.01-1.59,1.29-2.57H2.47v-0.96h9.75
		c0.05-0.26,0.09-0.53,0.1-0.81c0.02-0.28,0.03-0.56,0.03-0.86v-1.01H1.98v-0.96h10.37v-2.78H3.43v-0.96h8.92v-3.02H2.44v-0.96h6.86
		c-0.16-0.17-0.32-0.37-0.48-0.6C8.66,54.23,8.5,54,8.35,53.77c-0.16-0.23-0.3-0.47-0.44-0.7c-0.14-0.23-0.26-0.45-0.36-0.64h1.33
		c0.17,0.36,0.44,0.79,0.79,1.29c0.35,0.49,0.71,0.94,1.05,1.34h4.63c0.36-0.4,0.71-0.83,1.04-1.29c0.33-0.46,0.59-0.91,0.78-1.34
		h1.3c-0.28,0.59-0.56,1.09-0.86,1.51c-0.29,0.42-0.59,0.79-0.88,1.12h6.92v0.96H13.55v3.02h9.2v0.96h-9.18v2.78h10.69v0.96H13.57
		v0.94c0,0.31-0.01,0.61-0.03,0.9c-0.02,0.29-0.04,0.57-0.08,0.85h10.37v0.96H13.29c-0.04,0.12-0.06,0.24-0.09,0.35
		c-0.03,0.11-0.06,0.22-0.09,0.33h0.86c0.75,0.8,1.5,1.52,2.26,2.17c0.76,0.65,1.58,1.25,2.46,1.81c0.88,0.56,1.82,1.07,2.83,1.55
		c1.01,0.48,2.14,0.93,3.37,1.36H22.36z"/>
	<path class="st1" d="M51.3,74.94H45.6c-0.8,0-1.42-0.21-1.87-0.62c-0.21-0.21-0.37-0.47-0.49-0.78c-0.12-0.31-0.18-0.67-0.18-1.07
		V61.5h-5.93v3.17c0,1.51-0.14,2.78-0.42,3.81c-0.28,1.03-0.68,1.94-1.2,2.72c-0.55,0.82-1.23,1.5-2.03,2.07
		c-0.8,0.56-1.71,1.12-2.73,1.68H28.7c0.71-0.42,1.37-0.81,1.96-1.17c0.6-0.36,1.13-0.72,1.61-1.08c0.48-0.35,0.91-0.71,1.29-1.07
		c0.38-0.36,0.71-0.73,0.99-1.13c0.5-0.69,0.86-1.5,1.08-2.42c0.22-0.92,0.33-2.05,0.33-3.41V61.5h-7.02v-1.01h22.49v1.01h-7.18
		v10.95c0,0.45,0.09,0.8,0.26,1.05s0.5,0.38,0.99,0.38h6.21L51.3,74.94z M30.42,53.81v-1.01H50.1v1.01H30.42z"/>
	<path class="st1" d="M68.38,65.9c-0.66-0.71-1.33-1.39-2.03-2.05c-0.69-0.66-1.5-1.38-2.42-2.16h1.72
		c0.38,0.28,0.75,0.56,1.09,0.86c0.35,0.29,0.7,0.61,1.05,0.94c0.35,0.33,0.72,0.69,1.08,1.09c0.36,0.4,0.75,0.84,1.14,1.33H68.38z"
		/>
	<path class="st1" d="M102.76,72.54c-0.22,0.48-0.52,0.88-0.9,1.21c-0.66,0.57-1.46,0.86-2.39,0.86H88.71
		c-1.14,0-2.05-0.35-2.7-1.04c-0.29-0.29-0.52-0.66-0.68-1.1c-0.16-0.44-0.23-0.94-0.23-1.5V56.38c0-0.92,0.29-1.71,0.86-2.37
		c0.33-0.38,0.73-0.68,1.2-0.9c0.47-0.22,0.99-0.32,1.56-0.32h10.76c1.07,0,1.94,0.33,2.6,0.99c0.68,0.64,1.01,1.51,1.01,2.6v14.61
		C103.09,71.55,102.98,72.06,102.76,72.54z M101.89,56.22c0-0.75-0.23-1.33-0.7-1.77c-0.47-0.43-1.07-0.65-1.79-0.65H88.66
		c-0.71,0-1.28,0.22-1.72,0.65c-0.43,0.43-0.65,1-0.65,1.72v6.99h15.6V56.22z M86.29,64.18v6.89c0,0.75,0.2,1.35,0.6,1.82
		c0.4,0.47,0.99,0.7,1.77,0.7H99.4c0.75,0,1.35-0.23,1.81-0.69c0.46-0.46,0.69-1.06,0.69-1.81v-6.92H86.29z"/>
	<path class="st1" d="M131.04,73.83c-0.49,0.54-1.23,0.81-2.24,0.81h-15.5c-1.06,0-1.82-0.29-2.29-0.86
		c-0.42-0.5-0.62-1.23-0.62-2.18V55.7c0-0.42,0.04-0.8,0.13-1.14c0.09-0.35,0.22-0.64,0.42-0.88c0.22-0.29,0.52-0.52,0.9-0.66
		c0.37-0.15,0.86-0.22,1.47-0.22h15.5c0.97,0,1.7,0.23,2.18,0.68c0.47,0.47,0.7,1.22,0.7,2.26v15.86
		C131.69,72.59,131.47,73.34,131.04,73.83z M130.55,55.5c0-0.61-0.18-1.08-0.55-1.4c-0.31-0.28-0.73-0.42-1.25-0.42h-15.37
		c-0.66,0-1.15,0.22-1.48,0.65c-0.23,0.33-0.34,0.72-0.34,1.17V71.9c0,0.54,0.14,0.96,0.42,1.27c0.33,0.38,0.8,0.57,1.4,0.57h15.37
		c0.29,0,0.56-0.05,0.81-0.14c0.24-0.09,0.44-0.25,0.6-0.46c0.26-0.31,0.39-0.73,0.39-1.25V55.5z M117.33,71.42
		c-0.69,0.41-1.41,0.76-2.17,1.05h-2.05c0.92-0.36,1.79-0.76,2.61-1.18c0.82-0.42,1.54-0.86,2.14-1.31h1.53
		C118.7,70.53,118.01,71.01,117.33,71.42z M127.66,68.6c-0.42,0.42-0.93,0.62-1.53,0.62h-10.24c-0.62,0-1.13-0.19-1.51-0.57
		c-0.33-0.33-0.49-0.75-0.49-1.27v-4.89c0-0.28,0.06-0.52,0.17-0.74c0.11-0.22,0.26-0.4,0.45-0.56c0.19-0.17,0.42-0.3,0.68-0.39
		c0.26-0.09,0.52-0.13,0.78-0.13h10.17c0.62,0,1.13,0.17,1.51,0.52c0.35,0.35,0.52,0.79,0.52,1.33v4.86
		C128.15,67.86,127.99,68.27,127.66,68.6z M127.01,62.46c0-0.29-0.09-0.53-0.27-0.7c-0.18-0.17-0.39-0.26-0.61-0.26h-10.17
		c-0.26,0-0.48,0.1-0.66,0.3c-0.18,0.2-0.27,0.4-0.27,0.61v0.81h11.99V62.46z M127.01,64.05h-11.99v1.72h11.99V64.05z M115.02,66.6
		v0.86c0,0.24,0.09,0.46,0.27,0.65c0.18,0.19,0.39,0.29,0.64,0.29h10.19c0.26,0,0.47-0.09,0.64-0.29c0.16-0.19,0.25-0.42,0.25-0.7
		V66.6H115.02z M126.46,59.01c-0.35,0.29-0.81,0.44-1.38,0.44h-8.22c-0.59,0-1.04-0.16-1.35-0.47c-0.31-0.29-0.47-0.69-0.47-1.2
		v-1.12c0-0.45,0.16-0.83,0.47-1.14c0.17-0.17,0.39-0.3,0.64-0.39c0.25-0.09,0.52-0.13,0.79-0.13h8.14c0.59,0,1.05,0.14,1.38,0.42
		c0.35,0.29,0.52,0.71,0.52,1.25v1.12C126.98,58.29,126.81,58.69,126.46,59.01z M125.79,56.64c0-0.24-0.06-0.44-0.19-0.58
		s-0.3-0.22-0.51-0.22h-8.14c-0.26,0-0.44,0.08-0.55,0.25s-0.16,0.35-0.16,0.56v1.22c0,0.23,0.06,0.41,0.19,0.55
		c0.13,0.14,0.31,0.21,0.53,0.21h8.06c0.23,0,0.41-0.07,0.55-0.22c0.14-0.15,0.21-0.34,0.21-0.58V56.64z M127.04,72.47
		c-0.76-0.29-1.49-0.65-2.17-1.05c-0.69-0.41-1.37-0.89-2.07-1.44h1.53c0.61,0.45,1.32,0.89,2.15,1.31s1.69,0.82,2.61,1.18H127.04z"
		/>
	<path class="st1" d="M149.34,65.9c-0.66-0.71-1.33-1.39-2.03-2.05c-0.69-0.66-1.5-1.38-2.42-2.16h1.72
		c0.38,0.28,0.75,0.56,1.09,0.86c0.35,0.29,0.7,0.61,1.05,0.94c0.35,0.33,0.72,0.69,1.08,1.09c0.36,0.4,0.75,0.84,1.14,1.33H149.34z
		"/>
	<path class="st1" d="M166.45,53.94c-0.35,0-0.64,0.11-0.88,0.34c-0.24,0.23-0.36,0.51-0.36,0.86v17.39c0,0.28,0.1,0.5,0.31,0.68
		c0.21,0.17,0.43,0.26,0.68,0.26h9.57v0.86h-9.28c-0.64,0-1.18-0.17-1.61-0.49c-0.47-0.33-0.7-0.81-0.7-1.46V55.39
		c0-0.38,0.08-0.72,0.23-1.01c0.16-0.29,0.36-0.54,0.62-0.73c0.48-0.33,1.07-0.49,1.77-0.49h9.62v0.78H166.45z M170.17,71.12
		c-0.23,0.21-0.54,0.31-0.94,0.31h-1.43c-0.43,0-0.77-0.12-1.01-0.36c-0.26-0.26-0.39-0.62-0.39-1.09v-4.81
		c0-0.47,0.1-0.81,0.31-1.04c0.24-0.28,0.61-0.42,1.09-0.42h1.4c0.45,0,0.79,0.11,1.01,0.34c0.26,0.23,0.39,0.59,0.39,1.09v4.84
		C170.61,70.48,170.46,70.86,170.17,71.12z M174.75,61.71c-0.33,0.33-0.85,0.49-1.56,0.49H169c-0.69,0-1.21-0.17-1.56-0.49
		c-0.36-0.35-0.55-0.86-0.55-1.53v-2.26c0-0.68,0.17-1.19,0.52-1.53c0.35-0.33,0.88-0.49,1.61-0.49h4.13c0.68,0,1.19,0.15,1.53,0.44
		c0.38,0.31,0.57,0.83,0.57,1.56v2.34C175.27,60.9,175.09,61.4,174.75,61.71z M169.68,65.06c0-0.38-0.19-0.57-0.57-0.57h-1.2
		c-0.16,0-0.29,0.05-0.4,0.14c-0.11,0.1-0.17,0.23-0.17,0.4v5.1c0,0.17,0.06,0.31,0.17,0.42c0.11,0.1,0.25,0.16,0.4,0.16h1.2
		c0.17,0,0.31-0.06,0.42-0.18c0.1-0.12,0.16-0.26,0.16-0.42V65.06z M174.15,57.63c0-0.64-0.35-0.96-1.04-0.96h-4.03
		c-0.35,0-0.61,0.09-0.79,0.29c-0.18,0.19-0.27,0.42-0.27,0.7v2.78c0,0.26,0.1,0.49,0.29,0.69c0.19,0.2,0.46,0.3,0.81,0.3h3.98
		c0.31,0,0.57-0.08,0.77-0.25s0.3-0.41,0.3-0.74V57.63z M175.6,70.97c-0.24,0.33-0.61,0.49-1.09,0.49h-1.43
		c-0.43,0-0.78-0.13-1.04-0.39c-0.24-0.28-0.36-0.63-0.36-1.07v-4.81c0-0.54,0.16-0.94,0.47-1.2c0.26-0.17,0.57-0.26,0.94-0.26h1.4
		c0.48,0,0.84,0.13,1.07,0.39c0.24,0.24,0.36,0.59,0.36,1.04V70C175.92,70.38,175.81,70.71,175.6,70.97z M174.95,65.09
		c0-0.38-0.19-0.57-0.57-0.57h-1.3c-0.31,0-0.47,0.18-0.47,0.55v5.1c0,0.17,0.06,0.31,0.17,0.42c0.11,0.1,0.25,0.16,0.4,0.16h1.2
		c0.17,0,0.31-0.06,0.42-0.18s0.16-0.26,0.16-0.42V65.09z M185.61,58.93c-0.14,0.43-0.3,0.95-0.49,1.55s-0.41,1.21-0.65,1.83h-1.22
		c0.26-0.62,0.5-1.3,0.73-2.03c0.22-0.73,0.42-1.38,0.57-1.95c0.09-0.29,0.08-0.56-0.03-0.79c-0.1-0.23-0.32-0.35-0.65-0.35h-4.86
		c-0.3,0.88-0.61,1.7-0.95,2.46c-0.34,0.75-0.71,1.44-1.13,2.07h-1.33c0.55-0.81,1.02-1.62,1.39-2.41c0.37-0.79,0.69-1.57,0.95-2.34
		c0.26-0.77,0.48-1.54,0.66-2.3c0.18-0.76,0.36-1.52,0.53-2.26h1.14c-0.14,0.64-0.28,1.27-0.43,1.89s-0.32,1.22-0.51,1.81h4.13
		c0.55,0,1,0.08,1.35,0.23c0.35,0.16,0.59,0.37,0.73,0.65C185.84,57.5,185.86,58.15,185.61,58.93z M185.22,74.97
		c-0.55-0.73-1.07-1.52-1.53-2.37c-0.47-0.85-0.88-1.74-1.25-2.68c-0.35-0.9-0.65-1.81-0.91-2.73c-0.26-0.92-0.49-1.82-0.68-2.7
		c-0.14,1.06-0.32,2.04-0.55,2.94c-0.23,0.9-0.49,1.77-0.78,2.6c-0.66,1.8-1.46,3.45-2.42,4.94h-1.43c0.68-0.92,1.32-2.02,1.94-3.3
		c0.62-1.28,1.12-2.71,1.52-4.29c0.31-1.21,0.55-2.49,0.71-3.83c0.16-1.34,0.21-2.73,0.14-4.17h1.17c0,1.59-0.08,3.06-0.23,4.39
		h0.81c0.23,1.06,0.49,2.09,0.78,3.09c0.29,1.01,0.64,1.98,1.04,2.91c0.4,0.97,0.85,1.89,1.35,2.76c0.5,0.87,1.07,1.68,1.69,2.44
		H185.22z"/>
	<path class="st1" d="M213.23,74.94h-5.69c-0.8,0-1.42-0.21-1.87-0.62c-0.21-0.21-0.37-0.47-0.49-0.78
		c-0.12-0.31-0.18-0.67-0.18-1.07V61.5h-5.93v3.17c0,1.51-0.14,2.78-0.42,3.81c-0.28,1.03-0.68,1.94-1.2,2.72
		c-0.55,0.82-1.23,1.5-2.03,2.07c-0.8,0.56-1.71,1.12-2.73,1.68h-2.05c0.71-0.42,1.37-0.81,1.96-1.17c0.6-0.36,1.13-0.72,1.61-1.08
		c0.48-0.35,0.91-0.71,1.29-1.07c0.38-0.36,0.71-0.73,0.99-1.13c0.5-0.69,0.86-1.5,1.08-2.42c0.22-0.92,0.33-2.05,0.33-3.41V61.5
		h-7.02v-1.01h22.49v1.01h-7.18v10.95c0,0.45,0.09,0.8,0.26,1.05c0.17,0.25,0.5,0.38,0.99,0.38h6.21L213.23,74.94z M192.35,53.81
		v-1.01h19.68v1.01H192.35z"/>
</g>
<g class="st0">
	<path class="st1" d="M233.48,70.52v2.37c0,0.61-0.21,1.12-0.62,1.53c-0.21,0.23-0.46,0.39-0.75,0.51
		c-0.29,0.11-0.62,0.17-0.96,0.17h-5.67l-0.88-2.31h4.63c0.14,0,0.26-0.06,0.35-0.17c0.09-0.11,0.14-0.23,0.14-0.35v-1.74h-9.65
		v-2.16h9.65V67.9c0-0.26,0.12-0.43,0.36-0.52c0.38-0.12,0.84-0.27,1.39-0.46c0.55-0.18,1.02-0.35,1.42-0.51h-10.97v-2.08h17.32
		c0.24,0,0.45,0.07,0.62,0.22c0.17,0.15,0.3,0.32,0.39,0.51c0.09,0.22,0.09,0.45,0.03,0.66c-0.07,0.22-0.23,0.39-0.47,0.51
		c-0.42,0.19-0.87,0.38-1.36,0.57c-0.49,0.19-1,0.38-1.52,0.56c-0.52,0.18-1.04,0.36-1.56,0.52c-0.52,0.17-1.01,0.33-1.48,0.48h9.15
		v2.16H233.48z M220.27,56.15v-2.24h9.02c-0.05-0.1-0.11-0.23-0.18-0.38s-0.14-0.3-0.22-0.47c-0.08-0.17-0.16-0.33-0.23-0.48
		s-0.14-0.29-0.2-0.42h4.39c0.12,0.29,0.25,0.59,0.39,0.88c0.14,0.29,0.3,0.58,0.49,0.86h8.94v2.24H220.27z M240.66,62.72
		c-0.35,0.33-0.87,0.49-1.56,0.49h-15.34c-0.68,0-1.2-0.21-1.56-0.62c-0.33-0.38-0.49-0.89-0.49-1.53V58.9c0-0.5,0.16-0.9,0.49-1.2
		c0.19-0.17,0.42-0.3,0.68-0.38s0.54-0.12,0.83-0.12h15.47c0.59,0,1.07,0.18,1.43,0.55c0.38,0.38,0.57,0.88,0.57,1.51v2.08
		C241.18,61.95,241,62.41,240.66,62.72z M237.2,59.73c0-0.1-0.04-0.19-0.13-0.26c-0.09-0.07-0.18-0.1-0.29-0.1h-10.76
		c-0.09,0-0.17,0.04-0.26,0.12s-0.13,0.16-0.13,0.25v0.88c0,0.14,0.04,0.24,0.13,0.31c0.09,0.07,0.19,0.1,0.31,0.1h10.63
		c0.12,0,0.23-0.04,0.34-0.12c0.1-0.08,0.16-0.19,0.16-0.33V59.73z"/>
	<path class="st1" d="M265.64,66.57v-1.2h-2.55c-0.33-0.61-0.58-1.21-0.75-1.82c-0.28,0.66-0.6,1.26-0.96,1.79h-2.91v1.12h-3.59
		v-6.89h-1.48c0.05-0.09,0.13-0.2,0.22-0.34c0.09-0.14,0.17-0.26,0.22-0.36h-1.3v4.37c0.19-0.05,0.43-0.13,0.73-0.22
		c0.29-0.1,0.54-0.17,0.73-0.22v2.44c-0.19,0.09-0.43,0.17-0.73,0.26c-0.29,0.09-0.54,0.16-0.73,0.21v7.1
		c0,0.75-0.24,1.32-0.73,1.72c-0.42,0.36-0.96,0.55-1.64,0.55h-2.86l-0.47-2.34h1.59c0.17,0,0.31-0.08,0.42-0.23
		c0.1-0.16,0.16-0.31,0.16-0.47v-5.04c-0.24,0.07-0.57,0.15-0.97,0.25c-0.41,0.09-0.74,0.17-1,0.22v-2.44
		c0.12-0.03,0.27-0.07,0.44-0.1s0.35-0.08,0.53-0.13c0.18-0.05,0.36-0.1,0.55-0.16s0.33-0.1,0.46-0.16v-5.59h-1.98v-2.34H249v-4.29
		h3.54v4.29h1.43v2.11c0.66-0.88,1.27-1.87,1.83-2.95s1.07-2.21,1.52-3.39h3.9c-0.05,0.19-0.11,0.4-0.18,0.64
		c-0.07,0.23-0.14,0.45-0.21,0.64h4.42c0.57,0,1.02,0.23,1.35,0.68c0.14,0.21,0.23,0.44,0.27,0.7c0.04,0.26,0,0.52-0.14,0.78
		c-0.17,0.36-0.4,0.77-0.69,1.21c-0.29,0.44-0.53,0.8-0.74,1.08h1.46c0.73,0,1.32,0.21,1.77,0.62c0.5,0.5,0.75,1.19,0.75,2.05v5.88
		H265.64z M265.64,75.28c-0.61-0.66-1.18-1.35-1.73-2.07c-0.55-0.72-1.04-1.47-1.47-2.25c-0.45,0.78-0.99,1.53-1.62,2.25
		c-0.63,0.72-1.31,1.38-2.04,1.99h-5.36c0.52-0.33,1.05-0.7,1.59-1.12s1.05-0.86,1.55-1.34s0.95-0.97,1.38-1.5
		c0.42-0.52,0.79-1.06,1.11-1.61h-5.12v-2.26h6.03c0.05-0.17,0.11-0.39,0.18-0.66c0.07-0.27,0.12-0.5,0.16-0.69H264
		c-0.04,0.19-0.07,0.41-0.1,0.66c-0.04,0.25-0.08,0.48-0.13,0.69h6.27v2.26h-6.94c-0.07,0.14-0.15,0.3-0.23,0.48
		c-0.09,0.18-0.17,0.33-0.23,0.46h3.59c0.61,0.8,1.24,1.6,1.91,2.41c0.67,0.81,1.41,1.57,2.22,2.3H265.64z M259.01,60.36
		c-0.14,0-0.26,0.06-0.38,0.19s-0.17,0.26-0.17,0.38v4c0.45-0.73,0.84-1.47,1.16-2.22c0.32-0.75,0.58-1.54,0.79-2.35H259.01z
		 M262.68,56.17c0.04-0.07,0.04-0.13,0.01-0.2c-0.03-0.06-0.08-0.09-0.17-0.09h-2.73c-0.07,0.14-0.16,0.3-0.26,0.49
		c-0.1,0.19-0.21,0.39-0.33,0.58c-0.11,0.2-0.22,0.39-0.33,0.57c-0.1,0.18-0.2,0.34-0.29,0.48h2.91c0.09-0.12,0.19-0.27,0.3-0.44
		c0.11-0.17,0.23-0.35,0.34-0.52c0.11-0.17,0.22-0.34,0.31-0.49C262.55,56.41,262.63,56.28,262.68,56.17z M265.64,60.96
		c0-0.19-0.06-0.34-0.17-0.44c-0.11-0.1-0.26-0.16-0.46-0.16h-1.77c-0.04,0.21-0.09,0.47-0.17,0.79c-0.08,0.32-0.15,0.58-0.22,0.77
		h1.56c0.16,0.49,0.33,0.96,0.52,1.42c0.19,0.46,0.42,0.9,0.7,1.31V60.96z"/>
	<path class="st1" d="M278.38,54.61c-0.14,0-0.25,0.06-0.34,0.17s-0.13,0.26-0.13,0.43v17.21c0,0.12,0.05,0.23,0.16,0.33
		c0.1,0.1,0.22,0.14,0.34,0.14h18.41v2.16H277c-0.88,0-1.59-0.24-2.11-0.73c-0.5-0.47-0.75-1.12-0.75-1.95V54.59
		c0-0.29,0.07-0.57,0.21-0.83c0.14-0.26,0.33-0.49,0.57-0.68c0.21-0.19,0.45-0.35,0.72-0.47c0.27-0.12,0.54-0.18,0.82-0.18h20.41
		v2.18H278.38z M282.69,68.79c-0.18,1.01-0.38,2.01-0.58,3h-3.87c0.26-0.99,0.49-1.99,0.7-3c0.21-1.01,0.37-2.05,0.49-3.11h3.67
		C283,66.75,282.87,67.78,282.69,68.79z M279.6,64.88c-0.29-0.68-0.55-1.37-0.75-2.08c-0.21-0.71-0.4-1.42-0.57-2.13h3.77
		c0.14,0.73,0.33,1.44,0.57,2.13c0.24,0.69,0.51,1.39,0.81,2.08H279.6z M279.6,59.76c-0.24-0.73-0.47-1.45-0.69-2.16
		c-0.22-0.71-0.41-1.44-0.58-2.18h3.61c0.19,0.75,0.4,1.48,0.64,2.21c0.23,0.73,0.5,1.44,0.79,2.13H279.6z M286.39,71.85
		c-0.8,0-1.37-0.23-1.72-0.7c-0.16-0.19-0.27-0.42-0.34-0.7s-0.1-0.59-0.1-0.94v-7.49h-1.38c0.45-1.06,0.84-2.13,1.17-3.22
		c0.33-1.09,0.61-2.22,0.83-3.38h3.8c-0.07,0.43-0.16,0.88-0.26,1.33c-0.1,0.45-0.22,0.88-0.34,1.3h1.92
		c-0.14-0.42-0.26-0.84-0.38-1.29c-0.11-0.44-0.21-0.89-0.3-1.34h3.56c0.19,0.9,0.44,1.78,0.75,2.63h3.07v2.05h-3.25v1.74h2.68v2.03
		h-2.68v1.87h2.65v1.98h-2.65v2.11h3.25v2.03H286.39z M289.95,60.1h-2.11v1.74h2.11V60.1z M289.95,63.87h-2.11v1.87h2.11V63.87z
		 M289.95,67.72h-2.11v1.48c0,0.16,0.07,0.3,0.21,0.43c0.14,0.13,0.29,0.2,0.44,0.2h1.46V67.72z"/>
	<path class="st1" d="M306.71,56.77c-0.48,1.51-1.03,2.99-1.65,4.45h1.22v13.96h-3.9V62.31h-1.95c1.51-3.26,2.66-6.63,3.46-10.11
		H308C307.61,53.74,307.19,55.26,306.71,56.77z M320.87,67.9c-0.33-0.54-0.61-1.07-0.84-1.59c-0.23-0.52-0.45-1.07-0.64-1.64h1.25
		v-0.73c0-0.29-0.16-0.44-0.47-0.44h-2.05c0.14,0.31,0.31,0.63,0.51,0.96c0.2,0.33,0.39,0.63,0.58,0.91h-3.17
		c-0.19-0.28-0.38-0.58-0.56-0.92c-0.18-0.34-0.33-0.65-0.46-0.95h-3.98c-0.14,0-0.26,0.04-0.35,0.13c-0.1,0.09-0.14,0.2-0.14,0.34
		v0.78h1.17c-0.24,0.55-0.51,1.09-0.79,1.61c-0.29,0.52-0.61,1.03-0.97,1.53h-3.28c0.29-0.38,0.58-0.78,0.86-1.21
		c0.28-0.42,0.52-0.85,0.73-1.26h-1.07v-1.9c0-0.47,0.15-0.87,0.44-1.2c0.35-0.35,0.76-0.53,1.25-0.55v-4.68
		c0-0.59,0.16-1.05,0.47-1.38c0.31-0.4,0.8-0.6,1.46-0.6h2.34c0.07-0.14,0.13-0.29,0.2-0.44c0.06-0.16,0.12-0.31,0.17-0.47h-5.25
		v-1.79h15.52v1.79h-6.5c-0.1,0.33-0.23,0.63-0.39,0.91h3.64c0.24,0,0.48,0.05,0.73,0.14c0.24,0.09,0.45,0.24,0.62,0.43
		c0.14,0.14,0.25,0.29,0.33,0.47c0.08,0.17,0.12,0.36,0.12,0.57v4.99c0.24,0.05,0.47,0.13,0.69,0.23c0.22,0.1,0.39,0.24,0.53,0.42
		c0.26,0.28,0.39,0.63,0.39,1.07v1.9h-1.25c0.31,0.85,0.74,1.7,1.27,2.55H320.87z M317.69,75.15c-0.29-0.12-0.59-0.26-0.9-0.4
		c-0.3-0.15-0.6-0.3-0.9-0.46c-0.36,0.17-0.73,0.33-1.09,0.48c-0.36,0.15-0.74,0.27-1.12,0.38h-6.94c2.06-0.73,4.09-1.53,6.08-2.42
		c-0.19-0.09-0.38-0.19-0.56-0.31c-0.18-0.12-0.37-0.25-0.56-0.39c-0.07,0.09-0.15,0.17-0.23,0.26c-0.09,0.09-0.17,0.17-0.26,0.26
		h-4.26c0.78-0.76,1.54-1.57,2.29-2.43s1.44-1.73,2.08-2.61h1.43c-0.19-0.14-0.35-0.32-0.47-0.53c-0.12-0.22-0.18-0.45-0.18-0.69
		v-2.03h3.04v1.53c0,0.1,0.05,0.2,0.16,0.3c0.1,0.1,0.2,0.14,0.29,0.14h4.13l-0.55,1.59h-4.13c-0.09,0.14-0.18,0.28-0.29,0.43
		c-0.1,0.15-0.22,0.28-0.34,0.4h6.5c0.24,0,0.46,0.07,0.64,0.22c0.18,0.15,0.32,0.33,0.4,0.53c0.09,0.23,0.12,0.46,0.09,0.69
		c-0.03,0.23-0.13,0.45-0.33,0.64c-0.43,0.42-0.89,0.78-1.36,1.09c-0.48,0.31-0.98,0.62-1.5,0.91c0.85,0.45,1.72,0.88,2.6,1.27
		s1.79,0.78,2.7,1.14H317.69z M318.76,57.24c0-0.09-0.05-0.17-0.14-0.26c-0.1-0.09-0.19-0.13-0.27-0.13h-5.38
		c-0.1,0-0.21,0.04-0.31,0.1c-0.1,0.07-0.16,0.17-0.16,0.29v0.36h6.27V57.24z M318.76,58.88h-6.27v0.7h6.27V58.88z M318.76,60.98
		h-6.27v0.81h6.27V60.98z M313.33,70.16c-0.09,0.14-0.18,0.27-0.29,0.39c-0.1,0.12-0.21,0.24-0.31,0.36h2.55
		c0.09,0.05,0.19,0.11,0.3,0.17c0.11,0.06,0.21,0.11,0.3,0.14c0.29-0.14,0.6-0.3,0.92-0.49s0.62-0.38,0.9-0.57H313.33z"/>
	<path class="st1" d="M332.61,72.14c-0.3,0.88-0.65,1.76-1.05,2.63h-3.87c0.4-0.85,0.77-1.72,1.1-2.61s0.62-1.8,0.84-2.72h3.8
		C333.18,70.35,332.91,71.25,332.61,72.14z M346.74,68.5c-0.14-0.14-0.27-0.29-0.4-0.44c-0.13-0.16-0.25-0.31-0.35-0.47
		c-2.98,0.14-5.97,0.25-8.96,0.33s-5.97,0.12-8.93,0.12v-2.24c1.59,0.04,3.18,0.05,4.74,0.05c1.57,0,3.14-0.02,4.72-0.05v-1.4h-6.03
		c-0.31,0-0.62-0.06-0.91-0.18s-0.55-0.31-0.75-0.57c-0.33-0.38-0.49-0.91-0.49-1.59v-3.28c0-0.29,0.05-0.56,0.16-0.79
		c0.1-0.23,0.25-0.45,0.44-0.64c0.45-0.42,0.99-0.62,1.61-0.62h5.98v-1.09h-9.39V53.6h9.39v-1.38h3.8v1.38h9.41v2.03h-9.41v1.09
		h6.01c0.71,0,1.28,0.22,1.72,0.65c0.38,0.42,0.57,0.95,0.57,1.61v3.17c0,0.64-0.2,1.16-0.6,1.56c-0.45,0.45-1.04,0.68-1.77,0.68
		h-5.93v1.33c0.19,0,0.43-0.01,0.71-0.03c0.29-0.02,0.58-0.03,0.88-0.04s0.6-0.02,0.9-0.04c0.29-0.02,0.55-0.03,0.78-0.03
		c-0.17-0.26-0.29-0.49-0.36-0.68h4.39c0.36,0.61,0.75,1.21,1.14,1.82c0.4,0.61,0.86,1.2,1.38,1.77H346.74z M337.56,58.59h-3.95
		c-0.1,0-0.21,0.04-0.33,0.12c-0.11,0.08-0.17,0.18-0.17,0.3v0.6h4.45V58.59z M337.56,61.48h-4.45v0.6c0,0.09,0.05,0.18,0.14,0.29
		c0.1,0.1,0.19,0.16,0.27,0.16h4.03V61.48z M345.38,75.18h-8.97c-0.4,0-0.74-0.07-1.03-0.22c-0.29-0.15-0.52-0.34-0.72-0.58
		c-0.35-0.49-0.52-1.09-0.52-1.82v-3.77h3.69v3.59c0,0.16,0.06,0.3,0.17,0.43c0.11,0.13,0.25,0.2,0.43,0.2h7.57L345.38,75.18z
		 M340.05,72.03c-0.26-0.57-0.49-1.15-0.69-1.74c-0.2-0.59-0.38-1.19-0.53-1.79h3.77c0.31,1.2,0.76,2.38,1.35,3.54H340.05z
		 M345.83,58.98c0-0.09-0.05-0.17-0.14-0.26c-0.1-0.09-0.19-0.13-0.27-0.13h-4.06v1.01h4.47V58.98z M345.83,61.48h-4.47v1.04h4
		c0.1,0,0.21-0.04,0.31-0.12c0.1-0.08,0.16-0.17,0.16-0.27V61.48z M347.49,74.74c-0.43-0.85-0.81-1.72-1.14-2.6
		c-0.33-0.88-0.62-1.79-0.88-2.73h3.77c0.26,0.92,0.57,1.82,0.94,2.7c0.36,0.88,0.76,1.76,1.2,2.63H347.49z"/>
</g>
</svg>
