<?xml version="1.0" encoding="utf-8"?>
<!-- Generator: Adobe Illustrator 24.0.1, SVG Export Plug-In . SVG Version: 6.00 Build 0)  -->
<svg version="1.1" id="圖層_1" xmlns="http://www.w3.org/2000/svg" xmlns:xlink="http://www.w3.org/1999/xlink" x="0px" y="0px"
	 viewBox="0 0 253 110.25" style="enable-background:new 0 0 253 110.25;" xml:space="preserve">
<style type="text/css">
	.st0{enable-background:new    ;}
	.st1{fill:#0F90C9;}
</style>
<g class="st0">
	<path class="st1" d="M12.12,30.77c-0.98,0.41-1.99,0.8-3.02,1.17c-1.03,0.37-2.05,0.72-3.04,1.04c-1,0.32-1.9,0.57-2.72,0.74v-3.46
		c1.2-0.34,2.32-0.68,3.35-1.04v-10.4H4.1V15.5h2.59V7.26H3.38V3.95h11.27v3.31H11.8v8.24h2.16v3.31H11.8v8.5
		c0.19-0.05,0.41-0.11,0.67-0.2s0.52-0.18,0.81-0.29s0.56-0.21,0.83-0.31c0.26-0.1,0.49-0.18,0.68-0.25v3.35
		C14,29.97,13.11,30.36,12.12,30.77z M14.64,34.33v-3.28h7.7v-3.71h-6.52v-3.24h6.52v-3.31h-3.38c-0.86,0-1.6-0.28-2.2-0.83
		c-0.31-0.31-0.56-0.69-0.74-1.13c-0.18-0.44-0.27-0.95-0.27-1.53V5.89c0-0.91,0.32-1.66,0.97-2.23c0.58-0.5,1.24-0.76,1.98-0.76
		h11.95c1.06,0,1.86,0.31,2.41,0.94c0.29,0.31,0.5,0.65,0.63,1.03c0.13,0.37,0.2,0.75,0.2,1.13v11.88c0,0.84-0.28,1.54-0.83,2.09
		c-0.26,0.26-0.58,0.47-0.94,0.61c-0.36,0.14-0.77,0.22-1.22,0.22h-3.49v3.31h6.52v3.24h-6.52v3.71h7.63v3.28H14.64z M22.35,6.11
		h-1.44c-0.19,0-0.37,0.07-0.52,0.22c-0.16,0.14-0.23,0.3-0.23,0.47v3.38h2.2V6.11z M22.35,13.41h-2.2v3.42
		c0,0.17,0.09,0.33,0.27,0.49c0.18,0.16,0.34,0.23,0.49,0.23h1.44V13.41z M29.58,6.93c0-0.24-0.08-0.44-0.25-0.59
		c-0.17-0.16-0.36-0.23-0.58-0.23h-1.33v4.07h2.16V6.93z M29.58,13.41h-2.16v4.14h1.44c0.19,0,0.36-0.07,0.5-0.2
		s0.22-0.27,0.22-0.41V13.41z"/>
	<path class="st1" d="M45.1,30.93c-0.29,1.16-0.64,2.32-1.04,3.47h-5.33c0.53-1.22,0.97-2.42,1.31-3.58
		c0.35-1.16,0.63-2.32,0.85-3.47h4.9C45.62,28.57,45.39,29.76,45.1,30.93z M51.9,25.26c-0.55,0.55-1.27,0.83-2.16,0.83h-6.98
		c-0.41,0-0.79-0.09-1.13-0.27c-0.35-0.18-0.65-0.41-0.92-0.7c-0.5-0.58-0.76-1.26-0.76-2.05V5.89c0-0.36,0.09-0.68,0.27-0.97
		c0.18-0.29,0.4-0.54,0.67-0.76c0.6-0.48,1.27-0.72,2.02-0.72h6.7c0.89,0,1.64,0.35,2.27,1.04c0.24,0.26,0.43,0.55,0.58,0.86
		S52.66,6,52.66,6.36v17.03C52.66,24.18,52.41,24.8,51.9,25.26z M47.76,7.29c0-0.19-0.07-0.35-0.2-0.49
		c-0.13-0.13-0.29-0.2-0.49-0.2h-1.76c-0.17,0-0.31,0.08-0.41,0.25s-0.16,0.31-0.16,0.43v2.59h3.02V7.29z M47.76,12.91h-3.02v3.6
		h3.02V12.91z M47.76,19.57h-3.02v2.63c0,0.24,0.07,0.44,0.22,0.59c0.14,0.16,0.31,0.23,0.5,0.23h1.66c0.43,0,0.65-0.24,0.65-0.72
		V19.57z M49.02,34.4c-0.53-1.1-0.94-2.25-1.22-3.44c-0.29-1.19-0.54-2.39-0.76-3.62h4.93c0.1,0.53,0.22,1.1,0.38,1.73
		c0.16,0.62,0.34,1.25,0.54,1.87c0.2,0.62,0.42,1.24,0.65,1.84c0.23,0.6,0.46,1.14,0.7,1.62H49.02z M60.96,17.73
		c-0.18,1.42-0.4,2.83-0.67,4.23c-0.26,1.4-0.56,2.75-0.88,4.05c-0.32,1.3-0.67,2.44-1.03,3.42h-5.4c1.08-2.78,1.84-5.45,2.29-7.99
		c0.44-2.54,0.73-5.09,0.85-7.63h5.22C61.26,15.01,61.14,16.32,60.96,17.73z M68.54,11.83v19.01c0,0.41-0.08,0.82-0.25,1.22
		c-0.17,0.41-0.38,0.78-0.65,1.12c-0.29,0.36-0.63,0.65-1.03,0.86s-0.8,0.32-1.21,0.32H58.1l-0.97-3.31h5.62
		c0.17,0,0.31-0.08,0.43-0.25s0.18-0.31,0.18-0.43V11.83h-9.61V8.48h9.61V2.72h5.18v5.76h2.34v3.35H68.54z"/>
	<path class="st1" d="M83.71,33.43c-2.8,0.33-5.65,0.59-8.55,0.76v-3.24c0.94-0.07,1.92-0.16,2.95-0.27
		c1.03-0.11,2.02-0.22,2.95-0.34v-5.15h-4.72v-3.24h4.72v-3.31h5.33v3.31h4.82v3.24h-4.82v4.61c0.79-0.07,1.69-0.17,2.7-0.31
		c1.01-0.13,1.96-0.27,2.84-0.41v3.13C89.25,32.69,86.51,33.09,83.71,33.43z M84.66,6.54l-3.2,7.27h4.5
		c-0.24-0.79-0.44-1.59-0.61-2.39c-0.17-0.8-0.32-1.62-0.47-2.47h4.61c0.26,1.39,0.59,2.79,0.99,4.19c0.4,1.4,0.86,2.75,1.39,4.05
		h-4.79c-0.19-0.48-0.37-0.95-0.52-1.4c-0.16-0.46-0.31-0.92-0.45-1.4l-0.94,2.81h-7.49c-0.34,0-0.64-0.1-0.92-0.31
		c-0.28-0.2-0.5-0.46-0.67-0.77c-0.14-0.26-0.23-0.56-0.25-0.88c-0.02-0.32,0.02-0.63,0.14-0.92l3.38-7.78h-3.89V3.26h16.63v3.28
		H84.66z M101.66,34.54c-0.41-0.58-0.81-1.16-1.21-1.75c-0.4-0.59-0.79-1.18-1.17-1.78c-0.34,0.62-0.7,1.23-1.08,1.82
		c-0.38,0.59-0.79,1.16-1.22,1.71h-5.76c0.94-1.37,1.85-2.77,2.75-4.21c0.9-1.44,1.71-2.89,2.43-4.36
		c-0.72-1.49-1.37-2.99-1.94-4.52c-0.58-1.52-1.12-3.08-1.62-4.66h5.11c0.14,0.48,0.3,0.96,0.47,1.44c0.17,0.48,0.35,0.95,0.54,1.4
		c0.41-1.3,0.74-2.61,1.01-3.94s0.49-2.69,0.68-4.09h-2.41c-0.19,0.65-0.4,1.28-0.63,1.89c-0.23,0.61-0.46,1.23-0.7,1.85h-5.22
		c0.79-2.04,1.48-4.12,2.07-6.23c0.59-2.11,1.1-4.26,1.53-6.44h5.15c-0.19,0.91-0.39,1.84-0.59,2.79c-0.2,0.95-0.41,1.88-0.63,2.79
		h7.88v3.35h-1.55c-0.34,2.52-0.78,4.97-1.33,7.36c-0.55,2.39-1.33,4.7-2.34,6.93c0.91,1.46,1.84,2.91,2.79,4.34
		c0.95,1.43,1.91,2.86,2.9,4.3H101.66z"/>
	<path class="st1" d="M137.73,11.79V9.02c0-0.19-0.09-0.37-0.27-0.54c-0.18-0.17-0.37-0.25-0.56-0.25h-19.76
		c-0.12,0-0.25,0.07-0.4,0.2c-0.14,0.13-0.22,0.26-0.22,0.38v2.95h-4.93V7.58c0-0.41,0.08-0.76,0.23-1.06
		c0.16-0.3,0.37-0.56,0.63-0.77c0.29-0.24,0.62-0.42,1.01-0.54c0.38-0.12,0.77-0.18,1.15-0.18h9.61c-0.12-0.31-0.25-0.69-0.4-1.13
		s-0.28-0.81-0.4-1.1h5.76c0.34,0.7,0.71,1.44,1.12,2.23h9.29c0.48,0,0.92,0.07,1.31,0.2c0.4,0.13,0.74,0.33,1.03,0.59
		c0.53,0.48,0.79,1.16,0.79,2.05v3.92H137.73z M141.04,33.57c-0.53,0.5-1.28,0.76-2.27,0.76h-23.51c-0.41,0-0.8-0.09-1.17-0.27
		c-0.37-0.18-0.69-0.43-0.95-0.74c-0.24-0.26-0.43-0.56-0.58-0.9c-0.14-0.33-0.22-0.68-0.22-1.04v-5.72c0-0.96,0.28-1.69,0.83-2.2
		c0.58-0.58,1.39-0.86,2.45-0.86h23.08c0.94,0,1.69,0.25,2.27,0.76c0.26,0.26,0.48,0.57,0.65,0.92s0.25,0.76,0.25,1.24v6.01
		C141.87,32.39,141.59,33.07,141.04,33.57z M139.56,20.61c-0.5,0.43-1.17,0.65-1.98,0.65h-21.13c-0.7,0-1.3-0.28-1.8-0.83
		c-0.43-0.48-0.65-1.02-0.65-1.62v-2.27c0-0.84,0.28-1.48,0.83-1.91c0.48-0.38,1.15-0.58,2.02-0.58h20.48
		c0.89,0,1.61,0.24,2.16,0.72c0.55,0.48,0.83,1.13,0.83,1.94v2.16C140.32,19.65,140.07,20.23,139.56,20.61z M124.55,25.44h-6.48
		c-0.14,0-0.27,0.06-0.38,0.18s-0.16,0.24-0.16,0.36v1.08h7.02V25.44z M124.55,29.87h-7.02v1.08c0,0.12,0.06,0.25,0.18,0.38
		s0.24,0.2,0.36,0.2h6.48V29.87z M117.78,12.62V9.81h18.86v2.81H117.78z M134.88,17.37c0-0.12-0.05-0.23-0.14-0.32
		c-0.1-0.09-0.2-0.14-0.32-0.14h-14.76c-0.12,0-0.22,0.04-0.29,0.13c-0.07,0.08-0.11,0.19-0.11,0.31v0.58
		c0,0.12,0.04,0.22,0.13,0.31c0.08,0.08,0.19,0.13,0.31,0.13h14.76c0.12,0,0.22-0.04,0.31-0.13s0.13-0.19,0.13-0.31V17.37z
		 M136.72,26.01c0-0.14-0.07-0.28-0.22-0.4c-0.14-0.12-0.28-0.18-0.4-0.18h-6.44v1.62h7.06V26.01z M136.72,29.87h-7.06v1.66h6.55
		c0.12,0,0.23-0.06,0.34-0.18c0.11-0.12,0.16-0.24,0.16-0.36V29.87z"/>
	<path class="st1" d="M156.27,29.5v5h-4.93v-5h-4.07v-3.13h4.07v-1.8h-1.15c-0.62,0-1.19-0.22-1.69-0.65
		c-0.5-0.5-0.76-1.12-0.76-1.84v-9.11c0-0.34,0.07-0.65,0.22-0.94c0.14-0.29,0.34-0.54,0.58-0.76c0.5-0.43,1.07-0.65,1.69-0.65h1.12
		V8.81h-4.14V5.64h4.14v-3.1h4.93v3.1h4.03v3.17h-4.03v1.84h1.01c0.77,0,1.39,0.24,1.87,0.72c0.5,0.5,0.76,1.15,0.76,1.94v8.86
		c0,0.7-0.23,1.27-0.68,1.73c-0.41,0.46-0.94,0.68-1.58,0.68h-1.37v1.8h4.39v3.13H156.27z M151.88,13.81h-0.61
		c-0.19,0-0.34,0.07-0.43,0.2c-0.1,0.13-0.14,0.26-0.14,0.38v1.69h1.19V13.81z M151.88,18.99h-1.19v1.8c0,0.14,0.05,0.28,0.16,0.41
		c0.11,0.13,0.25,0.2,0.41,0.2h0.61V18.99z M156.95,14.39c0-0.38-0.19-0.58-0.58-0.58h-0.61v2.27h1.19V14.39z M156.95,18.99h-1.19
		v2.41h0.65c0.36,0,0.54-0.19,0.54-0.58V18.99z M160.55,34.29v-3.31h6.59v-4.75h-5.51v-3.31h16.31v3.31h-5.62v4.75h6.73v3.31H160.55
		z M165.2,14.24c-0.17,0.53-0.16,1.08,0.04,1.66l1.98,5.69h-4.39l-1.87-5.47c-0.12-0.36-0.18-0.77-0.18-1.22s0.06-0.86,0.18-1.22
		l2.16-6.23h4.36L165.2,14.24z M161.06,6.25V2.94h17.71v3.31H161.06z M170.99,13.77c-0.12,0.31-0.17,0.65-0.16,1.01
		c0.01,0.36,0.08,0.7,0.2,1.01l2.05,5.8h-4.5l-1.91-5.4c-0.17-0.48-0.26-0.92-0.27-1.33c-0.01-0.41,0.07-0.85,0.23-1.33l2.09-6.08
		h4.43L170.99,13.77z M174.45,21.58l-2.12-6.12c-0.26-0.82-0.24-1.66,0.07-2.52l1.87-5.51h4.43l-2.05,6.16
		c-0.1,0.26-0.13,0.53-0.11,0.81c0.02,0.28,0.07,0.53,0.14,0.77l2.23,6.41H174.45z"/>
	<path class="st1" d="M186.83,28.73c-0.12,1.48-0.32,2.93-0.61,4.37h-3.42c0.34-1.42,0.58-2.87,0.72-4.36
		c0.14-1.49,0.23-2.99,0.25-4.5h3.35C187.05,25.76,186.95,27.25,186.83,28.73z M198.68,13.67c0.19,0.62,0.43,1.26,0.72,1.91
		c0.29,0.65,0.6,1.22,0.94,1.73h-5.15c-0.12-0.19-0.24-0.41-0.36-0.65c-0.12-0.24-0.22-0.46-0.29-0.65l-0.72,1.22h-8.57
		c-0.34,0-0.61-0.07-0.83-0.22c-0.22-0.14-0.37-0.32-0.47-0.54c-0.19-0.48-0.1-0.97,0.29-1.48l1.19-1.33h-2.16v-2.2h1.37V5.13
		c0-0.62,0.22-1.13,0.65-1.51c0.26-0.26,0.58-0.45,0.95-0.56c0.37-0.11,0.76-0.16,1.17-0.16h12.28v2.3h-9.72
		c-0.29,0-0.43,0.13-0.43,0.4v0.54h9.61v1.62h-9.61v1.04h9.61v1.55h-9.61v1.12h10.94v2.2H198.68z M192.92,23.1v11.34h-4.9V23.1
		h-4.57v-2.95h4.57v-2.05h4.9v2.05h5.22v2.95H192.92z M193.87,14.37c-0.08-0.28-0.15-0.51-0.2-0.7h-2.48l-1.15,1.4h4.1
		C194.04,14.88,193.95,14.64,193.87,14.37z M194.75,33.18c-0.29-1.39-0.5-2.83-0.65-4.32c-0.14-1.49-0.24-3-0.29-4.54h3.24
		c0.1,1.56,0.24,3.07,0.43,4.54c0.19,1.46,0.46,2.9,0.79,4.32H194.75z M209.98,34.47c-0.24-0.38-0.45-0.78-0.63-1.19
		c-0.18-0.41-0.35-0.82-0.52-1.22l-0.97,2.41h-7.31c-0.41,0-0.76-0.09-1.04-0.27s-0.5-0.4-0.65-0.67c-0.31-0.58-0.29-1.21,0.07-1.91
		l2.99-5.44h-4.54c0.86-1.2,1.62-2.44,2.27-3.71c0.65-1.27,1.26-2.58,1.84-3.92h4.93c-0.34,1.01-0.73,2-1.19,2.99
		c-0.46,0.98-0.95,1.93-1.48,2.84h4.57l-3.89,6.95h4.07c-0.17-0.48-0.34-0.98-0.5-1.49c-0.17-0.52-0.31-1.04-0.43-1.57h4.75
		c0.38,1.13,0.8,2.2,1.24,3.2c0.44,1.01,0.98,2,1.6,2.99H209.98z M211.92,4.86c-1.15,0.66-2.35,1.27-3.6,1.82h-8.21
		c1.2-0.58,2.41-1.21,3.64-1.89c1.22-0.68,2.39-1.37,3.49-2.07h8.06C214.2,3.49,213.08,4.2,211.92,4.86z M211.92,15.09
		c-1.08,0.8-2.18,1.55-3.31,2.25h-8.03c1.3-0.72,2.59-1.48,3.89-2.29c1.3-0.8,2.53-1.66,3.71-2.57h6.8
		C214.02,13.41,213,14.28,211.92,15.09z M211.85,9.89c-1.06,0.67-2.16,1.28-3.31,1.84h-7.85c1.22-0.62,2.44-1.27,3.64-1.94
		s2.36-1.39,3.49-2.16h7.13C213.94,8.46,212.91,9.21,211.85,9.89z M210.34,26.27c-0.53-1.22-0.97-2.46-1.33-3.71
		c-0.36-1.25-0.64-2.56-0.83-3.92h4.64c0.26,1.34,0.59,2.66,0.99,3.96c0.4,1.3,0.91,2.52,1.53,3.67H210.34z"/>
	<path class="st1" d="M229.42,21.28c-0.55,0.2-1.07,0.39-1.55,0.56v9.61c0,0.46-0.1,0.88-0.31,1.26c-0.2,0.38-0.47,0.72-0.81,1.01
		c-0.31,0.26-0.66,0.47-1.04,0.61c-0.38,0.14-0.78,0.22-1.19,0.22h-4.28l-0.9-3.31h2.59c0.19,0,0.37-0.09,0.52-0.27
		c0.16-0.18,0.23-0.37,0.23-0.56v-6.88c-0.5,0.17-1.1,0.34-1.78,0.52c-0.68,0.18-1.24,0.33-1.67,0.45v-3.49
		c0.22-0.05,0.48-0.11,0.79-0.2c0.31-0.08,0.63-0.17,0.95-0.27c0.32-0.1,0.64-0.19,0.94-0.29c0.3-0.1,0.56-0.18,0.77-0.25v-7.96
		h-3.42V8.7h3.42V2.76h5.18V8.7h2.88v3.35h-2.88v6.26c0.41-0.12,0.89-0.28,1.46-0.49c0.56-0.2,1.04-0.39,1.42-0.56v3.49
		C230.42,20.9,229.97,21.08,229.42,21.28z M246.66,17.23v17.32h-5.18V17.23h-4.32c-0.02,1.54-0.08,3.05-0.16,4.55
		s-0.22,2.98-0.41,4.45s-0.47,2.89-0.83,4.28c-0.36,1.39-0.84,2.74-1.44,4.03h-5.58c0.65-1.22,1.18-2.51,1.58-3.87
		c0.41-1.36,0.73-2.74,0.95-4.14c0.23-1.4,0.38-2.82,0.47-4.25c0.08-1.43,0.13-2.83,0.13-4.19V8.08c0-1.1,0.3-1.96,0.9-2.56
		c0.34-0.34,0.77-0.59,1.3-0.76c0.53-0.17,1.14-0.28,1.84-0.32c2.4-0.14,4.82-0.37,7.25-0.67c2.44-0.3,4.82-0.68,7.15-1.13v3.42
		c-2.04,0.43-4.06,0.78-6.07,1.04c-2,0.26-4.04,0.49-6.1,0.68c-0.26,0.02-0.49,0.12-0.67,0.29c-0.18,0.17-0.27,0.38-0.27,0.65v5.22
		h13.9v3.28H246.66z"/>
</g>
<g class="st0">
	<path class="st1" d="M59.14,71.54c-1.99-1.58-3.66-3.45-4.99-5.62H44.03c-1.33,2.17-3,4.04-4.99,5.62h-1.72
		c0.48-0.35,0.98-0.74,1.49-1.17c0.51-0.43,1.01-0.89,1.5-1.38s0.94-0.99,1.38-1.51s0.81-1.04,1.14-1.56h-4.99v-0.91h4.32v-9.13
		h-3.77v-0.91h3.77V52.9h1.2v2.08h11.41V52.9h1.2v2.08h3.82v0.91h-3.82v9.13h4.42v0.91h-5.02c0.31,0.52,0.68,1.04,1.12,1.56
		s0.9,1.02,1.39,1.51s1,0.95,1.51,1.38c0.51,0.43,1,0.82,1.47,1.17H59.14z M38.39,75.08v-0.91h10.14v-3.3h-6.21v-0.91h6.21v-2.78
		h1.2v2.78h6.16v0.91h-6.16v3.3h10.09v0.91H38.39z M54.77,55.89H43.36v2.31h11.41V55.89z M54.77,59.07H43.36v2.52h11.41V59.07z
		 M54.77,62.45H43.36v2.57h11.41V62.45z"/>
	<path class="st1" d="M85.24,61.25c-0.49-0.45-0.97-0.94-1.44-1.47c-0.48-0.53-0.94-1.07-1.38-1.61c-0.44-0.55-0.86-1.09-1.26-1.62
		c-0.4-0.54-0.76-1.04-1.09-1.51c-0.19-0.26-0.4-0.46-0.64-0.6s-0.61-0.21-1.13-0.21h-6.19c-0.55,0-0.96,0.09-1.22,0.26
		c-0.26,0.17-0.46,0.36-0.6,0.55c-0.66,1.02-1.43,2.06-2.31,3.11s-1.87,2.08-2.96,3.11h-1.69c0.59-0.52,1.16-1.07,1.72-1.64
		s1.08-1.15,1.59-1.74c0.5-0.59,0.98-1.17,1.42-1.73s0.84-1.11,1.18-1.62c0.26-0.42,0.62-0.73,1.07-0.94
		c0.52-0.24,1.11-0.36,1.77-0.36h6.32c0.61,0,1.12,0.09,1.53,0.26c0.5,0.19,0.89,0.5,1.17,0.94c0.33,0.49,0.71,1.03,1.13,1.62
		s0.89,1.2,1.4,1.81c0.51,0.61,1.04,1.2,1.6,1.79c0.55,0.59,1.13,1.13,1.72,1.61H85.24z M63.85,75.11v-0.99h10.71v-8.11h-9.46v-0.99
		h9.46v-4.63h-6.68V59.4h14.51v0.99h-6.66v4.63h9.57v0.99h-9.57v8.11h10.63v0.99H63.85z M70.35,73.16c-0.8-0.99-1.5-1.96-2.11-2.91
		c-0.61-0.95-1.14-1.96-1.59-3.02h1.25c0.85,1.85,2.14,3.83,3.87,5.93H70.35z M81.99,70.25c-0.61,0.95-1.31,1.92-2.11,2.91h-1.43
		c1.73-2.1,3.02-4.07,3.87-5.93h1.25C83.13,68.29,82.6,69.29,81.99,70.25z"/>
	<path class="st1" d="M101.73,71.62v3.82h-1.17v-3.82H89.82v-0.91h10.74v-2.16h-6.68c-0.88,0-1.5-0.21-1.85-0.62
		c-0.28-0.33-0.42-0.82-0.42-1.48v-3.87c0-0.54,0.15-1,0.44-1.38c0.36-0.5,0.94-0.75,1.74-0.75h14.51c0.81,0,1.41,0.22,1.79,0.65
		c0.29,0.35,0.44,0.82,0.44,1.43v3.9c0,0.4-0.05,0.73-0.14,0.99s-0.24,0.48-0.43,0.65c-0.21,0.19-0.46,0.32-0.75,0.39
		s-0.62,0.1-0.96,0.1h-6.53v2.16h10.71v0.91H101.73z M99.39,58.16c-0.36,0.31-0.85,0.47-1.46,0.47h-5.3c-0.64,0-1.14-0.18-1.48-0.55
		c-0.35-0.31-0.52-0.78-0.52-1.4v-1.46c0-0.57,0.17-1.05,0.52-1.43c0.36-0.36,0.87-0.55,1.51-0.55h5.23c0.61,0,1.1,0.17,1.48,0.49
		c0.38,0.38,0.57,0.88,0.57,1.48v1.46C99.93,57.31,99.75,57.81,99.39,58.16z M98.76,55.11c0-0.28-0.08-0.51-0.25-0.69
		c-0.17-0.18-0.38-0.27-0.64-0.27h-5.23c-0.26,0-0.47,0.09-0.62,0.26c-0.16,0.17-0.23,0.41-0.23,0.7v1.66
		c0,0.29,0.07,0.52,0.22,0.69c0.15,0.17,0.36,0.25,0.64,0.25h5.28c0.24,0,0.44-0.09,0.6-0.26c0.16-0.17,0.23-0.4,0.23-0.68V55.11z
		 M100.56,61.35H93.8c-0.29,0-0.53,0.1-0.71,0.29s-0.27,0.42-0.27,0.68V64h7.75V61.35z M100.56,64.92h-7.75v1.64
		c0,0.73,0.36,1.09,1.09,1.09h6.66V64.92z M109.35,62.37c0-0.31-0.08-0.56-0.25-0.74c-0.17-0.18-0.41-0.27-0.74-0.27h-6.63V64h7.62
		V62.37z M101.73,64.92v2.73h6.53c0.33,0,0.59-0.1,0.79-0.3s0.3-0.46,0.3-0.79v-1.64H101.73z M111.01,58.16
		c-0.36,0.31-0.85,0.47-1.46,0.47h-5.3c-0.64,0-1.14-0.18-1.48-0.55c-0.35-0.31-0.52-0.78-0.52-1.4v-1.46
		c0-0.57,0.17-1.05,0.52-1.43c0.36-0.36,0.87-0.55,1.51-0.55h5.23c0.61,0,1.1,0.17,1.48,0.49c0.38,0.38,0.57,0.88,0.57,1.48v1.46
		C111.56,57.31,111.37,57.81,111.01,58.16z M110.39,55.11c0-0.28-0.08-0.51-0.25-0.69c-0.17-0.18-0.38-0.27-0.64-0.27h-5.23
		c-0.26,0-0.47,0.09-0.62,0.26c-0.16,0.17-0.23,0.41-0.23,0.7v1.66c0,0.29,0.07,0.52,0.22,0.69c0.15,0.17,0.36,0.25,0.64,0.25h5.28
		c0.24,0,0.44-0.09,0.6-0.26c0.16-0.17,0.23-0.4,0.23-0.68V55.11z"/>
	<path class="st1" d="M122.84,55.58c0.21,0.5,0.47,0.98,0.78,1.42c0.31,0.44,0.68,0.9,1.12,1.37h-1.4
		c-0.68-0.83-1.24-1.76-1.69-2.78h-2.13c-0.61,0.97-1.34,1.9-2.21,2.78h-1.46c0.92-0.88,1.69-1.81,2.31-2.77
		c0.62-0.96,1.13-1.87,1.53-2.72h1.27c-0.14,0.29-0.29,0.59-0.44,0.88c-0.16,0.29-0.32,0.59-0.49,0.88h7.1v0.94H122.84z
		 M127.73,72.46v2.99h-1.17v-2.99H115.9v-0.91h10.66v-2.11h-9.52v-0.91h9.52v-2.11h-9.02v-0.88h9.02v-2.31h-10.71v-0.91h10.71v-2.05
		h-9.02v-0.91h9.02v-1.12h1.17v1.12h6.6c0.64,0,1.15,0.17,1.53,0.52c0.38,0.38,0.57,0.88,0.57,1.48v0.96h1.98v0.91h-1.98v1.17
		c0,0.62-0.18,1.11-0.54,1.46c-0.38,0.38-0.92,0.57-1.61,0.57h-6.55v2.11h9.49v0.91h-9.49v2.11h10.74v0.91H127.73z M133.24,55.56
		c0.24,0.45,0.51,0.88,0.81,1.3c0.29,0.42,0.69,0.88,1.2,1.4h-1.4c-0.42-0.5-0.76-0.95-1.03-1.35c-0.27-0.4-0.52-0.85-0.74-1.35
		h-2.03c-0.23,0.35-0.46,0.69-0.71,1.03s-0.52,0.69-0.82,1.05h-1.4c0.78-0.9,1.4-1.74,1.87-2.52c0.47-0.78,0.82-1.53,1.07-2.24h1.25
		c-0.1,0.29-0.22,0.58-0.35,0.87c-0.13,0.29-0.27,0.58-0.4,0.87h7.75v0.94H133.24z M134.98,60.59c-0.17-0.22-0.46-0.32-0.86-0.32
		h-6.4v2.05h7.51v-0.91C135.24,61.08,135.16,60.8,134.98,60.59z M135.24,63.23h-7.51v2.31h6.45c0.29,0,0.55-0.09,0.75-0.29
		c0.21-0.19,0.31-0.47,0.31-0.83V63.23z"/>
	<path class="st1" d="M163.04,69.36c-0.38,0.42-0.95,0.62-1.72,0.62h-7.62v5.46h-1.2v-5.46h-7.44c-0.42,0-0.78-0.07-1.08-0.2
		c-0.3-0.13-0.56-0.32-0.77-0.56c-0.38-0.45-0.57-1.09-0.57-1.92V58.6c0-0.4,0.05-0.76,0.14-1.09c0.1-0.33,0.25-0.61,0.46-0.86
		c0.42-0.5,1.02-0.75,1.82-0.75h7.44V52.9h1.2v2.99h7.59c0.75,0,1.33,0.23,1.74,0.68c0.45,0.5,0.68,1.18,0.68,2.03v8.68
		C163.71,68.18,163.49,68.88,163.04,69.36z M152.51,56.91h-7.44c-0.4,0-0.7,0.15-0.91,0.46c-0.21,0.3-0.31,0.63-0.31,0.97v3.98h8.66
		V56.91z M152.51,63.33h-8.66v4.21c0,0.38,0.11,0.71,0.33,1s0.52,0.43,0.9,0.43h7.44V63.33z M162.17,57.34
		c-0.23-0.29-0.53-0.43-0.9-0.43h-7.57v5.41h8.81v-3.98C162.52,57.96,162.4,57.62,162.17,57.34z M162.52,63.33h-8.81v5.64h7.59
		c0.38,0,0.68-0.14,0.9-0.43s0.32-0.62,0.32-1V63.33z"/>
	<path class="st1" d="M170.78,71.78c-0.23,0.47-0.46,0.91-0.72,1.31c-0.25,0.41-0.52,0.8-0.8,1.17c-0.29,0.37-0.6,0.76-0.95,1.16
		h-1.43c0.42-0.49,0.79-0.93,1.13-1.34c0.34-0.41,0.64-0.81,0.91-1.21c0.27-0.4,0.51-0.81,0.72-1.25c0.21-0.43,0.4-0.92,0.57-1.46
		h1.25C171.23,70.77,171.01,71.31,170.78,71.78z M174.5,68.63c-0.38,0.31-0.94,0.47-1.66,0.47h-2.24c-0.76,0-1.34-0.22-1.74-0.65
		c-0.42-0.42-0.62-1.01-0.62-1.79V55.76c0-0.68,0.16-1.25,0.49-1.72c0.19-0.24,0.43-0.44,0.71-0.58c0.29-0.15,0.63-0.22,1.03-0.22
		h2.44c0.45,0,0.83,0.07,1.13,0.21s0.55,0.33,0.74,0.57c0.33,0.47,0.49,1.05,0.49,1.74v10.89C175.28,67.56,175.02,68.22,174.5,68.63
		z M174.14,55.37c0-0.35-0.1-0.63-0.31-0.86s-0.49-0.34-0.83-0.34h-2.57c-0.35,0-0.61,0.12-0.78,0.35
		c-0.17,0.23-0.26,0.52-0.26,0.84v2.7h4.76V55.37z M174.14,59.04h-4.76v3.93h4.76V59.04z M174.14,63.9h-4.76V67
		c0,0.35,0.12,0.63,0.35,0.84c0.23,0.22,0.52,0.33,0.87,0.33h2.26c0.35,0,0.65-0.1,0.9-0.3c0.25-0.2,0.38-0.49,0.38-0.87V63.9z
		 M175.49,75.42c-0.55-0.73-1.07-1.51-1.55-2.35c-0.48-0.84-0.92-1.78-1.34-2.82h1.2c0.36,0.99,0.81,1.88,1.33,2.69
		c0.52,0.81,1.12,1.63,1.79,2.48H175.49z M183.73,61.74v1.92h2.91c0.74,0,1.32,0.24,1.71,0.73c0.33,0.43,0.49,0.98,0.49,1.64v4.11
		h1.56v0.83h-1.56v2.13c0,0.71-0.19,1.28-0.57,1.72c-0.4,0.43-0.95,0.65-1.64,0.65h-2.31l-0.49-0.83h2.76c0.4,0,0.68-0.13,0.86-0.38
		c0.17-0.25,0.26-0.55,0.26-0.9v-2.39h-9.15v4.5h-1.14v-4.5h-1.22v-0.83h1.22v-4.11c0-0.71,0.2-1.28,0.6-1.72
		c0.19-0.19,0.42-0.35,0.68-0.47c0.26-0.12,0.56-0.18,0.91-0.18h3.02v-1.92h-6.47v-0.83h3.64v-2.18h-2.76V57.9h2.76v-2.08h-3.28
		v-0.83h3.28v-2.13h1.14v2.13h4.6v-2.13h1.12v2.13h3.46v0.83h-3.46v2.08h2.76v0.83h-2.76v2.18h3.79v0.83H183.73z M182.61,64.5h-2.91
		c-0.4,0-0.69,0.12-0.87,0.36c-0.18,0.24-0.27,0.55-0.27,0.94v1.12h4.05V64.5z M182.61,67.75h-4.05v2.39h4.05V67.75z M185.53,55.82
		h-4.6v2.08h4.6V55.82z M185.53,58.73h-4.6v2.18h4.6V58.73z M187.71,65.8c0-0.4-0.09-0.71-0.29-0.95c-0.19-0.23-0.48-0.35-0.86-0.35
		h-2.83v2.42h3.98V65.8z M187.71,67.75h-3.98v2.39h3.98V67.75z"/>
	<path class="st1" d="M206.01,70.25v3.17c0,0.68-0.19,1.2-0.57,1.56c-0.36,0.33-0.86,0.49-1.48,0.49h-2.7l-0.65-0.88h2.99
		c0.38,0,0.69-0.1,0.91-0.31s0.34-0.51,0.34-0.91v-3.12H194v-0.91h10.84v-1.07c0.54-0.12,1.13-0.28,1.78-0.48s1.29-0.42,1.94-0.65
		c0.64-0.23,1.25-0.48,1.82-0.74c0.57-0.26,1.06-0.51,1.46-0.75h-15.68v-0.88h16.25c0.29,0,0.51,0.07,0.64,0.22s0.19,0.32,0.17,0.51
		c-0.05,0.33-0.23,0.57-0.52,0.73c-0.43,0.26-0.93,0.52-1.48,0.78s-1.12,0.51-1.7,0.74c-0.58,0.23-1.17,0.45-1.77,0.64
		c-0.6,0.19-1.17,0.36-1.73,0.49v0.47h10.76v0.91H206.01z M194.05,56.18v-0.91h10.76c-0.29-0.29-0.59-0.67-0.88-1.12
		c-0.29-0.45-0.56-0.88-0.81-1.27h1.4c0.19,0.35,0.47,0.75,0.83,1.21c0.37,0.46,0.7,0.85,1.01,1.18h9.8v0.91H194.05z M213.29,62.52
		c-0.19,0.19-0.44,0.32-0.75,0.39s-0.7,0.1-1.17,0.1h-12.35c-0.95,0-1.61-0.21-1.98-0.62c-0.31-0.35-0.47-0.87-0.47-1.56V60
		c0-0.69,0.2-1.2,0.6-1.53c0.4-0.35,1.01-0.52,1.85-0.52h12.35c0.85,0,1.47,0.17,1.87,0.52c0.38,0.35,0.57,0.86,0.57,1.53v0.83
		C213.81,61.63,213.64,62.19,213.29,62.52z M212.62,59.9c0-0.29-0.09-0.54-0.27-0.74c-0.18-0.2-0.43-0.3-0.74-0.3h-12.71
		c-0.38,0-0.66,0.1-0.85,0.3s-0.27,0.45-0.27,0.74v1.25c0,0.29,0.08,0.53,0.25,0.7c0.16,0.17,0.42,0.26,0.77,0.26h12.82
		c0.31,0,0.56-0.08,0.74-0.25c0.18-0.17,0.27-0.4,0.27-0.71V59.9z"/>
</g>
<g class="st0">
	<path class="st1" d="M30.67,99.5v4.94c0,0.35-0.06,0.66-0.2,0.94c-0.13,0.28-0.31,0.51-0.53,0.7c-0.24,0.21-0.52,0.36-0.82,0.47
		c-0.3,0.1-0.61,0.16-0.92,0.16h-4.52l-0.81-2.42h3.09c0.19,0,0.37-0.09,0.53-0.26c0.16-0.17,0.25-0.35,0.25-0.52v-4h-9.44v-2.42
		h9.44v-3.41h-8.22v-2.52h8.22v-3.74c-0.66,0.03-1.37,0.07-2.13,0.1c-0.76,0.04-1.53,0.07-2.3,0.09c-0.77,0.03-1.53,0.05-2.28,0.07
		s-1.43,0.04-2.05,0.05v-2.5c3.47-0.03,7.02-0.16,10.67-0.36c3.65-0.21,7.24-0.56,10.78-1.07v2.39c-1.14,0.17-2.47,0.35-3.99,0.52
		c-1.52,0.17-3.11,0.33-4.77,0.47v3.98h8.16v2.52h-8.16v3.41H40v2.42H30.67z"/>
	<path class="st1" d="M45.93,103.81c-0.1,1.08-0.25,2.1-0.44,3.07h-2.42c0.24-0.97,0.42-1.99,0.53-3.05
		c0.11-1.07,0.19-2.11,0.25-3.13h2.26C46.1,101.7,46.04,102.74,45.93,103.81z M60.7,86.91v0.99h4.89v1.77H52.12v-0.68l-4.81,8.42
		h1.77c-0.03-0.36-0.07-0.77-0.1-1.21c-0.03-0.44-0.07-0.83-0.1-1.16h2.31c0.05,0.83,0.15,1.63,0.29,2.39
		c0.14,0.76,0.29,1.53,0.47,2.31h-2.37c-0.09-0.29-0.17-0.59-0.23-0.9c-0.07-0.3-0.13-0.6-0.18-0.9l-0.57,1.79h-3.8
		c-0.28,0-0.52-0.06-0.72-0.18s-0.36-0.28-0.48-0.47c-0.29-0.45-0.3-0.94-0.03-1.46l2.55-4.6h-1.2c-0.33,0-0.63-0.07-0.91-0.22
		c-0.28-0.15-0.5-0.34-0.68-0.58c-0.14-0.23-0.22-0.47-0.25-0.74s0.03-0.55,0.17-0.84l3.46-6.86h3.64l-3.77,6.94h0.86l1.09-2h3.59
		V87.9h4.94v-0.99h-5.43v-1.9h5.43v-1.22h3.64v1.22h5.38v1.9H60.7z M47.02,106.88c-0.09-1.01-0.17-2.04-0.23-3.11
		c-0.07-1.07-0.09-2.09-0.05-3.08h2.05c0,0.99,0.03,2.02,0.1,3.09c0.07,1.07,0.17,2.11,0.31,3.09H47.02z M49.91,106.02
		c-0.14-0.85-0.26-1.72-0.35-2.63c-0.1-0.9-0.17-1.8-0.22-2.7h2.05c0.05,0.88,0.13,1.78,0.22,2.68s0.22,1.79,0.38,2.65H49.91z
		 M57.14,105.72c-0.38,0.42-0.79,0.81-1.22,1.16h-4.34c0.47-0.38,0.92-0.76,1.35-1.14c0.43-0.38,0.85-0.81,1.25-1.27h4.03
		C57.87,104.88,57.52,105.3,57.14,105.72z M65.46,94.53c-0.24,0.28-0.6,0.42-1.07,0.42H53.45c-0.43,0-0.81-0.16-1.12-0.47
		c-0.28-0.28-0.42-0.63-0.42-1.07v-1.56c0-0.42,0.13-0.75,0.39-1.01c0.16-0.16,0.34-0.27,0.55-0.34s0.42-0.1,0.65-0.1h10.74
		c0.52,0,0.94,0.2,1.25,0.6c0.23,0.28,0.34,0.61,0.34,0.99v1.51C65.82,93.94,65.7,94.29,65.46,94.53z M64.78,103.45
		c-0.35,0.29-0.77,0.44-1.27,0.44h-9.49c-0.24,0-0.47-0.06-0.68-0.17c-0.21-0.11-0.38-0.26-0.52-0.46
		c-0.26-0.31-0.39-0.68-0.39-1.09v-4.97c0-0.4,0.14-0.74,0.42-1.01c0.4-0.36,0.86-0.55,1.38-0.55h9.23c0.29,0,0.56,0.06,0.79,0.18
		c0.23,0.12,0.43,0.28,0.58,0.47c0.29,0.35,0.44,0.76,0.44,1.25v4.76C65.28,102.79,65.11,103.17,64.78,103.45z M55.94,92.08h-0.75
		c-0.23,0-0.34,0.1-0.34,0.31v0.49c0,0.1,0.04,0.19,0.12,0.26c0.08,0.07,0.16,0.1,0.25,0.1h0.73V92.08z M61.66,97.54
		c0-0.09-0.04-0.16-0.13-0.22c-0.09-0.06-0.17-0.09-0.26-0.09h-4.94c-0.23,0-0.34,0.1-0.34,0.31v0.42h5.67V97.54z M61.66,99.31
		h-5.67v0.78h5.67V99.31z M61.66,101.45h-5.67v0.47c0,0.09,0.03,0.17,0.1,0.23c0.07,0.07,0.14,0.1,0.21,0.1h5.04
		c0.1,0,0.18-0.03,0.23-0.1c0.05-0.07,0.08-0.15,0.08-0.23V101.45z M59.43,92.08h-1.04v1.17h1.04V92.08z M61.92,106.88
		c-0.4-0.35-0.8-0.73-1.2-1.14c-0.4-0.42-0.75-0.84-1.07-1.27h4.19c0.4,0.45,0.81,0.88,1.24,1.29c0.42,0.41,0.86,0.78,1.31,1.13
		H61.92z M62.94,92.4c0-0.09-0.04-0.16-0.12-0.22s-0.16-0.09-0.25-0.09H61.9v1.17h0.75c0.1,0,0.18-0.04,0.22-0.12
		s0.07-0.16,0.07-0.25V92.4z"/>
	<path class="st1" d="M86.39,106.83c-0.57-0.31-1.11-0.67-1.62-1.07s-1.04-0.85-1.6-1.35h-4.81c-0.56,0.47-1.14,0.9-1.74,1.3
		c-0.61,0.4-1.22,0.77-1.85,1.12h-6.11c0.71-0.36,1.43-0.76,2.15-1.18c0.72-0.42,1.4-0.87,2.04-1.34c-0.29,0-0.56-0.05-0.81-0.16
		c-0.24-0.1-0.46-0.24-0.65-0.42c-0.21-0.21-0.37-0.45-0.49-0.74s-0.18-0.59-0.18-0.92v-6.16h-2.24c0.87-0.36,1.7-0.77,2.5-1.21
		c0.8-0.44,1.59-0.94,2.37-1.5h-1.66c-0.71,0-1.26-0.22-1.64-0.65c-0.45-0.47-0.56-1.11-0.34-1.92l0.26-1.09
		c0.1-0.47,0.32-0.81,0.65-1.04c0.29-0.17,0.66-0.26,1.09-0.26h4.19v-1.07h-6.55V85.2h6.55v-1.33h3.77v1.33h2.24v-1.33h3.69v1.33
		h3.59c0.61,0,1.13,0.21,1.59,0.62c0.16,0.16,0.29,0.34,0.39,0.55s0.16,0.44,0.16,0.7v1.2c0,0.45-0.16,0.86-0.47,1.22
		c-0.36,0.4-0.8,0.6-1.3,0.6h-3.95v1.14h4.52c0.54,0,1.01,0.18,1.43,0.55c0.14,0.14,0.26,0.3,0.35,0.48s0.14,0.39,0.14,0.61v1.04
		c0,0.54-0.19,0.98-0.57,1.33c-0.19,0.19-0.42,0.33-0.68,0.4c-0.26,0.08-0.54,0.09-0.83,0.04c0.17,0.19,0.31,0.41,0.42,0.65
		c0.1,0.24,0.16,0.51,0.16,0.81v5.1c0,0.61-0.18,1.11-0.55,1.51c-0.38,0.38-0.88,0.62-1.48,0.7c0.61,0.47,1.22,0.9,1.83,1.29
		c0.62,0.39,1.27,0.76,1.96,1.11H86.39z M74.04,90.08c-0.28,0-0.44,0.1-0.49,0.29l-0.08,0.47c-0.04,0.1,0,0.2,0.09,0.27
		c0.1,0.08,0.2,0.12,0.3,0.12h1.33c0.09-0.16,0.17-0.34,0.26-0.55c0.09-0.21,0.15-0.41,0.18-0.6H74.04z M86.75,97.49
		c0-0.09-0.05-0.18-0.14-0.29c-0.1-0.1-0.19-0.16-0.27-0.16H74.95c-0.1,0-0.21,0.04-0.31,0.13c-0.1,0.09-0.16,0.19-0.16,0.31v0.36
		h12.27V97.49z M86.75,99.34H74.48v0.81h12.27V99.34z M86.75,101.6H74.48v0.34c0,0.12,0.06,0.23,0.17,0.33
		c0.11,0.1,0.23,0.14,0.35,0.14h11.23c0.12,0,0.24-0.04,0.35-0.13c0.11-0.09,0.17-0.2,0.17-0.34V101.6z M81.89,93.2h-3.67
		c-0.62,0.75-1.34,1.38-2.16,1.9h5.82V93.2z M81.89,90.08H79.5c-0.05,0.36-0.15,0.75-0.29,1.14h2.68V90.08z M81.89,87.17h-2.24v1.07
		h2.24V87.17z M87.58,87.48c0-0.09-0.04-0.16-0.13-0.22c-0.09-0.06-0.17-0.09-0.26-0.09h-1.61v1.07h1.64c0.09,0,0.17-0.04,0.25-0.13
		c0.08-0.09,0.12-0.17,0.12-0.26V87.48z M88.36,93.59c0-0.09-0.02-0.17-0.06-0.26c-0.04-0.09-0.1-0.13-0.17-0.13h-2.55v1.9h1.59
		l-0.39-1.17h1.2C88.23,93.93,88.36,93.82,88.36,93.59z"/>
	<path class="st1" d="M107.06,95.18v7.12c0.17,0.02,0.39,0.02,0.64,0.01c0.25-0.01,0.45-0.03,0.58-0.06v2.21
		c-0.19,0.04-0.39,0.06-0.61,0.08c-0.22,0.02-0.42,0.04-0.61,0.05v2.24h-3.59v-1.98c-0.49,0.04-1.09,0.08-1.81,0.14
		c-0.72,0.06-1.46,0.12-2.22,0.18c-0.76,0.06-1.51,0.12-2.24,0.18c-0.73,0.06-1.35,0.11-1.87,0.14v-2.21c0.17,0,0.4-0.01,0.68-0.04
		c0.28-0.03,0.5-0.06,0.68-0.09v-7.98h-1.35v-2.16h22.8v2.16H107.06z M116.18,91.41c-0.38,0.42-0.87,0.62-1.46,0.62H98.84
		c-0.69,0-1.26-0.23-1.69-0.7c-0.16-0.17-0.28-0.37-0.38-0.6c-0.1-0.22-0.14-0.48-0.14-0.75v-3.77c0-0.59,0.21-1.09,0.62-1.51
		c0.4-0.4,0.87-0.6,1.4-0.6h15.76c0.71,0,1.26,0.2,1.66,0.6c0.45,0.42,0.68,1,0.68,1.77v3.43
		C116.76,90.52,116.56,91.03,116.18,91.41z M103.47,95.18h-3.12v1.12h3.12V95.18z M103.47,98.27h-3.12v1.17h3.12V98.27z
		 M103.47,101.34h-3.12v1.51c0.21-0.02,0.46-0.03,0.74-0.05c0.29-0.02,0.58-0.04,0.87-0.07c0.29-0.03,0.58-0.05,0.84-0.08
		c0.27-0.03,0.49-0.05,0.66-0.07V101.34z M112.93,86.57c0-0.09-0.04-0.17-0.12-0.26c-0.08-0.09-0.18-0.13-0.3-0.13h-11.54
		c-0.28,0-0.42,0.13-0.42,0.39v0.6h12.38V86.57z M112.93,88.99h-12.38v0.57c0,0.1,0.04,0.2,0.12,0.29c0.08,0.09,0.17,0.13,0.27,0.13
		h11.6c0.1,0,0.19-0.04,0.27-0.12c0.08-0.08,0.12-0.17,0.12-0.27V88.99z M114.44,106.72c-0.09-0.07-0.2-0.16-0.34-0.27
		c-0.14-0.11-0.28-0.23-0.43-0.36c-0.15-0.13-0.3-0.26-0.46-0.39c-0.16-0.13-0.29-0.25-0.39-0.35c-0.19,0.19-0.43,0.42-0.7,0.69
		c-0.28,0.27-0.53,0.5-0.75,0.69h-4.19c0.59-0.57,1.17-1.16,1.75-1.77c0.58-0.61,1.13-1.21,1.65-1.79c-0.5-0.54-0.99-1.11-1.46-1.7
		c-0.47-0.6-0.88-1.19-1.22-1.78h3.93c0.09,0.14,0.21,0.31,0.36,0.52c0.16,0.21,0.29,0.36,0.39,0.47c0.21-0.24,0.41-0.51,0.61-0.79
		c0.2-0.29,0.37-0.58,0.51-0.87c0.03-0.09,0.03-0.17-0.03-0.26c-0.05-0.09-0.15-0.13-0.29-0.13h-5.56V96.4h7.83
		c0.43,0,0.8,0.08,1.09,0.25c0.29,0.17,0.51,0.38,0.65,0.64c0.16,0.29,0.22,0.63,0.2,1c-0.03,0.37-0.14,0.75-0.35,1.13
		c-0.36,0.62-0.75,1.24-1.17,1.85c-0.42,0.61-0.85,1.21-1.3,1.82c0.68,0.66,1.34,1.28,2,1.87s1.33,1.18,2.03,1.77H114.44z"/>
	<path class="st1" d="M127.53,88.46c-0.51,1.52-1.1,3.01-1.76,4.48h0.83v13.88h-3.82V93.98h-1.82c0.8-1.63,1.5-3.29,2.09-4.98
		c0.6-1.69,1.15-3.41,1.65-5.16h4.26C128.53,85.4,128.04,86.94,127.53,88.46z M143.56,106.85l-3.02-0.03
		c-0.64,0-1.16-0.16-1.56-0.47c-0.42-0.36-0.69-0.93-0.83-1.69c-0.1-0.62-0.21-1.31-0.33-2.05c-0.11-0.75-0.22-1.5-0.33-2.28
		c-0.1-0.77-0.2-1.53-0.3-2.28c-0.1-0.75-0.18-1.42-0.25-2.03h-4.6v7.7c0,0.19,0.07,0.34,0.21,0.46c0.14,0.11,0.3,0.17,0.49,0.17
		h1.09c-0.12-0.59-0.23-1.19-0.33-1.79c-0.1-0.61-0.18-1.21-0.25-1.82h2.94c0.17,1.04,0.36,2.07,0.57,3.08
		c0.21,1.01,0.46,2.01,0.75,3h-3.07c-0.09-0.29-0.17-0.58-0.23-0.86s-0.14-0.55-0.21-0.83l-0.62,1.66h-3.04
		c-0.57,0-1.07-0.18-1.48-0.55c-0.47-0.43-0.7-1.01-0.7-1.74V87.43c0-0.57,0.16-1.04,0.49-1.4c0.42-0.45,1-0.7,1.74-0.75
		c2.17-0.16,4.31-0.37,6.42-0.65c2.12-0.28,4.24-0.59,6.37-0.94v2.47c-0.59,0.12-1.17,0.22-1.75,0.31s-1.17,0.17-1.78,0.26
		c0.05,1.11,0.13,2.25,0.22,3.41c0.09,1.16,0.19,2.31,0.3,3.43h3.48v2.47h-3.2c0.14,1.32,0.3,2.63,0.49,3.95
		c0.19,1.32,0.42,2.62,0.7,3.9c0.03,0.14,0.1,0.25,0.19,0.33s0.21,0.12,0.35,0.12h1.74L143.56,106.85z M136.2,87.27
		c-0.23,0.04-0.49,0.07-0.79,0.12c-0.3,0.04-0.62,0.08-0.94,0.12c-0.32,0.04-0.63,0.07-0.92,0.1c-0.29,0.03-0.55,0.06-0.78,0.08
		c-0.1,0-0.2,0.05-0.29,0.14c-0.09,0.1-0.13,0.19-0.13,0.27v5.46h4.32C136.5,91.49,136.34,89.39,136.2,87.27z"/>
	<path class="st1" d="M151.41,105.42v-15c-0.26,0.21-0.55,0.42-0.86,0.62c-0.31,0.21-0.63,0.4-0.96,0.58s-0.65,0.34-0.97,0.48
		c-0.32,0.14-0.61,0.25-0.87,0.34v-2.57c0.36-0.16,0.75-0.36,1.14-0.61c0.4-0.25,0.79-0.53,1.17-0.83c0.38-0.3,0.75-0.63,1.09-0.97
		s0.63-0.69,0.86-1.04h3.64v19.01H151.41z"/>
	<path class="st1" d="M169.38,97.3c-0.4,0.15-0.77,0.28-1.12,0.4v6.94c0,0.33-0.07,0.63-0.22,0.91c-0.15,0.28-0.34,0.52-0.58,0.73
		c-0.23,0.19-0.48,0.34-0.75,0.44c-0.28,0.1-0.56,0.16-0.86,0.16h-3.09l-0.65-2.39h1.87c0.14,0,0.26-0.07,0.38-0.2
		c0.11-0.13,0.17-0.26,0.17-0.4v-4.97c-0.36,0.12-0.79,0.25-1.29,0.38c-0.49,0.13-0.9,0.24-1.21,0.33V97.1
		c0.16-0.03,0.35-0.08,0.57-0.14s0.46-0.13,0.69-0.2c0.23-0.07,0.46-0.14,0.68-0.21s0.4-0.13,0.56-0.18v-5.75h-2.47v-2.42h2.47
		v-4.29h3.74v4.29h2.08v2.42h-2.08v4.52c0.29-0.09,0.65-0.2,1.05-0.35c0.41-0.15,0.75-0.28,1.03-0.4v2.52
		C170.1,97.02,169.78,97.15,169.38,97.3z M181.83,94.37v12.51h-3.74V94.37h-3.12c-0.02,1.11-0.06,2.21-0.12,3.29
		s-0.16,2.15-0.3,3.21s-0.34,2.09-0.6,3.09c-0.26,1.01-0.61,1.98-1.04,2.91h-4.03c0.47-0.88,0.85-1.82,1.14-2.79
		c0.29-0.98,0.52-1.98,0.69-2.99s0.28-2.04,0.34-3.07c0.06-1.03,0.09-2.04,0.09-3.03v-7.23c0-0.8,0.22-1.41,0.65-1.85
		c0.24-0.24,0.55-0.42,0.94-0.55c0.38-0.12,0.82-0.2,1.33-0.23c1.73-0.1,3.48-0.26,5.24-0.48c1.76-0.22,3.48-0.49,5.16-0.82v2.47
		c-1.47,0.31-2.93,0.56-4.38,0.75c-1.45,0.19-2.92,0.36-4.41,0.49c-0.19,0.02-0.35,0.09-0.48,0.21c-0.13,0.12-0.19,0.28-0.19,0.47
		v3.77h10.04v2.37H181.83z"/>
</g>
<g class="st0">
	<path class="st1" d="M192.47,87.9c-0.47,1.14-1.01,2.31-1.64,3.48h0.7v15.31h-1.2V92.24c-0.23,0.38-0.46,0.76-0.7,1.14
		c-0.24,0.38-0.5,0.77-0.78,1.17h-1.22c0.66-0.92,1.24-1.81,1.73-2.67c0.49-0.86,0.94-1.71,1.33-2.56c0.39-0.85,0.74-1.7,1.05-2.56
		c0.31-0.86,0.61-1.75,0.88-2.67h1.17C193.38,85.49,192.94,86.76,192.47,87.9z M208.33,106.67c-1.14-0.29-2.22-0.62-3.24-0.96
		c-1.01-0.35-2.07-0.76-3.16-1.25c-1.04,0.45-2.12,0.85-3.24,1.2c-1.12,0.35-2.31,0.68-3.58,1.01h-2.63
		c1.73-0.47,3.27-0.92,4.62-1.35c1.34-0.43,2.59-0.88,3.73-1.33c-0.66-0.31-1.34-0.65-2.04-1c-0.7-0.35-1.44-0.75-2.22-1.18
		c-0.31,0.28-0.62,0.54-0.91,0.78c-0.29,0.24-0.59,0.46-0.88,0.65h-1.61c1.16-0.78,2.13-1.55,2.91-2.31s1.47-1.53,2.08-2.31h1.4
		c-0.31,0.42-0.65,0.83-1.01,1.25h8.58c0.38,0,0.63,0.17,0.75,0.49c0.04,0.14,0.03,0.29-0.01,0.46c-0.04,0.17-0.14,0.31-0.3,0.43
		c-0.73,0.55-1.46,1.05-2.21,1.5c-0.75,0.44-1.52,0.85-2.31,1.24c1.18,0.47,2.45,0.91,3.81,1.34c1.36,0.42,2.92,0.88,4.69,1.37
		H208.33z M196.42,97.4c-0.54,0.58-1.14,1.15-1.79,1.7h-1.53c0.76-0.61,1.44-1.22,2.04-1.85s1.1-1.27,1.5-1.92h1.35
		C197.48,96.13,196.96,96.82,196.42,97.4z M209.58,96.61v-1.33c0-0.28-0.08-0.5-0.23-0.68c-0.16-0.17-0.36-0.26-0.6-0.26H195.2
		c-0.24,0-0.43,0.09-0.56,0.26c-0.13,0.17-0.19,0.4-0.19,0.68v1.33h-1.2v-1.4c0-0.54,0.15-0.95,0.44-1.25
		c0.31-0.31,0.77-0.47,1.38-0.47h0.57v-4.86c0-0.61,0.16-1.06,0.47-1.35c0.35-0.38,0.89-0.57,1.64-0.57h3.15
		c0.1-0.22,0.21-0.46,0.31-0.69c0.1-0.23,0.2-0.46,0.29-0.69h-7.38v-0.86h16.12v0.86h-7.62c-0.09,0.24-0.18,0.48-0.29,0.71
		c-0.1,0.23-0.2,0.46-0.29,0.66h4.11c0.73,0,1.27,0.16,1.64,0.47c0.38,0.33,0.57,0.81,0.57,1.46v4.86h0.52
		c0.62,0,1.08,0.14,1.38,0.42c0.35,0.29,0.52,0.73,0.52,1.3v1.4H209.58z M206.53,101c0.09-0.05,0.11-0.11,0.08-0.18
		c-0.04-0.07-0.1-0.1-0.18-0.1h-8.61c-0.19,0.21-0.38,0.39-0.57,0.53c-0.19,0.15-0.39,0.32-0.6,0.51h1.77
		c0.61,0.35,1.2,0.66,1.77,0.95c0.57,0.29,1.15,0.56,1.74,0.82c0.85-0.38,1.64-0.77,2.38-1.16
		C205.05,101.98,205.79,101.52,206.53,101z M207.21,88.63c0-0.71-0.36-1.07-1.07-1.07h-8.4c-0.66,0-0.99,0.36-0.99,1.07v0.34h10.45
		V88.63z M207.21,89.82h-10.45v1.4h10.45V89.82z M207.21,92.09h-10.45v1.4h10.45V92.09z M206.4,98.51h-5.67
		c-0.66,0-1.17-0.18-1.53-0.55c-0.28-0.29-0.42-0.69-0.42-1.2v-1.64h1.12v1.61c0,0.29,0.09,0.52,0.27,0.68
		c0.18,0.16,0.4,0.23,0.66,0.23h6.01L206.4,98.51z M203.28,97c-0.26-0.33-0.51-0.66-0.74-0.99s-0.45-0.66-0.64-0.99h1.25
		c0.19,0.29,0.4,0.61,0.64,0.94c0.23,0.33,0.52,0.68,0.84,1.04H203.28z M209.39,99.08c-0.33-0.29-0.63-0.58-0.91-0.87
		c-0.28-0.29-0.54-0.58-0.78-0.87c-0.24-0.29-0.49-0.6-0.73-0.92c-0.24-0.32-0.5-0.67-0.78-1.05h1.27c0.92,1.32,2.04,2.56,3.35,3.72
		H209.39z"/>
	<path class="st1" d="M217.47,103.54c-0.53,0.88-1.21,1.7-2.04,2.48h-1.53c0.88-0.76,1.63-1.59,2.25-2.5s1.12-1.84,1.52-2.81h1.27
		C218.49,101.72,218,102.66,217.47,103.54z M235.42,100.04c-0.24-0.24-0.47-0.49-0.69-0.74s-0.43-0.52-0.64-0.79
		c-1.35,0.12-2.9,0.24-4.65,0.36c-1.75,0.12-3.54,0.23-5.36,0.31s-3.59,0.16-5.32,0.22c-1.72,0.06-3.23,0.1-4.51,0.12v-0.91
		c0.64,0,1.37-0.01,2.18-0.03c0.82-0.02,1.68-0.04,2.59-0.07c0.91-0.03,1.86-0.06,2.85-0.09s1.98-0.08,2.96-0.13v-2.5h-6.53
		c-0.87,0-1.49-0.22-1.87-0.65c-0.33-0.38-0.49-0.91-0.49-1.59v-2.5c0-0.36,0.05-0.68,0.14-0.94c0.09-0.26,0.23-0.49,0.4-0.68
		c0.42-0.42,1.05-0.62,1.9-0.62h6.45v-2.05h-9.93V85.9h9.93V84.1h1.2v1.79h10.09v0.88h-10.09v2.05h6.47c0.81,0,1.42,0.16,1.82,0.49
		c0.42,0.33,0.62,0.88,0.62,1.66v2.55c0,0.69-0.17,1.23-0.52,1.61c-0.38,0.43-0.99,0.65-1.82,0.65h-6.58v2.44
		c1.4-0.09,2.75-0.17,4.03-0.25c1.28-0.08,2.43-0.17,3.43-0.27c-0.26-0.36-0.51-0.76-0.75-1.2h1.25c0.33,0.54,0.73,1.1,1.2,1.69
		c0.47,0.59,1.04,1.2,1.72,1.82H235.42z M224.84,89.69h-6.55c-0.35,0-0.62,0.1-0.83,0.3c-0.21,0.2-0.31,0.45-0.31,0.74v1.12h7.7
		V89.69z M224.84,92.74h-7.7v1.12c0,0.29,0.11,0.55,0.33,0.75s0.48,0.31,0.79,0.31h6.58V92.74z M231.31,106.62h-8.61
		c-0.33,0-0.63-0.06-0.9-0.18s-0.5-0.28-0.69-0.47c-0.16-0.19-0.28-0.4-0.38-0.62c-0.1-0.23-0.14-0.48-0.14-0.75v-4.55h1.17v4.58
		c0,0.28,0.1,0.51,0.31,0.7s0.46,0.29,0.75,0.29h8.97L231.31,106.62z M227.85,103.97c-0.42-0.54-0.84-1.17-1.27-1.91
		c-0.43-0.74-0.81-1.47-1.12-2.2h1.25c0.29,0.69,0.65,1.37,1.05,2.03s0.91,1.35,1.5,2.08H227.85z M233.5,89.98
		c-0.19-0.19-0.47-0.29-0.83-0.29h-6.63v2.16h7.75v-1.09C233.78,90.43,233.69,90.17,233.5,89.98z M233.78,92.74h-7.75v2.18h6.71
		c0.29,0,0.54-0.11,0.74-0.34c0.2-0.22,0.3-0.46,0.3-0.7V92.74z M235.63,106.07c-1.28-1.63-2.28-3.41-2.99-5.36h1.25
		c0.33,0.85,0.75,1.73,1.26,2.65c0.51,0.92,1.14,1.82,1.89,2.7H235.63z"/>
</g>
</svg>
