<?xml version="1.0" encoding="utf-8"?>
<!-- Generator: Adobe Illustrator 24.0.1, SVG Export Plug-In . SVG Version: 6.00 Build 0)  -->
<svg version="1.1" id="cake" xmlns="http://www.w3.org/2000/svg" xmlns:xlink="http://www.w3.org/1999/xlink" x="0px" y="0px"
	 viewBox="0 0 253 238" style="enable-background:new 0 0 253 238;" xml:space="preserve">
<style type="text/css">
	.st0{fill:#FFFFF2;}
	.st1{fill:#1E2966;}
	.st2{fill:#FF3840;}
	.st3{fill:#FF6E8B;}
	.st4{fill:#0677E3;}
</style>
<g>
	<g>
		<g>
			<polygon class="st0" points="156.48,80.78 4.46,81.46 9.37,46.53 151.26,45.9 			"/>
		</g>
		<g>
			<g>
				
					<rect x="4.72" y="81.12" transform="matrix(1 -4.471883e-03 4.471883e-03 1 -0.6235 0.3624)" class="st1" width="152.02" height="117"/>
			</g>
		</g>
		<g>
			<g>
				
					<rect x="70.24" y="81.12" transform="matrix(1 -4.476225e-03 4.476225e-03 1 -0.6242 0.3628)" class="st2" width="20.98" height="117"/>
			</g>
		</g>
		<g>
			<g>
				<polygon class="st2" points="153.68,62.1 7.09,62.76 8.28,54.33 152.44,53.69 				"/>
			</g>
		</g>
		<g>
			<g>
				<polygon class="st2" points="90.96,81.07 69.98,81.16 70.94,46.25 89.69,46.17 				"/>
			</g>
		</g>
		<g>
			<g>
				<path class="st3" d="M52.44,44.32c-4.77-2.52-8.85-5.18-10.82-7.64c-3.33-4.16-4.85-9.36-4.26-14.66
					c0.58-5.29,3.19-10.05,7.35-13.38c8.58-6.88,21.16-5.49,28.03,3.09c5.97,7.44,9.5,34.23,10.15,39.52
					c0.16,1.27-0.36,2.53-1.36,3.33c-1,0.8-2.34,1.03-3.55,0.6C74.61,53.99,62.11,49.44,52.44,44.32z M63.06,13.12
					c-4.29-2.27-9.71-1.93-13.74,1.3c-2.62,2.1-4.26,5.09-4.63,8.42c-0.37,3.33,0.59,6.61,2.68,9.23
					c3.03,3.78,16.62,9.89,27.34,14.03C73,34.73,70,20.13,66.97,16.36C65.86,14.98,64.53,13.89,63.06,13.12z"/>
			</g>
			<g>
				<path class="st3" d="M77.38,54.97c-0.19-0.1-0.38-0.22-0.56-0.36c-1.01-0.79-1.53-2.05-1.39-3.32c0.6-5.3,3.9-32.11,9.8-39.61
					c6.8-8.64,19.37-10.15,28-3.34c4.19,3.29,6.84,8.02,7.47,13.31c0.63,5.29-0.84,10.51-4.13,14.69c-5.9,7.5-31.19,17-36.2,18.83
					C79.38,55.54,78.29,55.46,77.38,54.97z M91.04,16.25c-3,3.81-5.87,18.43-7.48,29.81c10.68-4.24,24.22-10.47,27.21-14.28
					c2.07-2.64,3-5.92,2.6-9.25c-0.4-3.33-2.07-6.31-4.7-8.38C103.22,9.87,95.32,10.81,91.04,16.25L91.04,16.25z"/>
			</g>
			<g>
				<path class="st3" d="M35.97,47.38l1.36-7.26l41.73,7.82l41.46-8.98l1.56,7.22l-42.19,9.14c-0.48,0.1-0.98,0.11-1.46,0.02
					L35.97,47.38z"/>
			</g>
		</g>
	</g>
	<g>
		<g>
			<polygon class="st4" points="122.6,215.29 185.13,233.92 247.91,216.14 248.54,123.24 185.83,130.76 123.23,122.39 			"/>
			<polygon class="st1" points="248.54,123.32 185.65,134.51 123.23,122.39 185.8,111.59 			"/>
			<polygon class="st0" points="142.98,221.36 156.87,225.5 157.53,129.05 143.62,126.35 			"/>
		</g>
		<polygon class="st0" points="143.62,126.35 205.46,115.19 217.8,117.5 157.53,129.05 		"/>
		<polygon class="st1" points="248.54,123.32 247.91,216.14 185.13,233.92 185.65,134.51 		"/>
		<g>
			<g>
				<path class="st3" d="M175.33,120.96c-0.2-2.57-1.81-25.29,1.7-32.07c3.94-7.6,13.33-10.59,20.93-6.65
					c7.6,3.94,10.59,13.33,6.65,20.93c-3.51,6.78-23,18.57-25.21,19.89c-0.8,0.48-1.79,0.51-2.62,0.08
					c-0.18-0.09-0.35-0.21-0.5-0.34C175.73,122.35,175.38,121.69,175.33,120.96z M195.48,87.02c-4.97-2.57-11.1-0.62-13.67,4.34
					c-1.8,3.48-1.84,15.59-1.39,24.74c7.73-4.91,17.6-11.93,19.4-15.41c2.22-4.28,1.08-9.42-2.45-12.41
					C196.8,87.8,196.17,87.38,195.48,87.02z"/>
			</g>
			<g>
				<path class="st3" d="M146.84,114.49c-3.16-2.69-5.08-6.45-5.4-10.59c-0.33-4.14,0.97-8.15,3.66-11.31s6.45-5.07,10.59-5.4
					c4.14-0.33,8.12,1,11.31,3.66c5.81,4.95,12.88,26.61,13.67,29.06c0.29,0.89,0.09,1.86-0.51,2.57c-0.61,0.71-1.54,1.06-2.46,0.91
					c-2.54-0.39-24.99-3.95-30.83-8.89C146.85,114.5,146.84,114.49,146.84,114.49z M163.46,94.93c-2.06-1.74-4.67-2.58-7.35-2.37
					c-2.7,0.21-5.16,1.47-6.91,3.53c-1.76,2.06-2.61,4.68-2.39,7.38c0.21,2.7,1.47,5.16,3.54,6.92c3,2.54,14.77,5.32,23.77,6.94
					C171.08,108.7,166.48,97.5,163.46,94.93z"/>
			</g>
			<g>
				<path class="st3" d="M143.96,122.91l34.1,0.52c0.36,0,0.72-0.06,1.05-0.2l31.65-12.76l-2.01-5l-31.15,12.55l-33.55-0.52
					L143.96,122.91z"/>
			</g>
		</g>
	</g>
</g>
</svg>
