<?xml version="1.0" encoding="utf-8"?>
<!-- Generator: Adobe Illustrator 24.0.1, SVG Export Plug-In . SVG Version: 6.00 Build 0)  -->
<svg version="1.1" id="top" xmlns="http://www.w3.org/2000/svg" xmlns:xlink="http://www.w3.org/1999/xlink" x="0px" y="0px"
	 viewBox="0 0 139.5 191.25" style="enable-background:new 0 0 139.5 191.25;" xml:space="preserve">
<style type="text/css">
	.st0{fill:#6CCEFF;}
	.st1{fill:#2062A9;}
	.st2{fill:#FFACEA;}
	.st3{fill:#FFD2BB;}
	.st4{fill:#E4E9FF;}
	.st5{fill:#1B3B78;}
	.st6{fill:#FFFFF2;}
	.st7{fill:#1E2966;}
	.st8{fill:#FF3840;}
	.st9{fill:#FF6E8B;}
</style>
<g>
	<g>
		<g>
			<g>
				<g>
					<g>
						<g>
							<path class="st0" d="M78.66,189.33h10.87c0.6,0,1.09-0.51,1.09-1.15v-2.48l-0.01-0.74l-0.01-0.18l-0.16-6.28l0.03-0.94
								l1.05-31.88c0.12-2.17,0.24-4.35,0.4-6.51l5.65-20.46v-0.01l4.41-15.98c2.73-4.51,6.04-8.64,10.03-12.23
								c-0.43-0.16-0.86-0.34-1.28-0.5c-0.84-0.3-1.67-0.59-2.47-0.85l1.2-0.51c-1.23-1.51-2.31-3.14-3.23-4.85
								c-0.23,0.03-0.46,0.07-0.7,0.11c-2.71,0.42-5.66,0.82-8.16,1.15c-2.71,0.36-4.92,0.63-5.78,0.73
								c-0.24,0.03-0.38,0.05-0.38,0.05c-0.03,0.01-0.07,0.03-0.11,0.05c-1.21,0.94-4.69,13.11-5.18,14.83
								c-1.47,5.31-2.92,10.29-4.17,15.22c-0.01,0.06-0.03,0.12-0.05,0.17c0,0.01-0.01,0.03-0.01,0.04
								c-2.11,8.29-3.66,16.42-3.87,25.68c-0.15,6.93,2.81,20.82,3.25,23.9c0.26,1.79,1.03,7.24,1.63,11.88
								c0.45,3.42,0.8,6.4,0.8,7.19v0.1l-0.32,0.12l-2,0.74l-2.93,1.09c-0.41,0.15-0.72,0.53-0.8,0.98
								C77.29,188.57,77.87,189.33,78.66,189.33z"/>
						</g>
					</g>
				</g>
			</g>
		</g>
		<g>
			<g>
				<g>
					<g>
						<g>
							<path class="st1" d="M78.66,189.33h10.87c0.6,0,1.09-0.51,1.09-1.15v-2.48l-0.01-0.74l-0.01-0.18h-7.09v0.07l-0.32,0.12
								l-2,0.74l-2.93,1.09c-0.41,0.15-0.72,0.53-0.8,0.98C77.29,188.57,77.87,189.33,78.66,189.33z"/>
						</g>
					</g>
				</g>
			</g>
		</g>
		<g>
			<g>
				<g>
					<g>
						<g>
							<polygon class="st2" points="99.73,158.46 97.13,144.21 97.56,118.67 97.69,111.24 97.75,107.31 97.13,144.21 							"/>
						</g>
					</g>
				</g>
			</g>
		</g>
		<g>
			<g>
				<g>
					<g>
						<g>
							<path class="st0" d="M97.13,144.21l2.6,14.25l2.87,15.77l0.61,3.32l0.39,2.12l1.05,5.1l0.03,0.18l0.02,0.09h6.9l-0.01-0.09
								l-0.01-0.18l-0.42-7.22l-0.01-0.25l-0.09-3.07l-0.73-26.12c-0.11-1.66,0.03-3.33,0.41-4.95l8.49-35.39
								c1.8-6.58-2.15-13.68-6.25-18.98l-5.53-7.17l-1.94,2.26L98,92.65l-0.25,14.66l-0.19,11.37v0.01L97.13,144.21z"/>
						</g>
					</g>
				</g>
			</g>
		</g>
		<g>
			<g>
				<g>
					<g>
						<g>
							<path class="st1" d="M99.94,187.16l4.8-1.94l-0.03-0.18h6.9l0.31,5.22h-11.55c-0.82,0-1.5-0.7-1.5-1.58
								C98.86,187.97,99.3,187.35,99.94,187.16z"/>
						</g>
					</g>
				</g>
			</g>
		</g>
		<g>
			<g>
				<g>
					<g>
						<g>
							<polygon class="st3" points="103.21,177.55 103.6,179.67 104.65,184.76 104.68,184.95 111.59,184.95 111.58,184.76 
								111.17,177.55 							"/>
						</g>
					</g>
				</g>
			</g>
		</g>
		<g>
			<g>
				<g>
					<g>
						<g>
							<path class="st3" d="M83.51,184.83l-0.32,0.12h7.42l-0.01-0.18l-0.16-6.28l0.03-0.94H82.7c0.45,3.42,0.8,6.4,0.8,7.19V184.83
								z"/>
						</g>
					</g>
				</g>
			</g>
		</g>
		<g>
			<g>
				<g>
					<g>
						<g>
							<path class="st3" d="M91.42,35.3c-0.23,0.75-1.01,3.19-1.78,5.6c-0.99,3.1,0.55,6.44,3.55,7.69l0,0v8.47l15.95,0.89
								l-2.66-15.11l-4.43-6.2L91.42,35.3z"/>
						</g>
					</g>
				</g>
			</g>
		</g>
		<g>
			<g>
				<g>
					<g>
						<g>
							<path class="st4" d="M89.28,87.01l-1.85-11.6c-2.01-1.37-3.45-3.55-3.79-6.16c-0.32-2.43,0.37-4.78,1.75-6.62l-0.04-0.26
								c0.48-0.47,0.99-0.98,1.49-1.49c2.99-3.03,7.03-4.79,11.28-4.88l12.32-0.25c0.28,0.62,0.46,1.31,0.47,2.03l0.56,29.22H89.28z
								"/>
						</g>
					</g>
				</g>
			</g>
		</g>
		<g>
			<g>
				<g>
					<g>
						<g>
							<path class="st3" d="M65.4,88.46c0.29-0.88,1.21-1.39,2.13-1.3c5.72,0.57,23.19,0.11,28.86-25.32c0.7-3.14,3.96-4.98,7-3.93
								l0.43,0.15c2.67,0.92,4.17,3.74,3.44,6.47C104.32,75.36,94.5,99.7,66.66,90.93C65.63,90.61,65.05,89.5,65.4,88.46z"/>
						</g>
					</g>
				</g>
			</g>
		</g>
		<g>
			<g>
				<g>
					<g>
						<g>
							<path class="st5" d="M90.28,36.9c1.87-3.47,6.52-5.12,10.16-3.63c2.77,1.14,4.67,3.68,6.42,6.12
								c3.11,4.31,6.23,8.65,8.52,13.45c0.99,2.08,1.84,4.26,3.31,6.04c2.46,2.97,6.28,4.36,9.58,6.35c3.59,2.17,6.78,5.3,8.09,9.28
								c2.55,7.73-3.68,16.82-11.76,17.88c-8.07,1.06-16.16-5.38-17.65-13.39c-0.42-2.28-0.4-4.68-1.34-6.81
								c-1.13-2.59-3.5-4.38-5.31-6.55c-6-7.2-5.37-17.65-4.4-26.98L90.28,36.9z"/>
						</g>
					</g>
				</g>
			</g>
		</g>
	</g>
	<g>
		<g>
			<polygon class="st6" points="70.25,35.02 2.56,37.9 4.16,22.26 67.33,19.57 			"/>
		</g>
		<g>
			<g>
				
					<rect x="3.64" y="36.43" transform="matrix(0.9991 -0.0425 0.0425 0.9991 -2.6251 1.6525)" class="st7" width="67.75" height="52.14"/>
			</g>
		</g>
		<g>
			<g>
				
					<rect x="32.84" y="36.43" transform="matrix(0.9991 -0.0425 0.0425 0.9991 -2.6254 1.6527)" class="st8" width="9.35" height="52.14"/>
			</g>
		</g>
		<g>
			<g>
				<polygon class="st8" points="68.68,26.75 3.42,29.53 3.8,25.75 67.99,23.02 				"/>
			</g>
		</g>
		<g>
			<g>
				<polygon class="st8" points="41.08,36.26 31.73,36.66 31.57,21.1 39.92,20.74 				"/>
			</g>
		</g>
		<g>
			<g>
				<path class="st9" d="M23.3,20.55c-2.17-1.04-4.03-2.16-4.95-3.22c-1.55-1.79-2.32-4.09-2.15-6.45c0.17-2.37,1.25-4.53,3.05-6.08
					c3.7-3.21,9.33-2.81,12.54,0.9c2.78,3.21,4.81,15.08,5.19,17.43c0.09,0.56-0.12,1.13-0.55,1.51c-0.43,0.37-1.02,0.5-1.57,0.33
					C33.34,24.48,27.69,22.66,23.3,20.55z M27.5,6.47c-1.95-0.94-4.36-0.69-6.1,0.81c-1.13,0.98-1.81,2.34-1.92,3.83
					c-0.11,1.49,0.37,2.93,1.35,4.06c1.41,1.63,7.57,4.12,12.41,5.79c-0.96-5.03-2.54-11.48-3.95-13.11
					C28.78,7.25,28.16,6.79,27.5,6.47z"/>
			</g>
			<g>
				<path class="st9" d="M34.58,24.87c-0.09-0.04-0.17-0.09-0.25-0.15c-0.46-0.34-0.72-0.89-0.67-1.45
					c0.18-2.37,1.19-14.37,3.69-17.81c2.88-3.96,8.45-4.85,12.41-1.96c1.92,1.4,3.18,3.46,3.55,5.8c0.37,2.34-0.19,4.69-1.59,6.61
					c-2.5,3.44-13.6,8.1-15.8,9C35.49,25.09,35,25.07,34.58,24.87z M40.01,7.39c-1.27,1.75-2.3,8.31-2.83,13.4
					c4.68-2.07,10.61-5.07,11.88-6.82c0.88-1.21,1.23-2.69,1-4.16c-0.23-1.48-1.03-2.77-2.24-3.65C45.33,4.34,41.82,4.9,40.01,7.39
					L40.01,7.39z"/>
			</g>
			<g>
				<path class="st9" d="M16.01,22.19l0.48-3.26l18.71,2.77l18.31-4.7l0.82,3.19l-18.63,4.78c-0.21,0.05-0.43,0.07-0.65,0.03
					L16.01,22.19z"/>
			</g>
		</g>
	</g>
</g>
</svg>
