<?xml version="1.0" encoding="utf-8"?>
<!-- Generator: Adobe Illustrator 24.0.1, SVG Export Plug-In . SVG Version: 6.00 Build 0)  -->
<svg version="1.1" id="圖層_1" xmlns="http://www.w3.org/2000/svg" xmlns:xlink="http://www.w3.org/1999/xlink" x="0px" y="0px"
	 viewBox="0 0 93.69 171.3" style="enable-background:new 0 0 93.69 171.3;" xml:space="preserve">
<style type="text/css">
	.st0{fill:#FFD2BB;}
	.st1{fill:#E4E9FF;}
	.st2{fill:#1B3B78;}
	.st3{fill:#FD7752;}
</style>
<g id="XMLID_2_">
	<g>
		<g>
			<g id="XMLID_1_">
				<g>
					<g>
						<path class="st0" d="M2.6,66.87l5.36,2.35l11.8,5.18c1.49,0.6,3.45,0.39,5.2-0.58c0,0,15.19-12.83,16.22-13.03
							c0.02-0.02,0.06-0.05,0.08-0.07c0.01-0.01,0.02-0.02,0.02-0.03c0.22-0.27,0.49-0.53,0.71-0.8c0.21-0.25,0.46-0.63,0.6-0.81
							c0.15-0.33,0.31-0.7,0.49-0.92c0.03-0.13,0.08-0.26,0.11-0.37c0.01-0.01,0.01-0.03,0.01-0.04c-0.06,0.09-0.1-0.06,0.06-0.48
							c-0.02-0.43-0.05-0.85-0.09-1.27c-0.01-0.03-0.01-0.07-0.02-0.1c-0.08-0.25-0.12-0.37-0.12-0.42
							c0.01,0.01,0.01,0.02,0.02,0.04c-0.02-0.07-0.04-0.15-0.06-0.21c-0.17-0.55-0.37-1.09-0.6-1.61
							c-0.61-1.44-1.35-2.83-2.13-4.17l-16,15.1c-1.25,0.84-2.68,1.31-4.02,1.3l-10.41-1.6l-5.34-0.82
							c-0.82-0.08-1.76,0.39-2.28,1.14c-0.01,0.01-0.01,0.02-0.02,0.03C1.58,65.55,1.77,66.53,2.6,66.87z"/>
					</g>
				</g>
				<g>
					<g>
						<path class="st0" d="M32.07,91.55c2.13,0.29,4.25,0.77,6.39,1.24c2.62,0.58,5.23,1.16,7.85,1.78c1.46,0.1,4.04,0.29,4.04,0.29
							c-0.03,0.22-0.05,0.45-0.08,0.67c2.66,0.66,5.31,1.36,7.96,2.12c0.12,0.04,0.23,0.08,0.35,0.12c1.33-0.06,2.65-0.16,3.96-0.31
							c0.53-5.75,1.17-11.43,1.98-16.98c0.18-1.2-3.76-9.66-3.58-10.86c0.18-1.17,0.8-1.61,1.58-1.78c1.65-0.37-2.55-1.47-2.04-4.06
							c0,0,5.51-2.44,5.58-2.26c0.69,1.65,5.23,14.43,5.23,14.43l0.47,15.14l0.14,4.34l0.11,3.6c-0.21,1.47,0.82,2.83,2.25,2.93
							c0.09,0.01,0.17,0.01,0.26,0c1.11-0.04,2.06-0.85,2.32-2l0.68-4.16l2.01-12.31c0.71-9.6-0.25-18.57-5.63-26.33
							c-1.94-2.8-2.96-5.15-5.39-6.77c-0.25-0.17-0.53-0.33-0.82-0.49c-0.94-0.5-2-0.95-3.17-1.34c-0.28-0.1-0.57-0.19-0.87-0.28
							c-5.53-1.68-12.91-2.17-18.68-0.65c-1.61,0.42-3.1,1.01-4.38,1.76c-0.04,5.5-0.54,11.08-2.17,16.29
							c-0.14,3.15-0.2,6.3-0.58,9.46c-0.69,5.73-5.09,10.92-5.65,15.94C32.14,91.23,32.1,91.39,32.07,91.55z"/>
					</g>
				</g>
				<g>
					<g>
						<path class="st1" d="M34.51,75.77l0.97,0.15l29.03,4.55l3.97-30.09c-0.25-0.17-0.53-0.33-0.83-0.49
							c-1.16-0.62-2.53-1.16-4.03-1.61l-0.81,2.32c-1.33,3.78-4.92,6.14-8.73,5.74l-1.69-0.18c-4.19-0.45-7.38-4.1-7.45-8.52l0,0
							c-2.16,0.57-4.09,1.42-5.61,2.59c-0.33,0.25-0.64,0.51-0.94,0.78l-1.71,16.38L34.51,75.77z"/>
					</g>
				</g>
				<g>
					<g>
						<path class="st1" d="M66.65,64.08c-0.98-2.01-2.52-3.55-4.51-4.66c-0.11-0.79-0.36-1.53-0.71-2.23l3.05-8.64
							c1.17,0.39,2.23,0.84,3.17,1.34c0.29,0.16,0.57,0.32,0.82,0.49c2.44,1.62,3.46,3.97,5.39,6.77
							c5.38,7.76,6.34,16.73,5.63,26.33l-2.01,12.31l-5.62-0.37l-0.14-4.34l-0.47-15.14c0,0-4.54-12.77-5.23-14.43
							C66,61.4,66.35,62.86,66.65,64.08z"/>
					</g>
				</g>
				<g>
					<g>
						<path class="st0" d="M45.67,130.82c0.37,2.63,0.85,6.43,3.15,8.23c1.25,1,2.77,1.65,4.38,1.72c-0.07,0.01-0.11,0.02-0.14,0.03
							c0.04,0,0.1-0.01,0.2-0.03c0.63,0.02,1.28-0.04,1.94-0.2l3.4-0.85c9.14-2.27,17.95-4.89,26.91-7.83l0.01,0.01l4.58,4.59
							c0.38,0.23,0.82,0.27,1.22,0.16c0.03,0,0.07-0.01,0.08-0.02c0.34-0.11,0.65-0.34,0.83-0.68c0.23-0.42,0.28-0.13,0.05-0.55
							l-2.26-7.54c-0.52-1.42-2.01-2.3-3.58-2.09c-0.45,0.05-0.88,0.11-1.34,0.17c-0.22,0.03-0.43,0.06-0.65,0.08
							c-0.46,0.06-0.92,0.12-1.38,0.18c-0.5,0.06-1.01,0.12-1.52,0.19c-0.74,0.09-1.49,0.18-2.25,0.28
							c-7.29,0.9-14.76,1.76-22.3,2.53c-0.04-1-0.07-1.98-0.1-2.97c0.01-6.14,0.58-12.96,0.61-19.03c0.02-2.57-0.85-4.1-0.8-6.65
							c-2.6-0.04-5.2-0.15-7.78-0.26c-1.03-0.04-2.05-0.09-3.07-0.13c-0.18,0.42-0.42,0.82-0.7,1.19c-0.01,0.02-0.03,0.03-0.04,0.05
							c-0.13,0.17-0.26,0.33-0.41,0.49c-0.03,0.03-0.07,0.06-0.1,0.1c-0.13,0.14-0.26,0.26-0.41,0.39
							C43.76,111.2,44.29,121.06,45.67,130.82z"/>
					</g>
				</g>
				<g>
					<g>
						<path class="st0" d="M13.68,170.81c0.42,0.45,1.07,0.6,1.64,0.4c0,0,5.39-2.3,7.79-3.33c0.61-0.26,1.2-1.34,1.78-2.93
							c0.05-0.14,0.1-0.28,0.15-0.43c0.22-0.63,0.42-1.32,0.63-2.07c0.25-0.89,0.49-1.86,0.72-2.86c1.31-5.7,2.38-12.87,2.99-16.58
							c0.12-0.74,0.23-1.35,0.31-1.78c1.25-6.4,4.29-21.02,7.44-32.43c0.08-0.17,0.16-0.34,0.24-0.5l0.03-0.12
							c-0.03-0.02-0.06-0.04-0.08-0.06c1.42-5.07,2.85-9.44,4.15-12.08l-7.93,3.72c-0.44-0.27-0.67-0.22-0.76,0
							c-2.38,0.07-5.03,0.89-7.35,0.7c-1.36-0.11-4.68,22.65-4.92,24.65c-0.68,5.49-1.12,11.01-1.43,16.53
							c-0.33,6,0.75,11.94,0.41,17.95c-0.07,1.05-0.18,2.02-0.38,2.86c-0.19,0.84-0.46,1.54-0.84,2.07
							c-0.09,0.15-0.2,0.28-0.32,0.39l-4.12,3.4c-0.14,0.12-0.26,0.26-0.36,0.41C13.08,169.37,13.14,170.24,13.68,170.81z"/>
					</g>
				</g>
				<g>
					<g>
						<path class="st2" d="M47.52,38.23c3.01,3.01,7.88,3.01,10.89,0c3.01-3.01,3.01-7.88,0-10.89c-3.01-3.01-7.88-3.01-10.89,0
							C44.52,30.35,44.52,35.23,47.52,38.23z"/>
					</g>
				</g>
				<g>
					<g>
						<path class="st2" d="M50.19,39.97l9.93-10.01c1.37,3.47,2.28,5.44,4.2,6.87c1.36,1.01,3.04,1.47,4.73,1.52
							c2.98,0.09,5.89,1.55,7.7,4.24c2.74,4.06,1.9,9.7-1.89,12.8c-4.28,3.49-10.55,2.66-13.8-1.72c-1.13-1.52-1.73-3.27-1.86-5.03
							C57.43,43.09,55.66,42.08,50.19,39.97z"/>
					</g>
				</g>
				<g>
					<g>
						<path class="st0" d="M45.37,33.97c0,3.67,2.98,6.66,6.66,6.66c1.47,0,2.82-0.47,3.92-1.27c1.66-1.21,2.74-3.18,2.74-5.39
							c0-0.9-0.18-1.75-0.5-2.53c-1-2.43-3.38-4.13-6.16-4.13c-0.13,0-0.28,0.01-0.42,0.01c-3,0.19-5.46,2.36-6.08,5.23
							C45.42,33,45.37,33.48,45.37,33.97z"/>
					</g>
				</g>
				<g>
					<g>
						<path class="st2" d="M49.06,26.63c0.69-0.04,1.44-0.18,2.2-0.35c0.29,0.15,0.65,0.24,1.06,0.24c0.27,0,0.52-0.04,0.74-0.11
							l2.78,1.9c2.05,1.13,3.45,3.31,3.45,5.83c0,1.97-0.86,3.74-2.22,4.96c-0.3,0.33,0.31,1.33-0.06,1.6l-3.59-9.4l-4.15-4.08
							c-0.16-0.18,0.54,0.48,0.42,0.27C49.74,27.5,48.99,26.64,49.06,26.63z"/>
					</g>
				</g>
				<g>
					<g>
						<polygon class="st0" points="55.09,35.16 58.62,47.18 50.54,49.06 50.76,38.4 						"/>
					</g>
				</g>
				<g>
					<g>
						<circle class="st0" cx="56.09" cy="33.61" r="2.36"/>
					</g>
				</g>
				<g>
					<g>
						<path class="st3" d="M60.18,124.53l-43.03-11.42c-0.55-0.15-0.83-0.75-0.6-1.26l20.13-44.47l28.49,7.66l-2.14,22.32
							l-1.71,26.35C61.29,124.28,60.73,124.67,60.18,124.53z"/>
					</g>
				</g>
				<g>
					<g>
						<path class="st1" d="M7.97,69.22l11.8,5.18c1.49,0.6,3.45,0.39,5.2-0.58c0,0,15.19-12.83,16.22-13.03
							c0.02-0.02,0.06-0.05,0.08-0.07c0.01-0.01,0.02-0.02,0.02-0.03c0.22-0.27,0.49-0.53,0.71-0.8c0.21-0.25,0.46-0.63,0.6-0.81
							c0.15-0.33,0.31-0.7,0.49-0.92c0.03-0.13,0.08-0.26,0.11-0.37c0.01-0.01,0.01-0.03,0.01-0.04c-0.06,0.09-0.1-0.06,0.06-0.48
							c-0.02-0.43-0.05-0.85-0.09-1.27c-0.01-0.03-0.01-0.07-0.02-0.1c-0.08-0.25-0.12-0.37-0.12-0.42
							c0.01,0.01,0.01,0.02,0.02,0.04c-0.02-0.07-0.04-0.15-0.06-0.21c-0.17-0.55-0.37-1.09-0.6-1.61
							c-0.61-1.44-1.35-2.83-2.13-4.17l-16,15.1c-1.25,0.84-2.68,1.31-4.02,1.3l-10.41-1.6L7.97,69.22z"/>
					</g>
				</g>
				<g>
					<g>
						<path class="st2" d="M45.29,32.54c3.03,1.18,9,0.08,12.72-0.96l0.18-0.16c-1.01-2.47-3.44-4.21-6.27-4.21
							c-0.14,0-0.29,0.01-0.43,0.01C48.43,27.41,45.92,29.62,45.29,32.54z"/>
					</g>
				</g>
				<g>
					<g>
						<path class="st3" d="M13.68,170.81c0.42,0.45,1.07,0.6,1.64,0.4c0,0,5.39-2.3,7.79-3.33c0.61-0.26,1.2-1.34,1.78-2.93
							c0.05-0.14,0.1-0.28,0.15-0.43h-6.78c-0.09,0.15-0.2,0.28-0.32,0.39l-4.12,3.4c-0.14,0.12-0.26,0.26-0.36,0.41
							C13.08,169.37,13.14,170.24,13.68,170.81z"/>
					</g>
				</g>
				<g>
					<g>
						<path class="st3" d="M84.45,126.02l1.08,5.89l4.58,4.59c0.38,0.23,0.82,0.27,1.22,0.16c0.03,0,0.07-0.01,0.08-0.02
							c0.34-0.11,0.65-0.34,0.83-0.68c0.23-0.42,0.28-0.13,0.05-0.55l-2.26-7.54c-0.52-1.42-2.01-2.3-3.58-2.09
							c-0.45,0.05-0.88,0.11-1.34,0.17C84.88,125.97,84.66,125.99,84.45,126.02z"/>
					</g>
				</g>
			</g>
		</g>
	</g>
	<g>
		<polygon class="st3" points="53.67,19.2 65.59,6.89 64.06,24.94 		"/>
		<path class="st3" d="M67.66,3.65c0.03,0.79-0.58,1.46-1.37,1.49c-0.79,0.03-1.46-0.58-1.49-1.37c-0.03-0.79,0.58-1.46,1.37-1.49
			C66.95,2.24,67.62,2.86,67.66,3.65z"/>
	</g>
</g>
</svg>
