<?xml version="1.0" encoding="utf-8"?>
<!-- Generator: Adobe Illustrator 24.0.1, SVG Export Plug-In . SVG Version: 6.00 Build 0)  -->
<svg version="1.1" id="圖層_1" xmlns="http://www.w3.org/2000/svg" xmlns:xlink="http://www.w3.org/1999/xlink" x="0px" y="0px"
	 viewBox="0 0 93.5 266.25" style="enable-background:new 0 0 93.5 266.25;" xml:space="preserve">
<style type="text/css">
	.st0{fill:#6CCEFF;}
	.st1{fill:#FFFFFF;}
	.st2{fill:none;}
	.st3{fill:#FFD2BB;}
	.st4{fill:#6F2677;}
	.st5{fill:#E4E9FF;}
	.st6{fill:#577DE8;}
	.st7{fill:#1B3B78;}
	.st8{fill:#FF6E8B;}
	.st9{fill:#5BC5C9;}
</style>
<g>
	<g>
		<path class="st0" d="M64.92,85.39c0,0.72,0.58,1.31,1.31,1.31s1.31-0.58,1.31-1.31c0-0.72-0.58-1.31-1.31-1.31
			S64.92,84.67,64.92,85.39z"/>
		<path class="st0" d="M66.23,87.24l6.87,26.1c0,0.7-3.07,1.27-6.87,1.27c-3.79,0-6.87-0.57-6.87-1.27L66.23,87.24z"/>
		<g>
			<polygon class="st1" points="69.36,99.17 64.27,94.71 64.76,92.8 68.56,96.15 			"/>
			<polygon class="st1" points="70.78,104.57 63.37,98.08 62.88,99.97 71.58,107.59 			"/>
			<polygon class="st1" points="69.97,114.38 69.95,114.38 61.11,106.66 61.63,104.76 72.14,113.97 			"/>
		</g>
		<path class="st2" d="M66.23,87.24l6.87,26.1c0,0.7-3.07,1.27-6.87,1.27c-3.79,0-6.87-0.57-6.87-1.27L66.23,87.24z"/>
	</g>
	<g>
		<g>
			<g>
				<path class="st0" d="M15.26,61.84c0.38,5.81,1.62,12.03,5.03,17.31c1.17,1.82,2.64,3.63,4.06,5.38
					c3.78,4.66,7.68,9.48,6.83,15.38c-0.35,2.4-1.49,4.69-2.59,6.89c-1.62,3.25-3.16,6.31-2.03,9.4l-1.11,0.4
					c-1.3-3.56,0.42-7,2.09-10.33c1.06-2.12,2.16-4.32,2.48-6.53c0.78-5.39-2.8-9.8-6.58-14.47c-1.44-1.77-2.92-3.61-4.13-5.48
					c-3.58-5.56-4.85-12.05-5.22-18.08C14.47,61.79,14.87,61.83,15.26,61.84z"/>
			</g>
		</g>
		<g>
			<g>
				<path class="st0" d="M25.85,62.75c-0.82,4.1-0.64,8.4,0.58,12.41c0.54,1.78,1.3,3.55,2.03,5.27c1.29,3.03,2.63,6.16,2.88,9.53
					c0.32,4.27-0.37,8.39-1.04,12.38c-1.25,7.47-2.43,14.53,3.21,21.51l-0.92,0.74c-5.97-7.39-4.75-14.7-3.45-22.45
					c0.66-3.92,1.33-7.97,1.03-12.1c-0.24-3.17-1.48-6.08-2.79-9.15c-0.74-1.74-1.51-3.54-2.07-5.39
					c-1.22-4.02-1.45-8.32-0.71-12.45C25.01,62.97,25.43,62.86,25.85,62.75z"/>
			</g>
		</g>
		<g>
			<g>
				<path class="st0" d="M34.86,82.22c0.74-0.77,1.63-1.34,2.49-1.9c0.89-0.58,1.74-1.13,2.4-1.86c1.7-1.89,1.93-4.69,2.03-7.63
					c0.13-3.89,0.06-10.89,0-17.66c-0.01-1.17-0.02-2.34-0.03-3.5c0.39,0.02,0.79,0.03,1.18,0.04c0.01,1.14,0.02,2.3,0.03,3.45
					c0.07,6.78,0.14,13.79,0,17.71c-0.11,3.17-0.37,6.2-2.33,8.38c-0.77,0.85-1.72,1.47-2.64,2.07c-0.84,0.54-1.63,1.06-2.28,1.73
					c-1.78,1.85-2.21,4.66-2.52,7.63c-1.13,10.72-1.42,29.58,4.69,32.3l-0.48,1.08c-8.29-3.68-5.71-30.46-5.39-33.5
					C32.29,88,32.65,84.52,34.86,82.22z"/>
			</g>
		</g>
	</g>
	<g id="XMLID_85_">
		<g>
			<g>
				<g>
					<g>
						<g>
							<g>
								<path class="st3" d="M59.7,264.7c0.01,0.3-0.23,0.55-0.53,0.55H48.99c-0.32,0-0.6-0.13-0.81-0.34
									c-0.21-0.21-0.34-0.49-0.34-0.81c0-0.54,0.37-1.52,0.9-1.64l4.01-0.77c-0.12-0.02-0.05-0.13,0.04-0.23
									c0.08-0.09,0.18-0.17,0.18-0.17l-0.1-0.77c-0.07-0.35-0.13-0.71-0.2-1.06c-3.03-16.09-12.09-36.29-9.84-62.22
									c0.27-3.08,0.74-18.06,6.75-7.2c0.21,0.37,0.72-0.46,1.07-0.7c0.08-0.06,0.14-0.1,0.19-0.14c0.06-0.02,0.12-0.05,0.21-0.08
									c0.87-0.38,1.74-0.74,2.64-1.03c-0.04,0.03,1.08-0.26,1.17-0.27c0.67-0.11,1.34-0.19,2.03-0.25
									c0.45-0.04,0.9-0.07,1.35-0.09c0.64-0.03,1.17,0.48,1.16,1.12c-0.06,3.89-0.13,7.8-0.21,11.71
									c-0.04,1.82-0.07,3.64-0.1,5.45c-0.09,5.03-0.16,10.07-0.2,15.1c-0.04,4.7-0.04,11.46,0.02,16.13
									c0.04,3.57,0.1,7.13,0.21,10.67c0.07,2.39,0.32,9.39,0.48,13.81C59.64,262.9,59.68,264.06,59.7,264.7z"/>
							</g>
						</g>
					</g>
				</g>
			</g>
		</g>
		<g>
			<g>
				<g>
					<g>
						<g>
							<g>
								<path class="st4" d="M59.7,264.7c0.01,0.3-0.23,0.55-0.53,0.55H48.99c-0.32,0-0.6-0.13-0.81-0.34
									c-0.21-0.21-0.34-0.49-0.34-0.81c0-0.54,0.37-1.52,0.9-1.64l4.01-0.77c-0.12-0.02-0.05-0.13,0.04-0.23h6.8
									C59.64,262.9,59.68,264.06,59.7,264.7z"/>
							</g>
						</g>
					</g>
				</g>
			</g>
		</g>
		<g>
			<g>
				<g>
					<g>
						<g>
							<g>
								<path class="st3" d="M80.69,264.7c0.01,0.3-0.23,0.55-0.53,0.55H69.98c-0.32,0-0.6-0.13-0.81-0.34
									c-0.21-0.21-0.34-0.49-0.34-0.81c0-0.54,0.37-1.52,0.9-1.64l4.01-0.77c-0.12-0.02-0.05-0.13,0.04-0.23
									c0.08-0.09,0.18-0.17,0.18-0.17l-0.1-0.77c-0.07-0.35-0.13-0.71-0.2-1.06c-1.8-9.48-3.85-18.91-5.54-28.43
									c-0.61-3.39-1.16-6.78-1.68-10.18c-0.1-0.6-0.2-1.21-0.28-1.81c-0.3-2.06-0.59-4.12-0.85-6.18
									c-0.02-0.13-0.03-0.27-0.05-0.4c-0.14-1.13-0.27-2.26-0.39-3.38c-0.03-0.25-0.06-0.51-0.08-0.75
									c-0.14-1.3-0.27-2.59-0.39-3.89c-0.13-1.43-0.25-2.86-0.34-4.28c-0.03-0.39-0.05-2.34-0.08-2.74
									c-0.02-0.23-0.03-0.46-0.04-0.69c0.02-0.05-0.02-0.1-0.09-0.14v-2.66c0.1-0.06,0.1-0.07,0.2-0.13
									c0.59,0.23,0.22-0.27,0.17-0.52c2.1-1.62,4.16-1.73,6.35-3.23c0.35-0.24,0.72-0.46,1.07-0.7c0.08-0.06,0.14-0.1,0.19-0.14
									c0.06-0.02,0.12-0.05,0.21-0.08c0.87-0.38,1.74-0.74,2.64-1.03c-0.04,0.03,1.08-0.26,1.17-0.27
									c0.67-0.11,1.34-0.19,2.02-0.25c0.45-0.04,0.9-0.07,1.35-0.09c0.64-0.03,1.17,0.48,1.16,1.12
									c-0.06,3.89-0.13,7.8-0.21,11.71c-0.04,1.82-0.07,3.64-0.1,5.45c-0.09,5.03-0.16,10.07-0.2,15.1
									c-0.04,4.7-0.04,11.46,0.02,16.13c0.04,3.57,0.1,7.13,0.21,10.67c0.07,2.39,0.32,9.39,0.48,13.81
									C80.63,262.9,80.67,264.06,80.69,264.7z"/>
							</g>
						</g>
					</g>
				</g>
			</g>
		</g>
		<g>
			<g>
				<g>
					<g>
						<g>
							<g>
								<path class="st4" d="M80.69,264.7c0.01,0.3-0.23,0.55-0.53,0.55H69.98c-0.32,0-0.6-0.13-0.81-0.34
									c-0.21-0.21-0.34-0.49-0.34-0.81c0-0.54,0.37-1.52,0.9-1.64l4.01-0.77c-0.12-0.02-0.05-0.13,0.04-0.23h6.8
									C80.63,262.9,80.67,264.06,80.69,264.7z"/>
							</g>
						</g>
					</g>
				</g>
			</g>
		</g>
		<g id="New_Symbol_69_2_">
			<g>
				<g>
					<g>
						<g>
							<g>
								<g>
									<path class="st3" d="M72.27,183.28c-0.01-0.01-0.02-0.03-0.02-0.04c-0.58-0.72-0.75-1.77-0.42-2.54l7.76-15.67
										c0.41-1.3,0.39-2.82-0.05-4.29c0,0-5.25-16.42-5.26-17.37l-0.01-0.02l0-0.01c0-1.67,0.8-3.31,2.29-4.31l0.01-0.01
										c0,0,0.01,0,0.01,0c0.02-0.01,0.04-0.03,0.06-0.04c2.4-1.55,5.61-0.86,7.16,1.54c0.71,1.1,4.12,22.62,4.12,22.62
										c0.41,1.99,0.03,3.94-1,5.2l-12.4,15.19C73.94,184.24,72.94,184.13,72.27,183.28z"/>
								</g>
							</g>
						</g>
					</g>
				</g>
			</g>
			<g>
				<g>
					<g>
						<g>
							<g>
								<g>
									<polygon class="st3" points="67.24,121.23 71.61,136.57 62.22,136.54 62.46,124.8 									"/>
								</g>
							</g>
						</g>
					</g>
				</g>
			</g>
			<g>
				<g>
					<g>
						<g>
							<g>
								<g>
									<path class="st5" d="M76.59,166.27l6.05-18.96c2.26-7.09-2.72-14.42-10.14-14.93l-10.46-0.72
										c-8.17-0.56-14.93,6.28-14.27,14.45l1.53,18.76L76.59,166.27z"/>
								</g>
							</g>
						</g>
					</g>
				</g>
			</g>
			<g>
				<g>
					<g>
						<g>
							<g>
								<g>
									<path class="st6" d="M48.43,159.56c2.91,0,29.66,1.27,29.66,1.27l3.16,6.84c1.75,3.79,2.51,7.95,2.22,12.11l-2.77,39.81
										l-40.54-2.14L48.43,159.56z"/>
								</g>
							</g>
						</g>
					</g>
				</g>
			</g>
			<g>
				<g>
					<g>
						<g>
							<g>
								<g>
									<path class="st3" d="M61.27,135.8c-0.27,1.55-1.97,2.2-2.58,2.88c-1.22,1.38-3.04,1.2-5.09,0.13l-10.58-10.9l-2.24-2.32
										c-0.81-1.24-1.38-2.28-1.61-2.93c0-0.01-9.97-28.94-9.97-28.94c-0.35-1.02,0.41-2.09,1.5-2.09c0.55,0,1.07,0.29,1.35,0.76
										c0,0,14.85,24.8,14.86,24.8c0.62,1.03,1.53,2.05,2.61,3.1C54.31,124.97,62.28,129.9,61.27,135.8z"/>
								</g>
							</g>
						</g>
					</g>
				</g>
			</g>
			<g>
				<g>
					<g>
						<g>
							<g>
								<g>
									<path class="st5" d="M61.27,135.8c-0.27,1.55-1.97,2.2-2.58,2.88c-1.22,1.38-3.04,1.2-5.09,0.13l-10.58-10.9l6.49-7.61
										C54.31,124.97,62.28,129.9,61.27,135.8z"/>
								</g>
							</g>
						</g>
					</g>
				</g>
			</g>
		</g>
		<g>
			<g>
				<g>
					<g>
						<g>
							<g>
								<g>
									<g>
										<path class="st7" d="M58.9,120.44c1.18,4.04,5.42,6.36,9.46,5.17c4.04-1.18,6.36-5.42,5.17-9.46
											c-1.18-4.04-5.42-6.36-9.46-5.17C60.03,112.16,57.72,116.39,58.9,120.44z"/>
									</g>
								</g>
							</g>
						</g>
					</g>
				</g>
			</g>
		</g>
		<g>
			<g>
				<g>
					<g>
						<g>
							<g>
								<g>
									<g>
										<path class="st3" d="M58.79,115.22c-1.75,3.2-0.57,7.21,2.63,8.96c1.27,0.7,2.67,0.93,4.01,0.76
											c2.02-0.26,3.89-1.46,4.94-3.38c1.75-3.2,0.58-7.21-2.62-8.96c-0.12-0.07-0.25-0.13-0.37-0.19
											C64.25,110.94,60.48,112.14,58.79,115.22z"/>
									</g>
								</g>
							</g>
						</g>
					</g>
				</g>
			</g>
		</g>
		<g>
			<g>
				<g>
					<g>
						<g>
							<g>
								<g>
									<g>
										<path class="st7" d="M66.38,111.08c0.62,0.29,1.34,0.53,2.08,0.74c0.19,0.27,0.45,0.51,0.81,0.71
											c0.23,0.13,0.47,0.21,0.69,0.26l1.51,2.97c1.25,1.96,1.42,4.52,0.23,6.71c-0.94,1.71-2.53,2.84-4.29,3.26
											c-0.42,0.15-0.37,1.31-0.81,1.36l1.34-9.88l-1.67-5.52c-0.05-0.23,0.24,0.67,0.24,0.44
											C66.57,112.16,66.32,111.05,66.38,111.08z"/>
									</g>
								</g>
							</g>
						</g>
					</g>
				</g>
			</g>
		</g>
		<g>
			<g>
				<g>
					<g>
						<g>
							<g>
								<path class="st7" d="M57.9,116.44h4.76v1.91c0,4.12,3.14,7.57,7.25,7.94l3.21,0.29l-3.16-13.79l-0.92-0.55
									c-3.65-2.2-8.4-0.9-10.42,2.85L57.9,116.44z"/>
							</g>
						</g>
					</g>
				</g>
			</g>
		</g>
		<g>
			<g>
				<g>
					<g>
						<g>
							<g>
								<path class="st7" d="M68.35,111.62c3.12-0.29,5.78,2.36,7.15,5.18c1.37,2.82,1.97,6,3.67,8.64c2.16,3.35,5.82,5.4,8.54,8.31
									c3.08,3.29,4.9,7.83,4.58,12.32c-0.33,4.5-2.93,8.85-6.92,10.94c-5.18,2.72-11.91,1.22-16.29-2.67
									c-4.37-3.89-6.62-9.74-7.22-15.56c-0.45-4.31-0.09-8.69-0.69-12.98c-0.41-2.96-1.28-6.03-0.39-8.89
									c1.47-4.73,8.27-6.74,12.07-3.56L68.35,111.62z"/>
							</g>
						</g>
					</g>
				</g>
			</g>
		</g>
	</g>
	<g>
		<g>
			<path class="st6" d="M25.93,28c0,9.9,7.02,17.92,15.68,17.92c8.66,0,15.68-8.02,15.68-17.92c0-9.9-7.02-17.92-15.68-17.92
				C32.95,10.08,25.93,18.11,25.93,28z"/>
		</g>
		<g>
			<path class="st8" d="M1.18,20.54c0,9.9,7.02,17.92,15.68,17.92c8.66,0,15.68-8.02,15.68-17.92c0-9.9-7.02-17.92-15.68-17.92
				C8.2,2.62,1.18,10.64,1.18,20.54z"/>
		</g>
		<g>
			<path class="st9" d="M8.64,47.42c0,9.9,7.02,17.92,15.68,17.92c8.66,0,15.68-8.02,15.68-17.92c0-9.9-7.02-17.92-15.68-17.92
				C15.66,29.5,8.64,37.52,8.64,47.42z"/>
		</g>
	</g>
</g>
</svg>
