<?xml version="1.0" encoding="utf-8"?>
<!-- Generator: Adobe Illustrator 24.0.1, SVG Export Plug-In . SVG Version: 6.00 Build 0)  -->
<svg version="1.1" id="cake" xmlns="http://www.w3.org/2000/svg" xmlns:xlink="http://www.w3.org/1999/xlink" x="0px" y="0px"
	 viewBox="0 0 286.5 225" style="enable-background:new 0 0 286.5 225;" xml:space="preserve">
<style type="text/css">
	.st0{fill:#577DE8;}
	.st1{fill:#FFD2BB;}
	.st2{fill:#6CCEFF;}
	.st3{fill:#1B3B78;}
	.st4{fill:#FE7375;}
	.st5{fill:#FAC75C;}
	.st6{fill:#0F9E9B;}
	.st7{opacity:0;}
	.st8{opacity:0.25;}
	.st9{opacity:0.5;}
	.st10{opacity:0.75;}
</style>
<g id="侹禖鼨懧鎀_6">
	<g>
		<polygon class="st0" points="176.93,71.22 184.46,54.78 189.29,73.27 		"/>
		<path class="st0" d="M186.58,50.82c0.31,0.78-0.06,1.66-0.84,1.97c-0.77,0.31-1.66-0.06-1.97-0.84c-0.31-0.77,0.06-1.66,0.84-1.97
			C185.38,49.67,186.26,50.05,186.58,50.82z"/>
	</g>
	<g>
		<g>
			<g>
				<g>
					<g>
						<g>
							<g>
								<g>
									<g>
										<g>
											<g>
												<g>
													<g>
														<path class="st1" d="M184.71,82.68l1.89,12.11c0.14,0.88-0.54,1.67-1.43,1.67l-6.48-0.02c-0.81,0-1.45-0.67-1.44-1.47
															l0.22-10.58L184.71,82.68z"/>
													</g>
												</g>
											</g>
										</g>
									</g>
								</g>
							</g>
						</g>
					</g>
				</g>
			</g>
		</g>
		<g>
			<g>
				<g>
					<g>
						<g>
							<g>
								<g>
									<g>
										<g>
											<g>
												<g>
													<g>
														<path class="st1" d="M160.12,81.47c-1.18-1.03-2.03-2.35-2.38-3.7l-1.74-16.46c-0.14-0.85-0.86-1.67-1.75-1.98
															c-0.01,0-0.03-0.01-0.04-0.01c-1.05-0.37-1.98,0.07-2.1,1l-2.55,18.56c-0.21,1.66,0.52,3.56,1.96,5.07
															c-3.22-3.54,11.66,12.68,14.53,16.29c0.03,0.02,0.06,0.04,0.1,0.06c0.01,0.01,0.02,0.01,0.04,0.02
															c0.33,0.15,0.66,0.35,0.99,0.5c0.31,0.14,0.75,0.3,0.97,0.38c0.37,0.06,0.79,0.13,1.05,0.25
															c0.14,0,0.29,0.01,0.41,0.01c0.02,0,0.03,0,0.05,0c-0.1-0.04,0.03-0.12,0.5-0.06c0.42-0.14,0.84-0.28,1.25-0.43
															c0.03-0.01,0.07-0.03,0.1-0.05c0.43-0.27,0.46-0.28,0.35-0.2c0.07-0.04,0.14-0.08,0.2-0.12
															c0.51-0.32,0.99-0.66,1.46-1.02c1.29-1,2.48-2.1,3.63-3.25L160.12,81.47z"/>
													</g>
												</g>
											</g>
										</g>
									</g>
								</g>
							</g>
						</g>
					</g>
				</g>
			</g>
		</g>
		<g>
			<g>
				<g>
					<g>
						<g>
							<g>
								<g>
									<g>
										<g>
											<g>
												<g>
													<g>
														<path class="st2" d="M190.58,124.71l4.61-21.66c1.25-3.92-1.5-7.99-5.61-8.27l-11.99-0.99
															c-7.3-0.5-13.34,5.61-12.74,12.91l1.37,16.76L190.58,124.71z"/>
													</g>
												</g>
											</g>
										</g>
									</g>
								</g>
							</g>
						</g>
					</g>
				</g>
			</g>
		</g>
		<path class="st3" d="M216.97,69.51c-1.95-0.32-3.8-0.04-5.42,0.68c-1.22,0.54-2.58,0.54-3.8,0c-1.17-0.52-2.46-0.81-3.83-0.81
			c-1.42,0-2.76,0.31-3.96,0.87c-1.13,0.52-2.41,0.52-3.54,0c-1.2-0.56-2.55-0.87-3.96-0.87c-1.14,0-2.23,0.2-3.23,0.57
			c-1.3,0.47-2.69,0.45-3.98-0.03c-2.25-0.83-4.86-0.74-7.23,0.56c-2.95,1.62-4.72,4.91-4.43,8.27c0.12,1.46,0.59,2.76,1.27,3.87
			c1.33,0.2,2.62,0.54,3.99,1.03c0.79,0.28,1.55,0.61,2.34,0.9c0.07,0.03,0.15,0.05,0.23,0.07c0.7,0.05,0.6,0.09,0.31,0.05
			c0.23,0.04,0.46,0.09,0.69,0.12c0.86,0.11,1.64,0.4,2.33,0.81c0.33-0.02,0.66-0.04,0.99-0.06c1.72,1.74,4.11,2.82,6.75,2.82
			c1.42,0,2.76-0.31,3.96-0.87c1.13-0.52,2.41-0.52,3.54,0c1.2,0.56,2.55,0.87,3.96,0.87c1.42,0,2.76-0.31,3.96-0.87
			c1.13-0.52,2.41-0.52,3.54,0c1.2,0.56,2.55,0.87,3.96,0.87c5.6,0,10.07-4.85,9.43-10.58C224.35,73.62,221.09,70.18,216.97,69.51z"
			/>
		<g>
			<g>
				<g>
					<g>
						<g>
							<g>
								<g>
									<g>
										<g>
											<g>
												<g>
													<g>
														<path class="st1" d="M173.92,76.93c-1.25,3.01-0.07,6.58,2.73,8.25c1.46,0.87,3.1,1.13,4.62,0.85
															c2.02-0.37,3.85-1.67,4.81-3.66c1.6-3.32,0.22-7.3-3.1-8.9c-0.13-0.06-0.26-0.12-0.39-0.17
															C179.25,71.93,175.35,73.49,173.92,76.93z"/>
													</g>
												</g>
											</g>
										</g>
									</g>
								</g>
							</g>
						</g>
					</g>
				</g>
			</g>
		</g>
		<g>
			<g>
				<g>
					<g>
						<g>
							<g>
								<g>
									<g>
										<g>
											<g>
												<g>
													<g>
														<path class="st3" d="M181.21,70.59l2.22,6.19l-0.12,6.44c0,0.01,0,0.02,0,0.02c0.07,0.03,0.15,0.05,0.22,0.08
															c0.88,0.19,1.66,0.58,2.35,1.19c0.14,0.11,0.27,0.23,0.4,0.34c0.7-0.63,1.29-1.39,1.72-2.29
															c1.24-2.56,0.89-5.46-0.64-7.63l-1.89-3.3c-0.26-0.04-0.53-0.13-0.81-0.26c-0.42-0.2-0.73-0.46-0.96-0.76
															c-0.85-0.2-1.69-0.42-2.41-0.72c-0.07-0.03,0.28,1.22,0.21,1.19C181.52,71.34,181.14,70.33,181.21,70.59z"/>
													</g>
												</g>
											</g>
										</g>
									</g>
								</g>
							</g>
						</g>
					</g>
				</g>
			</g>
		</g>
		<g>
			<g>
				<g>
					<g>
						<g>
							<g>
								<g>
									<g>
										<g>
											<g>
												<g>
													<g>
														<path class="st1" d="M182.69,80.95c-0.64,1.32-0.09,2.92,1.24,3.55c1.32,0.64,2.92,0.09,3.55-1.24
															c0.64-1.32,0.09-2.92-1.24-3.55C184.92,79.07,183.33,79.62,182.69,80.95z"/>
													</g>
												</g>
											</g>
										</g>
									</g>
								</g>
							</g>
						</g>
					</g>
				</g>
			</g>
		</g>
		<g>
			<g>
				<g>
					<g>
						<g>
							<g>
								<g>
									<g>
										<g>
											<g>
												<g>
													<g>
														<path class="st3" d="M181.1,78.36c2.06,1.97,4.71,2.55,5.92,1.29c1.21-1.26,0.51-3.88-1.55-5.86
															c-2.06-1.97-4.71-2.55-5.92-1.29C178.34,73.77,179.03,76.39,181.1,78.36z"/>
													</g>
												</g>
											</g>
										</g>
									</g>
								</g>
							</g>
						</g>
					</g>
				</g>
			</g>
		</g>
		<path class="st1" d="M210.98,215.44l-5.59,5.09c-0.48,0.64-1.22,0.98-1.97,0.98c-0.41,0-0.81-0.11-1.2-0.32
			c-1.02-0.56-1.51-1.76-1.17-2.87l3.59-3.92l-0.12-0.24l-19.07-33.69c-2.09-4.17-3.27-10.94-3.45-15.6l-0.01-0.37l-0.84-20.76
			l-6.03,0.02l-1.77,20.74l-4.57,53.34h-5.72l-1.84-53.34l-0.76-21.99c-0.1-2.79,0.39-5.59,1.42-8.19l4.31-10.86l25.48,1.24
			l3.58,10.53c0.88,2.57,1.19,5.33,0.89,8.03l-1.34,12.36c-0.32,2.96-0.42,5.93-0.3,8.88c0.22,5.85,1.29,13.85,3.19,19.42
			l11.38,25.93L210.98,215.44z"/>
		<path class="st1" d="M155.5,60.11c0.02-0.02,0.04-0.04,0.05-0.07l-6.56-3.33c-0.12,0.15-0.23,0.32-0.32,0.49
			c-0.91,1.78,0.07,4.09,2.17,5.16c1.34,0.68,2.81,0.69,3.94,0.15C154.83,61.64,155.06,60.76,155.5,60.11z"/>
		<g>
			<g>
				<g>
					<g>
						<g>
							<g>
								<g>
									<g>
										<g>
											<g>
												<g>
													<g>
														<path class="st1" d="M214.91,63.5c-0.02,0-0.03,0.01-0.04,0.01c-0.94,0.14-1.8,0.8-2.1,1.61l-5.19,17.18
															c-0.61,1.26-1.69,2.39-3.05,3.17c0,0-15.45,8.61-16.13,9.31l-0.02,0.01l0,0.01c-1.18,1.25-1.72,3.04-1.31,4.83l0,0.02
															l0.01,0.01c0.01,0.03,0.01,0.05,0.02,0.07c0.71,2.85,3.59,4.58,6.44,3.87c1.31-0.33,18.96-14.04,18.96-14.04
															c1.7-1.2,2.79-2.93,2.9-4.6l1.38-20.07C216.84,63.96,216.01,63.34,214.91,63.5z"/>
													</g>
												</g>
											</g>
										</g>
									</g>
								</g>
							</g>
						</g>
					</g>
				</g>
			</g>
		</g>
		<path class="st1" d="M220.52,61.4c-0.09-0.18-0.2-0.34-0.32-0.49l-6.94,3.53c0.34,0.54,0.61,1.13,0.7,1.67
			c0.04,0.13,0.05,0.26,0.08,0.39c1.16,0.74,2.82,0.83,4.31,0.07C220.46,65.5,221.43,63.18,220.52,61.4z"/>
		<path class="st0" d="M196.15,146.61c0,0-0.66,21.33-0.54,24.77h-35.84v-24.13c0-3.21,0.52-10.78,1.54-13.76l4.9-11.08l24.7,0.75
			l4.35,10.78C196.14,136.95,196.45,143.46,196.15,146.61z"/>
		<path class="st3" d="M210.98,215.44l-5.59,5.09c-0.48,0.64-1.22,0.98-1.97,0.98c-0.41,0-0.81-0.11-1.2-0.32
			c-1.02-0.56-1.51-1.76-1.17-2.87l3.59-3.92l-0.12-0.24l4.55-4.31L210.98,215.44z"/>
		<path class="st3" d="M163.07,217.84l-6.5,2.44c-0.79,0.25-1.33,0.99-1.33,1.82l0,0c0,1.05,0.85,1.91,1.91,1.91h11.54v-6.16H163.07
			z"/>
	</g>
</g>
<g>
	<path class="st4" d="M98.88,59.6c0,0,4.25-5.65,11.79-7.35l6.79,4.47c0,0-11.7-0.54-14.18,8.84L98.88,59.6z"/>
	<polygon class="st5" points="235.64,1.93 242.83,9.83 235.64,11.26 231.33,3.72 	"/>
	<path class="st5" d="M70.63,62.56c0,0,3.28-9.5,2.8-14.7c0,0,5.53-5.81,6.68-7.43c0,0-0.46,12.88-2.79,17.14L70.63,62.56z"/>
	<polygon class="st6" points="3.55,33.96 1.95,22.79 8.15,13.98 10.9,23.52 	"/>
	<polygon class="st6" points="282.48,7.44 278.73,4.62 280.21,4.01 282.61,4.28 283.95,5.66 284.61,6.65 	"/>
	<polygon class="st6" points="250.35,92.42 245.79,90.19 252.44,85.85 261.86,90.69 262.4,93.8 257.27,96.23 	"/>
	<g>
		<path class="st4" d="M205.34,14.36c3.35-0.78,6.34-0.64,9.28,1.02c0.39,0.22,0.04,3.28,0.04,3.66c0,0.34-0.35,3.49-0.04,3.66
			c-2.95-1.67-5.94-1.81-9.28-1.02c0.12-0.03-0.04-3.45-0.04-3.66C205.29,17.79,205.12,14.41,205.34,14.36L205.34,14.36z"/>
	</g>
	<g>
		<g>
			<g class="st7">
				<path class="st4" d="M73.1,67.04c0.71,1.66,1.81,2.76,3.73,3.52c1.77,0.7,3.58,1.14,5.15,2.13c-0.02-0.01-6.66,6.7-6.79,6.62
					c-1.56-0.98-3.35-1.49-5.15-2.13c-1.93-0.69-3.03-1.9-3.73-3.52c-0.15-0.35,3.05-3.04,3.36-3.34
					C69.94,70.06,73.21,67.31,73.1,67.04L73.1,67.04z"/>
			</g>
			<g class="st8">
				<path class="st4" d="M73.15,67.62c0.65,1.51,1.65,2.52,3.4,3.21c1.62,0.64,3.27,1.04,4.7,1.94c-0.01-0.01-6.07,6.11-6.19,6.04
					c-1.42-0.89-3.06-1.35-4.7-1.94c-1.76-0.63-2.76-1.73-3.4-3.21c-0.14-0.32,2.78-2.77,3.06-3.04
					C70.27,70.37,73.25,67.86,73.15,67.62L73.15,67.62z"/>
			</g>
			<g class="st9">
				<path class="st4" d="M73.2,68.19c0.59,1.37,1.49,2.27,3.07,2.9c1.46,0.58,2.95,0.94,4.24,1.75c-0.01-0.01-5.48,5.52-5.59,5.45
					c-1.28-0.81-2.76-1.22-4.24-1.75c-1.59-0.57-2.5-1.56-3.07-2.9c-0.13-0.29,2.51-2.5,2.76-2.75C70.6,70.67,73.3,68.4,73.2,68.19
					L73.2,68.19z"/>
			</g>
			<g class="st10">
				<path class="st4" d="M73.26,68.76c0.52,1.22,1.33,2.03,2.74,2.59c1.3,0.51,2.63,0.84,3.79,1.57c-0.01-0.01-4.9,4.93-4.99,4.87
					c-1.14-0.72-2.47-1.09-3.79-1.57c-1.42-0.51-2.23-1.4-2.74-2.59c-0.11-0.26,2.24-2.23,2.47-2.45
					C70.94,70.98,73.34,68.95,73.26,68.76L73.26,68.76z"/>
			</g>
			<path class="st4" d="M73.31,69.33c0.46,1.07,1.17,1.79,2.41,2.28c1.15,0.45,2.32,0.74,3.33,1.38c-0.01-0.01-4.31,4.34-4.39,4.28
				c-1.01-0.63-2.17-0.96-3.33-1.38c-1.25-0.45-1.96-1.23-2.41-2.28c-0.1-0.23,1.97-1.96,2.17-2.16
				C71.27,71.29,73.39,69.5,73.31,69.33L73.31,69.33z"/>
		</g>
	</g>
</g>
</svg>
