<?xml version="1.0" encoding="utf-8"?>
<!-- Generator: Adobe Illustrator 24.0.1, SVG Export Plug-In . SVG Version: 6.00 Build 0)  -->
<svg version="1.1" id="圖層_1" xmlns="http://www.w3.org/2000/svg" xmlns:xlink="http://www.w3.org/1999/xlink" x="0px" y="0px"
	 viewBox="0 0 73.07 169.8" style="enable-background:new 0 0 73.07 169.8;" xml:space="preserve">
<style type="text/css">
	.st0{fill:#6CCEFF;}
	.st1{fill:#1B3B78;}
	.st2{fill:#FFD2BB;}
	.st3{fill:#FFFFFF;}
	.st4{fill:#5BC5C9;}
	.st5{fill:#FD7752;}
	.st6{fill:#F3CC80;}
	.st7{fill:#FF6E8B;}
</style>
<g>
	<g>
		<polygon class="st0" points="26.82,16.64 12.16,6.05 17.08,24.52 		"/>
		<circle class="st0" cx="9.87" cy="3.46" r="1.51"/>
	</g>
	<g>
		<g>
			<g>
				<g>
					<g>
						<g>
							<g>
								<g>
									<g>
										<g>
											<g>
												<g>
													<g>
														<path class="st1" d="M1.85,41.93c1.34-3.61,4.32-6.04,7.73-6.84c1.84-0.43,3.59-1.28,4.87-2.67
															c1.41-1.53,2.08-3.27,2.65-5.85c0.29-1.31,1.82-1.92,2.93-1.17l10.84,7.27c-5.59,3.56-7.32,5.06-8.07,11.64
															c0.36,2.81-0.35,5.8-2.46,8.29c-2.91,3.43-7.7,4.78-11.94,3.28C2.6,53.82-0.19,47.46,1.85,41.93z"/>
													</g>
												</g>
											</g>
										</g>
									</g>
								</g>
							</g>
						</g>
					</g>
				</g>
			</g>
		</g>
	</g>
	<g>
		<g>
			<g>
				<g>
					<g>
						<g>
							<g>
								<g>
									<g>
										<g>
											<g>
												<g>
													<g>
														<path class="st2" d="M23.06,29.96l-0.97,11.78c-0.14,0.88-0.38,2,0.51,2l6.48-0.02c0.81,0,1.45-0.67,1.44-1.47
															l-0.22-10.58L23.06,29.96z"/>
													</g>
												</g>
											</g>
										</g>
									</g>
								</g>
							</g>
						</g>
					</g>
				</g>
			</g>
		</g>
	</g>
	<g>
		<g>
			<g>
				<g>
					<g>
						<g>
							<g>
								<g>
									<g>
										<g>
											<g>
												<g>
													<g>
														<g>
															<path class="st1" d="M16.99,23.58c1.19-5.61,7.29-8.55,12.43-6c3.5,1.74,5.43,5.72,4.61,9.55
																c-0.22,1.02-0.6,1.95-1.11,2.77c-1.33,0.2-2.62,0.54-3.99,1.03c-0.79,0.28-1.55,0.61-2.34,0.9
																c-0.07,0.03-0.15,0.05-0.23,0.07c-0.7,0.05-0.6,0.09-0.31,0.05c-0.23,0.04-0.46,0.09-0.69,0.12
																c-0.86,0.11-1.64,0.4-2.33,0.81c-0.72-0.05-1.43-0.1-2.15-0.14C17.85,30.83,16.23,27.14,16.99,23.58z"/>
														</g>
													</g>
												</g>
											</g>
										</g>
									</g>
								</g>
							</g>
						</g>
					</g>
				</g>
			</g>
		</g>
		<g>
			<g>
				<g>
					<g>
						<g>
							<g>
								<g>
									<g>
										<g>
											<g>
												<g>
													<g>
														<g>
															<path class="st2" d="M33.85,24.2c1.25,3.01,0.07,6.58-2.73,8.25c-1.46,0.87-3.1,1.13-4.62,0.85
																c-2.02-0.37-3.85-1.67-4.81-3.66c-1.6-3.32-0.22-7.3,3.1-8.9c0.13-0.06,0.26-0.12,0.39-0.17
																C28.52,19.2,32.42,20.76,33.85,24.2z"/>
														</g>
													</g>
												</g>
											</g>
										</g>
									</g>
								</g>
							</g>
						</g>
					</g>
				</g>
			</g>
		</g>
		<g>
			<g>
				<g>
					<g>
						<g>
							<g>
								<g>
									<g>
										<g>
											<g>
												<g>
													<g>
														<g>
															<path class="st1" d="M26.56,17.87l-2.22,6.19l0.12,6.44c0,0.01,0,0.02,0,0.02c-0.07,0.03-0.15,0.05-0.22,0.08
																c-0.88,0.19-1.66,0.58-2.35,1.19c-0.14,0.11-0.27,0.23-0.4,0.34c-0.7-0.63-1.29-1.39-1.72-2.29
																c-1.24-2.56-0.89-5.46,0.64-7.63l1.89-3.3c0.26-0.04,0.53-0.13,0.81-0.26c0.42-0.2,0.73-0.46,0.96-0.76
																c0.85-0.2,1.69-0.42,2.41-0.72c0.07-0.03-0.28,1.22-0.21,1.19C26.25,18.62,26.63,17.6,26.56,17.87z"/>
														</g>
													</g>
												</g>
											</g>
										</g>
									</g>
								</g>
							</g>
						</g>
					</g>
				</g>
			</g>
		</g>
		<g>
			<g>
				<g>
					<g>
						<g>
							<g>
								<g>
									<g>
										<g>
											<g>
												<g>
													<g>
														<g>
															<path class="st2" d="M25.08,28.22c0.64,1.32,0.09,2.92-1.24,3.55c-1.32,0.64-2.91,0.09-3.55-1.24
																c-0.64-1.32-0.09-2.92,1.24-3.55S24.44,26.9,25.08,28.22z"/>
														</g>
													</g>
												</g>
											</g>
										</g>
									</g>
								</g>
							</g>
						</g>
					</g>
				</g>
			</g>
		</g>
		<g>
			<g>
				<g>
					<g>
						<g>
							<g>
								<g>
									<g>
										<g>
											<g>
												<g>
													<g>
														<g>
															<path class="st1" d="M26.68,25.64c-2.06,1.97-4.71,2.55-5.92,1.29c-1.21-1.26-0.51-3.88,1.55-5.86
																c2.06-1.97,4.71-2.55,5.92-1.29C29.43,21.04,28.74,23.66,26.68,25.64z"/>
														</g>
													</g>
												</g>
											</g>
										</g>
									</g>
								</g>
							</g>
						</g>
					</g>
				</g>
			</g>
		</g>
	</g>
	<g>
		<g>
			<g>
				<g>
					<g>
						<g>
							<g>
								<g>
									<g>
										<g>
											<g>
												<g>
													<g>
														<path class="st2" d="M11.62,169.8h10.79c0.91,0,1.47-1.04,0.93-1.77c-0.01-0.01-0.01-0.01-0.01-0.01
															c-0.13-0.19-0.29-0.35-0.46-0.51c-0.63-0.62-1.46-1.08-2.25-1.28c-1.48-0.34-3.21-0.75-3.21-0.75
															c0.02-0.12,0.04-0.24,0.06-0.36c2.44-14.22,7.14-27.39,9.57-41.71c1.44-8.47,2.27-17.36,1.79-27.11H12.86
															c1.38,11.68,1.84,19.01,1.4,28.64c-0.59,12.86-1.92,27.29-2.48,40.18c-0.04,0.8-0.07,1.6-0.1,2.39
															c-0.01,0.17-0.01,0.34-0.01,0.5C11.65,168.6,11.63,169.2,11.62,169.8z"/>
													</g>
												</g>
											</g>
										</g>
									</g>
								</g>
							</g>
						</g>
					</g>
				</g>
			</g>
		</g>
	</g>
	<g>
		<path class="st2" d="M50.56,168.01c-0.13-0.19-0.29-0.35-0.45-0.51c-0.63-0.62-1.46-1.08-2.25-1.28
			c-1.49-0.34-3.21-0.75-3.21-0.75c0.02-0.12,0.04-0.24,0.06-0.36c3.44-20.47,5.53-34.5,5.31-42.34h-5.48
			c-0.01,0.05-0.02,0.08-0.03,0.13c0.01-0.04,0.01-0.09,0.02-0.13h-5.76c0.08,14.79,0.38,32.42,0.2,42.34
			c-0.02,0.86-0.04,1.66-0.06,2.39c-0.01,0.17-0.01,0.34-0.02,0.5c-0.02,0.5-0.03,1-0.04,1.51h10.92c0.77,0,1.24-0.87,0.78-1.49
			C50.56,168.02,50.56,168.01,50.56,168.01z"/>
	</g>
	<g>
		<g>
			<g>
				<g>
					<g>
						<g>
							<g>
								<g>
									<g>
										<g>
											<g>
												<g>
													<g>
														<path class="st3" d="M42.93,53.98l-1.36,16.76l-24.37,1.24l-4.62-21.65c-1.25-3.93,1.51-7.99,5.62-8.27l3.89-0.32
															l8.1-0.66c1.4-0.1,2.75,0.05,4.03,0.4C39.56,42.96,43.41,48.08,42.93,53.98z"/>
													</g>
												</g>
											</g>
										</g>
									</g>
								</g>
							</g>
						</g>
					</g>
				</g>
			</g>
		</g>
	</g>
	<g>
		<g>
			<g>
				<g>
					<g>
						<g>
							<g>
								<g>
									<g>
										<g>
											<g>
												<g>
													<g>
														<path class="st4" d="M41.9,69.7c-2.99,0-25.37,1.31-25.37,1.31L11.6,81.7c-0.68,1.48-0.98,3.11-0.87,4.74l3.49,41.75
															l35.79-5.42L41.9,69.7z"/>
													</g>
												</g>
											</g>
										</g>
									</g>
								</g>
							</g>
						</g>
					</g>
				</g>
			</g>
		</g>
	</g>
	<g>
		<g>
			<g>
				<g>
					<g>
						<g>
							<g>
								<g>
									<g>
										<g>
											<g>
												<g>
													<g>
														<path class="st4" d="M38.9,168.01c-0.02,0.5-0.03,1-0.04,1.51h10.92c0.77,0,1.24-0.87,0.78-1.49
															c0-0.01-0.01-0.01-0.01-0.01c-0.13-0.19-0.29-0.35-0.45-0.51c-0.63-0.62-1.46-1.08-2.25-1.28
															c-1.49-0.34-3.21-0.75-3.21-0.75c0.02-0.12,0.04-0.24,0.06-0.36h-5.73c-0.02,0.86-0.04,1.66-0.06,2.39
															C38.91,167.68,38.9,167.84,38.9,168.01z"/>
													</g>
												</g>
											</g>
										</g>
									</g>
								</g>
							</g>
						</g>
					</g>
				</g>
			</g>
		</g>
	</g>
	<g>
		<g>
			<g>
				<g>
					<g>
						<g>
							<g>
								<g>
									<g>
										<g>
											<g>
												<g>
													<g>
														<path class="st4" d="M11.62,169.8h10.79c0.91,0,1.47-1.04,0.93-1.77c-0.01-0.01-0.01-0.01-0.01-0.01
															c-0.13-0.19-0.29-0.35-0.46-0.51c-0.63-0.62-1.46-1.08-2.25-1.28c-1.48-0.34-3.21-0.75-3.21-0.75
															c0.02-0.12,0.04-0.24,0.06-0.36h-5.69c-0.04,0.8-0.07,1.6-0.1,2.39c-0.01,0.17-0.01,0.34-0.01,0.5
															C11.65,168.6,11.63,169.2,11.62,169.8z"/>
													</g>
												</g>
											</g>
										</g>
									</g>
								</g>
							</g>
						</g>
					</g>
				</g>
			</g>
		</g>
	</g>
	<g>
		<path class="st5" d="M48.19,36.75c0,1.33,0.54,2.54,1.41,3.42c0.88,0.89,2.1,1.44,3.45,1.44c1.35,0,2.57-0.55,3.45-1.44
			c0.87-0.88,1.41-2.09,1.41-3.42c0-1.39-0.58-2.64-1.52-3.52l0,0h0.01l-3.35-3.35l-3.35,3.35h0.01l0,0
			C48.77,34.11,48.19,35.36,48.19,36.75z"/>
	</g>
	<g>
		<path class="st6" d="M54.95,36.45c0,1.05-0.85,1.9-1.9,1.9c-1.05,0-1.9-0.85-1.9-1.9c0-1.05,0.85-1.9,1.9-1.9
			C54.1,34.54,54.95,35.39,54.95,36.45z"/>
	</g>
	<g>
		<rect x="50.86" y="43.41" class="st4" width="4.38" height="7"/>
	</g>
	<g>
		<g>
			<path class="st7" d="M71.77,58.36c-0.9,1.33-2.25,3.35-4.96,3.35c-2.71,0-4.07-2.01-4.96-3.35c-0.84-1.25-1.17-1.61-1.71-1.61
				c-0.54,0-0.87,0.36-1.71,1.61c-0.9,1.33-2.25,3.35-4.96,3.35c-0.14,0-0.28-0.01-0.41-0.02c-0.13,0.01-0.27,0.02-0.41,0.02
				c-2.71,0-4.06-2.01-4.96-3.35c-0.84-1.25-1.17-1.61-1.71-1.61c-0.54,0-0.87,0.36-1.71,1.61c-0.9,1.33-2.25,3.35-4.96,3.35
				c-2.71,0-4.07-2.01-4.96-3.35c-0.04-0.06-0.08-0.11-0.12-0.17v15.5h18.83h18.83v-15.5C71.84,58.25,71.81,58.3,71.77,58.36z"/>
		</g>
		<g>
			<path class="st2" d="M53.05,50.27H34.22v2.82v5.09c0.04,0.06,0.08,0.11,0.12,0.17c0.9,1.33,2.25,3.35,4.96,3.35
				c2.71,0,4.07-2.01,4.96-3.35c0.84-1.25,1.17-1.61,1.71-1.61c0.54,0,0.87,0.36,1.71,1.61c0.9,1.33,2.25,3.35,4.96,3.35
				c0.14,0,0.28-0.01,0.41-0.02c0.13,0.01,0.27,0.02,0.41,0.02c2.71,0,4.06-2.01,4.96-3.35c0.84-1.25,1.17-1.61,1.71-1.61
				c0.54,0,0.87,0.36,1.71,1.61c0.9,1.33,2.25,3.35,4.96,3.35c2.71,0,4.07-2.01,4.96-3.35c0.04-0.06,0.08-0.11,0.12-0.17V53.1v-2.82
				H53.05z"/>
		</g>
	</g>
	<g>
		<path class="st2" d="M11.21,49.07l1.83,22.83c0.18,2.27,2.08,4.02,4.35,4.02h30.85c1.28,0,2.31-1.04,2.31-2.31l0,0
			c0-1.13-0.82-2.1-1.94-2.28l-26.05-4.27V48.62c0-3.48-3.1-6.14-6.54-5.62l0,0C13.08,43.45,10.97,46.1,11.21,49.07z"/>
	</g>
	<g>
		<path class="st2" d="M34.21,41.47v2.39c0,2.79-3.07,4.48-5.42,3l-7.62-4.8l0.92-0.33l8.1-0.66
			C31.58,40.98,32.94,41.13,34.21,41.47z"/>
	</g>
</g>
</svg>
