<?xml version="1.0" encoding="utf-8"?>
<!-- Generator: Adobe Illustrator 24.0.1, SVG Export Plug-In . SVG Version: 6.00 Build 0)  -->
<svg version="1.1" id="圖層_1" xmlns="http://www.w3.org/2000/svg" xmlns:xlink="http://www.w3.org/1999/xlink" x="0px" y="0px"
	 viewBox="0 0 150 170" style="enable-background:new 0 0 150 170;" xml:space="preserve">
<style type="text/css">
	.st0{fill:#FFFFFF;}
</style>
<g>
	<path class="st0" d="M68.19,47.21c0,0-5.07-1.15-12.34-12.86c-4.45-7.17-4.61-18,3.12-21.09C70.66,8.6,75.48,46.79,75.48,46.79
		l-0.05-0.36c0,0,3.22-50.82-18.88-45.08c-19.89,5.17-5.57,37.2,10.86,46.01L68.19,47.21z"/>
	<path class="st0" d="M83.35,45.6c0,0,6.02-3.66,10.74-11.37c5.52-9.02,9.33-22.46,0.4-25.16C87.39,6.94,81.47,16.04,79,25.65
		c-2.47,9.61-1.95,19.63-1.95,19.63l-0.13,0.08c0,0-4.98-46.67,20.07-42.42c20.26,3.43,3.23,33.96-13.2,42.77L83.35,45.6z"/>
	<path class="st0" d="M84.8,46.42c0.28-0.29,0.73-0.58,1.05-0.8c2.87-1.97,8.01-5.99,18.94-5.98c10.9-1.57,24.48,2.26,34.23-16.27
		c1.5,5.12,4.82,7.58,9.07,6.06c-0.03-0.92-1.83,3.25-5.13,6.87c-3.29,3.78-8.06,7-13.93,7.97c-5.86,1.13-12.82,0-20.38-1.13
		C101.12,42.16,92.96,41.19,84.8,46.42z"/>
	<path class="st0" d="M65.2,48.68c-0.28-0.29-0.73-0.58-1.05-0.8c-2.87-1.97-8.01-5.99-18.94-5.98
		c-10.9-1.57-24.48,2.26-34.23-16.27c-1.5,5.12-4.82,7.58-9.07,6.06c0.03-0.92,1.83,3.25,5.13,6.87c3.29,3.78,8.06,7,13.93,7.97
		c5.86,1.13,12.82,0,20.38-1.13C48.88,44.42,57.04,43.45,65.2,48.68z"/>
	<polygon class="st0" points="5.79,52.74 6.19,90.1 19.17,90.1 19.17,75.56 26.38,75.56 26.38,90.1 38.73,90.1 38.73,52.74 
		26.73,52.74 26.73,67.89 19.35,67.89 19.35,52.74 	"/>
	<path class="st0" d="M63.37,52.58l-13.29-0.31L37.03,90.1h13.89l2.45-9.46l4.81,0.02l1.29,9.44h12.46L63.37,52.58z M55.04,71.7
		l1.56-7.61l0.64,0.01l0.39,7.63L55.04,71.7z"/>
	<polygon class="st0" points="131.59,52.74 145.6,52.74 145.6,90.1 132.04,90.1 132.04,72.15 115.72,52.74 124.78,52.74 
		131.59,60.63 	"/>
	<g>
		<polygon class="st0" points="68.58,52.42 71.56,90.06 83.63,89.9 83.83,52.59 		"/>
		<path class="st0" d="M83.01,52.58c0,0,13.78-0.56,15.32,10c1.47,10.07-4,18.39-15.65,16.97l-0.01-4.65c0,0,7.24,1,7.55-6
			c0.27-6.01-7.56-4.21-7.56-4.21L83.01,52.58z"/>
	</g>
	<g>
		<rect x="21.46" y="92.52" class="st0" width="9.57" height="27.34"/>
		<path class="st0" d="M30.51,92.52c0,0,8.62-0.68,10.38,5.14c1.22,4.02-1.18,8.43-10.61,8.1v-3.06c0,0,5.85,0.22,5.61-2.92
			c-0.25-3.44-5.61-2.21-5.61-2.21L30.51,92.52z"/>
		<path class="st0" d="M30.51,119.85c0,0,11.4,0.8,13.61-5.27c2.7-7.43-5.01-12.85-13.83-11.82v3.06c0,0,8.93-0.46,7.19,5.57
			c-0.88,3.06-7.19,2.1-7.19,2.1L30.51,119.85z"/>
	</g>
	<g>
		<rect x="62.32" y="92.52" class="st0" width="9.57" height="27.34"/>
		<path class="st0" d="M71.43,92.52c0,0,11.08-0.75,13.35,5.68c1.56,4.44-1.51,10.08-13.64,9.71v-4.14c0,0,7,0.25,6.7-3.22
			c-0.33-3.8-6.7-2.44-6.7-2.44L71.43,92.52z"/>
	</g>
	<g>
		<rect x="48.3" y="92.52" class="st0" width="9.57" height="27.34"/>
	</g>
	<g>
		<g>
			<rect x="90.65" y="92.52" class="st0" width="9.57" height="27.34"/>
		</g>
		<g>
			<rect x="85.95" y="92.52" class="st0" width="19" height="8.41"/>
		</g>
	</g>
	<g>
		<g>
			<rect x="106.85" y="92.52" class="st0" width="9.57" height="27.34"/>
		</g>
		<g>
			<rect x="120.23" y="92.52" class="st0" width="9.57" height="27.34"/>
		</g>
		<g>
			<rect x="108.94" y="103.24" class="st0" width="19" height="6.11"/>
		</g>
	</g>
	<g>
		<polygon class="st0" points="96.63,52.74 98.26,89.86 109.08,90 111.87,52.75 		"/>
		<path class="st0" d="M111.03,52.75c0,0,14.25-0.82,14.57,10.79c0.28,10.42-5.89,18.46-16.74,16.93l0.29-4.47
			c0,0,6.81,1.06,7.72-5.91c0.82-6.21-7.05-4.34-7.05-4.34L111.03,52.75z"/>
	</g>
	<path class="st0" d="M71.14,108.11c0,0,6.22-0.31,6.07,2.39c-0.15,2.69-1.84,9.59-1.84,9.59l9.66,0.96c0,0,2.47-8.03,1.79-10.93
		c-0.68-2.9-8.33-3.69-8.33-3.69L71.14,108.11z"/>
	<path class="st0" d="M21.46,122.56l0,31.09c0,0,33.32,5.31,33.83-16.21C55.8,115.93,21.46,122.56,21.46,122.56z M43.24,138.88
		c-0.26,5.03-8.07,4.83-8.07,4.83l0.38-10.75C35.55,132.96,43.57,132.47,43.24,138.88z"/>
	<path class="st0" d="M77.85,122.56c-5.59,0.1-12.23,0.53-16.67,10.69c-5.46,12.5-3.54,20.4-3.54,20.4l13.16,0
		c0,0,0.35-24.99,6.76-23.51s3.94,23.51,3.94,23.51h14.1C95.6,153.66,97.92,122.21,77.85,122.56z"/>
	<rect x="68.78" y="138.73" class="st0" width="15.43" height="5.82"/>
	<path class="st0" d="M116.42,122.56l13.38,0l-0.09,19.85c-0.03,6.19-5.1,11.16-11.29,11.07l-16.61-0.25l-0.18-7.71l12.03-0.43
		c1.17-0.04,2.08-1.02,2.04-2.19l-0.07-1.85c0,0-17.14,1.18-19.36-16.94l9.56-1.55c0,0,3.21,11.05,10.59,10.84L116.42,122.56z"/>
	<g>
		<path class="st0" d="M120.69,157.57c0,0-35.84-1.33-41.65-1.23c-5.81,0.1-57.58-0.31-57.58-0.31v12.15c0,0,59.82,0.21,67.58,0.42
			c7.76,0.2,40.43,0.51,40.43,0.51v-11.54H120.69z M55.41,165.68c0,0.26-0.15,0.39-0.43,0.39c-0.32,0-0.48-0.13-0.48-0.39v-6.58
			h-2.11c-0.3,0-0.46-0.17-0.46-0.5c0-0.26,0.16-0.39,0.48-0.39l5.06,0c0.32,0,0.48,0.13,0.48,0.39c0,0.33-0.15,0.5-0.46,0.5h-2.06
			L55.41,165.68z M63.91,165.26c-0.73,0.61-1.68,0.92-2.84,0.92c-1.13,0-2.06-0.35-2.8-1.03c-0.74-0.69-1.11-1.63-1.11-2.83
			c0.01-0.9,0.27-1.7,0.78-2.4c0.51-0.7,0.95-1.04,1.32-1.04c-0.11-0.03-0.16-0.14-0.16-0.33c0-0.1,0.08-0.21,0.25-0.31
			c0.48-0.06,1.05-0.1,1.72-0.12c1.09,0.03,2.04,0.36,2.86,1.01c0.81,0.65,1.22,1.73,1.22,3.24
			C65.05,163.68,64.63,164.64,63.91,165.26z M75.13,159.17l-2.42,4.58v1.84c0,0.3-0.15,0.46-0.46,0.48
			c-0.31-0.02-0.47-0.18-0.47-0.48v-1.84l-2.38-4.62c-0.09-0.15-0.14-0.3-0.17-0.46c0-0.3,0.14-0.47,0.42-0.51
			c0.27,0,0.48,0.19,0.63,0.56l1.97,3.82l2-3.78c0.15-0.37,0.36-0.56,0.63-0.56c0.28,0.04,0.42,0.22,0.42,0.51
			C75.27,158.87,75.21,159.02,75.13,159.17z M82.33,165.26c-0.73,0.61-1.68,0.92-2.84,0.92c-1.13,0-2.06-0.35-2.8-1.03
			c-0.74-0.69-1.11-1.63-1.11-2.83c0.01-0.9,0.27-1.7,0.78-2.4c0.51-0.7,0.95-1.04,1.32-1.04c-0.11-0.03-0.16-0.14-0.16-0.33
			c0-0.1,0.08-0.21,0.25-0.31c0.48-0.06,1.05-0.1,1.72-0.12c1.09,0.03,2.04,0.36,2.86,1.01c0.81,0.65,1.22,1.73,1.22,3.24
			C83.47,163.68,83.06,164.64,82.33,165.26z M90.23,165.73c0,0.22-0.14,0.33-0.43,0.35c-0.28,0-0.44-0.11-0.49-0.33
			c-0.25,0.21-0.7,0.31-1.37,0.32c-1.14,0-2.1-0.28-2.88-0.84c-0.78-0.56-1.19-1.42-1.24-2.58c0-0.92,0.11-2.26,0.32-4.01
			c0.03-0.33,0.19-0.49,0.47-0.49c0.29,0.01,0.44,0.18,0.44,0.52c-0.21,1.81-0.31,3.13-0.31,3.97c0,0.83,0.29,1.47,0.87,1.9
			c0.58,0.43,1.38,0.65,2.42,0.65c0.57,0,0.99-0.12,1.26-0.35v-6.26c0.04-0.31,0.2-0.46,0.48-0.46c0.3,0,0.45,0.16,0.45,0.47V165.73
			z"/>
		<path class="st0" d="M81.64,159.73c-0.65-0.52-1.36-0.79-2.15-0.82l-0.51,0.05c0.54,0.1,0.82,0.32,0.82,0.67
			c-0.03,0.18-0.16,0.27-0.38,0.27c-0.14,0-0.28-0.06-0.44-0.17c-0.15-0.11-0.38-0.17-0.69-0.17c-0.33,0-0.71,0.27-1.12,0.82
			c-0.42,0.55-0.63,1.2-0.63,1.95c0.03,1.08,0.34,1.84,0.93,2.29c0.6,0.45,1.27,0.68,2.04,0.7c0.75,0,1.45-0.21,2.08-0.63
			c0.63-0.42,0.98-1.2,1.03-2.34C82.61,161.12,82.28,160.25,81.64,159.73z"/>
		<path class="st0" d="M63.21,159.73c-0.65-0.52-1.36-0.79-2.15-0.82l-0.51,0.05c0.54,0.1,0.82,0.32,0.82,0.67
			c-0.03,0.18-0.16,0.27-0.38,0.27c-0.14,0-0.28-0.06-0.44-0.17c-0.15-0.11-0.38-0.17-0.69-0.17c-0.33,0-0.71,0.27-1.12,0.82
			c-0.42,0.55-0.63,1.2-0.63,1.95c0.03,1.08,0.34,1.84,0.93,2.29c0.6,0.45,1.27,0.68,2.04,0.7c0.75,0,1.45-0.21,2.08-0.63
			c0.63-0.42,0.98-1.2,1.03-2.34C64.18,161.12,63.86,160.25,63.21,159.73z"/>
	</g>
</g>
</svg>
