<?xml version="1.0" encoding="utf-8"?>
<!-- Generator: Adobe Illustrator 24.0.1, SVG Export Plug-In . SVG Version: 6.00 Build 0)  -->
<svg version="1.1" id="圖層_1" xmlns="http://www.w3.org/2000/svg" xmlns:xlink="http://www.w3.org/1999/xlink" x="0px" y="0px"
	 viewBox="0 0 378 307.6" style="enable-background:new 0 0 378 307.6;" xml:space="preserve">
<style type="text/css">
	.st0{fill:#089E9B;}
	.st1{fill:none;stroke:#6CCEFF;stroke-miterlimit:10;}
	.st2{fill:#FE7375;}
	.st3{fill:#FAC75C;}
	.st4{fill:#1C3871;}
	.st5{fill:#0F90C9;}
	.st6{fill:none;}
	.st7{fill:#FF6E8B;}
	.st8{fill:#5BC5C9;}
</style>
<g>
	<path class="st0" d="M46.8,174.1L46.8,174.1c5.4-4.6,9-11.4,9.4-19c0.4-7.4-2.2-14.2-6.8-19.3c-4.6-5.2-11.2-8.6-18.7-9
		c-7.5-0.4-14.4,2.3-19.5,6.9c-5.1,4.6-8.4,11.1-8.8,18.5c-0.4,7.7,2.4,14.8,7.3,19.9l0,0l17.3,19.2l-7.3,6.6l14.3,0.8l-6.6-7.3
		L46.8,174.1L46.8,174.1z"/>
	<path class="st1" d="M26.3,197.6c0,0-10.4,22.1-8.1,31.6s9,35.4,1.6,49.9"/>
</g>
<g>
	<path class="st2" d="M329.3,160L329.3,160c-4.8-5.2-7.6-12.4-7-20c0.5-7.4,3.9-13.8,9.1-18.3c5.2-4.6,12.2-7.2,19.6-6.6
		c7.5,0.5,14,4,18.5,9.3c4.5,5.2,7,12,6.5,19.4c-0.5,7.7-4.2,14.4-9.7,18.9l0,0l-19.5,17l6.4,7.4l-14.3-1l7.4-6.4L329.3,160
		L329.3,160z"/>
	<path class="st1" d="M346.8,185.8c0,0,7.2,28.1,3.8,37.2c-3.4,9.2-8.6,27.5-3,42.7"/>
</g>
<g>
	<path class="st3" d="M299.4,124.1L299.4,124.1c-3.7-6.1-4.9-13.6-2.9-21c2-7.1,6.6-12.8,12.6-16.2c6-3.4,13.3-4.6,20.5-2.6
		c7.2,2,12.9,6.7,16.3,12.8c3.3,6,4.4,13.2,2.4,20.3c-2.1,7.4-7,13.2-13.3,16.6l0,0l-22.5,12.7l4.8,8.5l-13.8-3.8l8.5-4.8
		L299.4,124.1L299.4,124.1z"/>
	<path class="st1" d="M311.3,152.9c0,0,2.8,11.2-2.3,19.5c-5.2,8.3-9.8,10.7-7.4,26.8"/>
</g>
<path class="st4" d="M323.6,306.4H54.1l12.5-22.4l-12.3-26h269.2l-12.3,26L323.6,306.4z M58.2,304.1h261.5l-11.1-19.9l11.3-23.7H58
	l11.3,23.7L58.2,304.1z"/>
<g>
	<path class="st4" d="M118.2,285.3H86.5c-0.7,0-1.2-0.5-1.2-1.2s0.5-1.2,1.2-1.2h31.7c0.7,0,1.2,0.5,1.2,1.2
		S118.8,285.3,118.2,285.3z"/>
	<path class="st4" d="M297.9,285.3h-31.7c-0.7,0-1.2-0.5-1.2-1.2s0.5-1.2,1.2-1.2h31.7c0.7,0,1.2,0.5,1.2,1.2
		S298.6,285.3,297.9,285.3z"/>
</g>
<g>
	<path class="st4" d="M258,66.3c-10.3,8.9-19.9,19.3-29.2,29.3c-1,1.1,0.5,2.5,1.6,1.6c10-9.2,20.4-18.9,29.4-29.1
		C260.8,66.8,259.2,65.2,258,66.3z"/>
	<path class="st4" d="M191.8,66.5c0-1.5-2.3-1.5-2.3,0c-0.3,11.4-0.2,22.9,0.3,34.2c0,1.1,1.6,1.1,1.7,0
		C192,89.4,192.1,77.9,191.8,66.5z"/>
	<path class="st4" d="M189.5,42.9c0,3.2,0.1,6.3,0.3,9.4c0.1,1.1,1.7,1.1,1.7,0c0.2-3.2,0.3-6.3,0.3-9.4
		C191.8,41.4,189.5,41.4,189.5,42.9z"/>
	<path class="st4" d="M155.8,87c-1.5-2.9-3-5.8-4.6-8.7c-0.7-1.2-2.5-0.1-1.9,1.1c1.5,2.9,2.9,5.9,4.4,8.8c1.3,2.6,2.4,5.5,4.4,7.6
		c0.6,0.6,1.4,0,1.3-0.7C158.9,92.2,157.1,89.5,155.8,87z"/>
	<path class="st4" d="M114,98c-5.6-6.2-12.1-11.5-17.8-17.6c-0.8-0.9-2.1,0.4-1.3,1.3c5.1,6.4,11,13.3,18.1,17.6
		C113.8,99.7,114.6,98.6,114,98z"/>
	<path class="st4" d="M291.5,88.4c-5.4,3.8-10.8,7.3-15.7,11.8c-0.9,0.8,0.2,2.2,1.3,1.6c5.7-3.5,10.5-7.7,15.5-11.9
		C293.5,89.2,292.4,87.7,291.5,88.4z"/>
	<path class="st4" d="M145.9,70.7c-0.4-0.8-0.8-1.7-1.2-2.5c-0.4-0.8-1-1.5-1.6-2.3c-0.9-1.2-2.7-0.2-2,1.2c0.5,0.8,0.9,1.7,1.5,2.5
		c0.6,0.8,1.3,1.5,1.9,2.2C145.2,72.5,146.3,71.5,145.9,70.7z"/>
	<path class="st4" d="M269.1,58.2c-1.2-0.6-2.5,0.1-3.4,0.9c-0.4,0.4-0.9,0.9-1.1,1.4c-0.3,0.5-0.2,1.2-0.3,1.8
		c-0.1,0.8,1.1,1,1.4,0.4c0.3-0.5,1-1.2,1.5-1.5c0.7-0.5,1.5-0.5,2.1-1.2C269.8,59.4,269.8,58.5,269.1,58.2z"/>
</g>
<g id="Text_2_">
	<g>
		<g>
			<path class="st4" d="M153.8,269.2v2.5h-7.7v21h-2.7v-21h-7.7v-2.5H153.8z"/>
			<path class="st4" d="M171,283.9c0,5.3-3.7,9-9,9c-5.2,0-9-3.7-9-9c0-5.2,3.7-8.9,9-8.9C167.3,275,171,278.6,171,283.9z
				 M155.7,283.9c0,4,2.7,6.7,6.4,6.7c3.7,0,6.4-2.7,6.4-6.7c0-3.9-2.7-6.6-6.4-6.6C158.3,277.3,155.7,280,155.7,283.9z"/>
			<path class="st4" d="M193.5,284.6v8.2h-2.7v-8.1l-9.1-15.4h2.8l7.6,12.3l7.5-12.3h2.8L193.5,284.6z"/>
			<path class="st4" d="M220.3,283.9c0,5.3-3.7,9-9,9c-5.2,0-9-3.7-9-9c0-5.2,3.7-8.9,9-8.9C216.6,275,220.3,278.6,220.3,283.9z
				 M205,283.9c0,4,2.7,6.7,6.4,6.7c3.7,0,6.4-2.7,6.4-6.7c0-3.9-2.7-6.6-6.4-6.6C207.7,277.3,205,280,205,283.9z"/>
			<path class="st4" d="M240.3,275.1v17.7h-2.6v-4c-1.2,2.8-3.5,4.1-6.7,4.1c-4.1,0-6.6-2.6-6.6-6.9v-10.9h2.6v10.2
				c0,3.2,1.8,5,4.9,5c3.7-0.1,5.8-2.8,5.8-6.6v-8.7H240.3z"/>
		</g>
	</g>
	<g>
		<g>
			<path class="st4" d="M82.8,186.8c-7.8,0-17.1,5.1-17.1,13c0,2.1,0.6,3.5,1.6,4.6c-1.2,0.6-2.3,0.8-3.4,0.8c-4,0-6.4-3.6-6.4-7.5
				c0-8.8,14.3-14.6,26.7-14.6c9.8,0,17.1,2.3,17.1,11.5c0,6.1-4.5,13.3-12.5,17.5l0.1,0.1c8.3,0,12,4.4,12,10.1
				c0,9.6-10.5,22.6-25.6,22.6c-8.7,0-16-2.4-16-6c0-1.7,1-3.4,3.2-4.1c1.2,1,2.4,1.8,3.7,2.5l9.1-42.7c0.8-3.7,3.9-5.1,6.8-5.1
				c1.4,0,2.9,0.4,3.8,1L81,211.9c6.5-2,11.4-10,11.4-16.4C92.4,189.4,89.3,186.8,82.8,186.8z M80.1,216L75,239.7h0.1
				c8.2,0,15.5-8.7,15.5-17.1c0-4.1-2.2-7.1-6.9-7.1C82.6,215.5,81.4,215.7,80.1,216z"/>
			<path class="st4" d="M107.8,213.3c0.2-1.3-0.1-2-0.8-2c-0.4,0-0.9,0.3-1.6,1c-1-0.6-1.6-3.1,0-4.4c2.7-2.1,5.6-3.8,8.9-3.8
				c2.9,0,4.4,1.3,3.8,4.4l-4.8,22.9c-1,4.4,0.3,5.9,2.4,5.9c2.9,0,6.4-2,8.3-4c0.9,0.4,1.3,1.1,1.3,1.9c0,0.6-0.2,1.2-0.7,1.7
				c-3.7,4.2-9.1,7.9-14.4,7.9c-4,0-8.6-2.2-7.1-9.4L107.8,213.3z M116.5,188.3c3.1,0,5.4,2.5,5.1,5.6c-0.5,3.1-3.1,5.6-6.2,5.6
				c-3.1,0-5.4-2.5-4.9-5.6C110.8,190.8,113.4,188.3,116.5,188.3z"/>
			<path class="st4" d="M137,212.7c3.2-6.4,6.6-8.7,10.2-8.7c3.8,0,5.8,3,5.8,6.3c0,3.6-2.2,7.5-6.4,7.5c-0.7,0-1.6-0.1-2.3-0.3
				c0.6-0.5,0.9-1.5,0.9-2.5c0-1.1-0.8-2-2.5-2c-2.6,0-6.4,3.6-10.4,21.9l-1,4.8c-0.8,3.7-3.8,5-6.7,5c-1.4,0-2.8-0.4-3.7-1
				l6.5-30.5c0.2-1.3-0.1-2-0.8-2c-0.4,0-0.9,0.3-1.6,1c-1-0.6-1.6-3.1,0-4.4c2.7-2.1,5.6-3.8,8.9-3.8c2.9,0,4.4,1.3,3.8,4.4
				L137,212.7z"/>
			<path class="st4" d="M167.4,209.1l-4.7,22.3c-1,4.4,0.3,5.9,2.4,5.9c2.9,0,6.4-2,8.3-4c0.9,0.4,1.3,1.1,1.3,1.9
				c0,0.6-0.2,1.2-0.7,1.7c-3.7,4.2-9.8,7.9-15.1,7.9c-4.8,0-8-3-6.2-11.8l5.1-24h-4c-0.4-2.5,0.9-4.6,3.3-4.6h1.6l1.4-6.5
				c0.8-3.7,3.8-5,6.7-5c1.4,0,2.8,0.4,3.7,1l-2.2,10.5h5.8c0.4,2.5-0.9,4.6-3.3,4.6H167.4z"/>
			<path class="st4" d="M191.3,233.5l3.3-15.8c0.6-2.5,0.7-4.7-1.9-4.7c-2.9,0-5.2,1.7-7.4,4.2l-5,22.5c-0.8,3.7-3.8,5-6.7,5
				c-1.4,0-2.4-0.2-3.3-0.8l10.1-47.3c0.5-2.1-1-2.6-2.3-1.1c-1.1-1-1.2-1.8-1.2-2.5c0-1.8,5.7-5.6,10-5.6c2.9,0,4.4,1.3,3.8,4.4
				l-4.1,19.5c3-4.3,6.5-7.2,10.6-7.2c4,0,9.4,2.3,7.5,11.7l-3.9,18.3c-0.5,2.3,0.6,3.3,2.1,3.3c2.9,0,6.4-2,8.3-4
				c0.9,0.4,1.3,1.1,1.3,1.9c0,0.6-0.2,1.2-0.7,1.7c-3.7,4.2-9.1,7.9-14.4,7.9C193.5,244.8,189.3,242.8,191.3,233.5z"/>
			<path class="st4" d="M232.3,236.8c-3.3,4.7-7.5,8-12.1,8c-8.3,0-9.9-8.3-9.9-13.3c0-13.9,9-27.7,20-27.7c3.3,0,5.7,0.7,7.6,2.2
				l2-9.3c0.5-2.1-1-2.6-2.3-1.1c-1.1-1-1.2-1.8-1.2-2.5c0-1.8,5.7-5.6,10-5.6c2.9,0,4.4,1.3,3.8,4.4l-8.3,39.5
				c-1,4.4,0.3,5.9,2.4,5.9c2.9,0,6.4-2,8.3-4c0.9,0.4,1.3,1.1,1.3,1.9c0,0.6-0.2,1.2-0.7,1.7c-3.7,4.2-9.4,7.9-13.7,7.9
				C235.8,244.8,232.3,243.1,232.3,236.8z M232.5,231.7l4.5-21.3c-1.3-0.5-2.6-0.7-3.8-0.7c-9.6,0-13,12.5-13,21.2
				c0,4,1.8,5.7,4.3,5.7C227,236.6,230.3,234.6,232.5,231.7L232.5,231.7z"/>
			<path class="st4" d="M280,206.4c1.3-1.6,3.4-2.3,5.4-2.3c1.4,0,2.8,0.4,3.7,1l-5.6,26.3c-1,4.4,0.3,5.9,2.4,5.9
				c2.9,0,6.4-2,8.3-4c0.9,0.4,1.3,1.1,1.3,1.9c0,0.6-0.2,1.2-0.7,1.7c-3.7,4.2-9.4,7.9-13.7,7.9c-3.7,0-7.5-1.7-7.4-8
				c-3.3,4.7-7.5,8-12.1,8c-8.3,0-9.9-8.3-9.9-13.3c0-13.9,9-27.7,20-27.7C275.4,203.8,278,204.6,280,206.4z M278.4,210.4
				c-1.3-0.5-2.5-0.6-3.7-0.6c-9.6,0-13,12.5-13,21.2c0,4,1.8,5.7,4.3,5.7c2.5,0,5.9-2.1,8-5L278.4,210.4z"/>
			<path class="st4" d="M297.8,213.3c0.3-1.3-0.1-2-0.8-2c-0.4,0-0.9,0.3-1.6,1c-1-0.6-1.6-3.1,0-4.4c2.7-2.1,5.6-3.8,8.9-3.8
				c2.9,0,4.4,1.3,3.8,4.4l-4.9,22.9c-0.6,2.5,0.1,4.4,2.7,4.4c2.3,0,4.3-1.1,6.1-2.9l5.2-23.7c0.8-3.7,3.8-5,6.7-5
				c1.4,0,2.8,0.4,3.7,1l-6.7,31.4c-0.3,1.3-0.6,2.8-1,4.2c1.4-0.2,2.5-0.3,3.3-0.3c3.3,0,4.7,3.2,3.7,6.3c-2.5-0.6-5.4-0.6-8.3-0.2
				c-3.7,14.1-9.7,28.3-23.1,28.3c-4.4,0-8.6-3.2-8.6-9.8c0-9.8,12.4-17.5,23.1-21.4c0.5-1.7,1-3.5,1.5-5.4
				c-3.1,3.9-6.7,6.5-10.6,6.5c-7.9,0-8.3-7.8-6.7-15.2L297.8,213.3z M308.2,249.2c-8.7,3.5-16,9.4-16,14.8c0,2.8,2.2,3.7,3.3,3.7
				C300.9,267.7,304.2,262.2,308.2,249.2z"/>
		</g>
	</g>
	<g>
		<g>
			<path class="st4" d="M144.6,166.2c-3.6,0.6-7.5-0.4-7.3-7.7l0.5-15.7c-2.4,1.4-6.2,2.7-9.1,3.2l-0.6,19.1
				c-0.1,2.9-2.3,4.4-4.5,4.8c-1.4,0.2-2.6,0.2-3.3-0.2l2-44.5l-0.3,0.1c-5.5,1-6.9,4.4-6.4,7.2c0.2,1.3,1,2.6,1.8,3.3
				c-0.8,0.6-1.6,0.9-2.5,1.1c-3.1,0.6-5.4-1.8-5.9-4.8c-0.7-3.8,1.4-8.6,8.5-9.9c5-0.9,10.6,0.8,12.9-1.1c0.7,0.3,1,0.8,1.1,1.4
				c0.2,1.1-0.3,2.5-1.7,2.7l-0.5,0.1l-0.6,16.6c3.1-0.6,6.5-1.4,9.1-2.1l0.5-15.5c0.1-2.9,2.3-4.4,4.5-4.8c1.1-0.2,2.2-0.1,3,0.3
				l-1.3,36c0,3.6,1.2,4.4,2.8,4.1c1.9-0.3,4.4-2.7,5.6-4.1c0.7,0.2,1.2,0.7,1.3,1.3c0.1,0.4,0,0.9-0.3,1.4
				C151.1,162.2,148.1,165.6,144.6,166.2z"/>
			<path class="st4" d="M170.1,131.6c0.8-1.4,2.3-2.2,3.8-2.5c1.1-0.2,2.2-0.1,3,0.3l-0.6,20.7c-0.1,3.5,1,4.4,2.6,4.1
				c2.2-0.4,4.5-2.4,5.8-4.1c0.7,0.2,1.2,0.7,1.3,1.3c0.1,0.4,0,0.9-0.3,1.4c-2.3,3.7-6.1,7.2-9.3,7.8c-2.8,0.5-5.9-0.3-6.7-5.1
				c-1.9,4-4.6,7.1-8.1,7.7c-6.3,1.1-8.6-4.9-9.3-8.8c-1.9-10.5,3-22.2,11.4-23.7C166.2,130.2,168.3,130.5,170.1,131.6z
				 M169.4,134.8c-1.1-0.2-2-0.1-2.9,0c-7.3,1.3-8.2,11.3-7,17.8c0.5,3,2.2,4.1,4,3.8c1.9-0.3,4.2-2.4,5.4-4.9L169.4,134.8z"/>
			<path class="st4" d="M184.5,134.4c0.1-1-0.3-1.5-0.9-1.4c-0.3,0.1-0.6,0.4-1.1,0.9c-0.9-0.3-1.6-2.1-0.6-3.3
				c1.8-2,3.7-3.6,6.2-4.1c2.2-0.4,3.6,0.4,3.5,2.8l0,1.5c1.8-3.3,4.3-5.7,7.3-6.2c5.3-1,8.4,3.1,9.4,8.6c1.6,9-2.8,22.1-13.1,24
				c-1.4,0.3-3,0-4.4-0.8l-0.6,20.7c-0.1,2.9-2,4.3-4.2,4.7c-1.1,0.2-2.2,0.1-3-0.3L184.5,134.4z M191.5,136.1l-0.5,16.3
				c1.2,0.4,2.2,0.3,3.1,0.1c6.1-1.1,8.3-9.9,7.3-15.9c-0.8-4.2-2.6-5.8-4.6-5.4C194.9,131.5,193,133.3,191.5,136.1z"/>
			<path class="st4" d="M213.2,129.3c0.1-1-0.3-1.5-0.9-1.4c-0.3,0.1-0.6,0.4-1.1,0.9c-0.9-0.3-1.6-2.1-0.6-3.3
				c1.8-2,3.7-3.6,6.2-4.1c2.2-0.4,3.6,0.4,3.5,2.8l0,1.5c1.8-3.3,4.3-5.7,7.3-6.2c5.3-0.9,8.4,3.1,9.4,8.6c1.6,9-2.8,22.1-13.1,24
				c-1.4,0.3-3,0-4.4-0.8l-0.6,20.7c-0.1,2.9-2,4.3-4.2,4.7c-1.1,0.2-2.2,0.1-3-0.3L213.2,129.3z M220.1,131l-0.5,16.3
				c1.2,0.4,2.2,0.3,3.1,0.1c6.1-1.1,8.3-9.9,7.3-15.9c-0.8-4.2-2.6-5.8-4.6-5.4C223.6,126.4,221.7,128.2,220.1,131z"/>
			<path class="st4" d="M241.8,124.1c0.1-1-0.3-1.5-0.9-1.4c-0.3,0.1-0.6,0.4-1.1,0.9c-0.9-0.3-1.6-2.1-0.6-3.3
				c1.8-2,3.7-3.6,6.2-4.1c2.2-0.4,3.6,0.4,3.5,2.8l-0.6,18c-0.1,1.9,0.7,3.3,2.6,2.9c1.7-0.3,3.1-1.4,4.2-3l0.7-18.7
				c0.1-2.9,2.2-4.3,4.4-4.7c1.1-0.2,2.2-0.1,3,0.3l-0.8,24.8c-0.1,1.1-0.1,2.2-0.2,3.3c1-0.4,1.8-0.6,2.5-0.7
				c2.5-0.4,4,1.8,3.6,4.3c-2-0.1-4.2,0.3-6.4,1c-0.9,11.2-3.5,22.7-13.7,24.6c-3.4,0.6-6.9-1.2-7.8-6.2c-1.3-7.5,7-14.9,14.6-19.3
				c0.1-1.4,0.2-2.8,0.4-4.3c-1.8,3.4-4.2,5.8-7.2,6.4c-6,1.1-7.4-4.8-7.2-10.6L241.8,124.1z M254.7,149.9
				c-6.1,3.8-10.9,9.3-10.2,13.4c0.4,2.1,2.2,2.5,3,2.4C251.6,164.9,253.4,160.3,254.7,149.9z"/>
		</g>
	</g>
</g>
<g>
	<g>
		<path class="st3" d="M39,87.7c1.5,1.9,1.2,4.7-0.6,6.2s-4.7,1.2-6.2-0.6c-1.5-1.9-1.2-4.7,0.6-6.2C34.7,85.6,37.5,85.8,39,87.7z"
			/>
		<path class="st5" d="M39.5,95.4l37.4,82.9c1.5,1.8,10.7-3.2,20.7-11.3c9.9-8.1,16.8-16.1,15.3-17.9L39.5,95.4z"/>
		<g>
			<polygon class="st3" points="56.6,133.3 60.5,110.8 55.1,106.8 52.3,123.7 			"/>
			<polygon class="st3" points="64.4,150.4 70,117.7 75.3,121.6 68.7,160 			"/>
			<polygon class="st3" points="87.3,174.4 87.4,174.4 94.2,135.4 88.7,131.5 80.8,178 			"/>
		</g>
		<path class="st6" d="M39.5,95.4l37.4,82.9c1.5,1.8,10.7-3.2,20.7-11.3c9.9-8.1,16.8-16.1,15.3-17.9L39.5,95.4z"/>
	</g>
</g>
<g>
	<g>
		<g>
			<g>
				<g>
					<g>
						<path class="st7" d="M234.2,27.4c-3.3,2.2-6.5,0.9-9-0.1c-2.4-1-3.9-1.5-5.4-0.5c-1.5,1-1.6,2.5-1.6,5.1
							c0,2.7-0.1,6.2-3.4,8.3c-3.3,2.2-6.5,0.9-9-0.1c-2.4-1-3.9-1.5-5.4-0.5c-0.9,0.6-2.1,0.4-2.7-0.5c-0.6-0.9-0.4-2.1,0.5-2.7
							c3.3-2.2,6.5-0.9,9,0.1c2.4,1,3.9,1.5,5.4,0.5c1.5-1,1.6-2.5,1.6-5.1c0-2.7,0.1-6.2,3.4-8.3c3.3-2.2,6.5-0.9,9,0.1
							c2.4,1,3.9,1.5,5.4,0.5c1.5-1,1.6-2.5,1.6-5.1c0-2.7,0.1-6.2,3.4-8.3c0.9-0.6,2.1-0.4,2.7,0.5c0.6,0.9,0.4,2.1-0.5,2.7
							c-1.5,1-1.6,2.5-1.6,5.1C237.5,21.8,237.5,25.2,234.2,27.4z"/>
					</g>
				</g>
			</g>
		</g>
	</g>
</g>
<g>
	<g>
		<g>
			<g>
				<g>
					<g>
						<g>
							<g>
								<path class="st8" d="M70,39.6c-1.8-3.5-0.1-6.5,1.2-8.9c1.3-2.3,2-3.7,1.2-5.3c-0.8-1.6-2.3-1.9-4.9-2.3
									c-2.7-0.4-6.1-0.9-7.9-4.4c-1.8-3.5-0.1-6.5,1.2-8.9c1.3-2.3,2-3.7,1.2-5.3c-0.5-1-0.1-2.1,0.9-2.6c1-0.5,2.1-0.1,2.6,0.9
									c1.8,3.5,0.1,6.5-1.2,8.9c-1.3,2.3-2,3.7-1.2,5.3c0.8,1.6,2.3,1.9,4.9,2.3c2.7,0.4,6.1,0.9,7.9,4.4c1.8,3.5,0.1,6.5-1.2,8.9
									c-1.3,2.3-2,3.7-1.2,5.3c0.8,1.6,2.3,1.9,4.9,2.3c2.7,0.4,6.1,0.9,7.9,4.4c0.5,1,0.1,2.1-0.9,2.6c-1,0.5-2.1,0.1-2.6-0.9
									c-0.8-1.6-2.3-1.9-4.9-2.3C75.1,43.6,71.7,43.1,70,39.6z"/>
							</g>
						</g>
					</g>
				</g>
			</g>
		</g>
	</g>
</g>
</svg>
