<?xml version="1.0" encoding="utf-8"?>
<!-- Generator: Adobe Illustrator 24.0.1, SVG Export Plug-In . SVG Version: 6.00 Build 0)  -->
<svg version="1.1" id="top" xmlns="http://www.w3.org/2000/svg" xmlns:xlink="http://www.w3.org/1999/xlink" x="0px" y="0px"
	 viewBox="0 0 490.5 165.75" style="enable-background:new 0 0 490.5 165.75;" xml:space="preserve">
<style type="text/css">
	.st0{fill:#0F9E9B;}
	.st1{fill:#1B3B78;}
	.st2{fill:#FFFFFF;}
	.st3{fill:#FAC75C;}
	.st4{fill:#0F90C9;}
	.st5{fill:#FE7375;}
</style>
<g>
	<g>
		<path class="st0" d="M66.12,87.05h-8.06c-2.99,0-5.75-1.48-7.41-3.89c-1.67,2.42-4.43,3.89-7.41,3.89h-7.75
			c-3.15,0-6.07-1.65-7.7-4.35c-0.09-0.15-0.18-0.31-0.27-0.47c-0.1,0.18-0.21,0.35-0.32,0.53c-1.64,2.66-4.54,4.28-7.67,4.28h-7.68
			c-3.33,0-6.38-1.83-7.94-4.77s-1.38-6.49,0.47-9.25c1.82-2.71,3.47-6.35,4.61-9.52c-0.04-0.04-0.08-0.09-0.12-0.13
			c-2.46-2.82-3.82-6.65-3.82-10.79V19.29c0-4.73,1.81-8.94,5.1-11.84c0.09-0.08,0.19-0.16,0.28-0.24
			c1.94-1.58,5.29-3.46,10.23-3.46h13.3c4.51,0,8.58,1.58,11.46,4.46c2.22,2.22,3.69,5.07,4.26,8.23h7.58v-4.76c0-4.97,4.03-9,9-9
			h6.84c4.97,0,9,4.03,9,9v5.47c3.22,1.37,5.47,4.56,5.47,8.28v5.24c0,3.72-2.26,6.91-5.47,8.28v32.46c0,4.03-1.29,7.65-3.72,10.46
			c-0.08,0.09-0.16,0.18-0.24,0.27C76.05,84.39,72.26,87.05,66.12,87.05z"/>
	</g>
	<g>
		<path class="st0" d="M149.57,86.67h-48.72c-4.41,0-8.59-1.98-11.47-5.44c-0.02-0.03-0.05-0.06-0.07-0.08
			c-2.33-2.87-3.61-6.58-3.61-10.46v-11.1c0-4.46,1.61-8.53,4.54-11.46c0.07-0.07,0.15-0.14,0.22-0.21
			c0.59-0.55,1.21-1.05,1.86-1.49c-0.15-0.8-0.23-1.61-0.23-2.42v-4.1c0-0.02,0-0.03,0-0.05c-4.85-0.14-8.74-4.11-8.74-9v-7.52
			c0-4.32,1.61-8.3,4.54-11.23c0.07-0.07,0.15-0.15,0.22-0.22c2.92-2.73,6.75-4.17,11.08-4.17h10.75c0.12-0.26,0.26-0.52,0.41-0.78
			c1.61-2.76,4.57-4.46,7.77-4.46h8.89c3.52,0,6.72,2.05,8.18,5.25c0.01,0.02,0.02,0.05,0.03,0.07h16.26
			c4.43,0,8.52,1.86,11.52,5.23c0.02,0.03,0.05,0.06,0.07,0.08c2.45,2.82,3.79,6.51,3.79,10.38v7.37c0,4.91-3.93,8.9-8.82,9
			c0,0.07,0,0.13,0,0.2v4.26c0,0.74-0.07,1.49-0.21,2.22c1.14,0.78,2.22,1.75,3.17,2.92c2.34,2.79,3.57,6.26,3.57,10.06v11.86
			c0,3.87-1.51,7.62-4.24,10.55c0,0.01-0.01,0.01-0.02,0.02C157.49,84.94,153.57,86.67,149.57,86.67z"/>
	</g>
	<g>
		<path class="st0" d="M229.14,86.51h-46.59c-3.73,0-7.34-1.56-10.17-4.39c-0.08-0.08-0.15-0.16-0.23-0.24
			c-2.68-2.88-4.15-6.49-4.15-10.15V49.76c-2.64-1.57-4.41-4.45-4.41-7.74v-6c0-1.85,0.36-3.68,1.04-5.37
			c-0.28-0.42-0.52-0.86-0.72-1.33c-1.44-3.26-0.82-7.06,1.58-9.7c3.12-3.43,5.34-7.82,7.35-12.03c1.49-3.13,4.65-5.13,8.12-5.13
			h7.45c2.96,0,5.72,1.45,7.4,3.88h7.96c1.67-2.3,4.36-3.72,7.29-3.72h7.68c2.92,0,5.66,1.42,7.35,3.8h11.58c4.97,0,9,4.03,9,9v4.86
			c0,2.96-1.43,5.59-3.63,7.23c1.89,2.54,2.87,5.52,2.87,8.74v5.85c0,4.04-2.67,7.46-6.33,8.6c-0.08,1.25-0.32,2.47-0.71,3.64
			c2.8,2.53,4.38,6.05,4.38,9.81v8.66c0,4.1-1.71,7.82-4.81,10.48c-0.05,0.04-0.11,0.09-0.16,0.13
			C235.82,85.41,232.58,86.51,229.14,86.51z"/>
	</g>
	<g>
		<path class="st0" d="M317.83,87.05h-43.78c-4.75,0-8.65-3.69-8.98-8.35c-4.11,1.75-7.92,3.3-10.44,4.19
			c-2.75,0.98-5.81,0.55-8.2-1.14c-2.39-1.69-3.8-4.43-3.8-7.35v-6.16c0-4.06,2.72-7.62,6.63-8.68c0.42-0.11,0.87-0.25,1.35-0.4
			v-7.18c-3.93-0.97-6.84-4.51-6.84-8.74v-5.09c0-4.23,2.91-7.77,6.84-8.74v-0.45c-4.67-0.33-8.36-4.22-8.36-8.98v-5.17
			c0-4.97,4.03-9,9-9h22.8c0.65,0,1.29,0.07,1.9,0.2c2.61-1.61,5.69-2.48,8.9-2.48h22.19c4.46,0,8.56,1.64,11.53,4.61
			c0.06,0.06,0.12,0.12,0.18,0.18c2.81,2.97,4.36,7.11,4.36,11.65v22.35c0,2.96-0.9,5.82-2.54,8.27c2.1,1.65,3.45,4.21,3.45,7.08
			v5.02c0,1.09-0.19,2.13-0.55,3.1c2.05,1.65,3.36,4.18,3.36,7.01v5.24C326.83,83.02,322.8,87.05,317.83,87.05z"/>
	</g>
	<g>
		<path class="st0" d="M383.19,86.89h-38.53c-3.77,0-7.56-1.52-10.4-4.17c-0.08-0.07-0.15-0.14-0.22-0.22
			c-3.02-3.02-4.69-6.96-4.69-11.08V59.5c0-1.76,0.35-3.51,1.01-5.14c-2.74-2.85-4.28-6.54-4.28-10.28v-7.98
			c0-0.4,0.02-0.81,0.05-1.21c-1.77-1.15-3.12-2.92-3.73-5.06c-1.1-3.86,0.49-7.99,3.9-10.11c6.49-4.04,12.33-9.57,15.31-12.6
			c1.62-1.75,3.69-3.03,6.18-3.79c1.79-0.54,3.38-0.78,5.08-0.78h24.7c1.76,0,3.63,0.35,5.56,1.04c2.13,0.73,4.14,1.97,5.67,3.5
			c0.06,0.06,0.12,0.12,0.17,0.18c4.23,4.47,9.39,9.05,14.52,12.9c3.1,2.32,4.36,6.37,3.14,10.05c-0.67,2.01-2,3.66-3.7,4.74
			c0.04,0.48,0.06,0.96,0.06,1.45v7.22c0,3.79-1.48,7.46-4.18,10.33c0,0,0,0,0,0c-0.14,0.14-0.27,0.29-0.41,0.43
			c0.77,1.93,1.18,4.05,1.18,6.26v10.64c0,4.63-2.03,8.93-5.58,11.85C391.12,85.56,387.3,86.89,383.19,86.89z"/>
	</g>
	<g>
		<path class="st0" d="M478.65,87.05h-14.9c-1.57,0-3.11-0.41-4.47-1.19c-4.07-2.33-8.91-5.73-13.35-9.38h-2.71
			c-3.72,3.19-9.34,7-13.15,9.28c-1.4,0.84-3,1.28-4.63,1.28H410.4c-4.37,0-8.1-3.13-8.86-7.43c-0.76-4.3,1.68-8.52,5.78-10.02
			c0.33-0.12,0.67-0.25,1-0.38c-1.63-2.61-2.51-5.68-2.51-8.87V39.06c0-3.65,1.28-7.1,3.59-9.81c-0.95-1.87-1.46-3.9-1.46-5.92
			v-5.24c0-3.82,1.41-7.35,4.07-10.23c0.15-0.16,0.31-0.32,0.47-0.47c2.78-2.58,6.47-4,10.38-4h42.94c3.83,0,7.46,1.53,10.24,4.31
			c2.64,2.64,4.16,6.29,4.16,10.01v4.18c0,2.49-0.47,4.81-1.38,6.87c2.6,2.97,3.96,6.84,3.96,11.22v20.6c0,3.03-0.83,5.92-2.37,8.41
			c0.61,0.28,1.23,0.56,1.84,0.83c3.91,1.71,6.08,5.92,5.21,10.09C486.59,84.06,482.91,87.05,478.65,87.05z"/>
	</g>
	<g>
		<path class="st0" d="M70.85,163.22H15.37c-4.97,0-9-4.03-9-9v-4.54c0-4.27,2.97-7.84,6.95-8.77c-2.16-1.64-3.56-4.24-3.56-7.17
			v-1.76c-1.02-0.79-1.89-1.8-2.5-2.99c-1.55-2.98-1.31-6.57,0.61-9.32c3.24-4.62,6.19-12.39,7.17-18.9c0.67-4.4,4.45-7.65,8.9-7.65
			h6.21c0.82,0,1.62,0.11,2.39,0.32c1.6-2.5,4.4-4.16,7.59-4.16h5.76c4.97,0,9,4.03,9,9V101h14.49c4.97,0,9,4.03,9,9v4.61
			c0,3.48-1.97,6.5-4.86,7.99c1.77,1.64,2.88,3.99,2.88,6.6v4.54c0,2.92-1.39,5.51-3.54,7.16c4.01,0.91,7,4.49,7,8.78v4.54
			C79.85,159.19,75.82,163.22,70.85,163.22z"/>
	</g>
	<g>
		<path class="st0" d="M129.29,162.97H91.46c-4.82,0-9-1.9-11.76-5.36c-0.02-0.03-0.05-0.06-0.07-0.09
			c-2.16-2.78-3.31-6.35-3.31-10.33V104.5c0-4.58,2.03-8.77,5.58-11.51c2.61-2.05,5.93-3.18,9.38-3.18h37.82
			c4.41,0,8.38,1.69,11.18,4.77c2.55,2.76,3.9,6.45,3.9,10.69v42.75c0,3.65-1.11,6.96-3.21,9.55
			C138.16,161.05,134.02,162.97,129.29,162.97z M100.27,140.61h20.08v-2.86h-20.08V140.61z M100.27,115.14h20.08v-2.73h-20.08
			V115.14z"/>
	</g>
	<g>
		<path class="st0" d="M186.12,163.29h-6.14c-1.03,0-2.03-0.18-2.98-0.51c-0.94,0.33-1.94,0.51-2.98,0.51h-7.55
			c-1.72,0-3.38-0.49-4.8-1.39c-1.42,0.9-3.08,1.39-4.8,1.39h-7.81c-3.65,0-6.95-2.21-8.33-5.59s-0.58-7.27,2.02-9.83
			c1.86-1.83,3.6-3.77,5.2-5.8c-1.4-2.34-2.7-4.57-3.73-6.42c-1.69-3.07-2.1-6.55-1.3-10.71c0.34-1.77,0.72-3.87,1.08-6.01
			c-2.05-1.65-3.36-4.18-3.36-7.01v-4.48c0-3.9,2.48-7.22,5.95-8.47c0.03-0.4,0.06-0.81,0.09-1.22c0.32-4.73,4.24-8.4,8.98-8.4h5.44
			c2.51,0,4.91,1.05,6.61,2.89c0.22,0.24,0.43,0.5,0.63,0.76c1.59-1.4,3.67-2.24,5.95-2.24h25.28c4.36,0,8.47,2.37,10.77,6.19
			c2.29,3.75,2.48,8.35,0.48,12.34c-0.02,0.04-0.04,0.08-0.06,0.12c-0.83,1.6-2.17,3.55-3.72,5.55c4.22,0.75,7.42,4.43,7.42,8.86
			v4.35c0,4.97-4.03,9-9,9h-4.5v11.22c0,4.05-1.32,7.62-3.83,10.3C194.31,161.67,190.42,163.29,186.12,163.29z M176.92,137.18
			c-0.4,1.27-0.84,2.53-1.34,3.78c0.48-0.12,0.97-0.2,1.47-0.25v-3.53H176.92z"/>
	</g>
	<g>
		<path class="st0" d="M228.74,163.22h-5.57c-4.97,0-9-4.03-9-9v-13.27c-2.35-0.77-4.33-2.49-5.4-4.82
			c-1.46-3.21-0.92-6.97,1.39-9.64c2.05-2.36,3.91-4.88,5.57-7.55c-4.11-0.83-7.2-4.47-7.2-8.82v-4.35c0-3.13,1.6-5.89,4.03-7.51
			c0.02-1.92,0.65-3.81,1.84-5.37c1.7-2.24,4.35-3.55,7.16-3.55h5.82c3.66,0,6.89,2.21,8.28,5.48c1.17-0.64,2.41-1.11,3.68-1.41
			c1.59-2.52,4.41-4.2,7.61-4.2h4.99c0.75,0,1.48,0.09,2.18,0.26c0.7-0.17,1.43-0.26,2.18-0.26h4.93c3.19,0,5.99,1.66,7.58,4.15
			c2.97,0.62,5.61,2.12,7.61,4.4c2.37,2.73,3.6,6.1,3.6,9.79v8.45c0,0.93-0.09,1.85-0.26,2.75c1.09,1.49,1.74,3.33,1.74,5.31v4.22
			c0,2.27-0.84,4.35-2.24,5.94c0.04,0.45,0.06,0.9,0.06,1.36v3.65c0,1.36-0.21,2.68-0.6,3.94c1.79,1.64,2.9,4,2.9,6.62v4.35
			c0,4.97-4.03,9-9,9h-36.61c-1.27,0-2.48-0.26-3.58-0.74C231.33,162.93,230.07,163.22,228.74,163.22z"/>
	</g>
	<g>
		<path class="st0" d="M304.97,163.22h-19.33c-4.51,0-8.32-3.33-8.92-7.8c-0.43-3.23,0.91-6.33,3.33-8.25
			c-1.87-1.25-3.25-3.2-3.77-5.52c-0.76-3.42,0.54-6.9,3.19-9c-2.38-1.38-4.08-3.82-4.43-6.72c-0.31-2.55,0.49-5.01,2.04-6.85
			c-0.21-0.45-0.38-0.92-0.51-1.41c-1.06-3.92,0.64-8.07,4.15-10.12c7.13-4.16,12.84-8.99,17.95-15.18
			c1.71-2.07,4.25-3.27,6.94-3.27h7.3c3.31,0,6.36,1.82,7.93,4.74h12.1c5.06,0,9.46,2.83,11.49,7.39c0.05,0.1,0.09,0.21,0.13,0.31
			c1.88,4.71,0.82,10.03-2.7,13.55c-1.33,1.31-2.95,2.61-4.74,3.85c4.4,0.5,8.13,3.18,9.93,7.25c0.02,0.05,0.05,0.11,0.07,0.16
			c1.9,4.51,1.01,9.79-2.25,13.47c-7.65,8.73-19.28,15.97-36.61,22.78C307.21,163.01,306.09,163.22,304.97,163.22z"/>
	</g>
	<g>
		<path class="st0" d="M407.11,163.22h-55.68c-4.97,0-9-4.03-9-9V150c0-2.17,0.77-4.16,2.05-5.72v-2.35c0-1.81,0.53-3.49,1.45-4.91
			c-0.45-1.44-0.69-2.98-0.69-4.56v-10.94c0-0.73,0.05-1.46,0.16-2.17c-1.94-1.65-3.17-4.11-3.17-6.86v-3.97
			c0-2.58,1.08-4.9,2.82-6.54v-0.76c0-2.41,0.97-4.72,2.68-6.41c1.72-1.69,4.05-2.63,6.45-2.59c14.59,0.21,30.5-0.04,48.12-3.36
			c2.63-0.5,5.35,0.21,7.41,1.92c2.06,1.71,3.26,4.25,3.26,6.93v4.34c1.7,1.64,2.75,3.93,2.75,6.48v3.97c0,2.63-1.13,5-2.93,6.64
			c0.07,0.57,0.11,1.16,0.11,1.74v11.46c0,1.49-0.2,2.93-0.59,4.28c1.09,1.49,1.74,3.33,1.74,5.32v2.35
			c1.28,1.55,2.05,3.55,2.05,5.72v4.22C416.11,159.19,412.08,163.22,407.11,163.22z"/>
	</g>
	<g>
		<path class="st0" d="M472.39,163.03H441.8c-3.91,0-7.25-0.61-10.2-1.88c-0.17-0.08-0.35-0.15-0.52-0.23
			c-1.61,1.35-3.65,2.11-5.79,2.11h-7.3c-3.46,0-6.62-1.99-8.12-5.11c-1.5-3.12-1.07-6.83,1.1-9.53c1.93-2.4,3.62-4.84,5.06-7.33
			c-2.34-1.19-4.22-3.16-5.3-5.69c-0.04-0.1-0.08-0.2-0.12-0.31c-1.47-3.8-0.88-8,1.57-11.29c-1.7-1.64-2.75-3.93-2.75-6.47v-4.35
			c0-3.08,1.55-5.81,3.92-7.43c-0.7-1.44-1.32-2.8-1.76-3.95c-1.08-2.77-0.73-5.9,0.95-8.35c1.68-2.46,4.46-3.93,7.43-3.93h6.66
			c2.86,0,5.5,1.35,7.17,3.56c1.7-2.24,4.35-3.56,7.17-3.56h6.27c2.64,0,5.08,1.15,6.75,3.05c1.67-1.9,4.11-3.05,6.75-3.05h6.27
			c2.92,0,5.66,1.42,7.35,3.81c1.66,2.35,2.1,5.35,1.18,8.07c2.9,1.49,4.89,4.52,4.89,8.01v4.42c0,0.97-0.15,1.9-0.44,2.78
			c1.2,1.53,1.91,3.45,1.91,5.54v4.48c0,3.84-2.41,7.12-5.8,8.41c1.26,1.31,2.63,2.62,4.08,3.89c2.33,2.04,3.41,5.1,2.97,8.09
			c0.78,2.29,0.62,4.83-0.52,7.02l-2.24,4.35C478.85,161.15,475.76,163.03,472.39,163.03z"/>
	</g>
</g>
<g>
	<g>
		<path class="st1" d="M19.53,78.05h-7.68c2.96-4.41,5.47-10.49,6.76-15.05h6.92C24.09,67.63,21.96,74.09,19.53,78.05z M39.59,57.22
			c-1.14,1.44-2.89,2.2-5.09,2.2H20.52c-2.13,0-3.72-0.76-4.86-1.98c-1.06-1.22-1.6-2.96-1.6-4.86V19.29c0-2.2,0.76-3.95,2.05-5.09
			c1.22-0.99,2.74-1.44,4.56-1.44h13.3c2.2,0,3.95,0.68,5.09,1.82c1.29,1.29,1.9,3.04,1.9,4.94v33.52
			C40.96,54.71,40.51,56.16,39.59,57.22z M34.35,19.45c0-0.91-0.68-1.67-1.6-1.67H22.19c-0.91,0-1.6,0.76-1.6,1.67v6.84h13.76V19.45
			z M34.35,31.53H20.59v8.82h13.76V31.53z M34.35,45.44H20.59v6.99c0,1.29,0.99,2.13,2.05,2.13h9.88c1.22,0,1.82-0.84,1.82-2.13
			V45.44z M35.49,78.05c-2.2-3.65-4.71-10.72-5.7-15.05h6.92c0.91,4.18,3.95,11.1,6.54,15.05H35.49z M50.46,69.08h-8.06
			c5.78-9.27,10.18-22.8,11.55-33.21h6.76C58.97,45.97,55.4,59.2,50.46,69.08z M73.11,30.7v40.74c0,1.9-0.53,3.42-1.52,4.56
			c-1.22,1.29-3.04,2.05-5.47,2.05h-8.06l-2.43-5.32h8.66c0.99,0,1.98-0.76,1.98-2.05V30.7H43.62v-5.24h22.65V11.69h6.84v13.76h5.47
			v5.24H73.11z"/>
		<path class="st2" d="M66.12,83.05h-8.06c-1.96,0-3.73-1.14-4.55-2.92l-2.43-5.32c-0.11-0.24-0.2-0.49-0.27-0.74
			c-0.12,0.01-0.23,0.01-0.35,0.01h-3.79c0.26,0.44,0.51,0.85,0.76,1.23c1,1.54,1.09,3.5,0.21,5.12s-2.56,2.62-4.4,2.62h-7.75
			c-1.75,0-3.37-0.92-4.28-2.41c-1.26-2.09-2.56-5-3.67-7.98c-1.12,2.96-2.37,5.77-3.75,8.01c-0.91,1.48-2.52,2.38-4.26,2.38h-7.68
			c-1.85,0-3.54-1.02-4.41-2.65c-0.87-1.63-0.77-3.61,0.26-5.14c2.7-4.01,4.82-9.33,5.91-12.97c-0.57-0.42-1.11-0.89-1.61-1.42
			c-0.04-0.04-0.08-0.08-0.12-0.13c-1.83-2.09-2.83-4.98-2.83-8.16V19.29c0-3.57,1.33-6.71,3.74-8.84c0.05-0.04,0.1-0.09,0.16-0.13
			c2.09-1.7,4.69-2.56,7.71-2.56h13.3c3.44,0,6.51,1.17,8.63,3.29c2.17,2.17,3.36,5.18,3.36,8.48v0.93h15.31v-8.76
			c0-2.76,2.24-5,5-5h6.84c2.76,0,5,2.24,5,5v8.76h0.47c2.76,0,5,2.24,5,5v5.24c0,2.76-2.24,5-5,5h-0.47v35.74
			c0,3.06-0.95,5.77-2.74,7.84c-0.04,0.05-0.09,0.1-0.14,0.15C73.68,81.07,70.83,83.05,66.12,83.05z M71.59,75.99L71.59,75.99
			L71.59,75.99z M56.61,67.73h4.66v-12.7C59.87,59.59,58.29,63.91,56.61,67.73z M45.96,35.7v13c1.36-4.38,2.4-8.84,2.97-13H45.96z"
			/>
	</g>
	<g>
		<path class="st1" d="M150.94,30.85v-7.37c0-0.84-0.61-1.67-1.98-1.67H101c-1.06,0-1.75,0.61-1.75,1.75v7.3h-6.92v-7.52
			c0-1.82,0.61-3.57,1.9-4.86c1.14-1.06,2.74-1.75,4.94-1.75h21.96c-1.14-1.67-2.05-3.5-3.04-5.24h8.89
			c0.84,1.82,1.9,3.57,3.12,5.32h21.36c1.9,0,3.57,0.84,4.79,2.2c0.99,1.14,1.6,2.74,1.6,4.48v7.37H150.94z M153.75,75.77
			c-1.14,1.22-2.66,1.9-4.18,1.9h-48.72c-1.75,0-3.42-0.84-4.56-2.2c-0.99-1.22-1.6-2.89-1.6-4.79v-11.1c0-1.98,0.61-3.8,1.9-5.09
			c1.14-1.06,2.74-1.82,4.94-1.82h47.2c1.52,0,3.88,0.68,5.32,2.51c0.91,1.06,1.52,2.43,1.52,4.33v11.86
			C155.57,73.11,154.81,74.63,153.75,75.77z M147.52,47.26c-0.91,0.91-2.13,1.52-3.42,1.52h-38.38c-1.14,0-2.36-0.61-3.27-1.6
			c-0.76-0.84-1.37-1.98-1.37-3.19v-4.1c0-1.75,0.68-3.04,1.67-3.88c0.99-0.91,2.36-1.37,3.72-1.37h37.24c1.44,0,2.96,0.46,3.95,1.6
			c0.84,0.84,1.37,2.05,1.37,3.8v4.26C149.04,45.29,148.43,46.43,147.52,47.26z M121.75,57.75H102.9c-0.38,0-1.22,0.38-1.22,1.06
			v3.88h20.07V57.75z M121.75,67.79h-20.07v3.8c0,0.76,0.53,1.22,1.22,1.22h18.85V67.79z M104.12,31v-5.02h41.95V31H104.12z
			 M142.2,41.11c0-0.84-0.38-1.52-1.22-1.52h-31.62c-0.91,0-1.37,0.53-1.37,0.91v2.13c0,0.76,0.53,1.22,1.14,1.22h31.85
			c0.68,0,1.22-0.38,1.22-1.14V41.11z M148.73,59.12c0-0.76-0.76-1.37-1.52-1.37h-18.62v4.94h20.14V59.12z M148.73,67.79h-20.14
			v5.02h18.55c0.91,0,1.6-0.76,1.6-1.37V67.79z"/>
		<path class="st2" d="M149.57,82.67h-48.72c-3.22,0-6.28-1.46-8.4-4c-1.79-2.2-2.75-5.02-2.75-7.99v-11.1
			c0-3.39,1.19-6.46,3.36-8.63c0.04-0.04,0.08-0.08,0.12-0.12c1.17-1.09,2.53-1.92,4.03-2.45c-0.74-1.39-1.13-2.88-1.13-4.38v-4.1
			c0-1.44,0.27-2.81,0.78-4.04h-4.52c-2.76,0-5-2.24-5-5v-7.52c0-3.25,1.19-6.23,3.36-8.4c0.04-0.04,0.08-0.08,0.12-0.12
			c2.17-2.02,5.06-3.09,8.35-3.09h13.93c-0.05-0.95,0.18-1.91,0.68-2.76c0.9-1.54,2.54-2.48,4.32-2.48h8.89
			c1.96,0,3.73,1.14,4.55,2.92c0.36,0.78,0.77,1.57,1.28,2.4h18.65c3.27,0,6.3,1.38,8.53,3.88c1.86,2.14,2.86,4.9,2.86,7.81v7.37
			c0,2.76-2.24,5-5,5h-4.58c0.46,1.14,0.77,2.53,0.77,4.2v4.26c0,1.39-0.41,2.82-1.14,4.13c1.8,0.67,3.6,1.8,5.02,3.56
			c1.77,2.09,2.66,4.62,2.66,7.51v11.86c0,2.85-1.12,5.63-3.17,7.82c0,0-0.01,0.01-0.01,0.01C155.32,81.4,152.47,82.67,149.57,82.67
			z M153.75,75.77L153.75,75.77L153.75,75.77z"/>
	</g>
	<g>
		<path class="st1" d="M195.32,20.28c0.91,1.67,2.36,4.26,3.04,5.4h-8.28c-0.61-1.29-1.9-3.95-2.58-5.47h-3.27
			c-0.91,1.82-2.13,3.72-3.34,5.47h-8.74c3.88-4.26,6.46-9.27,8.82-14.21h7.45c-0.38,0.91-1.29,3.04-1.75,3.88h18.54v4.94H195.32z
			 M225.8,20.28c0.84,1.6,2.43,4.03,3.27,5.4h-8.44c-0.76-1.29-1.98-3.65-2.89-5.4h-2.96c-0.84,1.44-2.2,3.72-3.19,5.4h-3.5
			c0.38,1.52,1.22,3.42,1.9,4.71h20.83c1.82,0,3.42,0.76,4.56,1.98c0.99,1.06,1.52,2.36,1.52,3.88v5.85h-7.07
			c0.61,1.29,0.68,2.51,0.68,3.5l0.08,4.26c0,1.52-0.68,2.89-1.75,3.8c-0.99,0.91-2.36,1.37-3.8,1.37h-41.12v4.33h44.77
			c1.52,0,2.89,0.53,3.88,1.44c1.06,0.84,1.67,2.05,1.67,3.34v8.66c0,1.52-0.61,2.74-1.67,3.65c-0.84,0.68-2.05,1.06-3.42,1.06
			h-46.59c-1.37,0-2.74-0.68-3.8-1.75c-0.99-1.06-1.75-2.51-1.75-4.03V46.58c0-1.44,0.61-3.8,1.37-4.56h-5.78v-6
			c0-1.44,0.61-2.96,1.75-4.03c0.99-0.91,2.51-1.6,4.41-1.6h22.42c-0.53-1.29-1.29-3.5-1.75-5.02h3.8c3.5-4.18,5.85-8.89,7.83-13.76
			h7.68c-0.38,0.99-1.22,2.96-1.67,3.8h20.6v4.86H225.8z M229.6,36.93c0-0.84-0.76-1.67-1.9-1.67h-46.51c-0.84,0-1.6,0.53-1.6,1.6
			v3.95c0.68-0.61,1.98-1.22,2.89-1.22h42.71c1.67,0,3.34,0.68,4.41,2.2V36.93z M223.51,46.05c0-0.91-0.68-1.6-1.52-1.6h-36.03
			c-1.14,0-2.05,1.14-2.05,2.2v3.42h38c1.14,0,1.6-0.76,1.6-1.67V46.05z M227.32,65.81c0-0.99-0.68-1.6-1.6-1.6h-41.8v6.84
			c0,0.76,0.68,1.67,1.44,1.67h40.74c0.76,0,1.22-0.61,1.22-1.37V65.81z"/>
		<path class="st2" d="M229.14,82.51h-46.59c-2.66,0-5.27-1.14-7.34-3.21c-0.04-0.04-0.08-0.09-0.13-0.13
			c-1.99-2.14-3.09-4.78-3.09-7.43V46.99c-2.48-0.29-4.41-2.4-4.41-4.97v-6c0-2.18,0.69-4.31,1.93-6.07
			c-0.85-0.52-1.54-1.29-1.96-2.24c-0.8-1.81-0.46-3.92,0.88-5.39c3.49-3.83,5.87-8.52,8-13c0.83-1.74,2.59-2.85,4.51-2.85h7.45
			c1.67,0,3.23,0.84,4.16,2.23c0.34,0.51,0.58,1.07,0.71,1.65h11.92c0.32,0,0.63,0.03,0.93,0.09c0.1-0.23,0.19-0.46,0.29-0.69
			c0.77-1.89,2.6-3.12,4.63-3.12h7.68c1.65,0,3.19,0.81,4.12,2.17c0.34,0.5,0.59,1.06,0.73,1.63h14.07c2.76,0,5,2.24,5,5v4.86
			c0,2.76-2.24,5-5,5h-3.6c0.02,0.19,0.02,0.39,0.01,0.58c1.88,0.56,3.58,1.61,4.96,3.09c1.88,2.03,2.87,4.54,2.87,7.29v5.85
			c0,2.76-2.24,5-5,5h-1.36l0.05,2.66c0,2.14-0.64,4.15-1.81,5.83c0.73,0.38,1.41,0.85,2.03,1.4c2.18,1.79,3.43,4.38,3.43,7.15v8.66
			c0,2.91-1.21,5.55-3.42,7.44c-0.03,0.02-0.06,0.05-0.09,0.07C234,81.73,231.66,82.51,229.14,82.51z"/>
	</g>
	<g>
		<path class="st1" d="M251.63,74.4v-6.16c2.51-0.68,6.08-1.98,7.98-2.81V43.24h-6.84v-5.09h6.84V19.98h-8.36v-5.17h22.8v5.17h-7.75
			v18.17h6.23v5.09h-6.23v19.3c2.36-1.06,5.62-2.58,7.98-3.72v6C267.21,68.01,256.57,72.65,251.63,74.4z M274.05,78.05V72.8h18.24
			V62.69h-15.35v-5.02h15.35v-8.89h-6.61c-2.51,0-4.56-0.61-5.93-1.82c-1.44-1.22-2.2-3.04-2.2-5.32V19.29c0-2.05,0.84-3.8,2.2-4.94
			c1.29-1.14,3.04-1.82,5.09-1.82h22.19c2.13,0,3.95,0.76,5.17,1.98c1.29,1.37,1.9,3.34,1.9,5.47v22.35c0,1.82-0.91,3.57-2.43,4.79
			c-1.37,1.06-3.04,1.67-4.94,1.67h-7.3v8.89h15.58v5.02h-15.58V72.8h18.39v5.24H274.05z M292.3,17.55h-6.31
			c-0.68,0-1.67,0.68-1.67,1.67v8.97h7.98V17.55z M292.3,33.28h-7.98v9.04c0,0.61,0.99,1.29,1.52,1.29h6.46V33.28z M307.34,19.6
			c0-1.06-0.68-2.05-1.75-2.05h-6.16v10.64h7.9V19.6z M307.34,33.28h-7.9v10.34h5.93c1.52,0,1.98-0.68,1.98-2.05V33.28z"/>
		<path class="st2" d="M317.83,83.05h-43.78c-2.76,0-5-2.24-5-5V72.8c0-0.06,0-0.12,0-0.19c-5.97,2.62-12.2,5.24-15.76,6.5
			c-1.53,0.54-3.23,0.31-4.55-0.63c-1.33-0.94-2.11-2.46-2.11-4.08v-6.16c0-2.25,1.51-4.23,3.68-4.82c1.26-0.34,2.85-0.87,4.3-1.39
			V48.24h-1.84c-2.76,0-5-2.24-5-5v-5.09c0-2.76,2.24-5,5-5h1.84v-8.17h-3.36c-2.76,0-5-2.24-5-5v-5.17c0-2.76,2.24-5,5-5h22.8
			c0.92,0,1.78,0.25,2.52,0.68c2.23-1.91,5.16-2.96,8.27-2.96h22.19c3.39,0,6.49,1.22,8.7,3.44c0.03,0.03,0.07,0.07,0.1,0.1
			c2.11,2.23,3.27,5.39,3.27,8.91v22.35c0,3.33-1.57,6.5-4.31,8.69c-0.87,0.67-1.79,1.23-2.76,1.66h2.99c2.76,0,5,2.24,5,5v5.02
			c0,2.76-2.24,5-5,5h-10.58v0.11h13.39c2.76,0,5,2.24,5,5v5.24C322.83,80.81,320.59,83.05,317.83,83.05z M278.3,67.8h9v-0.11h-8.92
			C278.35,67.73,278.32,67.77,278.3,67.8z M271.3,48.24v6.47c0.28-0.13,0.55-0.26,0.8-0.39c0.52-0.25,1.07-0.41,1.62-0.47
			c0.87-0.73,1.99-1.17,3.22-1.17h2.69c-1.18-0.49-2.24-1.14-3.15-1.93c-0.93-0.79-1.71-1.73-2.32-2.78
			c-0.51,0.18-1.06,0.27-1.63,0.27H271.3z M271.3,33.14h1.23c0.01,0,0.01,0,0.02,0v-8.17h-1.25V33.14z"/>
	</g>
	<g>
		<path class="st1" d="M387.75,27.35c-3.42-2.89-7.75-6.99-10.72-10.11c-0.53-0.53-1.75-0.99-2.51-0.99h-19
			c-0.84,0-2.28,0.61-2.74,1.14c-2.74,2.89-7.37,7.37-10.56,9.96h-11.17c6.84-4.26,13.07-9.96,17.1-14.06
			c0.53-0.61,1.29-1.06,2.28-1.37c0.76-0.23,1.52-0.38,2.43-0.38h24.7c0.84,0,1.75,0.23,2.58,0.53c0.91,0.3,1.75,0.84,2.28,1.37
			c4.1,4.33,9.58,9.35,15.66,13.91H387.75z M392.24,47.8c-1.14,1.22-2.74,2.13-4.64,2.13h-46.82c-1.44,0-2.74-0.68-3.72-1.6
			c-1.22-1.14-1.98-2.74-1.98-4.26v-7.98c0-1.67,0.68-3.27,1.82-4.41c1.14-1.22,2.74-1.98,4.48-1.98h45.83
			c1.67,0,3.34,0.53,4.56,1.6c1.37,1.14,2.2,2.89,2.2,5.09v7.22C393.98,45.06,393.38,46.58,392.24,47.8z M388.21,76.22
			c-1.22,1.06-2.96,1.67-5.02,1.67h-38.53c-1.52,0-3.12-0.68-4.26-1.75c-1.22-1.22-2.05-2.89-2.05-4.71V59.5
			c0-1.67,0.99-3.34,2.43-4.41c1.06-0.84,2.43-1.37,3.88-1.37h39.22c1.9,0,3.57,0.76,4.79,1.9c1.22,1.22,1.9,2.96,1.9,5.02v10.64
			C390.56,73.18,389.73,75.01,388.21,76.22z M361.15,34.65h-17.71c-0.76,0-1.6,0.76-1.6,1.67v6.84c0,1.14,0.68,1.82,1.44,1.82h7.37
			c-0.91-1.9-2.81-6-3.72-8.36h6.61c0.76,2.36,2.81,6.38,3.88,8.36h3.72V34.65z M383.72,60.34c0-0.84-1.06-1.67-1.98-1.67h-34.43
			c-1.14,0-1.82,0.84-1.82,1.75v2.89h38.23V60.34z M383.72,68.09h-38.23v2.89c0,1.06,0.99,1.9,1.75,1.9h34.58
			c1.14,0,1.9-0.91,1.9-1.98V68.09z M350.59,25.76v-4.79h28.58v4.79H350.59z M387.45,36.47c0-0.91-0.84-1.82-1.82-1.82h-17.63v10.34
			h3.72c1.37-2.2,3.34-5.93,4.18-8.36h6.61c-0.61,1.98-2.43,6-4.03,8.36h7.14c1.06,0,1.82-0.84,1.82-1.82V36.47z"/>
		<path class="st2" d="M383.19,82.89h-38.53c-2.77,0-5.56-1.13-7.67-3.09c-0.04-0.04-0.08-0.08-0.12-0.12
			c-2.27-2.27-3.52-5.2-3.52-8.25V59.5c0-2.18,0.76-4.33,2.12-6.13c-0.63-0.39-1.24-0.85-1.81-1.37c-2.29-2.15-3.59-5.03-3.59-7.93
			v-7.98c0-1.28,0.23-2.55,0.65-3.75c-2.1-0.13-3.9-1.57-4.49-3.62c-0.61-2.15,0.27-4.44,2.17-5.62c6.87-4.28,13-10.1,16.1-13.24
			c1.14-1.25,2.63-2.16,4.46-2.72c1.38-0.41,2.61-0.6,3.9-0.6h24.7c1.31,0,2.73,0.27,4.23,0.81c1.58,0.54,3.05,1.44,4.17,2.55
			c0.03,0.03,0.06,0.06,0.1,0.1c4.38,4.63,9.72,9.37,15.03,13.35c1.72,1.29,2.42,3.54,1.74,5.58c-0.65,1.96-2.45,3.31-4.5,3.41
			c0.43,1.26,0.65,2.62,0.65,4.05v7.22c0,2.77-1.1,5.47-3.1,7.6c0,0,0,0,0,0c-0.79,0.84-1.67,1.55-2.61,2.12
			c1.49,2.02,2.29,4.56,2.29,7.3v10.64c0,3.43-1.51,6.63-4.15,8.78C389.28,81.89,386.36,82.89,383.19,82.89z M392.24,47.8
			L392.24,47.8L392.24,47.8z"/>
	</g>
	<g>
		<path class="st1" d="M425.45,78.05H410.4c5.62-2.05,11.4-5.4,16.04-8.74h11.32C434.49,72.19,428.87,75.99,425.45,78.05z
			 M471.81,65.43c-1.37,1.29-3.27,2.05-5.62,2.05h-44.99c-1.82,0-3.42-0.84-4.56-2.13c-1.14-1.29-1.82-3.12-1.82-5.02V39.06
			c0-1.98,0.91-3.72,2.36-4.86c1.29-0.99,2.96-1.67,4.79-1.67h44.61c2.13,0,4.03,0.68,5.32,1.98c1.14,1.22,1.9,3.04,1.9,5.47v20.6
			C473.78,62.54,473.02,64.21,471.81,65.43z M469.83,26.36c-0.91,1.06-2.36,1.75-4.41,1.75H421.8c-1.22,0-2.51-0.61-3.34-1.52
			c-0.91-0.91-1.52-2.13-1.52-3.27v-5.24c0-1.67,0.68-3.04,1.67-4.1c1.06-0.99,2.58-1.6,4.26-1.6h42.94c1.52,0,2.89,0.68,3.88,1.67
			c0.99,0.99,1.52,2.36,1.52,3.65v4.18C471.2,23.55,470.82,25.15,469.83,26.36z M466.79,39.44c0-0.91-0.68-1.98-1.9-1.98h-41.12
			c-1.06,0-1.98,1.14-1.98,2.28v2.36h45V39.44z M466.79,47.19h-45v5.09h45V47.19z M466.79,57.22h-45v3.5c0,0.91,0.84,1.75,1.82,1.75
			h41.12c1.06,0,2.05-0.68,2.05-1.98V57.22z M464.21,18.76c0-0.91-0.61-1.44-1.44-1.44h-37.39c-0.68,0-1.37,0.76-1.37,1.6v2.96
			c0,1.06,0.61,1.37,1.44,1.37h37.39c0.91,0,1.37-0.61,1.37-1.37V18.76z M463.75,78.05c-4.26-2.43-8.89-5.85-12.46-8.82h11.48
			c4.18,3.12,10.49,6.46,15.88,8.82H463.75z"/>
		<path class="st2" d="M478.65,83.05h-14.9c-0.87,0-1.73-0.23-2.48-0.66c-4-2.29-8.8-5.68-13.18-9.31c-0.22-0.18-0.42-0.38-0.6-0.6
			h-5.87c-0.17,0.2-0.35,0.39-0.55,0.57c-3.75,3.31-9.86,7.37-13.05,9.28c-0.78,0.47-1.67,0.71-2.57,0.71H410.4
			c-2.43,0-4.5-1.74-4.92-4.13s0.93-4.74,3.21-5.57c2.02-0.74,4.14-1.69,6.29-2.81c-0.76-0.53-1.46-1.15-2.1-1.88
			c-1.95-2.22-3.07-5.25-3.07-8.32V39.06c0-3.45,1.55-6.65,4.26-8.79c0.19-0.15,0.38-0.29,0.58-0.42c-1.73-1.86-2.71-4.21-2.71-6.52
			v-5.24c0-2.79,1.04-5.39,3.01-7.5c0.08-0.09,0.17-0.18,0.26-0.26c2.04-1.89,4.76-2.93,7.66-2.93h42.94c2.76,0,5.39,1.11,7.41,3.14
			c1.9,1.9,2.99,4.51,2.99,7.18v4.18c0,2.99-0.86,5.63-2.49,7.64c-0.01,0.01-0.02,0.02-0.03,0.03c0.62,0.41,1.21,0.88,1.73,1.41
			c0.04,0.04,0.08,0.08,0.11,0.12c1.48,1.58,3.25,4.41,3.25,8.89v20.6c0,3.2-1.22,6.18-3.44,8.4c-0.03,0.03-0.07,0.07-0.1,0.1
			c-0.43,0.41-0.9,0.79-1.38,1.12c2.16,1.15,4.47,2.26,6.79,3.27c2.17,0.95,3.38,3.29,2.89,5.6
			C483.06,81.39,481.02,83.05,478.65,83.05z M471.81,65.43L471.81,65.43L471.81,65.43z M469.83,26.36L469.83,26.36L469.83,26.36z"/>
	</g>
	<g>
		<path class="st1" d="M15.37,154.22v-4.54h24.77v-15.94H18.76v-4.54h21.38v-14.59H26.89c-1.15,3.52-3.01,7.87-4.54,10.24h-7.1
			c4.35-6.21,7.62-15.55,8.7-22.72h6.21c-0.38,2.05-1.28,5.7-1.92,7.87h11.9V98.29h5.76V110h23.49v4.61H45.89v14.59h21.5v4.54h-21.5
			v15.94h24.96v4.54H15.37z"/>
		<path class="st2" d="M70.85,159.22H15.37c-2.76,0-5-2.24-5-5v-4.54c0-2.76,2.24-5,5-5h19.77v-5.94H18.76c-2.76,0-5-2.24-5-5v-4.12
			c-1.26-0.39-2.33-1.27-2.96-2.47c-0.86-1.65-0.73-3.65,0.34-5.18c3.55-5.07,6.78-13.54,7.85-20.6c0.37-2.44,2.47-4.25,4.94-4.25
			h6.21c1.49,0,2.9,0.66,3.85,1.81c0.66,0.8,1.05,1.77,1.14,2.79v-3.43c0-2.76,2.24-5,5-5h5.76c2.76,0,5,2.24,5,5V105h18.49
			c2.76,0,5,2.24,5,5v4.61c0,2.76-2.24,5-5,5H50.89v4.59h16.5c2.76,0,5,2.24,5,5v4.54c0,2.76-2.24,5-5,5h-16.5v5.94h19.96
			c2.76,0,5,2.24,5,5v4.54C75.85,156.98,73.61,159.22,70.85,159.22z M28.4,124.2h6.74v-4.59H30.4
			C29.8,121.15,29.11,122.74,28.4,124.2z M34.66,105h0.48v-2.46c-0.01,0.17-0.04,0.34-0.07,0.51C34.96,103.6,34.82,104.27,34.66,105
			z"/>
	</g>
	<g>
		<path class="st1" d="M133.96,151.92c-1.02,1.28-2.56,2.05-4.67,2.05H91.46c-2.11,0-3.71-0.7-4.74-1.98
			c-0.9-1.15-1.41-2.75-1.41-4.8V104.5c0-1.79,0.77-3.39,2.11-4.42c0.96-0.77,2.3-1.28,3.84-1.28h37.82c1.92,0,3.46,0.64,4.54,1.86
			c1.02,1.09,1.54,2.69,1.54,4.61v42.75C135.17,149.49,134.79,150.89,133.96,151.92z M129.35,105.26c0-0.96-0.64-1.86-1.86-1.86
			H92.74c-0.77,0-1.47,0.7-1.47,1.6v19.13h38.08V105.26z M129.35,128.75H91.27v19.07c0,1.09,0.77,1.79,1.79,1.79h34.94
			c0.83,0,1.34-0.7,1.34-1.6V128.75z"/>
		<path class="st2" d="M129.29,158.97H91.46c-3.58,0-6.65-1.37-8.64-3.86c-1.65-2.12-2.5-4.84-2.5-7.92V104.5
			c0-3.34,1.47-6.38,4.04-8.36c1.91-1.51,4.36-2.34,6.92-2.34h37.82c3.33,0,6.17,1.2,8.23,3.48c1.87,2.01,2.85,4.77,2.85,7.99v42.75
			c0,2.73-0.8,5.16-2.32,7.04C135.82,157.58,132.78,158.97,129.29,158.97z M96.27,144.61h28.08v-10.86H96.27V144.61z M96.27,119.14
			h28.08v-10.73H96.27V119.14z"/>
	</g>
	<g>
		<path class="st1" d="M166.47,154.29c-1.15-1.54-3.46-4.99-4.54-6.78c-1.6,2.37-3.39,4.8-5.06,6.78h-7.81
			c3.71-3.65,6.98-7.68,9.66-11.84c-2.3-3.71-4.86-8-6.66-11.2c-0.7-1.28-0.64-2.94-0.32-4.61c0.77-3.97,1.86-10.24,2.37-14.72
			h-4.48v-4.48h4.99c0.51-3.01,0.83-6.21,1.02-9.09h5.44c-0.19,2.43-0.7,6.4-1.09,9.09h5.76c1.47,0,2.69,0.45,3.65,1.22
			c1.41,1.15,2.11,2.94,1.98,5.06c-0.51,10.05-1.6,19.9-6.21,28.22c2.75,4.22,5.7,8.38,8.83,12.35H166.47z M164.36,111.92h-4.8
			c-0.64,4.74-1.79,11.77-2.5,15.61c-0.13,0.64,0.06,1.28,0.32,1.79c1.34,2.3,3.07,5.25,4.42,7.36c3.2-7.1,4.1-14.97,4.29-22.97
			C166.15,112.75,165.32,111.92,164.36,111.92z M191.94,128.18v20.22c0,1.79-0.51,3.2-1.41,4.16c-1.09,1.15-2.62,1.73-4.42,1.73
			h-6.14l-2.18-4.61h6.91c0.77,0,1.34-0.64,1.34-1.34v-20.16h-13.82v-4.35h13.82v-6.78c4.03-3.78,7.81-7.87,10.69-12.1
			c0.19-0.32,0-0.7-0.38-0.7h-22.08v-4.48h25.28c1.28,0,2.43,0.77,3.07,1.86c0.64,1.02,0.77,2.37,0.13,3.65
			c-1.73,3.33-7.49,9.98-10.82,12.99v5.57h13.5v4.35H191.94z"/>
		<path class="st2" d="M186.12,159.29h-6.14c-1.09,0-2.13-0.36-2.98-0.98c-0.85,0.63-1.88,0.98-2.98,0.98h-7.55
			c-1.57,0-3.05-0.74-4-2c-0.22-0.3-0.48-0.65-0.75-1.03c-0.35,0.44-0.69,0.85-1.02,1.25c-0.95,1.13-2.35,1.79-3.83,1.79h-7.81
			c-2.03,0-3.86-1.23-4.63-3.11c-0.77-1.88-0.32-4.04,1.12-5.46c2.65-2.6,5.07-5.42,7.21-8.41c-1.9-3.13-3.72-6.21-5.06-8.62
			c-1.21-2.19-1.48-4.8-0.87-8c0.47-2.44,1.06-5.74,1.56-8.93c-2.16-0.55-3.76-2.51-3.76-4.85v-4.48c0-2.76,2.24-5,5-5h0.64
			c0.15-1.4,0.28-2.87,0.39-4.42c0.18-2.63,2.36-4.67,4.99-4.67h5.44c1.39,0,2.73,0.58,3.67,1.61c0.95,1.02,1.42,2.4,1.31,3.79
			c-0.08,1.04-0.22,2.33-0.38,3.69h0.06c1.23,0,2.41,0.19,3.51,0.55v-3.23c0-2.76,2.24-5,5-5h25.28c2.96,0,5.77,1.63,7.35,4.26
			c1.58,2.56,1.7,5.73,0.32,8.48c-1.63,3.14-5.49,7.84-8.77,11.32h6.99c2.76,0,5,2.24,5,5v4.35c0,2.76-2.24,5-5,5h-8.5v15.22
			c0,3.02-0.95,5.64-2.75,7.57C192.16,158.12,189.3,159.29,186.12,159.29z M170.97,141.6c1.07,1.59,2.15,3.13,3.23,4.62
			c0.93-0.97,2.23-1.54,3.61-1.54h3.25v-11.5h-7.13C173.17,136.11,172.21,138.9,170.97,141.6z M176.09,118.82h4.97v-1.78
			c0-1.38,0.57-2.7,1.58-3.65c1.5-1.4,2.89-2.79,4.17-4.15h-11.08c0.54,1.47,0.77,3.09,0.67,4.77
			C176.31,115.66,176.21,117.26,176.09,118.82z M164.36,116.92L164.36,116.92L164.36,116.92z"/>
	</g>
	<g>
		<path class="st1" d="M232.14,134.64c-1.34-2.94-2.62-7.17-3.39-9.86v29.44h-5.57V132.4h-6.21c5.5-6.34,9.66-13.5,12.54-21.05
			c0.13-0.45-0.13-1.22-0.64-1.22h-11.33v-4.35h6.78c-1.02-2.24-2.24-5.57-2.75-7.42h5.82c0.58,2.56,1.34,5.18,2.69,7.42h1.54
			c1.47,0,2.56,0.58,3.14,1.47c0.7,1.02,0.83,2.43,0.45,3.78c-1.28,4.54-3.58,8.77-5.82,12.93h4.67c0.96,3.71,2.18,7.36,3.97,10.69
			H232.14z M236.04,154.16v-4.35h9.92c-0.77-1.54-1.41-3.14-1.92-4.86h5.95c0.58,1.66,1.22,3.39,2.3,4.86h3.65
			c1.02-1.6,1.92-3.14,2.62-4.86h6.4c-0.64,1.47-1.6,3.33-2.43,4.86h10.11v4.35H236.04z M236.36,128.3v-4.22h36.16v4.22H236.36z
			 M269.51,119.73c-0.96,0.9-2.3,1.54-4.29,1.54h-23.49c-1.09,0-2.11-0.58-2.94-1.34c-0.83-0.83-1.41-2.05-1.41-3.26v-9.86
			c0-1.34,0.7-2.62,1.79-3.52c0.96-0.77,2.11-1.22,3.33-1.22h4.48v-3.84h4.99v3.84h4.35v-3.84h4.93v3.84h4.48
			c1.66,0,3.01,0.58,3.97,1.66c0.83,0.96,1.34,2.24,1.34,3.84v8.45C271.04,117.36,270.53,118.77,269.51,119.73z M269.19,142.06
			c-0.7,0.7-1.73,1.15-3.07,1.15h-23.93c-1.09,0-1.98-0.51-2.69-1.22c-0.64-0.7-1.02-1.66-1.02-2.62v-4.35
			c0-1.15,0.45-2.05,1.15-2.75c0.77-0.7,1.79-1.09,3.07-1.09h23.42c1.34,0,2.37,0.38,3.07,1.15c0.77,0.77,1.15,1.92,1.15,3.26v3.65
			C270.34,140.27,269.96,141.29,269.19,142.06z M246.98,106.03h-2.88c-0.9,0-1.41,0.7-1.41,1.54v2.11h4.29V106.03z M246.98,113.33
			h-4.29v2.5c0,0.83,0.45,1.34,1.34,1.34h2.94V113.33z M264.58,136.3c0-0.64-0.32-1.15-1.02-1.15h-18.17
			c-0.64,0-1.15,0.58-1.15,1.22v2.11c0,0.51,0.51,1.02,1.15,1.02h17.92c0.64,0,1.28-0.51,1.28-1.22V136.3z M256.33,106.03h-4.35
			v3.65h4.35V106.03z M256.33,113.33h-4.35v3.84h4.35V113.33z M265.6,107.57c0-0.9-0.64-1.54-1.54-1.54h-2.82v3.65h4.35V107.57z
			 M265.6,113.33h-4.35v3.84h3.2c0.51,0,1.15-0.51,1.15-1.22V113.33z"/>
		<path class="st2" d="M228.74,159.22h-5.57c-2.76,0-5-2.24-5-5V137.4h-1.21c-1.96,0-3.74-1.14-4.55-2.93s-0.51-3.87,0.77-5.35
			c3.66-4.21,6.75-8.9,9.23-13.99h-4.88c-2.76,0-5-2.24-5-5v-4.35c0-2.61,2-4.75,4.54-4.98c-0.12-0.4-0.24-0.77-0.33-1.11
			c-0.42-1.5-0.1-3.12,0.84-4.36c0.95-1.24,2.42-1.97,3.98-1.97h5.82c2.34,0,4.36,1.62,4.88,3.9c0.25,1.11,0.57,2.41,1.03,3.66
			c0.35,0.06,0.69,0.14,1.02,0.23c0.48-0.63,1.03-1.21,1.67-1.73c1.83-1.47,3.93-2.27,6.12-2.35c0.52-2.21,2.5-3.85,4.87-3.85h4.99
			c0.78,0,1.52,0.18,2.18,0.5c0.66-0.32,1.4-0.5,2.18-0.5h4.93c2.36,0,4.34,1.64,4.87,3.85c2.91,0.1,5.5,1.28,7.33,3.35
			c1.71,1.97,2.59,4.43,2.59,7.15v8.45c0,1.36-0.26,2.68-0.76,3.9c1.34,0.9,2.23,2.43,2.23,4.16v4.22c0,1.88-1.04,3.52-2.57,4.37
			c0.26,0.92,0.39,1.9,0.39,2.93v3.65c0,2.07-0.69,4.03-1.96,5.61c2.41,0.36,4.26,2.44,4.26,4.95v4.35c0,2.76-2.24,5-5,5h-36.61
			c-1.42,0-2.71-0.59-3.62-1.55C231.51,158.6,230.2,159.22,228.74,159.22z M233.74,141.53v3.83c0.5-0.26,1.04-0.43,1.62-0.51
			C234.6,143.87,234.05,142.73,233.74,141.53z"/>
	</g>
	<g>
		<path class="st1" d="M338.12,133.87c-8,9.15-20.93,15.55-33.15,20.35h-19.33c7.49-2.05,16-4.8,23.29-7.81
			c-2.56-2.88-4.99-6.08-6.78-9.34h6.91c1.47,2.37,3.39,4.8,5.25,6.98c6.4-2.82,12.42-6.72,17.86-11.71H308.1
			c-3.46,2.62-6.98,5.12-10.56,7.36h-12.48c11.65-5.44,18.94-10.18,26.43-17.85c-2.94,1.09-6.72,2.3-8.96,3.01h-18.56
			c8.38-2.05,16.19-4.48,24-7.23c-1.98-2.37-3.97-4.99-5.38-7.62h6.72c1.15,1.92,2.56,3.65,4.16,5.44
			c5.44-2.18,10.69-4.8,15.62-8.19h-24.06c-2.88,2.82-6.02,5.63-9.21,8.06h-10.56c8.77-5.12,15.17-10.94,20.35-17.21h7.3
			c-1.09,1.6-2.56,3.52-3.65,4.74h23.68c1.66,0,2.75,0.9,3.26,2.05c0.51,1.28,0.32,2.82-0.7,3.84
			c-4.74,4.67-16.77,10.43-23.68,12.93h7.87c-1.79,2.05-4.1,4.35-6.14,6.21h22.08c1.54,0,2.69,0.83,3.2,1.98
			C339.33,131.06,339.2,132.65,338.12,133.87z"/>
		<path class="st2" d="M304.97,159.22h-19.33c-2.5,0-4.62-1.85-4.96-4.33c-0.33-2.48,1.22-4.83,3.64-5.49
			c5.69-1.56,11.34-3.34,16.44-5.19c-0.1-0.15-0.21-0.29-0.31-0.44c-0.09,0.05-0.17,0.11-0.26,0.16c-0.79,0.5-1.71,0.76-2.65,0.76
			h-12.48c-2.34,0-4.37-1.63-4.88-3.92s0.64-4.62,2.76-5.61c3.95-1.84,7.31-3.57,10.29-5.32h-9.26c-2.53,0-4.66-1.89-4.96-4.4
			c-0.3-2.51,1.32-4.85,3.78-5.45c0.15-0.04,0.29-0.07,0.44-0.11c-1.35-0.6-2.4-1.78-2.8-3.26c-0.59-2.18,0.35-4.48,2.3-5.62
			c7.45-4.35,13.67-9.61,19.02-16.08c0.95-1.15,2.36-1.81,3.85-1.81h7.3c1.85,0,3.55,1.02,4.42,2.66c0.35,0.65,0.54,1.36,0.57,2.08
			h15.04c3.46,0,6.46,1.92,7.83,5.02c0.03,0.06,0.05,0.12,0.07,0.17c1.29,3.22,0.58,6.85-1.81,9.23c-3.24,3.2-8.85,6.53-14.34,9.25
			c0.01,0.45-0.04,0.91-0.15,1.35h11.08c3.44,0,6.41,1.9,7.77,4.95c1.34,3.19,0.73,6.83-1.52,9.37
			c-7.21,8.24-18.35,15.13-35.07,21.7C306.21,159.1,305.59,159.22,304.97,159.22z M315.32,137.33c0.12,0.17,0.25,0.33,0.38,0.5
			c0.32-0.17,0.63-0.33,0.95-0.5H315.32z"/>
	</g>
	<g>
		<path class="st1" d="M351.43,154.22V150h24.77v-3.97h-22.72v-4.1h22.72v-3.84h-16.45c-1.47,0-2.75-0.51-3.71-1.41
			c-1.15-0.96-1.79-2.5-1.79-4.22v-10.94c0-1.54,0.64-2.88,1.6-3.84c1.02-1.09,2.5-1.66,4.1-1.66h16.25v-3.52h-24.96v-3.97h24.96
			v-3.2c-6.78,0.19-17.28,0.45-22.14,0.51v-4.61c17.28,0.26,32.96-0.32,49.92-3.52v4.99c-4.93,0.64-15.23,1.73-22.01,2.18v3.65
			h24.77v3.97h-24.77v3.52h17.02c1.41,0,2.69,0.58,3.58,1.54c0.83,0.9,1.34,2.05,1.34,3.33v11.46c0,1.86-0.64,3.39-1.92,4.35
			c-1.09,0.9-2.62,1.41-4.61,1.41h-15.42v3.84h23.1v4.1h-23.1V150h25.15v4.22H351.43z M376.2,120.11h-14.46
			c-0.96,0-1.6,0.7-1.6,1.41v3.2h16.06V120.11z M376.2,128.88h-16.06v3.65c0,0.83,0.77,1.34,1.34,1.34h14.72V128.88z M398.21,121.71
			c0-0.77-0.58-1.6-1.6-1.6h-14.66v4.61h16.25V121.71z M398.21,128.88h-16.25v4.99h14.72c0.9,0,1.54-0.51,1.54-1.34V128.88z"/>
		<path class="st2" d="M407.11,159.22h-55.68c-2.76,0-5-2.24-5-5V150c0-1.66,0.81-3.13,2.05-4.04v-4.03c0-1.69,0.84-3.19,2.13-4.1
			c-0.88-1.58-1.36-3.42-1.36-5.38v-10.94c0-1.45,0.3-2.86,0.86-4.15c-2.22-0.51-3.87-2.5-3.87-4.87v-3.97
			c0-1.98,1.15-3.69,2.82-4.5v-2.8c0-1.34,0.54-2.62,1.49-3.56c0.94-0.92,2.2-1.44,3.51-1.44c0.02,0,0.05,0,0.07,0
			c14.79,0.22,30.96-0.04,48.92-3.43c1.46-0.28,2.97,0.11,4.12,1.06c1.15,0.95,1.81,2.36,1.81,3.85v4.99c0,0.44-0.06,0.87-0.17,1.28
			c1.72,0.79,2.92,2.53,2.92,4.55v3.97c0,2.24-1.48,4.14-3.51,4.78c0.46,1.14,0.7,2.37,0.7,3.61v11.46c0,1.97-0.44,3.77-1.28,5.31
			c1.46,0.87,2.43,2.47,2.43,4.29v4.03c1.24,0.91,2.05,2.38,2.05,4.04v4.22C412.11,156.98,409.87,159.22,407.11,159.22z"/>
	</g>
	<g>
		<path class="st1" d="M472.39,154.03H441.8c-2.75,0-4.86-0.38-6.66-1.15c-2.24-0.96-3.9-2.5-6.08-4.54
			c-0.96,1.54-2.62,4.22-3.78,5.7h-7.3c4.99-6.21,8.51-12.61,10.82-19.39c0.19-0.58-0.19-1.28-0.83-1.28h-6.4
			c-1.28,0-2.18-0.64-2.56-1.54c-0.32-0.83-0.26-1.86,0.45-2.75c2.11-2.75,5.63-8,7.29-10.88c0.19-0.38,0-0.9-0.38-0.9h-7.94v-4.35
			h11.01c1.79,0,3.07,0.83,3.71,1.98c0.7,1.28,0.64,2.94-0.32,4.54c-1.47,2.37-4.42,6.78-6.34,9.6h3.52c1.86,0,3.26,0.58,4.1,1.6
			c0.9,1.09,1.15,2.62,0.7,4.54c-0.64,2.69-2.5,6.85-3.65,9.22c1.79,2.18,4.03,3.52,6.78,4.35c1.98,0.64,4.22,0.9,6.72,0.9h29.95
			L472.39,154.03z M426.12,109.81c-2.11-3.07-4.99-8.58-6.14-11.52h6.66c1.47,3.97,4.16,8.06,6.91,11.52H426.12z M465.67,145.45
			c-3.58-3.84-8-9.28-10.37-14.46c-2.3,6.08-5.38,10.3-10.11,14.46h-9.34c7.23-5.31,13.38-11.07,14.72-19.07h-14.4v-4.48h14.91
			c0.19-2.56,0.26-6.08,0.06-8.32h-13.63v-4.42h18.11c1.73-2.88,4.03-7.81,5.12-10.88h6.27c-1.09,3.07-3.39,8.26-4.93,10.88h9.34
			v4.42h-14.33c0,2.3,0,5.82-0.06,8.32h15.87v4.48h-16.51c-0.13,0.83-0.38,2.05-0.51,2.82h5.06c2.88,5.89,8.13,11.71,13.31,16.25
			H465.67z M445.06,106.8c-1.28-2.18-3.26-6.14-4.1-8.51h6.27c0.9,2.5,2.94,6.27,4.61,8.51H445.06z"/>
		<path class="st2" d="M472.39,159.03H441.8c-3.41,0-6.15-0.49-8.62-1.56c-1.1-0.47-2.09-1.03-3-1.66
			c-0.33,0.47-0.65,0.91-0.95,1.29c-0.95,1.21-2.4,1.92-3.94,1.92h-7.3c-1.92,0-3.68-1.1-4.51-2.84c-0.83-1.74-0.59-3.79,0.61-5.29
			c3.25-4.05,5.85-8.19,7.85-12.54h-0.37c-3.21,0-5.95-1.75-7.16-4.57c-0.02-0.06-0.05-0.11-0.07-0.17
			c-0.99-2.58-0.55-5.43,1.18-7.64c0.74-0.97,1.68-2.28,2.65-3.69c-2.64-0.13-4.74-2.32-4.74-4.99v-4.35c0-2.76,2.24-5,5-5h0.7
			c-1.59-2.87-3.06-5.9-3.82-7.83c-0.6-1.54-0.41-3.28,0.53-4.64c0.93-1.36,2.48-2.18,4.13-2.18h6.66c2.09,0,3.96,1.3,4.69,3.26
			c0.88,2.38,2.41,5.08,4.46,7.93c0.54-0.2,1.13-0.31,1.74-0.31h0.53c-0.72-1.52-1.37-3.02-1.79-4.22c-0.54-1.53-0.3-3.23,0.64-4.55
			s2.46-2.11,4.08-2.11h6.27c2.11,0,3.99,1.32,4.71,3.31c0.44,1.23,1.29,2.96,2.2,4.54c0.76-1.64,1.44-3.27,1.88-4.52
			c0.71-2,2.59-3.33,4.71-3.33h6.27c1.62,0,3.15,0.79,4.08,2.11c0.94,1.33,1.17,3.02,0.63,4.56c-0.42,1.18-1,2.66-1.67,4.21h1.37
			c2.76,0,5,2.24,5,5v4.42c0,1.46-0.63,2.78-1.63,3.69c1.82,0.75,3.1,2.54,3.1,4.63v4.48c0,2.76-2.24,5-5,5h-4.85
			c2.38,3.39,5.63,6.93,9.49,10.31c1.55,1.36,2.11,3.53,1.41,5.46c0.86,1.47,0.91,3.29,0.13,4.81l-2.24,4.35
			C475.98,157.98,474.26,159.03,472.39,159.03z M453.02,144.68h5.32c-0.89-1.09-1.8-2.24-2.68-3.45
			C454.85,142.42,453.98,143.56,453.02,144.68z M439.82,131.38c0.27,1.32,0.28,2.75,0.02,4.24c1.33-1.34,2.51-2.74,3.46-4.24H439.82
			z"/>
	</g>
</g>
<g>
	<g>
		<path class="st0" d="M19.53,78.05h-7.68c2.96-4.41,5.47-10.49,6.76-15.05h6.92C24.09,67.63,21.96,74.09,19.53,78.05z M39.59,57.22
			c-1.14,1.44-2.89,2.2-5.09,2.2H20.52c-2.13,0-3.72-0.76-4.86-1.98c-1.06-1.22-1.6-2.96-1.6-4.86V19.29c0-2.2,0.76-3.95,2.05-5.09
			c1.22-0.99,2.74-1.44,4.56-1.44h13.3c2.2,0,3.95,0.68,5.09,1.82c1.29,1.29,1.9,3.04,1.9,4.94v33.52
			C40.96,54.71,40.51,56.16,39.59,57.22z M34.35,19.45c0-0.91-0.68-1.67-1.6-1.67H22.19c-0.91,0-1.6,0.76-1.6,1.67v6.84h13.76V19.45
			z M34.35,31.53H20.59v8.82h13.76V31.53z M34.35,45.44H20.59v6.99c0,1.29,0.99,2.13,2.05,2.13h9.88c1.22,0,1.82-0.84,1.82-2.13
			V45.44z M35.49,78.05c-2.2-3.65-4.71-10.72-5.7-15.05h6.92c0.91,4.18,3.95,11.1,6.54,15.05H35.49z M50.46,69.08h-8.06
			c5.78-9.27,10.18-22.8,11.55-33.21h6.76C58.98,45.97,55.4,59.2,50.46,69.08z M73.11,30.7v40.74c0,1.9-0.53,3.42-1.52,4.56
			c-1.22,1.29-3.04,2.05-5.47,2.05h-8.06l-2.43-5.32h8.66c0.99,0,1.98-0.76,1.98-2.05V30.7H43.62v-5.24h22.65V11.69h6.84v13.76h5.47
			v5.24H73.11z"/>
	</g>
	<g>
		<path class="st0" d="M150.94,30.85v-7.37c0-0.84-0.61-1.67-1.98-1.67H101c-1.06,0-1.75,0.61-1.75,1.75v7.3h-6.92v-7.52
			c0-1.82,0.61-3.57,1.9-4.86c1.14-1.06,2.74-1.75,4.94-1.75h21.96c-1.14-1.67-2.05-3.5-3.04-5.24h8.89
			c0.84,1.82,1.9,3.57,3.12,5.32h21.36c1.9,0,3.57,0.84,4.79,2.2c0.99,1.14,1.6,2.74,1.6,4.48v7.37H150.94z M153.75,75.77
			c-1.14,1.22-2.66,1.9-4.18,1.9h-48.72c-1.75,0-3.42-0.84-4.56-2.2c-0.99-1.22-1.6-2.89-1.6-4.79v-11.1c0-1.98,0.61-3.8,1.9-5.09
			c1.14-1.06,2.74-1.82,4.94-1.82h47.2c1.52,0,3.88,0.68,5.32,2.51c0.91,1.06,1.52,2.43,1.52,4.33v11.86
			C155.57,73.11,154.81,74.63,153.75,75.77z M147.52,47.26c-0.91,0.91-2.13,1.52-3.42,1.52h-38.38c-1.14,0-2.36-0.61-3.27-1.6
			c-0.76-0.84-1.37-1.98-1.37-3.19v-4.1c0-1.75,0.68-3.04,1.67-3.88c0.99-0.91,2.36-1.37,3.72-1.37h37.24c1.44,0,2.96,0.46,3.95,1.6
			c0.84,0.84,1.37,2.05,1.37,3.8v4.26C149.04,45.29,148.43,46.43,147.52,47.26z M121.75,57.75H102.9c-0.38,0-1.22,0.38-1.22,1.06
			v3.88h20.07V57.75z M121.75,67.79h-20.07v3.8c0,0.76,0.53,1.22,1.22,1.22h18.85V67.79z M104.12,31v-5.02h41.95V31H104.12z
			 M142.2,41.11c0-0.84-0.38-1.52-1.22-1.52h-31.62c-0.91,0-1.37,0.53-1.37,0.91v2.13c0,0.76,0.53,1.22,1.14,1.22h31.85
			c0.68,0,1.22-0.38,1.22-1.14V41.11z M148.73,59.12c0-0.76-0.76-1.37-1.52-1.37h-18.62v4.94h20.14V59.12z M148.73,67.79h-20.14
			v5.02h18.55c0.91,0,1.6-0.76,1.6-1.37V67.79z"/>
	</g>
	<g>
		<path class="st0" d="M195.32,20.28c0.91,1.67,2.36,4.26,3.04,5.4h-8.28c-0.61-1.29-1.9-3.95-2.58-5.47h-3.27
			c-0.91,1.82-2.13,3.72-3.34,5.47h-8.74c3.88-4.26,6.46-9.27,8.82-14.21h7.45c-0.38,0.91-1.29,3.04-1.75,3.88h18.54v4.94H195.32z
			 M225.8,20.28c0.84,1.6,2.43,4.03,3.27,5.4h-8.44c-0.76-1.29-1.98-3.65-2.89-5.4h-2.96c-0.84,1.44-2.2,3.72-3.19,5.4h-3.5
			c0.38,1.52,1.22,3.42,1.9,4.71h20.83c1.82,0,3.42,0.76,4.56,1.98c0.99,1.06,1.52,2.36,1.52,3.88v5.85h-7.07
			c0.61,1.29,0.68,2.51,0.68,3.5l0.08,4.26c0,1.52-0.68,2.89-1.75,3.8c-0.99,0.91-2.36,1.37-3.8,1.37h-41.12v4.33h44.77
			c1.52,0,2.89,0.53,3.88,1.44c1.06,0.84,1.67,2.05,1.67,3.34v8.66c0,1.52-0.61,2.74-1.67,3.65c-0.84,0.68-2.05,1.06-3.42,1.06
			h-46.59c-1.37,0-2.74-0.68-3.8-1.75c-0.99-1.06-1.75-2.51-1.75-4.03V46.58c0-1.44,0.61-3.8,1.37-4.56h-5.78v-6
			c0-1.44,0.61-2.96,1.75-4.03c0.99-0.91,2.51-1.6,4.41-1.6h22.42c-0.53-1.29-1.29-3.5-1.75-5.02h3.8c3.5-4.18,5.85-8.89,7.83-13.76
			h7.68c-0.38,0.99-1.22,2.96-1.67,3.8h20.6v4.86H225.8z M229.6,36.93c0-0.84-0.76-1.67-1.9-1.67h-46.51c-0.84,0-1.6,0.53-1.6,1.6
			v3.95c0.68-0.61,1.98-1.22,2.89-1.22h42.71c1.67,0,3.34,0.68,4.41,2.2V36.93z M223.52,46.05c0-0.91-0.68-1.6-1.52-1.6h-36.03
			c-1.14,0-2.05,1.14-2.05,2.2v3.42h38c1.14,0,1.6-0.76,1.6-1.67V46.05z M227.32,65.81c0-0.99-0.68-1.6-1.6-1.6h-41.8v6.84
			c0,0.76,0.68,1.67,1.44,1.67h40.74c0.76,0,1.22-0.61,1.22-1.37V65.81z"/>
	</g>
	<g>
		<path class="st0" d="M251.63,74.4v-6.16c2.51-0.68,6.08-1.98,7.98-2.81V43.24h-6.84v-5.09h6.84V19.98h-8.36v-5.17h22.8v5.17h-7.75
			v18.17h6.23v5.09h-6.23v19.3c2.36-1.06,5.62-2.58,7.98-3.72v6C267.21,68.01,256.57,72.65,251.63,74.4z M274.05,78.05V72.8h18.24
			V62.69h-15.35v-5.02h15.35v-8.89h-6.61c-2.51,0-4.56-0.61-5.93-1.82c-1.44-1.22-2.2-3.04-2.2-5.32V19.29c0-2.05,0.84-3.8,2.2-4.94
			c1.29-1.14,3.04-1.82,5.09-1.82h22.19c2.13,0,3.95,0.76,5.17,1.98c1.29,1.37,1.9,3.34,1.9,5.47v22.35c0,1.82-0.91,3.57-2.43,4.79
			c-1.37,1.06-3.04,1.67-4.94,1.67h-7.3v8.89h15.58v5.02h-15.58V72.8h18.39v5.24H274.05z M292.3,17.55h-6.31
			c-0.68,0-1.67,0.68-1.67,1.67v8.97h7.98V17.55z M292.3,33.28h-7.98v9.04c0,0.61,0.99,1.29,1.52,1.29h6.46V33.28z M307.34,19.6
			c0-1.06-0.68-2.05-1.75-2.05h-6.16v10.64h7.9V19.6z M307.34,33.28h-7.9v10.34h5.93c1.52,0,1.98-0.68,1.98-2.05V33.28z"/>
	</g>
	<g>
		<path class="st0" d="M387.75,27.35c-3.42-2.89-7.75-6.99-10.72-10.11c-0.53-0.53-1.75-0.99-2.51-0.99h-19
			c-0.84,0-2.28,0.61-2.74,1.14c-2.74,2.89-7.37,7.37-10.56,9.96h-11.17c6.84-4.26,13.07-9.96,17.1-14.06
			c0.53-0.61,1.29-1.06,2.28-1.37c0.76-0.23,1.52-0.38,2.43-0.38h24.7c0.84,0,1.75,0.23,2.58,0.53c0.91,0.3,1.75,0.84,2.28,1.37
			c4.1,4.33,9.58,9.35,15.66,13.91H387.75z M392.24,47.8c-1.14,1.22-2.74,2.13-4.64,2.13h-46.82c-1.44,0-2.74-0.68-3.72-1.6
			c-1.22-1.14-1.98-2.74-1.98-4.26v-7.98c0-1.67,0.68-3.27,1.82-4.41c1.14-1.22,2.74-1.98,4.48-1.98h45.83
			c1.67,0,3.34,0.53,4.56,1.6c1.37,1.14,2.2,2.89,2.2,5.09v7.22C393.98,45.06,393.38,46.58,392.24,47.8z M388.21,76.22
			c-1.22,1.06-2.96,1.67-5.02,1.67h-38.53c-1.52,0-3.12-0.68-4.26-1.75c-1.22-1.22-2.05-2.89-2.05-4.71V59.5
			c0-1.67,0.99-3.34,2.43-4.41c1.06-0.84,2.43-1.37,3.88-1.37h39.22c1.9,0,3.57,0.76,4.79,1.9c1.22,1.22,1.9,2.96,1.9,5.02v10.64
			C390.56,73.18,389.73,75.01,388.21,76.22z M361.15,34.65h-17.71c-0.76,0-1.6,0.76-1.6,1.67v6.84c0,1.14,0.68,1.82,1.44,1.82h7.37
			c-0.91-1.9-2.81-6-3.72-8.36h6.61c0.76,2.36,2.81,6.38,3.88,8.36h3.72V34.65z M383.72,60.34c0-0.84-1.06-1.67-1.98-1.67h-34.43
			c-1.14,0-1.82,0.84-1.82,1.75v2.89h38.23V60.34z M383.72,68.09h-38.23v2.89c0,1.06,0.99,1.9,1.75,1.9h34.58
			c1.14,0,1.9-0.91,1.9-1.98V68.09z M350.59,25.76v-4.79h28.58v4.79H350.59z M387.45,36.47c0-0.91-0.84-1.82-1.82-1.82h-17.63v10.34
			h3.72c1.37-2.2,3.34-5.93,4.18-8.36h6.61c-0.61,1.98-2.43,6-4.03,8.36h7.14c1.06,0,1.82-0.84,1.82-1.82V36.47z"/>
	</g>
	<g>
		<path class="st0" d="M425.45,78.05H410.4c5.62-2.05,11.4-5.4,16.04-8.74h11.32C434.49,72.19,428.87,75.99,425.45,78.05z
			 M471.81,65.43c-1.37,1.29-3.27,2.05-5.62,2.05h-44.99c-1.82,0-3.42-0.84-4.56-2.13c-1.14-1.29-1.82-3.12-1.82-5.02V39.06
			c0-1.98,0.91-3.72,2.36-4.86c1.29-0.99,2.96-1.67,4.79-1.67h44.61c2.13,0,4.03,0.68,5.32,1.98c1.14,1.22,1.9,3.04,1.9,5.47v20.6
			C473.78,62.54,473.02,64.21,471.81,65.43z M469.83,26.36c-0.91,1.06-2.36,1.75-4.41,1.75H421.8c-1.22,0-2.51-0.61-3.34-1.52
			c-0.91-0.91-1.52-2.13-1.52-3.27v-5.24c0-1.67,0.68-3.04,1.67-4.1c1.06-0.99,2.58-1.6,4.26-1.6h42.94c1.52,0,2.89,0.68,3.88,1.67
			c0.99,0.99,1.52,2.36,1.52,3.65v4.18C471.2,23.55,470.82,25.15,469.83,26.36z M466.79,39.44c0-0.91-0.68-1.98-1.9-1.98h-41.12
			c-1.06,0-1.98,1.14-1.98,2.28v2.36h45V39.44z M466.79,47.19h-45v5.09h45V47.19z M466.79,57.22h-45v3.5c0,0.91,0.84,1.75,1.82,1.75
			h41.12c1.06,0,2.05-0.68,2.05-1.98V57.22z M464.21,18.76c0-0.91-0.61-1.44-1.44-1.44h-37.39c-0.68,0-1.37,0.76-1.37,1.6v2.96
			c0,1.06,0.61,1.37,1.44,1.37h37.39c0.91,0,1.37-0.61,1.37-1.37V18.76z M463.75,78.05c-4.26-2.43-8.89-5.85-12.46-8.82h11.48
			c4.18,3.12,10.49,6.46,15.88,8.82H463.75z"/>
	</g>
	<g>
		<path class="st3" d="M15.37,154.22v-4.54h24.77v-15.94H18.76v-4.54h21.38v-14.59H26.89c-1.15,3.52-3.01,7.87-4.54,10.24h-7.1
			c4.35-6.21,7.62-15.55,8.7-22.72h6.21c-0.38,2.05-1.28,5.7-1.92,7.87h11.9V98.29h5.76V110h23.49v4.61H45.9v14.59h21.5v4.54H45.9
			v15.94h24.96v4.54H15.37z"/>
	</g>
	<g>
		<path class="st4" d="M133.96,151.92c-1.02,1.28-2.56,2.05-4.67,2.05H91.46c-2.11,0-3.71-0.7-4.74-1.98
			c-0.9-1.15-1.41-2.75-1.41-4.8V104.5c0-1.79,0.77-3.39,2.11-4.42c0.96-0.77,2.3-1.28,3.84-1.28h37.82c1.92,0,3.46,0.64,4.54,1.86
			c1.02,1.09,1.54,2.69,1.54,4.61v42.75C135.17,149.49,134.79,150.89,133.96,151.92z M129.35,105.26c0-0.96-0.64-1.86-1.86-1.86
			H92.74c-0.77,0-1.47,0.7-1.47,1.6v19.13h38.08V105.26z M129.35,128.75H91.27v19.07c0,1.09,0.77,1.79,1.79,1.79h34.94
			c0.83,0,1.34-0.7,1.34-1.6V128.75z"/>
	</g>
	<g>
		<path class="st5" d="M166.47,154.29c-1.15-1.54-3.46-4.99-4.54-6.78c-1.6,2.37-3.39,4.8-5.06,6.78h-7.81
			c3.71-3.65,6.98-7.68,9.66-11.84c-2.3-3.71-4.86-8-6.66-11.2c-0.7-1.28-0.64-2.94-0.32-4.61c0.77-3.97,1.86-10.24,2.37-14.72
			h-4.48v-4.48h4.99c0.51-3.01,0.83-6.21,1.02-9.09h5.44c-0.19,2.43-0.7,6.4-1.09,9.09h5.76c1.47,0,2.69,0.45,3.65,1.22
			c1.41,1.15,2.11,2.94,1.98,5.06c-0.51,10.05-1.6,19.9-6.21,28.22c2.75,4.22,5.7,8.38,8.83,12.35H166.47z M164.36,111.92h-4.8
			c-0.64,4.74-1.79,11.77-2.5,15.61c-0.13,0.64,0.06,1.28,0.32,1.79c1.34,2.3,3.07,5.25,4.42,7.36c3.2-7.1,4.1-14.97,4.29-22.97
			C166.15,112.75,165.32,111.92,164.36,111.92z M191.94,128.18v20.22c0,1.79-0.51,3.2-1.41,4.16c-1.09,1.15-2.62,1.73-4.42,1.73
			h-6.14l-2.18-4.61h6.91c0.77,0,1.34-0.64,1.34-1.34v-20.16h-13.82v-4.35h13.82v-6.78c4.03-3.78,7.81-7.87,10.69-12.1
			c0.19-0.32,0-0.7-0.38-0.7h-22.08v-4.48h25.28c1.28,0,2.43,0.77,3.07,1.86c0.64,1.02,0.77,2.37,0.13,3.65
			c-1.73,3.33-7.49,9.98-10.82,12.99v5.57h13.5v4.35H191.94z"/>
	</g>
	<g>
		<path class="st5" d="M232.14,134.64c-1.34-2.94-2.62-7.17-3.39-9.86v29.44h-5.57V132.4h-6.21c5.5-6.34,9.66-13.5,12.54-21.05
			c0.13-0.45-0.13-1.22-0.64-1.22h-11.33v-4.35h6.78c-1.02-2.24-2.24-5.57-2.75-7.42h5.82c0.58,2.56,1.34,5.18,2.69,7.42h1.54
			c1.47,0,2.56,0.58,3.14,1.47c0.7,1.02,0.83,2.43,0.45,3.78c-1.28,4.54-3.58,8.77-5.82,12.93h4.67c0.96,3.71,2.18,7.36,3.97,10.69
			H232.14z M236.04,154.16v-4.35h9.92c-0.77-1.54-1.41-3.14-1.92-4.86h5.95c0.58,1.66,1.22,3.39,2.3,4.86h3.65
			c1.02-1.6,1.92-3.14,2.62-4.86h6.4c-0.64,1.47-1.6,3.33-2.43,4.86h10.11v4.35H236.04z M236.36,128.3v-4.22h36.16v4.22H236.36z
			 M269.51,119.73c-0.96,0.9-2.3,1.54-4.29,1.54h-23.49c-1.09,0-2.11-0.58-2.94-1.34c-0.83-0.83-1.41-2.05-1.41-3.26v-9.86
			c0-1.34,0.7-2.62,1.79-3.52c0.96-0.77,2.11-1.22,3.33-1.22h4.48v-3.84h4.99v3.84h4.35v-3.84h4.93v3.84h4.48
			c1.66,0,3.01,0.58,3.97,1.66c0.83,0.96,1.34,2.24,1.34,3.84v8.45C271.04,117.36,270.53,118.77,269.51,119.73z M269.19,142.06
			c-0.7,0.7-1.73,1.15-3.07,1.15h-23.93c-1.09,0-1.98-0.51-2.69-1.22c-0.64-0.7-1.02-1.66-1.02-2.62v-4.35
			c0-1.15,0.45-2.05,1.15-2.75c0.77-0.7,1.79-1.09,3.07-1.09h23.42c1.34,0,2.37,0.38,3.07,1.15c0.77,0.77,1.15,1.92,1.15,3.26v3.65
			C270.34,140.27,269.96,141.29,269.19,142.06z M246.98,106.03h-2.88c-0.9,0-1.41,0.7-1.41,1.54v2.11h4.29V106.03z M246.98,113.33
			h-4.29v2.5c0,0.83,0.45,1.34,1.34,1.34h2.94V113.33z M264.58,136.3c0-0.64-0.32-1.15-1.02-1.15h-18.17
			c-0.64,0-1.15,0.58-1.15,1.22v2.11c0,0.51,0.51,1.02,1.15,1.02h17.92c0.64,0,1.28-0.51,1.28-1.22V136.3z M256.33,106.03h-4.35
			v3.65h4.35V106.03z M256.33,113.33h-4.35v3.84h4.35V113.33z M265.6,107.57c0-0.9-0.64-1.54-1.54-1.54h-2.82v3.65h4.35V107.57z
			 M265.6,113.33h-4.35v3.84h3.2c0.51,0,1.15-0.51,1.15-1.22V113.33z"/>
	</g>
	<g>
		<path class="st4" d="M338.12,133.87c-8,9.15-20.93,15.55-33.15,20.35h-19.33c7.49-2.05,16-4.8,23.29-7.81
			c-2.56-2.88-4.99-6.08-6.78-9.34h6.91c1.47,2.37,3.39,4.8,5.25,6.98c6.4-2.82,12.42-6.72,17.86-11.71H308.1
			c-3.46,2.62-6.98,5.12-10.56,7.36h-12.48c11.65-5.44,18.94-10.18,26.43-17.85c-2.94,1.09-6.72,2.3-8.96,3.01h-18.56
			c8.38-2.05,16.19-4.48,24-7.23c-1.98-2.37-3.97-4.99-5.38-7.62h6.72c1.15,1.92,2.56,3.65,4.16,5.44
			c5.44-2.18,10.69-4.8,15.62-8.19h-24.06c-2.88,2.82-6.02,5.63-9.21,8.06h-10.56c8.77-5.12,15.17-10.94,20.35-17.21h7.3
			c-1.09,1.6-2.56,3.52-3.65,4.74h23.68c1.66,0,2.75,0.9,3.26,2.05c0.51,1.28,0.32,2.82-0.7,3.84
			c-4.74,4.67-16.77,10.43-23.68,12.93h7.87c-1.79,2.05-4.1,4.35-6.14,6.21h22.08c1.54,0,2.69,0.83,3.2,1.98
			C339.33,131.06,339.2,132.65,338.12,133.87z"/>
	</g>
	<g>
		<path class="st4" d="M351.43,154.22V150h24.77v-3.97h-22.72v-4.1h22.72v-3.84h-16.45c-1.47,0-2.75-0.51-3.71-1.41
			c-1.15-0.96-1.79-2.5-1.79-4.22v-10.94c0-1.54,0.64-2.88,1.6-3.84c1.02-1.09,2.5-1.66,4.1-1.66h16.25v-3.52h-24.96v-3.97h24.96
			v-3.2c-6.78,0.19-17.28,0.45-22.14,0.51v-4.61c17.28,0.26,32.96-0.32,49.92-3.52v4.99c-4.93,0.64-15.23,1.73-22.01,2.18v3.65
			h24.77v3.97h-24.77v3.52h17.02c1.41,0,2.69,0.58,3.58,1.54c0.83,0.9,1.34,2.05,1.34,3.33v11.46c0,1.86-0.64,3.39-1.92,4.35
			c-1.09,0.9-2.62,1.41-4.61,1.41h-15.42v3.84h23.1v4.1h-23.1V150h25.15v4.22H351.43z M376.2,120.11h-14.46
			c-0.96,0-1.6,0.7-1.6,1.41v3.2h16.06V120.11z M376.2,128.88h-16.06v3.65c0,0.83,0.77,1.34,1.34,1.34h14.72V128.88z M398.21,121.71
			c0-0.77-0.58-1.6-1.6-1.6h-14.66v4.61h16.25V121.71z M398.21,128.88h-16.25v4.99h14.72c0.9,0,1.54-0.51,1.54-1.34V128.88z"/>
	</g>
	<g>
		<path class="st4" d="M472.39,154.03H441.8c-2.75,0-4.86-0.38-6.66-1.15c-2.24-0.96-3.9-2.5-6.08-4.54
			c-0.96,1.54-2.62,4.22-3.78,5.7h-7.3c4.99-6.21,8.51-12.61,10.82-19.39c0.19-0.58-0.19-1.28-0.83-1.28h-6.4
			c-1.28,0-2.18-0.64-2.56-1.54c-0.32-0.83-0.26-1.86,0.45-2.75c2.11-2.75,5.63-8,7.29-10.88c0.19-0.38,0-0.9-0.38-0.9h-7.94v-4.35
			h11.01c1.79,0,3.07,0.83,3.71,1.98c0.7,1.28,0.64,2.94-0.32,4.54c-1.47,2.37-4.42,6.78-6.34,9.6h3.52c1.86,0,3.26,0.58,4.1,1.6
			c0.9,1.09,1.15,2.62,0.7,4.54c-0.64,2.69-2.5,6.85-3.65,9.22c1.79,2.18,4.03,3.52,6.78,4.35c1.98,0.64,4.22,0.9,6.72,0.9h29.95
			L472.39,154.03z M426.12,109.81c-2.11-3.07-4.99-8.58-6.14-11.52h6.66c1.47,3.97,4.16,8.06,6.91,11.52H426.12z M465.67,145.45
			c-3.58-3.84-8-9.28-10.37-14.46c-2.3,6.08-5.38,10.3-10.11,14.46h-9.34c7.23-5.31,13.38-11.07,14.72-19.07h-14.4v-4.48h14.91
			c0.19-2.56,0.26-6.08,0.06-8.32h-13.63v-4.42h18.11c1.73-2.88,4.03-7.81,5.12-10.88h6.27c-1.09,3.07-3.39,8.26-4.93,10.88h9.34
			v4.42h-14.33c0,2.3,0,5.82-0.06,8.32h15.87v4.48h-16.51c-0.13,0.83-0.38,2.05-0.51,2.82h5.06c2.88,5.89,8.13,11.71,13.31,16.25
			H465.67z M445.06,106.8c-1.28-2.18-3.26-6.14-4.1-8.51h6.27c0.9,2.5,2.94,6.27,4.61,8.51H445.06z"/>
	</g>
</g>
<g>
	<g>
		<g>
			<path class="st0" d="M19.53,78.05h-7.68c2.96-4.41,5.47-10.49,6.76-15.05h6.92C24.09,67.63,21.96,74.09,19.53,78.05z
				 M39.59,57.22c-1.14,1.44-2.89,2.2-5.09,2.2H20.52c-2.13,0-3.72-0.76-4.86-1.98c-1.06-1.22-1.6-2.96-1.6-4.86V19.29
				c0-2.2,0.76-3.95,2.05-5.09c1.22-0.99,2.74-1.44,4.56-1.44h13.3c2.2,0,3.95,0.68,5.09,1.82c1.29,1.29,1.9,3.04,1.9,4.94v33.52
				C40.96,54.71,40.51,56.16,39.59,57.22z M34.35,19.45c0-0.91-0.68-1.67-1.6-1.67H22.19c-0.91,0-1.6,0.76-1.6,1.67v6.84h13.76
				V19.45z M34.35,31.53H20.59v8.82h13.76V31.53z M34.35,45.44H20.59v6.99c0,1.29,0.99,2.13,2.05,2.13h9.88
				c1.22,0,1.82-0.84,1.82-2.13V45.44z M35.49,78.05c-2.2-3.65-4.71-10.72-5.7-15.05h6.92c0.91,4.18,3.95,11.1,6.54,15.05H35.49z
				 M50.46,69.08h-8.06c5.78-9.27,10.18-22.8,11.55-33.21h6.76C58.98,45.97,55.4,59.2,50.46,69.08z M73.11,30.7v40.74
				c0,1.9-0.53,3.42-1.52,4.56c-1.22,1.29-3.04,2.05-5.47,2.05h-8.06l-2.43-5.32h8.66c0.99,0,1.98-0.76,1.98-2.05V30.7H43.62v-5.24
				h22.65V11.69h6.84v13.76h5.47v5.24H73.11z"/>
		</g>
	</g>
	<g>
		<g>
			<path class="st0" d="M150.94,30.85v-7.37c0-0.84-0.61-1.67-1.98-1.67H101c-1.06,0-1.75,0.61-1.75,1.75v7.3h-6.92v-7.52
				c0-1.82,0.61-3.57,1.9-4.86c1.14-1.06,2.74-1.75,4.94-1.75h21.96c-1.14-1.67-2.05-3.5-3.04-5.24h8.89
				c0.84,1.82,1.9,3.57,3.12,5.32h21.36c1.9,0,3.57,0.84,4.79,2.2c0.99,1.14,1.6,2.74,1.6,4.48v7.37H150.94z M153.75,75.77
				c-1.14,1.22-2.66,1.9-4.18,1.9h-48.72c-1.75,0-3.42-0.84-4.56-2.2c-0.99-1.22-1.6-2.89-1.6-4.79v-11.1c0-1.98,0.61-3.8,1.9-5.09
				c1.14-1.06,2.74-1.82,4.94-1.82h47.2c1.52,0,3.88,0.68,5.32,2.51c0.91,1.06,1.52,2.43,1.52,4.33v11.86
				C155.57,73.11,154.81,74.63,153.75,75.77z M147.52,47.26c-0.91,0.91-2.13,1.52-3.42,1.52h-38.38c-1.14,0-2.36-0.61-3.27-1.6
				c-0.76-0.84-1.37-1.98-1.37-3.19v-4.1c0-1.75,0.68-3.04,1.67-3.88c0.99-0.91,2.36-1.37,3.72-1.37h37.24
				c1.44,0,2.96,0.46,3.95,1.6c0.84,0.84,1.37,2.05,1.37,3.8v4.26C149.04,45.29,148.43,46.43,147.52,47.26z M121.75,57.75H102.9
				c-0.38,0-1.22,0.38-1.22,1.06v3.88h20.07V57.75z M121.75,67.79h-20.07v3.8c0,0.76,0.53,1.22,1.22,1.22h18.85V67.79z M104.12,31
				v-5.02h41.95V31H104.12z M142.2,41.11c0-0.84-0.38-1.52-1.22-1.52h-31.62c-0.91,0-1.37,0.53-1.37,0.91v2.13
				c0,0.76,0.53,1.22,1.14,1.22h31.85c0.68,0,1.22-0.38,1.22-1.14V41.11z M148.73,59.12c0-0.76-0.76-1.37-1.52-1.37h-18.62v4.94
				h20.14V59.12z M148.73,67.79h-20.14v5.02h18.55c0.91,0,1.6-0.76,1.6-1.37V67.79z"/>
		</g>
	</g>
	<g>
		<g>
			<path class="st0" d="M195.32,20.28c0.91,1.67,2.36,4.26,3.04,5.4h-8.28c-0.61-1.29-1.9-3.95-2.58-5.47h-3.27
				c-0.91,1.82-2.13,3.72-3.34,5.47h-8.74c3.88-4.26,6.46-9.27,8.82-14.21h7.45c-0.38,0.91-1.29,3.04-1.75,3.88h18.54v4.94H195.32z
				 M225.8,20.28c0.84,1.6,2.43,4.03,3.27,5.4h-8.44c-0.76-1.29-1.98-3.65-2.89-5.4h-2.96c-0.84,1.44-2.2,3.72-3.19,5.4h-3.5
				c0.38,1.52,1.22,3.42,1.9,4.71h20.83c1.82,0,3.42,0.76,4.56,1.98c0.99,1.06,1.52,2.36,1.52,3.88v5.85h-7.07
				c0.61,1.29,0.68,2.51,0.68,3.5l0.08,4.26c0,1.52-0.68,2.89-1.75,3.8c-0.99,0.91-2.36,1.37-3.8,1.37h-41.12v4.33h44.77
				c1.52,0,2.89,0.53,3.88,1.44c1.06,0.84,1.67,2.05,1.67,3.34v8.66c0,1.52-0.61,2.74-1.67,3.65c-0.84,0.68-2.05,1.06-3.42,1.06
				h-46.59c-1.37,0-2.74-0.68-3.8-1.75c-0.99-1.06-1.75-2.51-1.75-4.03V46.58c0-1.44,0.61-3.8,1.37-4.56h-5.78v-6
				c0-1.44,0.61-2.96,1.75-4.03c0.99-0.91,2.51-1.6,4.41-1.6h22.42c-0.53-1.29-1.29-3.5-1.75-5.02h3.8
				c3.5-4.18,5.85-8.89,7.83-13.76h7.68c-0.38,0.99-1.22,2.96-1.67,3.8h20.6v4.86H225.8z M229.6,36.93c0-0.84-0.76-1.67-1.9-1.67
				h-46.51c-0.84,0-1.6,0.53-1.6,1.6v3.95c0.68-0.61,1.98-1.22,2.89-1.22h42.71c1.67,0,3.34,0.68,4.41,2.2V36.93z M223.52,46.05
				c0-0.91-0.68-1.6-1.52-1.6h-36.03c-1.14,0-2.05,1.14-2.05,2.2v3.42h38c1.14,0,1.6-0.76,1.6-1.67V46.05z M227.32,65.81
				c0-0.99-0.68-1.6-1.6-1.6h-41.8v6.84c0,0.76,0.68,1.67,1.44,1.67h40.74c0.76,0,1.22-0.61,1.22-1.37V65.81z"/>
		</g>
	</g>
	<g>
		<g>
			<path class="st0" d="M251.63,74.4v-6.16c2.51-0.68,6.08-1.98,7.98-2.81V43.24h-6.84v-5.09h6.84V19.98h-8.36v-5.17h22.8v5.17
				h-7.75v18.17h6.23v5.09h-6.23v19.3c2.36-1.06,5.62-2.58,7.98-3.72v6C267.21,68.01,256.57,72.65,251.63,74.4z M274.05,78.05V72.8
				h18.24V62.69h-15.35v-5.02h15.35v-8.89h-6.61c-2.51,0-4.56-0.61-5.93-1.82c-1.44-1.22-2.2-3.04-2.2-5.32V19.29
				c0-2.05,0.84-3.8,2.2-4.94c1.29-1.14,3.04-1.82,5.09-1.82h22.19c2.13,0,3.95,0.76,5.17,1.98c1.29,1.37,1.9,3.34,1.9,5.47v22.35
				c0,1.82-0.91,3.57-2.43,4.79c-1.37,1.06-3.04,1.67-4.94,1.67h-7.3v8.89h15.58v5.02h-15.58V72.8h18.39v5.24H274.05z M292.3,17.55
				h-6.31c-0.68,0-1.67,0.68-1.67,1.67v8.97h7.98V17.55z M292.3,33.28h-7.98v9.04c0,0.61,0.99,1.29,1.52,1.29h6.46V33.28z
				 M307.34,19.6c0-1.06-0.68-2.05-1.75-2.05h-6.16v10.64h7.9V19.6z M307.34,33.28h-7.9v10.34h5.93c1.52,0,1.98-0.68,1.98-2.05
				V33.28z"/>
		</g>
	</g>
	<g>
		<g>
			<path class="st0" d="M387.75,27.35c-3.42-2.89-7.75-6.99-10.72-10.11c-0.53-0.53-1.75-0.99-2.51-0.99h-19
				c-0.84,0-2.28,0.61-2.74,1.14c-2.74,2.89-7.37,7.37-10.56,9.96h-11.17c6.84-4.26,13.07-9.96,17.1-14.06
				c0.53-0.61,1.29-1.06,2.28-1.37c0.76-0.23,1.52-0.38,2.43-0.38h24.7c0.84,0,1.75,0.23,2.58,0.53c0.91,0.3,1.75,0.84,2.28,1.37
				c4.1,4.33,9.58,9.35,15.66,13.91H387.75z M392.24,47.8c-1.14,1.22-2.74,2.13-4.64,2.13h-46.82c-1.44,0-2.74-0.68-3.72-1.6
				c-1.22-1.14-1.98-2.74-1.98-4.26v-7.98c0-1.67,0.68-3.27,1.82-4.41c1.14-1.22,2.74-1.98,4.48-1.98h45.83
				c1.67,0,3.34,0.53,4.56,1.6c1.37,1.14,2.2,2.89,2.2,5.09v7.22C393.98,45.06,393.38,46.58,392.24,47.8z M388.21,76.22
				c-1.22,1.06-2.96,1.67-5.02,1.67h-38.53c-1.52,0-3.12-0.68-4.26-1.75c-1.22-1.22-2.05-2.89-2.05-4.71V59.5
				c0-1.67,0.99-3.34,2.43-4.41c1.06-0.84,2.43-1.37,3.88-1.37h39.22c1.9,0,3.57,0.76,4.79,1.9c1.22,1.22,1.9,2.96,1.9,5.02v10.64
				C390.56,73.18,389.73,75.01,388.21,76.22z M361.15,34.65h-17.71c-0.76,0-1.6,0.76-1.6,1.67v6.84c0,1.14,0.68,1.82,1.44,1.82h7.37
				c-0.91-1.9-2.81-6-3.72-8.36h6.61c0.76,2.36,2.81,6.38,3.88,8.36h3.72V34.65z M383.72,60.34c0-0.84-1.06-1.67-1.98-1.67h-34.43
				c-1.14,0-1.82,0.84-1.82,1.75v2.89h38.23V60.34z M383.72,68.09h-38.23v2.89c0,1.06,0.99,1.9,1.75,1.9h34.58
				c1.14,0,1.9-0.91,1.9-1.98V68.09z M350.59,25.76v-4.79h28.58v4.79H350.59z M387.45,36.47c0-0.91-0.84-1.82-1.82-1.82h-17.63
				v10.34h3.72c1.37-2.2,3.34-5.93,4.18-8.36h6.61c-0.61,1.98-2.43,6-4.03,8.36h7.14c1.06,0,1.82-0.84,1.82-1.82V36.47z"/>
		</g>
	</g>
	<g>
		<g>
			<path class="st0" d="M425.45,78.05H410.4c5.62-2.05,11.4-5.4,16.04-8.74h11.32C434.49,72.19,428.87,75.99,425.45,78.05z
				 M471.81,65.43c-1.37,1.29-3.27,2.05-5.62,2.05h-44.99c-1.82,0-3.42-0.84-4.56-2.13c-1.14-1.29-1.82-3.12-1.82-5.02V39.06
				c0-1.98,0.91-3.72,2.36-4.86c1.29-0.99,2.96-1.67,4.79-1.67h44.61c2.13,0,4.03,0.68,5.32,1.98c1.14,1.22,1.9,3.04,1.9,5.47v20.6
				C473.78,62.54,473.02,64.21,471.81,65.43z M469.83,26.36c-0.91,1.06-2.36,1.75-4.41,1.75H421.8c-1.22,0-2.51-0.61-3.34-1.52
				c-0.91-0.91-1.52-2.13-1.52-3.27v-5.24c0-1.67,0.68-3.04,1.67-4.1c1.06-0.99,2.58-1.6,4.26-1.6h42.94c1.52,0,2.89,0.68,3.88,1.67
				c0.99,0.99,1.52,2.36,1.52,3.65v4.18C471.2,23.55,470.82,25.15,469.83,26.36z M466.79,39.44c0-0.91-0.68-1.98-1.9-1.98h-41.12
				c-1.06,0-1.98,1.14-1.98,2.28v2.36h45V39.44z M466.79,47.19h-45v5.09h45V47.19z M466.79,57.22h-45v3.5
				c0,0.91,0.84,1.75,1.82,1.75h41.12c1.06,0,2.05-0.68,2.05-1.98V57.22z M464.21,18.76c0-0.91-0.61-1.44-1.44-1.44h-37.39
				c-0.68,0-1.37,0.76-1.37,1.6v2.96c0,1.06,0.61,1.37,1.44,1.37h37.39c0.91,0,1.37-0.61,1.37-1.37V18.76z M463.75,78.05
				c-4.26-2.43-8.89-5.85-12.46-8.82h11.48c4.18,3.12,10.49,6.46,15.88,8.82H463.75z"/>
		</g>
	</g>
	<g>
		<g>
			<path class="st3" d="M15.37,154.22v-4.54h24.77v-15.94H18.76v-4.54h21.38v-14.59H26.89c-1.15,3.52-3.01,7.87-4.54,10.24h-7.1
				c4.35-6.21,7.62-15.55,8.7-22.72h6.21c-0.38,2.05-1.28,5.7-1.92,7.87h11.9V98.29h5.76V110h23.49v4.61H45.9v14.59h21.5v4.54H45.9
				v15.94h24.96v4.54H15.37z"/>
		</g>
	</g>
	<g>
		<g>
			<path class="st4" d="M133.96,151.92c-1.02,1.28-2.56,2.05-4.67,2.05H91.46c-2.11,0-3.71-0.7-4.74-1.98
				c-0.9-1.15-1.41-2.75-1.41-4.8V104.5c0-1.79,0.77-3.39,2.11-4.42c0.96-0.77,2.3-1.28,3.84-1.28h37.82c1.92,0,3.46,0.64,4.54,1.86
				c1.02,1.09,1.54,2.69,1.54,4.61v42.75C135.17,149.49,134.79,150.89,133.96,151.92z M129.35,105.26c0-0.96-0.64-1.86-1.86-1.86
				H92.74c-0.77,0-1.47,0.7-1.47,1.6v19.13h38.08V105.26z M129.35,128.75H91.27v19.07c0,1.09,0.77,1.79,1.79,1.79h34.94
				c0.83,0,1.34-0.7,1.34-1.6V128.75z"/>
		</g>
	</g>
	<g>
		<g>
			<path class="st5" d="M166.47,154.29c-1.15-1.54-3.46-4.99-4.54-6.78c-1.6,2.37-3.39,4.8-5.06,6.78h-7.81
				c3.71-3.65,6.98-7.68,9.66-11.84c-2.3-3.71-4.86-8-6.66-11.2c-0.7-1.28-0.64-2.94-0.32-4.61c0.77-3.97,1.86-10.24,2.37-14.72
				h-4.48v-4.48h4.99c0.51-3.01,0.83-6.21,1.02-9.09h5.44c-0.19,2.43-0.7,6.4-1.09,9.09h5.76c1.47,0,2.69,0.45,3.65,1.22
				c1.41,1.15,2.11,2.94,1.98,5.06c-0.51,10.05-1.6,19.9-6.21,28.22c2.75,4.22,5.7,8.38,8.83,12.35H166.47z M164.36,111.92h-4.8
				c-0.64,4.74-1.79,11.77-2.5,15.61c-0.13,0.64,0.06,1.28,0.32,1.79c1.34,2.3,3.07,5.25,4.42,7.36c3.2-7.1,4.1-14.97,4.29-22.97
				C166.15,112.75,165.32,111.92,164.36,111.92z M191.94,128.18v20.22c0,1.79-0.51,3.2-1.41,4.16c-1.09,1.15-2.62,1.73-4.42,1.73
				h-6.14l-2.18-4.61h6.91c0.77,0,1.34-0.64,1.34-1.34v-20.16h-13.82v-4.35h13.82v-6.78c4.03-3.78,7.81-7.87,10.69-12.1
				c0.19-0.32,0-0.7-0.38-0.7h-22.08v-4.48h25.28c1.28,0,2.43,0.77,3.07,1.86c0.64,1.02,0.77,2.37,0.13,3.65
				c-1.73,3.33-7.49,9.98-10.82,12.99v5.57h13.5v4.35H191.94z"/>
		</g>
	</g>
	<g>
		<g>
			<path class="st5" d="M232.14,134.64c-1.34-2.94-2.62-7.17-3.39-9.86v29.44h-5.57V132.4h-6.21c5.5-6.34,9.66-13.5,12.54-21.05
				c0.13-0.45-0.13-1.22-0.64-1.22h-11.33v-4.35h6.78c-1.02-2.24-2.24-5.57-2.75-7.42h5.82c0.58,2.56,1.34,5.18,2.69,7.42h1.54
				c1.47,0,2.56,0.58,3.14,1.47c0.7,1.02,0.83,2.43,0.45,3.78c-1.28,4.54-3.58,8.77-5.82,12.93h4.67c0.96,3.71,2.18,7.36,3.97,10.69
				H232.14z M236.04,154.16v-4.35h9.92c-0.77-1.54-1.41-3.14-1.92-4.86h5.95c0.58,1.66,1.22,3.39,2.3,4.86h3.65
				c1.02-1.6,1.92-3.14,2.62-4.86h6.4c-0.64,1.47-1.6,3.33-2.43,4.86h10.11v4.35H236.04z M236.36,128.3v-4.22h36.16v4.22H236.36z
				 M269.51,119.73c-0.96,0.9-2.3,1.54-4.29,1.54h-23.49c-1.09,0-2.11-0.58-2.94-1.34c-0.83-0.83-1.41-2.05-1.41-3.26v-9.86
				c0-1.34,0.7-2.62,1.79-3.52c0.96-0.77,2.11-1.22,3.33-1.22h4.48v-3.84h4.99v3.84h4.35v-3.84h4.93v3.84h4.48
				c1.66,0,3.01,0.58,3.97,1.66c0.83,0.96,1.34,2.24,1.34,3.84v8.45C271.04,117.36,270.53,118.77,269.51,119.73z M269.19,142.06
				c-0.7,0.7-1.73,1.15-3.07,1.15h-23.93c-1.09,0-1.98-0.51-2.69-1.22c-0.64-0.7-1.02-1.66-1.02-2.62v-4.35
				c0-1.15,0.45-2.05,1.15-2.75c0.77-0.7,1.79-1.09,3.07-1.09h23.42c1.34,0,2.37,0.38,3.07,1.15c0.77,0.77,1.15,1.92,1.15,3.26v3.65
				C270.34,140.27,269.96,141.29,269.19,142.06z M246.98,106.03h-2.88c-0.9,0-1.41,0.7-1.41,1.54v2.11h4.29V106.03z M246.98,113.33
				h-4.29v2.5c0,0.83,0.45,1.34,1.34,1.34h2.94V113.33z M264.58,136.3c0-0.64-0.32-1.15-1.02-1.15h-18.17
				c-0.64,0-1.15,0.58-1.15,1.22v2.11c0,0.51,0.51,1.02,1.15,1.02h17.92c0.64,0,1.28-0.51,1.28-1.22V136.3z M256.33,106.03h-4.35
				v3.65h4.35V106.03z M256.33,113.33h-4.35v3.84h4.35V113.33z M265.6,107.57c0-0.9-0.64-1.54-1.54-1.54h-2.82v3.65h4.35V107.57z
				 M265.6,113.33h-4.35v3.84h3.2c0.51,0,1.15-0.51,1.15-1.22V113.33z"/>
		</g>
	</g>
	<g>
		<g>
			<path class="st4" d="M338.12,133.87c-8,9.15-20.93,15.55-33.15,20.35h-19.33c7.49-2.05,16-4.8,23.29-7.81
				c-2.56-2.88-4.99-6.08-6.78-9.34h6.91c1.47,2.37,3.39,4.8,5.25,6.98c6.4-2.82,12.42-6.72,17.86-11.71H308.1
				c-3.46,2.62-6.98,5.12-10.56,7.36h-12.48c11.65-5.44,18.94-10.18,26.43-17.85c-2.94,1.09-6.72,2.3-8.96,3.01h-18.56
				c8.38-2.05,16.19-4.48,24-7.23c-1.98-2.37-3.97-4.99-5.38-7.62h6.72c1.15,1.92,2.56,3.65,4.16,5.44
				c5.44-2.18,10.69-4.8,15.62-8.19h-24.06c-2.88,2.82-6.02,5.63-9.21,8.06h-10.56c8.77-5.12,15.17-10.94,20.35-17.21h7.3
				c-1.09,1.6-2.56,3.52-3.65,4.74h23.68c1.66,0,2.75,0.9,3.26,2.05c0.51,1.28,0.32,2.82-0.7,3.84
				c-4.74,4.67-16.77,10.43-23.68,12.93h7.87c-1.79,2.05-4.1,4.35-6.14,6.21h22.08c1.54,0,2.69,0.83,3.2,1.98
				C339.33,131.06,339.2,132.65,338.12,133.87z"/>
		</g>
	</g>
	<g>
		<g>
			<path class="st4" d="M351.43,154.22V150h24.77v-3.97h-22.72v-4.1h22.72v-3.84h-16.45c-1.47,0-2.75-0.51-3.71-1.41
				c-1.15-0.96-1.79-2.5-1.79-4.22v-10.94c0-1.54,0.64-2.88,1.6-3.84c1.02-1.09,2.5-1.66,4.1-1.66h16.25v-3.52h-24.96v-3.97h24.96
				v-3.2c-6.78,0.19-17.28,0.45-22.14,0.51v-4.61c17.28,0.26,32.96-0.32,49.92-3.52v4.99c-4.93,0.64-15.23,1.73-22.01,2.18v3.65
				h24.77v3.97h-24.77v3.52h17.02c1.41,0,2.69,0.58,3.58,1.54c0.83,0.9,1.34,2.05,1.34,3.33v11.46c0,1.86-0.64,3.39-1.92,4.35
				c-1.09,0.9-2.62,1.41-4.61,1.41h-15.42v3.84h23.1v4.1h-23.1V150h25.15v4.22H351.43z M376.2,120.11h-14.46
				c-0.96,0-1.6,0.7-1.6,1.41v3.2h16.06V120.11z M376.2,128.88h-16.06v3.65c0,0.83,0.77,1.34,1.34,1.34h14.72V128.88z
				 M398.21,121.71c0-0.77-0.58-1.6-1.6-1.6h-14.66v4.61h16.25V121.71z M398.21,128.88h-16.25v4.99h14.72c0.9,0,1.54-0.51,1.54-1.34
				V128.88z"/>
		</g>
	</g>
	<g>
		<g>
			<path class="st4" d="M472.39,154.03H441.8c-2.75,0-4.86-0.38-6.66-1.15c-2.24-0.96-3.9-2.5-6.08-4.54
				c-0.96,1.54-2.62,4.22-3.78,5.7h-7.3c4.99-6.21,8.51-12.61,10.82-19.39c0.19-0.58-0.19-1.28-0.83-1.28h-6.4
				c-1.28,0-2.18-0.64-2.56-1.54c-0.32-0.83-0.26-1.86,0.45-2.75c2.11-2.75,5.63-8,7.29-10.88c0.19-0.38,0-0.9-0.38-0.9h-7.94v-4.35
				h11.01c1.79,0,3.07,0.83,3.71,1.98c0.7,1.28,0.64,2.94-0.32,4.54c-1.47,2.37-4.42,6.78-6.34,9.6h3.52c1.86,0,3.26,0.58,4.1,1.6
				c0.9,1.09,1.15,2.62,0.7,4.54c-0.64,2.69-2.5,6.85-3.65,9.22c1.79,2.18,4.03,3.52,6.78,4.35c1.98,0.64,4.22,0.9,6.72,0.9h29.95
				L472.39,154.03z M426.12,109.81c-2.11-3.07-4.99-8.58-6.14-11.52h6.66c1.47,3.97,4.16,8.06,6.91,11.52H426.12z M465.67,145.45
				c-3.58-3.84-8-9.28-10.37-14.46c-2.3,6.08-5.38,10.3-10.11,14.46h-9.34c7.23-5.31,13.38-11.07,14.72-19.07h-14.4v-4.48h14.91
				c0.19-2.56,0.26-6.08,0.06-8.32h-13.63v-4.42h18.11c1.73-2.88,4.03-7.81,5.12-10.88h6.27c-1.09,3.07-3.39,8.26-4.93,10.88h9.34
				v4.42h-14.33c0,2.3,0,5.82-0.06,8.32h15.87v4.48h-16.51c-0.13,0.83-0.38,2.05-0.51,2.82h5.06c2.88,5.89,8.13,11.71,13.31,16.25
				H465.67z M445.06,106.8c-1.28-2.18-3.26-6.14-4.1-8.51h6.27c0.9,2.5,2.94,6.27,4.61,8.51H445.06z"/>
		</g>
	</g>
</g>
</svg>
