<?xml version="1.0" encoding="utf-8"?>
<!-- Generator: Adobe Illustrator 24.0.1, SVG Export Plug-In . SVG Version: 6.00 Build 0)  -->
<svg version="1.1" id="圖層_1" xmlns="http://www.w3.org/2000/svg" xmlns:xlink="http://www.w3.org/1999/xlink" x="0px" y="0px"
	 viewBox="0 0 103.44 266.55" style="enable-background:new 0 0 103.44 266.55;" xml:space="preserve">
<style type="text/css">
	.st0{fill:#FD7752;}
	.st1{fill:#5BC5C9;}
	.st2{fill:#6CCEFF;}
	.st3{fill:#FF6E8B;}
	.st4{fill:#40C8F4;}
	.st5{fill:#FFD2BB;}
	.st6{fill:#0F90C9;}
	.st7{fill:#577DE8;}
	.st8{fill:#1B3B78;}
</style>
<g>
	<g>
		<g>
			<path class="st0" d="M6.58,32.97L6.58,32.97l-0.02,0l12.61,12.61l12.61-12.61h-0.02l0,0c3.52-3.34,5.71-8.05,5.71-13.28
				c0-5.02-2.02-9.57-5.3-12.88c-3.32-3.35-7.92-5.43-13.01-5.43S9.48,3.46,6.16,6.81c-3.27,3.31-5.3,7.86-5.3,12.88
				C0.86,24.92,3.06,29.64,6.58,32.97z"/>
		</g>
		<g>
			<polygon class="st0" points="14.28,50.15 19.17,45.26 24.06,50.15 			"/>
		</g>
		<g>
			<path class="st1" d="M48.15,32.6L48.15,32.6l-0.02,0l12.61,12.61L73.36,32.6l-0.02,0l0,0c3.52-3.34,5.71-8.05,5.71-13.28
				c0-5.02-2.02-9.57-5.3-12.88c-3.32-3.35-7.92-5.43-13.01-5.43s-9.69,2.08-13.01,5.43c-3.27,3.31-5.3,7.86-5.3,12.88
				C42.44,24.55,44.64,29.26,48.15,32.6z"/>
		</g>
		<g>
			<polygon class="st1" points="55.86,49.77 60.75,44.88 65.64,49.77 			"/>
		</g>
		<g>
			<g>
				
					<rect x="10.81" y="91.36" transform="matrix(0.2629 -0.9648 0.9648 0.2629 -51.6482 116.3999)" class="st2" width="79.08" height="1.29"/>
			</g>
		</g>
		<g>
			<path class="st3" d="M27.36,44.38L27.36,44.38l-0.02,0L39.96,57l12.61-12.61h-0.02l0,0c3.52-3.34,5.71-8.05,5.71-13.28
				c0-5.02-2.02-9.57-5.3-12.88c-3.32-3.35-7.92-5.43-13.01-5.43s-9.69,2.08-13.01,5.43c-3.27,3.31-5.3,7.86-5.3,12.88
				C21.65,36.33,23.85,41.05,27.36,44.38z"/>
		</g>
		<g>
			<polygon class="st3" points="35.07,61.56 39.96,56.67 44.85,61.56 			"/>
		</g>
		<g>
			<g>
				<rect x="39.31" y="64.27" class="st2" width="1.29" height="65.88"/>
			</g>
		</g>
		<g>
			<g>
				
					<rect x="28.92" y="51.43" transform="matrix(0.9657 -0.2597 0.2597 0.9657 -22.7451 10.8182)" class="st2" width="1.29" height="80.09"/>
			</g>
		</g>
	</g>
	<g id="XMLID_68_">
		<g id="侹禖嶱鼨懧鎀_1_2_">
			<polygon class="st4" points="71.55,95.17 86.2,84.58 81.28,103.05 			"/>
			<path class="st4" d="M89.99,82.19c-0.11,0.83-0.87,1.41-1.7,1.3c-0.83-0.11-1.41-0.87-1.3-1.7c0.11-0.83,0.87-1.41,1.7-1.3
				C89.52,80.6,90.11,81.36,89.99,82.19z"/>
		</g>
		<g>
			<path class="st5" d="M41.04,129.4l-17.17-11.86c-2.66-1.84-2.69-5.76-0.06-7.64l0,0c2.24-1.6,5.37-0.92,6.75,1.45L41.04,129.4z"
				/>
			<path class="st5" d="M29.29,129.4l17.17-11.86c2.66-1.84,2.69-5.76,0.06-7.64l0,0c-2.24-1.6-5.37-0.92-6.75,1.45L29.29,129.4z"/>
		</g>
		<g>
			<g>
				<g>
					<g>
						<g>
							<g>
								<g>
									<g>
										<path class="st5" d="M94.29,259.56c0.12,2.06,0.26,4.13,0.41,6.18h0c-0.18-2.42-0.34-4.85-0.48-7.29
											c-0.1-1.8-0.19-3.61-0.27-5.43H83.92c0.44,2.26,0.88,4.53,1.31,6.79l0,0c0.55-0.08,1.11-0.17,1.68-0.25H94.29z"/>
									</g>
								</g>
							</g>
						</g>
					</g>
				</g>
			</g>
			<g>
				<g>
					<g>
						<g>
							<g>
								<g>
									<g>
										<path class="st5" d="M80.47,263.51l5.18-1.5l0,0L80.47,263.51c-0.07,0.1-0.13,0.2-0.18,0.31
											c-0.11,0.25-0.16,0.51-0.17,0.78c0-0.26,0.05-0.53,0.17-0.78C80.35,263.71,80.4,263.6,80.47,263.51z"/>
									</g>
								</g>
							</g>
						</g>
					</g>
				</g>
			</g>
			<g>
				<g>
					<g>
						<g>
							<g>
								<g>
									<g>
										<path class="st5" d="M80.74,266.03c-0.21-0.19-0.36-0.42-0.47-0.67C80.38,265.61,80.53,265.85,80.74,266.03
											c0.1,0.1,0.2,0.17,0.32,0.25c0.11,0.07,0.18,0.12,0.23,0.16c-0.05-0.04-0.12-0.09-0.23-0.16
											C80.94,266.21,80.83,266.13,80.74,266.03z"/>
									</g>
								</g>
							</g>
						</g>
					</g>
				</g>
			</g>
			<g>
				<g>
					<g>
						<g>
							<g>
								<g>
									<g>
										<path class="st6" d="M94.61,253.02c-0.13-4.29-1.17-16.09-1.21-20.4c-0.06-5.65-0.06-11.32-0.02-17h0.12l0.12-18.27
											c0.04-2.2,0.08-4.4,0.12-6.6c0.09-5.2-0.83-10.38-0.75-15.55c-1.02,0.01-1.03,0.05-2.04,0.14
											c-0.82,0.07-1.64,0.17-2.45,0.31c-0.11,0.02-1.46,0.37-1.42,0.33c-1.09,0.36-2.14,0.79-3.19,1.25
											c-0.1,0.04-0.18,0.08-0.25,0.1c-0.06,0.05-0.14,0.1-0.23,0.17c-0.42,0.3-0.87,0.56-1.3,0.85
											c-2.65,1.82-5.15,3.83-7.68,5.78c0.05,0.23,0.09,0.46,0.11,0.69c0.11,1-0.04,2.32-0.45,3.48
											c0.02,0.28,0.03,0.55,0.05,0.83c0.03,0.48,0.06,0.96,0.09,1.44c0.11,1.72,0.25,3.45,0.41,5.18
											c0.14,1.57,0.3,3.14,0.47,4.7c0.03,0.3,0.06,0.61,0.1,0.91c0.15,1.36,0.31,2.72,0.47,4.09c0.02,0.16,0.04,0.32,0.06,0.48
											c0.31,2.5,0.66,4.99,1.02,7.48c0.11,0.73,0.22,1.46,0.33,2.19h0.01c0.62,4.11,1.3,8.21,2.03,12.31
											c1.04,5.87,3.12,19.23,4.26,25.09h0.5h10.02H94.61z"/>
									</g>
								</g>
							</g>
						</g>
					</g>
				</g>
			</g>
			<g>
				<g>
					<g>
						<g>
							<g>
								<g>
									<g>
										<path class="st1" d="M94.29,259.56h-7.38c-0.56,0.08-1.12,0.17-1.68,0.25l0,0c0.14,0.73,0.28,1.46,0.42,2.2l0,0l-5.18,1.5
											c-0.07,0.1-0.13,0.2-0.18,0.31c-0.11,0.25-0.17,0.51-0.17,0.78c0,0.26,0.05,0.52,0.15,0.77c0.1,0.25,0.26,0.48,0.47,0.67
											c0.1,0.1,0.2,0.17,0.31,0.24c0.11,0.07,0.18,0.12,0.23,0.16c0.19,0.16,0.04,0.14,0.5-0.07l12.91-0.64l0,0
											C94.54,263.69,94.41,261.62,94.29,259.56z"/>
									</g>
								</g>
							</g>
						</g>
					</g>
				</g>
			</g>
			<g>
				<g>
					<g>
						<g>
							<g>
								<g>
									<g>
										<path class="st5" d="M69.54,258.45c-0.1-1.8-0.19-3.61-0.27-5.43H59.25c0.44,2.26,0.88,4.53,1.31,6.79l0,0
											c0.55-0.08,1.11-0.17,1.68-0.25h7.38c0.12,2.06,0.26,4.13,0.41,6.18h0C69.84,263.32,69.68,260.88,69.54,258.45z"/>
									</g>
								</g>
							</g>
						</g>
					</g>
				</g>
			</g>
			<g>
				<g>
					<g>
						<g>
							<g>
								<g>
									<g>
										<path class="st5" d="M55.8,263.51l5.18-1.5l0,0L55.8,263.51c-0.07,0.1-0.13,0.2-0.18,0.31c-0.12,0.25-0.17,0.52-0.17,0.79
											c0-0.27,0.05-0.54,0.17-0.79C55.67,263.71,55.73,263.6,55.8,263.51z"/>
									</g>
								</g>
							</g>
						</g>
					</g>
				</g>
			</g>
			<g>
				<g>
					<g>
						<g>
							<g>
								<g>
									<g>
										<path class="st5" d="M56.06,266.03c-0.21-0.19-0.36-0.42-0.47-0.67C55.7,265.61,55.85,265.85,56.06,266.03
											c0.1,0.1,0.2,0.17,0.32,0.25c0.12,0.07,0.19,0.12,0.24,0.17c-0.05-0.04-0.12-0.1-0.24-0.17
											C56.26,266.21,56.16,266.13,56.06,266.03z"/>
									</g>
								</g>
							</g>
						</g>
					</g>
				</g>
			</g>
			<g>
				<g>
					<g>
						<g>
							<g>
								<g>
									<g>
										<path class="st6" d="M69.94,253.02c-0.13-4.29-1.17-16.09-1.21-20.4c-0.06-5.65-0.06-11.32-0.02-17h0.12l0.12-18.27
											c0.04-2.2,0.08-4.4,0.12-6.6c0.09-5.2,0.19-10.4,0.27-15.57c-1.02,0.01-2.05,0.07-3.07,0.16
											c-0.82,0.07-1.64,0.17-2.45,0.31c-0.11,0.02-1.46,0.37-1.42,0.33c-1.09,0.36-2.14,0.79-3.19,1.25
											c-0.1,0.04-0.18,0.08-0.25,0.1c-0.06,0.05-0.14,0.1-0.23,0.17c-0.42,0.3-0.87,0.56-1.3,0.85
											c-2.65,1.82-4.66-1.31-7.19,0.65c0.05,0.23-1.76,7.75-1.74,7.98c1,9.55,2.2,16.9,3.59,26.44
											c0.11,0.73,0.22,1.46,0.34,2.19c0.62,4.11,1.3,8.21,2.03,12.31c1.04,5.87,3.12,19.23,4.26,25.09h0.5h10.02H69.94z"/>
									</g>
								</g>
							</g>
						</g>
					</g>
				</g>
			</g>
			<g>
				<g>
					<g>
						<g>
							<g>
								<g>
									<g>
										<path class="st1" d="M62.23,259.56c-0.56,0.08-1.12,0.17-1.68,0.25l0,0c0.14,0.73,0.28,1.46,0.42,2.2l0,0l-5.18,1.5
											c-0.07,0.1-0.13,0.2-0.18,0.31c-0.12,0.25-0.17,0.52-0.17,0.79c0,0.26,0.05,0.51,0.15,0.75c0.1,0.25,0.26,0.48,0.47,0.67
											c0.1,0.1,0.2,0.17,0.31,0.24c0.12,0.07,0.19,0.12,0.24,0.17c0.18,0.16,0.04,0.14,0.5-0.07l12.91-0.64l0,0
											c-0.15-2.05-0.28-4.11-0.41-6.18H62.23z"/>
									</g>
								</g>
							</g>
						</g>
					</g>
				</g>
			</g>
		</g>
		<g>
			<g>
				<g>
					<g>
						<g>
							<g>
								<g>
									<rect x="59.22" y="177.23" class="st7" width="28.49" height="14.94"/>
								</g>
							</g>
						</g>
					</g>
				</g>
			</g>
		</g>
		<g>
			<g>
				<g>
					<g>
						<g>
							<g>
								<g>
									<polygon class="st5" points="69.05,108.02 69.05,121.71 79.3,121.71 79.3,111.49 									"/>
								</g>
							</g>
						</g>
					</g>
				</g>
			</g>
		</g>
		<g>
			<g>
				<g>
					<g>
						<g>
							<g>
								<g>
									<path class="st3" d="M49.37,148.16H36.14l0.01-0.03c3.34-8.12,5.76-17.87,12.33-23.44c0.13-0.11,0.27-0.22,0.4-0.31
										c1.48-1.18,3.25-2.12,5.22-2.86c9.35-3.51,20.21-3.02,29.78-0.71c4.43,1.07,13.12,4.41,16.39,9.31
										c0.26,0.39,0.5,0.76,0.73,1.11c-0.37,0.3-0.76,0.58-1.11,0.9c-0.14,0.13-0.27,0.27-0.41,0.4c-0.4-0.37-0.71-0.62-0.85-0.66
										c0.22,0.28,0.43,0.57,0.63,0.87c-2.19,2.24-3.74,5.37-3.33,8.54c0.11,0.82,0.34,1.6,0.66,2.32
										c-1.5,1.95-2.72,4.17-3.59,6.47l-0.07,0.01l0,0.17c-0.57,1.56-1,3.15-1.2,4.74c-0.18,1.42,0.45,2.74,1.45,3.75l0.39,13.29
										l0.44,14.81h-45.5l0.41-18.76L49.37,148.16z"/>
								</g>
							</g>
						</g>
					</g>
				</g>
			</g>
		</g>
		<g>
			<g>
				<g>
					<g>
						<g>
							<g>
								<g>
									<path class="st5" d="M40.56,148.13l-0.01,0.03l-10.91-19.13c-0.85-1.49-2.62-2.27-4.24-1.74c-0.11,0.04-0.23,0.07-0.35,0.1
										c-0.62,0.16-1.23,0.37-1.84,0.59c-0.27,0.1-0.44,0.15-0.57,0.19c-0.03,0.03-0.06,0.06-0.12,0.1
										c-0.01,0.01-0.02,0.01-0.02,0.02c-1.36,1.06-1.85,2.89-1.12,4.45l14.44,30.78c1.34,2.86,5.21,3.36,7.23,0.93l10.72-16.3
										L40.56,148.13z"/>
								</g>
							</g>
						</g>
					</g>
				</g>
			</g>
		</g>
		<g>
			<g>
				<g>
					<g>
						<g>
							<g>
								<path class="st5" d="M64.21,105.93c0.4,4.89,4.69,8.53,9.59,8.13c1.94-0.16,3.69-0.94,5.07-2.12
									c0.36-0.31,0.7-0.66,1.01-1.03c1.45-1.72,2.25-4.01,2.05-6.43c-0.29-3.55-2.63-6.44-5.76-7.6c-0.51-0.2-1.04-0.34-1.58-0.43
									l-0.02-0.01c-0.72-0.12-1.46-0.15-2.22-0.09c-0.19,0.02-0.38,0.04-0.56,0.07c-1.56,0.23-2.97,0.85-4.15,1.76
									C65.34,99.95,63.96,102.82,64.21,105.93z"/>
							</g>
						</g>
					</g>
				</g>
			</g>
		</g>
		<g>
			<g>
				<g>
					<g>
						<g>
							<g>
								<g>
									<path class="st8" d="M82.59,103.84c-0.29-3.55-2.63-6.44-5.76-7.6c-0.51-0.2-1.04-0.34-1.58-0.43l-0.02-0.01
										c-0.12-0.02-0.24-0.03-0.36-0.05c-1.27-0.24-2.61-0.28-3.93-0.34c-0.46-0.02-0.89-0.22-1.21-0.52
										c-0.2,0.09-0.4,0.18-0.6,0.25c-1.08,0.4-2.21,0.68-3.36,0.68c-0.98,0.1-1.93,0.02-2.85-0.19c0.22,1.8,1.52,3.63,3.42,3.87
										c-0.02-0.01,0-0.02,0.08,0.01c1.06,0.41,2.34,0.11,3.44,0.02c0.99-0.08,1.87,0.66,1.95,1.65l0.02,0.19l-0.13,3.14
										c-0.03,0.63,0.49,1.16,1.13,1.13c0.44-0.01,0.82-0.29,0.98-0.7l0.05-0.12c0.02,0,0.02-0.06,0.02-0.06l0.24-0.63l6.31,6.25
										c0.04-0.04,0.08-0.08,0.12-0.14C81.99,108.56,82.79,106.27,82.59,103.84z"/>
								</g>
							</g>
						</g>
					</g>
				</g>
			</g>
			<g>
				<g>
					<g>
						<g>
							<g>
								<g>
									<path class="st8" d="M66.33,99.52c0.03,0,0.05,0.01,0.08,0.01C66.59,99.67,66.37,99.56,66.33,99.52z"/>
								</g>
							</g>
						</g>
					</g>
				</g>
			</g>
		</g>
		<g>
			<g>
				<g>
					<g>
						<g>
							<g>
								<path class="st5" d="M73.71,104.45c0.1,1.25,1.2,2.19,2.46,2.08c1.25-0.1,2.19-1.2,2.08-2.46c-0.1-1.25-1.2-2.19-2.46-2.08
									C74.54,102.1,73.61,103.2,73.71,104.45z"/>
							</g>
						</g>
					</g>
				</g>
			</g>
		</g>
		<g>
			<rect x="17.05" y="123.73" class="st4" width="36.24" height="46.58"/>
			<rect x="53.28" y="123.72" class="st6" width="14.79" height="46.58"/>
		</g>
		<g>
			<g>
				<g>
					<path class="st8" d="M74.86,95.76l-9.27-4l0.59,1.86c0.8,2.5,3.48,3.86,5.97,3.04L74.86,95.76z"/>
				</g>
			</g>
		</g>
		<rect x="31.53" y="123.73" class="st5" width="7.28" height="46.58"/>
		<g>
			<path class="st5" d="M49.34,169.46c0,2.54,2.06,4.6,4.58,4.6h39.15c0.18,0,0.35-0.01,0.53-0.02c3.61-0.32,6.36-3.09,6.63-6.6
				l0.92-11.54l1.41-19.62c0.01-0.26,0.02-0.49,0.02-0.72c0-1.49-0.39-2.97-1.12-4.28c-0.5-0.9-1.14-1.72-1.93-2.39
				c-1.25-1.11-2.82-1.83-4.49-2.09c-2.56-0.37-5.16,0.36-7.12,2.05c-1.96,1.68-3.08,4.14-3.08,6.72v24.18l-31.67,5.19
				c-1.06,0.17-2.04,0.72-2.74,1.55c-0.36,0.43-0.63,0.88-0.8,1.35C49.43,168.4,49.34,168.93,49.34,169.46z"/>
			<path class="st3" d="M84.85,135.57v20.32h16.31l1.41-19.62c0.01-0.26,0.02-0.49,0.02-0.72c0-1.49-0.39-2.97-1.12-4.28
				c-0.5-0.9-1.14-1.72-1.93-2.39c-1.25-1.11-2.82-1.83-4.49-2.09c-2.56-0.37-5.16,0.36-7.12,2.05
				C85.97,130.53,84.85,132.99,84.85,135.57z"/>
		</g>
		<path class="st5" d="M11.04,150.9c0,2.76,2.24,5,5,5c2.76,0,5-2.24,5-5c0-2.76-2.24-5-5-5C13.28,145.9,11.04,148.13,11.04,150.9z"
			/>
	</g>
</g>
</svg>
