<?xml version="1.0" encoding="utf-8"?>
<!-- Generator: Adobe Illustrator 24.0.1, SVG Export Plug-In . SVG Version: 6.00 Build 0)  -->
<svg version="1.1" id="圖層_1" xmlns="http://www.w3.org/2000/svg" xmlns:xlink="http://www.w3.org/1999/xlink" x="0px" y="0px"
	 viewBox="0 0 115 142.5" style="enable-background:new 0 0 115 142.5;" xml:space="preserve">
<style type="text/css">
	.st0{fill:#FFD2BB;}
	.st1{fill:#6CCEFF;}
	.st2{fill:#F7F7F7;}
	.st3{fill:#1B3B78;}
	.st4{fill:#3093D0;}
	.st5{fill:#6F2677;}
	.st6{fill:#FD7752;}
</style>
<g>
	<g>
		<g id="XMLID_56_">
			<path class="st0" d="M64.69,37.1l0.47,12.7h31.51l4.99,8.23l4.39,7.26c0.67,1.11,1.86,1.76,3.11,1.76c0.33,0,0.67-0.05,1-0.14
				c2.09-0.6,3.2-2.88,2.37-4.88l-3.09-7.56l-5.28-12.86c-1.11-2.73-3.77-4.51-6.72-4.51H64.69z"/>
			<path class="st1" d="M64.69,37.1l0.47,12.7h31.51l4.99,8.23l7.78-3.56l-5.28-12.86c-1.11-2.73-3.77-4.51-6.72-4.51H64.69z"/>
		</g>
		<g>
			<path class="st0" d="M49.59,49.36l-0.47-12.7H17.61l-4.99-8.23l-4.39-7.26c-0.67-1.11-1.86-1.76-3.11-1.76
				c-0.33,0-0.67,0.05-1,0.14c-2.09,0.6-3.2,2.88-2.37,4.88L4.85,32l5.28,12.86c1.11,2.73,3.77,4.51,6.72,4.51H49.59z"/>
			<path class="st1" d="M49.59,49.36l-0.47-12.7H17.61l-4.99-8.23L4.85,32l5.28,12.86c1.11,2.73,3.77,4.51,6.72,4.51H49.59z"/>
		</g>
		<g>
			<g>
				<g>
					<g>
						<g>
							<g>
								<rect x="52.18" y="27.94" class="st0" width="9.1" height="9.08"/>
							</g>
						</g>
					</g>
				</g>
			</g>
		</g>
		<g>
			<g>
				<g>
					<g>
						<g>
							<g>
								<path class="st2" d="M65.31,37.22l0.03-0.2c-0.09-0.02-0.54-0.04-0.63-0.06c-4.47-0.61-9.31-0.49-13.65,0.16l13.93,15.49
									L65.31,37.22z"/>
							</g>
						</g>
					</g>
				</g>
			</g>
		</g>
		<g>
			<g>
				<path class="st1" d="M41.18,46.12c0.07-0.28,0.14-0.53,0.21-0.74c-0.06,0.07-0.13,0.13-0.21,0.19v-5.53
					c0.51-0.27,1.02-0.52,1.54-0.74c2.27-0.95,5.15-1.71,8.28-2.16c0.02,0,0.03-0.01,0.05-0.01l13.93,15.49l0.33-15.4l-0.33-0.21
					c0.7,0.09,1.4,0.21,2.07,0.35c5.16,1.03,9.16,5.07,10.14,10.23c2.3,12.2,4.58,24.45,5.22,36.81H41.18V46.12z"/>
			</g>
		</g>
		<g>
			<g>
				<g>
					<g>
						<g>
							<g>
								<g>
									<path class="st0" d="M63.58,18.16c2.02,3.86,0.52,8.63-3.35,10.65c-1.53,0.8-3.22,1.05-4.81,0.81
										c-0.42-0.06-0.84-0.16-1.24-0.3c-1.9-0.6-3.59-1.94-4.59-3.86c-1.46-2.8-1.08-6.08,0.72-8.43
										c0.29-0.39,0.62-0.75,0.98-1.08l0.01-0.01c0.49-0.43,1.02-0.81,1.62-1.12c0.15-0.08,0.3-0.15,0.46-0.22
										c1.28-0.57,2.63-0.77,3.95-0.65C59.89,14.2,62.29,15.7,63.58,18.16z"/>
								</g>
							</g>
						</g>
					</g>
				</g>
			</g>
			<g>
				<g>
					<g>
						<g>
							<g>
								<g>
									<path class="st3" d="M56.07,8.33c-0.91,0.4-1.62,1.22-1.81,2.19c-0.09,0.47-0.09,0.9-0.01,1.29
										c0.12,0.63-0.18,1.27-0.7,1.64c-0.95,0.67-1.94,1.33-2.79,2.12c-0.08,0.07-0.17,0.14-0.25,0.21l-0.01,0.01
										c-0.36,0.33-0.7,0.69-0.98,1.08c-1.8,2.35-2.18,5.63-0.72,8.43c1,1.92,2.68,3.26,4.59,3.86c0.05,0.02,0.11,0.03,0.16,0.04
										l1.77-7.68l0.48,0.36c0,0,0.04,0.04,0.05,0.04l0.1,0.07c0.31,0.23,0.73,0.25,1.07,0.06c0.49-0.28,0.63-0.92,0.31-1.39
										l-1.59-2.3l-0.08-0.15c-0.41-0.78-0.1-1.76,0.68-2.17l1.66-0.87C61.54,13.31,60.49,6.4,56.07,8.33z"/>
								</g>
							</g>
						</g>
					</g>
				</g>
			</g>
			<g>
				<g>
					<g>
						<g>
							<g>
								<g>
									<path class="st0" d="M55.75,21.55c0.52,0.99,0.13,2.21-0.86,2.73c-0.99,0.52-2.21,0.13-2.73-0.86
										c-0.52-0.99-0.13-2.21,0.86-2.73C54.01,20.18,55.23,20.56,55.75,21.55z"/>
								</g>
							</g>
						</g>
					</g>
				</g>
			</g>
		</g>
		<g id="XMLID_55_">
			<polygon class="st4" points="82.41,84.39 112.99,100.76 108.41,138.91 100.78,138.91 100.78,109.91 65.23,93.67 			"/>
			<path class="st5" d="M108.61,138.47l0.34,0.09l1.19,0.35l3.07,0.89c0.57,0.81,0.34,1.94-0.51,2.46
				c-0.48,0.29-0.15,0.33-0.65,0.08l-11.48-0.56c0.08-0.96,0.15-1.92,0.21-2.87c0-0.12,0.01-0.23,0.02-0.35
				c0.06-0.89,0.12-1.77,0.16-2.66h8.14C108.93,136.75,108.77,137.61,108.61,138.47z"/>
		</g>
		<g>
			<polygon class="st4" points="43.92,84.39 13.34,100.76 17.92,138.91 25.55,138.91 25.55,109.91 61.1,93.67 			"/>
			<path class="st5" d="M17.72,138.47l-0.34,0.09l-1.19,0.35l-3.07,0.89c-0.57,0.81-0.34,1.94,0.51,2.46
				c0.48,0.29,0.15,0.33,0.65,0.08l11.48-0.56c-0.08-0.96-0.15-1.92-0.21-2.87c0-0.12-0.01-0.23-0.02-0.35
				c-0.06-0.89-0.12-1.77-0.16-2.66h-8.14C17.41,136.75,17.56,137.61,17.72,138.47z"/>
		</g>
		<g>
			<polygon class="st4" points="68.93,92.54 54.05,94.83 41.18,84.39 83.43,83.39 			"/>
		</g>
	</g>
	<g id="XMLID_54_">
		<polygon class="st6" points="53.96,12.34 32.26,4 47.05,21.94 		"/>
		<path class="st6" d="M30.31,3.98c0.5,0.36,1.21,0.25,1.57-0.26c0.36-0.5,0.25-1.21-0.26-1.57c-0.5-0.36-1.21-0.25-1.57,0.26
			S29.81,3.62,30.31,3.98z"/>
		<path class="st6" d="M47.05,21.94c0.49,0.35,2.43-1.51,4.34-4.16c1.91-2.65,3.06-5.09,2.57-5.44c-0.49-0.35-2.43,1.51-4.34,4.16
			C47.71,19.15,46.56,21.59,47.05,21.94z"/>
	</g>
</g>
</svg>
