<?xml version="1.0" encoding="utf-8"?>
<!-- Generator: Adobe Illustrator 24.0.1, SVG Export Plug-In . SVG Version: 6.00 Build 0)  -->
<svg version="1.1" id="圖層_1" xmlns="http://www.w3.org/2000/svg" xmlns:xlink="http://www.w3.org/1999/xlink" x="0px" y="0px"
	 viewBox="0 0 96.5 157.5" style="enable-background:new 0 0 96.5 157.5;" xml:space="preserve">
<style type="text/css">
	.st0{fill:#2062A9;}
	.st1{fill:#FFD2BB;}
	.st2{fill:#5BC5C9;}
	.st3{fill:#3093D0;}
	.st4{fill:#E4E9FF;}
	.st5{fill:#1B3B78;}
	.st6{fill:#6CCEFF;}
	.st7{fill:#FFFFFF;}
	.st8{fill:none;}
	.st9{fill:#FFFFF2;}
	.st10{fill:#1E2966;}
	.st11{fill:#FF3840;}
	.st12{fill:#FF6E8B;}
</style>
<g>
	<g>
		<g id="XMLID_58_">
			<g>
				<g>
					<g>
						<g>
							<g>
								<g>
									<g>
										<g>
											<path class="st0" d="M2.51,113.81c0,0.89,0.6,1.67,1.46,1.89l10.74,3.05l1.56-6.97l0.97-4.33l4.94-22.08
												c0.27-1.18,1.65-1.72,2.64-1.02l29.34,20.51c3.05,2.13,7.29,0.64,8.34-2.93l3.83-13L22.66,68.05
												c-4.38-2.1-9.49,0.87-9.86,5.71l-3.38,31.67l-0.54,5.05l-0.21,2l-4.22-0.64c-0.54,0.01-1.02,0.24-1.37,0.59
												C2.72,112.78,2.51,113.27,2.51,113.81z"/>
										</g>
									</g>
								</g>
							</g>
						</g>
					</g>
				</g>
			</g>
			<g>
				<g>
					<g>
						<g>
							<g>
								<g>
									<g>
										<g>
											<path class="st1" d="M2.51,113.81c0,0.89,0.6,1.67,1.46,1.89l10.74,3.05l1.56-6.97l0.97-4.33l-7.82-2.03l-0.54,5.05
												l-0.21,2l-4.22-0.64c-0.54,0.01-1.02,0.24-1.37,0.59C2.72,112.78,2.51,113.27,2.51,113.81z"/>
										</g>
									</g>
								</g>
							</g>
						</g>
					</g>
				</g>
			</g>
			<g>
				<g>
					<g>
						<g>
							<g>
								<g>
									<g>
										<g>
											<path class="st2" d="M2.51,113.81c0,0.89,0.6,1.67,1.46,1.89l10.74,3.05l1.56-6.97l-7.39-1.3l-0.21,2l-4.22-0.64
												c-0.54,0.01-1.02,0.24-1.37,0.59C2.72,112.78,2.51,113.27,2.51,113.81z"/>
										</g>
									</g>
								</g>
							</g>
						</g>
					</g>
				</g>
			</g>
			<g>
				<g>
					<g>
						<g>
							<g>
								<g>
									<g>
										<g>
											<path class="st3" d="M41.31,76.06l5.84,3.97l0.51-4.58l24.47,13l-3.02,6.63c-1.09,2.41-10.73,19.89-2.59,48.35
												c0.57,1.99,1.38,3.92,2.23,5.83c0,0,0.01,0.01,0.01,0.02l1.84,4.18v2.29l-14.51,0.76c-0.81,0.04-1.5-0.61-1.5-1.42
												c0-0.7,0.5-1.29,1.2-1.42l5.48-0.91l-1.76-3.5l-2.94-5.83l-3.88-7.72C46.93,126.3,38.4,90.55,41.31,76.06L41.31,76.06z"
												/>
										</g>
									</g>
								</g>
							</g>
						</g>
					</g>
				</g>
			</g>
			<g>
				<g>
					<g>
						<g>
							<g>
								<g>
									<g>
										<g>
											<g>
												<path class="st1" d="M52.95,5.97c0.34,0.81,0.37,1.75,0.01,2.62l-10.1,24.59c-0.05,0.12,0.01,0.27,0.14,0.32l7.45,3.06
													l-4.85,11.81l-14.57-6.44c-2.68-1.19-3.71-4.47-2.17-6.98L46.87,5.49c0.88-1.43,2.67-2.01,4.22-1.38
													C51.97,4.48,52.62,5.16,52.95,5.97z"/>
											</g>
										</g>
									</g>
								</g>
							</g>
						</g>
					</g>
					<g>
						<g>
							<g>
								<g>
									<g>
										<g>
											<g>
												<path class="st4" d="M67.62,43.07c3.5,1.44,5.04,5.54,3.35,8.93c-1.52,3.05-12.11,2.08-15.25,0.79l-0.16-0.06
													l-9.97-4.36l4.85-11.81L67.62,43.07z"/>
											</g>
										</g>
									</g>
								</g>
							</g>
						</g>
					</g>
				</g>
			</g>
			<g>
				<g>
					<g>
						<g>
							<g>
								<g>
									<g>
										<g>
											<g>
												<g>
													<g>
														<g>
															<g>
																<polygon class="st1" points="68.53,33.66 68.53,45.76 77.58,45.76 77.58,36.73 																"/>
															</g>
														</g>
													</g>
												</g>
											</g>
										</g>
									</g>
								</g>
							</g>
						</g>
					</g>
				</g>
				<g>
					<g>
						<g>
							<g>
								<g>
									<g>
										<g>
											<g>
												<g>
													<g>
														<g>
															<g>
																<path class="st1" d="M83.04,31.82c-0.36,4.32-4.15,7.53-8.47,7.18c-1.72-0.14-3.26-0.83-4.48-1.87
																	c-0.32-0.27-0.62-0.58-0.89-0.91c-1.28-1.52-1.98-3.54-1.81-5.68c0.26-3.14,2.32-5.69,5.08-6.71
																	c0.45-0.17,0.92-0.3,1.4-0.38l0.02,0c0.64-0.1,1.29-0.14,1.96-0.08c0.17,0.01,0.33,0.03,0.5,0.06
																	c1.38,0.2,2.62,0.75,3.66,1.55C82.05,26.53,83.27,29.07,83.04,31.82z"/>
															</g>
														</g>
													</g>
												</g>
											</g>
										</g>
									</g>
								</g>
							</g>
						</g>
					</g>
					<g>
						<g>
							<g>
								<g>
									<g>
										<g>
											<g>
												<g>
													<g>
														<g>
															<g>
																<g>
																	<path class="st5" d="M81.95,19.57c-0.98-0.15-2.01,0.16-2.69,0.88c-0.33,0.34-0.55,0.71-0.7,1.08
																		c-0.23,0.59-0.83,0.97-1.46,1c-1.16,0.06-2.34,0.09-3.47,0.3c-0.11,0.01-0.22,0.02-0.32,0.04l-0.02,0
																		c-0.48,0.08-0.95,0.21-1.4,0.38c-2.76,1.02-4.83,3.57-5.08,6.71c-0.18,2.14,0.53,4.16,1.81,5.68
																		c0.03,0.05,0.07,0.09,0.11,0.12l5.57-5.52l0.21,0.55c0,0,0.01,0.06,0.02,0.06l0.04,0.11
																		c0.14,0.36,0.48,0.6,0.87,0.61c0.56,0.02,1.02-0.44,0.99-1l-0.11-2.78l0.01-0.17c0.07-0.88,0.85-1.53,1.72-1.46
																		c0.97,0.08,2.1,0.34,3.03-0.02c0.07-0.03,0.09-0.02,0.07-0.01C84.39,25.75,85.7,20.14,81.95,19.57z"/>
																</g>
															</g>
														</g>
													</g>
												</g>
											</g>
										</g>
									</g>
								</g>
							</g>
						</g>
						<g>
							<g>
								<g>
									<g>
										<g>
											<g>
												<g>
													<g>
														<g>
															<g>
																<g>
																	<path class="st5" d="M81.17,26.15c-0.02,0-0.05,0.01-0.07,0.01C80.95,26.28,81.14,26.19,81.17,26.15z"/>
																</g>
															</g>
														</g>
													</g>
												</g>
											</g>
										</g>
									</g>
								</g>
							</g>
						</g>
					</g>
					<g>
						<g>
							<g>
								<g>
									<g>
										<g>
											<g>
												<g>
													<g>
														<g>
															<g>
																<path class="st1" d="M74.65,30.51c-0.09,1.11-1.06,1.93-2.17,1.84c-1.11-0.09-1.93-1.06-1.84-2.17
																	c0.09-1.11,1.06-1.93,2.17-1.84C73.92,28.43,74.75,29.4,74.65,30.51z"/>
															</g>
														</g>
													</g>
												</g>
											</g>
										</g>
									</g>
								</g>
							</g>
						</g>
					</g>
				</g>
			</g>
			<g>
				<g>
					<g>
						<g>
							<g>
								<g>
									<g>
										<g>
											<path class="st4" d="M41.31,76.06l9.65-22.26c2.75-6.6,9.34-10.76,16.48-10.4l1.05,0.05c8.18,0.41,15.88,3.99,21.47,9.98
												l0.06,0.07c5.1,5.47,4.85,14.03-0.57,19.18L70.59,92.87L41.31,76.06z"/>
										</g>
									</g>
								</g>
							</g>
						</g>
					</g>
				</g>
			</g>
			<g>
				<g>
					<g>
						<g>
							<g>
								<g>
									<g>
										<g>
											<path class="st1" d="M54.59,155.08c0,0.81,0.68,1.46,1.5,1.42l14.51-0.76v-2.29l-1.84-4.18c0-0.01-0.01-0.01-0.01-0.01
												c-0.85-1.92-1.59-3.87-2.23-5.84h-9.95l2.94,5.83l1.76,3.5l-5.48,0.91C55.1,153.78,54.59,154.38,54.59,155.08z"/>
										</g>
									</g>
								</g>
							</g>
						</g>
					</g>
				</g>
			</g>
			<g>
				<g>
					<g>
						<g>
							<g>
								<g>
									<g>
										<g>
											<path class="st2" d="M54.59,155.08c0,0.81,0.68,1.46,1.5,1.42l14.51-0.76v-2.29l-1.84-4.18c0-0.01-0.01-0.01-0.01-0.01
												l-9.24-0.01l1.76,3.5l-5.48,0.91C55.1,153.78,54.59,154.38,54.59,155.08z"/>
										</g>
									</g>
								</g>
							</g>
						</g>
					</g>
				</g>
			</g>
			<g id="XMLID_59_">
				<g>
					<g>
						<g>
							<g>
								<g>
									<g>
										<g>
											<g>
												<path class="st1" d="M47.03,83.41c0.68-0.69,1.64-1.11,2.69-1.11h29.54c0.15,0,0.27-0.12,0.27-0.28v-8.95h14.18
													l-0.46,17.7c-0.09,3.26-3.03,5.7-6.25,5.18l-37.88-6.09c-1.85-0.3-3.2-1.89-3.2-3.76
													C45.92,85.05,46.34,84.09,47.03,83.41z"/>
											</g>
										</g>
									</g>
								</g>
							</g>
						</g>
					</g>
					<g>
						<g>
							<g>
								<g>
									<g>
										<g>
											<g>
												<path class="st4" d="M79.53,60.8c0-4.2,3.57-7.52,7.77-7.21c3.78,0.28,6.69,3.44,6.69,7.21v0.19l-0.28,12.09H79.53V60.8
													z"/>
											</g>
										</g>
									</g>
								</g>
							</g>
						</g>
					</g>
				</g>
			</g>
		</g>
		<g>
			<path class="st6" d="M54.84,3.27c0.42,0.58,1.22,0.7,1.79,0.29s0.7-1.22,0.29-1.79c-0.42-0.58-1.22-0.71-1.79-0.29
				S54.43,2.7,54.84,3.27z"/>
			<path class="st6" d="M56.95,4l20.5,16.86c0.4,0.56-1.72,2.78-4.75,4.97s-5.8,3.5-6.21,2.94L56.95,4z"/>
			<g>
				<polygon class="st7" points="66.32,11.71 59.69,11.09 58.98,9.28 63.94,9.76 				"/>
				<polygon class="st7" points="70.56,15.2 60.92,14.29 61.61,16.08 72.93,17.15 				"/>
				<polygon class="st7" points="75.56,23.49 75.55,23.5 64.05,22.44 63.37,20.62 77.06,21.92 				"/>
			</g>
			<path class="st8" d="M56.95,4l20.5,16.86c0.4,0.56-1.72,2.78-4.75,4.97s-5.8,3.5-6.21,2.94L56.95,4z"/>
		</g>
	</g>
	<g>
		<g>
			<polygon class="st9" points="59.36,34.58 12.47,59.64 8.28,48.04 52.04,24.65 			"/>
		</g>
		<g>
			<g>
				
					<rect x="18.97" y="44.7" transform="matrix(0.882 -0.4713 0.4713 0.882 -25.3343 29.1633)" class="st10" width="53.17" height="40.92"/>
			</g>
		</g>
		<g>
			<g>
				
					<rect x="41.89" y="44.7" transform="matrix(0.8819 -0.4713 0.4713 0.8819 -25.3344 29.1636)" class="st11" width="7.34" height="40.92"/>
			</g>
		</g>
		<g>
			<g>
				<polygon class="st11" points="55.44,29.27 10.22,53.43 9.21,50.63 53.68,26.87 				"/>
			</g>
		</g>
		<g>
			<g>
				<polygon class="st11" points="39.15,45.38 32.67,48.84 27.27,37.89 33.05,34.8 				"/>
			</g>
		</g>
		<g>
			<g>
				<path class="st12" d="M21.23,40.32c-1.89,0-3.58-0.15-4.6-0.59c-1.71-0.74-3.03-2.1-3.71-3.83c-0.69-1.73-0.65-3.63,0.09-5.34
					c1.53-3.53,5.64-5.16,9.17-3.63c3.06,1.33,8.53,9.03,9.6,10.56c0.26,0.37,0.3,0.84,0.13,1.25c-0.18,0.41-0.56,0.7-1,0.76
					C29.67,39.69,25.06,40.32,21.23,40.32z M19.41,28.94c-1.7,0-3.32,0.99-4.04,2.65c-0.47,1.08-0.49,2.27-0.05,3.36
					c0.43,1.09,1.26,1.95,2.34,2.41c1.56,0.67,6.76,0.34,10.75-0.13c-2.39-3.23-5.7-7.25-7.26-7.93
					C20.58,29.05,19.99,28.94,19.41,28.94z"/>
			</g>
			<g>
				<path class="st12" d="M30.68,39.54c-0.08,0-0.15-0.01-0.23-0.02c-0.44-0.08-0.81-0.38-0.97-0.8
					c-0.68-1.74-4.05-10.57-3.45-13.85c0.69-3.78,4.33-6.3,8.11-5.61c1.83,0.33,3.43,1.36,4.48,2.89c1.06,1.53,1.46,3.39,1.12,5.22
					c-0.6,3.28-6.86,10.36-8.11,11.74C31.39,39.38,31.04,39.54,30.68,39.54z M28.57,25.33c-0.3,1.67,1.2,6.66,2.56,10.44
					c2.61-3.06,5.78-7.2,6.08-8.86c0.21-1.15-0.04-2.32-0.71-3.28c-0.67-0.96-1.67-1.61-2.82-1.82
					C31.3,21.37,29.01,22.95,28.57,25.33L28.57,25.33z"/>
			</g>
			<g>
				<path class="st12" d="M16.64,43.96l-0.77-2.47l14.18-4.4l11.35-9.55l1.66,1.98l-11.55,9.72c-0.13,0.11-0.28,0.19-0.45,0.25
					L16.64,43.96z"/>
			</g>
		</g>
	</g>
</g>
</svg>
