<?xml version="1.0" encoding="utf-8"?>
<!-- Generator: Adobe Illustrator 24.0.1, SVG Export Plug-In . SVG Version: 6.00 Build 0)  -->
<svg version="1.1" id="栝鍣_1" xmlns="http://www.w3.org/2000/svg" xmlns:xlink="http://www.w3.org/1999/xlink" x="0px" y="0px"
	 viewBox="0 0 136.25 126.5" style="enable-background:new 0 0 136.25 126.5;" xml:space="preserve">
<style type="text/css">
	.st0{fill:#FD7752;}
	.st1{fill:#6CCEFF;}
	.st2{fill:#FFD2BB;}
	.st3{fill:#FFFFFF;}
	.st4{fill:#2062A9;}
	.st5{fill:#1B3B78;}
	.st6{fill:#6F2677;}
	.st7{fill:#5BC5C9;}
	.st8{fill:#FFACEA;}
	.st9{fill:#40C8F4;}
	.st10{fill:#FF6E8B;}
	.st11{fill:#FFFFFF;stroke:#FD7752;stroke-width:1.9698;stroke-miterlimit:3;}
	.st12{fill:#D7F1FF;}
	.st13{fill:none;stroke:#FFFFFF;stroke-width:1.9698;stroke-miterlimit:3;}
</style>
<g id="New_Symbol_7">
	<g>
		<polygon class="st0" points="96.84,53.58 101.63,27.75 84.75,47.88 		"/>
		<path class="st0" d="M101.25,25.58c-0.3,0.64-0.03,1.39,0.61,1.69c0.64,0.3,1.39,0.03,1.69-0.61c0.3-0.63,0.03-1.39-0.61-1.69
			C102.3,24.68,101.55,24.95,101.25,25.58z"/>
		<path class="st0" d="M84.75,47.88c-0.29,0.62,2.18,2.39,5.52,3.97c3.34,1.57,6.28,2.35,6.57,1.73c0.29-0.62-2.18-2.39-5.52-3.97
			C87.98,48.04,85.04,47.26,84.75,47.88z"/>
		<g id="XMLID_67_">
			<path class="st1" d="M85.32,68.06h12.93c9.29,0,16.7,7.68,16.55,17.16l-0.67,41.29H67.54l0.67-41.29
				C68.37,75.74,76.03,68.06,85.32,68.06z"/>
		</g>
		<path class="st2" d="M104.24,29.9c-1.4-1.08-3.37-0.97-4.65,0.23c-0.72,0.68-1.11,1.59-1.13,2.51c-0.03,0.92,0.3,1.85,0.98,2.57
			l4.98,5.29l6.57-5.41L104.24,29.9z"/>
		<path class="st1" d="M132.96,52.01l-21.98-16.92l-6.57,5.41l14.15,15.03c0.1,0.1,0.09,0.26-0.01,0.37l-6.15,5.79l9.18,9.75
			l11.87-11.78C135.63,57.49,135.4,53.89,132.96,52.01z"/>
		<g>
			<g>
				<g>
					<g>
						<g>
							<g>
								<path class="st1" d="M98,74.52c-2.89,2.72-2.86,7.33,0.07,10.01c2.64,2.42,12.65-2.51,15.25-4.95l0.13-0.12l8.13-8.02
									l-9.18-9.75L98,74.52z"/>
							</g>
						</g>
					</g>
				</g>
			</g>
		</g>
		<g>
			<g>
				<g>
					<path class="st1" d="M69.81,96.29l-10.4,15.8c-1.96,2.36-5.7,1.87-7-0.9L38.46,81.45l-2.02-4.29
						c-0.83-1.77-0.33-3.87,1.21-5.07c2.05-1.61,5.04-0.98,6.27,1.32l2.72,4.77l10.34,18.12l0.01-0.04L69.81,96.29z"/>
				</g>
			</g>
		</g>
		<g>
			<g>
				<g>
					<path class="st2" d="M46.65,78.18l-8.19,3.28l-2.02-4.29c-0.83-1.77-0.33-3.87,1.21-5.07c2.05-1.61,5.04-0.98,6.27,1.32
						L46.65,78.18z"/>
				</g>
			</g>
		</g>
		<g>
			<g>
				<polygon class="st2" points="97.04,58.05 97.04,70.66 87.11,70.66 87.11,60.75 				"/>
			</g>
		</g>
		<g>
			<g>
				<path class="st3" d="M102.73,68.5l-5.33,6.16l-5.99-5.18l-5.18,5.99l-7.36-6.36C86.54,66.97,95.97,66.97,102.73,68.5z"/>
			</g>
		</g>
		<g>
			<g>
				<g>
					
						<rect x="89.01" y="70.3" transform="matrix(0.7071 0.7072 -0.7072 0.7071 78.4707 -43.4616)" class="st4" width="5.36" height="5.36"/>
				</g>
			</g>
		</g>
		<g>
			<g>
				<g>
					<polygon class="st4" points="91.69,115.95 86.45,110.7 91.69,72.48 96.94,110.7 					"/>
				</g>
			</g>
		</g>
		<g>
			<g>
				<path class="st2" d="M81.12,55.36c0.39,4.75,4.55,8.27,9.3,7.88c1.88-0.15,3.58-0.91,4.91-2.06c0.35-0.3,0.68-0.63,0.97-1
					c1.41-1.67,2.18-3.88,1.98-6.23c-0.28-3.44-2.55-6.24-5.58-7.37c-0.49-0.19-1.01-0.33-1.54-0.42l-0.02-0.01
					c-0.7-0.11-1.42-0.15-2.15-0.09c-0.18,0.01-0.36,0.04-0.55,0.07c-1.51,0.22-2.88,0.82-4.02,1.7
					C82.21,49.56,80.87,52.34,81.12,55.36z"/>
			</g>
		</g>
		<g>
			<g>
				<g>
					<path class="st5" d="M82.32,41.92c1.08-0.16,2.2,0.18,2.95,0.97c0.36,0.38,0.61,0.78,0.76,1.19c0.25,0.65,0.91,1.06,1.6,1.1
						c1.27,0.06,2.57,0.1,3.81,0.33c0.12,0.01,0.24,0.03,0.35,0.04l0.02,0.01c0.53,0.09,1.04,0.23,1.53,0.42
						c3.03,1.12,5.3,3.92,5.58,7.36c0.19,2.35-0.58,4.57-1.98,6.23c-0.04,0.05-0.08,0.09-0.12,0.13l-6.11-6.06l-0.24,0.61
						c0,0-0.01,0.06-0.02,0.06l-0.05,0.12c-0.15,0.4-0.53,0.66-0.95,0.67c-0.61,0.02-1.12-0.48-1.09-1.1l0.12-3.05l-0.02-0.18
						c-0.08-0.96-0.93-1.68-1.89-1.6c-1.06,0.09-2.3,0.38-3.33-0.02c-0.08-0.03-0.09-0.03-0.08-0.01
						C79.65,48.7,78.21,42.54,82.32,41.92z"/>
				</g>
			</g>
			<g>
				<g>
					<path class="st6" d="M83.17,49.14c0.03,0,0.05,0.01,0.08,0.01C83.42,49.29,83.21,49.18,83.17,49.14z"/>
				</g>
			</g>
		</g>
		<g>
			<g>
				<path class="st2" d="M90.33,53.93c0.1,1.21,1.17,2.12,2.38,2.02c1.22-0.1,2.12-1.17,2.02-2.38c-0.1-1.22-1.17-2.12-2.38-2.02
					C91.13,51.64,90.23,52.71,90.33,53.93z"/>
			</g>
		</g>
		<g>
			<g>
				<g>
					<g>
						<rect x="49.77" y="38.57" class="st7" width="4.81" height="4.81"/>
					</g>
				</g>
			</g>
		</g>
		<g>
			<g>
				<g>
					<g>
						
							<rect x="21.73" y="35.76" transform="matrix(0.7074 -0.7068 0.7068 0.7074 -19.9147 28.2331)" class="st8" width="4.81" height="4.81"/>
					</g>
				</g>
			</g>
		</g>
		<g>
			<g>
				<g>
					<g>
						<path class="st9" d="M27.26,3.56c0,1.49-1.21,2.71-2.71,2.71c-1.5,0-2.71-1.21-2.71-2.71c0-1.5,1.21-2.71,2.71-2.71
							C26.05,0.86,27.26,2.07,27.26,3.56z"/>
					</g>
				</g>
			</g>
		</g>
		<g>
			<g>
				<g>
					<g>
						<rect x="30.22" y="16.33" class="st7" width="4.81" height="4.81"/>
					</g>
				</g>
			</g>
		</g>
		<g>
			<g>
				<g>
					<g>
						
							<rect x="48.32" y="2.76" transform="matrix(0.7072 0.707 -0.707 0.7072 18.5011 -34.3508)" class="st8" width="4.81" height="4.81"/>
					</g>
				</g>
			</g>
		</g>
		<g>
			<g>
				<g>
					<g>
						<g>
							<g>
								<path class="st10" d="M2.23,34.46c1.37,1.59,3.18,1.39,4.64,1.23c1.39-0.15,2.2-0.21,2.83,0.52
									c0.62,0.72,0.45,1.52,0.1,2.87c-0.37,1.42-0.83,3.18,0.54,4.76c1.37,1.59,3.18,1.39,4.63,1.22c1.39-0.15,2.2-0.21,2.83,0.52
									c0.38,0.44,1.04,0.48,1.47,0.11c0.44-0.38,0.48-1.04,0.11-1.47c-1.37-1.59-3.18-1.39-4.63-1.22
									c-1.39,0.15-2.2,0.21-2.83-0.52c-0.62-0.72-0.45-1.52-0.1-2.87c0.37-1.41,0.83-3.17-0.54-4.76
									c-1.37-1.59-3.18-1.39-4.64-1.22c-1.39,0.15-2.2,0.21-2.83-0.52c-0.62-0.72-0.46-1.52-0.1-2.87
									c0.37-1.42,0.83-3.18-0.54-4.76c-0.38-0.44-1.04-0.48-1.47-0.11c-0.44,0.38-0.48,1.04-0.11,1.47
									c0.62,0.72,0.45,1.52,0.1,2.87C1.32,31.11,0.86,32.87,2.23,34.46z"/>
							</g>
						</g>
					</g>
				</g>
			</g>
		</g>
		<g>
			<g>
				<g>
					<g>
						<g>
							<g>
								<g>
									<g>
										<g>
											<path class="st7" d="M63.39,28.15c-1.18-1.31-0.82-2.8-0.53-4c0.28-1.14,0.41-1.82-0.13-2.42
												c-0.54-0.6-1.22-0.54-2.39-0.39c-1.22,0.16-2.74,0.36-3.92-0.96c-1.18-1.31-0.82-2.8-0.53-4
												c0.28-1.14,0.41-1.82-0.13-2.42c-0.32-0.36-0.29-0.92,0.07-1.24c0.36-0.32,0.92-0.29,1.24,0.07
												c1.18,1.31,0.82,2.8,0.53,4c-0.28,1.14-0.41,1.82,0.13,2.42c0.54,0.6,1.22,0.54,2.39,0.39c1.22-0.16,2.74-0.36,3.92,0.96
												c1.18,1.32,0.82,2.8,0.53,4c-0.28,1.14-0.41,1.82,0.13,2.42c0.54,0.6,1.22,0.54,2.39,0.39c1.22-0.16,2.74-0.36,3.92,0.96
												c0.32,0.36,0.29,0.92-0.07,1.24c-0.36,0.33-0.92,0.29-1.24-0.07c-0.54-0.6-1.22-0.54-2.39-0.39
												C66.09,29.27,64.57,29.46,63.39,28.15z"/>
										</g>
									</g>
								</g>
							</g>
						</g>
					</g>
				</g>
			</g>
		</g>
		<line class="st11" x1="39.51" y1="44.36" x2="39.51" y2="53.17"/>
		<g>
			<path class="st12" d="M39.51,46.85c0.96,0,1.86-0.38,2.54-1.06c0.67-0.67,1.03-1.57,1.03-2.51c0-0.97-0.46-1.94-1.45-3.04
				c-0.16-0.18-1.32-1.31-2.11-2.07c-0.12,0.11-0.24,0.22-0.36,0.33c-1.59,1.45-3.22,2.95-3.22,4.77c0,0.95,0.37,1.84,1.03,2.51
				C37.65,46.47,38.55,46.85,39.51,46.85z"/>
		</g>
		<g>
			<path class="st0" d="M39.5,39.75c0.58,0.57,1.15,1.13,1.29,1.27c0.77,0.86,1.14,1.58,1.14,2.25c0,0.64-0.25,1.25-0.7,1.7
				c-0.46,0.46-1.07,0.72-1.72,0.72c-0.65,0-1.26-0.25-1.72-0.72c-0.45-0.46-0.7-1.06-0.7-1.7C37.09,42.09,38.25,40.91,39.5,39.75
				 M39.51,36.6C39.51,36.6,39.51,36.6,39.51,36.6c-1.84,1.84-4.72,3.81-4.72,6.68c0,1.29,0.52,2.47,1.37,3.32
				c0.85,0.86,2.04,1.4,3.35,1.4c1.31,0,2.5-0.54,3.35-1.4c0.84-0.85,1.37-2.03,1.37-3.32c0-1.48-0.78-2.73-1.74-3.81
				C42.26,39.21,39.57,36.6,39.51,36.6L39.51,36.6z"/>
		</g>
		<rect x="27.91" y="52.98" class="st8" width="23.19" height="19.95"/>
		<path class="st13" d="M28.29,65.36c2.24,0,2.24-4.82,4.49-4.82c2.24,0,2.24,4.82,4.49,4.82c2.24,0,2.24-4.82,4.49-4.82
			c2.25,0,2.25,4.82,4.49,4.82c2.25,0,2.25-4.82,4.49-4.82"/>
		<polygon class="st1" points="72.46,74.04 56.99,96.26 67.54,97.28 75.39,75.47 		"/>
	</g>
</g>
</svg>
