<?xml version="1.0" encoding="utf-8"?>
<!-- Generator: Adobe Illustrator 24.0.1, SVG Export Plug-In . SVG Version: 6.00 Build 0)  -->
<svg version="1.1" xmlns="http://www.w3.org/2000/svg" xmlns:xlink="http://www.w3.org/1999/xlink" x="0px" y="0px"
	 viewBox="0 0 120 120" style="enable-background:new 0 0 120 120;" xml:space="preserve">
<style type="text/css">
	.st0{fill:#FFFFFF;}
	.st1{clip-path:url(#SVGID_2_);}
	.st2{fill:#FF6E8B;}
	.st3{fill:#6CCEFF;}
	.st4{fill:#5BC5C9;}
	.st5{fill:#E4E9FF;}
	.st6{fill:#FFD2BB;}
	.st7{fill:#2062A9;}
	.st8{fill:#1B3B78;}
	.st9{fill:#6F2677;}
</style>
<g id="圖層_1">
	<g id="侹禖鼨懧鎀_12">
	</g>
	<circle class="st0" cx="60" cy="60" r="59"/>
</g>
<g id="top">
	<g>
		<defs>
			<circle id="SVGID_1_" cx="60" cy="60" r="59"/>
		</defs>
		<clipPath id="SVGID_2_">
			<use xlink:href="#SVGID_1_"  style="overflow:visible;"/>
		</clipPath>
		<g class="st1">
			<g>
				<path class="st2" d="M41.75-5.87c-1.87,0-3.39-1.52-3.39-3.39s1.52-3.39,3.39-3.39c1.87,0,3.39,1.52,3.39,3.39
					S43.62-5.87,41.75-5.87z M41.75-11.25c-1.1,0-1.99,0.89-1.99,1.99s0.89,1.99,1.99,1.99c1.1,0,1.99-0.89,1.99-1.99
					S42.85-11.25,41.75-11.25z"/>
			</g>
			<g>
				<path class="st3" d="M57.88,19.91c-1.87,0-3.39-1.52-3.39-3.39c0-1.87,1.52-3.39,3.39-3.39c1.87,0,3.39,1.52,3.39,3.39
					C61.27,18.39,59.75,19.91,57.88,19.91z M57.88,14.53c-1.1,0-1.99,0.89-1.99,1.99s0.89,1.99,1.99,1.99c1.1,0,1.99-0.89,1.99-1.99
					S58.98,14.53,57.88,14.53z"/>
			</g>
			<g>
				<path class="st2" d="M86.78,35.42c-1.87,0-3.39-1.52-3.39-3.39s1.52-3.39,3.39-3.39c1.87,0,3.39,1.52,3.39,3.39
					S88.65,35.42,86.78,35.42z M86.78,30.04c-1.1,0-1.99,0.89-1.99,1.99c0,1.1,0.89,1.99,1.99,1.99c1.1,0,1.99-0.89,1.99-1.99
					C88.77,30.93,87.88,30.04,86.78,30.04z"/>
			</g>
			<g>
				<path class="st4" d="M32.28,30.66c-1.87,0-3.39-1.52-3.39-3.39c0-1.87,1.52-3.39,3.39-3.39c1.87,0,3.39,1.52,3.39,3.39
					C35.67,29.14,34.15,30.66,32.28,30.66z M32.28,25.28c-1.1,0-1.99,0.89-1.99,1.99s0.89,1.99,1.99,1.99c1.1,0,1.99-0.89,1.99-1.99
					S33.38,25.28,32.28,25.28z"/>
			</g>
			<g>
				<path class="st3" d="M102.95,17.16c-1.87,0-3.39-1.52-3.39-3.39c0-1.87,1.52-3.39,3.39-3.39c1.87,0,3.39,1.52,3.39,3.39
					C106.35,15.64,104.82,17.16,102.95,17.16z M102.95,11.78c-1.1,0-1.99,0.89-1.99,1.99s0.89,1.99,1.99,1.99s1.99-0.89,1.99-1.99
					S104.05,11.78,102.95,11.78z"/>
			</g>
			<g>
				<path class="st4" d="M39.2,9c-0.18,0-0.36-0.07-0.5-0.21c-0.27-0.27-0.27-0.72,0-0.99c1.3-1.3,2.57-1.38,3.68-1.45
					c1.03-0.06,1.84-0.11,2.77-1.04c0.93-0.93,0.98-1.74,1.04-2.77c0.07-1.11,0.14-2.37,1.45-3.68c1.3-1.3,2.56-1.38,3.68-1.44
					c1.03-0.06,1.84-0.11,2.77-1.04c0.93-0.93,0.98-1.74,1.04-2.77c0.07-1.11,0.14-2.37,1.45-3.68c1.3-1.3,2.56-1.38,3.68-1.44
					c1.03-0.06,1.84-0.11,2.77-1.04c0.27-0.27,0.72-0.27,0.99,0c0.27,0.27,0.27,0.72,0,0.99c-1.3,1.3-2.56,1.38-3.68,1.44
					c-1.03,0.06-1.84,0.11-2.77,1.04c-0.93,0.93-0.98,1.74-1.04,2.77c-0.07,1.11-0.14,2.37-1.45,3.68c-1.3,1.3-2.56,1.38-3.68,1.44
					c-1.03,0.06-1.84,0.11-2.77,1.04c-0.93,0.93-0.98,1.74-1.04,2.77C47.53,3.74,47.45,5,46.15,6.31c-1.3,1.31-2.57,1.38-3.68,1.45
					c-1.03,0.06-1.84,0.11-2.77,1.04C39.56,8.93,39.38,9,39.2,9z"/>
			</g>
			<g>
				<path class="st2" d="M81.78,3.64c-0.18,0-0.36-0.07-0.5-0.21c-0.27-0.27-0.27-0.72,0-0.99c1.06-1.06,2.25-0.95,3.2-0.86
					c0.95,0.08,1.52,0.11,2.08-0.46c0.57-0.57,0.54-1.13,0.46-2.08c-0.09-0.95-0.2-2.14,0.86-3.2c1.06-1.06,2.25-0.95,3.2-0.86
					c0.95,0.09,1.52,0.11,2.08-0.46c0.56-0.56,0.54-1.13,0.45-2.08c-0.09-0.95-0.2-2.14,0.86-3.2c1.06-1.06,2.24-0.95,3.2-0.86
					c0.95,0.09,1.51,0.11,2.08-0.45c0.27-0.27,0.72-0.27,0.99,0c0.27,0.27,0.27,0.72,0,0.99c-1.06,1.06-2.24,0.95-3.2,0.86
					c-0.95-0.09-1.52-0.11-2.08,0.45c-0.56,0.56-0.54,1.13-0.45,2.08c0.09,0.95,0.2,2.14-0.86,3.2c-1.06,1.06-2.24,0.95-3.2,0.86
					c-0.95-0.09-1.52-0.11-2.08,0.46c-0.57,0.57-0.54,1.13-0.46,2.08c0.09,0.96,0.2,2.14-0.86,3.2c-1.06,1.06-2.25,0.95-3.2,0.86
					c-0.95-0.09-1.52-0.11-2.08,0.46C82.14,3.57,81.96,3.64,81.78,3.64z"/>
			</g>
			<g>
				<g>
					<g>
						<path class="st5" d="M69.19,82.16H55.61c-9.76,0-17.54,8.07-17.38,18.02l0.71,41.17l48.93,0l-0.71-41.17
							C87,90.23,78.95,82.16,69.19,82.16z"/>
					</g>
					<g>
						<g>
							<g>
								<g>
									<g>
										<g>
											<g>
												<g>
													<g>
														<path class="st6" d="M32.98,46.85c0.43,0.81,0.54,1.79,0.25,2.74l-8.31,26.64c-0.04,0.13,0.03,0.28,0.17,0.32
															l8.07,2.52l-3.99,12.79l-15.83-5.4c-2.92-1-4.29-4.34-2.91-7.1l16.15-32.45c0.79-1.58,2.61-2.35,4.29-1.83
															C31.82,45.38,32.56,46.03,32.98,46.85z"/>
													</g>
												</g>
											</g>
										</g>
									</g>
								</g>
							</g>
							<g>
								<g>
									<g>
										<g>
											<g>
												<g>
													<g>
														<path class="st5" d="M51.72,84.3c3.79,1.18,5.78,5.34,4.32,9.03c-1.31,3.33-12.47,3.28-15.88,2.22l-0.17-0.05
															l-10.82-3.65l3.99-12.79L51.72,84.3z"/>
													</g>
												</g>
											</g>
										</g>
									</g>
								</g>
							</g>
						</g>
					</g>
					<g>
						<g>
							<g>
								<g>
									<g>
										<g>
											<g>
												<g>
													<g>
														<path class="st6" d="M88.27,44.33c-0.43,0.81-0.54,1.79-0.25,2.74l8.31,26.64c0.04,0.13-0.03,0.28-0.17,0.32
															l-8.07,2.52l3.99,12.79l15.83-5.4c2.92-1,4.29-4.34,2.91-7.1L94.67,44.39c-0.79-1.58-2.61-2.35-4.29-1.83
															C89.43,42.86,88.69,43.51,88.27,44.33z"/>
													</g>
												</g>
											</g>
										</g>
									</g>
								</g>
							</g>
							<g>
								<g>
									<g>
										<g>
											<g>
												<g>
													<g>
														<path class="st5" d="M69.53,81.78c-3.79,1.18-5.78,5.34-4.32,9.03c1.31,3.33,12.47,3.28,15.88,2.22l0.17-0.05
															l10.82-3.65l-3.99-12.79L69.53,81.78z"/>
													</g>
												</g>
											</g>
										</g>
									</g>
								</g>
							</g>
						</g>
					</g>
					<g>
						<g>
							<g>
								<g>
									<path class="st7" d="M31.11,216.03c0.17,0.81,0.91,1.35,1.69,1.35h11.18l0.16-5.82v-0.24l0.87-32.59
										c0.05-2,12.18-29.22,12.18-29.22h7.47l-0.38,24.83c0.29,1.66,0.66,3.32,1.1,4.95l14.24,32.03l0.01,0.02l0.04,0.17
										l-0.09,0.04l-5.88,3.07c-0.47,0.25-0.77,0.76-0.77,1.31c0,0.4,0.15,0.77,0.4,1.02c0.25,0.26,0.59,0.42,0.97,0.42h12.03
										l-0.38-5.82l-0.01-0.22v-0.02l-8.05-38.43c-0.26-4,9.09-27.57,9.7-31.54l0,0l-49.14,0.24c0,0-5.44,34.97-4.91,37.74
										l4.71,31.99v0.02l0.02,0.24l-0.06-0.02l-6.11,2.47C31.38,214.31,30.93,215.15,31.11,216.03z"/>
								</g>
							</g>
						</g>
						<g>
							<path class="st2" d="M72.96,215.93c0,0.4,0.15,0.77,0.4,1.02c0.25,0.26,0.59,0.42,0.97,0.42h12.03l-0.38-5.82l-0.01-0.22
								v-0.02h-6.33l0.01,0.02l0.04,0.17l-0.09,0.04l-5.88,3.07C73.25,214.87,72.96,215.38,72.96,215.93z"/>
						</g>
						<g>
							<path class="st2" d="M31.11,216.03c0.17,0.81,0.91,1.35,1.69,1.35h11.18l0.16-5.82v-0.24h-5.87v0.02l0.02,0.24l-0.06-0.02
								l-6.11,2.47C31.38,214.31,30.93,215.15,31.11,216.03z"/>
						</g>
					</g>
					<g>
						<g>
							<path class="st6" d="M62.78,67.51l1.68,12.93c0.37,2.86-1.93,5.37-4.82,5.24l0,0c-2.22-0.1-4.06-1.75-4.39-3.95l-1.06-7.03
								L62.78,67.51z"/>
						</g>
					</g>
					<g>
						<g>
							<g>
								<g>
									<g>
										<path class="st6" d="M50.28,68.25c0.15,4.11,3.6,7.31,7.72,7.16c1.63-0.06,3.13-0.65,4.32-1.58
											c0.31-0.25,0.61-0.52,0.88-0.83c1.28-1.38,2.03-3.27,1.96-5.3c-0.11-2.98-1.95-5.49-4.53-6.58
											c-0.42-0.18-0.86-0.32-1.31-0.42L59.3,60.7c-0.6-0.12-1.22-0.18-1.85-0.16c-0.16,0.01-0.32,0.02-0.47,0.04
											c-1.31,0.13-2.52,0.6-3.54,1.31C51.45,63.29,50.19,65.63,50.28,68.25z"/>
									</g>
								</g>
							</g>
						</g>
						<g>
							<g>
								<path class="st8" d="M51.84,56.69c1.13-0.12,1.85,1.06,2.93,1.25c1.48,0.26,2.5-1.14,3.88-1.39
									c1.09-0.2,2.48,0.52,2.37,1.62c-0.02,0.16-0.06,0.32-0.03,0.48c0.1,0.48,0.77,0.51,1.27,0.45c1.58-0.19,3.32-0.02,4.51,1.05
									c1.18,1.06,0.04,2.82,0.14,4.16c0.01,0.18-0.31,0.2-0.4,0.36c-0.26,0.43,0.19,0.93,0.56,1.27c0.89,0.82,1.6,1.96,1.51,3.17
									c-0.09,1.21-1.24,2.35-2.42,2.11c-0.1-0.02-0.21-0.05-0.31-0.08c-0.32-0.03-0.64-0.06-0.93,0.06
									c-0.1,0.04-0.18,0.09-0.25,0.15c-0.13,0.22-0.28,0.44-0.44,0.64c-0.34,0.88-0.29,2.13-1.14,2.52
									c-0.54,0.24-1.2-0.04-1.57-0.5c-0.37-0.46-0.52-1.06-0.67-1.63c-0.2-0.83-0.39-1.77,0.07-2.49
									c0.03-0.05,0.07-0.09,0.11-0.14l-2.39-2.59l-0.23,0.52c0,0-0.01,0.05-0.02,0.05l-0.04,0.1c-0.15,0.34-0.48,0.55-0.85,0.55
									c-0.53-0.01-0.94-0.46-0.9-0.99l0.23-2.63l-0.01-0.16c-0.03-0.83-0.74-1.49-1.57-1.46c-0.92,0.03-2,0.24-2.87-0.15
									c-0.07-0.03-0.08-0.03-0.07-0.01C49.27,62.44,48.27,57.07,51.84,56.69z"/>
							</g>
							<g>
								<path class="st9" d="M52.3,62.97c0.02,0,0.04,0.01,0.07,0.01C52.51,63.1,52.33,63,52.3,62.97z"/>
							</g>
						</g>
						<g>
							<g>
								<g>
									<g>
										<path class="st6" d="M58.3,68.3c0.04,1.05,0.92,1.88,1.98,1.84c1.05-0.04,1.88-0.92,1.84-1.98
											c-0.04-1.05-0.92-1.88-1.98-1.84C59.08,66.36,58.26,67.24,58.3,68.3z"/>
									</g>
								</g>
							</g>
						</g>
					</g>
					<g id="XMLID_8_">
						<polygon class="st2" points="66.91,64.31 69.62,45.08 55.64,58.11 						"/>
						<path class="st2" d="M69.95,40.61c-0.68,0.49-0.83,1.43-0.35,2.11c0.49,0.68,1.43,0.83,2.11,0.35
							c0.68-0.49,0.83-1.43,0.35-2.11C71.57,40.28,70.63,40.12,69.95,40.61z"/>
					</g>
				</g>
			</g>
		</g>
	</g>
</g>
</svg>
