<?xml version="1.0" encoding="utf-8"?>
<!-- Generator: Adobe Illustrator 24.0.1, SVG Export Plug-In . SVG Version: 6.00 Build 0)  -->
<svg version="1.1" id="圖層_1" xmlns="http://www.w3.org/2000/svg" xmlns:xlink="http://www.w3.org/1999/xlink" x="0px" y="0px"
	 viewBox="0 0 103.82 178.42" style="enable-background:new 0 0 103.82 178.42;" xml:space="preserve">
<style type="text/css">
	.st0{fill:#4BAA75;}
	.st1{fill:#FFD2BB;}
	.st2{fill:#2062A9;}
	.st3{fill:#FF6E8B;}
	.st4{fill:#1B3B78;}
	.st5{fill:#6F2677;}
</style>
<g>
	<g>
		<g>
			<path class="st0" d="M43.34,43.21h13.58c9.76,0,17.54,8.07,17.38,18.02L73.6,102.4l-48.93,0l0.71-41.17
				C25.54,51.28,33.58,43.21,43.34,43.21z"/>
		</g>
		<g>
			<g>
				<g>
					<g>
						<g>
							<g>
								<g>
									<g>
										<g>
											<path class="st1" d="M79.55,7.9c-0.43,0.81-0.54,1.79-0.25,2.74l8.31,26.64c0.04,0.13-0.03,0.28-0.17,0.32l-8.07,2.52
												l3.99,12.79l15.83-5.4c2.92-1,4.29-4.34,2.91-7.1L85.95,7.96c-0.79-1.58-2.61-2.35-4.29-1.83
												C80.72,6.43,79.97,7.08,79.55,7.9z"/>
										</g>
									</g>
								</g>
							</g>
						</g>
					</g>
				</g>
				<g>
					<g>
						<g>
							<g>
								<g>
									<g>
										<g>
											<path class="st0" d="M60.82,45.35c-3.79,1.18-5.78,5.34-4.32,9.03c1.31,3.33,12.47,3.28,15.88,2.22l0.17-0.05l10.82-3.65
												l-3.99-12.79L60.82,45.35z"/>
										</g>
									</g>
								</g>
							</g>
						</g>
					</g>
				</g>
			</g>
		</g>
		<g>
			<g>
				<g>
					<g>
						<g>
							<g>
								<g>
									<g>
										<g>
											<path class="st1" d="M24.27,5.38c0.43,0.81,0.54,1.79,0.25,2.74l-8.31,26.64c-0.04,0.13,0.03,0.28,0.17,0.32l8.07,2.52
												l-3.99,12.79l-15.83-5.4c-2.92-1-4.29-4.34-2.91-7.1L17.87,5.44c0.79-1.58,2.61-2.35,4.29-1.83
												C23.1,3.91,23.85,4.56,24.27,5.38z"/>
										</g>
									</g>
								</g>
							</g>
						</g>
					</g>
				</g>
				<g>
					<g>
						<g>
							<g>
								<g>
									<g>
										<g>
											<path class="st0" d="M43,42.83c3.79,1.18,5.78,5.34,4.32,9.03c-1.31,3.33-12.47,3.28-15.88,2.22l-0.17-0.05l-10.82-3.65
												l3.99-12.79L43,42.83z"/>
										</g>
									</g>
								</g>
							</g>
						</g>
					</g>
				</g>
			</g>
		</g>
		<g>
			<g>
				<g>
					<g>
						<path class="st2" d="M81.42,177.08c-0.17,0.81-0.91,1.35-1.69,1.35H68.55l-0.16-5.82v-0.24l-0.87-32.59
							c-0.05-2-12.18-29.22-12.18-29.22h-7.47l0.38,24.83c-0.29,1.66-0.66,3.32-1.1,4.95L32.9,172.36l-0.01,0.02l-0.04,0.17
							l0.09,0.04l5.88,3.07c0.47,0.25,0.77,0.76,0.77,1.31c0,0.4-0.15,0.77-0.4,1.02s-0.59,0.42-0.97,0.42H26.18l0.38-5.82
							l0.01-0.22v-0.02l8.05-38.43c0.26-4-9.09-27.57-9.7-31.54l0,0l49.14,0.24c0,0,5.44,34.97,4.91,37.74l-4.71,31.99v0.02
							l-0.02,0.24l0.06-0.02l6.11,2.47C81.15,175.36,81.61,176.2,81.42,177.08z"/>
					</g>
				</g>
			</g>
			<g>
				<path class="st3" d="M39.58,176.98c0,0.4-0.15,0.77-0.4,1.02s-0.59,0.42-0.97,0.42H26.18l0.38-5.82l0.01-0.22v-0.02h6.33
					l-0.01,0.02l-0.04,0.17l0.09,0.04l5.88,3.07C39.29,175.92,39.58,176.43,39.58,176.98z"/>
			</g>
			<g>
				<path class="st3" d="M81.42,177.08c-0.17,0.81-0.91,1.35-1.69,1.35H68.55l-0.16-5.82v-0.24h5.87v0.02l-0.02,0.24l0.06-0.02
					l6.11,2.47C81.15,175.36,81.61,176.2,81.42,177.08z"/>
			</g>
		</g>
		<g>
			<g>
				<path class="st1" d="M49.75,28.55l-1.68,12.93c-0.37,2.86,1.93,5.37,4.82,5.24l0,0c2.22-0.1,4.06-1.75,4.39-3.95l1.06-7.03
					L49.75,28.55z"/>
			</g>
		</g>
		<g>
			<g>
				<g>
					<g>
						<g>
							<path class="st1" d="M62.25,29.3c-0.15,4.11-3.6,7.31-7.72,7.16c-1.63-0.06-3.13-0.65-4.32-1.58
								c-0.31-0.25-0.61-0.52-0.88-0.83c-1.28-1.38-2.03-3.27-1.96-5.3c0.11-2.98,1.95-5.49,4.53-6.58
								c0.42-0.18,0.86-0.32,1.31-0.42l0.02-0.01c0.6-0.12,1.22-0.18,1.85-0.16c0.16,0.01,0.32,0.02,0.47,0.04
								c1.31,0.13,2.52,0.6,3.54,1.31C61.08,24.34,62.35,26.68,62.25,29.3z"/>
						</g>
					</g>
				</g>
			</g>
			<g>
				<g>
					<path class="st4" d="M60.69,17.74c-1.13-0.12-1.85,1.06-2.93,1.25c-1.48,0.26-2.5-1.14-3.88-1.39
						c-1.09-0.2-2.48,0.52-2.37,1.62c0.02,0.16,0.06,0.32,0.03,0.48c-0.1,0.48-0.77,0.51-1.27,0.45c-1.58-0.19-3.32-0.02-4.51,1.05
						c-1.18,1.06-0.04,2.82-0.14,4.16c-0.01,0.18,0.31,0.2,0.4,0.36c0.26,0.43-0.19,0.93-0.56,1.27c-0.89,0.82-1.6,1.96-1.51,3.17
						c0.09,1.21,1.24,2.35,2.42,2.11c0.1-0.02,0.21-0.05,0.31-0.08c0.32-0.03,0.64-0.06,0.93,0.06c0.1,0.04,0.18,0.09,0.25,0.15
						c0.13,0.22,0.28,0.44,0.44,0.64c0.34,0.88,0.29,2.13,1.14,2.52c0.54,0.24,1.2-0.04,1.57-0.5c0.37-0.46,0.52-1.06,0.67-1.63
						c0.2-0.83,0.39-1.77-0.07-2.49c-0.03-0.05-0.07-0.09-0.11-0.14l2.39-2.59l0.23,0.52c0,0,0.01,0.05,0.02,0.05l0.04,0.1
						c0.15,0.34,0.48,0.55,0.85,0.55c0.53-0.01,0.94-0.46,0.9-0.99l-0.23-2.63l0.01-0.16c0.03-0.83,0.74-1.49,1.57-1.46
						c0.92,0.03,2,0.24,2.87-0.15c0.07-0.03,0.08-0.03,0.07-0.01C63.26,23.49,64.27,18.12,60.69,17.74z"/>
				</g>
				<g>
					<path class="st5" d="M60.24,24.01c-0.02,0-0.04,0.01-0.07,0.01C60.03,24.15,60.21,24.05,60.24,24.01z"/>
				</g>
			</g>
			<g>
				<g>
					<g>
						<g>
							<path class="st1" d="M54.23,29.34c-0.04,1.05-0.92,1.88-1.98,1.84c-1.05-0.04-1.88-0.92-1.84-1.98
								c0.04-1.05,0.92-1.88,1.98-1.84C53.45,27.4,54.27,28.29,54.23,29.34z"/>
						</g>
					</g>
				</g>
			</g>
		</g>
		<g id="XMLID_3_">
			<polygon class="st3" points="45.63,25.36 42.91,6.13 56.9,19.16 			"/>
			<path class="st3" d="M42.58,1.66c0.68,0.49,0.83,1.43,0.35,2.11c-0.49,0.68-1.43,0.83-2.11,0.35c-0.68-0.49-0.83-1.43-0.35-2.11
				C40.96,1.33,41.91,1.17,42.58,1.66z"/>
		</g>
	</g>
</g>
</svg>
