<?xml version="1.0" encoding="utf-8"?>
<!-- Generator: Adobe Illustrator 24.0.1, SVG Export Plug-In . SVG Version: 6.00 Build 0)  -->
<svg version="1.1" id="圖層_1" xmlns="http://www.w3.org/2000/svg" xmlns:xlink="http://www.w3.org/1999/xlink" x="0px" y="0px"
	 viewBox="0 0 122.91 111.65" style="enable-background:new 0 0 122.91 111.65;" xml:space="preserve">
<style type="text/css">
	.st0{fill:#FCDB08;}
	.st1{fill:#FFFFFF;}
</style>
<g>
	<g>
		<path class="st0" d="M57.45,16.58L14.34,91.25c-3.78,6.55,0.95,14.73,8.51,14.73h86.23c7.56,0,12.29-8.18,8.51-14.73L74.46,16.58
			C70.68,10.03,61.23,10.03,57.45,16.58z"/>
	</g>
	<g>
		<path class="st1" d="M100.07,101.48H13.84c-4.09,0-7.76-2.12-9.8-5.66c-2.05-3.54-2.05-7.78,0-11.32L47.15,9.83
			c2.05-3.54,5.71-5.66,9.8-5.66c0,0,0,0,0,0c4.09,0,7.76,2.12,9.8,5.66l43.11,74.68c2.05,3.54,2.05,7.78,0,11.32
			S104.16,101.48,100.07,101.48z M49.75,11.33L6.63,86c-1.5,2.6-1.5,5.72,0,8.32c1.5,2.6,4.2,4.16,7.21,4.16h86.23
			c3.01,0,5.7-1.56,7.21-4.16c1.5-2.61,1.5-5.72,0-8.32L64.16,11.33c-1.5-2.6-4.2-4.16-7.21-4.16S51.25,8.72,49.75,11.33
			L49.75,11.33z"/>
	</g>
	<g>
		<path class="st1" d="M58.86,70.94h-3.6l-5.25-37.32h13.88L58.86,70.94z M51.02,86.18V75.11h12.15v11.07H51.02z"/>
	</g>
</g>
</svg>
