<?xml version="1.0" encoding="utf-8"?>
<!-- Generator: Adobe Illustrator 24.0.1, SVG Export Plug-In . SVG Version: 6.00 Build 0)  -->
<svg version="1.1" id="分離模式" xmlns="http://www.w3.org/2000/svg" xmlns:xlink="http://www.w3.org/1999/xlink" x="0px"
	 y="0px" viewBox="0 0 398.25 52.5" style="enable-background:new 0 0 398.25 52.5;" xml:space="preserve">
<style type="text/css">
	.st0{fill:#0F9E9B;}
	.st1{fill:#FE7375;}
	.st2{fill:#FAC75C;}
</style>
<g>
	<g>
		<path class="st0" d="M392.83,22.34c2.02,4.06,4.55,10.63,0.48,14.27c0.19-0.12,0.37-0.24,0.56-0.36
			c-0.21,0.13-0.41,0.25-0.62,0.38c0.33-0.2,0.65-0.39,0.98-0.59c-3.05,1.18-6.24-0.37-9.02-1.63c-2.38-1.08-5.65-3.32-8.3-2.16
			c-4.56,1.98-3.12,9.37-2.29,13.16c-0.04-0.17,1.58-0.73,1.54-0.94c-0.76-3.47-1.9-9.42,0.86-12.27c-0.51,0.31-1.02,0.63-1.54,0.94
			c3.4-1.31,8.02,2.35,11.17,3.47c2.2,0.78,4.4,1.24,6.53,0.1c5.89-3.17,3.63-10.43,1.19-15.32
			C394.38,21.42,392.8,22.27,392.83,22.34L392.83,22.34z"/>
	</g>
	<g>
		<g>
			<path class="st1" d="M371.22,3.17c0.9,1.39,1.08,3.08,0.75,4.69c-0.15,0.75-0.51,1.39-0.99,1.97c-0.14,0.16-0.29,0.3-0.46,0.44
				c2.59-0.91,3.33-1.28,2.22-1.1c-0.31,0.04-0.63-0.05-0.92-0.14c-1.33-0.41-2.39-1.75-3.33-2.7c-1.01-1.03-2.03-2.27-3.4-2.82
				c-1.33-0.54-2.88,0.54-4.02,1.08c-1.44,0.68-2.71,1.34-3.52,2.79c-0.69,1.22-0.96,2.67-1.37,4c-0.21,0.7-0.47,1.37-0.83,2.01
				c-0.87,1.59-2.79,1.6,1.28,0.18c-1.17,0.41-2.21,1.17-3.37,1.58c1.38-0.48,2.75-1.17,4.04-1.86c1.03-0.55,1.58-1.65,1.98-2.69
				c0.97-2.53,1.12-5.34,3.67-6.86c-0.08,0.04-0.15,0.08-0.23,0.12c-3.97,1.97-2.03,0.6-0.36,1.55c0.8,0.46,1.46,1.2,2.11,1.85
				c1.26,1.28,2.75,3.31,4.67,3.5c0.86,0.08,1.89-0.63,2.61-0.97c1.07-0.5,2.06-0.88,2.83-1.81c1.4-1.7,1.15-4.64,0.01-6.38
				C374.48,1.42,371.3,3.29,371.22,3.17L371.22,3.17z"/>
		</g>
		<g>
			<path class="st1" d="M373.12,9.26c-0.42,0.02-0.85,0-1.24-0.15c-0.21-0.08-0.4-0.18-0.57-0.31c-1.09-0.55-2-1.65-2.81-2.48
				c-1.01-1.03-2.03-2.27-3.4-2.82c-0.91-0.36-1.91,0.02-2.82,0.47c-0.15,0.19-0.3,0.37-0.44,0.56c-0.09,0.12-0.18,0.24-0.26,0.37
				c-0.04,0.06-0.07,0.11-0.11,0.17c0.28,0.05,0.59,0.15,0.89,0.32c0.8,0.46,1.46,1.2,2.11,1.85c1.26,1.28,2.75,3.31,4.67,3.5
				c0.75,0.07,1.63-0.46,2.32-0.82C372.35,9.61,372.89,9.39,373.12,9.26z"/>
		</g>
	</g>
	<g>
		<g>
			<path class="st2" d="M24.49,50.92c0.5-1.28,1.39-2.8,0.44-4.08c-0.08-0.11-1.46-0.56-1.48-0.53c-0.61,0.84-1.49,1.54-2.29,2.19
				c-0.48,0.39-0.98,0.76-1.5,1.07c-0.33,0.2-0.77,0.47-1.17,0.4c0.07,0.02,0.15,0.05,0.22,0.07c-0.02-0.01-0.03-0.01-0.05-0.02
				c0.42,0.15,0.84,0.3,1.26,0.46c-0.51-0.28-0.51-1.3-0.55-1.8c-0.08-0.9-0.06-1.81-0.06-2.71c0.01-0.95-0.01-1.9,0-2.85
				c0.02-1.19,0.01-2.47-0.51-3.56c-0.05-0.1-1.4-0.58-1.48-0.53c-1.24,0.85-2.13,2.11-2.97,3.33c-0.79,1.15-1.61,2.25-2.51,3.31
				c-0.68,0.81-1.51,1.87-2.58,2.13c-0.11,0.03-0.22,0.02-0.33,0.01c1.49,0.11,1.59,0.74,1.18,0.4c-0.08-0.06-0.13-0.16-0.17-0.25
				c-0.13-0.26-0.15-0.56-0.17-0.85c-0.15-1.94,0.36-3.99,0.72-5.88c0.2-1.03,0.4-2.06,0.59-3.09c0.12-0.65,0.26-1.34,0.23-2
				c0-0.05-1.43-0.58-1.48-0.53c-1.47,1.32-2.23,3.35-3.26,5c-0.42,0.67-0.81,1.36-1.27,2c-0.41,0.57-0.97,1.29-1.71,1.37
				c0.49,0.18,0.99,0.35,1.48,0.53c-1.47-3.14-1.06-6.79-2.25-10.02c-0.04-0.1-0.64-0.24-0.74-0.27C2,34.2,1.38,34.06,1.34,33.97
				c1.19,3.23,0.78,6.88,2.25,10.02c0.05,0.11,0.63,0.23,0.74,0.27c0.18,0.06,0.55,0.28,0.74,0.26c0.7-0.08,1.21-0.72,1.62-1.24
				c0.49-0.64,0.89-1.34,1.3-2.03c0.48-0.8,0.95-1.58,1.4-2.4c0.53-0.97,1.09-1.96,1.92-2.7c-0.49-0.18-0.99-0.35-1.48-0.53
				c0.03,0.7-0.13,1.43-0.25,2.12c-0.19,1.09-0.41,2.17-0.62,3.26c-0.21,1.13-0.41,2.27-0.56,3.42C8.3,45.26,8.2,46.15,8.34,47
				c0.14,0.87,0.82,0.92,1.57,1.19c1.11,0.39,1.91-0.34,2.67-1.13c0.89-0.92,1.72-1.94,2.46-2.99c0.96-1.36,1.83-2.8,3.06-3.94
				c0.22-0.21,0.47-0.39,0.72-0.56c-0.49-0.18-0.99-0.35-1.48-0.53c0.85,1.81,0.47,4.12,0.5,6.07c0.02,1.45-0.19,3.09,0.32,4.47
				c0.23,0.62,1.19,0.72,1.72,0.9c0.51,0.17,1.08-0.24,1.49-0.5c1.27-0.8,2.68-1.9,3.57-3.13c-0.49-0.18-0.99-0.35-1.48-0.53
				c0.95,1.28,0.05,2.8-0.44,4.08C23.01,50.39,24.48,50.95,24.49,50.92L24.49,50.92z"/>
		</g>
		<g>
			<path class="st2" d="M19.48,49.7c0-0.02-0.01-0.04-0.01-0.06c0,0.01-0.01,0.03-0.01,0.04c0.06,0.14,0.11,0.29,0.16,0.43
				c0.12,0.14,0.26,0.27,0.4,0.4c0.47,0.06,0.97-0.3,1.35-0.53c0.82-0.51,1.69-1.16,2.45-1.88c0.25-0.32,0.54-0.63,0.73-0.99
				c0.07-0.14,0.17-0.25,0.29-0.33c-0.33-0.16-1.37-0.49-1.38-0.47c-0.61,0.84-1.49,1.54-2.29,2.19c-0.48,0.39-0.98,0.76-1.5,1.07
				C19.61,49.63,19.55,49.67,19.48,49.7z"/>
			<path class="st2" d="M9.83,47.54c0,0.01-0.01,0.02-0.02,0.03c0.02,0.11,0.06,0.23,0.13,0.34c0.03,0.05,0.05,0.1,0.08,0.15
				c0.21,0.09,0.3,0.19,0.32,0.23c0.9,0.1,1.59-0.54,2.25-1.22c0.89-0.92,1.72-1.94,2.46-2.99c0.87-1.23,1.67-2.54,2.73-3.62
				c0.01,0.06,0.02,0.13,0.03,0.19c0.21-0.37,0.46-0.7,0.78-0.97c0.03-0.03,0.06-0.07,0.08-0.1c0.02-0.03,0.04-0.05,0.07-0.07
				c-0.32-0.16-1.32-0.51-1.38-0.46c-1.24,0.85-2.13,2.11-2.97,3.33c-0.79,1.15-1.61,2.25-2.51,3.31c-0.56,0.66-1.21,1.5-2.02,1.91
				C9.83,47.58,9.83,47.56,9.83,47.54z"/>
			<path class="st2" d="M5.31,42.64c-0.19,0.26-0.41,0.55-0.66,0.8c-0.01-0.03-0.02-0.05-0.02-0.08c-0.01,0.03-0.03,0.07-0.05,0.1
				c0.07,0.34,0.15,0.68,0.22,1.02C4.9,44.52,5,44.54,5.08,44.53c0.7-0.08,1.21-0.72,1.62-1.24c0.49-0.64,0.89-1.34,1.3-2.03
				c0.47-0.78,0.93-1.55,1.37-2.34c-0.01,0.03-0.01,0.06-0.02,0.09c0.48-0.96,1.24-1.77,1.87-2.65c0.03-0.04,0.06-0.08,0.1-0.11
				c0-0.03,0-0.06,0-0.1c0-0.05-1.43-0.58-1.48-0.53c-1.47,1.32-2.23,3.35-3.26,5C6.16,41.31,5.77,41.99,5.31,42.64z"/>
		</g>
	</g>
</g>
</svg>
