<?xml version="1.0" encoding="utf-8"?>
<!-- Generator: Adobe Illustrator 24.0.1, SVG Export Plug-In . SVG Version: 6.00 Build 0)  -->
<svg version="1.1" id="分離模式" xmlns="http://www.w3.org/2000/svg" xmlns:xlink="http://www.w3.org/1999/xlink" x="0px"
	 y="0px" viewBox="0 0 617.25 240" style="enable-background:new 0 0 617.25 240;" xml:space="preserve">
<style type="text/css">
	.st0{fill:#D7F4ED;}
	.st1{fill:none;stroke:#BEF4E9;stroke-miterlimit:10;}
</style>
<g>
	<polygon class="st0" points="63.64,65.51 32.94,78.16 41.14,45.99 	"/>
	<polygon class="st0" points="108.5,99.32 79.45,115.41 83.91,82.51 	"/>
	<polygon class="st0" points="160.25,130.91 132.97,149.82 134.11,116.64 	"/>
	<polygon class="st0" points="214.85,157.08 189.21,178.18 187.62,145.02 	"/>
	<polygon class="st0" points="270.59,177.34 247.22,200.92 242.28,168.09 	"/>
	<polygon class="st0" points="332.48,192.93 312.39,219.37 303.2,187.46 	"/>
	<polygon class="st0" points="391.14,202.61 372.84,230.32 361.56,199.09 	"/>
	<polygon class="st0" points="449.89,206.48 433.23,235.2 420.16,204.68 	"/>
	<polygon class="st0" points="509.17,203.69 495.88,234.12 479.43,205.28 	"/>
	<polygon class="st0" points="567.95,198 557.66,229.56 538.5,202.45 	"/>
	<path class="st1" d="M3.71,4.8c0,0,199.2,265.26,609.83,186.29"/>
</g>
</svg>
