<?xml version="1.0" encoding="utf-8"?>
<!-- Generator: Adobe Illustrator 24.0.1, SVG Export Plug-In . SVG Version: 6.00 Build 0)  -->
<svg version="1.1" id="分離模式" xmlns="http://www.w3.org/2000/svg" xmlns:xlink="http://www.w3.org/1999/xlink" x="0px"
	 y="0px" viewBox="0 0 262.25 71" style="enable-background:new 0 0 262.25 71;" xml:space="preserve">
<style type="text/css">
	.st0{fill:#0F9E9B;}
	.st1{fill:#FE7375;}
	.st2{fill:#FAC75C;}
</style>
<g>
	<path class="st0" d="M255.33,34.38c3.2,6.41,7.19,16.79,0.76,22.54c0.29-0.19,0.59-0.38,0.88-0.57c-0.33,0.2-0.65,0.4-0.97,0.6
		c0.52-0.31,1.03-0.62,1.55-0.92c-4.81,1.87-9.86-0.58-14.25-2.57c-3.76-1.7-8.92-5.24-13.11-3.41c-7.19,3.13-4.92,14.79-3.61,20.78
		c-0.06-0.28,2.5-1.15,2.43-1.49c-1.2-5.47-3-14.88,1.36-19.38c-0.81,0.5-1.62,0.99-2.43,1.49c5.38-2.06,12.66,3.71,17.64,5.49
		c3.47,1.24,6.94,1.96,10.31,0.15c9.31-5.01,5.73-16.47,1.88-24.19C257.78,32.93,255.28,34.27,255.33,34.38L255.33,34.38z"/>
</g>
<g>
	<g>
		<path class="st1" d="M221.2,4.1c1.43,2.19,1.7,4.87,1.19,7.4c-0.24,1.18-0.81,2.2-1.57,3.11c-0.22,0.25-0.46,0.48-0.73,0.69
			c4.1-1.44,5.26-2.02,3.5-1.74c-0.49,0.07-0.99-0.07-1.45-0.21c-2.1-0.65-3.78-2.76-5.26-4.26c-1.6-1.63-3.21-3.59-5.37-4.46
			c-2.1-0.84-4.54,0.85-6.35,1.7c-2.28,1.08-4.28,2.12-5.56,4.41c-1.08,1.93-1.52,4.21-2.16,6.31c-0.34,1.1-0.75,2.17-1.3,3.18
			c-1.38,2.52-4.41,2.53,2.02,0.28c-1.84,0.64-3.49,1.85-5.32,2.49c2.18-0.76,4.34-1.85,6.38-2.94c1.62-0.87,2.49-2.6,3.12-4.24
			c1.54-3.99,1.77-8.43,5.8-10.83c-0.12,0.06-0.24,0.12-0.36,0.18c-6.27,3.12-3.2,0.95-0.57,2.45c1.27,0.73,2.31,1.9,3.33,2.93
			c1.99,2.02,4.34,5.22,7.38,5.52c1.36,0.13,2.98-0.99,4.13-1.52c1.69-0.79,3.25-1.39,4.46-2.86c2.21-2.68,1.81-7.32,0.02-10.07
			C226.35,1.35,221.33,4.29,221.2,4.1L221.2,4.1z"/>
	</g>
	<g>
		<path class="st1" d="M224.22,13.73c-0.66,0.04-1.34-0.01-1.95-0.23c-0.33-0.12-0.63-0.29-0.9-0.48c-1.72-0.87-3.15-2.61-4.43-3.91
			c-1.6-1.63-3.21-3.59-5.37-4.46c-1.43-0.57-3.02,0.03-4.45,0.74c-0.24,0.29-0.47,0.58-0.69,0.89c-0.14,0.19-0.28,0.38-0.41,0.58
			c-0.06,0.09-0.11,0.18-0.17,0.27c0.45,0.08,0.94,0.23,1.41,0.51c1.27,0.73,2.31,1.9,3.33,2.93c1.99,2.02,4.34,5.22,7.38,5.52
			c1.18,0.12,2.57-0.72,3.67-1.3C222.99,14.28,223.85,13.93,224.22,13.73z"/>
	</g>
</g>
<g>
	<g>
		<path class="st2" d="M37.72,65.08c0.79-2.03,2.2-4.43,0.7-6.44c-0.12-0.17-2.31-0.88-2.34-0.83c-0.97,1.33-2.35,2.43-3.61,3.46
			c-0.75,0.61-1.54,1.19-2.37,1.69c-0.52,0.31-1.22,0.74-1.85,0.62c0.12,0.04,0.23,0.08,0.35,0.11c-0.03-0.01-0.05-0.02-0.08-0.03
			c0.66,0.24,1.33,0.48,1.99,0.72c-0.8-0.44-0.8-2.06-0.87-2.84c-0.12-1.42-0.1-2.85-0.09-4.28c0.01-1.5-0.02-3,0.01-4.51
			c0.03-1.89,0.01-3.89-0.8-5.63c-0.08-0.16-2.22-0.92-2.34-0.83c-1.96,1.35-3.36,3.32-4.69,5.26c-1.25,1.82-2.54,3.55-3.96,5.23
			c-1.08,1.27-2.38,2.96-4.08,3.36c-0.17,0.04-0.35,0.03-0.52,0.02c2.36,0.17,2.51,1.17,1.87,0.63c-0.12-0.1-0.2-0.25-0.27-0.39
			c-0.2-0.4-0.24-0.89-0.28-1.34c-0.23-3.06,0.57-6.3,1.14-9.29c0.31-1.63,0.64-3.25,0.93-4.89c0.18-1.03,0.42-2.11,0.37-3.16
			c0-0.07-2.25-0.91-2.34-0.83c-2.32,2.08-3.52,5.3-5.14,7.9c-0.66,1.06-1.27,2.15-2,3.16c-0.65,0.9-1.53,2.03-2.7,2.16
			c0.78,0.28,1.56,0.55,2.34,0.83C4.74,50,5.38,44.25,3.5,39.15c-0.06-0.16-1.02-0.38-1.17-0.43c-0.13-0.05-1.12-0.27-1.17-0.4
			c1.88,5.11,1.23,10.86,3.55,15.83c0.08,0.18,0.99,0.37,1.17,0.43c0.29,0.1,0.86,0.44,1.17,0.4c1.11-0.12,1.91-1.13,2.55-1.96
			c0.77-1,1.4-2.12,2.06-3.2c0.76-1.26,1.51-2.5,2.21-3.79c0.84-1.54,1.72-3.09,3.03-4.27c-0.78-0.28-1.56-0.55-2.34-0.83
			c0.05,1.11-0.21,2.25-0.4,3.34c-0.3,1.72-0.65,3.43-0.98,5.15c-0.34,1.79-0.65,3.59-0.88,5.4c-0.16,1.34-0.32,2.75-0.1,4.09
			c0.22,1.37,1.29,1.46,2.47,1.87c1.76,0.61,3.01-0.54,4.22-1.78c1.41-1.45,2.72-3.06,3.88-4.72c1.51-2.15,2.89-4.43,4.83-6.23
			c0.35-0.33,0.74-0.62,1.14-0.89c-0.78-0.28-1.56-0.56-2.34-0.83c1.34,2.86,0.74,6.5,0.79,9.58c0.04,2.28-0.3,4.88,0.5,7.06
			c0.36,0.97,1.87,1.13,2.72,1.42c0.8,0.27,1.71-0.38,2.36-0.78c2.01-1.26,4.23-3.01,5.64-4.95c-0.78-0.28-1.56-0.55-2.34-0.83
			c1.5,2.02,0.08,4.42-0.7,6.44C35.38,64.24,37.7,65.12,37.72,65.08L37.72,65.08z"/>
	</g>
	<g>
		<path class="st2" d="M29.81,63.15c-0.01-0.03-0.01-0.06-0.02-0.09c-0.01,0.02-0.01,0.04-0.02,0.06c0.09,0.23,0.18,0.45,0.25,0.68
			c0.2,0.22,0.41,0.43,0.64,0.62c0.74,0.09,1.54-0.47,2.12-0.83c1.29-0.81,2.67-1.82,3.87-2.96c0.4-0.51,0.85-1,1.16-1.56
			c0.12-0.21,0.27-0.39,0.46-0.52c-0.52-0.25-2.16-0.78-2.19-0.74c-0.97,1.33-2.35,2.43-3.61,3.46c-0.75,0.61-1.54,1.19-2.37,1.69
			C30.01,63.03,29.91,63.09,29.81,63.15z"/>
		<path class="st2" d="M14.56,59.74c-0.01,0.02-0.02,0.03-0.03,0.05c0.03,0.18,0.1,0.36,0.21,0.53c0.05,0.07,0.09,0.15,0.12,0.23
			c0.33,0.15,0.48,0.3,0.5,0.37c1.42,0.15,2.51-0.86,3.55-1.93c1.41-1.45,2.72-3.06,3.88-4.72c1.37-1.95,2.64-4.01,4.31-5.71
			c0.02,0.1,0.03,0.2,0.04,0.31c0.34-0.58,0.73-1.1,1.22-1.54c0.04-0.05,0.09-0.11,0.13-0.16c0.03-0.04,0.07-0.08,0.11-0.11
			c-0.51-0.26-2.08-0.8-2.18-0.73c-1.96,1.35-3.36,3.32-4.69,5.26c-1.25,1.82-2.54,3.55-3.96,5.23c-0.88,1.04-1.91,2.36-3.19,3.02
			C14.57,59.81,14.56,59.77,14.56,59.74z"/>
		<path class="st2" d="M7.43,51.99c-0.3,0.41-0.65,0.88-1.05,1.27c-0.01-0.04-0.02-0.08-0.04-0.12c-0.02,0.05-0.05,0.1-0.07,0.15
			c0.12,0.54,0.23,1.07,0.35,1.61c0.17,0.06,0.33,0.11,0.45,0.09c1.11-0.12,1.91-1.13,2.55-1.96c0.78-1,1.4-2.12,2.06-3.2
			c0.74-1.23,1.47-2.44,2.16-3.7c-0.01,0.05-0.02,0.1-0.03,0.14c0.76-1.52,1.95-2.8,2.95-4.18c0.05-0.07,0.1-0.13,0.16-0.18
			c0-0.05,0-0.1,0-0.15c0-0.07-2.25-0.91-2.34-0.83c-2.32,2.08-3.52,5.3-5.14,7.9C8.77,49.89,8.16,50.98,7.43,51.99z"/>
	</g>
</g>
</svg>
