<?xml version="1.0" encoding="utf-8"?>
<!-- Generator: Adobe Illustrator 24.0.1, SVG Export Plug-In . SVG Version: 6.00 Build 0)  -->
<svg version="1.1" id="分離模式" xmlns="http://www.w3.org/2000/svg" xmlns:xlink="http://www.w3.org/1999/xlink" x="0px"
	 y="0px" viewBox="0 0 604 99" style="enable-background:new 0 0 604 99;" xml:space="preserve">
<style type="text/css">
	.st0{fill:#0F90C9;}
	.st1{fill:#FAC75C;}
	.st2{fill:#0F9E9B;}
	.st3{fill:#FE7375;}
	.st4{opacity:0;}
	.st5{opacity:0.25;}
	.st6{opacity:0.5;}
	.st7{opacity:0.75;}
</style>
<g>
	<path class="st0" d="M17.88,41.21c-2.01-2.28-5.1-3.15-7.88-2.21c-0.16,0.05,0.59,2.4,0.55,2.42c2.78-0.94,5.88-0.07,7.88,2.21
		C17.97,43.11,18.38,41.78,17.88,41.21L17.88,41.21z"/>
</g>
<polygon class="st0" points="135.62,78.41 127.08,87.25 115.83,87.31 122.3,78.48 "/>
<path class="st1" d="M67.02,40.45l15.15,12.68l-5.81,3.38c0,0-13.93-11.6-16.94-11.64L67.02,40.45z"/>
<polygon class="st1" points="517,31 525.47,40.31 516.99,41.99 511.92,33.11 "/>
<path class="st0" d="M11.66,61.58l12.16-8.41l19.07-2.45c0,0-10.38,7.07-12.37,7.6C28.52,58.84,11.66,61.58,11.66,61.58z"/>
<path class="st1" d="M456.84,64.02c0,0,3.86-11.19,3.3-17.31c0,0,6.51-6.85,7.87-8.75c0,0-0.54,15.17-3.29,20.19L456.84,64.02z"/>
<polygon class="st2" points="501.26,8.38 496.84,5.06 498.58,4.34 501.41,4.66 502.99,6.28 503.77,7.46 "/>
<g>
	<path class="st3" d="M488.39,87.53c3.94-0.92,7.46-0.76,10.94,1.21c0.46,0.26,0.05,3.87,0.05,4.31c0,0.4-0.41,4.11-0.05,4.31
		c-3.47-1.96-6.99-2.13-10.94-1.21c0.14-0.03-0.05-4.06-0.05-4.31C488.34,91.57,488.13,87.59,488.39,87.53L488.39,87.53z"/>
</g>
<g>
	<path class="st3" d="M135.91,23.18c3.42,0.32,6.03,1.36,7.78,3.76c0.23,0.32-1.72,2.96-1.92,3.3c-0.18,0.3-2.18,3.02-2,3.27
		c-1.75-2.4-4.36-3.44-7.78-3.76c0.12,0.01,1.81-3.11,1.93-3.3C134.03,26.24,135.69,23.16,135.91,23.18L135.91,23.18z"/>
</g>
<g>
	<g>
		<g class="st4">
			<path class="st3" d="M591.08,48.58c0.84,1.95,2.14,3.25,4.39,4.14c2.09,0.82,4.22,1.34,6.07,2.51c-0.02-0.01-7.84,7.9-8,7.8
				c-1.84-1.15-3.95-1.75-6.07-2.51c-2.27-0.81-3.57-2.24-4.39-4.14c-0.18-0.42,3.6-3.58,3.96-3.93
				C587.36,52.14,591.21,48.89,591.08,48.58L591.08,48.58z"/>
		</g>
		<g class="st5">
			<path class="st3" d="M591.14,49.25c0.77,1.78,1.95,2.97,4,3.78c1.9,0.75,3.85,1.23,5.53,2.29c-0.02-0.01-7.15,7.2-7.29,7.11
				c-1.67-1.05-3.6-1.6-5.53-2.29c-2.07-0.74-3.26-2.04-4-3.78c-0.16-0.38,3.28-3.26,3.61-3.58
				C587.75,52.5,591.26,49.54,591.14,49.25L591.14,49.25z"/>
		</g>
		<g class="st6">
			<path class="st3" d="M591.21,49.93c0.69,1.61,1.76,2.68,3.62,3.41c1.72,0.68,3.47,1.11,5,2.07c-0.02-0.01-6.46,6.5-6.59,6.42
				c-1.51-0.95-3.25-1.44-5-2.07c-1.87-0.67-2.94-1.84-3.62-3.41c-0.15-0.34,2.96-2.95,3.26-3.24
				C588.14,52.86,591.32,50.18,591.21,49.93L591.21,49.93z"/>
		</g>
		<g class="st7">
			<path class="st3" d="M591.27,50.6c0.62,1.44,1.57,2.39,3.23,3.05c1.54,0.61,3.1,0.99,4.46,1.84c-0.01-0.01-5.77,5.8-5.88,5.73
				c-1.35-0.85-2.9-1.29-4.46-1.84c-1.67-0.6-2.63-1.65-3.23-3.05c-0.13-0.31,2.64-2.63,2.91-2.89
				C588.53,53.22,591.37,50.83,591.27,50.6L591.27,50.6z"/>
		</g>
		<path class="st3" d="M591.33,51.28c0.54,1.26,1.38,2.1,2.84,2.68c1.35,0.53,2.73,0.87,3.93,1.62c-0.01-0.01-5.07,5.11-5.17,5.04
			c-1.19-0.75-2.56-1.13-3.93-1.62c-1.47-0.53-2.31-1.45-2.84-2.68c-0.12-0.27,2.33-2.31,2.56-2.54
			C588.93,53.58,591.42,51.48,591.33,51.28L591.33,51.28z"/>
	</g>
</g>
</svg>
