<?xml version="1.0" encoding="utf-8"?>
<!-- Generator: Adobe Illustrator 24.0.1, SVG Export Plug-In . SVG Version: 6.00 Build 0)  -->
<svg version="1.1" id="圖層_1_拷貝_5" xmlns="http://www.w3.org/2000/svg" xmlns:xlink="http://www.w3.org/1999/xlink" x="0px"
	 y="0px" viewBox="0 0 171.8 181.7" style="enable-background:new 0 0 171.8 181.7;" xml:space="preserve">
<style type="text/css">
	.st0{fill:#009E9B;}
	.st1{fill:none;stroke:#FFFFFF;stroke-miterlimit:10;}
	.st2{enable-background:new    ;}
	.st3{fill:#FFFFFF;}
	.st4{fill:none;stroke:#FFFFFF;stroke-width:1.4;stroke-linecap:round;stroke-linejoin:round;stroke-miterlimit:10;}
</style>
<g id="圖層_1">
	<g>
		<path class="st0" d="M169.9,70.1c0-37-37.6-67-84-67c-46.4,0-84,30-84,67c0,29.3,23.6,54.2,56.4,63.3l27.6,45.2l27.7-45.2
			C146.3,124.3,169.9,99.4,169.9,70.1z"/>
		<path class="st1" d="M160.1,70.5c0-32.7-33.2-59.2-74.2-59.2S11.6,37.8,11.6,70.5c0,25.9,20.8,47.8,49.8,55.9l24.4,40l24.4-39.9
			C139.3,118.4,160.1,96.4,160.1,70.5z"/>
		<g class="st2">
			<path class="st3" d="M97.6,56c-0.8,0.7-1.7,0.8-2.8,0.8h-4.7c-0.5,0-1-0.2-1.3-0.6c-0.3-0.3-0.5-0.7-0.5-1.2V44.2
				c0-0.5,0.2-1,0.5-1.3c0.3-0.3,0.7-0.4,1.3-0.4H95c1.1,0,2.2,0.6,2.7,1.6c0.6,0.9,0.7,2.2,0.4,3.2c-0.3,1-0.8,1.6-1.6,2.1
				c0.8,0.2,1.5,0.8,2,1.5c0.5,0.8,0.6,1.9,0.4,2.8C98.7,54.5,98.3,55.3,97.6,56z M94.8,43.8h-4c-0.3,0-0.6,0.2-0.6,0.5v4.3h4.3
				c0.7,0,1.4-0.4,1.7-1c0.5-0.7,0.5-1.9,0.2-2.7C96.2,44.3,95.5,43.8,94.8,43.8z M96.5,50.7c-0.5-0.5-1.2-0.6-1.9-0.6h-4.3v4.8
				c0,0.3,0.3,0.5,0.6,0.5h3.8c0.7,0,1.6-0.1,2.1-0.7c0.4-0.5,0.6-1.3,0.6-1.9C97.2,52,97,51.2,96.5,50.7z"/>
			<path class="st3" d="M111.9,56.8l-1.8-4.2h-6.4l-1.8,4.2h-2l5.9-14.3h1.9l6.2,14.3H111.9z M106.8,45.1l-2.6,6.1h5.2L106.8,45.1z"
				/>
			<path class="st3" d="M124.9,56.2c-1.3,0.6-3,0.8-4.4,0.6c-1.5-0.2-2.8-0.8-3.8-2c-1.2-1.4-1.7-3.1-1.8-5c0-2.7,0.8-5.4,3.4-6.7
				c1.8-1,4.3-1.1,6.2-0.3c1.7,0.7,2.9,2.2,3.5,3.9h-2.1c-0.6-1.2-1.3-2.1-2.6-2.7c-1.1-0.4-2.3-0.5-3.4-0.1c-2.4,1-3.2,3.4-3.2,5.8
				c0.1,2.1,0.7,4,2.5,5.2c1.3,0.8,3.3,0.9,4.7,0.1c1-0.6,1.9-1.8,2.2-2.9h2.1C127.7,53.7,126.5,55.4,124.9,56.2z"/>
		</g>
		<g>
			<path class="st4" d="M55.8,36.2c-3.5,0.1-5.7,0.4-5.7,0.4L39.6,47.9l0,18.9l34.9-7.5V40.5c-2.3-2.7-6.4-3.8-11.3-4.1"/>
			<line class="st4" x1="39.6" y1="47.9" x2="74.5" y2="40.5"/>
			<line class="st4" x1="39.6" y1="55.2" x2="74.5" y2="47.8"/>
			<line class="st4" x1="39.7" y1="59.8" x2="74.6" y2="52.4"/>
			<path class="st4" d="M63.3,35.6c0,2.1-1.7,3.8-3.8,3.8c-2.1,0-3.8-1.7-3.8-3.8s1.7-3.8,3.8-3.8C61.7,31.8,63.3,33.5,63.3,35.6z"
				/>
			<path class="st4" d="M59.6,34.1c0,0-0.2-4.5,3.8-4.4"/>
		</g>
		<g>
			<path class="st3" d="M104,101.9c0,10-8.1,18.2-18.2,18.2s-18.2-8.1-18.2-18.2s8.1-18.2,18.2-18.2S104,91.8,104,101.9"/>
			<g class="st2">
				<path class="st0" d="M81.5,98.9c0-0.2,0-0.4-0.1-0.6c0-0.2-0.1-0.4-0.2-0.6c-0.2-0.5-0.5-0.9-0.9-1.1c-0.3-0.1-0.6-0.2-1-0.2
					c-0.4,0-0.7,0.1-1,0.3c-0.4,0.2-0.7,0.4-0.9,0.7c-0.3,0.3-0.5,0.6-0.6,1c-0.2,0.4-0.3,0.8-0.4,1.2c-0.1,0.4-0.1,0.9-0.1,1.3
					c0,0.5,0.1,1.1,0.1,1.6c0.1,0.5,0.2,1,0.5,1.4c0.2,0.3,0.4,0.6,0.7,0.8c0.3,0.2,0.6,0.4,1,0.5c0.3,0.1,0.7,0.1,1,0.1
					c0.3,0,0.7-0.1,1-0.2c0.2-0.1,0.4-0.2,0.6-0.4c0.2-0.2,0.5-0.4,0.7-0.7v-1.5c0-0.1,0-0.1-0.1-0.2c-0.1-0.1-0.1-0.1-0.2-0.1h-2.3
					v-1.4h3.9c0.2,0,0.4,0.1,0.5,0.2c0.2,0.1,0.3,0.2,0.4,0.4c0.1,0.2,0.2,0.5,0.2,0.7v4.5h-2.5v-1c-0.4,0.4-0.9,0.7-1.4,0.9
					s-1.1,0.3-1.6,0.3c-0.5,0-1-0.1-1.5-0.2c-0.5-0.1-0.9-0.3-1.4-0.6c-0.4-0.2-0.8-0.5-1.1-0.9c-0.3-0.3-0.6-0.7-0.7-1.1
					c-0.2-0.6-0.4-1.2-0.5-1.9s-0.1-1.4,0-2.1c0.1-0.6,0.2-1.2,0.4-1.7c0.2-0.5,0.5-1,0.9-1.5c0.4-0.5,0.9-0.8,1.4-1.1
					c0.5-0.3,1.1-0.5,1.7-0.6c0.6-0.1,1.2-0.1,1.8-0.1c0.6,0.1,1.2,0.2,1.8,0.4c0.3,0.1,0.6,0.3,0.9,0.5c0.3,0.2,0.6,0.5,0.8,0.7
					c0.2,0.3,0.5,0.6,0.6,1.1c0.2,0.4,0.3,0.9,0.4,1.2H81.5z"/>
			</g>
			<g class="st2">
				<path class="st0" d="M97.4,101.1c0,0.7-0.1,1.4-0.3,2.1c-0.2,0.7-0.5,1.3-1,1.8c-0.5,0.6-1,1-1.7,1.3c-0.6,0.3-1.3,0.4-2,0.5
					c-0.5,0-1.1,0-1.6-0.1c-0.5-0.1-1-0.2-1.5-0.4c-0.4-0.2-0.8-0.4-1.2-0.7c-0.4-0.3-0.7-0.6-1-1.1c-0.4-0.6-0.6-1.2-0.8-1.9
					c-0.2-0.7-0.2-1.4-0.2-2.1c0-0.7,0.1-1.4,0.4-2c0.2-0.6,0.5-1.2,0.9-1.7c0.3-0.4,0.6-0.7,1-0.9c0.4-0.2,0.8-0.4,1.2-0.6
					c0.4-0.1,0.7-0.2,1.1-0.3s0.8-0.1,1.2-0.1c0.5,0,1,0,1.4,0.1s0.9,0.3,1.3,0.5c0.4,0.2,0.7,0.5,1,0.8c0.3,0.3,0.6,0.7,0.8,1.1
					c0.3,0.5,0.5,1.1,0.6,1.7C97.3,99.8,97.4,100.4,97.4,101.1z M94.7,100.6c0-0.5-0.1-1-0.2-1.5c-0.1-0.5-0.2-0.9-0.4-1.4
					c-0.1-0.2-0.2-0.4-0.4-0.6c-0.2-0.2-0.4-0.3-0.6-0.4c-0.2-0.1-0.4-0.2-0.7-0.2c-0.2,0-0.5-0.1-0.7-0.1c-0.5,0-0.9,0.1-1.3,0.3
					s-0.7,0.5-1,0.9c-0.3,0.5-0.5,1-0.6,1.6c-0.1,0.6-0.1,1.2-0.1,1.7c0,0.2,0,0.5,0,0.8c0,0.3,0.1,0.6,0.1,0.9
					c0.1,0.3,0.1,0.6,0.2,0.9c0.1,0.3,0.2,0.5,0.4,0.7c0.1,0.2,0.3,0.4,0.5,0.5c0.2,0.1,0.4,0.3,0.6,0.4s0.5,0.1,0.7,0.2
					s0.5,0,0.7,0c0.3,0,0.5-0.1,0.7-0.2c0.2-0.1,0.5-0.2,0.7-0.4c0.2-0.2,0.4-0.3,0.5-0.6c0.2-0.2,0.3-0.5,0.3-0.8
					c0.1-0.4,0.2-0.9,0.3-1.4C94.7,101.6,94.8,101.1,94.7,100.6z"/>
			</g>
		</g>
	</g>
</g>
</svg>
