<?xml version="1.0" encoding="utf-8"?>
<!-- Generator: Adobe Illustrator 24.0.1, SVG Export Plug-In . SVG Version: 6.00 Build 0)  -->
<svg version="1.1" id="圖層_1_拷貝_5" xmlns="http://www.w3.org/2000/svg" xmlns:xlink="http://www.w3.org/1999/xlink" x="0px"
	 y="0px" viewBox="0 0 171.8 181.7" style="enable-background:new 0 0 171.8 181.7;" xml:space="preserve">
<style type="text/css">
	.st0{fill:#009E9B;}
	.st1{fill:none;stroke:#FFFFFF;stroke-miterlimit:10;}
	.st2{enable-background:new    ;}
	.st3{fill:#FFFFFF;}
	.st4{fill:none;stroke:#FFFFFF;stroke-width:1.4;stroke-linecap:round;stroke-linejoin:round;stroke-miterlimit:10;}
</style>
<g>
	<path class="st0" d="M169.9,70.1c0-37-37.6-67-84-67c-46.4,0-84,30-84,67c0,29.3,23.6,54.2,56.4,63.3l27.6,45.2l27.7-45.2
		C146.3,124.3,169.9,99.4,169.9,70.1z"/>
	<path class="st1" d="M160.1,70.5c0-32.7-33.2-59.2-74.2-59.2S11.6,37.8,11.6,70.5c0,25.9,20.8,47.8,49.8,55.9l24.4,40l24.4-39.9
		C139.3,118.4,160.1,96.4,160.1,70.5z"/>
	<g class="st2">
		<path class="st3" d="M81,53.6V43.5l-4.4,10.1h-1.5l-4.4-10v10H69V39.3h1.8L75.9,51L81,39.3h1.8v14.3H81z"/>
		<path class="st3" d="M88.8,56.3c-0.2,0.4-0.5,0.8-0.8,1c-0.3,0.2-0.7,0.3-1.2,0.3h-1.4l-0.8-1.4h1.8c0.4,0,0.7-0.3,0.8-0.6l1-2.5
			L84,43.2h2l3.2,7.5l3.1-7.5h2.1L88.8,56.3z"/>
		<path class="st3" d="M107.6,53.6V43.5l-4.4,10.1h-1.5l-4.4-10v10h-1.7V39.3h1.8l5.1,11.7l5.1-11.7h1.8v14.3H107.6z"/>
		<path class="st3" d="M118.3,53.6v-1.3c-0.6,0.8-1.5,1.3-2.5,1.5c-1,0.2-2.1,0-3-0.6c-0.8-0.6-1.3-1.6-1.3-2.8v-7.1h1.8v7.3
			c0,0.6,0.3,1.3,0.9,1.6c0.5,0.3,1.2,0.3,1.7,0.2c1-0.3,1.9-1.1,2.4-2v-7.1h1.8l0,10.4H118.3z"/>
		<path class="st3" d="M129.8,52.7c-0.8,0.8-2.1,1.1-3.2,1.1c-1,0-2.2-0.2-3-0.8c-0.8-0.7-1.4-1.7-1.6-2.7h1.9
			c0.1,0.6,0.4,1.3,0.9,1.7c0.5,0.4,1.3,0.5,2,0.4c0.7,0,1.3-0.2,1.8-0.7c0.3-0.3,0.4-0.7,0.4-1.1c0-0.5-0.4-0.8-0.8-1
			c-0.7-0.3-2.4-0.9-3.4-1.1c-0.6-0.2-1.6-0.6-2.1-1.3c-0.4-0.7-0.5-1.6-0.1-2.3c0.4-0.8,1.1-1.4,1.9-1.6c1.3-0.4,2.9-0.3,4.1,0.3
			c1,0.5,1.5,1.5,1.8,2.6h-1.9c-0.1-0.6-0.5-1.3-1.2-1.6c-0.7-0.3-2-0.3-2.7,0.2c-0.4,0.3-0.7,0.9-0.5,1.3c0.1,0.4,0.7,0.7,1.1,0.8
			c1.2,0.3,2.9,0.8,4,1.3c0.8,0.4,1.4,1.3,1.5,2.2C130.8,51.3,130.4,52.1,129.8,52.7z"/>
		<path class="st3" d="M133.2,41.1v-1.9h1.8v1.9H133.2z M133.2,53.6V43.2h1.8v10.4H133.2z"/>
		<path class="st3" d="M145.3,52.6c-0.8,0.8-1.8,1.1-2.9,1.2c-1.1,0.1-2.3-0.3-3.1-1c-1.9-1.6-2-5-1.3-6.9c0.4-1,1.3-1.9,2.4-2.4
			c1.2-0.6,2.8-0.5,4,0.1c0.9,0.5,1.9,1.8,2.2,2.7h-1.9c-0.3-0.8-0.9-1.7-1.8-1.8c-1.1-0.2-2.2,0.2-2.8,1.2c-1,1.4-0.8,3.8-0.1,5.3
			c0.4,0.7,1,1.2,1.8,1.4c0.8,0.2,1.6,0.1,2.2-0.5c0.5-0.5,0.9-1.4,1-2.1h1.8C146.5,50.8,146,51.9,145.3,52.6z"/>
	</g>
	<g>
		<path class="st3" d="M104,101.9c0,10-8.1,18.2-18.2,18.2s-18.2-8.1-18.2-18.2s8.1-18.2,18.2-18.2S104,91.8,104,101.9"/>
		<g class="st2">
			<path class="st0" d="M81.5,98.9c0-0.2,0-0.4-0.1-0.6c0-0.2-0.1-0.4-0.2-0.6c-0.2-0.5-0.5-0.9-0.9-1.1c-0.3-0.1-0.6-0.2-1-0.2
				c-0.4,0-0.7,0.1-1,0.3c-0.4,0.2-0.7,0.4-0.9,0.7c-0.3,0.3-0.5,0.6-0.6,1c-0.2,0.4-0.3,0.8-0.4,1.2c-0.1,0.4-0.1,0.9-0.1,1.3
				c0,0.5,0.1,1.1,0.1,1.6c0.1,0.5,0.2,1,0.5,1.4c0.2,0.3,0.4,0.6,0.7,0.8c0.3,0.2,0.6,0.4,1,0.5c0.3,0.1,0.7,0.1,1,0.1
				c0.3,0,0.7-0.1,1-0.2c0.2-0.1,0.4-0.2,0.6-0.4c0.2-0.2,0.5-0.4,0.7-0.7v-1.5c0-0.1,0-0.1-0.1-0.2c-0.1-0.1-0.1-0.1-0.2-0.1h-2.3
				v-1.4h3.9c0.2,0,0.4,0.1,0.5,0.2c0.2,0.1,0.3,0.2,0.4,0.4c0.1,0.2,0.2,0.5,0.2,0.7v4.5h-2.5v-1c-0.4,0.4-0.9,0.7-1.4,0.9
				s-1.1,0.3-1.6,0.3c-0.5,0-1-0.1-1.5-0.2c-0.5-0.1-0.9-0.3-1.4-0.6c-0.4-0.2-0.8-0.5-1.1-0.9c-0.3-0.3-0.6-0.7-0.7-1.1
				c-0.2-0.6-0.4-1.2-0.5-1.9s-0.1-1.4,0-2.1c0.1-0.6,0.2-1.2,0.4-1.7c0.2-0.5,0.5-1,0.9-1.5c0.4-0.5,0.9-0.8,1.4-1.1
				c0.5-0.3,1.1-0.5,1.7-0.6c0.6-0.1,1.2-0.1,1.8-0.1c0.6,0.1,1.2,0.2,1.8,0.4c0.3,0.1,0.6,0.3,0.9,0.5c0.3,0.2,0.6,0.5,0.8,0.7
				c0.2,0.3,0.5,0.6,0.6,1.1c0.2,0.4,0.3,0.9,0.4,1.2H81.5z"/>
		</g>
		<g class="st2">
			<path class="st0" d="M97.4,101.1c0,0.7-0.1,1.4-0.3,2.1c-0.2,0.7-0.5,1.3-1,1.8c-0.5,0.6-1,1-1.7,1.3c-0.6,0.3-1.3,0.4-2,0.5
				c-0.5,0-1.1,0-1.6-0.1c-0.5-0.1-1-0.2-1.5-0.4c-0.4-0.2-0.8-0.4-1.2-0.7c-0.4-0.3-0.7-0.6-1-1.1c-0.4-0.6-0.6-1.2-0.8-1.9
				c-0.2-0.7-0.2-1.4-0.2-2.1c0-0.7,0.1-1.4,0.4-2c0.2-0.6,0.5-1.2,0.9-1.7c0.3-0.4,0.6-0.7,1-0.9c0.4-0.2,0.8-0.4,1.2-0.6
				c0.4-0.1,0.7-0.2,1.1-0.3s0.8-0.1,1.2-0.1c0.5,0,1,0,1.4,0.1s0.9,0.3,1.3,0.5c0.4,0.2,0.7,0.5,1,0.8c0.3,0.3,0.6,0.7,0.8,1.1
				c0.3,0.5,0.5,1.1,0.6,1.7C97.3,99.8,97.4,100.4,97.4,101.1z M94.7,100.6c0-0.5-0.1-1-0.2-1.5c-0.1-0.5-0.2-0.9-0.4-1.4
				c-0.1-0.2-0.2-0.4-0.4-0.6c-0.2-0.2-0.4-0.3-0.6-0.4c-0.2-0.1-0.4-0.2-0.7-0.2c-0.2,0-0.5-0.1-0.7-0.1c-0.5,0-0.9,0.1-1.3,0.3
				s-0.7,0.5-1,0.9c-0.3,0.5-0.5,1-0.6,1.6c-0.1,0.6-0.1,1.2-0.1,1.7c0,0.2,0,0.5,0,0.8c0,0.3,0.1,0.6,0.1,0.9
				c0.1,0.3,0.1,0.6,0.2,0.9c0.1,0.3,0.2,0.5,0.4,0.7c0.1,0.2,0.3,0.4,0.5,0.5c0.2,0.1,0.4,0.3,0.6,0.4s0.5,0.1,0.7,0.2s0.5,0,0.7,0
				c0.3,0,0.5-0.1,0.7-0.2c0.2-0.1,0.5-0.2,0.7-0.4c0.2-0.2,0.4-0.3,0.5-0.6c0.2-0.2,0.3-0.5,0.3-0.8c0.1-0.4,0.2-0.9,0.3-1.4
				C94.7,101.6,94.8,101.1,94.7,100.6z"/>
		</g>
	</g>
	<g>
		<path class="st4" d="M35.7,62.8V40.1c0-1.6,1.3-3,3-3l18.1-3.6c1.6,0,3,1.3,3,3v18.8"/>
		<line class="st4" x1="35.8" y1="45.7" x2="59.6" y2="40.9"/>
		<circle class="st4" cx="29.6" cy="63.8" r="6.4"/>
		<circle class="st4" cx="53.5" cy="57.7" r="6.4"/>
	</g>
</g>
</svg>
