<?xml version="1.0" encoding="utf-8"?>
<!-- Generator: Adobe Illustrator 24.0.1, SVG Export Plug-In . SVG Version: 6.00 Build 0)  -->
<svg version="1.1" id="圖層_1_拷貝_5" xmlns="http://www.w3.org/2000/svg" xmlns:xlink="http://www.w3.org/1999/xlink" x="0px"
	 y="0px" viewBox="0 0 171.8 181.7" style="enable-background:new 0 0 171.8 181.7;" xml:space="preserve">
<style type="text/css">
	.st0{fill:#009E9B;}
	.st1{fill:none;stroke:#FFFFFF;stroke-miterlimit:10;}
	.st2{enable-background:new    ;}
	.st3{fill:#FFFFFF;}
	.st4{fill:none;stroke:#FFFFFF;stroke-width:1.4;stroke-linecap:round;stroke-linejoin:round;stroke-miterlimit:10;}
</style>
<g id="圖層_1_拷貝_3">
	<g>
		<path class="st0" d="M169.9,70.1c0-37-37.6-67-84-67c-46.4,0-84,30-84,67c0,29.3,23.6,54.2,56.4,63.3l27.6,45.2l27.7-45.2
			C146.3,124.3,169.9,99.4,169.9,70.1z"/>
		<path class="st1" d="M160.1,70.5c0-32.7-33.2-59.2-74.2-59.2S11.6,37.8,11.6,70.5c0,25.9,20.8,47.8,49.8,55.9l24.4,40l24.4-39.9
			C139.3,118.4,160.1,96.4,160.1,70.5z"/>
		<g class="st2">
			<path class="st3" d="M75.6,46.5c-1.5,0.6-4.4,0.6-5.9,0c-1.7-0.7-2.8-2.2-2.8-4.1v-9.9h1.8v9.9c0,1.3,0.8,2.5,2,3
				c1.1,0.4,2.9,0.4,4-0.1c1.5-0.7,1.9-1.9,1.9-3.5v-9.2h1.8v10C78.4,44.3,77.2,45.9,75.6,46.5z"/>
			<path class="st3" d="M92.2,46.8V36.7l-4.4,10.1h-1.5l-4.4-10v10h-1.7V32.5H82l5.1,11.7l5.1-11.7H94v14.3H92.2z"/>
			<path class="st3" d="M107.2,46.8l-1.8-4.2H99l-1.8,4.2h-2l5.9-14.3h1.9l6.2,14.3H107.2z M102.2,35.1l-2.6,6.1h5.2L102.2,35.1z"/>
			<path class="st3" d="M122.6,46.8V36.7l-4.4,10.1h-1.5l-4.4-10v10h-1.7V32.5h1.8l5.1,11.7l5.1-11.7h1.8v14.3H122.6z"/>
			<path class="st3" d="M127.1,46.8V32.5h1.8v14.3H127.1z"/>
			<path class="st3" d="M82.4,60.8c-0.4-0.4-1-1.1-1.4-1.6v1.1h-4.1V63h6.9v1.4h-6.9v6h7.8v1.4H67.2v-1.4H75v-6h-6.9V63H75v-2.7
				h-4.2v-1.1c-0.4,0.5-1.1,1.3-1.4,1.5H67c1.8-1.6,3.2-3.5,4.5-5.3c0.2-0.4,0.5-0.6,0.9-0.7c0.3-0.1,0.6-0.2,1-0.2h5
				c0.5,0,1,0.2,1.3,0.4c0.3,0.2,0.5,0.5,0.7,0.8c1.2,1.8,2.8,3.5,4.4,5.1H82.4z M71.1,69.5c-0.7-1.4-1.2-2.8-1.7-4.3h1.9
				c0.5,1.5,1.1,2.9,1.8,4.3H71.1z M78.7,56.3c-0.1-0.2-0.4-0.3-0.7-0.3h-4.4c-0.3,0-0.5,0.1-0.6,0.3c-0.5,0.7-1.3,1.9-2,2.7h9.6
				C80.1,58.2,79.2,57,78.7,56.3z M80.8,69.5h-2.1c0.9-1.3,1.4-2.8,1.8-4.3h1.8C81.9,66.7,81.4,68.1,80.8,69.5z"/>
			<path class="st3" d="M104.2,71.7H89.9c-0.4,0-0.9-0.2-1.2-0.6c-0.3-0.3-0.5-0.8-0.5-1.4V61c0-0.3,0.2-0.7,0.4-1h-1.5
				c1.8-1.4,3.6-3.6,4.8-5.7h2.1c-0.2,0.3-0.6,1-0.8,1.4H98c0.4,0,0.7,0.2,0.9,0.4c0.2,0.3,0.3,0.7,0.1,1.1c-0.3,0.6-1,1.7-1.4,2.2
				h4.7c0.5,0,1,0.2,1.3,0.6c0.2,0.3,0.4,0.8,0.4,1.2v3.3c0,0.5-0.2,1-0.5,1.3c-0.4,0.3-0.9,0.5-1.5,0.5H90.1v3.5
				c0,0.4,0.3,0.7,0.6,0.7h14.1L104.2,71.7z M95.2,60.7h-4.7c-0.2,0-0.4,0.2-0.4,0.5v3.6h5.1V60.7z M96.6,57.1h-4.3
				c-0.5,0.7-1.4,1.7-1.8,2.2h4.9c0.4-0.5,1-1.4,1.3-1.9C96.8,57.3,96.7,57.1,96.6,57.1z M102.2,61.2c0-0.3-0.2-0.5-0.5-0.5h-4.6
				v4.1h4.6c0.3,0,0.6-0.3,0.6-0.6V61.2z"/>
			<path class="st3" d="M107.3,71.8v-1.4h17.5v1.4H107.3z M107.7,56v-1.4h16.5V56H107.7z M108.1,63.2v-1.4h15.6v1.4H108.1z"/>
			<path class="st3" d="M130.5,64h-3.3c1.6-0.9,3.5-2,4.7-3.2h2.5C133.5,61.7,131.8,63.2,130.5,64z M140.2,71.8
				c-1.4-0.5-2.8-1.2-4.1-1.8c-1.1,0.5-2.6,1.2-4,1.8h-4.9c2.6-0.9,4.9-1.7,7.1-2.7c-1-0.6-2-1.2-2.9-1.9c-0.3,0.2-0.7,0.5-1,0.7
				h-3.1c2-1.2,4.3-2.8,5.7-4.8h2.2c-0.2,0.3-0.6,0.8-0.9,1.2h6.4c0.6,0,1.1,0.4,1.2,0.8c0.2,0.4,0.1,0.9-0.3,1.3
				c-0.9,0.9-2.5,2-3.7,2.7c2.2,1,4.6,1.9,6.9,2.8H140.2z M132.4,60.3c-0.3-0.3-0.7-0.8-0.9-1.1c-0.4,0.5-1.1,1.1-1.4,1.5h-2.5
				c1.2-0.9,2.5-2.2,3.1-3.3h2.1c-0.1,0.2-0.5,0.7-0.7,1h1c0.5,0.6,1.3,1.4,1.9,1.9H132.4z M136.8,57v5.7H135V57H128v-1.4h7.1v-1.3
				h1.8v1.3h7.1V57H136.8z M139.7,65.6h-6.5c-0.4,0.5-1,1-1.5,1.4h2.5c0.6,0.4,1.3,0.8,2,1.1c1.2-0.6,2.4-1.4,3.5-2.3
				C139.8,65.7,139.7,65.6,139.7,65.6z M142.1,60.7c-0.5-0.5-1.2-1.3-1.6-1.9c-0.4,0.5-0.8,1-1.2,1.5H137c0.8-0.8,1.8-2,2.3-2.8h2
				c-0.2,0.3-0.4,0.7-0.6,1h1.8c0.4,0.7,1.4,1.7,2.1,2.3H142.1z M141.7,64c-1.3-0.8-3-2.2-3.9-3.2h2.4c1,1,3.3,2.5,4.6,3.2H141.7z"
				/>
		</g>
		<g>
			<path class="st3" d="M104,101.9c0,10-8.1,18.2-18.2,18.2s-18.2-8.1-18.2-18.2s8.1-18.2,18.2-18.2S104,91.8,104,101.9"/>
			<g class="st2">
				<path class="st0" d="M81.5,98.9c0-0.2,0-0.4-0.1-0.6c0-0.2-0.1-0.4-0.2-0.6c-0.2-0.5-0.5-0.9-0.9-1.1c-0.3-0.1-0.6-0.2-1-0.2
					c-0.4,0-0.7,0.1-1,0.3c-0.4,0.2-0.7,0.4-0.9,0.7c-0.3,0.3-0.5,0.6-0.6,1c-0.2,0.4-0.3,0.8-0.4,1.2c-0.1,0.4-0.1,0.9-0.1,1.3
					c0,0.5,0.1,1.1,0.1,1.6c0.1,0.5,0.2,1,0.5,1.4c0.2,0.3,0.4,0.6,0.7,0.8c0.3,0.2,0.6,0.4,1,0.5c0.3,0.1,0.7,0.1,1,0.1
					c0.3,0,0.7-0.1,1-0.2c0.2-0.1,0.4-0.2,0.6-0.4c0.2-0.2,0.5-0.4,0.7-0.7v-1.5c0-0.1,0-0.1-0.1-0.2c-0.1-0.1-0.1-0.1-0.2-0.1h-2.3
					v-1.4h3.9c0.2,0,0.4,0.1,0.5,0.2c0.2,0.1,0.3,0.2,0.4,0.4c0.1,0.2,0.2,0.5,0.2,0.7v4.5h-2.5v-1c-0.4,0.4-0.9,0.7-1.4,0.9
					s-1.1,0.3-1.6,0.3c-0.5,0-1-0.1-1.5-0.2c-0.5-0.1-0.9-0.3-1.4-0.6c-0.4-0.2-0.8-0.5-1.1-0.9c-0.3-0.3-0.6-0.7-0.7-1.1
					c-0.2-0.6-0.4-1.2-0.5-1.9s-0.1-1.4,0-2.1c0.1-0.6,0.2-1.2,0.4-1.7c0.2-0.5,0.5-1,0.9-1.5c0.4-0.5,0.9-0.8,1.4-1.1
					c0.5-0.3,1.1-0.5,1.7-0.6c0.6-0.1,1.2-0.1,1.8-0.1c0.6,0.1,1.2,0.2,1.8,0.4c0.3,0.1,0.6,0.3,0.9,0.5c0.3,0.2,0.6,0.5,0.8,0.7
					c0.2,0.3,0.5,0.6,0.6,1.1c0.2,0.4,0.3,0.9,0.4,1.2H81.5z"/>
			</g>
			<g class="st2">
				<path class="st0" d="M97.4,101.1c0,0.7-0.1,1.4-0.3,2.1c-0.2,0.7-0.5,1.3-1,1.8c-0.5,0.6-1,1-1.7,1.3c-0.6,0.3-1.3,0.4-2,0.5
					c-0.5,0-1.1,0-1.6-0.1c-0.5-0.1-1-0.2-1.5-0.4c-0.4-0.2-0.8-0.4-1.2-0.7c-0.4-0.3-0.7-0.6-1-1.1c-0.4-0.6-0.6-1.2-0.8-1.9
					c-0.2-0.7-0.2-1.4-0.2-2.1c0-0.7,0.1-1.4,0.4-2c0.2-0.6,0.5-1.2,0.9-1.7c0.3-0.4,0.6-0.7,1-0.9s0.8-0.4,1.2-0.6
					c0.4-0.1,0.7-0.2,1.1-0.3s0.8-0.1,1.2-0.1c0.5,0,1,0,1.4,0.1c0.5,0.1,0.9,0.3,1.3,0.5c0.4,0.2,0.7,0.5,1,0.8
					c0.3,0.3,0.6,0.7,0.8,1.1c0.3,0.5,0.5,1.1,0.6,1.7C97.3,99.8,97.4,100.4,97.4,101.1z M94.7,100.6c0-0.5-0.1-1-0.2-1.5
					c-0.1-0.5-0.2-0.9-0.4-1.4c-0.1-0.2-0.2-0.4-0.4-0.6c-0.2-0.2-0.4-0.3-0.6-0.4c-0.2-0.1-0.4-0.2-0.7-0.2c-0.2,0-0.5-0.1-0.7-0.1
					c-0.5,0-0.9,0.1-1.3,0.3s-0.7,0.5-0.9,0.9c-0.3,0.5-0.5,1-0.6,1.6c-0.1,0.6-0.1,1.2-0.1,1.7c0,0.2,0,0.5,0,0.8
					c0,0.3,0.1,0.6,0.1,0.9c0.1,0.3,0.1,0.6,0.2,0.9c0.1,0.3,0.2,0.5,0.4,0.7s0.3,0.4,0.5,0.5c0.2,0.1,0.4,0.3,0.6,0.4
					s0.5,0.1,0.7,0.2c0.2,0,0.5,0,0.7,0c0.3,0,0.5-0.1,0.7-0.2c0.2-0.1,0.5-0.2,0.7-0.4c0.2-0.2,0.4-0.3,0.5-0.6
					c0.2-0.2,0.3-0.5,0.3-0.8c0.1-0.4,0.2-0.9,0.3-1.4C94.7,101.6,94.8,101.1,94.7,100.6z"/>
			</g>
		</g>
		<g>
			<path class="st4" d="M33.7,46.4c-0.2,0.3-0.2,0.7-0.2,1.1v21.3c0,1.6,1.3,2.8,2.8,2.8h14.5c1.6,0,2.8-1.3,2.8-2.8V47.5
				c0-1.6-1.3-2.8-2.8-2.8h-0.2"/>
			<line class="st4" x1="40.3" y1="44.7" x2="37.1" y2="44.7"/>
			<path class="st4" d="M53.8,47.3h1.5c1.6,0,2.8,1.3,2.8,2.8v8.7c0,1.6-1.3,2.8-2.8,2.8h-1.5"/>
			<path class="st4" d="M50,38.6c-0.5-1.4-1.9-2.5-3.5-2.5c-0.8,0-1.6,0.3-2.2,0.8c-0.7-0.7-1.7-1.2-2.8-1.2c-2.1,0-3.9,1.7-3.9,3.8
				c-0.7-0.8-1.7-1.3-2.8-1.3c-2.1,0-3.8,1.7-3.8,3.8c0,1.7,1.1,3,2.5,3.6v7c0,1,0.8,1.8,1.8,1.8c1,0,1.8-0.8,1.8-1.8v-7.2
				c0-0.1,0-0.2,0-0.3c0.8-0.6,1.3-1.6,1.5-2.6h0.4c0.4,0.4,0.9,0.7,1.5,0.8c0,0.2,0,0.4,0,0.5c0,2.4,1.9,4.3,4.3,4.3
				c2,0,3.6-1.3,4.1-3.1c0.4,0.2,0.8,0.2,1.2,0.2c1.9,0,3.4-1.5,3.4-3.4C53.3,40.1,51.8,38.6,50,38.6z"/>
			<line class="st4" x1="40.3" y1="54" x2="40.3" y2="64.3"/>
			<line class="st4" x1="44.5" y1="54" x2="44.5" y2="64.3"/>
			<line class="st4" x1="48.5" y1="54" x2="48.5" y2="64.3"/>
		</g>
	</g>
</g>
</svg>
