<?xml version="1.0" encoding="utf-8"?>
<!-- Generator: Adobe Illustrator 24.0.1, SVG Export Plug-In . SVG Version: 6.00 Build 0)  -->
<svg version="1.1" id="圖層_1_拷貝_5" xmlns="http://www.w3.org/2000/svg" xmlns:xlink="http://www.w3.org/1999/xlink" x="0px"
	 y="0px" viewBox="0 0 171.8 181.7" style="enable-background:new 0 0 171.8 181.7;" xml:space="preserve">
<style type="text/css">
	.st0{fill:#009E9B;}
	.st1{fill:none;stroke:#FFFFFF;stroke-miterlimit:10;}
	.st2{enable-background:new    ;}
	.st3{fill:#FFFFFF;}
	.st4{fill:none;stroke:#FFFFFF;stroke-width:1.4;stroke-linecap:round;stroke-linejoin:round;stroke-miterlimit:10;}
</style>
<g id="圖層_1_拷貝_2">
	<g>
		<path class="st0" d="M169.9,70.1c0-37-37.6-67-84-67c-46.4,0-84,30-84,67c0,29.3,23.6,54.2,56.4,63.3l27.6,45.2l27.7-45.2
			C146.3,124.3,169.9,99.4,169.9,70.1z"/>
		<path class="st1" d="M160.1,70.5c0-32.7-33.2-59.2-74.2-59.2S11.6,37.8,11.6,70.5c0,25.9,20.8,47.8,49.8,55.9l24.4,40l24.4-39.9
			C139.3,118.4,160.1,96.4,160.1,70.5z"/>
		<g class="st2">
			<path class="st3" d="M73.9,47.7h-2.6c1.6-1.6,2.9-3.3,3.9-5.1h2.2C76.5,44.3,75.4,46.1,73.9,47.7z M71.7,34.2v-1.4h7.6
				c-0.3-0.5-0.6-1.2-0.8-1.8h2.2c0.2,0.6,0.5,1.3,0.9,1.8h7.1v1.4H71.7z M87,41.1c-0.4,0.3-0.9,0.5-1.6,0.5h-4.3v5.1
				c0,0.6-0.2,1.1-0.5,1.4c-0.3,0.3-0.8,0.4-1.4,0.4h-2.8l-0.6-1.4h3c0.2,0,0.5-0.3,0.5-0.5v-4.9h-4.5c-0.7,0-1.2-0.2-1.5-0.6
				c-0.3-0.3-0.4-0.8-0.4-1.5v-1.9c0-0.6,0.2-1.1,0.5-1.4c0.4-0.3,0.9-0.5,1.6-0.5h10.6c0.7,0,1.2,0.2,1.6,0.5
				c0.3,0.4,0.5,0.9,0.5,1.6v1.7C87.5,40.2,87.4,40.7,87,41.1z M85.6,37.6c0-0.3-0.2-0.5-0.5-0.5h-9.9c-0.2,0-0.5,0.2-0.5,0.5v2.1
				c0,0.3,0.2,0.5,0.5,0.5h9.9c0.3,0,0.5-0.2,0.5-0.5V37.6z M86.7,47.7c-1.4-1.5-2.7-3.3-3.6-5.1h2.2c1,1.8,2.4,3.6,4,5.1H86.7z"/>
			<path class="st3" d="M108.5,42.3h-1.7c-0.3,0-0.7-0.1-0.9-0.2c-0.3-0.1-0.5-0.3-0.7-0.6c-0.2-0.3-0.6-1-0.8-1.4
				c-0.7,0.7-1.7,1.5-2.3,2h-3c1.6-0.9,3.2-2.1,4.5-3.6c-0.7-1.5-1.3-3.1-1.9-4.6h-6.9c-0.3,0-0.5,0.2-0.5,0.5v1.2h5.2
				c0.5,0,0.9,0.2,1.2,0.5c0.3,0.3,0.5,0.7,0.5,1.1v1.9c0,0.4-0.2,0.8-0.5,1.1c-0.3,0.3-0.8,0.5-1.2,0.5h-3.2l-0.6-1.3h3.1
				c0.3,0,0.6-0.3,0.6-0.6v-1.4c0-0.3-0.2-0.5-0.5-0.5h-4.6c0,1.9-0.2,3.8-0.8,5.4h-2c0.7-1.5,0.9-3.4,1-5.2v-3
				c0-0.5,0.2-0.9,0.5-1.2c0.4-0.3,0.8-0.4,1.3-0.4h6.8c-0.1-0.4-0.3-1-0.5-1.5h1.8c0.1,0.4,0.3,1.1,0.5,1.5h1.7
				c-0.2-0.4-0.4-0.8-0.5-1.2h1.9c0.1,0.4,0.3,0.8,0.5,1.2h2v1.4h-5.1c0.3,1.1,0.8,2.2,1.3,3.2c0.6-0.7,1.1-1.5,1.6-2.4h2.1
				c-0.8,1.4-1.7,2.8-2.8,4.1c0.3,0.7,0.6,1.2,1,1.8c0.1,0.2,0.4,0.3,0.6,0.3h1.8L108.5,42.3z M91.5,48.4v-1.3h1v-2.7
				c0-0.5,0.2-1,0.6-1.3c0.3-0.3,0.7-0.4,1.2-0.4h12.2c0.5,0,1,0.3,1.3,0.7c0.2,0.3,0.4,0.7,0.4,1.1v2.5h0.9v1.3H91.5z M97,44.1
				h-2.3c-0.3,0-0.5,0.2-0.5,0.5v2.5H97V44.1z M101.7,44.1h-3v3h3V44.1z M106.4,44.5c0-0.3-0.2-0.5-0.5-0.5h-2.4v3h2.9V44.5z"/>
			<path class="st3" d="M121.1,42.1v4.8c0,0.5-0.2,0.9-0.6,1.2c-0.3,0.3-0.7,0.4-1.2,0.4h-2.1l-0.7-1.4h2.3c0.3,0,0.5-0.2,0.5-0.6
				v-4.5h-7.9v-1.4h7.9v-3h-5.1v-1.4h11.9v1.4h-5v3h7.8v1.4H121.1z M126.7,37.2v-2.5c0-0.2-0.2-0.5-0.5-0.5H114
				c-0.2,0-0.5,0.2-0.5,0.5v2.5h-1.8v-2.5c0-0.6,0.2-1.1,0.6-1.4c0.3-0.3,0.8-0.5,1.5-0.5h5.7c-0.3-0.4-0.8-1.3-1-1.9h2.1
				c0.2,0.6,0.8,1.4,1.1,1.9h5.2c0.5,0,0.9,0.2,1.3,0.5c0.3,0.3,0.5,0.8,0.5,1.2v2.6H126.7z"/>
		</g>
		<g class="st2">
			<path class="st3" d="M75.6,54.9v13.9c0,0.5-0.1,0.9-0.4,1.2c-0.3,0.4-0.7,0.6-1.3,0.6H72l-0.5-1.4h1.8c0.3,0,0.5-0.2,0.5-0.4
				V54.9h-2.2v-1.4h6.1v1.4H75.6z M79.9,70.5h-2.5c1.2-1,2.2-2.2,2.9-3.3h2.1C81.9,68.1,80.8,69.6,79.9,70.5z M84.7,54.7
				c-0.2,0.6-0.4,1.5-0.5,2h2.1c0.6,0,1,0.2,1.4,0.5c0.3,0.3,0.5,0.8,0.5,1.3v6.2c0,0.5-0.2,0.9-0.5,1.2c-0.3,0.4-0.8,0.6-1.4,0.6
				h-5.9c-0.6,0-1-0.3-1.3-0.6c-0.3-0.3-0.4-0.8-0.4-1.1v-6.5c0-0.4,0.2-0.8,0.5-1.1c0.3-0.3,0.7-0.5,1.2-0.5h1.8
				c0.2-0.5,0.5-1.5,0.5-2h-4.5v-1.3h10.3v1.3H84.7z M86.4,58.6c0-0.3-0.3-0.6-0.6-0.6h-4.9c-0.2,0-0.5,0.2-0.5,0.5v0.9h6V58.6z
				 M86.4,60.8h-6v1.5h6V60.8z M86.4,63.7h-6v1c0,0.3,0.2,0.5,0.5,0.5h5c0.3,0,0.5-0.2,0.5-0.6V63.7z M86.7,70.5
				c-0.9-0.9-2.1-2.5-2.6-3.3h2.1c0.7,1,1.8,2.3,3,3.3H86.7z"/>
			<path class="st3" d="M93.1,70.6h-1.7c0.5-1.7,0.7-3.6,0.8-5.5h1.6C93.7,66.9,93.5,68.8,93.1,70.6z M93.8,62.6h2.9
				c-0.2-0.6-0.4-1.4-0.6-2H98c0.3,1.2,0.7,2.4,1.2,3.5h-1.9c-0.2-0.4-0.4-0.9-0.4-1.2l-0.6,1.2h-3.7c-0.5,0-0.8-0.3-0.9-0.7
				c-0.1-0.3,0-0.7,0.3-1l2.8-3.3h-2.1c-0.5,0-0.9-0.2-1-0.6c-0.2-0.4-0.1-0.9,0.3-1.5l3.2-3.9h2.1l-3.7,4.5h2.4l1.2-1.4h2.1
				L93.8,62.6z M94.9,70.6c-0.3-1.8-0.5-3.7-0.6-5.5h1.6c0.1,1.9,0.3,3.7,0.6,5.5H94.9z M97.1,69.2c-0.3-1.4-0.5-2.8-0.6-4.2h1.6
				c0.2,1.4,0.3,2.9,0.7,4.2H97.1z M106.6,70.6c-0.6-0.6-1.3-1.4-1.8-2.1c-0.6,0.7-1.2,1.5-2,2.1h-2.4c1.3-0.9,2.4-2.3,3.4-3.5
				c-0.8-1.1-1.4-2.3-2-3.4c-0.3,2.4-0.6,4.7-1.6,6.8h-1.9c1.6-3.1,1.9-6.4,1.9-9.6v-6h-1.4v-1.4h7.2c0.5,0,0.9,0.2,1.2,0.5
				c0.2,0.3,0.3,0.7,0.1,1.2c-0.3,1.1-0.8,2.6-1.3,3.9h0.7c0.7,0,1.2,0.2,1.5,0.6c0.3,0.4,0.4,0.9,0.2,1.5c-0.5,2.1-1.4,4-2.6,5.8
				c0.9,1.2,2.1,2.4,3.4,3.5H106.6z M106.5,60.7h-1.4c-0.3,0-0.6-0.2-0.8-0.4c-0.2-0.3-0.3-0.6-0.2-1c0.5-1.3,1-3,1.3-4.1
				c0-0.1-0.1-0.3-0.3-0.3H102v5.4c0.6,1.6,1.8,3.9,2.8,5.3c1-1.5,1.6-3,2-4.7C106.8,60.9,106.7,60.7,106.5,60.7z"/>
			<path class="st3" d="M126.4,62.7c-1-0.9-2.1-2.1-3-3.1c-0.1-0.1-0.3-0.2-0.5-0.2h-5.4c-0.2,0-0.4,0.1-0.5,0.2
				c-0.8,0.9-2,2.1-3.1,3h-2.8c1.6-1.1,3.3-2.7,4.5-4.1c0.1-0.2,0.3-0.3,0.5-0.4c0.2-0.1,0.5-0.2,0.7-0.2h6.6c0.3,0,0.5,0.1,0.7,0.2
				c0.2,0.1,0.4,0.3,0.6,0.5c1,1.2,2.7,2.8,4.2,4H126.4z M124.3,56v1.5h-1.8V56h-4.7v1.5H116V56h-4.5v-1.4h4.5V53h1.8v1.6h4.7V53
				h1.8v1.6h4.5V56H124.3z M114.2,69.8h-2.5c1.6-1.5,3-3.2,4.1-5h2.1C116.9,66.4,115.6,68.3,114.2,69.8z M121.1,63.9v6.6h-1.8v-6.6
				h-4.8v-1.4h4.8v-2.2h1.9v2.2h4.8v1.4H121.1z M126.3,69.8c-1.4-1.6-2.7-3.3-3.8-5h2.2c1.1,1.8,2.7,3.5,4.3,5H126.3z"/>
			<path class="st3" d="M138.9,70c-0.3,0.3-0.7,0.4-1.2,0.4h-4.5c-0.4,0-0.8-0.1-1-0.4c-0.3-0.3-0.5-0.7-0.5-1.1v-5.7
				c0-0.5,0.2-0.9,0.6-1.1c0.3-0.2,0.7-0.4,1.1-0.4h4.4c0.4,0,0.8,0.2,1.1,0.4c0.3,0.3,0.4,0.7,0.4,1.2V69
				C139.3,69.4,139.1,69.8,138.9,70z M146.6,59.9c-0.3,0.3-0.7,0.5-1.3,0.5h-10.4c-0.4,0-0.8-0.2-1.1-0.4c-0.3-0.3-0.5-0.7-0.5-1.2
				v-3.9c0-0.5,0.2-0.9,0.5-1.2c0.3-0.3,0.7-0.4,1.2-0.4h10.3c0.6,0,1,0.2,1.3,0.5c0.3,0.3,0.4,0.7,0.4,1.2v3.8
				C147,59.2,146.8,59.6,146.6,59.9z M137.5,63.7c0-0.4-0.2-0.6-0.5-0.6h-3c-0.3,0-0.5,0.2-0.5,0.6v4.8c0,0.3,0.3,0.5,0.5,0.5h3
				c0.3,0,0.6-0.2,0.6-0.5V63.7z M145.2,55.1c0-0.3-0.2-0.6-0.5-0.6h-9c-0.3,0-0.5,0.2-0.5,0.6v3.3c0,0.3,0.2,0.5,0.5,0.5h9
				c0.3,0,0.5-0.2,0.5-0.5V55.1z M148.1,70c-0.3,0.3-0.8,0.4-1.3,0.4h-4.2c-0.5,0-0.8-0.2-1.1-0.5c-0.3-0.3-0.4-0.7-0.4-1.2v-5.5
				c0-0.4,0.2-0.8,0.4-1.1c0.3-0.3,0.7-0.4,1-0.4h4.3c0.5,0,1,0.2,1.3,0.5c0.2,0.3,0.3,0.7,0.3,1.2v5.5
				C148.5,69.4,148.4,69.8,148.1,70z M146.8,63.6c0-0.3-0.1-0.5-0.4-0.5h-3.1c-0.3,0-0.5,0.3-0.5,0.5v4.9c0,0.3,0.2,0.5,0.5,0.5h3.1
				c0.3,0,0.4-0.2,0.4-0.5V63.6z"/>
		</g>
		<g>
			<path class="st4" d="M63.3,69.1c0,1.6-1.3,2.8-2.8,2.8h-14c-1.6,0-2.8-1.3-2.8-2.8V32.6c0-1.6,1.3-2.8,2.8-2.8h14
				c1.6,0,2.8,1.3,2.8,2.8C63.3,32.6,63.3,69.1,63.3,69.1z"/>
			<line class="st4" x1="43.6" y1="41.3" x2="63.3" y2="41.3"/>
			<path class="st4" d="M53.6,48.7c0,0-6.6,5.1,0,12C53.6,60.7,59.5,54.5,53.6,48.7z"/>
			<path class="st4" d="M53.9,48.7c0,0-2.1,7.2,0,15.2"/>
		</g>
		<g>
			<path class="st3" d="M104,101.9c0,10-8.1,18.2-18.2,18.2s-18.2-8.1-18.2-18.2s8.1-18.2,18.2-18.2C95.9,83.7,104,91.8,104,101.9"
				/>
			<g class="st2">
				<path class="st0" d="M81.5,98.9c0-0.2,0-0.4-0.1-0.6c0-0.2-0.1-0.4-0.2-0.6c-0.2-0.5-0.5-0.9-0.9-1.1c-0.3-0.1-0.6-0.2-1-0.2
					c-0.4,0-0.7,0.1-1,0.3c-0.4,0.2-0.7,0.4-0.9,0.7c-0.3,0.3-0.5,0.6-0.6,1c-0.2,0.4-0.3,0.8-0.4,1.2c-0.1,0.4-0.1,0.9-0.1,1.3
					c0,0.5,0.1,1.1,0.1,1.6c0.1,0.5,0.2,1,0.5,1.4c0.2,0.3,0.4,0.6,0.7,0.8c0.3,0.2,0.6,0.4,1,0.5c0.3,0.1,0.7,0.1,1,0.1
					c0.3,0,0.7-0.1,1-0.2c0.2-0.1,0.4-0.2,0.6-0.4c0.2-0.2,0.5-0.4,0.7-0.7v-1.5c0-0.1,0-0.1-0.1-0.2c-0.1-0.1-0.1-0.1-0.2-0.1h-2.3
					v-1.4h3.9c0.2,0,0.4,0.1,0.5,0.2c0.2,0.1,0.3,0.2,0.4,0.4c0.1,0.2,0.2,0.5,0.2,0.7v4.5h-2.5v-1c-0.4,0.4-0.9,0.7-1.4,0.9
					s-1.1,0.3-1.6,0.3c-0.5,0-1-0.1-1.5-0.2c-0.5-0.1-0.9-0.3-1.4-0.6c-0.4-0.2-0.8-0.5-1.1-0.9c-0.3-0.3-0.6-0.7-0.7-1.1
					c-0.2-0.6-0.4-1.2-0.5-1.9s-0.1-1.4,0-2.1c0.1-0.6,0.2-1.2,0.4-1.7c0.2-0.5,0.5-1,0.9-1.5c0.4-0.5,0.9-0.8,1.4-1.1
					c0.5-0.3,1.1-0.5,1.7-0.6c0.6-0.1,1.2-0.1,1.8-0.1c0.6,0.1,1.2,0.2,1.8,0.4c0.3,0.1,0.6,0.3,0.9,0.5c0.3,0.2,0.6,0.5,0.8,0.7
					c0.2,0.3,0.5,0.6,0.6,1.1c0.2,0.4,0.3,0.9,0.4,1.2H81.5z"/>
			</g>
			<g class="st2">
				<path class="st0" d="M97.4,101.1c0,0.7-0.1,1.4-0.3,2.1c-0.2,0.7-0.5,1.3-1,1.8c-0.5,0.6-1,1-1.7,1.3c-0.6,0.3-1.3,0.4-2,0.5
					c-0.5,0-1.1,0-1.6-0.1c-0.5-0.1-1-0.2-1.5-0.4c-0.4-0.2-0.8-0.4-1.2-0.7c-0.4-0.3-0.7-0.6-1-1.1c-0.4-0.6-0.6-1.2-0.8-1.9
					c-0.2-0.7-0.2-1.4-0.2-2.1c0-0.7,0.1-1.4,0.4-2c0.2-0.6,0.5-1.2,0.9-1.7c0.3-0.4,0.6-0.7,1-0.9c0.4-0.2,0.8-0.4,1.2-0.6
					c0.4-0.1,0.7-0.2,1.1-0.3s0.8-0.1,1.2-0.1c0.5,0,1,0,1.4,0.1s0.9,0.3,1.3,0.5c0.4,0.2,0.7,0.5,1,0.8c0.3,0.3,0.6,0.7,0.8,1.1
					c0.3,0.5,0.5,1.1,0.6,1.7C97.3,99.8,97.4,100.4,97.4,101.1z M94.7,100.6c0-0.5-0.1-1-0.2-1.5c-0.1-0.5-0.2-0.9-0.4-1.4
					c-0.1-0.2-0.2-0.4-0.4-0.6c-0.2-0.2-0.4-0.3-0.6-0.4c-0.2-0.1-0.4-0.2-0.7-0.2c-0.2,0-0.5-0.1-0.7-0.1c-0.5,0-0.9,0.1-1.3,0.3
					s-0.7,0.5-1,0.9c-0.3,0.5-0.5,1-0.6,1.6c-0.1,0.6-0.1,1.2-0.1,1.7c0,0.2,0,0.5,0,0.8c0,0.3,0.1,0.6,0.1,0.9
					c0.1,0.3,0.1,0.6,0.2,0.9c0.1,0.3,0.2,0.5,0.4,0.7c0.1,0.2,0.3,0.4,0.5,0.5c0.2,0.1,0.4,0.3,0.6,0.4s0.5,0.1,0.7,0.2
					s0.5,0,0.7,0c0.3,0,0.5-0.1,0.7-0.2c0.2-0.1,0.5-0.2,0.7-0.4c0.2-0.2,0.4-0.3,0.5-0.6c0.2-0.2,0.3-0.5,0.3-0.8
					c0.1-0.4,0.2-0.9,0.3-1.4C94.7,101.6,94.8,101.1,94.7,100.6z"/>
			</g>
		</g>
	</g>
</g>
</svg>
