<?xml version="1.0" encoding="utf-8"?>
<!-- Generator: Adobe Illustrator 24.0.1, SVG Export Plug-In . SVG Version: 6.00 Build 0)  -->
<svg version="1.1" id="圖層_1_拷貝_5" xmlns="http://www.w3.org/2000/svg" xmlns:xlink="http://www.w3.org/1999/xlink" x="0px"
	 y="0px" viewBox="0 0 171.8 181.7" style="enable-background:new 0 0 171.8 181.7;" xml:space="preserve">
<style type="text/css">
	.st0{fill:#009E9B;}
	.st1{fill:none;stroke:#FFFFFF;stroke-miterlimit:10;}
	.st2{enable-background:new    ;}
	.st3{fill:#FFFFFF;}
	.st4{fill:none;stroke:#FFFFFF;stroke-width:1.4;stroke-linecap:round;stroke-linejoin:round;stroke-miterlimit:10;}
</style>
<g id="圖層_1_拷貝_4">
	<g>
		<path class="st0" d="M169.9,70.1c0-37-37.6-67-84-67c-46.4,0-84,30-84,67c0,29.3,23.6,54.2,56.4,63.3l27.6,45.2l27.7-45.2
			C146.3,124.3,169.9,99.4,169.9,70.1z"/>
		<path class="st1" d="M160.1,70.5c0-32.7-33.2-59.2-74.2-59.2S11.6,37.8,11.6,70.5c0,25.9,20.8,47.8,49.8,55.9l24.4,40l24.4-39.9
			C139.3,118.4,160.1,96.4,160.1,70.5z"/>
		<g class="st2">
			<path class="st3" d="M101.1,57.7H88.9c-0.4,0-0.9-0.2-1.3-0.5c-0.3-0.3-0.6-0.8-0.6-1.4v-3.5h-3c2.5-1.2,5.9-3.1,8.2-4.7h-7.9
				v-1.4h6.8v-2.7h-5.5v-1.4h5.5v-1.8H93v1.8h3.7v1.4H93v2.7H94c1.7-1.4,4-3.5,5.2-5.1h2.3c-1.5,1.9-3.6,3.9-5,5.1h5.2v1.4h-6.8
				c-1.5,1.2-4.3,3-6,4v0.9c3.4-0.3,8.9-1.6,12.1-2.7v1.5c-3.1,1.1-8.6,2.2-12.1,2.6v1.8c0,0.3,0.2,0.6,0.5,0.6h12.4L101.1,57.7z"/>
			<path class="st3" d="M108,47.2v10.4h-1.7V47.2h-2v-1.4h2v-5.5h1.7v5.5h1.7v1.4H108z M114.9,57.3c-0.3,0.3-0.7,0.4-1.1,0.4h-1.3
				l-0.6-1.3h1.2c0.2,0,0.5-0.2,0.5-0.5v-4c0-0.2-0.2-0.4-0.5-0.4h-0.7c-0.1,2.2-0.4,4.4-1.4,6.2h-2.2c1.3-1.8,1.8-3.9,1.8-6.2h-1.3
				v-1.4h1.4v-1.4h1.7v1.4h1.2c0.5,0,0.9,0.2,1.2,0.4c0.3,0.3,0.5,0.7,0.5,1.3v4.4C115.3,56.6,115.1,57,114.9,57.3z M120.2,47.7
				c-0.3,0.3-0.8,0.4-1.3,0.4h-2.5l-0.8-1.4h3c0.2,0,0.4-0.2,0.4-0.4v-2.6c0-0.3-0.2-0.5-0.4-0.5H115c-0.5,1.8-1.4,3.4-2.5,5h-2.4
				c1.4-1.4,2.4-3.2,3-5h-2.7v-1.4h3c0.1-0.5,0.2-1,0.3-1.4h1.8c-0.1,0.5-0.1,1-0.2,1.4h3.7c0.5,0,1,0.1,1.2,0.4
				c0.3,0.3,0.4,0.7,0.4,1.4v2.7C120.7,47,120.5,47.4,120.2,47.7z M121.2,57.3c-0.3,0.3-0.6,0.4-1.1,0.4h-1.3l-0.6-1.4h1.3
				c0.2,0,0.4-0.2,0.4-0.4v-3.9c0-0.3-0.2-0.5-0.5-0.5h-0.7c-0.1,2.3-0.4,4.4-1.4,6.3h-2c1.3-1.8,1.7-4,1.8-6.3h-1.3V50h1.3v-1.3
				h1.7V50h1.1c0.5,0,0.9,0.1,1.2,0.4c0.3,0.3,0.5,0.8,0.5,1.4v4.3C121.6,56.6,121.5,57,121.2,57.3z"/>
			<path class="st3" d="M124.3,56.9v-1.6c0.5-0.2,1.6-0.6,2.1-0.8v-5.8h-1.9v-1.4h1.9v-4.6h-2.2v-1.4h6.2v1.4h-2.2v4.6h1.8v1.4h-1.8
				v5.1c0.6-0.2,1.8-0.8,2.5-1.1v1.5C129.1,55,126.2,56.2,124.3,56.9z M139.4,46.8c-1.1-1.4-2.1-3-2.9-4.5c-0.1-0.2-0.4-0.4-0.6-0.4
				h-1c-0.2,0-0.5,0.2-0.5,0.3c-0.7,1.5-1.6,3.2-2.6,4.5h-2.5c1.5-1.6,2.6-3.5,3.5-5.4c0.1-0.3,0.4-0.5,0.7-0.7
				c0.2-0.1,0.5-0.2,0.8-0.2h2.3c0.4,0,0.7,0.1,1,0.3c0.2,0.2,0.4,0.4,0.6,0.7c0.9,1.7,2.3,3.8,3.7,5.3H139.4z M133.9,57.8h-3.8
				c3.5-1.7,7.1-4.2,9.3-7.6h2.2C140,53.1,136.9,56,133.9,57.8z M133.5,49.8h-3c1.7-1.1,3.6-2.7,4.9-4.5h2.3
				C136.6,47,135,48.6,133.5,49.8z M134.3,53.5h-3.1c2.2-1.5,4.6-3.3,6.1-5.6h2.3C138.4,49.9,136.2,52.1,134.3,53.5z"/>
		</g>
		<g>
			<path class="st3" d="M104,101.9c0,10-8.1,18.2-18.2,18.2s-18.2-8.1-18.2-18.2s8.1-18.2,18.2-18.2C95.9,83.7,104,91.8,104,101.9"
				/>
			<g class="st2">
				<path class="st0" d="M81.5,98.9c0-0.2,0-0.4-0.1-0.6c0-0.2-0.1-0.4-0.2-0.6c-0.2-0.5-0.5-0.9-0.9-1.1c-0.3-0.1-0.6-0.2-1-0.2
					c-0.4,0-0.7,0.1-1,0.3c-0.4,0.2-0.7,0.4-0.9,0.7c-0.3,0.3-0.5,0.6-0.6,1c-0.2,0.4-0.3,0.8-0.4,1.2c-0.1,0.4-0.1,0.9-0.1,1.3
					c0,0.5,0.1,1.1,0.1,1.6c0.1,0.5,0.2,1,0.5,1.4c0.2,0.3,0.4,0.6,0.7,0.8c0.3,0.2,0.6,0.4,1,0.5c0.3,0.1,0.7,0.1,1,0.1
					c0.3,0,0.7-0.1,1-0.2c0.2-0.1,0.4-0.2,0.6-0.4c0.2-0.2,0.5-0.4,0.7-0.7v-1.5c0-0.1,0-0.1-0.1-0.2c-0.1-0.1-0.1-0.1-0.2-0.1h-2.3
					v-1.4h3.9c0.2,0,0.4,0.1,0.5,0.2c0.2,0.1,0.3,0.2,0.4,0.4c0.1,0.2,0.2,0.5,0.2,0.7v4.5h-2.5v-1c-0.4,0.4-0.9,0.7-1.4,0.9
					s-1.1,0.3-1.6,0.3c-0.5,0-1-0.1-1.5-0.2c-0.5-0.1-0.9-0.3-1.4-0.6c-0.4-0.2-0.8-0.5-1.1-0.9c-0.3-0.3-0.6-0.7-0.7-1.1
					c-0.2-0.6-0.4-1.2-0.5-1.9s-0.1-1.4,0-2.1c0.1-0.6,0.2-1.2,0.4-1.7c0.2-0.5,0.5-1,0.9-1.5c0.4-0.5,0.9-0.8,1.4-1.1
					c0.5-0.3,1.1-0.5,1.7-0.6c0.6-0.1,1.2-0.1,1.8-0.1c0.6,0.1,1.2,0.2,1.8,0.4c0.3,0.1,0.6,0.3,0.9,0.5c0.3,0.2,0.6,0.5,0.8,0.7
					c0.2,0.3,0.5,0.6,0.6,1.1c0.2,0.4,0.3,0.9,0.4,1.2H81.5z"/>
			</g>
			<g class="st2">
				<path class="st0" d="M97.4,101.1c0,0.7-0.1,1.4-0.3,2.1c-0.2,0.7-0.5,1.3-1,1.8c-0.5,0.6-1,1-1.7,1.3c-0.6,0.3-1.3,0.4-2,0.5
					c-0.5,0-1.1,0-1.6-0.1c-0.5-0.1-1-0.2-1.5-0.4c-0.4-0.2-0.8-0.4-1.2-0.7c-0.4-0.3-0.7-0.6-1-1.1c-0.4-0.6-0.6-1.2-0.8-1.9
					c-0.2-0.7-0.2-1.4-0.2-2.1c0-0.7,0.1-1.4,0.4-2c0.2-0.6,0.5-1.2,0.9-1.7c0.3-0.4,0.6-0.7,1-0.9s0.8-0.4,1.2-0.6
					c0.4-0.1,0.7-0.2,1.1-0.3s0.8-0.1,1.2-0.1c0.5,0,1,0,1.4,0.1c0.5,0.1,0.9,0.3,1.3,0.5c0.4,0.2,0.7,0.5,1,0.8
					c0.3,0.3,0.6,0.7,0.8,1.1c0.3,0.5,0.5,1.1,0.6,1.7C97.3,99.8,97.4,100.4,97.4,101.1z M94.7,100.6c0-0.5-0.1-1-0.2-1.5
					c-0.1-0.5-0.2-0.9-0.4-1.4c-0.1-0.2-0.2-0.4-0.4-0.6c-0.2-0.2-0.4-0.3-0.6-0.4c-0.2-0.1-0.4-0.2-0.7-0.2c-0.2,0-0.5-0.1-0.7-0.1
					c-0.5,0-0.9,0.1-1.3,0.3s-0.7,0.5-0.9,0.9c-0.3,0.5-0.5,1-0.6,1.6c-0.1,0.6-0.1,1.2-0.1,1.7c0,0.2,0,0.5,0,0.8
					c0,0.3,0.1,0.6,0.1,0.9c0.1,0.3,0.1,0.6,0.2,0.9c0.1,0.3,0.2,0.5,0.4,0.7s0.3,0.4,0.5,0.5c0.2,0.1,0.4,0.3,0.6,0.4
					s0.5,0.1,0.7,0.2c0.2,0,0.5,0,0.7,0c0.3,0,0.5-0.1,0.7-0.2c0.2-0.1,0.5-0.2,0.7-0.4c0.2-0.2,0.4-0.3,0.5-0.6
					c0.2-0.2,0.3-0.5,0.3-0.8c0.1-0.4,0.2-0.9,0.3-1.4C94.7,101.6,94.8,101.1,94.7,100.6z"/>
			</g>
		</g>
		<g>
			<path class="st4" d="M72.2,39.4H42c-1.1,0-2-0.9-2-2v-3.1c0-1.1,0.9-2,2-2h30.2c1.1,0,2,0.9,2,2v3.1
				C74.2,38.5,73.3,39.4,72.2,39.4z"/>
			<g>
				<path class="st4" d="M42.8,39.5c0,0,2.4,1,1.6,4.3"/>
				<path class="st4" d="M70.6,39.5c0,0-2.4,1-1.6,4.3"/>
			</g>
			<line class="st4" x1="38.7" y1="49.3" x2="75.5" y2="49.3"/>
			<line class="st4" x1="38.7" y1="63.7" x2="75.5" y2="63.7"/>
			<g>
				<path class="st4" d="M72.8,68.5H41.4c-1.5,0-2.8-1.3-2.8-2.8V50c0-3.3,2.7-6,6-6h25.1c3.3,0,6,2.7,6,6v15.7
					C75.6,67.3,74.3,68.5,72.8,68.5z"/>
				<path class="st4" d="M62.3,56.2c0,2.9-2.3,5.2-5.2,5.2s-5.2-2.3-5.2-5.2s2.3-5.2,5.2-5.2S62.3,53.2,62.3,56.2z"/>
			</g>
		</g>
	</g>
</g>
</svg>
