<?xml version="1.0" encoding="utf-8"?>
<!-- Generator: Adobe Illustrator 24.0.1, SVG Export Plug-In . SVG Version: 6.00 Build 0)  -->
<svg version="1.1" id="圖層_1_拷貝_5" xmlns="http://www.w3.org/2000/svg" xmlns:xlink="http://www.w3.org/1999/xlink" x="0px"
	 y="0px" viewBox="0 0 171.8 181.7" style="enable-background:new 0 0 171.8 181.7;" xml:space="preserve">
<style type="text/css">
	.st0{fill:#009E9B;}
	.st1{fill:none;stroke:#FFFFFF;stroke-miterlimit:10;}
	.st2{enable-background:new    ;}
	.st3{fill:#FFFFFF;}
	.st4{fill:none;stroke:#FFFFFF;stroke-width:1.4;stroke-linecap:round;stroke-linejoin:round;stroke-miterlimit:10;}
</style>
<g id="圖層_1_拷貝">
	<g>
		<path class="st0" d="M169.9,70.1c0-37-37.6-67-84-67c-46.4,0-84,30-84,67c0,29.3,23.6,54.2,56.4,63.3l27.6,45.2l27.7-45.2
			C146.3,124.3,169.9,99.4,169.9,70.1z"/>
		<path class="st1" d="M161.1,70.5c0-32.7-33.2-59.2-74.2-59.2S12.6,37.8,12.6,70.5c0,25.9,20.8,47.8,49.8,55.9l24.4,40l24.4-39.9
			C140.3,118.4,161.1,96.4,161.1,70.5z"/>
		<g class="st2">
			<path class="st3" d="M81.6,40.6h0.7v7.9h-1.8v-6.9H79c1.3-1.9,1.9-3.6,2.6-5.7h1.8C82.9,37.6,82.3,39.1,81.6,40.6z M81.4,35.7
				h-2.2c1.1-1.4,1.9-3,2.6-4.6h1.9C83.1,32.6,82.4,34.2,81.4,35.7z M84.7,48.6h-2c1.4-2.4,1.8-5.2,1.6-8.2H86
				C86.1,43.2,86,46.2,84.7,48.6z M94.7,48.6c-0.5-0.8-0.8-1.5-1.2-2.3c-0.4,0.8-0.8,1.5-1.4,2.3H90c1.4-1.8,1.9-2.9,2.6-4.4
				c-0.6-1.6-1-3.3-1.5-5h1.7c0.2,0.8,0.4,1.7,0.7,2.4c0.5-1.9,0.7-3.8,0.8-5.8h-1.5c-0.2,0.8-0.6,2-0.8,2.7h-1.3v0.9h-7.5V38h7.2
				c0.8-2.2,1.3-4.6,1.6-7h1.7c-0.1,1-0.4,2.2-0.6,3.3h3.5v1.4H96c-0.3,2.9-0.6,5.7-1.6,8.3c0.6,1.6,1.4,3,2.3,4.5H94.7z M90,36.2
				c-0.3,0.3-0.6,0.4-1,0.4h-3.7c-0.4,0-0.7-0.1-1-0.4c-0.3-0.3-0.4-0.6-0.4-1V32h1.5v2.8c0,0.2,0.2,0.4,0.4,0.4h0.5V31h1.6v4.2h0.6
				c0.2,0,0.3-0.2,0.3-0.4V32h1.6v3.3C90.3,35.7,90.2,36,90,36.2z M89.3,47c-0.4,0.2-0.9,0.2-1.2,0c-0.3-0.2-0.5-0.5-0.5-1v-5.6h1.8
				v4.5c0,0.2,0.2,0.4,0.4,0.3l1.5-0.8v1.6L89.3,47z"/>
			<path class="st3" d="M102.7,48.5h-3.5c1.7-0.7,3.6-2,4.5-3.5c0.5-0.9,0.6-2.2,0.6-3.4h1.9C106,44.8,105.3,46.7,102.7,48.5z
				 M101.6,40.7c-0.5,0-0.8-0.2-1.1-0.5c-0.2-0.3-0.3-0.7-0.3-1.1v-5.5c0-0.4,0.1-0.7,0.3-0.9c0.2-0.2,0.5-0.4,0.8-0.5
				c0.8-0.2,2.2-0.5,3-0.8V33c-0.6,0.2-1.5,0.4-1.9,0.5c-0.2,0-0.3,0.2-0.3,0.4v4.8c0,0.3,0.2,0.6,0.5,0.6h1.8v1.4H101.6z
				 M110.5,40.3c-0.3,0.3-0.7,0.5-1.3,0.5h-2.8c-0.4,0-0.7-0.1-1-0.4c-0.3-0.3-0.5-0.7-0.5-1.1v-5.4c0-0.5,0.2-0.8,0.5-1.1
				c0.3-0.2,0.7-0.3,1-0.3h0.2c0.1-0.3,0.2-0.9,0.2-1.3h1.9c-0.1,0.4-0.2,1-0.3,1.3h0.7c0.5,0,0.9,0.2,1.2,0.5
				c0.3,0.3,0.4,0.7,0.4,1.1v5.2C110.9,39.6,110.8,40,110.5,40.3z M109.2,34.2c0-0.2-0.2-0.4-0.4-0.4h-1.6c-0.2,0-0.4,0.2-0.4,0.4
				v1.6h2.5V34.2z M109.2,37.2h-2.5v1.6c0,0.2,0.2,0.4,0.4,0.4h1.7c0.2,0,0.4-0.2,0.4-0.4V37.2z M116.3,48.5H111
				c-0.5,0-0.9-0.2-1.2-0.5c-0.3-0.3-0.5-0.8-0.5-1.4v-5.1h1.9v5c0,0.3,0.3,0.6,0.5,0.6h5.1L116.3,48.5z M115.4,40.2
				c-0.3,0.3-0.7,0.5-1.3,0.5h-2.5v-1.4h1.8c0.3,0,0.5-0.3,0.5-0.6v-4.9c0-0.3-0.2-0.5-0.5-0.5h-1.9v-1.4h2.6c0.4,0,0.9,0.2,1.2,0.5
				c0.2,0.3,0.4,0.6,0.4,1.1v5.7C115.7,39.6,115.6,40,115.4,40.2z"/>
		</g>
		<g class="st2">
			<path class="st3" d="M91.9,70.5c-1.9-0.9-3.8-1.8-5.5-3h-3.6v1.4c0,0.3,0.3,0.5,0.5,0.5h4.3L87,70.5h-4.7c-0.4,0-0.7-0.2-0.9-0.5
				c-0.3-0.3-0.4-0.7-0.4-1.1v-5.1h-2c1.4-0.7,2.7-2,3.9-3.2c0.2-0.2,0.4-0.3,0.7-0.4c0.2-0.1,0.5-0.1,0.8-0.1h6.8
				c0.3,0,0.5,0.1,0.7,0.2c0.3,0.1,0.5,0.3,0.7,0.5c1.1,1.1,2.6,2.2,4.1,3h-2.1c0.1,0.2,0.1,0.4,0.1,0.6V66c0,0.4-0.2,0.7-0.4,0.9h2
				c-1.2,0.8-2.4,1.6-3.6,2.2c1.3,0.6,2.8,1,4.2,1.4H91.9z M85,54.6v0.5h2.2c0.5,0,0.8,0.2,1,0.5c0.2,0.4,0.2,0.8-0.2,1.2
				c-1.3,1.3-2.9,2.2-4.6,3.1h-4.3c1.1-0.3,2.6-0.9,3.8-1.5c-0.3-0.4-0.9-1.1-1.2-1.7h2c0.1,0.3,0.4,0.7,0.6,0.9
				c0.7-0.4,1.4-1,2-1.5h-4.5c-0.2,0.5-0.7,1.3-0.9,1.7h-2c0.9-1.1,1.5-2.3,2-3.6h1.7c0,0.2-0.2,0.7-0.3,0.9h0.9V53H85v0.5h3.3v1.1
				H85z M92.8,64.3c0-0.2-0.2-0.4-0.4-0.4h-9.3c-0.2,0-0.4,0.2-0.4,0.4v0.3h10V64.3z M92.8,65.7h-10v0.7h9.6c0.2,0,0.4-0.2,0.4-0.5
				V65.7z M90.9,61.5c-0.1-0.1-0.4-0.2-0.7-0.2h-5.3c-0.3,0-0.4,0-0.5,0.2c-0.4,0.3-1,0.9-1.4,1.3h3.9c-0.4-0.3-0.8-0.7-1.1-1h2.4
				c0.4,0.3,0.8,0.8,1.2,1h2.8C91.8,62.4,91.3,61.9,90.9,61.5z M94.3,60c-0.7-0.5-1.6-1.2-2.2-1.7c-0.6,0.3-1.5,0.9-2,1.2h-3.7
				c1.5-0.6,3-1.3,4.5-2.2c-0.5-0.5-1.3-1.3-2-2.1h2.1c0.3,0.3,0.9,0.9,1.2,1.2c0.6-0.4,1.4-1.2,1.9-1.7c0.1-0.1,0-0.2-0.1-0.2h-5.3
				v-1.1h6.2c0.5,0,0.8,0.3,0.9,0.6c0.1,0.4,0,0.8-0.3,1.2c-0.8,0.8-1.5,1.5-2.3,2.1c1.1,1,2.4,1.9,3.5,2.6H94.3z M89,67.5
				c0.4,0.2,1.3,0.7,1.9,1c0.5-0.2,1.5-0.7,1.8-1H89z"/>
			<path class="st3" d="M101.4,70.5h-2.2c1.3-2.1,2.3-5.1,2.6-7.4h1.8C103.3,65.5,102.5,68.4,101.4,70.5z M101.7,62.1
				c-0.7-1-1.9-3.1-2.4-4.2h2.1c0.5,1.2,1.9,3.3,2.6,4.2H101.7z M101.7,57.3c-0.6-0.9-1.8-3-2.3-4.2h2c0.5,1.1,1.7,3.2,2.4,4.2
				H101.7z M112.6,54.6v2.2h1.7c0.6,0,1,0.2,1.4,0.5c0.3,0.3,0.5,0.8,0.5,1.3v10.1c0,0.5-0.2,0.9-0.5,1.2c-0.3,0.3-0.8,0.5-1.5,0.5
				h-7.9c-0.6,0-1.1-0.2-1.4-0.6c-0.3-0.3-0.4-0.7-0.4-1.2v-9.9c0-0.6,0.3-1,0.6-1.4c0.4-0.3,0.8-0.4,1.3-0.4h1.3v-2.2h-3.9v-1.3
				h12.8v1.3H112.6z M114.4,63.3h-2c-0.4,0-0.8-0.1-1.1-0.4c-0.3-0.3-0.4-0.6-0.4-1.1v-3.5h-1.4c0,1.8-0.2,3.6-1,5.4h-1.8
				c0.8-1.6,1.1-3.9,1.1-5.4h-0.9c-0.2,0-0.5,0.2-0.5,0.4v6.5h8.1V63.3z M114.4,66.6h-8.1v2c0,0.4,0.2,0.6,0.5,0.6h7
				c0.3,0,0.6-0.2,0.6-0.6V66.6z M110.9,54.6h-1.4v2.2h1.4V54.6z M114.4,58.7c0-0.3-0.3-0.5-0.6-0.5h-1.3v3.2c0,0.3,0.1,0.5,0.4,0.5
				h1.4V58.7z"/>
			<path class="st3" d="M135.1,58.8c0.1,0.2,0.2,0.5,0.2,0.7v1.8c0,0.5-0.1,0.9-0.4,1.1c-0.3,0.3-0.8,0.5-1.4,0.5h-3.7v1.7h4.9
				c0.5,0,0.8,0.2,1.1,0.5c0.2,0.3,0.3,0.7,0.3,1.1v2.6c0,0.4-0.1,0.8-0.4,1.1c-0.3,0.3-0.7,0.4-1.3,0.4h-5c-0.4,0-0.7-0.2-1-0.5
				c-0.3-0.3-0.4-0.8-0.4-1.4v-8.9c0-0.2,0.1-0.7,0.2-0.8h-1.4v-1h-1.9c-0.5-0.9-0.9-1.9-1.3-2.8c-0.1-0.2-0.2-0.3-0.4-0.3h-0.5
				c-0.1,0-0.3,0.1-0.3,0.3c-0.3,0.9-0.8,2.2-1.3,3.2h-2c0.9-1.2,1.4-2.6,1.8-3.8c0.1-0.3,0.3-0.5,0.6-0.7c0.2-0.1,0.6-0.2,0.9-0.2
				h1.4c0.3,0,0.6,0.1,0.9,0.3c0.2,0.2,0.4,0.4,0.5,0.7c0.5,1.2,1,2.5,1.6,3.3v-1c0-0.6,0.2-1.1,0.6-1.3c0.3-0.3,0.8-0.4,1.4-0.4h2
				c-0.2-0.5-0.5-1.3-0.7-1.9h1.9c0.1,0.6,0.5,1.5,0.7,1.9h2.2c0.5,0,0.9,0.2,1.2,0.5c0.3,0.3,0.4,0.7,0.4,1.2v2.2H135.1z
				 M125.7,70.5c-0.1-0.2-0.5-0.8-0.6-1l-0.5,1h-2.9c-0.5,0-0.9-0.2-1.2-0.4c-0.3-0.3-0.5-0.8-0.5-1.4V60c0-0.4,0.2-0.7,0.5-1
				c0.3-0.2,0.7-0.4,1-0.4h1c-0.1-0.3-0.4-1.2-0.5-1.6h1.8c0.1,0.5,0.4,1.3,0.5,1.6h0.7c0.4,0,0.8,0.1,1,0.3c0.2,0.2,0.4,0.5,0.4,1
				v3.5c0,0.4-0.1,0.8-0.3,1c-0.2,0.3-0.6,0.4-1.1,0.4h-3.4v3.8c0,0.4,0.2,0.5,0.5,0.5h2.8c-0.6-1.1-1-2.4-1.4-3.6h1.9
				c0.6,1.7,1.2,3.4,2.2,4.9H125.7z M124.7,60.4c0-0.2-0.1-0.4-0.4-0.4H122c-0.3,0-0.4,0.2-0.4,0.5V61h3.1V60.4z M124.7,62.4h-3.1
				v1.2h2.7c0.3,0,0.4-0.2,0.4-0.4V62.4z M134.6,56.7c0-0.3-0.2-0.4-0.4-0.4h-5.2c-0.2,0-0.5,0.2-0.5,0.4v1.7
				c0.3-0.2,0.7-0.4,1.1-0.4h3.9c0.4,0,0.8,0.1,1.1,0.3V56.7z M133.5,59.7c0-0.2-0.1-0.4-0.4-0.4h-3.1c-0.2,0-0.4,0.2-0.4,0.4v1.9
				h3.4c0.3,0,0.5-0.2,0.5-0.5V59.7z M134.2,66.4c0-0.2-0.2-0.4-0.5-0.4h-4v2.7c0,0.3,0.2,0.5,0.5,0.5h3.6c0.3,0,0.4-0.2,0.4-0.4
				V66.4z"/>
		</g>
		<g>
			<path class="st3" d="M105,101.9c0,10-8.1,18.2-18.2,18.2s-18.2-8.1-18.2-18.2s8.1-18.2,18.2-18.2S105,91.8,105,101.9"/>
			<g class="st2">
				<path class="st0" d="M82.5,98.9c0-0.2,0-0.4-0.1-0.6c0-0.2-0.1-0.4-0.2-0.6c-0.2-0.5-0.5-0.9-0.9-1.1c-0.3-0.1-0.6-0.2-1-0.2
					c-0.4,0-0.7,0.1-1,0.3c-0.4,0.2-0.7,0.4-0.9,0.7c-0.3,0.3-0.5,0.6-0.6,1c-0.2,0.4-0.3,0.8-0.4,1.2c-0.1,0.4-0.1,0.9-0.1,1.3
					c0,0.5,0.1,1.1,0.1,1.6c0.1,0.5,0.2,1,0.5,1.4c0.2,0.3,0.4,0.6,0.7,0.8c0.3,0.2,0.6,0.4,1,0.5c0.3,0.1,0.7,0.1,1,0.1
					c0.3,0,0.7-0.1,1-0.2c0.2-0.1,0.4-0.2,0.6-0.4c0.2-0.2,0.5-0.4,0.7-0.7v-1.5c0-0.1,0-0.1-0.1-0.2c-0.1-0.1-0.1-0.1-0.2-0.1h-2.3
					v-1.4h3.9c0.2,0,0.4,0.1,0.5,0.2c0.2,0.1,0.3,0.2,0.4,0.4c0.1,0.2,0.2,0.5,0.2,0.7v4.5h-2.5v-1c-0.4,0.4-0.9,0.7-1.4,0.9
					s-1.1,0.3-1.6,0.3c-0.5,0-1-0.1-1.5-0.2c-0.5-0.1-0.9-0.3-1.4-0.6c-0.4-0.2-0.8-0.5-1.1-0.9c-0.3-0.3-0.6-0.7-0.7-1.1
					c-0.2-0.6-0.4-1.2-0.5-1.9s-0.1-1.4,0-2.1c0.1-0.6,0.2-1.2,0.4-1.7c0.2-0.5,0.5-1,0.9-1.5c0.4-0.5,0.9-0.8,1.4-1.1
					c0.5-0.3,1.1-0.5,1.7-0.6c0.6-0.1,1.2-0.1,1.8-0.1c0.6,0.1,1.2,0.2,1.8,0.4c0.3,0.1,0.6,0.3,0.9,0.5c0.3,0.2,0.6,0.5,0.8,0.7
					c0.2,0.3,0.5,0.6,0.6,1.1c0.2,0.4,0.3,0.9,0.4,1.2H82.5z"/>
			</g>
			<g class="st2">
				<path class="st0" d="M98.4,101.1c0,0.7-0.1,1.4-0.3,2.1c-0.2,0.7-0.5,1.3-1,1.8c-0.5,0.6-1,1-1.7,1.3c-0.6,0.3-1.3,0.4-2,0.5
					c-0.5,0-1.1,0-1.6-0.1c-0.5-0.1-1-0.2-1.5-0.4c-0.4-0.2-0.8-0.4-1.2-0.7c-0.4-0.3-0.7-0.6-1-1.1c-0.4-0.6-0.6-1.2-0.8-1.9
					c-0.2-0.7-0.2-1.4-0.2-2.1c0-0.7,0.1-1.4,0.4-2c0.2-0.6,0.5-1.2,0.9-1.7c0.3-0.4,0.6-0.7,1-0.9c0.4-0.2,0.8-0.4,1.2-0.6
					c0.4-0.1,0.7-0.2,1.1-0.3s0.8-0.1,1.2-0.1c0.5,0,1,0,1.4,0.1s0.9,0.3,1.3,0.5c0.4,0.2,0.7,0.5,1,0.8c0.3,0.3,0.6,0.7,0.8,1.1
					c0.3,0.5,0.5,1.1,0.6,1.7C98.3,99.8,98.4,100.4,98.4,101.1z M95.7,100.6c0-0.5-0.1-1-0.2-1.5c-0.1-0.5-0.2-0.9-0.4-1.4
					c-0.1-0.2-0.2-0.4-0.4-0.6c-0.2-0.2-0.4-0.3-0.6-0.4c-0.2-0.1-0.4-0.2-0.7-0.2c-0.2,0-0.5-0.1-0.7-0.1c-0.5,0-0.9,0.1-1.3,0.3
					s-0.7,0.5-1,0.9c-0.3,0.5-0.5,1-0.6,1.6c-0.1,0.6-0.1,1.2-0.1,1.7c0,0.2,0,0.5,0,0.8c0,0.3,0.1,0.6,0.1,0.9
					c0.1,0.3,0.1,0.6,0.2,0.9c0.1,0.3,0.2,0.5,0.4,0.7c0.1,0.2,0.3,0.4,0.5,0.5c0.2,0.1,0.4,0.3,0.6,0.4s0.5,0.1,0.7,0.2
					s0.5,0,0.7,0c0.3,0,0.5-0.1,0.7-0.2c0.2-0.1,0.5-0.2,0.7-0.4c0.2-0.2,0.4-0.3,0.5-0.6c0.2-0.2,0.3-0.5,0.3-0.8
					c0.1-0.4,0.2-0.9,0.3-1.4C95.7,101.6,95.8,101.1,95.7,100.6z"/>
			</g>
		</g>
		<g>
			<path class="st4" d="M66.7,71.3H31.1c-1.1,0-5-6.9-5-6.9c0-1.1,0.9-2,2-2h41.6c1.1,0,2,0.9,2,2C71.7,64.5,67.8,71.3,66.7,71.3z"
				/>
			<path class="st4" d="M29.1,59.2c0-7.6,6.2-13.8,13.8-13.8s13.8,6.2,13.8,13.8"/>
			<path class="st4" d="M34.6,59.2c0-4.6,3.7-8.3,8.3-8.3s8.3,3.7,8.3,8.3"/>
			<path class="st4" d="M38.8,59.2c0-2.2,1.8-4.1,4.1-4.1S47,57,47,59.2"/>
			<path class="st4" d="M53.4,49.3c7-2.9,14.9,2.3,14.9,9.9"/>
			<path class="st4" d="M55.7,53c4-1.2,8.3,2,8.3,6.2"/>
			<path class="st4" d="M52.4,55.3"/>
			<path class="st4" d="M56.6,56.2c2-0.6,4,1,4.1,3"/>
			<path class="st4" d="M48.6,46.2c0.5-2.2,2.7-3.5,4.9-3s3.5,2.7,3,4.9"/>
			<path class="st4" d="M61,43.3"/>
			<polyline class="st4" points="59.6,48.4 60.6,43.8 62.2,43.6 65.5,28.3 69.2,29.1 64.3,44.5 65.7,45.5 64,50 			"/>
			<line class="st4" x1="62.8" y1="45.9" x2="62" y2="48.8"/>
		</g>
	</g>
</g>
</svg>
