<?xml version="1.0" encoding="utf-8"?>
<!-- Generator: Adobe Illustrator 24.0.1, SVG Export Plug-In . SVG Version: 6.00 Build 0)  -->
<svg version="1.1" id="圖層_1_拷貝_5" xmlns="http://www.w3.org/2000/svg" xmlns:xlink="http://www.w3.org/1999/xlink" x="0px"
	 y="0px" viewBox="0 0 171.8 181.7" style="enable-background:new 0 0 171.8 181.7;" xml:space="preserve">
<style type="text/css">
	.st0{fill:#009E9B;}
	.st1{fill:none;stroke:#FFFFFF;stroke-miterlimit:10;}
	.st2{display:none;enable-background:new    ;}
	.st3{display:inline;fill:#FFFFFF;}
	.st4{fill:#FFFFFF;}
	.st5{enable-background:new    ;}
	.st6{fill:none;stroke:#FFFFFF;stroke-width:1.4;stroke-linecap:round;stroke-linejoin:round;stroke-miterlimit:10;}
</style>
<g>
	<path class="st0" d="M169.9,70.1c0-37-37.6-67-84-67s-84,30-84,67c0,29.3,23.6,54.2,56.4,63.3l27.6,45.2l27.7-45.2
		C146.3,124.3,169.9,99.4,169.9,70.1z"/>
	<path class="st1" d="M160.1,70.5c0-32.7-33.2-59.2-74.2-59.2S11.6,37.8,11.6,70.5c0,25.9,20.8,47.8,49.8,55.9l24.4,40l24.4-39.9
		C139.3,118.4,160.1,96.4,160.1,70.5z"/>
	<g class="st2">
		<path class="st3" d="M83,53.6V43.5l-4.4,10.1h-1.5l-4.4-10v10H71V39.3h1.8L77.9,51L83,39.3h1.8v14.3H83z"/>
		<path class="st3" d="M90.8,56.3c-0.2,0.4-0.5,0.8-0.8,1s-0.7,0.3-1.2,0.3h-1.4l-0.8-1.4h1.8c0.4,0,0.7-0.3,0.8-0.6l1-2.5L86,43.2
			h2l3.2,7.5l3.1-7.5h2.1L90.8,56.3z"/>
		<path class="st3" d="M106.8,52.8c-0.8,0.7-1.7,0.8-2.8,0.8h-4.7c-0.5,0-1-0.2-1.3-0.6c-0.3-0.3-0.5-0.7-0.5-1.2V41
			c0-0.5,0.2-1,0.5-1.3s0.7-0.4,1.3-0.4h4.8c1.1,0,2.2,0.6,2.7,1.6c0.6,0.9,0.7,2.2,0.4,3.2c-0.3,1-0.8,1.6-1.6,2.1
			c0.8,0.2,1.5,0.8,2,1.5c0.5,0.8,0.6,1.9,0.4,2.8C107.9,51.3,107.5,52.2,106.8,52.8z M104,40.6h-4c-0.3,0-0.6,0.2-0.6,0.5v4.3h4.3
			c0.7,0,1.4-0.4,1.7-1c0.5-0.7,0.5-1.9,0.2-2.7C105.4,41.1,104.7,40.6,104,40.6z M105.6,47.5c-0.5-0.5-1.2-0.6-1.9-0.6h-4.3v4.8
			c0,0.3,0.3,0.5,0.6,0.5h3.8c0.7,0,1.6-0.1,2.1-0.7c0.4-0.5,0.6-1.3,0.6-1.9C106.4,48.9,106.2,48,105.6,47.5z"/>
		<path class="st3" d="M116.3,53.4c-1.2,0.5-2.8,0.4-4-0.1s-2.1-1.4-2.5-2.7c-0.4-1.4-0.4-3.5,0.2-4.9c0.5-1.3,1.6-2.1,2.9-2.5
			s2.8-0.3,3.9,0.4c1.2,0.7,1.8,1.5,2.1,2.7c0.4,1.3,0.4,2.9,0,4.2C118.6,51.8,117.5,52.9,116.3,53.4z M114.1,44.4
			c-1.1,0-2.2,0.8-2.6,1.9c-0.4,1.2-0.3,2.7,0,4c0.2,1,1.2,1.9,2.2,2c1.2,0.2,2.6-0.2,3.1-1.3c0.7-1.5,0.7-3.5,0.1-5
			C116.5,44.9,115.3,44.4,114.1,44.4z"/>
		<path class="st3" d="M127.4,53.4c-1.2,0.5-2.8,0.4-4-0.1s-2.1-1.4-2.5-2.7c-0.4-1.4-0.4-3.5,0.2-4.9c0.5-1.3,1.6-2.1,2.9-2.5
			s2.8-0.3,3.9,0.4c1.2,0.7,1.8,1.5,2.1,2.7c0.4,1.3,0.4,2.9,0,4.2C129.7,51.8,128.6,52.9,127.4,53.4z M125.2,44.4
			c-1.1,0-2.2,0.8-2.6,1.9c-0.4,1.2-0.3,2.7,0,4c0.2,1,1.2,1.9,2.2,2c1.2,0.2,2.6-0.2,3.1-1.3c0.7-1.5,0.7-3.5,0.1-5
			C127.6,44.9,126.4,44.4,125.2,44.4z"/>
		<path class="st3" d="M138.7,53.6l-3.9-5.4l-1.1,1v4.4h-1.9V39.3h1.9v7.5l3.9-3.6h2.7l-4.2,3.8l4.8,6.6H138.7z"/>
	</g>
	<g>
		<path class="st4" d="M104,101.9c0,10-8.1,18.2-18.2,18.2s-18.2-8.1-18.2-18.2s8.1-18.2,18.2-18.2C95.9,83.7,104,91.8,104,101.9"/>
		<g class="st5">
			<path class="st0" d="M81.5,98.9c0-0.2,0-0.4-0.1-0.6c0-0.2-0.1-0.4-0.2-0.6c-0.2-0.5-0.5-0.9-0.9-1.1c-0.3-0.1-0.6-0.2-1-0.2
				s-0.7,0.1-1,0.3c-0.4,0.2-0.7,0.4-0.9,0.7c-0.3,0.3-0.5,0.6-0.6,1c-0.2,0.4-0.3,0.8-0.4,1.2c-0.1,0.4-0.1,0.9-0.1,1.3
				c0,0.5,0.1,1.1,0.1,1.6c0.1,0.5,0.2,1,0.5,1.4c0.2,0.3,0.4,0.6,0.7,0.8c0.3,0.2,0.6,0.4,1,0.5c0.3,0.1,0.7,0.1,1,0.1
				s0.7-0.1,1-0.2c0.2-0.1,0.4-0.2,0.6-0.4c0.2-0.2,0.5-0.4,0.7-0.7v-1.5c0-0.1,0-0.1-0.1-0.2s-0.1-0.1-0.2-0.1h-2.3v-1.4h3.9
				c0.2,0,0.4,0.1,0.5,0.2c0.2,0.1,0.3,0.2,0.4,0.4c0.1,0.2,0.2,0.5,0.2,0.7v4.5h-2.5v-1c-0.4,0.4-0.9,0.7-1.4,0.9s-1.1,0.3-1.6,0.3
				s-1-0.1-1.5-0.2s-0.9-0.3-1.4-0.6c-0.4-0.2-0.8-0.5-1.1-0.9c-0.3-0.3-0.6-0.7-0.7-1.1c-0.2-0.6-0.4-1.2-0.5-1.9s-0.1-1.4,0-2.1
				c0.1-0.6,0.2-1.2,0.4-1.7c0.2-0.5,0.5-1,0.9-1.5s0.9-0.8,1.4-1.1c0.5-0.3,1.1-0.5,1.7-0.6s1.2-0.1,1.8-0.1
				c0.6,0.1,1.2,0.2,1.8,0.4c0.3,0.1,0.6,0.3,0.9,0.5s0.6,0.5,0.8,0.7c0.2,0.3,0.5,0.6,0.6,1.1c0.2,0.4,0.3,0.9,0.4,1.2L81.5,98.9
				L81.5,98.9z"/>
		</g>
		<g class="st5">
			<path class="st0" d="M97.4,101.1c0,0.7-0.1,1.4-0.3,2.1c-0.2,0.7-0.5,1.3-1,1.8c-0.5,0.6-1,1-1.7,1.3c-0.6,0.3-1.3,0.4-2,0.5
				c-0.5,0-1.1,0-1.6-0.1s-1-0.2-1.5-0.4c-0.4-0.2-0.8-0.4-1.2-0.7c-0.4-0.3-0.7-0.6-1-1.1c-0.4-0.6-0.6-1.2-0.8-1.9
				c-0.2-0.7-0.2-1.4-0.2-2.1s0.1-1.4,0.4-2c0.2-0.6,0.5-1.2,0.9-1.7c0.3-0.4,0.6-0.7,1-0.9c0.4-0.2,0.8-0.4,1.2-0.6
				c0.4-0.1,0.7-0.2,1.1-0.3s0.8-0.1,1.2-0.1c0.5,0,1,0,1.4,0.1s0.9,0.3,1.3,0.5s0.7,0.5,1,0.8s0.6,0.7,0.8,1.1
				c0.3,0.5,0.5,1.1,0.6,1.7C97.3,99.8,97.4,100.4,97.4,101.1z M94.7,100.6c0-0.5-0.1-1-0.2-1.5s-0.2-0.9-0.4-1.4
				c-0.1-0.2-0.2-0.4-0.4-0.6c-0.2-0.2-0.4-0.3-0.6-0.4s-0.4-0.2-0.7-0.2c-0.2,0-0.5-0.1-0.7-0.1c-0.5,0-0.9,0.1-1.3,0.3
				s-0.7,0.5-1,0.9c-0.3,0.5-0.5,1-0.6,1.6s-0.1,1.2-0.1,1.7c0,0.2,0,0.5,0,0.8s0.1,0.6,0.1,0.9c0.1,0.3,0.1,0.6,0.2,0.9
				s0.2,0.5,0.4,0.7c0.1,0.2,0.3,0.4,0.5,0.5s0.4,0.3,0.6,0.4s0.5,0.1,0.7,0.2s0.5,0,0.7,0c0.3,0,0.5-0.1,0.7-0.2s0.5-0.2,0.7-0.4
				c0.2-0.2,0.4-0.3,0.5-0.6c0.2-0.2,0.3-0.5,0.3-0.8c0.1-0.4,0.2-0.9,0.3-1.4C94.7,101.6,94.8,101.1,94.7,100.6z"/>
		</g>
	</g>
	<g>
		<path class="st6" d="M63.7,39.6v29.8H41.4c-2.5,0-4.5-2-4.5-4.5V35.4c0-2.5,2-4.5,4.5-4.5h22.5"/>
		<path class="st6" d="M64,39.6H40.3c-1.8,0-3.4-1.5-3.4-3.4"/>
		<line class="st6" x1="40.2" y1="35" x2="64" y2="35"/>
	</g>
</g>
<g>
	<path class="st4" d="M83,53.5v-7.2c0-0.6-0.1-1.2-0.6-1.6c-0.6-0.4-1.4-0.5-2.2-0.3c-0.8,0.2-1.4,0.8-1.8,1.5v7.5h-1.7v-7.3
		c0-0.8-0.4-1.5-1.2-1.8c-0.7-0.3-1.4-0.1-2,0.2c-0.7,0.4-1.2,1-1.3,1.8v7.1h-1.7V43.1h1.7v1.2c0.6-0.7,1.2-1.2,2-1.4
		c0.7-0.2,1.5-0.1,2.2,0.2c0.6,0.2,1.2,0.7,1.6,1.3c0.7-0.9,1.6-1.3,2.7-1.5c1.1-0.2,2.3,0,3.1,0.8c0.7,0.6,0.9,1.5,0.9,2.5v7.3H83z
		"/>
	<path class="st4" d="M90.8,56.2c-0.2,0.4-0.5,0.8-0.8,1c-0.3,0.2-0.7,0.3-1.2,0.3h-1.4l-0.8-1.4h1.8c0.4,0,0.7-0.3,0.8-0.6l1-2.5
		L86,43.1h2l3.2,7.5l3.1-7.5h2.1L90.8,56.2z"/>
	<path class="st4" d="M106.8,52.7c-0.8,0.7-1.7,0.8-2.8,0.8h-4.7c-0.5,0-1-0.2-1.3-0.6c-0.3-0.3-0.5-0.7-0.5-1.2V40.9
		c0-0.5,0.2-1,0.5-1.3c0.3-0.3,0.7-0.4,1.3-0.4h4.8c1.1,0,2.2,0.6,2.7,1.6c0.6,0.9,0.7,2.2,0.4,3.2c-0.3,1-0.8,1.6-1.6,2.1
		c0.8,0.2,1.5,0.8,2,1.5c0.5,0.8,0.6,1.9,0.4,2.8C107.9,51.2,107.5,52,106.8,52.7z M104,40.5h-4c-0.3,0-0.6,0.2-0.6,0.5v4.3h4.3
		c0.7,0,1.4-0.4,1.7-1c0.5-0.7,0.5-1.9,0.2-2.7C105.3,41,104.7,40.5,104,40.5z M105.6,47.4c-0.5-0.5-1.2-0.6-1.9-0.6h-4.3v4.8
		c0,0.3,0.3,0.5,0.6,0.5h3.8c0.7,0,1.6-0.1,2.1-0.7c0.4-0.5,0.6-1.3,0.6-1.9C106.4,48.7,106.2,47.9,105.6,47.4z"/>
	<path class="st4" d="M116.2,53.3c-1.2,0.5-2.8,0.4-4-0.1c-1.2-0.5-2.1-1.4-2.5-2.7c-0.4-1.4-0.4-3.5,0.2-4.9
		c0.5-1.3,1.6-2.1,2.9-2.5c1.3-0.4,2.8-0.3,3.9,0.4c1.2,0.7,1.8,1.5,2.1,2.7c0.4,1.3,0.4,2.9,0,4.2
		C118.5,51.7,117.5,52.8,116.2,53.3z M114.1,44.3c-1.1,0-2.2,0.8-2.6,1.9c-0.4,1.2-0.3,2.7,0,4c0.2,1,1.2,1.9,2.2,2
		c1.2,0.2,2.6-0.2,3.1-1.3c0.7-1.5,0.7-3.5,0.1-5C116.4,44.8,115.2,44.3,114.1,44.3z"/>
	<path class="st4" d="M127.4,53.3c-1.2,0.5-2.8,0.4-4-0.1c-1.2-0.5-2.1-1.4-2.5-2.7c-0.4-1.4-0.4-3.5,0.2-4.9
		c0.5-1.3,1.6-2.1,2.9-2.5c1.3-0.4,2.8-0.3,3.9,0.4c1.2,0.7,1.8,1.5,2.1,2.7c0.4,1.3,0.4,2.9,0,4.2
		C129.7,51.7,128.6,52.8,127.4,53.3z M125.2,44.3c-1.1,0-2.2,0.8-2.6,1.9c-0.4,1.2-0.3,2.7,0,4c0.2,1,1.2,1.9,2.2,2
		c1.2,0.2,2.6-0.2,3.1-1.3c0.7-1.5,0.7-3.5,0.1-5C127.6,44.8,126.4,44.3,125.2,44.3z"/>
	<path class="st4" d="M138.7,53.5l-3.9-5.4l-1.1,1v4.4h-1.9V39.2h1.9v7.5l3.9-3.6h2.7l-4.2,3.8l4.8,6.6H138.7z"/>
</g>
</svg>
