<?xml version="1.0" encoding="utf-8"?>
<!-- Generator: Adobe Illustrator 24.0.1, SVG Export Plug-In . SVG Version: 6.00 Build 0)  -->
<svg version="1.1" id="圖層_1_拷貝_5" xmlns="http://www.w3.org/2000/svg" xmlns:xlink="http://www.w3.org/1999/xlink" x="0px"
	 y="0px" viewBox="0 0 171.8 181.7" style="enable-background:new 0 0 171.8 181.7;" xml:space="preserve">
<style type="text/css">
	.st0{fill:#009E9B;}
	.st1{fill:none;stroke:#FFFFFF;stroke-miterlimit:10;}
	.st2{enable-background:new    ;}
	.st3{fill:#FFFFFF;}
	.st4{fill:none;stroke:#FFFFFF;stroke-width:1.4;stroke-linecap:round;stroke-linejoin:round;stroke-miterlimit:10;}
</style>
<g id="圖層_1_拷貝_6">
	<g>
		<path class="st0" d="M169.9,70.1c0-37-37.6-67-84-67c-46.4,0-84,30-84,67c0,29.3,23.6,54.2,56.4,63.3l27.6,45.2l27.7-45.2
			C146.3,124.3,169.9,99.4,169.9,70.1z"/>
		<path class="st1" d="M160.1,70.5c0-32.7-33.2-59.2-74.2-59.2S11.6,37.8,11.6,70.5c0,25.9,20.8,47.8,49.8,55.9l24.4,40l24.4-39.9
			C139.3,118.4,160.1,96.4,160.1,70.5z"/>
		<g class="st2">
			<path class="st3" d="M90,36.1v-1.9c0-0.2-0.2-0.4-0.5-0.4H76.8c-0.3,0-0.5,0.2-0.5,0.5v1.9h-1.8v-2c0-0.5,0.2-0.9,0.5-1.3
				c0.3-0.3,0.7-0.5,1.3-0.5h5.8c-0.3-0.4-0.5-0.9-0.8-1.4h2.3c0.2,0.5,0.5,0.9,0.8,1.4h5.6c0.5,0,0.9,0.2,1.3,0.6
				c0.3,0.3,0.4,0.7,0.4,1.2v1.9H90z M90.7,47.9c-0.3,0.3-0.7,0.5-1.1,0.5H76.8c-0.5,0-0.9-0.2-1.2-0.6c-0.3-0.3-0.4-0.8-0.4-1.3
				v-2.9c0-0.5,0.2-1,0.5-1.3c0.3-0.3,0.7-0.5,1.3-0.5h12.4c0.4,0,1,0.2,1.4,0.7c0.2,0.3,0.4,0.6,0.4,1.1v3.1
				C91.2,47.2,91,47.6,90.7,47.9z M89.1,40.4c-0.2,0.2-0.6,0.4-0.9,0.4H78.1c-0.3,0-0.6-0.2-0.9-0.4c-0.2-0.2-0.4-0.5-0.4-0.8v-1.1
				c0-0.5,0.2-0.8,0.4-1c0.3-0.2,0.6-0.4,1-0.4h9.8c0.4,0,0.8,0.1,1,0.4c0.2,0.2,0.4,0.5,0.4,1v1.1C89.5,39.9,89.3,40.2,89.1,40.4z
				 M82.3,43.2h-5c-0.1,0-0.3,0.1-0.3,0.3v1h5.3V43.2z M82.3,45.8H77v1c0,0.2,0.1,0.3,0.3,0.3h5V45.8z M77.7,36.1v-1.3h11v1.3H77.7z
				 M87.7,38.8c0-0.2-0.1-0.4-0.3-0.4H79c-0.2,0-0.4,0.1-0.4,0.2v0.6c0,0.2,0.1,0.3,0.3,0.3h8.4c0.2,0,0.3-0.1,0.3-0.3V38.8z
				 M89.4,43.6c0-0.2-0.2-0.4-0.4-0.4h-4.9v1.3h5.3V43.6z M89.4,45.8h-5.3v1.3H89c0.2,0,0.4-0.2,0.4-0.4V45.8z"/>
			<path class="st3" d="M99.8,43.7c-0.4,1.7-1,3.4-2,4.8h-2.4c1.3-1.3,2.2-3,2.6-4.8h-3.4v-1.4h3.6c0.1-0.7,0.3-2.5,0.2-3.3h-3.2
				v-1.4h3.2v-3.1c-0.9,0.1-2.7,0.2-3.6,0.3v-1.4c1.2-0.1,2.4-0.2,3.6-0.3v-2h1.8v1.8c1-0.1,2.4-0.3,3.5-0.6v1.4
				c-1.1,0.2-2.3,0.4-3.5,0.6v3.3h3.2V39h-3.2c0,1-0.1,2.4-0.2,3.3h3.9v1.4H99.8z M111.1,44.8c-0.7,0.8-1.9,0.9-2.8,0.9h-0.5
				l-0.7-1.4h1.4c0.6,0,1.2-0.2,1.5-0.6c0.4-0.5,0.2-1.7,0.1-2.3c-0.4-1.4-1.3-2.9-2.4-4c0.9-1.4,1.6-2.9,2.1-4.3
				c0.1-0.2-0.1-0.4-0.3-0.4h-2.5c-0.2,0-0.5,0.2-0.5,0.5v15.4h-1.8V33.3c0-0.7,0.1-1.2,0.4-1.6c0.3-0.4,0.8-0.5,1.6-0.5h3.5
				c0.6,0,1.1,0.3,1.3,0.7c0.2,0.4,0.2,0.9,0,1.5c-0.5,1.3-1.1,2.6-1.8,3.8c1.2,1.5,2.1,3.1,2.2,5C111.9,43.1,111.7,44.1,111.1,44.8
				z"/>
		</g>
		<g class="st2">
			<path class="st3" d="M76.8,58.7h0.9v11.7H76V59.5h-1.6c1.4-2.1,2.3-4.6,2.8-6.4h1.9C78.6,54.7,77.7,57,76.8,58.7z M91.6,70.5h-5
				c-1,0-2-0.1-2.9-0.3c-0.9-0.3-1.8-0.7-2.4-1.5c-0.2,0.5-0.8,1.3-1.1,1.8h-2.1c0.8-0.9,1.6-2.3,2.1-3.2c-0.7-1.2-1.3-3-1.5-4.6
				h1.4c0.1,0.8,0.5,2.1,0.7,2.7c0.3-0.8,0.5-2.7,0.5-3.6c0-0.3-0.2-0.4-0.4-0.4h-1.2c-0.4,0-0.7-0.2-0.8-0.4
				c-0.1-0.2-0.2-0.5,0-0.9c0.6-1.1,1.5-2.9,2-4c0.1-0.2,0-0.3-0.2-0.3h-1.7v-1.3h2.5c0.5,0,1,0.2,1.2,0.6c0.2,0.4,0.2,0.8,0,1.3
				c-0.4,0.9-1.2,2.6-1.8,3.7h0.6c0.6,0,0.9,0.2,1.2,0.5c0.3,0.3,0.3,0.8,0.3,1.2c-0.2,2-0.4,3.9-1.1,5.6c0.6,0.7,1.4,1.2,2.2,1.4
				c0.8,0.2,1.7,0.3,2.7,0.3h5.3L91.6,70.5z M90.9,58.6v1c0,0.5-0.1,0.9-0.4,1.2c-0.3,0.4-0.8,0.6-1.5,0.6h-0.9v1.2h3v1.3h-3v1.3
				h3.6v1.4h-3.6v1.6h-1.7v-1.6h-2.9v-1.4h2.9v-1.3h-2.4v-1.3h2.4v-1.2h-2.4V60h2.4v-1.4h-3.4v-1.3h3.4v-1.4H84v-1.3h2.5v-1.5h1.7
				v1.5h1.1c0.6,0,1,0.2,1.3,0.5c0.3,0.3,0.4,0.7,0.4,1.2v1h1v1.3H90.9z M89.3,56.3c0-0.2-0.2-0.5-0.5-0.5h-0.7v1.4h1.1V56.3z
				 M89.3,58.6h-1.1V60h0.6c0.3,0,0.6-0.2,0.6-0.5V58.6z"/>
			<path class="st3" d="M109.3,70.1c-1.4-1.3-3.1-3.1-4.3-4.5V69c0,0.5-0.2,0.9-0.5,1.2c-0.3,0.3-0.6,0.4-1.1,0.4h-2.1l-0.7-1.4h2.2
				c0.2,0,0.4-0.2,0.4-0.4v-1.2c-1.5,0.8-4.4,1.9-5.9,2.4v-1.8c1.7-0.5,4.1-1.3,5.9-2.2v-2.3h-5.1v-1.3h5.1v-1.5H97
				c0,3.1,0,7.1-0.8,9.8h-1.9c1-3,1-6.3,1-9.5V56c0-0.5,0.2-0.9,0.6-1.2c0.3-0.2,0.7-0.4,1.1-0.4h5.6c-0.2-0.3-0.6-1-0.8-1.4h2
				c0.2,0.5,0.6,1.1,0.8,1.4h7v1.4H105V57h4c0.4,0,0.8,0.1,1,0.4c0.3,0.3,0.5,0.7,0.5,1.2v0.9h1.4v1.3h-1.4v1.1
				c0,0.4-0.2,0.9-0.5,1.2c-0.3,0.3-0.7,0.5-1.2,0.5H105V65h1.8c0.3,0.4,0.8,0.9,1.1,1.2c0.4-0.5,1-1.4,1.3-2h2.1
				c-0.4,0.9-1.5,2.4-2.2,3.2c0.8,0.9,2.3,2.1,3.2,2.8H109.3z M103.2,58.3h-5.1V57h5.1v-1.2h-5.7c-0.2,0-0.5,0.2-0.5,0.5v3.2h6.2
				V58.3z M99.6,66.2c-0.3-0.4-1-1.4-1.4-2h2c0.4,0.6,1.1,1.5,1.6,2H99.6z M108.7,58.8c0-0.3-0.2-0.5-0.4-0.5H105v1.2h3.7V58.8z
				 M108.7,60.8H105v1.5h3.3c0.2,0,0.4-0.2,0.4-0.4V60.8z"/>
			<path class="st3" d="M120.7,55.3c0.2,0.4,0.6,1.1,0.8,1.4h-2.2c-0.2-0.3-0.5-1-0.7-1.4h-0.9c-0.2,0.5-0.6,1-0.9,1.4h-2.3
				c1-1.1,1.7-2.4,2.3-3.7h2c-0.1,0.2-0.3,0.8-0.5,1h4.9v1.3H120.7z M128.7,55.3c0.2,0.4,0.6,1.1,0.9,1.4h-2.2
				c-0.2-0.3-0.5-1-0.8-1.4h-0.8c-0.2,0.4-0.6,1-0.8,1.4H124c0.1,0.4,0.3,0.9,0.5,1.2h5.5c0.5,0,0.9,0.2,1.2,0.5
				c0.3,0.3,0.4,0.6,0.4,1v1.5h-1.9c0.2,0.3,0.2,0.7,0.2,0.9l0,1.1c0,0.4-0.2,0.8-0.5,1c-0.3,0.2-0.6,0.4-1,0.4h-10.8v1.1h11.8
				c0.4,0,0.8,0.1,1,0.4c0.3,0.2,0.4,0.5,0.4,0.9v2.3c0,0.4-0.2,0.7-0.4,1c-0.2,0.2-0.5,0.3-0.9,0.3h-12.3c-0.4,0-0.7-0.2-1-0.5
				c-0.3-0.3-0.5-0.7-0.5-1.1v-6.6c0-0.4,0.2-1,0.4-1.2h-1.5v-1.6c0-0.4,0.2-0.8,0.5-1.1c0.3-0.2,0.7-0.4,1.2-0.4h5.9
				c-0.1-0.3-0.3-0.9-0.5-1.3h1c0.9-1.1,1.5-2.3,2.1-3.6h2c-0.1,0.3-0.3,0.8-0.4,1h5.4v1.3H128.7z M129.7,59.7
				c0-0.2-0.2-0.4-0.5-0.4h-12.2c-0.2,0-0.4,0.1-0.4,0.4v1c0.2-0.2,0.5-0.3,0.8-0.3h11.2c0.4,0,0.9,0.2,1.2,0.6V59.7z M128.1,62.1
				c0-0.2-0.2-0.4-0.4-0.4h-9.5c-0.3,0-0.5,0.3-0.5,0.6v0.9h10c0.3,0,0.4-0.2,0.4-0.4V62.1z M129.1,67.3c0-0.3-0.2-0.4-0.4-0.4h-11
				v1.8c0,0.2,0.2,0.4,0.4,0.4h10.7c0.2,0,0.3-0.2,0.3-0.4V67.3z"/>
			<path class="st3" d="M134.5,69.6V68c0.7-0.2,1.6-0.5,2.1-0.7v-5.8h-1.8V60h1.8v-4.8h-2.2v-1.4h6v1.4h-2V60h1.6v1.3h-1.6v5.1
				c0.6-0.3,1.5-0.7,2.1-1v1.6C138.6,67.9,135.8,69.1,134.5,69.6z M140.4,70.5v-1.4h4.8v-2.7h-4v-1.3h4v-2.3h-1.7
				c-0.7,0-1.2-0.2-1.6-0.5c-0.4-0.3-0.6-0.8-0.6-1.4v-5.9c0-0.5,0.2-1,0.6-1.3c0.3-0.3,0.8-0.5,1.3-0.5h5.8c0.6,0,1,0.2,1.4,0.5
				c0.3,0.4,0.5,0.9,0.5,1.4v5.9c0,0.5-0.2,0.9-0.6,1.3c-0.4,0.3-0.8,0.4-1.3,0.4h-1.9v2.3h4.1v1.3h-4.1v2.7h4.8v1.4H140.4z
				 M145.2,54.6h-1.7c-0.2,0-0.4,0.2-0.4,0.4v2.4h2.1V54.6z M145.2,58.7h-2.1v2.4c0,0.2,0.3,0.3,0.4,0.3h1.7V58.7z M149.1,55.1
				c0-0.3-0.2-0.5-0.5-0.5h-1.6v2.8h2.1V55.1z M149.1,58.7h-2.1v2.7h1.6c0.4,0,0.5-0.2,0.5-0.5V58.7z"/>
		</g>
		<g>
			<rect x="35.8" y="39.9" class="st4" width="26.2" height="33.1"/>
			<line class="st4" x1="45.7" y1="51" x2="52.2" y2="51"/>
			<line class="st4" x1="48.9" y1="47.8" x2="48.9" y2="54.2"/>
			<line class="st4" x1="41.4" y1="58.9" x2="56.4" y2="58.9"/>
			<line class="st4" x1="41.4" y1="61.9" x2="56.4" y2="61.9"/>
			<line class="st4" x1="41.4" y1="64.8" x2="56.4" y2="64.8"/>
			<path class="st4" d="M39.9,39L39.9,39c0-3.2,2.6-5.7,5.7-5.7h6.7c3.2,0,5.7,2.6,5.7,5.7l0,0"/>
		</g>
		<g>
			<path class="st3" d="M104,102.9c0,10-8.1,18.2-18.2,18.2s-18.2-8.1-18.2-18.2s8.1-18.2,18.2-18.2C95.9,84.7,104,92.8,104,102.9"
				/>
			<g class="st2">
				<path class="st0" d="M81.5,99.9c0-0.2,0-0.4-0.1-0.6c0-0.2-0.1-0.4-0.2-0.6c-0.2-0.5-0.5-0.9-0.9-1.1c-0.3-0.1-0.6-0.2-1-0.2
					c-0.4,0-0.7,0.1-1,0.3c-0.4,0.2-0.7,0.4-0.9,0.7c-0.3,0.3-0.5,0.6-0.6,1c-0.2,0.4-0.3,0.8-0.4,1.2c-0.1,0.4-0.1,0.9-0.1,1.3
					c0,0.5,0.1,1.1,0.1,1.6c0.1,0.5,0.2,1,0.5,1.4c0.2,0.3,0.4,0.6,0.7,0.8c0.3,0.2,0.6,0.4,1,0.5c0.3,0.1,0.7,0.1,1,0.1
					c0.3,0,0.7-0.1,1-0.2c0.2-0.1,0.4-0.2,0.6-0.4c0.2-0.2,0.5-0.4,0.7-0.7v-1.5c0-0.1,0-0.1-0.1-0.2c-0.1-0.1-0.1-0.1-0.2-0.1h-2.3
					v-1.4h3.9c0.2,0,0.4,0.1,0.5,0.2c0.2,0.1,0.3,0.2,0.4,0.4c0.1,0.2,0.2,0.5,0.2,0.7v4.5h-2.5v-1c-0.4,0.4-0.9,0.7-1.4,0.9
					s-1.1,0.3-1.6,0.3c-0.5,0-1-0.1-1.5-0.2c-0.5-0.1-0.9-0.3-1.4-0.6c-0.4-0.2-0.8-0.5-1.1-0.9c-0.3-0.3-0.6-0.7-0.7-1.1
					c-0.2-0.6-0.4-1.2-0.5-1.9s-0.1-1.4,0-2.1c0.1-0.6,0.2-1.2,0.4-1.7c0.2-0.5,0.5-1,0.9-1.5c0.4-0.5,0.9-0.8,1.4-1.1
					c0.5-0.3,1.1-0.5,1.7-0.6c0.6-0.1,1.2-0.1,1.8-0.1c0.6,0.1,1.2,0.2,1.8,0.4c0.3,0.1,0.6,0.3,0.9,0.5c0.3,0.2,0.6,0.5,0.8,0.7
					c0.2,0.3,0.5,0.6,0.6,1.1c0.2,0.4,0.3,0.9,0.4,1.2H81.5z"/>
			</g>
			<g class="st2">
				<path class="st0" d="M97.4,102.1c0,0.7-0.1,1.4-0.3,2.1c-0.2,0.7-0.5,1.3-1,1.8c-0.5,0.6-1,1-1.7,1.3c-0.6,0.3-1.3,0.4-2,0.5
					c-0.5,0-1.1,0-1.6-0.1c-0.5-0.1-1-0.2-1.5-0.4c-0.4-0.2-0.8-0.4-1.2-0.7c-0.4-0.3-0.7-0.6-1-1.1c-0.4-0.6-0.6-1.2-0.8-1.9
					c-0.2-0.7-0.2-1.4-0.2-2.1c0-0.7,0.1-1.4,0.4-2c0.2-0.6,0.5-1.2,0.9-1.7c0.3-0.4,0.6-0.7,1-0.9c0.4-0.2,0.8-0.4,1.2-0.6
					c0.4-0.1,0.7-0.2,1.1-0.3s0.8-0.1,1.2-0.1c0.5,0,1,0,1.4,0.1s0.9,0.3,1.3,0.5c0.4,0.2,0.7,0.5,1,0.8c0.3,0.3,0.6,0.7,0.8,1.1
					c0.3,0.5,0.5,1.1,0.6,1.7C97.3,100.8,97.4,101.4,97.4,102.1z M94.7,101.6c0-0.5-0.1-1-0.2-1.5c-0.1-0.5-0.2-0.9-0.4-1.4
					c-0.1-0.2-0.2-0.4-0.4-0.6c-0.2-0.2-0.4-0.3-0.6-0.4c-0.2-0.1-0.4-0.2-0.7-0.2c-0.2,0-0.5-0.1-0.7-0.1c-0.5,0-0.9,0.1-1.3,0.3
					s-0.7,0.5-1,0.9c-0.3,0.5-0.5,1-0.6,1.6c-0.1,0.6-0.1,1.2-0.1,1.7c0,0.2,0,0.5,0,0.8c0,0.3,0.1,0.6,0.1,0.9
					c0.1,0.3,0.1,0.6,0.2,0.9c0.1,0.3,0.2,0.5,0.4,0.7c0.1,0.2,0.3,0.4,0.5,0.5c0.2,0.1,0.4,0.3,0.6,0.4s0.5,0.1,0.7,0.2
					s0.5,0,0.7,0c0.3,0,0.5-0.1,0.7-0.2c0.2-0.1,0.5-0.2,0.7-0.4c0.2-0.2,0.4-0.3,0.5-0.6c0.2-0.2,0.3-0.5,0.3-0.8
					c0.1-0.4,0.2-0.9,0.3-1.4C94.7,102.6,94.8,102.1,94.7,101.6z"/>
			</g>
		</g>
	</g>
</g>
</svg>
