<?xml version="1.0" encoding="utf-8"?>
<!-- Generator: Adobe Illustrator 24.0.1, SVG Export Plug-In . SVG Version: 6.00 Build 0)  -->
<svg version="1.1" id="圖層_1_拷貝_5" xmlns="http://www.w3.org/2000/svg" xmlns:xlink="http://www.w3.org/1999/xlink" x="0px"
	 y="0px" viewBox="0 0 171.8 181.7" style="enable-background:new 0 0 171.8 181.7;" xml:space="preserve">
<style type="text/css">
	.st0{fill:#009E9B;}
	.st1{fill:none;stroke:#FFFFFF;stroke-miterlimit:10;}
	.st2{display:none;enable-background:new    ;}
	.st3{display:inline;fill:#FFFFFF;}
	.st4{fill:#FFFFFF;}
	.st5{enable-background:new    ;}
	.st6{fill:none;stroke:#FFFFFF;stroke-width:1.4;stroke-linecap:round;stroke-linejoin:round;stroke-miterlimit:10;}
</style>
<g>
	<path class="st0" d="M169.9,70.1c0-37-37.6-67-84-67s-84,30-84,67c0,29.3,23.6,54.2,56.4,63.3l27.6,45.2l27.7-45.2
		C146.3,124.3,169.9,99.4,169.9,70.1z"/>
	<path class="st1" d="M160.1,70.5c0-32.7-33.2-59.2-74.2-59.2S11.6,37.8,11.6,70.5c0,25.9,20.8,47.8,49.8,55.9l24.4,40l24.4-39.9
		C139.3,118.4,160.1,96.4,160.1,70.5z"/>
	<g class="st2">
		<path class="st3" d="M78.8,53.6V43.5l-4.4,10.1H73l-4.4-10v10h-1.7V39.3h1.8l5,11.7l5.1-11.7h1.8v14.3H78.8z"/>
		<path class="st3" d="M86.6,56.3c-0.2,0.4-0.5,0.8-0.8,1s-0.7,0.3-1.2,0.3h-1.4l-0.8-1.4h1.8c0.4,0,0.7-0.3,0.8-0.6l1-2.5l-4.2-9.9
			h2l3.2,7.5l3.1-7.5h2.1L86.6,56.3z"/>
		<path class="st3" d="M100.7,53.6h-2.1l-6-14.3h2l5,12.3l4.8-12.3h2.1L100.7,53.6z"/>
		<path class="st3" d="M108.6,41.1v-1.9h1.8v1.9H108.6z M108.6,53.6V43.2h1.8v10.4H108.6z"/>
		<path class="st3" d="M120.3,53.6v-1.2c-0.7,0.8-1.3,1.3-2.5,1.4c-0.9,0.1-1.8-0.1-2.5-0.5c-0.9-0.5-1.4-1.2-1.8-1.9
			c-0.7-1.6-0.8-4.1-0.1-5.7c0.4-1,1.1-1.8,2.1-2.3c0.8-0.4,1.8-0.5,2.7-0.3c0.9,0.2,1.6,0.9,2,1.4v-5.1h1.8v14.3h-1.7V53.6z
			 M117.4,44.4c-1.2,0-1.9,0.8-2.3,1.8c-0.6,1.5-0.4,3.6,0.1,4.7c0.4,0.8,1.2,1.4,2.1,1.4s1.7-0.4,2.2-1.1c1-1.5,0.8-3.7,0.2-5.2
			C119.4,45.1,118.4,44.4,117.4,44.4z"/>
		<path class="st3" d="M131.6,53.2c-0.8,0.5-2.3,0.7-3.4,0.6c-1.3-0.1-2.4-0.6-3.2-1.7c-0.7-1-1.1-2.4-1.1-3.8
			c0-1.1,0.3-2.2,0.8-3.2c0.9-1.5,2.4-2.1,4-2.1c1.5,0,2.6,0.4,3.5,1.4c0.8,0.9,1.1,2.2,1.1,3.4c0,0.7-0.4,1-1.1,1h-6.4
			c0.1,1.2,0.5,2.4,1.4,3.1c0.6,0.5,1.3,0.6,2,0.5c0.6,0,1.1-0.2,1.5-0.6c0.4-0.4,0.7-1,0.8-1.5h2C133.3,51.2,132.6,52.5,131.6,53.2
			z M130.5,44.8c-0.8-0.6-2-0.5-2.9-0.2c-1.2,0.4-1.8,1.6-1.8,2.7h5.3c0.3,0,0.4-0.2,0.4-0.4C131.6,46.2,131.2,45.3,130.5,44.8z"/>
		<path class="st3" d="M141.8,53.4c-1.2,0.5-2.8,0.4-4-0.1s-2.1-1.4-2.5-2.7c-0.4-1.4-0.4-3.5,0.2-4.9c0.5-1.3,1.6-2.1,2.9-2.5
			c1.3-0.4,2.8-0.3,3.9,0.4c1.2,0.7,1.8,1.5,2.1,2.7c0.4,1.3,0.4,2.9,0,4.2C144.1,51.8,143,52.9,141.8,53.4z M139.6,44.4
			c-1.1,0-2.2,0.8-2.6,1.9c-0.4,1.2-0.3,2.7,0,4c0.2,1,1.2,1.9,2.2,2c1.2,0.2,2.6-0.2,3.1-1.3c0.7-1.5,0.7-3.5,0.1-5
			C142,44.9,140.8,44.4,139.6,44.4z"/>
	</g>
	<g>
		<path class="st4" d="M104,101.9c0,10-8.1,18.2-18.2,18.2s-18.2-8.1-18.2-18.2s8.1-18.2,18.2-18.2S104,91.8,104,101.9"/>
		<g class="st5">
			<path class="st0" d="M81.5,98.9c0-0.2,0-0.4-0.1-0.6c0-0.2-0.1-0.4-0.2-0.6c-0.2-0.5-0.5-0.9-0.9-1.1c-0.3-0.1-0.6-0.2-1-0.2
				s-0.7,0.1-1,0.3c-0.4,0.2-0.7,0.4-0.9,0.7c-0.3,0.3-0.5,0.6-0.6,1c-0.2,0.4-0.3,0.8-0.4,1.2c-0.1,0.4-0.1,0.9-0.1,1.3
				c0,0.5,0.1,1.1,0.1,1.6c0.1,0.5,0.2,1,0.5,1.4c0.2,0.3,0.4,0.6,0.7,0.8c0.3,0.2,0.6,0.4,1,0.5c0.3,0.1,0.7,0.1,1,0.1
				s0.7-0.1,1-0.2c0.2-0.1,0.4-0.2,0.6-0.4c0.2-0.2,0.5-0.4,0.7-0.7v-1.5c0-0.1,0-0.1-0.1-0.2s-0.1-0.1-0.2-0.1h-2.3v-1.4h3.9
				c0.2,0,0.4,0.1,0.5,0.2c0.2,0.1,0.3,0.2,0.4,0.4c0.1,0.2,0.2,0.5,0.2,0.7v4.5h-2.5v-1c-0.4,0.4-0.9,0.7-1.4,0.9s-1.1,0.3-1.6,0.3
				s-1-0.1-1.5-0.2s-0.9-0.3-1.4-0.6c-0.4-0.2-0.8-0.5-1.1-0.9c-0.3-0.3-0.6-0.7-0.7-1.1c-0.2-0.6-0.4-1.2-0.5-1.9s-0.1-1.4,0-2.1
				c0.1-0.6,0.2-1.2,0.4-1.7c0.2-0.5,0.5-1,0.9-1.5s0.9-0.8,1.4-1.1c0.5-0.3,1.1-0.5,1.7-0.6s1.2-0.1,1.8-0.1
				c0.6,0.1,1.2,0.2,1.8,0.4c0.3,0.1,0.6,0.3,0.9,0.5s0.6,0.5,0.8,0.7c0.2,0.3,0.5,0.6,0.6,1.1c0.2,0.4,0.3,0.9,0.4,1.2L81.5,98.9
				L81.5,98.9z"/>
		</g>
		<g class="st5">
			<path class="st0" d="M97.4,101.1c0,0.7-0.1,1.4-0.3,2.1c-0.2,0.7-0.5,1.3-1,1.8c-0.5,0.6-1,1-1.7,1.3c-0.6,0.3-1.3,0.4-2,0.5
				c-0.5,0-1.1,0-1.6-0.1s-1-0.2-1.5-0.4c-0.4-0.2-0.8-0.4-1.2-0.7c-0.4-0.3-0.7-0.6-1-1.1c-0.4-0.6-0.6-1.2-0.8-1.9
				c-0.2-0.7-0.2-1.4-0.2-2.1s0.1-1.4,0.4-2c0.2-0.6,0.5-1.2,0.9-1.7c0.3-0.4,0.6-0.7,1-0.9c0.4-0.2,0.8-0.4,1.2-0.6
				c0.4-0.1,0.7-0.2,1.1-0.3s0.8-0.1,1.2-0.1c0.5,0,1,0,1.4,0.1s0.9,0.3,1.3,0.5s0.7,0.5,1,0.8s0.6,0.7,0.8,1.1
				c0.3,0.5,0.5,1.1,0.6,1.7C97.3,99.8,97.4,100.4,97.4,101.1z M94.7,100.6c0-0.5-0.1-1-0.2-1.5s-0.2-0.9-0.4-1.4
				c-0.1-0.2-0.2-0.4-0.4-0.6c-0.2-0.2-0.4-0.3-0.6-0.4s-0.4-0.2-0.7-0.2c-0.2,0-0.5-0.1-0.7-0.1c-0.5,0-0.9,0.1-1.3,0.3
				s-0.7,0.5-1,0.9c-0.3,0.5-0.5,1-0.6,1.6s-0.1,1.2-0.1,1.7c0,0.2,0,0.5,0,0.8s0.1,0.6,0.1,0.9c0.1,0.3,0.1,0.6,0.2,0.9
				s0.2,0.5,0.4,0.7c0.1,0.2,0.3,0.4,0.5,0.5s0.4,0.3,0.6,0.4s0.5,0.1,0.7,0.2s0.5,0,0.7,0c0.3,0,0.5-0.1,0.7-0.2s0.5-0.2,0.7-0.4
				c0.2-0.2,0.4-0.3,0.5-0.6c0.2-0.2,0.3-0.5,0.3-0.8c0.1-0.4,0.2-0.9,0.3-1.4C94.7,101.6,94.8,101.1,94.7,100.6z"/>
		</g>
	</g>
	<g>
		<path class="st6" d="M47,68.3H29.9c-2.4,0-4.3-1.9-4.3-4.3V51.5c0-2.4,1.9-4.3,4.3-4.3H47c2.4,0,4.3,1.9,4.3,4.3V64
			C51.3,66.4,49.4,68.3,47,68.3z"/>
		<path class="st6" d="M36.8,43.4c0,2.1-1.7,3.8-3.8,3.8s-3.8-1.7-3.8-3.8s1.7-3.8,3.8-3.8C35.2,39.6,36.8,41.3,36.8,43.4z"/>
		<circle class="st6" cx="43.1" cy="40.9" r="6.3"/>
		<rect x="51.3" y="51.7" class="st6" width="3" height="12.2"/>
		<path class="st6" d="M61.1,67.3L61.1,67.3c-3.6,0-6.6-2.9-6.6-6.6v-6c0-3.6,3-6.6,6.6-6.6l0,0C61.1,48.2,61.1,67.3,61.1,67.3z"/>
		<line class="st6" x1="30.3" y1="51.9" x2="33.5" y2="51.9"/>
	</g>
</g>
<g>
	<path class="st4" d="M79,53.5v-7.2c0-0.6-0.1-1.2-0.6-1.6c-0.6-0.4-1.4-0.5-2.2-0.3c-0.8,0.2-1.4,0.8-1.8,1.5v7.5h-1.7v-7.3
		c0-0.8-0.4-1.5-1.2-1.8c-0.7-0.3-1.4-0.1-2,0.2c-0.7,0.4-1.2,1-1.3,1.8v7.1h-1.7V43.1h1.7v1.2c0.6-0.7,1.2-1.2,2-1.4
		c0.7-0.2,1.5-0.1,2.2,0.2c0.6,0.2,1.2,0.7,1.6,1.3c0.7-0.9,1.6-1.3,2.7-1.5c1.1-0.2,2.3,0,3.1,0.8c0.7,0.6,0.9,1.5,0.9,2.5v7.3H79z
		"/>
	<path class="st4" d="M86.8,56.2c-0.2,0.4-0.5,0.8-0.8,1c-0.3,0.2-0.7,0.3-1.2,0.3h-1.4l-0.8-1.4h1.8c0.4,0,0.7-0.3,0.8-0.6l1-2.5
		L82,43.1h2l3.2,7.5l3.1-7.5h2.1L86.8,56.2z"/>
	<path class="st4" d="M100.9,53.5h-2.1l-6-14.3h2l5,12.3l4.8-12.3h2.1L100.9,53.5z"/>
	<path class="st4" d="M108.8,41v-1.9h1.8V41H108.8z M108.8,53.5V43.1h1.8v10.4H108.8z"/>
	<path class="st4" d="M120.5,53.5v-1.2c-0.7,0.8-1.3,1.3-2.5,1.4c-0.9,0.1-1.8-0.1-2.5-0.5c-0.9-0.5-1.4-1.2-1.8-1.9
		c-0.7-1.6-0.8-4.1-0.1-5.7c0.4-1,1.1-1.8,2.1-2.3c0.8-0.4,1.8-0.5,2.7-0.3c0.9,0.2,1.6,0.9,2,1.4v-5.1h1.8v14.3H120.5z M117.6,44.3
		c-1.2,0-1.9,0.8-2.3,1.8c-0.6,1.5-0.4,3.6,0.1,4.7c0.4,0.8,1.2,1.4,2.1,1.4c0.9,0,1.7-0.4,2.2-1.1c1-1.5,0.8-3.7,0.2-5.2
		C119.6,45,118.6,44.3,117.6,44.3z"/>
	<path class="st4" d="M131.8,53.1c-0.8,0.5-2.3,0.7-3.4,0.6c-1.3-0.1-2.4-0.6-3.2-1.7c-0.7-1-1.1-2.4-1.1-3.8c0-1.1,0.3-2.2,0.8-3.2
		c0.9-1.5,2.4-2.1,4-2.1c1.5,0,2.6,0.4,3.5,1.4c0.8,0.9,1.1,2.2,1.1,3.4c0,0.7-0.4,1-1.1,1H126c0.1,1.2,0.5,2.4,1.4,3.1
		c0.6,0.5,1.3,0.6,2,0.5c0.6,0,1.1-0.2,1.5-0.6c0.4-0.4,0.7-1,0.8-1.5h2C133.5,51.1,132.8,52.4,131.8,53.1z M130.7,44.7
		c-0.8-0.6-2-0.5-2.9-0.2c-1.2,0.4-1.8,1.6-1.8,2.7h5.3c0.3,0,0.4-0.2,0.4-0.4C131.8,46.1,131.4,45.2,130.7,44.7z"/>
	<path class="st4" d="M142,53.3c-1.2,0.5-2.8,0.4-4-0.1c-1.2-0.5-2.1-1.4-2.5-2.7c-0.4-1.4-0.4-3.5,0.2-4.9c0.5-1.3,1.6-2.1,2.9-2.5
		c1.3-0.4,2.8-0.3,3.9,0.4c1.2,0.7,1.8,1.5,2.1,2.7c0.4,1.3,0.4,2.9,0,4.2C144.3,51.7,143.2,52.8,142,53.3z M139.8,44.3
		c-1.1,0-2.2,0.8-2.6,1.9c-0.4,1.2-0.3,2.7,0,4c0.2,1,1.2,1.9,2.2,2c1.2,0.2,2.6-0.2,3.1-1.3c0.7-1.5,0.7-3.5,0.1-5
		C142.2,44.8,141,44.3,139.8,44.3z"/>
</g>
</svg>
