<?xml version="1.0" encoding="utf-8"?>
<!-- Generator: Adobe Illustrator 24.0.1, SVG Export Plug-In . SVG Version: 6.00 Build 0)  -->
<svg version="1.1" id="圖層_1_拷貝_5" xmlns="http://www.w3.org/2000/svg" xmlns:xlink="http://www.w3.org/1999/xlink" x="0px"
	 y="0px" viewBox="0 0 242.75 255.47" style="enable-background:new 0 0 242.75 255.47;" xml:space="preserve">
<style type="text/css">
	.st0{fill:#E8F7F7;}
</style>
<g id="圖層_1">
	<g>
		<g>
			<g>
				<g>
					<path class="st0" d="M9.18,251.59c-1.01,0-2.01-0.34-2.82-1c-1.05-0.85-1.67-2.13-1.67-3.49L4.47,125.67
						c0-1.13,0.43-2.22,1.2-3.06l67.19-72.67c0.7-0.76,1.63-1.25,2.66-1.4c0.58-0.08,14.37-2.03,37.15-2.65c0.04,0,0.09,0,0.13,0
						c2.42,0,4.42,1.93,4.49,4.37c0.06,2.48-1.89,4.54-4.37,4.61c-17.95,0.49-30.38,1.85-34.57,2.36l-64.89,70.18l0.21,114.12
						l215.01-46.22V79.64c-12.07-13.54-33.79-21.07-68.12-23.65c-2.47-0.19-4.32-2.34-4.14-4.81c0.18-2.47,2.26-4.24,4.82-4.14
						c37.93,2.85,61.89,11.77,75.4,28.07c0.67,0.81,1.03,1.82,1.03,2.87v120.98c0,2.12-1.48,3.95-3.54,4.39L10.12,251.49
						C9.81,251.56,9.49,251.59,9.18,251.59z"/>
				</g>
			</g>
			<g>
				<g>
					<path class="st0" d="M8.95,130.16c-2.07,0-3.93-1.45-4.38-3.56c-0.51-2.42,1.03-4.81,3.46-5.32l224.2-47.69
						c2.37-0.54,4.8,1.03,5.32,3.46c0.51,2.42-1.03,4.81-3.46,5.32L9.89,130.06C9.58,130.13,9.26,130.16,8.95,130.16z"/>
				</g>
			</g>
			<g>
				<g>
					<path class="st0" d="M8.95,176.95c-2.07,0-3.93-1.45-4.38-3.56c-0.51-2.42,1.03-4.81,3.46-5.32l224.2-47.7
						c2.37-0.53,4.8,1.03,5.32,3.46c0.51,2.42-1.03,4.81-3.46,5.32l-224.2,47.7C9.58,176.92,9.26,176.95,8.95,176.95z"/>
				</g>
			</g>
			<g>
				<g>
					<path class="st0" d="M9.58,206.54c-2.07,0-3.93-1.45-4.38-3.56c-0.51-2.42,1.03-4.81,3.46-5.32l224.21-47.69
						c2.39-0.53,4.8,1.03,5.32,3.46c0.51,2.42-1.03,4.81-3.46,5.32L10.52,206.44C10.2,206.51,9.89,206.54,9.58,206.54z"/>
				</g>
			</g>
			<g>
				<g>
					<path class="st0" d="M137.06,75.66c-15.86,0-28.76-12.9-28.76-28.76s12.9-28.77,28.76-28.77s28.77,12.91,28.77,28.77
						C165.82,62.76,152.91,75.66,137.06,75.66z M137.06,27.12c-10.9,0-19.78,8.87-19.78,19.79c0,10.91,8.87,19.78,19.78,19.78
						s19.79-8.87,19.79-19.78C156.84,35.99,147.97,27.12,137.06,27.12z"/>
				</g>
			</g>
			<g>
				<g>
					<path class="st0" d="M137.05,41.37c-2.39,0-4.37-1.88-4.48-4.29c-0.03-0.65-0.6-16.11,8.86-25.77
						c5.01-5.12,11.74-7.62,20.01-7.42c2.48,0.06,4.44,2.11,4.38,4.59c-0.06,2.44-2.06,4.38-4.49,4.38
						c-0.23-0.01-0.53-0.01-0.79-0.01c-5.42,0-9.58,1.55-12.7,4.73c-6.65,6.79-6.31,18.97-6.3,19.09c0.11,2.47-1.81,4.57-4.28,4.68
						C137.19,41.37,137.12,41.37,137.05,41.37z"/>
				</g>
			</g>
		</g>
	</g>
</g>
</svg>
