<?xml version="1.0" encoding="utf-8"?>
<!-- Generator: Adobe Illustrator 24.0.1, SVG Export Plug-In . SVG Version: 6.00 Build 0)  -->
<svg version="1.1" id="圖層_1_拷貝_5" xmlns="http://www.w3.org/2000/svg" xmlns:xlink="http://www.w3.org/1999/xlink" x="0px"
	 y="0px" viewBox="0 0 254.75 251.47" style="enable-background:new 0 0 254.75 251.47;" xml:space="preserve">
<style type="text/css">
	.st0{fill:#E8F7F7;}
</style>
<g id="圖層_1_拷貝_4">
	<g>
		<g>
			<g>
				<g>
					<path class="st0" d="M224.38,59.67h-194c-9.55,0-17.32-7.77-17.32-17.32V22.33c0-9.55,7.77-17.32,17.32-17.32h194.01
						c9.55,0,17.32,7.77,17.32,17.32v20.04C241.7,51.91,233.94,59.67,224.38,59.67z M30.38,13.99c-4.6,0-8.34,3.74-8.34,8.34v20.04
						c0,4.6,3.74,8.34,8.34,8.34h194.01c4.6,0,8.34-3.74,8.34-8.34V22.33c0-4.6-3.74-8.34-8.34-8.34H30.38z"/>
				</g>
			</g>
			<g>
				<g>
					<g>
						<path class="st0" d="M46.36,87.93c-0.33,0-0.66-0.04-1-0.11c-2.42-0.54-3.93-2.95-3.39-5.37c3.81-16.84-6.62-22.01-7.82-22.55
							c-2.25-1-3.29-3.63-2.32-5.89c0.98-2.26,3.56-3.33,5.83-2.37c6.47,2.71,17.53,13.05,13.06,32.79
							C50.26,86.52,48.4,87.93,46.36,87.93z"/>
					</g>
				</g>
				<g>
					<g>
						<path class="st0" d="M203.61,87.93c-2.05,0-3.9-1.42-4.37-3.5c-4.47-19.73,6.6-30.08,13.06-32.79
							c2.26-0.95,4.92,0.11,5.87,2.41c0.95,2.27-0.11,4.89-2.37,5.86c-1.23,0.55-11.62,5.73-7.82,22.54
							c0.54,2.42-0.97,4.82-3.39,5.37C204.27,87.9,203.94,87.93,203.61,87.93z"/>
					</g>
				</g>
			</g>
			<g>
				<g>
					<path class="st0" d="M245.63,123H9.13c-2.48,0-4.49-2.01-4.49-4.49c0-2.48,2.01-4.49,4.49-4.49h236.5
						c2.48,0,4.49,2.01,4.49,4.49S248.11,123,245.63,123z"/>
				</g>
			</g>
			<g>
				<g>
					<path class="st0" d="M245.63,215.58H9.13c-2.48,0-4.49-2.01-4.49-4.49s2.01-4.49,4.49-4.49h236.5c2.48,0,4.49,2.01,4.49,4.49
						C250.12,213.58,248.11,215.58,245.63,215.58z"/>
				</g>
			</g>
			<g>
				<g>
					<g>
						<path class="st0" d="M228.14,246.46H26.63c-12.34,0-22.39-10.04-22.39-22.38V123.14c0-23.59,19.2-42.79,42.79-42.79h160.7
							c23.59,0,42.78,19.19,42.78,42.79v100.94C250.52,236.42,240.48,246.46,228.14,246.46z M47.03,89.35
							c-18.65,0-33.81,15.17-33.81,33.8v100.94c0,7.39,6.01,13.4,13.41,13.4h201.5c7.39,0,13.4-6.01,13.4-13.4V123.14
							c0-18.64-15.16-33.8-33.8-33.8L47.03,89.35L47.03,89.35z"/>
					</g>
				</g>
				<g>
					<g>
						<path class="st0" d="M127.38,200.77c-21.04,0-38.16-17.12-38.16-38.16s17.12-38.16,38.16-38.16s38.16,17.12,38.16,38.16
							S148.43,200.77,127.38,200.77z M127.38,133.43c-16.09,0-29.18,13.09-29.18,29.18s13.09,29.18,29.18,29.18
							s29.18-13.09,29.18-29.18S143.47,133.43,127.38,133.43z"/>
					</g>
				</g>
			</g>
		</g>
	</g>
</g>
</svg>
