<?xml version="1.0" encoding="utf-8"?>
<!-- Generator: Adobe Illustrator 24.0.1, SVG Export Plug-In . SVG Version: 6.00 Build 0)  -->
<svg version="1.1" id="圖層_1_拷貝_5" xmlns="http://www.w3.org/2000/svg" xmlns:xlink="http://www.w3.org/1999/xlink" x="0px"
	 y="0px" viewBox="0 0 190.75 245.47" style="enable-background:new 0 0 190.75 245.47;" xml:space="preserve">
<style type="text/css">
	.st0{fill:#E8F7F7;}
</style>
<g id="圖層_1_拷貝_3">
	<g>
		<g>
			<g>
				<g>
					<path class="st0" d="M135.65,242.18H42.88c-12.5,0-22.67-10.17-22.67-22.67V83.13c0-3.08,0.61-6.06,1.82-8.88
						c0.97-2.28,3.6-3.34,5.89-2.37c2.28,0.97,3.34,3.61,2.37,5.89c-0.72,1.7-1.09,3.51-1.09,5.36v136.38
						c0,7.55,6.14,13.68,13.69,13.68h92.78c7.55,0,13.69-6.14,13.69-13.68V83.13c0-7.55-6.14-13.69-13.69-13.69h-1.43
						c-2.48,0-4.49-2.01-4.49-4.49c0-2.48,2.01-4.49,4.49-4.49h1.43c12.5,0,22.67,10.17,22.67,22.67v136.38
						C158.32,232.01,148.15,242.18,135.65,242.18z"/>
				</g>
			</g>
			<g>
				<g>
					<path class="st0" d="M68.07,69.45H47.61c-2.48,0-4.49-2.01-4.49-4.49c0-2.48,2.01-4.49,4.49-4.49h20.46
						c2.48,0,4.49,2.01,4.49,4.49C72.56,67.43,70.54,69.45,68.07,69.45z"/>
				</g>
			</g>
			<g>
				<g>
					<path class="st0" d="M164.34,178.63h-9.46c-2.48,0-4.49-2.01-4.49-4.49s2.01-4.49,4.49-4.49h9.46
						c7.55,0,13.69-6.14,13.69-13.68v-55.64c0-7.55-6.14-13.69-13.69-13.69h-9.46c-2.48,0-4.49-2.01-4.49-4.49s2.01-4.49,4.49-4.49
						h9.46c12.5,0,22.67,10.17,22.67,22.67v55.64C187.01,168.46,176.84,178.63,164.34,178.63z"/>
				</g>
			</g>
			<g>
				<g>
					<path class="st0" d="M36.12,132.63c-8.9,0-16.15-7.25-16.15-16.15V74.7C10.14,69.85,3.74,59.79,3.74,48.74
						c0-16.01,13.03-29.03,29.04-29.03c5.37,0,10.6,1.53,15.13,4.34c3.8-12,15.08-20.76,28.21-20.76c6.65,0,12.96,2.18,18.13,6.2
						c4.3-2.53,9.1-3.86,14.07-3.86c10.89,0,20.74,6.38,25.34,16.15c12.75,1.8,22.36,12.6,22.36,25.78c0,14.39-11.71,26.1-26.1,26.1
						c-1.76,0-3.51-0.18-5.24-0.55c-5.03,11.41-16.4,19.04-29.05,19.04c-17.57,0-31.86-14.29-31.86-31.86
						c0-0.19,0.01-0.38,0.01-0.57c-1.25-0.58-2.44-1.24-3.6-1.98c-1.52,4.75-4.22,8.98-7.91,12.37c0,0.06,0,0.12,0,0.18v46.23
						C52.29,125.39,45.04,132.63,36.12,132.63z M32.79,28.69c-11.06,0-20.05,8.99-20.05,20.05c0,8.36,5.33,15.91,13.27,18.78
						c1.78,0.64,2.96,2.33,2.96,4.22v44.75c0,3.95,3.21,7.17,7.16,7.17s7.17-3.22,7.17-7.17V70.26c0-0.44-0.06-0.86-0.14-1.28
						c-0.31-1.66,0.34-3.35,1.68-4.38c4.33-3.32,7.06-8.2,7.67-13.75c0.25-2.28,2.17-4,4.47-4h2.29c1.12,0,2.2,0.42,3.03,1.18
						c2.24,2.05,4.82,3.55,7.67,4.45c2.07,0.65,3.38,2.7,3.1,4.86l-0.1,0.73c-0.1,0.72-0.21,1.45-0.21,2.2
						c0,12.62,10.27,22.88,22.88,22.88c10.17,0,19.19-6.9,21.93-16.79c0.34-1.23,1.19-2.25,2.34-2.82c1.14-0.57,2.47-0.62,3.66-0.14
						c2.08,0.83,4.22,1.26,6.35,1.26c9.44,0,17.12-7.68,17.12-17.11c0-9.29-7.3-16.78-16.62-17.05c-1.86-0.05-3.49-1.25-4.11-3.01
						c-2.69-7.7-9.91-12.88-17.99-12.88c-4.19,0-8.22,1.41-11.67,4.09c-1.78,1.39-4.32,1.24-5.93-0.37c-3.9-3.9-9.09-6.05-14.6-6.05
						c-11.17,0-20.41,9.1-20.59,20.29c-0.03,1.85-1.2,3.49-2.92,4.13c-1.73,0.64-3.68,0.16-4.92-1.22
						C43.79,31.09,38.5,28.69,32.79,28.69z"/>
				</g>
			</g>
			<g>
				<g>
					<path class="st0" d="M68.49,195.32c-2.48,0-4.49-2.01-4.49-4.49v-65.7c0-2.48,2.01-4.49,4.49-4.49s4.49,2.01,4.49,4.49v65.7
						C72.99,193.3,70.98,195.32,68.49,195.32z"/>
				</g>
			</g>
			<g>
				<g>
					<path class="st0" d="M95.04,195.32c-2.48,0-4.49-2.01-4.49-4.49v-65.7c0-2.48,2.01-4.49,4.49-4.49s4.49,2.01,4.49,4.49v65.7
						C99.52,193.3,97.51,195.32,95.04,195.32z"/>
				</g>
			</g>
			<g>
				<g>
					<path class="st0" d="M120.65,195.32c-2.48,0-4.49-2.01-4.49-4.49v-65.7c0-2.48,2.01-4.49,4.49-4.49s4.49,2.01,4.49,4.49v65.7
						C125.13,193.3,123.12,195.32,120.65,195.32z"/>
				</g>
			</g>
		</g>
	</g>
</g>
</svg>
