<?xml version="1.0" encoding="utf-8"?>
<!-- Generator: Adobe Illustrator 24.0.1, SVG Export Plug-In . SVG Version: 6.00 Build 0)  -->
<svg version="1.1" id="圖層_1_拷貝_5" xmlns="http://www.w3.org/2000/svg" xmlns:xlink="http://www.w3.org/1999/xlink" x="0px"
	 y="0px" viewBox="0 0 250.75 252.47" style="enable-background:new 0 0 250.75 252.47;" xml:space="preserve">
<style type="text/css">
	.st0{fill:#E8F7F7;}
</style>
<g>
	<g>
		<g>
			<g>
				<path class="st0" d="M87.67,201.37c-2.48,0-4.49-2.01-4.49-4.49V51.06c0-12.82,10.3-23.28,23.07-23.52L221.91,4.61
					c0.29-0.06,0.58-0.09,0.87-0.09c12.98,0,23.53,10.56,23.53,23.53v120.88c0,2.48-2.01,4.49-4.49,4.49
					c-2.48,0-4.49-2.01-4.49-4.49V28.05c0-7.89-6.31-14.33-14.14-14.55L107.57,36.43c-0.29,0.06-0.58,0.09-0.87,0.09
					c-8.02,0-14.55,6.53-14.55,14.55v145.81C92.17,199.36,90.15,201.37,87.67,201.37z"/>
			</g>
		</g>
		<g>
			<g>
				<path class="st0" d="M88.29,91.48c-2.09,0-3.96-1.47-4.39-3.6c-0.49-2.43,1.07-4.8,3.5-5.3l152.78-31.06
					c2.4-0.48,4.8,1.07,5.29,3.5c0.49,2.43-1.07,4.8-3.5,5.3L89.18,91.38C88.89,91.45,88.59,91.48,88.29,91.48z"/>
			</g>
		</g>
		<g>
			<g>
				<path class="st0" d="M48.62,247.95c-25,0-45.33-20.34-45.33-45.33s20.34-45.33,45.33-45.33s45.33,20.34,45.33,45.33
					C93.95,227.62,73.61,247.95,48.62,247.95z M48.62,166.27c-20.04,0-36.35,16.3-36.35,36.34s16.31,36.35,36.35,36.35
					s36.34-16.31,36.34-36.35S68.67,166.27,48.62,166.27z"/>
			</g>
		</g>
		<g>
			<g>
				<path class="st0" d="M202.13,209.28c-24.99,0-45.33-20.34-45.33-45.33c0-25,20.34-45.33,45.33-45.33
					c25,0,45.33,20.34,45.33,45.33S227.12,209.28,202.13,209.28z M202.13,127.6c-20.04,0-36.34,16.31-36.34,36.35
					s16.3,36.34,36.34,36.34s36.35-16.3,36.35-36.34S222.18,127.6,202.13,127.6z"/>
			</g>
		</g>
	</g>
</g>
</svg>
