<?xml version="1.0" encoding="utf-8"?>
<!-- Generator: Adobe Illustrator 24.0.1, SVG Export Plug-In . SVG Version: 6.00 Build 0)  -->
<svg version="1.1" id="圖層_1_拷貝_5" xmlns="http://www.w3.org/2000/svg" xmlns:xlink="http://www.w3.org/1999/xlink" x="0px"
	 y="0px" viewBox="0 0 253.75 274.47" style="enable-background:new 0 0 253.75 274.47;" xml:space="preserve">
<style type="text/css">
	.st0{fill:#E8F7F7;}
</style>
<g id="圖層_1_拷貝_8">
	<g>
		<g>
			<g>
				<g>
					<path class="st0" d="M126.89,270.91c-1.47,0-2.85-0.72-3.69-1.93L6.19,100.31c-0.93-1.35-1.06-3.09-0.33-4.56L50.55,6.09
						c0.76-1.52,2.32-2.49,4.02-2.49h144.62c1.7,0,3.26,0.96,4.02,2.49l44.69,89.66c0.73,1.47,0.6,3.22-0.33,4.56L130.58,268.98
						C129.74,270.19,128.36,270.91,126.89,270.91z M15.09,97.38l111.8,161.16L238.68,97.38l-42.26-84.79H57.36L15.09,97.38z"/>
				</g>
			</g>
			<g>
				<g>
					<path class="st0" d="M243.19,102.25H9.88c-2.48,0-4.49-2.01-4.49-4.49s2.01-4.49,4.49-4.49h233.31c2.48,0,4.49,2.01,4.49,4.49
						S245.67,102.25,243.19,102.25z"/>
				</g>
			</g>
			<g>
				<g>
					<path class="st0" d="M126.89,270.91c-1.85,0-3.58-1.15-4.23-3L62.71,97.74c-0.1-0.28-0.17-0.57-0.21-0.87L50.13,8.72
						c-0.34-2.46,1.37-4.73,3.82-5.07c2.47-0.35,4.73,1.37,5.07,3.82l12.31,87.7l59.79,169.75c0.83,2.34-0.4,4.9-2.74,5.72
						C127.88,270.83,127.38,270.91,126.89,270.91z"/>
				</g>
			</g>
			<g>
				<g>
					<path class="st0" d="M66.94,100.74c-0.74,0-1.49-0.18-2.19-0.57c-2.16-1.21-2.94-3.95-1.73-6.11l49.26-88.2
						c1.2-2.16,3.92-2.95,6.11-1.73c2.16,1.21,2.94,3.95,1.73,6.11l-49.25,88.2C70.04,99.91,68.52,100.74,66.94,100.74z"/>
				</g>
			</g>
			<g>
				<g>
					<path class="st0" d="M125.92,270.91c-0.49,0-1-0.08-1.49-0.26c-2.34-0.82-3.57-3.39-2.74-5.72l59.79-169.75l12.31-87.7
						c0.34-2.46,2.59-4.17,5.07-3.82c2.46,0.34,4.16,2.61,3.82,5.07l-12.37,88.15c-0.04,0.3-0.11,0.59-0.21,0.87l-59.94,170.17
						C129.51,269.76,127.78,270.91,125.92,270.91z"/>
				</g>
			</g>
			<g>
				<g>
					<path class="st0" d="M185.87,100.74c-1.58,0-3.11-0.83-3.93-2.3l-49.26-88.2c-1.21-2.16-0.43-4.9,1.73-6.11
						c2.19-1.2,4.91-0.43,6.11,1.73l49.26,88.2c1.21,2.16,0.43,4.9-1.73,6.11C187.36,100.55,186.61,100.74,185.87,100.74z"/>
				</g>
			</g>
		</g>
	</g>
</g>
</svg>
