<?xml version="1.0" encoding="utf-8"?>
<!-- Generator: Adobe Illustrator 24.0.1, SVG Export Plug-In . SVG Version: 6.00 Build 0)  -->
<svg version="1.1" id="圖層_1_拷貝_5" xmlns="http://www.w3.org/2000/svg" xmlns:xlink="http://www.w3.org/1999/xlink" x="0px"
	 y="0px" viewBox="0 0 309.75 295.47" style="enable-background:new 0 0 309.75 295.47;" xml:space="preserve">
<style type="text/css">
	.st0{fill:#E8F7F7;}
	.st1{fill:none;stroke:#E8F7F7;stroke-width:1.4;stroke-linecap:round;stroke-linejoin:round;stroke-miterlimit:10;}
</style>
<g id="圖層_1_拷貝">
	<g>
		<g>
			<g>
				<g>
					<path class="st0" d="M268.92,290.31H40.83c-2.39,0-9.66,0-35.97-46.37c-0.39-0.68-0.59-1.44-0.59-2.22
						c0-9.55,7.77-17.32,17.32-17.32h266.56c9.55,0,17.32,7.77,17.32,17.32c0,0.78-0.2,1.54-0.59,2.22
						C278.6,290.31,271.3,290.31,268.92,290.31z M41.6,281.46L41.6,281.46L41.6,281.46z M41.35,281.33H268.4
						c4.42-2.51,17.71-22.62,28.02-40.67c-0.53-4.09-4.03-7.27-8.27-7.27H21.59c-4.23,0-7.74,3.18-8.27,7.27
						C23.64,258.71,36.93,278.82,41.35,281.33z"/>
				</g>
			</g>
			<g>
				<g>
					<path class="st0" d="M205.18,212.55c-2.48,0-4.49-2.01-4.49-4.49c0-46.37-37.72-84.09-84.09-84.09s-84.09,37.72-84.09,84.09
						c0,2.48-2.01,4.49-4.49,4.49s-4.49-2.01-4.49-4.49c0-51.32,41.76-93.07,93.08-93.07s93.08,41.75,93.08,93.07
						C209.68,210.54,207.66,212.55,205.18,212.55z"/>
				</g>
			</g>
			<g>
				<g>
					<path class="st0" d="M169.9,212.55c-2.48,0-4.49-2.01-4.49-4.49c0-26.92-21.9-48.81-48.82-48.81s-48.82,21.9-48.82,48.81
						c0,2.48-2.01,4.49-4.49,4.49s-4.49-2.01-4.49-4.49c0-31.87,25.93-57.8,57.8-57.8s57.8,25.93,57.8,57.8
						C174.4,210.54,172.38,212.55,169.9,212.55z"/>
				</g>
			</g>
			<g>
				<g>
					<path class="st0" d="M142.65,212.55c-2.48,0-4.49-2.01-4.49-4.49c0-11.89-9.67-21.56-21.56-21.56s-21.56,9.67-21.56,21.56
						c0,2.48-2.01,4.49-4.49,4.49s-4.49-2.01-4.49-4.49c0-16.84,13.7-30.55,30.55-30.55s30.55,13.7,30.55,30.55
						C147.15,210.54,145.13,212.55,142.65,212.55z"/>
				</g>
			</g>
			<g>
				<g>
					<path class="st0" d="M279.33,212.55L279.33,212.55c-2.48,0-4.49-2.02-4.49-4.49c0.01-21.2-10.84-41.06-29.04-53.12
						c-18.19-12.06-40.69-14.33-60.23-6.08c-2.28,0.98-4.92-0.1-5.88-2.39c-0.96-2.28,0.1-4.92,2.39-5.88
						c22.29-9.44,47.98-6.88,68.69,6.86c20.71,13.73,33.06,36.39,33.05,60.61C283.83,210.54,281.82,212.55,279.33,212.55z"/>
				</g>
			</g>
			<g>
				<g>
					<path class="st0" d="M251.96,212.55c-0.01,0-0.02,0-0.03,0c-2.48-0.01-4.48-2.04-4.47-4.52c0.06-11.32-5.42-21.93-15.06-29.12
						c-9.54-7.13-21.68-9.44-32.41-6.19c-2.44,0.72-4.88-0.63-5.6-2.99c-0.72-2.37,0.63-4.89,2.99-5.6
						c13.48-4.08,28.57-1.23,40.38,7.59c11.94,8.91,18.74,22.17,18.66,36.37C256.45,210.56,254.43,212.55,251.96,212.55z"/>
				</g>
			</g>
			<g>
				<g>
					<path class="st1" d="M177.55,183.16"/>
				</g>
			</g>
			<g>
				<g>
					<path class="st0" d="M230.82,212.55c-2.44,0-4.45-1.96-4.49-4.41c-0.09-4.93-2.47-9.48-6.53-12.49
						c-4.05-3.01-9.09-3.96-13.82-2.62c-2.41,0.7-4.87-0.71-5.54-3.09c-0.68-2.39,0.7-4.87,3.09-5.54
						c7.44-2.11,15.32-0.64,21.62,4.04c6.32,4.68,10.03,11.81,10.16,19.54c0.04,2.48-1.93,4.53-4.41,4.57
						C230.87,212.55,230.85,212.55,230.82,212.55z"/>
				</g>
			</g>
			<g>
				<g>
					<path class="st0" d="M203.49,141.65c-0.36,0-0.73-0.04-1.09-0.13c-2.41-0.6-3.87-3.04-3.28-5.44
						c1.39-5.59,0.52-11.39-2.45-16.32c-2.97-4.94-7.68-8.42-13.28-9.81c-5.59-1.39-11.4-0.51-16.32,2.46
						c-4.94,2.97-8.42,7.68-9.8,13.28c-0.6,2.41-3.08,3.84-5.44,3.28c-2.41-0.6-3.87-3.03-3.28-5.44c1.97-7.92,6.9-14.6,13.89-18.81
						c7-4.21,15.22-5.44,23.12-3.47c7.92,1.97,14.59,6.9,18.8,13.89s5.44,15.2,3.48,23.12
						C207.32,140.29,205.49,141.65,203.49,141.65z"/>
				</g>
			</g>
			<g>
				<g>
					<path class="st1" d="M232.35,105.99"/>
				</g>
			</g>
			<g>
				<g>
					<path class="st0" d="M251.95,153.26c-0.53,0-1.07-0.09-1.59-0.29c-2.32-0.88-3.49-3.47-2.61-5.79l9.66-25.43l-6.21-4.74
						c-1.51-1.15-2.14-3.12-1.56-4.93l29.81-93.91L265.11,15l-20.2,93.8c-0.41,1.89-1.98,3.3-3.9,3.52l-7.12,0.79l-5.56,26.73
						c-0.51,2.43-2.91,3.96-5.31,3.48c-2.43-0.51-3.98-2.88-3.48-5.31l6.23-29.92c0.39-1.9,1.97-3.33,3.9-3.55l7.15-0.79L257.29,8.7
						c0.25-1.17,0.96-2.19,1.97-2.83c1.01-0.65,2.23-0.85,3.39-0.61l23.54,5.2c1.23,0.27,2.29,1.05,2.92,2.14s0.77,2.4,0.39,3.6
						l-30.33,95.59l6.36,4.85c1.58,1.2,2.19,3.3,1.48,5.16l-10.85,28.56C255.46,152.15,253.76,153.26,251.95,153.26z"/>
				</g>
			</g>
			<g>
				<g>
					<path class="st0" d="M239.2,145.65c-0.39,0-0.78-0.05-1.18-0.16c-2.39-0.65-3.81-3.12-3.16-5.51l5.01-18.44
						c0.65-2.39,3.11-3.82,5.51-3.15c2.39,0.65,3.81,3.12,3.16,5.51l-5.01,18.44C242.99,144.34,241.18,145.65,239.2,145.65z"/>
				</g>
			</g>
		</g>
	</g>
</g>
</svg>
