<?xml version="1.0" encoding="utf-8"?>
<!-- Generator: Adobe Illustrator 24.0.1, SVG Export Plug-In . SVG Version: 6.00 Build 0)  -->
<svg version="1.1" id="圖層_1_拷貝_5" xmlns="http://www.w3.org/2000/svg" xmlns:xlink="http://www.w3.org/1999/xlink" x="0px"
	 y="0px" viewBox="0 0 145.75 289.47" style="enable-background:new 0 0 145.75 289.47;" xml:space="preserve">
<style type="text/css">
	.st0{fill:#E8F7F7;}
</style>
<g id="圖層_1_拷貝_2">
	<g>
		<g>
			<g>
				<g>
					<path class="st0" d="M117.77,284.62h-89.8c-12.49,0-22.67-10.17-22.67-22.67V27.52c0-12.5,10.17-22.67,22.67-22.67h89.8
						c12.5,0,22.67,10.17,22.67,22.67v234.43C140.45,274.45,130.27,284.62,117.77,284.62z M27.97,13.83
						c-7.55,0-13.68,6.14-13.68,13.69v234.43c0,7.55,6.14,13.68,13.68,13.68h89.8c7.55,0,13.69-6.14,13.69-13.68V27.52
						c0-7.55-6.14-13.69-13.69-13.69H27.97z"/>
				</g>
			</g>
			<g>
				<g>
					<path class="st0" d="M135.96,87.87H9.79c-2.48,0-4.49-2.01-4.49-4.49c0-2.48,2.01-4.49,4.49-4.49h126.16
						c2.48,0,4.49,2.01,4.49,4.49S138.43,87.87,135.96,87.87z"/>
				</g>
			</g>
			<g>
				<g>
					<path class="st0" d="M73.95,212.13c-1.22,0-2.39-0.49-3.23-1.38c-14.42-14.96-21.16-30.43-20.02-45.98
						c1.67-22.82,19.74-37.05,20.51-37.64c1.78-1.37,4.33-1.22,5.92,0.38c40.32,40.32,0.47,82.82,0.06,83.24
						C76.34,211.63,75.18,212.13,73.95,212.13L73.95,212.13z M73.71,136.96c-4.63,4.65-13.1,14.91-14.06,28.53
						c-0.82,11.66,3.94,23.53,14.16,35.34C81.24,191.13,97.59,164.04,73.71,136.96z"/>
				</g>
			</g>
			<g>
				<g>
					<path class="st0" d="M75.9,232.97c-1.99,0-3.81-1.33-4.34-3.34c-13.79-52.27-0.54-98.29,0.04-100.22
						c0.7-2.38,3.19-3.73,5.57-3.03s3.74,3.19,3.04,5.57c-0.14,0.45-13.1,45.64,0.03,95.39c0.63,2.4-0.8,4.85-3.19,5.49
						C76.66,232.92,76.29,232.97,75.9,232.97z"/>
				</g>
			</g>
		</g>
	</g>
</g>
</svg>
