<?xml version="1.0" encoding="utf-8"?>
<!-- Generator: Adobe Illustrator 24.0.1, SVG Export Plug-In . SVG Version: 6.00 Build 0)  -->
<svg version="1.1" id="圖層_1_拷貝_5" xmlns="http://www.w3.org/2000/svg" xmlns:xlink="http://www.w3.org/1999/xlink" x="0px"
	 y="0px" viewBox="0 0 187.5 267.22" style="enable-background:new 0 0 187.5 267.22;" xml:space="preserve">
<style type="text/css">
	.st0{fill:#E8F7F7;}
</style>
<g id="圖層_1_拷貝_6">
	<g>
		<g>
			<g>
				<g>
					<path class="st0" d="M177.93,267.22H9.58c-2.48,0-4.49-2.01-4.49-4.49V50.66c0-2.48,2.01-4.49,4.49-4.49h168.35
						c2.48,0,4.49,2.01,4.49,4.49v212.07C182.42,265.21,180.41,267.22,177.93,267.22z M14.07,258.24h159.37V55.15H14.07V258.24z"/>
				</g>
			</g>
			<g>
				<g>
					<path class="st0" d="M114.36,126.22h-41.2c-2.48,0-4.49-2.01-4.49-4.49s2.01-4.49,4.49-4.49h41.2c2.48,0,4.49,2.01,4.49,4.49
						S116.84,126.22,114.36,126.22z"/>
				</g>
			</g>
			<g>
				<g>
					<path class="st0" d="M93.75,146.83c-2.48,0-4.49-2.01-4.49-4.49v-41.21c0-2.48,2.01-4.49,4.49-4.49s4.49,2.01,4.49,4.49v41.21
						C98.24,144.82,96.23,146.83,93.75,146.83z"/>
				</g>
			</g>
			<g>
				<g>
					<path class="st0" d="M141.85,177.22h-96.2c-2.48,0-4.49-2.01-4.49-4.49s2.01-4.49,4.49-4.49h96.2c2.48,0,4.49,2.01,4.49,4.49
						S144.33,177.22,141.85,177.22z"/>
				</g>
			</g>
			<g>
				<g>
					<path class="st0" d="M141.85,195.99h-96.2c-2.48,0-4.49-2.01-4.49-4.49s2.01-4.49,4.49-4.49h96.2c2.48,0,4.49,2.01,4.49,4.49
						S144.33,195.99,141.85,195.99z"/>
				</g>
			</g>
			<g>
				<g>
					<path class="st0" d="M141.85,214.77h-96.2c-2.48,0-4.49-2.01-4.49-4.49c0-2.48,2.01-4.49,4.49-4.49h96.2
						c2.48,0,4.49,2.01,4.49,4.49C146.34,212.76,144.33,214.77,141.85,214.77z"/>
				</g>
			</g>
			<g>
				<g>
					<path class="st0" d="M151.8,49.22c-2.48,0-4.49-2.01-4.49-4.49c0-17.71-14.41-32.11-32.11-32.11H72.31
						c-17.71,0-32.11,14.41-32.11,32.11c0,2.48-2.01,4.49-4.49,4.49s-4.49-2.01-4.49-4.49c0-22.66,18.43-41.09,41.09-41.09h42.88
						c22.66,0,41.09,18.44,41.09,41.09C156.29,47.21,154.28,49.22,151.8,49.22z"/>
				</g>
			</g>
		</g>
	</g>
</g>
</svg>
