<?xml version="1.0" encoding="utf-8"?>
<!-- Generator: Adobe Illustrator 24.0.1, SVG Export Plug-In . SVG Version: 6.00 Build 0)  -->
<svg version="1.1" id="圖層_1_拷貝_5" xmlns="http://www.w3.org/2000/svg" xmlns:xlink="http://www.w3.org/1999/xlink" x="0px"
	 y="0px" viewBox="0 0 246.75 231.47" style="enable-background:new 0 0 246.75 231.47;" xml:space="preserve">
<style type="text/css">
	.st0{fill:#E8F7F7;}
</style>
<g>
	<g>
		<g>
			<g>
				<path class="st0" d="M146.65,227.36H36.94c-17.59,0-31.91-14.32-31.91-31.92v-80.5c0-17.59,14.32-31.91,31.91-31.91h109.71
					c17.59,0,31.91,14.32,31.91,31.91v80.5C178.57,213.04,164.26,227.36,146.65,227.36z M36.94,92.02
					c-12.65,0-22.93,10.28-22.93,22.93v80.5c0,12.65,10.28,22.94,22.93,22.94h109.71c12.65,0,22.93-10.29,22.93-22.94v-80.5
					c0-12.65-10.28-22.93-22.93-22.93H36.94z"/>
			</g>
		</g>
		<g>
			<g>
				<path class="st0" d="M57.24,92.19c-15.9,0-28.83-12.93-28.83-28.83s12.93-28.84,28.83-28.84s28.84,12.94,28.84,28.84
					S73.14,92.19,57.24,92.19z M57.24,43.51c-10.95,0-19.85,8.91-19.85,19.85s8.9,19.85,19.85,19.85s19.85-8.9,19.85-19.85
					S68.18,43.51,57.24,43.51z"/>
			</g>
		</g>
		<g>
			<g>
				<path class="st0" d="M121.71,92.19c-24.87,0-45.1-20.23-45.1-45.09S96.84,2,121.71,2c24.86,0,45.09,20.23,45.09,45.1
					S146.57,92.19,121.71,92.19z M121.71,10.98c-19.92,0-36.12,16.2-36.12,36.12s16.2,36.12,36.12,36.12
					c19.91,0,36.11-16.2,36.11-36.12S141.62,10.98,121.71,10.98z"/>
			</g>
		</g>
		<g>
			<g>
				<path class="st0" d="M193.55,198.63h-19.47c-2.48,0-4.49-2.01-4.49-4.49v-77.89c0-2.48,2.01-4.49,4.49-4.49h19.47
					c2.48,0,4.49,2.01,4.49,4.49v77.89C198.04,196.62,196.04,198.63,193.55,198.63z M178.57,189.65h10.49v-68.91h-10.49V189.65z"/>
			</g>
		</g>
		<g>
			<g>
				<path class="st0" d="M237.23,221.22c-25.75,0-46.7-20.95-46.7-46.7v-38.64c0-25.75,20.95-46.7,46.7-46.7
					c2.48,0,4.49,2.01,4.49,4.49v123.06C241.71,219.21,239.7,221.22,237.23,221.22z M232.73,98.42
					c-18.69,2.23-33.23,18.18-33.23,37.45v38.64c0,19.28,14.54,35.23,33.23,37.46V98.42z"/>
			</g>
		</g>
		<g>
			<g>
				<path class="st0" d="M60.17,122.38H39.71c-2.48,0-4.49-2.01-4.49-4.49s2.01-4.49,4.49-4.49h20.45c2.48,0,4.49,2.01,4.49,4.49
					S62.64,122.38,60.17,122.38z"/>
			</g>
		</g>
	</g>
</g>
</svg>
