<?xml version="1.0" encoding="utf-8"?>
<!-- Generator: Adobe Illustrator 24.0.1, SVG Export Plug-In . SVG Version: 6.00 Build 0)  -->
<svg version="1.1" id="圖層_1_拷貝_5" xmlns="http://www.w3.org/2000/svg" xmlns:xlink="http://www.w3.org/1999/xlink" x="0px"
	 y="0px" viewBox="0 0 192.75 262.47" style="enable-background:new 0 0 192.75 262.47;" xml:space="preserve">
<style type="text/css">
	.st0{fill:#E8F7F7;}
</style>
<g>
	<g>
		<g>
			<g>
				<path class="st0" d="M181.74,259.18H38.75c-18.51,0-33.58-15.06-33.58-33.58V36.87c0-18.51,15.06-33.58,33.58-33.58h144.33
					c2.48,0,4.49,2.01,4.49,4.49s-2.01,4.49-4.49,4.49H38.75c-13.56,0-24.6,11.03-24.6,24.6v188.75c0,13.56,11.04,24.6,24.6,24.6
					h138.5V63.87c0-2.48,2.01-4.49,4.49-4.49s4.49,2.01,4.49,4.49V254.7C186.23,257.17,184.21,259.18,181.74,259.18z"/>
			</g>
		</g>
		<g>
			<g>
				<path class="st0" d="M183.09,68.54H31.29c-14.4,0-26.12-11.72-26.12-26.12c0-2.48,2.01-4.49,4.49-4.49
					c2.48,0,4.49,2.01,4.49,4.49c0,9.45,7.68,17.14,17.14,17.14h151.79c2.48,0,4.49,2.01,4.49,4.49
					C187.57,66.53,185.57,68.54,183.09,68.54z"/>
			</g>
		</g>
		<g>
			<g>
				<path class="st0" d="M183.09,38.69H30.53c-2.48,0-4.49-2.01-4.49-4.49s2.01-4.49,4.49-4.49h152.55c2.48,0,4.49,2.01,4.49,4.49
					C187.58,36.68,185.57,38.69,183.09,38.69z"/>
			</g>
		</g>
	</g>
</g>
</svg>
