<?xml version="1.0" encoding="utf-8"?>
<!-- Generator: Adobe Illustrator 24.0.1, SVG Export Plug-In . SVG Version: 6.00 Build 0)  -->
<svg version="1.1" id="圖層_1_拷貝_5" xmlns="http://www.w3.org/2000/svg" xmlns:xlink="http://www.w3.org/1999/xlink" x="0px"
	 y="0px" viewBox="0 0 179.75 285.47" style="enable-background:new 0 0 179.75 285.47;" xml:space="preserve">
<style type="text/css">
	.st0{fill:#E8F7F7;}
</style>
<g>
	<g>
		<g>
			<g>
				<path class="st0" d="M151.87,281.5H27.88c-12.49,0-22.67-10.17-22.67-22.67V26.64c0-12.5,10.17-22.67,22.67-22.67h123.98
					c12.49,0,22.67,10.17,22.67,22.67v232.19C174.54,271.33,164.37,281.5,151.87,281.5z M27.88,12.96
					c-7.55,0-13.68,6.14-13.68,13.69v232.19c0,7.55,6.14,13.68,13.68,13.68h123.98c7.55,0,13.68-6.14,13.68-13.68V26.64
					c0-7.55-6.14-13.69-13.68-13.69L27.88,12.96L27.88,12.96z"/>
			</g>
		</g>
		<g>
			<g>
				<path class="st0" d="M170.04,61.32H9.71c-2.48,0-4.49-2.01-4.49-4.49c0-2.48,2.01-4.49,4.49-4.49h160.33
					c2.48,0,4.49,2.01,4.49,4.49C174.54,59.31,172.52,61.32,170.04,61.32z"/>
			</g>
		</g>
		<g>
			<g>
				<path class="st0" d="M170.04,226.9H9.71c-2.48,0-4.49-2.01-4.49-4.49c0-2.48,2.01-4.49,4.49-4.49h160.33
					c2.48,0,4.49,2.01,4.49,4.49S172.52,226.9,170.04,226.9z"/>
			</g>
		</g>
		<g>
			<g>
				<path class="st0" d="M110.18,39.18H69.57c-2.48,0-4.49-2.01-4.49-4.49s2.01-4.49,4.49-4.49h40.62c2.48,0,4.49,2.01,4.49,4.49
					C114.68,37.17,112.66,39.18,110.18,39.18z"/>
			</g>
		</g>
		<g>
			<g>
				<path class="st0" d="M89.88,268.04c-10.38,0-18.83-8.45-18.83-18.83s8.45-18.83,18.83-18.83s18.82,8.45,18.82,18.83
					S100.26,268.04,89.88,268.04z M89.88,239.36c-5.43,0-9.85,4.42-9.85,9.85s4.42,9.85,9.85,9.85c5.42,0,9.84-4.42,9.84-9.85
					S95.3,239.36,89.88,239.36z"/>
			</g>
		</g>
	</g>
</g>
</svg>
