<?xml version="1.0" encoding="utf-8"?>
<!-- Generator: Adobe Illustrator 24.0.1, SVG Export Plug-In . SVG Version: 6.00 Build 0)  -->
<svg version="1.1" id="圖層_1" xmlns="http://www.w3.org/2000/svg" xmlns:xlink="http://www.w3.org/1999/xlink" x="0px" y="0px"
	 viewBox="0 0 194.8 47" style="enable-background:new 0 0 194.8 47;" xml:space="preserve">
<style type="text/css">
	.st0{enable-background:new    ;}
	.st1{fill:#0F9E9B;}
</style>
<g class="st0">
	<path class="st1" d="M29.2,36.5V18.7c0-0.6-0.1-1.1-0.4-1.6c-0.2-0.4-0.6-0.8-0.9-1c-0.8-0.4-1.7-0.4-2.7,0.1
		c-0.5,0.2-1,0.6-1.5,1.1s-0.8,1.2-1.1,2v17.2h-6.9V18.4c0-0.8-0.2-1.4-0.7-1.9c-0.6-0.6-1.4-0.7-2.4-0.5c-0.4,0.1-0.9,0.3-1.3,0.6
		c-0.4,0.3-0.8,0.6-1.2,1.1c-0.8,1.1-1.2,2.3-1.2,3.6v15.3H2.1V12.1h6.8v3c0.8-1.3,1.7-2.1,2.7-2.7c0.7-0.3,1.4-0.6,2.1-0.7
		c0.7-0.1,1.4-0.2,2.2-0.1c0.7,0,1.3,0.1,1.9,0.3c0.6,0.2,1.2,0.5,1.7,0.9c0.4,0.3,0.8,0.7,1.1,1.1c0.3,0.4,0.6,0.9,0.7,1.4
		c0.5-0.8,1.1-1.5,1.9-2c0.7-0.5,1.5-0.9,2.4-1.1c0.8-0.2,1.6-0.4,2.5-0.4c0.9,0,1.7,0,2.6,0.2c0.8,0.2,1.5,0.5,2.2,0.9
		s1.2,1,1.7,1.7c1,1.3,1.4,2.8,1.4,4.5v17.6H29.2z"/>
	<path class="st1" d="M52.7,42.1c-0.2,0.4-0.4,0.9-0.7,1.3c-0.3,0.4-0.7,0.8-1.2,1.2c-0.4,0.4-0.9,0.6-1.5,0.9
		c-0.5,0.2-1.1,0.3-1.7,0.3h-6.7l-1.4-4.1h4.1c1.1,0,1.8-0.5,2.1-1.4l1.8-4.8l-9.2-23.4H46L51,26l5-13.9h7.6L52.7,42.1z"/>
	<path class="st1" d="M84.5,36.5h-7.3L64.1,2.9h8L80.9,27l8.8-24.1h8L84.5,36.5z"/>
	<path class="st1" d="M101.4,9.4V2.9h7.1v6.5H101.4z M101.4,36.5V12.1h7.1v24.5H101.4z"/>
	<path class="st1" d="M129.7,36.5v-1.7c-1.6,1.3-3.5,2.1-5.6,2.2c-1.3,0.1-2.6-0.1-3.7-0.6c-1.2-0.4-2.2-1.1-3.2-1.9
		c-1.2-1-2-2.1-2.5-3.2c-0.5-1.1-0.9-2.4-1.1-3.9c-0.2-1.5-0.3-2.9-0.2-4.3c0.1-1.4,0.3-2.8,0.7-4.2c0.4-1.3,0.9-2.4,1.6-3.3
		c0.7-1,1.6-1.8,2.7-2.5c1.7-1.1,3.5-1.6,5.6-1.6c1.1,0,2.1,0.2,3.1,0.5c1,0.3,1.9,0.9,2.7,1.6V2.9h7.1v33.7H129.7z M129.7,18.5
		c-0.3-0.6-0.8-1.1-1.3-1.5s-1.1-0.7-1.8-0.9c-0.7-0.2-1.5-0.1-2.2,0.1c-0.7,0.2-1.3,0.6-1.8,1.2c-0.6,0.6-0.9,1.4-1.1,2.2
		c-0.2,0.8-0.3,1.6-0.4,2.4c-0.1,1-0.1,2.1-0.1,3s0.1,2,0.3,3c0.1,0.7,0.3,1.4,0.5,2c0.2,0.6,0.6,1.2,1.2,1.6c1,0.7,2.1,1,3.4,0.8
		c1.4-0.2,2.5-0.7,3.4-1.7V18.5z"/>
	<path class="st1" d="M163,31.7c-0.7,1.3-1.6,2.4-2.6,3.2c-1.1,0.9-2.4,1.4-3.8,1.7c-1.4,0.3-2.8,0.4-4.2,0.4
		c-1.9,0-3.7-0.4-5.4-1.1c-1.7-0.7-3.1-1.8-4.2-3.4c-0.8-1.1-1.4-2.4-1.7-3.7s-0.5-2.8-0.5-4.3c0-1.4,0.2-2.7,0.5-4.1
		c0.4-1.3,0.9-2.6,1.6-3.8c0.9-1.3,2-2.4,3.3-3.2s2.7-1.3,4.3-1.6c1.3-0.2,2.6-0.3,4-0.1c1.4,0.2,2.7,0.5,3.9,1.1
		c1.1,0.5,2,1.2,2.9,2.1c0.9,0.9,1.5,1.9,2,3c0.8,1.7,1,3.5,0.8,5.4c-0.1,0.7-0.3,1.2-0.8,1.6c-0.4,0.4-1,0.6-1.7,0.6H148
		c0,1,0.1,2,0.3,3c0.2,1,0.6,2,1.2,2.8c0.4,0.6,0.9,1,1.5,1.3c0.6,0.3,1.1,0.4,1.7,0.4c0.6,0,1.2-0.2,1.8-0.5c0.6-0.3,1-0.8,1.4-1.4
		c0.5-0.9,0.8-2,0.9-3.2h7.4C164.1,29.1,163.7,30.4,163,31.7z M156.1,19.6c-0.1-0.6-0.2-1.2-0.5-1.7c-0.5-1.1-1.3-1.8-2.5-2
		c-0.6-0.1-1.2,0-1.9,0.2c-0.6,0.2-1.2,0.6-1.6,1.1c-0.4,0.6-0.8,1.2-1,2c-0.2,0.7-0.4,1.5-0.5,2.2h7.8
		C156.2,20.8,156.2,20.2,156.1,19.6z"/>
	<path class="st1" d="M190.9,24.6c0,1.2-0.2,2.4-0.4,3.7c-0.2,1.3-0.6,2.4-1.2,3.5c-1,1.7-2.3,3-3.9,3.9c-1.7,0.9-3.5,1.4-5.5,1.4
		c-2.1,0.1-4-0.2-5.7-0.8c-1.6-0.6-3-1.5-4.1-2.8c-1.9-2.2-2.9-5.1-3-8.7c0-1.7,0.2-3.4,0.6-5.1c0.5-1.7,1.3-3.2,2.4-4.5
		c1.1-1.2,2.4-2.1,3.9-2.7c1.5-0.6,3.1-0.9,4.8-0.9c1.8,0,3.5,0.4,5.1,1.1c1.6,0.7,2.9,1.8,4,3.2c1,1.3,1.8,2.7,2.2,4.1
		C190.7,21.4,190.9,23,190.9,24.6z M182.9,29.2c0.1-0.8,0.2-1.6,0.3-2.4c0.1-0.8,0.2-1.7,0.2-2.6c0-0.9,0-1.7-0.1-2.6
		c-0.1-0.8-0.3-1.6-0.5-2.4c-0.3-0.9-0.7-1.7-1.3-2.3c-0.5-0.6-1.3-1-2.4-1c-1.1,0-2,0.3-2.6,0.9c-0.6,0.7-1.1,1.5-1.4,2.5
		c-0.2,0.6-0.3,1.3-0.4,2.2c-0.1,0.8-0.1,1.7-0.2,2.6s0,1.7,0.1,2.6c0.1,0.9,0.2,1.6,0.3,2.3c0.2,1.1,0.7,2.1,1.3,2.8
		s1.6,1.1,2.8,1.1c1.1,0,2-0.3,2.6-1C182.3,31.1,182.7,30.2,182.9,29.2z"/>
</g>
</svg>
