<?xml version="1.0" encoding="utf-8"?>
<!-- Generator: Adobe Illustrator 24.0.1, SVG Export Plug-In . SVG Version: 6.00 Build 0)  -->
<svg version="1.1" id="圖層_1" xmlns="http://www.w3.org/2000/svg" xmlns:xlink="http://www.w3.org/1999/xlink" x="0px" y="0px"
	 viewBox="0 0 277.25 47" style="enable-background:new 0 0 277.25 47;" xml:space="preserve">
<style type="text/css">
	.st0{enable-background:new    ;}
	.st1{fill:#0F9E9B;}
</style>
<g class="st0">
	<path class="st1" d="M36.71,16.03v-3.54c0-0.25-0.12-0.47-0.35-0.69s-0.47-0.32-0.71-0.32H10.4c-0.15,0-0.32,0.08-0.51,0.25
		c-0.18,0.17-0.28,0.33-0.28,0.48v3.77h-6.3v-5.34c0-0.52,0.1-0.97,0.3-1.36c0.2-0.38,0.47-0.71,0.81-0.99
		C4.78,8,5.21,7.77,5.7,7.62c0.49-0.15,0.98-0.23,1.47-0.23h12.28c-0.15-0.4-0.32-0.88-0.51-1.45s-0.35-1.04-0.51-1.4h7.36
		c0.43,0.89,0.9,1.84,1.43,2.85H39.1c0.61,0,1.17,0.08,1.68,0.25c0.51,0.17,0.94,0.42,1.31,0.76c0.67,0.61,1.01,1.49,1.01,2.62v5.01
		H36.71z M40.94,43.86c-0.67,0.64-1.64,0.97-2.9,0.97H8c-0.52,0-1.02-0.12-1.5-0.34c-0.48-0.23-0.88-0.54-1.22-0.94
		c-0.31-0.34-0.55-0.72-0.74-1.15c-0.18-0.43-0.28-0.87-0.28-1.33v-7.31c0-1.23,0.35-2.16,1.06-2.81c0.74-0.74,1.78-1.1,3.13-1.1
		h29.49c1.2,0,2.16,0.32,2.9,0.97c0.34,0.34,0.61,0.73,0.83,1.17c0.21,0.44,0.32,0.97,0.32,1.59v7.68
		C42,42.35,41.65,43.22,40.94,43.86z M39.05,27.3c-0.64,0.55-1.49,0.83-2.53,0.83h-27c-0.89,0-1.66-0.35-2.3-1.06
		c-0.55-0.61-0.83-1.3-0.83-2.07v-2.9c0-1.07,0.35-1.89,1.06-2.44c0.61-0.49,1.47-0.74,2.58-0.74H36.2c1.13,0,2.05,0.31,2.76,0.92
		c0.71,0.61,1.06,1.44,1.06,2.48v2.76C40.02,26.08,39.7,26.81,39.05,27.3z M19.87,33.47h-8.28c-0.18,0-0.34,0.08-0.48,0.23
		c-0.14,0.15-0.21,0.31-0.21,0.46v1.38h8.97V33.47z M19.87,39.12H10.9v1.38c0,0.15,0.08,0.32,0.23,0.48
		c0.15,0.17,0.31,0.25,0.46,0.25h8.28V39.12z M11.22,17.09V13.5h24.1v3.59H11.22z M33.07,23.16c0-0.15-0.06-0.29-0.18-0.41
		c-0.12-0.12-0.26-0.18-0.41-0.18H13.62c-0.15,0-0.28,0.05-0.37,0.16c-0.09,0.11-0.14,0.24-0.14,0.39v0.74
		c0,0.15,0.05,0.28,0.16,0.39c0.11,0.11,0.24,0.16,0.39,0.16h18.86c0.15,0,0.28-0.05,0.39-0.16c0.11-0.11,0.16-0.24,0.16-0.39V23.16
		z M35.42,34.2c0-0.18-0.09-0.35-0.28-0.51c-0.18-0.15-0.35-0.23-0.51-0.23H26.4v2.07h9.02V34.2z M35.42,39.12H26.4v2.12h8.37
		c0.15,0,0.3-0.08,0.44-0.23c0.14-0.15,0.21-0.31,0.21-0.46V39.12z"/>
	<path class="st1" d="M66.38,34.18c-1.44,0.2-2.79,0.38-4.05,0.53c-0.37,1.9-0.8,3.67-1.29,5.31c-0.49,1.64-1.21,3.3-2.16,4.99
		h-7.73c1.07-1.53,1.89-3.04,2.46-4.53s1.07-3.12,1.5-4.9c-0.98,0.12-2.05,0.23-3.2,0.32s-2.12,0.12-2.92,0.09v-4.37
		c0.43-0.03,0.94-0.07,1.54-0.11c0.6-0.05,1.22-0.1,1.86-0.16s1.27-0.12,1.86-0.18c0.6-0.06,1.11-0.11,1.54-0.14
		c0.12-0.98,0.21-2,0.28-3.06c0.06-1.06,0.11-2.12,0.14-3.2h-6.16v-4.42h6.21v-5.52c-1.07,0.21-2.25,0.42-3.54,0.62
		c-1.29,0.2-2.44,0.33-3.45,0.39v-4.32c0.49-0.06,1.05-0.13,1.68-0.21c0.63-0.08,1.27-0.16,1.91-0.25s1.27-0.18,1.86-0.28
		c0.6-0.09,1.11-0.17,1.54-0.23V4.35h6.76v5.01c2.27-0.34,4.51-0.78,6.72-1.33v4.42c-1.07,0.25-2.18,0.48-3.31,0.71
		c-1.13,0.23-2.27,0.42-3.4,0.58v6.62h6.16v4.42h-6.21c-0.03,0.89-0.06,1.79-0.09,2.71c-0.03,0.92-0.08,1.83-0.14,2.71
		c1.26-0.09,2.51-0.22,3.77-0.39c1.26-0.17,2.51-0.36,3.77-0.58v4.42C69.12,33.8,67.82,33.98,66.38,34.18z M89.56,31.58
		c0.03,1.17-0.02,2.21-0.16,3.13c-0.14,0.92-0.42,1.72-0.85,2.39c-0.46,0.8-1.13,1.4-2,1.79s-2.03,0.6-3.47,0.6h-3.27l-1.1-4.42
		h3.13c0.34,0,0.62-0.11,0.85-0.32c0.23-0.21,0.38-0.49,0.44-0.83c0.12-0.98,0.12-1.99,0-3.04c-0.12-1.04-0.32-2.07-0.6-3.08
		c-0.28-1.01-0.61-1.98-1.01-2.9c-0.4-0.92-0.8-1.76-1.2-2.53c-0.34-0.61-0.52-1.12-0.55-1.52c-0.03-0.31,0.05-0.77,0.23-1.38
		c0.49-1.66,0.95-3.32,1.38-4.99c0.43-1.67,0.86-3.29,1.29-4.85c0.06-0.12,0.04-0.24-0.07-0.35c-0.11-0.11-0.24-0.16-0.39-0.16
		h-3.68c-0.12,0-0.25,0.06-0.39,0.18c-0.14,0.12-0.21,0.26-0.21,0.41v35.28H71.3V8.26c0-0.92,0.29-1.7,0.87-2.35
		c0.67-0.83,1.58-1.24,2.71-1.24h11.55c0.52,0,1,0.13,1.45,0.39c0.44,0.26,0.81,0.61,1.08,1.04c0.25,0.37,0.42,0.78,0.53,1.24
		c0.11,0.46,0.08,0.92-0.07,1.38c-0.52,1.81-1.05,3.61-1.59,5.4c-0.54,1.79-1.11,3.66-1.73,5.59c-0.06,0.18-0.1,0.38-0.11,0.58
		c-0.02,0.2,0.05,0.41,0.21,0.62c0.89,1.56,1.66,3.25,2.3,5.06S89.5,29.65,89.56,31.58z"/>
	<path class="st1" d="M103.34,12.63c-0.6,2.67-1.31,5.31-2.14,7.91h1.56v24.52H96.6V21.88h-2.3c0.98-2.82,1.86-5.68,2.65-8.58
		c0.78-2.9,1.39-5.83,1.82-8.81h6.16C104.47,7.25,103.94,9.96,103.34,12.63z M134.55,45.01h-13.06c-1.81,0-3.7-0.34-5.66-1.01
		c-0.86-0.31-1.67-0.66-2.44-1.06c-0.77-0.4-1.46-0.86-2.07-1.38c-0.25,0.55-0.51,1.13-0.78,1.72c-0.28,0.6-0.58,1.19-0.92,1.77
		h-5.93c0.67-1.35,1.3-2.68,1.89-4s1.1-2.68,1.56-4.09c-1.78-2.88-2.96-5.96-3.54-9.25h4.09c0.06,0.46,0.19,1,0.39,1.61
		c0.2,0.61,0.41,1.13,0.62,1.56c0.24-0.95,0.42-1.95,0.53-2.99c0.11-1.04,0.21-2.04,0.3-2.99h-1.93c-1.04,0-1.79-0.32-2.25-0.97
		c-0.4-0.64-0.43-1.47-0.09-2.48c0.64-1.81,1.27-3.67,1.89-5.59c0.61-1.92,1.17-3.79,1.66-5.63h-3.54V6.28h6.85
		c0.61,0,1.13,0.14,1.54,0.41s0.73,0.63,0.94,1.06c0.18,0.37,0.29,0.77,0.32,1.2c0.03,0.43-0.02,0.86-0.14,1.29
		c-0.52,1.81-1.07,3.6-1.63,5.38c-0.57,1.78-1.14,3.56-1.73,5.34h0.87c0.89,0,1.61,0.28,2.16,0.83c0.49,0.52,0.71,1.23,0.64,2.12
		c-0.15,2.45-0.42,4.75-0.8,6.88c-0.38,2.13-0.91,4.38-1.59,6.74c0.55,0.55,1.2,1.04,1.93,1.45c0.74,0.41,1.52,0.76,2.35,1.04
		c0.89,0.31,1.81,0.53,2.76,0.67c0.95,0.14,1.84,0.21,2.67,0.21h13.39L134.55,45.01z M133.86,17.6v2.94c0,0.86-0.32,1.64-0.97,2.35
		c-0.25,0.25-0.52,0.45-0.83,0.62c-0.31,0.17-0.64,0.25-1.01,0.25h-3.77v2.44h6.85v3.77h-6.85v2.25h8v3.96h-8v3.22l-5.98,0.05v-3.27
		H115v-3.96h6.3v-2.25h-5.15V26.2h5.15v-2.44h-5.24v-3.73h5.24V17.6h-6.67v-3.82h6.67v-2.39h-5.34V7.62h5.34V4.49h5.98v3.13h3.31
		c0.46,0,0.91,0.1,1.36,0.3c0.44,0.2,0.83,0.48,1.17,0.85c0.21,0.25,0.39,0.52,0.53,0.83c0.14,0.31,0.21,0.64,0.21,1.01v3.17h1.79
		v3.82H133.86z M129.26,12.12c0-0.15-0.08-0.31-0.25-0.48c-0.17-0.17-0.33-0.25-0.48-0.25h-1.24v2.39h1.98V12.12z M129.26,17.6
		h-1.98v2.44h1.2c0.18,0,0.36-0.08,0.53-0.25c0.17-0.17,0.25-0.33,0.25-0.48V17.6z"/>
	<path class="st1" d="M179.4,24.5v2.39c0,0.77-0.13,1.4-0.39,1.89c-0.26,0.49-0.61,0.91-1.03,1.24c-0.46,0.31-0.99,0.52-1.59,0.64
		c-0.6,0.12-1.25,0.18-1.96,0.18h-6.39v10.4c0,1.1-0.34,1.99-1.01,2.67c-0.67,0.74-1.58,1.1-2.71,1.1h-4.46l-1.38-3.91h2.58
		c0.15,0,0.3-0.06,0.44-0.18c0.14-0.12,0.21-0.29,0.21-0.51v-9.57h-10.81v-4h10.81V24.5h-13.06v7.27c0,4.54-0.41,8.97-1.24,13.29
		h-6.53c0.49-2.02,0.82-3.93,0.99-5.73s0.25-3.75,0.25-5.86V12.4c0-1.44,0.41-2.58,1.24-3.4s1.99-1.24,3.5-1.24h12.51
		c-0.25-0.46-0.48-0.98-0.71-1.56c-0.23-0.58-0.41-1.12-0.53-1.61h7.54c0.21,0.52,0.44,1.05,0.67,1.59
		c0.23,0.54,0.48,1.07,0.76,1.59h14.21v3.96h-13.25v2.48h7.77c0.55,0,1.05,0.12,1.5,0.37c0.44,0.25,0.83,0.55,1.17,0.92
		c0.61,0.71,0.92,1.53,0.92,2.48v2.58h2.53v3.96H179.4z M158.1,41.22c-0.71,0.94-1.49,1.86-2.35,2.78h-7.5
		c0.89-0.86,1.73-1.79,2.53-2.81c0.8-1.01,1.52-1.99,2.16-2.94h7.27C159.51,39.29,158.81,40.28,158.1,41.22z M161.69,18.15h-10.9
		v-3.96h10.9v-2.48h-11.78c-0.34,0-0.64,0.13-0.9,0.39c-0.26,0.26-0.39,0.56-0.39,0.9v7.54h13.06V18.15z M153.23,36.78
		c-0.71-0.71-1.43-1.44-2.16-2.21c-0.74-0.77-1.4-1.56-1.98-2.39h7.45c0.71,0.8,1.43,1.57,2.19,2.32c0.75,0.75,1.54,1.51,2.37,2.28
		H153.23z M173.33,18.98c0-0.55-0.23-0.83-0.69-0.83h-4.6v2.39h5.29V18.98z M173.33,24.5h-5.29v2.35h4.6c0.18,0,0.34-0.07,0.48-0.21
		c0.14-0.14,0.21-0.31,0.21-0.53V24.5z M179.17,34.43c-0.71,0.8-1.41,1.55-2.12,2.25H169c0.71-0.64,1.46-1.37,2.25-2.19
		c0.8-0.81,1.5-1.65,2.12-2.51h7.68C180.5,32.82,179.88,33.64,179.17,34.43z M173.93,43.86c-0.8-0.92-1.58-1.87-2.35-2.85
		s-1.47-1.96-2.12-2.94h7.45c0.8,1.04,1.59,2.03,2.39,2.97c0.8,0.94,1.67,1.88,2.62,2.83H173.93z"/>
	<path class="st1" d="M222.87,10.38c0.12,0.21,0.27,0.5,0.44,0.85c0.17,0.35,0.35,0.73,0.55,1.13c0.2,0.4,0.4,0.77,0.6,1.13
		s0.36,0.64,0.48,0.85h-6.58c-0.34-0.58-0.65-1.23-0.94-1.96c-0.29-0.72-0.54-1.39-0.76-2h-1.43c-0.09,0.25-0.21,0.55-0.34,0.92
		c-0.14,0.37-0.29,0.74-0.46,1.13c-0.17,0.38-0.33,0.74-0.48,1.08c-0.15,0.34-0.28,0.61-0.37,0.83h-3.13
		c0.12,0.31,0.26,0.67,0.41,1.1c0.15,0.43,0.28,0.77,0.37,1.01h12.05c1.29,0,2.3,0.41,3.04,1.24c0.64,0.64,0.97,1.53,0.97,2.67v3.45
		h-4.46c0.25,0.34,0.41,0.74,0.51,1.2s0.14,0.91,0.14,1.33v2.53c0,1.1-0.26,1.93-0.78,2.48c-0.55,0.61-1.38,0.92-2.48,0.92h-23.41
		v2.25h24.52c1.17,0,2.08,0.34,2.76,1.01c0.67,0.67,1.01,1.61,1.01,2.81v3.13c0,0.43-0.09,0.85-0.28,1.26
		c-0.18,0.41-0.43,0.77-0.74,1.08c-0.34,0.34-0.71,0.6-1.13,0.78c-0.41,0.18-0.85,0.28-1.31,0.28h-27.69
		c-0.92,0-1.78-0.35-2.58-1.06c-0.34-0.31-0.62-0.67-0.85-1.08c-0.23-0.41-0.34-0.83-0.34-1.26V26.38c0-0.43,0.08-0.9,0.25-1.4
		c0.17-0.51,0.42-0.9,0.76-1.17h-3.86v-4.05c0-0.89,0.37-1.66,1.1-2.3c0.34-0.31,0.72-0.55,1.15-0.74c0.43-0.18,0.86-0.28,1.29-0.28
		h12.79c-0.25-0.67-0.48-1.36-0.69-2.07h-4.09c-0.31-0.55-0.6-1.2-0.87-1.96c-0.28-0.75-0.52-1.43-0.74-2.05h-1.29
		c-0.06,0.15-0.18,0.41-0.37,0.76c-0.18,0.35-0.38,0.73-0.6,1.13c-0.21,0.4-0.42,0.79-0.62,1.17s-0.36,0.68-0.48,0.9h-7.45
		c1.04-1.53,1.94-3.13,2.69-4.78c0.75-1.66,1.43-3.34,2.05-5.06h7.08c-0.12,0.4-0.24,0.74-0.34,1.01c-0.11,0.28-0.24,0.61-0.39,1.01
		h9.66v3.86h-3.5c0.18,0.52,0.44,1.15,0.78,1.89c0.34,0.74,0.67,1.36,1.01,1.89h1.06c0.8-1.56,1.51-3.15,2.14-4.76
		c0.63-1.61,1.2-3.24,1.72-4.9h6.76c-0.06,0.4-0.15,0.74-0.25,1.01c-0.11,0.28-0.24,0.61-0.39,1.01h11.04v3.86H222.87z
		 M220.57,21.05c0-0.18-0.08-0.35-0.23-0.51c-0.15-0.15-0.32-0.23-0.51-0.23h-25.07c-0.21,0-0.41,0.08-0.58,0.23
		c-0.17,0.15-0.25,0.34-0.25,0.55v1.47h26.63V21.05z M216.75,26.8c0-0.15-0.09-0.28-0.28-0.39c-0.18-0.11-0.35-0.16-0.51-0.16
		h-18.12c-0.25,0-0.48,0.09-0.71,0.28c-0.23,0.18-0.34,0.41-0.34,0.69v1.66h19.18c0.21,0,0.4-0.09,0.55-0.28
		c0.15-0.18,0.23-0.35,0.23-0.51V26.8z M218.32,38.8c0-0.25-0.08-0.44-0.23-0.6c-0.15-0.15-0.35-0.23-0.6-0.23h-20.7v2.35
		c0,0.21,0.07,0.42,0.21,0.62c0.14,0.2,0.33,0.3,0.58,0.3h20.06c0.21,0,0.38-0.08,0.51-0.25c0.12-0.17,0.18-0.34,0.18-0.53V38.8z"/>
	<path class="st1" d="M244.21,40.28c-1.26,0.52-2.55,1.02-3.86,1.5c-1.32,0.48-2.62,0.92-3.89,1.33s-2.43,0.73-3.47,0.94v-4.42
		c1.53-0.43,2.96-0.87,4.28-1.33V25h-3.31v-4.23h3.31V10.24h-4.23V6h14.4v4.23h-3.63v10.53h2.76V25h-2.76v10.86
		c0.25-0.06,0.53-0.15,0.85-0.25s0.67-0.23,1.04-0.37s0.72-0.27,1.06-0.39c0.34-0.12,0.63-0.23,0.87-0.32v4.28
		C246.61,39.26,245.47,39.75,244.21,40.28z M247.43,44.83v-4.19h9.84v-4.74h-8.33v-4.14h8.33v-4.23h-4.32
		c-1.1,0-2.04-0.35-2.81-1.06c-0.4-0.4-0.71-0.88-0.94-1.45c-0.23-0.57-0.34-1.22-0.34-1.96V8.49c0-1.17,0.41-2.12,1.24-2.85
		c0.74-0.64,1.58-0.97,2.53-0.97h15.27c1.35,0,2.38,0.4,3.08,1.2c0.37,0.4,0.64,0.84,0.8,1.31c0.17,0.48,0.25,0.96,0.25,1.45v15.18
		c0,1.07-0.35,1.96-1.06,2.67c-0.34,0.34-0.74,0.6-1.2,0.78c-0.46,0.18-0.98,0.28-1.56,0.28h-4.46v4.23h8.33v4.14h-8.33v4.74h9.75
		v4.19H247.43z M257.28,8.77h-1.84c-0.25,0-0.47,0.09-0.67,0.28c-0.2,0.18-0.3,0.38-0.3,0.6v4.32h2.81V8.77z M257.28,18.1h-2.81
		v4.37c0,0.21,0.12,0.42,0.35,0.62c0.23,0.2,0.44,0.3,0.62,0.3h1.84V18.1z M266.52,9.82c0-0.31-0.11-0.56-0.32-0.76
		c-0.21-0.2-0.46-0.3-0.74-0.3h-1.7v5.2h2.76V9.82z M266.52,18.1h-2.76v5.29h1.84c0.25,0,0.46-0.08,0.64-0.25s0.28-0.35,0.28-0.53
		V18.1z"/>
</g>
</svg>
