<?xml version="1.0" encoding="utf-8"?>
<!-- Generator: Adobe Illustrator 24.0.1, SVG Export Plug-In . SVG Version: 6.00 Build 0)  -->
<svg version="1.1" id="圖層_1" xmlns="http://www.w3.org/2000/svg" xmlns:xlink="http://www.w3.org/1999/xlink" x="0px" y="0px"
	 viewBox="0 0 341 47" style="enable-background:new 0 0 341 47;" xml:space="preserve">
<style type="text/css">
	.st0{enable-background:new    ;}
	.st1{fill:#0F9E9B;}
</style>
<g class="st0">
	<path class="st1" d="M29.56,32.61c-0.35,1.09-0.85,2.06-1.5,2.92c-1.56,2.09-3.82,3.45-6.76,4.09c-1.69,0.4-3.45,0.56-5.29,0.48
		c-1.84-0.08-3.59-0.24-5.24-0.48c-1.29-0.21-2.45-0.63-3.5-1.24c-1.04-0.61-1.95-1.38-2.71-2.3c-0.8-0.98-1.4-2.09-1.82-3.33
		c-0.41-1.24-0.62-2.55-0.62-3.93V5.9h7.41v24.06c0,0.95,0.17,1.78,0.51,2.48c0.34,0.71,0.78,1.32,1.33,1.84
		c0.64,0.58,1.38,1.02,2.21,1.31c0.83,0.29,1.69,0.44,2.58,0.44c0.92,0,1.81-0.15,2.67-0.46c0.86-0.31,1.59-0.77,2.21-1.38
		c0.52-0.52,0.93-1.13,1.22-1.82c0.29-0.69,0.44-1.5,0.44-2.42V5.9h7.41V29C30.08,30.31,29.91,31.52,29.56,32.61z"/>
	<path class="st1" d="M61.87,39.53V18l-8.79,21.53h-3.73L40.99,18v21.53h-6.67V5.9h7.27l9.98,21.34L61.09,5.9h7.5v33.63H61.87z"/>
	<path class="st1" d="M97.34,39.53l-3.68-9.15H82.8l-3.68,9.15h-7.68L85.28,5.9h5.93l13.8,33.63H97.34z M88.23,16.85l-3.63,9.34
		h7.27L88.23,16.85z"/>
	<path class="st1" d="M135.38,39.53V18l-8.79,21.53h-3.73L114.49,18v21.53h-6.67V5.9h7.27l9.98,21.34L134.6,5.9h7.5v33.63H135.38z"
		/>
	<path class="st1" d="M146.74,39.53V5.86h7.31v33.67H146.74z"/>
	<path class="st1" d="M193.29,18.92c-0.28-0.43-0.57-0.88-0.9-1.36s-0.61-0.91-0.85-1.31h-8.23v6.12h14.81v4.09h-14.81V37.6h16.24
		v4.05h-39.79V37.6h16.56V26.46h-14.95v-4.09h14.95v-6.12h-8.56c-0.28,0.46-0.54,0.9-0.81,1.31c-0.26,0.41-0.54,0.87-0.85,1.36h-8
		c1.66-2.51,3.07-4.99,4.25-7.43c1.18-2.44,2.28-4.79,3.29-7.06c0.34-0.71,0.82-1.31,1.45-1.82c0.63-0.51,1.34-0.76,2.14-0.76h20.79
		c0.74,0,1.46,0.25,2.18,0.74c0.72,0.49,1.23,1.06,1.54,1.7c0.46,1.04,1,2.2,1.61,3.47c0.61,1.27,1.26,2.56,1.93,3.86
		c0.67,1.3,1.37,2.58,2.09,3.84c0.72,1.26,1.43,2.41,2.14,3.45H193.29z M166.2,35.67c-0.92-1.26-1.7-2.51-2.35-3.77
		s-1.23-2.39-1.75-3.4h7.27c0.34,0.86,0.94,1.96,1.82,3.29c0.87,1.33,1.8,2.63,2.78,3.89H166.2z M188.51,9.42
		c-0.4-0.87-0.74-1.66-1.01-2.37c-0.09-0.25-0.27-0.46-0.53-0.64c-0.26-0.18-0.51-0.28-0.76-0.28h-12.79
		c-0.64,0-1.12,0.35-1.43,1.06c-0.34,0.8-0.7,1.62-1.08,2.46c-0.38,0.84-0.84,1.68-1.36,2.51h20.19
		C189.32,11.21,188.91,10.3,188.51,9.42z M195.59,32.38c-0.71,1.12-1.5,2.22-2.39,3.29h-7.82c0.98-1.26,1.87-2.45,2.67-3.56
		c0.8-1.12,1.55-2.32,2.25-3.61h7.54C197.05,29.96,196.3,31.26,195.59,32.38z"/>
	<path class="st1" d="M245,42.01h-33.12c-0.67,0-1.28-0.13-1.82-0.39c-0.54-0.26-1-0.61-1.4-1.04c-0.86-0.95-1.29-2.07-1.29-3.36
		V17.77c0-0.58,0.15-1.04,0.46-1.38h-2.76c1.78-2.39,3.43-4.85,4.97-7.36c1.53-2.51,2.94-5.11,4.23-7.77h7.59
		c-0.25,0.58-0.51,1.18-0.8,1.79c-0.29,0.61-0.61,1.21-0.94,1.79h15.78c0.55,0,1.05,0.13,1.5,0.39c0.44,0.26,0.8,0.61,1.08,1.04
		c0.28,0.46,0.44,0.97,0.48,1.54s-0.05,1.11-0.3,1.63c-0.12,0.31-0.32,0.67-0.6,1.1c-0.28,0.43-0.58,0.87-0.9,1.31
		c-0.32,0.45-0.64,0.88-0.97,1.31c-0.32,0.43-0.62,0.81-0.9,1.15h4.6c1.17,0,2.13,0.34,2.9,1.01c0.8,0.64,1.2,1.49,1.2,2.53
		l0.05,9.8c0,1.01-0.34,1.81-1.01,2.39c-0.34,0.34-0.75,0.57-1.24,0.71c-0.49,0.14-1.03,0.21-1.61,0.21h-25.94v5.66
		c0,0.28,0.12,0.54,0.37,0.78c0.25,0.25,0.49,0.37,0.74,0.37h31.1L245,42.01z M222.32,18.69h-7.41c-0.15,0-0.31,0.08-0.46,0.23
		c-0.15,0.15-0.23,0.31-0.23,0.46v7.45h8.1V18.69z M230.92,9.58c0.06-0.09,0.05-0.2-0.02-0.32c-0.08-0.12-0.16-0.18-0.25-0.18
		h-12.79c-0.49,0.89-1.01,1.78-1.56,2.67c-0.55,0.89-1.13,1.75-1.75,2.58h12.93c0.61-0.71,1.22-1.48,1.82-2.32
		C229.88,11.16,230.43,10.35,230.92,9.58z M237.13,19.38c0-0.15-0.08-0.31-0.25-0.46c-0.17-0.15-0.34-0.23-0.53-0.23h-7.18v8.14
		h7.13c0.25,0,0.44-0.09,0.6-0.28c0.15-0.18,0.23-0.37,0.23-0.55V19.38z"/>
	<path class="st1" d="M251.8,41.42v-4.23h39.88v4.23H251.8z M252.91,6.46V2.18h37.26v4.28H252.91z M254.7,23.02v-4.28h33.76v4.28
		H254.7z"/>
	<path class="st1" d="M322.96,40.86c-0.83-0.25-1.65-0.51-2.46-0.78c-0.81-0.28-1.51-0.54-2.09-0.78c-1.35,0.58-2.69,1.12-4.03,1.61
		c-1.33,0.49-2.68,0.98-4.02,1.47h-14.17c1.23-0.4,2.51-0.83,3.86-1.29c1.35-0.46,2.71-0.95,4.07-1.47
		c1.36-0.52,2.71-1.05,4.03-1.59c1.32-0.54,2.54-1.08,3.68-1.63c-2.09-0.98-4.05-2.08-5.89-3.31h-8.69
		c2.12-1.41,4.16-2.91,6.14-4.51c1.98-1.59,3.93-3.3,5.86-5.11h9.06c-0.25,0.31-0.54,0.64-0.87,0.99c-0.34,0.35-0.64,0.65-0.92,0.9
		h15.04c0.89,0,1.57,0.19,2.05,0.58c0.47,0.38,0.76,0.85,0.85,1.4c0.09,0.46,0.04,0.94-0.16,1.45s-0.54,0.97-1.03,1.4
		c-1.32,1.17-2.74,2.25-4.26,3.27c-1.52,1.01-3,1.92-4.44,2.71c2.21,0.86,4.6,1.68,7.18,2.46c2.58,0.78,5.11,1.53,7.59,2.23H322.96z
		 M307.97,17.04c-0.34-0.43-0.62-0.88-0.85-1.36c-0.23-0.48-0.45-0.96-0.67-1.45c-0.25,0.4-0.56,0.84-0.94,1.31
		c-0.38,0.48-0.82,0.97-1.31,1.5h-7.18c1.04-1.07,2.05-2.25,3.04-3.54s1.86-2.62,2.62-4h6.49c-0.15,0.4-0.34,0.81-0.55,1.24
		c-0.21,0.43-0.43,0.81-0.64,1.15h3.4c0.67,1.75,1.55,3.47,2.62,5.15H307.97z M309.79,21.54c-1.15,1.1-2.32,2.1-3.52,2.99h-9.15
		c1.29-0.8,2.61-1.75,3.96-2.85c1.35-1.1,2.67-2.3,3.96-3.59h7.82C311.96,19.29,310.94,20.44,309.79,21.54z M321.12,8.25v14.21
		h-6.76V8.25h-16.7V4.29h16.7V1.49h6.76v2.81h16.51v3.96H321.12z M312.16,29.36c-0.25,0.31-0.55,0.61-0.92,0.92
		c-0.37,0.31-0.67,0.55-0.92,0.74h2.99c0.77,0.46,1.57,0.9,2.42,1.31s1.69,0.81,2.55,1.17c0.49-0.25,1.06-0.54,1.7-0.87
		c0.64-0.34,1.3-0.69,1.98-1.06c0.67-0.37,1.33-0.75,1.98-1.15c0.64-0.4,1.2-0.75,1.66-1.06H312.16z M332.21,17.04
		c-0.31-0.46-0.6-0.93-0.87-1.4c-0.28-0.47-0.54-0.96-0.78-1.45c-0.25,0.37-0.57,0.83-0.97,1.38s-0.78,1.04-1.15,1.47h-6.99
		c1.04-1.17,2.05-2.39,3.01-3.68s1.77-2.58,2.42-3.86h6.26c-0.15,0.37-0.34,0.77-0.55,1.22c-0.21,0.45-0.45,0.84-0.69,1.17h3.31
		c0.89,1.78,1.98,3.5,3.27,5.15H332.21z M329.77,24.53c-1.29-0.98-2.54-2.01-3.75-3.08c-1.21-1.07-2.35-2.19-3.43-3.36h8.46
		c1.04,1.07,2.22,2.17,3.54,3.29c1.32,1.12,2.62,2.17,3.91,3.15H329.77z"/>
</g>
</svg>
