<?xml version="1.0" encoding="utf-8"?>
<!-- Generator: Adobe Illustrator 24.0.1, SVG Export Plug-In . SVG Version: 6.00 Build 0)  -->
<svg version="1.1" id="圖層_1" xmlns="http://www.w3.org/2000/svg" xmlns:xlink="http://www.w3.org/1999/xlink" x="0px" y="0px"
	 viewBox="0 0 137.75 47" style="enable-background:new 0 0 137.75 47;" xml:space="preserve">
<style type="text/css">
	.st0{enable-background:new    ;}
	.st1{fill:#0F9E9B;}
</style>
<g class="st0">
	<path class="st1" d="M13.46,37.56c-0.9,1.9-1.91,3.77-3.01,5.61H2.48c1.13-1.75,2.22-3.57,3.27-5.47c1.04-1.9,1.96-3.88,2.76-5.93
		h7.5C15.21,33.73,14.36,35.66,13.46,37.56z M2.94,12.45V8.08H19.6c-0.22-0.52-0.45-1.11-0.69-1.77c-0.25-0.66-0.44-1.3-0.6-1.91
		h7.77c0.21,0.58,0.45,1.19,0.71,1.82c0.26,0.63,0.54,1.25,0.85,1.86h15.82v4.37H2.94z M39.7,28.96c-0.68,0.77-1.61,1.15-2.81,1.15
		h-9.98V40.6c0,1.13-0.34,2.12-1.01,2.94c-0.34,0.43-0.74,0.76-1.2,0.99c-0.46,0.23-1,0.34-1.61,0.34h-8.33l-1.56-4.32h5.89
		c0.15,0,0.31-0.08,0.46-0.25c0.15-0.17,0.23-0.33,0.23-0.48v-9.71H9.66c-0.61,0-1.15-0.12-1.61-0.34c-0.46-0.23-0.86-0.54-1.2-0.94
		c-0.61-0.71-0.92-1.56-0.92-2.58v-7.41c0-1.01,0.34-1.82,1.01-2.44c0.8-0.8,1.78-1.2,2.94-1.2h26.5c1.38,0,2.45,0.37,3.22,1.1
		c0.71,0.64,1.06,1.55,1.06,2.71v7.22C40.66,27.32,40.34,28.22,39.7,28.96z M33.49,20.36c0-0.49-0.29-0.74-0.87-0.74H13.8
		c-0.21,0-0.39,0.08-0.53,0.23s-0.21,0.34-0.21,0.55V25c0,0.49,0.26,0.74,0.78,0.74H32.8c0.21,0,0.38-0.08,0.51-0.25
		c0.12-0.17,0.18-0.34,0.18-0.53V20.36z M35.97,43.17c-1.07-1.84-2.05-3.69-2.92-5.54c-0.87-1.85-1.66-3.76-2.37-5.73h7.5
		c0.77,1.96,1.6,3.86,2.51,5.68c0.9,1.83,2,3.69,3.29,5.59H35.97z"/>
	<path class="st1" d="M88.14,28.32H79.9c-0.49,0-0.99-0.14-1.5-0.41s-0.93-0.58-1.26-0.92c-0.25,0.21-0.59,0.48-1.04,0.8
		c-0.45,0.32-0.82,0.58-1.13,0.76h-9.34c1.5-0.95,2.96-1.98,4.37-3.08c1.41-1.1,2.81-2.28,4.19-3.54c-0.67-1.53-1.3-3.07-1.89-4.62
		c-0.58-1.55-1.13-3.1-1.66-4.67h-12.7c-0.15,0-0.29,0.05-0.41,0.16c-0.12,0.11-0.18,0.21-0.18,0.3v2.35h7.96
		c1.01,0,1.82,0.34,2.44,1.01c0.61,0.67,0.92,1.49,0.92,2.44v4.46c0,0.95-0.32,1.75-0.97,2.39c-0.4,0.37-0.87,0.64-1.4,0.8
		c-0.54,0.17-1.11,0.25-1.73,0.25h-4.6l-1.33-3.91h3.45c0.12,0,0.25-0.05,0.37-0.16s0.18-0.24,0.18-0.39v-2.58
		c0-0.09-0.05-0.19-0.16-0.3c-0.11-0.11-0.24-0.16-0.39-0.16l-4.69-0.05c-0.09,1.66-0.27,3.26-0.53,4.81
		c-0.26,1.55-0.7,3.04-1.31,4.48h-6.99c0.8-1.66,1.35-3.43,1.66-5.31c0.31-1.89,0.49-3.81,0.55-5.77V13c0-1.53,0.43-2.65,1.29-3.36
		c0.46-0.4,1.01-0.68,1.66-0.85c0.64-0.17,1.35-0.25,2.12-0.25h13.39c-0.15-0.49-0.35-1.12-0.6-1.89c-0.25-0.77-0.48-1.49-0.69-2.16
		h6.72c0.09,0.28,0.2,0.6,0.32,0.97c0.12,0.37,0.25,0.74,0.39,1.13c0.14,0.38,0.27,0.75,0.39,1.1c0.12,0.35,0.23,0.64,0.32,0.85h4
		C79.78,8.04,79.5,7.5,79.24,6.9c-0.26-0.6-0.47-1.17-0.62-1.72h6.3c0.28,0.52,0.54,1.08,0.81,1.68c0.26,0.6,0.56,1.16,0.9,1.68
		h2.48v4.09H77.69c0.46,1.38,1.03,2.75,1.7,4.09c0.21-0.25,0.5-0.59,0.85-1.04s0.65-0.82,0.9-1.13h7.41
		c-0.89,1.41-1.88,2.78-2.97,4.12s-2.28,2.64-3.56,3.93c0.09,0.18,0.2,0.4,0.32,0.64c0.12,0.25,0.26,0.46,0.41,0.64
		c0.12,0.15,0.29,0.27,0.51,0.34c0.21,0.08,0.41,0.12,0.6,0.12h5.75L88.14,28.32z M49.08,44.97v-4h2.44V34.2
		c0-1.2,0.34-2.18,1.01-2.94c0.77-0.83,1.89-1.24,3.36-1.24h26.86c1.38,0,2.42,0.35,3.13,1.06c0.77,0.74,1.15,1.83,1.15,3.27v6.62
		h2.48v4H49.08z M61.32,34.16h-2.9c-0.15,0-0.29,0.06-0.41,0.18c-0.12,0.12-0.18,0.23-0.18,0.32v6.3h3.5V34.16z M70.93,34.16h-3.45
		v6.81h3.45V34.16z M80.55,34.8c0-0.12-0.07-0.26-0.21-0.41c-0.14-0.15-0.28-0.23-0.44-0.23H77.1v6.81h3.45V34.8z"/>
	<path class="st1" d="M118.82,32.18v8.51c0,1.2-0.37,2.21-1.1,3.04c-0.37,0.43-0.83,0.76-1.38,0.99c-0.55,0.23-1.15,0.35-1.79,0.35
		h-8.88l-1.61-4.32h6.72c0.25,0,0.45-0.09,0.62-0.28c0.17-0.18,0.25-0.4,0.25-0.64v-7.64H94.76V27.9h16.88v-6.44h-11.36v-2.85h-5.2
		v-6.35c0-1.23,0.4-2.21,1.2-2.94c0.8-0.74,1.81-1.1,3.04-1.1h12.28c-0.25-0.61-0.48-1.25-0.69-1.91c-0.21-0.66-0.41-1.31-0.6-1.96
		h7.59c0.18,0.64,0.38,1.3,0.6,1.96c0.21,0.66,0.46,1.3,0.74,1.91h11.87c1.2,0,2.19,0.4,2.99,1.2c0.77,0.77,1.15,1.72,1.15,2.85
		v6.21h-5.34v2.99h-11.09v6.44h16.65v4.28H118.82z M128.16,13.23c0-0.52-0.28-0.78-0.83-0.78H102.9c-0.25,0-0.44,0.08-0.58,0.23
		s-0.21,0.34-0.21,0.55v3.96h26.04V13.23z"/>
</g>
</svg>
