<?xml version="1.0" encoding="utf-8"?>
<!-- Generator: Adobe Illustrator 24.0.1, SVG Export Plug-In . SVG Version: 6.00 Build 0)  -->
<svg version="1.1" id="圖層_1" xmlns="http://www.w3.org/2000/svg" xmlns:xlink="http://www.w3.org/1999/xlink" x="0px" y="0px"
	 viewBox="0 0 194.75 47" style="enable-background:new 0 0 194.75 47;" xml:space="preserve">
<style type="text/css">
	.st0{enable-background:new    ;}
	.st1{fill:#0F9E9B;}
</style>
<g class="st0">
	<path class="st1" d="M29.67,36.53V15l-8.79,21.53h-3.73L8.79,15v21.53H2.12V2.9h7.27l9.98,21.34L28.89,2.9h7.5v33.63H29.67z"/>
	<path class="st1" d="M53.04,42.14c-0.15,0.43-0.4,0.86-0.74,1.29c-0.34,0.43-0.73,0.82-1.17,1.17c-0.44,0.35-0.94,0.64-1.47,0.85
		c-0.54,0.21-1.1,0.32-1.68,0.32h-6.72l-1.43-4.09h4.09c1.07,0,1.78-0.46,2.12-1.38l1.84-4.83l-9.25-23.41h7.77L51.34,26l5.01-13.94
		h7.64L53.04,42.14z"/>
	<path class="st1" d="M93.75,36.53V15l-8.79,21.53h-3.73L72.86,15v21.53h-6.67V2.9h7.27l9.98,21.34L92.97,2.9h7.5v33.63H93.75z"/>
	<path class="st1" d="M120.34,36.53v-2.39c-0.67,0.67-1.4,1.21-2.19,1.61c-0.78,0.4-1.6,0.71-2.46,0.92
		c-1.56,0.37-2.99,0.47-4.28,0.3c-1.29-0.17-2.42-0.59-3.4-1.26c-1.01-0.71-1.8-1.69-2.37-2.97s-0.85-2.81-0.85-4.62V12.06h7.08
		v16.56c0,0.74,0.13,1.41,0.39,2.02c0.26,0.61,0.61,1.1,1.04,1.47c0.89,0.71,1.98,0.86,3.27,0.46c0.89-0.28,1.68-0.77,2.37-1.5
		c0.69-0.72,1.16-1.46,1.4-2.23V12.06h7.08v24.47H120.34z"/>
	<path class="st1" d="M145.22,19.1c-0.09-0.34-0.2-0.67-0.32-0.99c-0.12-0.32-0.29-0.64-0.51-0.94c-0.21-0.34-0.5-0.6-0.85-0.8
		c-0.35-0.2-0.74-0.33-1.17-0.39c-0.43-0.09-0.87-0.12-1.33-0.07s-0.89,0.12-1.29,0.21c-0.46,0.12-0.87,0.34-1.22,0.67
		s-0.5,0.74-0.44,1.26c0.03,0.43,0.2,0.81,0.51,1.15c0.31,0.34,0.72,0.58,1.24,0.74c0.74,0.18,1.5,0.39,2.3,0.62
		c0.8,0.23,1.58,0.47,2.35,0.71c0.77,0.25,1.5,0.49,2.19,0.74c0.69,0.25,1.29,0.49,1.82,0.74c0.95,0.43,1.8,0.99,2.55,1.68
		c0.75,0.69,1.29,1.54,1.63,2.55c0.31,0.89,0.43,1.84,0.37,2.85c-0.06,1.01-0.31,1.93-0.74,2.76c-0.55,1.07-1.26,1.93-2.14,2.58
		c-0.87,0.64-1.89,1.13-3.06,1.47c-0.61,0.15-1.29,0.28-2.02,0.37c-0.74,0.09-1.49,0.15-2.25,0.16c-0.77,0.01-1.53,0-2.28-0.05
		c-0.75-0.05-1.45-0.15-2.09-0.3c-1.17-0.28-2.27-0.71-3.31-1.29c-1.04-0.58-1.9-1.41-2.58-2.48c-0.43-0.67-0.77-1.42-1.01-2.23
		s-0.41-1.6-0.51-2.37h7.13c0.12,0.43,0.26,0.87,0.41,1.33s0.35,0.9,0.6,1.33c0.25,0.4,0.54,0.74,0.87,1.01
		c0.34,0.28,0.75,0.46,1.24,0.55c0.55,0.12,1.16,0.21,1.82,0.28c0.66,0.06,1.26-0.02,1.82-0.23c0.46-0.18,0.81-0.44,1.04-0.78
		c0.23-0.34,0.38-0.71,0.44-1.1c0.06-0.49-0.04-0.97-0.3-1.45c-0.26-0.47-0.67-0.83-1.22-1.08c-0.4-0.18-0.9-0.38-1.49-0.57
		c-0.6-0.2-1.24-0.4-1.91-0.6c-0.67-0.2-1.36-0.4-2.05-0.6c-0.69-0.2-1.31-0.36-1.86-0.48c-0.92-0.25-1.74-0.55-2.46-0.92
		c-0.72-0.37-1.33-0.84-1.82-1.43c-0.61-0.71-1.04-1.53-1.29-2.48c-0.25-0.95-0.31-1.87-0.18-2.76c0.15-1.2,0.58-2.28,1.29-3.27
		c0.71-0.98,1.59-1.73,2.67-2.25c1.2-0.58,2.53-0.97,4-1.15s2.93-0.18,4.37,0c1.23,0.15,2.36,0.44,3.4,0.85
		c1.04,0.41,1.98,1.08,2.81,2c0.61,0.68,1.1,1.37,1.47,2.09s0.67,1.51,0.92,2.37H145.22z"/>
	<path class="st1" d="M157.78,9.39V2.86h7.08v6.53H157.78z M157.78,36.53V12.06h7.08v24.47H157.78z"/>
	<path class="st1" d="M192.58,29.95c-0.26,0.86-0.62,1.67-1.08,2.44c-0.8,1.29-1.8,2.27-3.01,2.94c-1.21,0.67-2.54,1.15-3.98,1.43
		c-1.75,0.34-3.54,0.37-5.36,0.09c-1.82-0.28-3.43-0.89-4.81-1.84c-1.32-0.92-2.32-2.03-2.99-3.33s-1.13-2.69-1.38-4.16
		c-0.12-0.83-0.2-1.71-0.23-2.65c-0.03-0.93,0.01-1.87,0.11-2.81s0.31-1.84,0.6-2.71c0.29-0.87,0.67-1.66,1.13-2.37
		c0.74-1.13,1.68-2.15,2.83-3.04c1.15-0.89,2.35-1.5,3.61-1.84c1.23-0.34,2.49-0.53,3.79-0.58s2.57,0.1,3.8,0.44
		c1.26,0.34,2.38,0.86,3.36,1.56c0.98,0.71,1.78,1.58,2.39,2.62c0.77,1.26,1.18,2.65,1.24,4.19h-7.31c0-0.31-0.02-0.61-0.05-0.92
		c-0.03-0.31-0.08-0.61-0.14-0.92c-0.06-0.4-0.18-0.77-0.37-1.13c-0.18-0.35-0.46-0.67-0.83-0.94c-0.46-0.34-0.97-0.53-1.54-0.58
		c-0.57-0.05-1.11,0.04-1.63,0.25c-0.83,0.34-1.46,0.89-1.91,1.66c-0.45,0.77-0.76,1.55-0.94,2.35c-0.25,1.07-0.4,2.22-0.46,3.43
		c-0.06,1.21-0.03,2.38,0.09,3.52c0.09,0.86,0.24,1.67,0.44,2.44c0.2,0.77,0.62,1.47,1.26,2.12c0.43,0.46,0.94,0.79,1.54,0.99
		s1.22,0.22,1.86,0.07c0.52-0.09,1-0.28,1.43-0.58c0.43-0.29,0.77-0.7,1.01-1.22c0.25-0.52,0.43-1.11,0.55-1.77
		c0.12-0.66,0.2-1.25,0.23-1.77h7.31C193.03,28.22,192.84,29.09,192.58,29.95z"/>
</g>
</svg>
