<?xml version="1.0" encoding="utf-8"?>
<!-- Generator: Adobe Illustrator 24.0.1, SVG Export Plug-In . SVG Version: 6.00 Build 0)  -->
<svg version="1.1" id="圖層_1" xmlns="http://www.w3.org/2000/svg" xmlns:xlink="http://www.w3.org/1999/xlink" x="0px" y="0px"
	 viewBox="0 0 174.5 47" style="enable-background:new 0 0 174.5 47;" xml:space="preserve">
<style type="text/css">
	.st0{enable-background:new    ;}
	.st1{fill:#0F9E9B;}
</style>
<g class="st0">
	<path class="st1" d="M29.2,36.5V18.7c0-0.6-0.1-1.1-0.4-1.6c-0.2-0.4-0.6-0.8-0.9-1c-0.8-0.4-1.7-0.4-2.7,0.1
		c-0.5,0.2-1,0.6-1.5,1.1s-0.8,1.2-1.1,2v17.2h-6.9V18.4c0-0.8-0.2-1.4-0.7-1.9c-0.6-0.6-1.4-0.7-2.4-0.5c-0.4,0.1-0.9,0.3-1.3,0.6
		c-0.4,0.3-0.8,0.6-1.2,1.1c-0.8,1.1-1.2,2.3-1.2,3.6v15.3H2.1V12.1h6.8v3c0.8-1.3,1.7-2.1,2.7-2.7c0.7-0.3,1.4-0.6,2.1-0.7
		c0.7-0.1,1.4-0.2,2.2-0.1c0.7,0,1.3,0.1,1.9,0.3c0.6,0.2,1.2,0.5,1.7,0.9c0.4,0.3,0.8,0.7,1.1,1.1c0.3,0.4,0.6,0.9,0.7,1.4
		c0.5-0.8,1.1-1.5,1.9-2c0.7-0.5,1.5-0.9,2.4-1.1c0.8-0.2,1.6-0.4,2.5-0.4c0.9,0,1.7,0,2.6,0.2c0.8,0.2,1.5,0.5,2.2,0.9
		s1.2,1,1.7,1.7c1,1.3,1.4,2.8,1.4,4.5v17.6H29.2z"/>
	<path class="st1" d="M52.7,42.1c-0.2,0.4-0.4,0.9-0.7,1.3c-0.3,0.4-0.7,0.8-1.2,1.2c-0.4,0.4-0.9,0.6-1.5,0.9
		c-0.5,0.2-1.1,0.3-1.7,0.3h-6.7l-1.4-4.1h4.1c1.1,0,1.8-0.5,2.1-1.4l1.8-4.8l-9.2-23.4H46L51,26l5-13.9h7.6L52.7,42.1z"/>
	<path class="st1" d="M92.6,30.9c-0.7,2.1-1.9,3.5-3.6,4.4c-1.7,0.9-3.5,1.3-5.7,1.3H70c-1.1,0-2-0.3-2.8-1
		c-0.9-0.8-1.3-1.9-1.3-3.2V7c0-0.7,0.1-1.3,0.4-1.8c0.3-0.5,0.7-1,1.2-1.3c1-0.7,2.2-1.1,3.5-1.1h12.2c1.5,0,2.7,0.3,3.8,0.8
		s1.9,1.2,2.6,2.1c1.2,1.6,1.8,3.5,1.8,5.7c0,2.1-0.5,3.7-1.5,5.1c-1,1.3-2.6,2.2-4.6,2.5c0.8,0.1,1.6,0.2,2.4,0.4
		c0.8,0.2,1.5,0.5,2.2,1c0.7,0.5,1.3,1.2,1.8,2s0.8,1.8,1,2.7c0.2,1,0.3,2,0.2,3C93,29.1,92.8,30,92.6,30.9z M83.9,13.4
		c0.1-0.4,0.1-1,0.1-1.7s-0.1-1.4-0.3-2c-0.2-0.7-0.6-1.3-1.1-1.7c-0.6-0.6-1.4-0.8-2.3-0.8h-6.3c-0.3,0-0.6,0.1-0.7,0.3
		C73.1,7.6,73,7.9,73,8.1v8.8h6.5c1.4,0,2.5-0.3,3.3-1C83.4,15.4,83.8,14.5,83.9,13.4z M85.3,29.1c0.2-0.5,0.2-1.1,0.3-1.8
		c0-0.7,0-1.3-0.2-2c-0.1-0.7-0.4-1.3-0.7-1.9c-0.3-0.6-0.7-1-1.2-1.3c-0.5-0.3-1-0.5-1.6-0.6c-0.6-0.1-1.1-0.2-1.7-0.2H73v10.2
		c0,0.2,0.1,0.4,0.3,0.6c0.2,0.2,0.5,0.4,0.7,0.4h7.1c1,0,1.9-0.3,2.7-0.9C84.6,30.8,85.1,30,85.3,29.1z"/>
	<path class="st1" d="M119.6,24.6c0,1.2-0.2,2.4-0.4,3.7c-0.2,1.3-0.6,2.4-1.2,3.5c-1,1.7-2.3,3-3.9,3.9c-1.7,0.9-3.5,1.4-5.5,1.4
		c-2.1,0.1-4-0.2-5.7-0.8c-1.6-0.6-3-1.5-4.1-2.8c-1.9-2.2-2.9-5.1-3-8.7c0-1.7,0.2-3.4,0.6-5.1c0.5-1.7,1.3-3.2,2.4-4.5
		c1.1-1.2,2.4-2.1,3.9-2.7c1.5-0.6,3.1-0.9,4.8-0.9c1.8,0,3.5,0.4,5.1,1.1c1.6,0.7,2.9,1.8,4,3.2c1,1.3,1.8,2.7,2.2,4.1
		C119.5,21.4,119.7,23,119.6,24.6z M111.7,29.2c0.1-0.8,0.2-1.6,0.3-2.4c0.1-0.8,0.2-1.7,0.2-2.6c0-0.9,0-1.7-0.1-2.6
		c-0.1-0.8-0.3-1.6-0.5-2.4c-0.3-0.9-0.7-1.7-1.3-2.3c-0.5-0.6-1.3-1-2.4-1c-1.1,0-2,0.3-2.6,0.9c-0.6,0.7-1.1,1.5-1.4,2.5
		c-0.2,0.6-0.3,1.3-0.4,2.2c-0.1,0.8-0.1,1.7-0.2,2.6s0,1.7,0.1,2.6c0.1,0.9,0.2,1.6,0.3,2.3c0.2,1.1,0.7,2.1,1.3,2.8
		s1.6,1.1,2.8,1.1c1.1,0,2-0.3,2.6-1C111.1,31.1,111.5,30.2,111.7,29.2z"/>
	<path class="st1" d="M146.3,24.6c0,1.2-0.2,2.4-0.4,3.7c-0.2,1.3-0.6,2.4-1.2,3.5c-1,1.7-2.3,3-3.9,3.9c-1.7,0.9-3.5,1.4-5.5,1.4
		c-2.1,0.1-4-0.2-5.7-0.8c-1.6-0.6-3-1.5-4.1-2.8c-1.9-2.2-2.9-5.1-3-8.7c0-1.7,0.2-3.4,0.6-5.1c0.5-1.7,1.3-3.2,2.4-4.5
		c1.1-1.2,2.4-2.1,3.9-2.7s3.1-0.9,4.8-0.9c1.8,0,3.5,0.4,5.1,1.1c1.6,0.7,2.9,1.8,4,3.2c1,1.3,1.8,2.7,2.2,4.1
		C146.2,21.4,146.4,23,146.3,24.6z M138.4,29.2c0.1-0.8,0.2-1.6,0.3-2.4c0.1-0.8,0.2-1.7,0.2-2.6c0-0.9,0-1.7-0.1-2.6
		c-0.1-0.8-0.3-1.6-0.5-2.4c-0.3-0.9-0.7-1.7-1.3-2.3c-0.5-0.6-1.3-1-2.4-1c-1.1,0-2,0.3-2.6,0.9c-0.6,0.7-1.1,1.5-1.4,2.5
		c-0.2,0.6-0.3,1.3-0.4,2.2s-0.1,1.7-0.2,2.6c0,0.9,0,1.7,0.1,2.6c0.1,0.9,0.2,1.6,0.3,2.3c0.2,1.1,0.7,2.1,1.3,2.8
		c0.6,0.8,1.6,1.1,2.8,1.1c1.1,0,2-0.3,2.6-1C137.8,31.1,138.2,30.2,138.4,29.2z"/>
	<path class="st1" d="M164.5,21.8l8.3,14.8h-7.9l-5.2-9.3L157,30v6.5h-7.1V2.9h7.1v17.3l7.2-8.2h8.8L164.5,21.8z"/>
</g>
</svg>
