<?xml version="1.0" encoding="utf-8"?>
<!-- Generator: Adobe Illustrator 24.0.1, SVG Export Plug-In . SVG Version: 6.00 Build 0)  -->
<svg version="1.1" id="圖層_1" xmlns="http://www.w3.org/2000/svg" xmlns:xlink="http://www.w3.org/1999/xlink" x="0px" y="0px"
	 viewBox="0 0 137.75 47" style="enable-background:new 0 0 137.75 47;" xml:space="preserve">
<style type="text/css">
	.st0{enable-background:new    ;}
	.st1{fill:#0F9E9B;}
</style>
<g class="st0">
	<path class="st1" d="M38.34,13.25c-1.79,2.13-3.64,4.19-5.54,6.19h10.67v4.28h-15.5c-1.84,1.47-3.86,2.96-6.05,4.46
		c-2.19,1.5-4.33,2.84-6.42,4v0.69c4.02-0.43,8.13-0.97,12.35-1.63c4.22-0.66,8.3-1.48,12.26-2.46v4.51
		c-4.05,0.86-8.13,1.57-12.26,2.14c-4.12,0.57-8.24,1.05-12.35,1.45v2.94c0,0.18,0.09,0.38,0.28,0.6c0.18,0.21,0.38,0.32,0.6,0.32
		h26.77l-1.7,4.19H12.97c-0.58,0-1.15-0.11-1.7-0.32c-0.55-0.21-1.03-0.54-1.43-0.97c-0.8-0.74-1.2-1.66-1.2-2.76v-7.59H0.87
		c1.38-0.55,2.84-1.19,4.37-1.91c1.53-0.72,3.06-1.5,4.58-2.35c1.52-0.84,3-1.72,4.44-2.62c1.44-0.9,2.76-1.8,3.96-2.69H2.9v-4.28
		h13.66v-5.75H5.34V9.46h11.22V4.44h6.99v5.01h7.54v2.94c0.89-0.95,1.73-1.89,2.53-2.81c0.8-0.92,1.59-1.87,2.39-2.85h7.5
		C41.86,8.95,40.13,11.12,38.34,13.25z M23.55,13.69v5.75h0.23c1.04-0.89,2.08-1.82,3.1-2.78c1.03-0.97,2.03-1.96,3.01-2.97H23.55z"
		/>
	<path class="st1" d="M59.02,22.84v22.08h-6.53V22.84h-3.54v-4.42h3.54V4.49h6.53v13.94h3.59v4.42H59.02z M73.69,44.05
		c-0.64,0.64-1.52,0.97-2.62,0.97h-3.36L66.7,41.7c-0.12,0.49-0.27,1.07-0.44,1.73c-0.17,0.66-0.31,1.17-0.44,1.54h-5.84
		c0.71-2.18,1.24-4.44,1.61-6.79c0.37-2.35,0.58-4.73,0.64-7.15h-1.61v-4.14h1.66c0.06-0.43,0.11-0.87,0.14-1.33
		c0.03-0.46,0.05-0.9,0.05-1.33h5.43v2.67h2.99c1.13,0,2.02,0.32,2.67,0.97c0.71,0.67,1.06,1.69,1.06,3.04v10.44
		C74.61,42.47,74.31,43.37,73.69,44.05z M86.66,21.88c-0.58,0.8-1.43,1.2-2.53,1.2h-7.96l-1.24-3.96h5.57
		c0.12,0,0.25-0.08,0.37-0.23c0.12-0.15,0.18-0.29,0.18-0.41v-5.57c0-0.25-0.07-0.45-0.21-0.62c-0.14-0.17-0.33-0.25-0.58-0.25H74.8
		c-0.25,2.02-0.73,3.96-1.45,5.8c-0.72,1.84-1.66,3.59-2.83,5.24h-7.5c1.32-1.53,2.46-3.25,3.43-5.15c0.97-1.9,1.57-3.86,1.82-5.89
		h-5.29v-4h5.66c0.06-0.58,0.1-1.18,0.12-1.79c0.02-0.61,0.02-1.18,0.02-1.7h6.49c0.03,0.52,0.05,1.13,0.05,1.82
		c0,0.69-0.02,1.25-0.05,1.68h8.46c0.52,0,1.02,0.09,1.49,0.28c0.48,0.18,0.88,0.44,1.22,0.78c0.64,0.64,0.97,1.43,0.97,2.35v8
		C87.4,20.39,87.15,21.2,86.66,21.88z M69,31.67c0-0.43-0.21-0.64-0.64-0.64h-0.51c-0.06,1.75-0.17,3.46-0.32,5.13
		c-0.15,1.67-0.38,3.32-0.69,4.95h1.61c0.15,0,0.28-0.07,0.39-0.21c0.11-0.14,0.16-0.28,0.16-0.44V31.67z M88.23,44.19
		c-0.55,0.55-1.32,0.83-2.3,0.83h-3.82l-0.92-3.04c-0.09,0.46-0.23,0.98-0.41,1.56c-0.18,0.58-0.35,1.07-0.51,1.47h-5.8
		c0.8-2.12,1.36-4.35,1.7-6.72c0.34-2.36,0.54-4.75,0.6-7.18h-1.38v-4.23h1.47c0.03-0.43,0.05-0.87,0.07-1.33
		c0.01-0.46,0.02-0.9,0.02-1.33h5.43c0.03,0.37,0.05,0.82,0.05,1.36c0,0.54,0,0.97,0,1.31h3.04c1.2,0,2.1,0.35,2.71,1.06
		c0.64,0.64,0.97,1.52,0.97,2.62v11.22C89.15,42.84,88.84,43.63,88.23,44.19z M83.54,31.63c0-0.12-0.07-0.24-0.21-0.34
		s-0.25-0.16-0.34-0.16h-0.64c-0.06,1.72-0.17,3.4-0.32,5.06c-0.15,1.66-0.35,3.3-0.6,4.92h1.43c0.46,0,0.69-0.23,0.69-0.69V31.63z"
		/>
	<path class="st1" d="M102.92,43.24c-2.53,0.6-5.16,1.16-7.89,1.68v-4.51c0.67-0.09,1.48-0.25,2.42-0.46
		c0.94-0.21,1.72-0.43,2.37-0.64V25.19h-3.96V21h3.96V10.88h-4.74V6.79h15.41v4.09h-4.09V21h3.63v4.19h-3.63v12.65
		c0.64-0.12,1.39-0.3,2.23-0.53c0.84-0.23,1.53-0.44,2.05-0.62v4.42C108.04,41.93,105.46,42.64,102.92,43.24z M128.02,19.62
		c-0.37-0.71-0.74-1.47-1.1-2.3s-0.72-1.68-1.06-2.55c-0.34-0.87-0.66-1.73-0.97-2.58c-0.31-0.84-0.6-1.63-0.87-2.37
		c-0.06-0.12-0.18-0.28-0.35-0.48c-0.17-0.2-0.33-0.3-0.48-0.3h-3.22c-0.09,0-0.23,0.09-0.41,0.28c-0.18,0.18-0.31,0.37-0.37,0.55
		c-0.52,1.53-1.1,3.11-1.75,4.74c-0.64,1.63-1.41,3.3-2.3,5.01h-7.59c1.2-1.93,2.19-3.85,2.99-5.75c0.8-1.9,1.53-3.83,2.21-5.8
		c0.15-0.46,0.4-0.89,0.74-1.29c0.34-0.4,0.72-0.77,1.15-1.1c0.89-0.64,1.81-0.97,2.76-0.97h7.91c1.29,0,2.42,0.35,3.4,1.06
		c0.89,0.64,1.53,1.49,1.93,2.53c0.74,1.93,1.5,3.77,2.3,5.52c0.8,1.75,1.76,3.68,2.9,5.8H128.02z M121.83,22.2
		c-1.58,1.84-3.2,3.57-4.85,5.2h-8.6c1.81-1.62,3.59-3.33,5.34-5.13s3.34-3.66,4.78-5.59h7.73
		C124.87,18.52,123.41,20.36,121.83,22.2z M132.39,32.75c-1.23,1.52-2.54,2.99-3.93,4.42c-1.4,1.43-2.84,2.8-4.32,4.12
		s-2.95,2.56-4.39,3.73h-10.72c3.37-2.3,6.72-4.87,10.03-7.71c3.31-2.84,6.29-5.91,8.92-9.22h7.64
		C134.69,29.68,133.61,31.24,132.39,32.75z M125.1,29.51c-2.19,2.3-4.39,4.39-6.6,6.26h-9.2c1.07-0.74,2.28-1.68,3.61-2.83
		c1.33-1.15,2.66-2.35,3.98-3.59c1.32-1.24,2.54-2.48,3.66-3.7s1.99-2.28,2.6-3.17h7.73C129.21,24.87,127.29,27.21,125.1,29.51z"/>
</g>
</svg>
