<?xml version="1.0" encoding="utf-8"?>
<!-- Generator: Adobe Illustrator 24.0.1, SVG Export Plug-In . SVG Version: 6.00 Build 0)  -->
<svg version="1.1" id="圖層_1" xmlns="http://www.w3.org/2000/svg" xmlns:xlink="http://www.w3.org/1999/xlink" x="0px" y="0px"
	 viewBox="0 0 317 47" style="enable-background:new 0 0 317 47;" xml:space="preserve">
<style type="text/css">
	.st0{enable-background:new    ;}
	.st1{fill:#0F9E9B;}
</style>
<g class="st0">
	<path class="st1" d="M25.25,23.98c0.21,1.38,0.29,2.78,0.23,4.21c-0.06,1.43-0.26,2.83-0.6,4.21c-0.34,1.29-0.77,2.44-1.31,3.45
		c-0.54,1.01-1.37,1.9-2.51,2.67c-0.86,0.55-1.79,0.97-2.81,1.24c-1.01,0.28-2.04,0.4-3.08,0.37c-1.14-0.03-2.22-0.23-3.27-0.6
		c-1.04-0.37-1.95-0.95-2.71-1.75v10.95H2.12V15.01H9.2v1.89c0.71-0.61,1.48-1.09,2.32-1.43c0.84-0.34,1.74-0.57,2.69-0.69
		c1.38-0.15,2.72-0.05,4.02,0.32c1.3,0.37,2.49,1,3.57,1.89c1.13,0.95,1.93,2.01,2.39,3.17C24.66,21.33,25.01,22.6,25.25,23.98z
		 M17.39,22.65c-0.28-1.41-0.91-2.44-1.89-3.08c-0.46-0.34-0.98-0.54-1.56-0.62c-0.58-0.08-1.21,0.01-1.89,0.25
		c-1.2,0.43-2.15,1.24-2.85,2.44v11.78c0.43,0.55,0.86,1,1.29,1.36c0.43,0.35,1,0.61,1.7,0.76c0.58,0.15,1.17,0.2,1.77,0.14
		c0.6-0.06,1.14-0.23,1.63-0.51c0.43-0.25,0.8-0.58,1.13-0.99c0.32-0.41,0.53-0.93,0.62-1.54c0.25-1.59,0.4-3.26,0.46-4.99
		S17.73,24.24,17.39,22.65z"/>
	<path class="st1" d="M50.94,34.7c-0.69,1.29-1.57,2.36-2.65,3.22c-1.1,0.86-2.37,1.43-3.79,1.73c-1.43,0.29-2.81,0.42-4.16,0.39
		c-1.87-0.03-3.67-0.39-5.38-1.08c-1.72-0.69-3.13-1.83-4.23-3.43c-0.8-1.1-1.38-2.35-1.75-3.75c-0.37-1.4-0.54-2.83-0.51-4.3
		c0-1.38,0.18-2.74,0.53-4.09c0.35-1.35,0.9-2.61,1.63-3.77c0.89-1.35,1.98-2.42,3.27-3.22c1.29-0.8,2.71-1.33,4.28-1.61
		c1.29-0.25,2.63-0.28,4.02-0.12c1.4,0.17,2.69,0.54,3.89,1.13c1.07,0.52,2.04,1.21,2.9,2.07c0.86,0.86,1.53,1.86,2.02,2.99
		c0.77,1.69,1.03,3.48,0.78,5.38c-0.06,0.71-0.31,1.25-0.76,1.63c-0.44,0.38-1.02,0.58-1.73,0.58H35.97c0,0.98,0.1,1.99,0.3,3.01
		c0.2,1.03,0.61,1.96,1.22,2.78c0.43,0.58,0.92,1.02,1.47,1.31c0.55,0.29,1.13,0.44,1.75,0.44c0.61-0.03,1.21-0.21,1.79-0.53
		c0.58-0.32,1.04-0.79,1.38-1.4c0.52-0.92,0.83-1.99,0.92-3.22h7.36C52.04,32.12,51.63,33.41,50.94,34.7z M44.07,22.58
		c-0.06-0.63-0.22-1.2-0.46-1.72c-0.52-1.13-1.35-1.79-2.48-1.98c-0.61-0.09-1.23-0.03-1.86,0.18c-0.63,0.21-1.16,0.6-1.59,1.15
		c-0.43,0.58-0.75,1.24-0.97,1.98c-0.21,0.74-0.37,1.46-0.46,2.16h7.82C44.13,23.8,44.13,23.21,44.07,22.58z"/>
	<path class="st1" d="M70.98,39.53h-8c-0.74,0-1.36-0.16-1.86-0.48c-0.51-0.32-0.93-0.76-1.27-1.31c-0.52-0.89-0.78-1.98-0.78-3.27
		V19.24h-4.32v-4.23h4.32V5.9h7.13v9.11h5.2v4.23h-5.2v14.77c0,0.4,0.12,0.72,0.35,0.97s0.51,0.37,0.85,0.37h4.97L70.98,39.53z"/>
	<path class="st1" d="M76.04,12.39V5.86h7.08v6.53H76.04z M76.04,39.53V15.06h7.08v24.47H76.04z"/>
	<path class="st1" d="M103.87,39.53h-8c-0.74,0-1.36-0.16-1.86-0.48c-0.51-0.32-0.93-0.76-1.27-1.31c-0.52-0.89-0.78-1.98-0.78-3.27
		V19.24h-4.32v-4.23h4.32V5.9h7.13v9.11h5.2v4.23h-5.2v14.77c0,0.4,0.12,0.72,0.35,0.97s0.51,0.37,0.85,0.37h4.97L103.87,39.53z"/>
	<path class="st1" d="M135.65,39.53v-1.66c-1.63,1.32-3.48,2.05-5.57,2.21c-1.32,0.06-2.55-0.12-3.7-0.55s-2.22-1.07-3.2-1.93
		c-1.17-1.01-2.01-2.09-2.53-3.22c-0.52-1.13-0.9-2.44-1.15-3.91c-0.21-1.47-0.29-2.91-0.23-4.3c0.06-1.39,0.29-2.78,0.69-4.16
		c0.37-1.26,0.9-2.37,1.59-3.33c0.69-0.97,1.6-1.8,2.74-2.51c1.69-1.07,3.54-1.61,5.57-1.61c1.07,0,2.11,0.16,3.1,0.48
		c1,0.32,1.89,0.87,2.69,1.63V5.86h7.13v33.67H135.65z M135.65,21.5c-0.34-0.61-0.78-1.13-1.33-1.54c-0.55-0.41-1.15-0.7-1.79-0.85
		c-0.74-0.15-1.46-0.13-2.19,0.07c-0.72,0.2-1.33,0.59-1.82,1.17c-0.55,0.64-0.93,1.38-1.13,2.21c-0.2,0.83-0.33,1.64-0.39,2.44
		c-0.09,1.04-0.12,2.05-0.09,3.04c0.03,0.98,0.12,1.98,0.28,2.99c0.12,0.74,0.28,1.42,0.46,2.05c0.18,0.63,0.6,1.17,1.24,1.63
		c0.98,0.71,2.1,0.98,3.36,0.83c1.38-0.15,2.51-0.72,3.4-1.7V21.5z"/>
	<path class="st1" d="M170.11,27.62c-0.03,1.17-0.16,2.39-0.39,3.68c-0.23,1.29-0.64,2.44-1.22,3.45c-0.95,1.69-2.26,2.97-3.93,3.86
		c-1.67,0.89-3.49,1.36-5.45,1.43c-2.15,0.09-4.04-0.17-5.68-0.78c-1.64-0.61-3-1.53-4.07-2.76c-1.93-2.18-2.93-5.09-2.99-8.74
		c-0.03-1.69,0.18-3.39,0.64-5.11c0.46-1.72,1.27-3.22,2.44-4.51c1.1-1.2,2.42-2.08,3.93-2.67c1.52-0.58,3.12-0.87,4.81-0.87
		c1.84,0,3.54,0.36,5.11,1.08c1.56,0.72,2.91,1.77,4.05,3.15c1.04,1.29,1.77,2.67,2.18,4.14C169.94,24.44,170.14,25.99,170.11,27.62
		z M162.15,32.17c0.12-0.77,0.24-1.57,0.35-2.42c0.11-0.84,0.18-1.69,0.21-2.55c0.03-0.86,0-1.71-0.09-2.55
		c-0.09-0.84-0.26-1.65-0.51-2.42c-0.31-0.92-0.73-1.69-1.26-2.32c-0.54-0.63-1.34-0.96-2.42-0.99c-1.1-0.03-1.96,0.28-2.58,0.94
		c-0.61,0.66-1.09,1.48-1.43,2.46c-0.18,0.61-0.32,1.33-0.41,2.16c-0.09,0.83-0.15,1.68-0.16,2.55c-0.02,0.87,0.02,1.74,0.09,2.6
		c0.08,0.86,0.18,1.61,0.3,2.25c0.25,1.13,0.68,2.08,1.31,2.83c0.63,0.75,1.56,1.11,2.78,1.08c1.1,0,1.98-0.34,2.62-1.01
		C161.6,34.12,161.99,33.24,162.15,32.17z"/>
	<path class="st1" d="M189.29,39.53v-2.39c-0.67,0.67-1.4,1.21-2.18,1.61c-0.78,0.4-1.6,0.71-2.46,0.92
		c-1.56,0.37-2.99,0.47-4.28,0.3c-1.29-0.17-2.42-0.59-3.4-1.26c-1.01-0.71-1.8-1.69-2.37-2.97c-0.57-1.27-0.85-2.81-0.85-4.62
		V15.06h7.08v16.56c0,0.74,0.13,1.41,0.39,2.02c0.26,0.61,0.6,1.1,1.03,1.47c0.89,0.71,1.98,0.86,3.27,0.46
		c0.89-0.28,1.68-0.77,2.37-1.5c0.69-0.72,1.16-1.46,1.4-2.23V15.06h7.08v24.47H189.29z"/>
	<path class="st1" d="M216.01,39.53l-4.37-6.39l-4.42,6.39h-8.46l8.83-12.33l-8.42-12.19h8.1l4.32,6.39l4.51-6.39h7.91l-8.37,12.19
		l8.65,12.33H216.01z"/>
	<path class="st1" d="M235.03,18.48c-0.41,1.76-0.9,3.52-1.45,5.27h1.61v18.31h-6.07V25.13h-2.35c0.74-1.96,1.39-3.95,1.96-5.96
		c0.57-2.01,1.07-4.04,1.5-6.09h5.89C235.81,14.92,235.45,16.72,235.03,18.48z M233.4,11.15h-6.49c0.71-1.59,1.36-3.2,1.96-4.83
		c0.6-1.62,1.1-3.27,1.49-4.92h6.26C235.85,4.74,234.78,7.99,233.4,11.15z M243.45,34.77c-0.26,2.62-0.74,5.05-1.45,7.29h-5.89
		c0.77-2.21,1.3-4.64,1.59-7.29c0.29-2.65,0.38-5.47,0.25-8.44h5.75C243.8,29.33,243.71,32.15,243.45,34.77z M251.2,15.56
		c-0.55,0.71-1.29,1.06-2.21,1.06h-9.11c-0.74,0-1.43-0.28-2.07-0.83c-0.71-0.61-1.06-1.41-1.06-2.39V4.02h3.5v7.87
		c0,0.15,0.09,0.32,0.28,0.48c0.18,0.17,0.37,0.25,0.55,0.25h0.83V1.4h5.01v11.22h0.97c0.21,0,0.4-0.1,0.55-0.3
		c0.15-0.2,0.23-0.41,0.23-0.62V4.02h3.36v9.02C252.03,14.08,251.75,14.92,251.2,15.56z M236.76,23.61v-4.09h15.27v4.09H236.76z
		 M251.94,39.48h-3.04c-1.13,0-1.99-0.34-2.58-1.01c-0.61-0.67-0.92-1.64-0.92-2.9v-9.2h5.61v8.37c0,0.15,0.09,0.3,0.28,0.44
		c0.18,0.14,0.35,0.21,0.51,0.21h1.75L251.94,39.48z M261.97,42.06c-0.12-0.18-0.27-0.41-0.44-0.67c-0.17-0.26-0.34-0.54-0.53-0.85
		c-0.18-0.31-0.37-0.61-0.55-0.9c-0.18-0.29-0.34-0.54-0.46-0.76c-0.21,0.4-0.49,0.9-0.83,1.49c-0.34,0.6-0.66,1.16-0.97,1.68h-6.99
		c1.07-1.44,2.08-3.01,3.04-4.71c0.95-1.7,1.78-3.52,2.48-5.45c-0.8-2.05-1.52-4.12-2.16-6.21c-0.64-2.08-1.2-4.22-1.66-6.39h5.52
		c0.12,0.55,0.26,1.11,0.41,1.68c0.15,0.57,0.34,1.11,0.55,1.63c0.31-1.66,0.58-3.33,0.8-5.01c0.23-1.69,0.38-3.4,0.44-5.15h-1.29
		c-0.15,0.89-0.35,1.76-0.58,2.62c-0.23,0.86-0.47,1.69-0.71,2.48h-5.93c0.71-2.54,1.29-5.18,1.75-7.91
		c0.46-2.73,0.86-5.47,1.2-8.23H261c-0.06,1.1-0.17,2.25-0.32,3.45c-0.15,1.2-0.32,2.3-0.51,3.31h7.68v4.28h-1.56
		c-0.21,3.62-0.6,7.08-1.15,10.4c-0.55,3.31-1.3,6.36-2.25,9.15c0.77,1.78,1.62,3.5,2.55,5.17c0.94,1.67,2.05,3.3,3.33,4.9H261.97z"
		/>
	<path class="st1" d="M288,35.85c-1.17,2.3-2.81,4.34-4.92,6.12h-10.35c1.47-0.77,2.85-1.69,4.14-2.76s2.39-2.28,3.31-3.63
		c1.38-1.99,2.22-4.14,2.53-6.44h7.04C289.66,31.5,289.08,33.73,288,35.85z M283.49,6.04c-0.49,0.15-0.9,0.28-1.24,0.37
		c-0.55,0.15-0.83,0.52-0.83,1.1V22.1c0,0.25,0.11,0.46,0.34,0.64c0.23,0.18,0.47,0.28,0.71,0.28h2.21v4h-6.07
		c-1.04,0-1.93-0.34-2.67-1.01c-0.34-0.34-0.61-0.72-0.83-1.15s-0.32-0.9-0.32-1.43V6.41c0-0.77,0.28-1.46,0.83-2.07
		c0.31-0.34,0.65-0.6,1.03-0.8c0.38-0.2,0.79-0.34,1.22-0.44c1.17-0.25,2.32-0.54,3.47-0.9s2.28-0.73,3.38-1.13v4.55
		C284.4,5.75,283.98,5.89,283.49,6.04z M301.41,24.92c-0.2,0.41-0.47,0.78-0.8,1.08c-0.67,0.68-1.46,1.01-2.35,1.01h-8.92
		c-0.64,0-1.2-0.12-1.66-0.35c-0.46-0.23-0.86-0.54-1.2-0.94c-0.58-0.83-0.87-1.82-0.87-2.99V8.85c0-1.17,0.32-2.07,0.97-2.71
		c0.37-0.43,0.84-0.74,1.4-0.92c0.57-0.18,1.17-0.28,1.82-0.28c0.15-0.58,0.3-1.14,0.44-1.68c0.14-0.54,0.28-1.11,0.44-1.72h6.26
		c-0.09,0.58-0.21,1.15-0.35,1.7c-0.14,0.55-0.28,1.12-0.44,1.7h1.7c0.55,0.03,1.08,0.13,1.59,0.3c0.51,0.17,0.94,0.48,1.31,0.94
		c0.64,0.71,0.97,1.5,0.97,2.39v15C301.71,24.06,301.61,24.51,301.41,24.92z M295.68,9.81c0-0.21-0.08-0.41-0.23-0.58
		c-0.15-0.17-0.34-0.25-0.55-0.25h-2.16c-0.25,0-0.48,0.09-0.69,0.28c-0.21,0.18-0.32,0.4-0.32,0.64v3.86h3.96V9.81z M295.68,17.91
		h-3.96v4.28c0,0.21,0.09,0.4,0.28,0.55c0.18,0.15,0.37,0.23,0.55,0.23h2.44c0.15,0,0.31-0.08,0.46-0.25
		c0.15-0.17,0.23-0.33,0.23-0.48V17.91z M312.93,41.97h-12.01c-0.52,0-1-0.12-1.45-0.37c-0.45-0.25-0.84-0.58-1.17-1.01
		c-0.55-0.64-0.83-1.41-0.83-2.3v-9.15h6.95v7.91c0,0.21,0.08,0.4,0.25,0.55c0.17,0.15,0.34,0.23,0.53,0.23h9.25L312.93,41.97z
		 M312.34,24.81c-0.22,0.43-0.49,0.8-0.83,1.1c-0.4,0.37-0.86,0.64-1.38,0.83c-0.52,0.18-1.07,0.28-1.66,0.28h-5.66v-4h2.3
		c0.25,0,0.46-0.08,0.64-0.25c0.18-0.17,0.28-0.35,0.28-0.53V7.61c0-0.21-0.08-0.41-0.23-0.58c-0.15-0.17-0.32-0.25-0.51-0.25h-2.48
		V2.64h6.35c0.46,0,0.9,0.11,1.33,0.32c0.43,0.21,0.81,0.49,1.15,0.83c0.31,0.34,0.55,0.71,0.74,1.13c0.18,0.41,0.28,0.84,0.28,1.27
		v17.16C312.66,23.89,312.55,24.38,312.34,24.81z"/>
</g>
</svg>
