<?xml version="1.0" encoding="utf-8"?>
<!-- Generator: Adobe Illustrator 24.0.1, SVG Export Plug-In . SVG Version: 6.00 Build 0)  -->
<svg version="1.1" id="圖層_1" xmlns="http://www.w3.org/2000/svg" xmlns:xlink="http://www.w3.org/1999/xlink" x="0px" y="0px"
	 viewBox="0 0 421 47" style="enable-background:new 0 0 421 47;" xml:space="preserve">
<style type="text/css">
	.st0{enable-background:new    ;}
	.st1{fill:#0F9E9B;}
</style>
<g class="st0">
	<path class="st1" d="M28.8,33.9c-0.7,2.1-1.9,3.5-3.6,4.4c-1.7,0.9-3.5,1.3-5.7,1.3H6.3c-1.1,0-2-0.3-2.8-1
		c-0.9-0.8-1.3-1.9-1.3-3.2V10c0-0.7,0.1-1.3,0.4-1.8c0.3-0.5,0.7-1,1.2-1.3c1-0.7,2.2-1.1,3.5-1.1h12.2c1.5,0,2.7,0.3,3.8,0.8
		c1.1,0.5,1.9,1.2,2.6,2.1c1.2,1.6,1.8,3.5,1.8,5.7c0,2.1-0.5,3.7-1.5,5.1c-1,1.3-2.6,2.2-4.6,2.5c0.8,0.1,1.6,0.2,2.4,0.4
		c0.8,0.2,1.5,0.5,2.2,1c0.7,0.5,1.3,1.2,1.8,2s0.8,1.8,1,2.7c0.2,1,0.3,2,0.2,3C29.3,32.1,29.1,33,28.8,33.9z M20.2,16.4
		c0.1-0.4,0.1-1,0.1-1.7s-0.1-1.4-0.3-2c-0.2-0.7-0.6-1.3-1.1-1.7c-0.6-0.6-1.4-0.8-2.3-0.8h-6.3c-0.3,0-0.6,0.1-0.7,0.3
		c-0.2,0.2-0.3,0.4-0.3,0.7v8.8h6.5c1.4,0,2.5-0.3,3.3-1C19.7,18.4,20.1,17.5,20.2,16.4z M21.6,32.1c0.2-0.5,0.2-1.1,0.3-1.8
		c0-0.7,0-1.3-0.2-2c-0.1-0.7-0.4-1.3-0.7-1.9c-0.3-0.6-0.7-1-1.2-1.3c-0.5-0.3-1-0.5-1.6-0.6c-0.6-0.1-1.1-0.2-1.7-0.2H9.3v10.2
		c0,0.2,0.1,0.4,0.3,0.6c0.2,0.2,0.5,0.4,0.7,0.4h7.1c1,0,1.9-0.3,2.7-0.9C20.9,33.8,21.4,33,21.6,32.1z"/>
	<path class="st1" d="M57.3,39.5l-3.7-9.2H42.8l-3.7,9.2h-7.7L45.3,5.9h5.9L65,39.5H57.3z M48.2,16.9l-3.6,9.3h7.3L48.2,16.9z"/>
	<path class="st1" d="M96.6,32.4c-0.6,1.3-1.4,2.4-2.4,3.5c-1.3,1.4-2.8,2.4-4.6,3.1c-1.8,0.6-3.6,1-5.5,1.2c-2,0.2-4,0-6-0.5
		c-2-0.5-3.7-1.3-5.3-2.5c-1.6-1.2-2.8-2.6-3.6-4.3c-0.8-1.6-1.4-3.4-1.7-5.2c-0.2-1-0.2-2-0.3-3.1c0-1.1,0-2.3,0.1-3.5
		c0.1-1.2,0.3-2.3,0.5-3.4c0.2-1.1,0.6-2.1,1-3c0.4-0.9,0.8-1.7,1.4-2.6s1.2-1.6,1.9-2.3s1.4-1.3,2.3-1.8c0.8-0.5,1.7-1,2.6-1.3
		c1.4-0.5,2.9-0.8,4.5-1c1.6-0.2,3.1-0.1,4.7,0.1c1.4,0.2,2.7,0.6,3.9,1.1c1.2,0.5,2.4,1.2,3.3,2.2c1.2,1.1,2.1,2.3,2.7,3.5
		c0.6,1.2,1,2.6,1.4,4h-7.9c-0.1-0.8-0.2-1.6-0.5-2.5c-0.3-0.8-0.6-1.5-0.9-2c-0.3-0.5-0.7-0.9-1.3-1.3c-0.5-0.4-1.1-0.7-1.7-0.8
		c-0.9-0.2-1.7-0.2-2.6-0.1c-0.8,0.1-1.6,0.4-2.3,0.8c-1,0.5-1.8,1.2-2.5,2.1c-0.7,0.9-1.3,1.9-1.7,2.9c-0.6,1.3-0.9,2.8-1.1,4.2
		c-0.2,1.5-0.2,3-0.1,4.5c0,1.5,0.2,2.9,0.5,4.4c0.3,1.5,0.9,2.8,1.7,4c0.7,0.9,1.5,1.6,2.5,2.1c1,0.5,2,0.8,3.2,0.9
		c1,0,2-0.2,2.9-0.6c0.9-0.4,1.7-1,2.4-1.9c0.6-0.7,1-1.5,1.3-2.3c0.3-0.8,0.6-1.6,0.7-2.5h8C97.7,29.8,97.2,31.1,96.6,32.4z"/>
	<path class="st1" d="M142.4,32.4c-0.6,1.3-1.4,2.4-2.4,3.5c-1.3,1.4-2.8,2.4-4.6,3.1c-1.8,0.6-3.6,1-5.5,1.2c-2,0.2-4,0-6-0.5
		c-2-0.5-3.7-1.3-5.3-2.5c-1.6-1.2-2.8-2.6-3.6-4.3c-0.8-1.6-1.4-3.4-1.7-5.2c-0.2-1-0.2-2-0.3-3.1c0-1.1,0-2.3,0.1-3.5
		c0.1-1.2,0.3-2.3,0.5-3.4c0.2-1.1,0.6-2.1,1-3c0.4-0.9,0.8-1.7,1.4-2.6s1.2-1.6,1.9-2.3s1.4-1.3,2.3-1.8c0.8-0.5,1.7-1,2.6-1.3
		c1.4-0.5,2.9-0.8,4.5-1c1.6-0.2,3.1-0.1,4.7,0.1c1.4,0.2,2.7,0.6,3.9,1.1c1.2,0.5,2.4,1.2,3.3,2.2c1.2,1.1,2.1,2.3,2.7,3.5
		c0.6,1.2,1,2.6,1.4,4h-7.9c-0.1-0.8-0.2-1.6-0.5-2.5c-0.3-0.8-0.6-1.5-0.9-2c-0.3-0.5-0.7-0.9-1.3-1.3c-0.5-0.4-1.1-0.7-1.7-0.8
		c-0.9-0.2-1.7-0.2-2.6-0.1c-0.8,0.1-1.6,0.4-2.3,0.8c-1,0.5-1.8,1.2-2.5,2.1c-0.7,0.9-1.3,1.9-1.7,2.9c-0.6,1.3-0.9,2.8-1.1,4.2
		c-0.2,1.5-0.2,3-0.1,4.5c0,1.5,0.2,2.9,0.5,4.4c0.3,1.5,0.9,2.8,1.7,4c0.7,0.9,1.5,1.6,2.5,2.1c1,0.5,2,0.8,3.2,0.9
		c1,0,2-0.2,2.9-0.6c0.9-0.4,1.7-1,2.4-1.9c0.6-0.7,1-1.5,1.3-2.3c0.3-0.8,0.6-1.6,0.7-2.5h8C143.5,29.8,143,31.1,142.4,32.4z"/>
	<path class="st1" d="M162.9,39.5c-0.1-0.2-0.2-0.5-0.3-0.9c-0.1-0.4-0.1-0.7-0.2-0.9c-0.8,0.6-1.7,1.1-2.6,1.4c-1,0.4-2,0.6-3,0.8
		c-1.2,0.2-2.3,0.1-3.5,0c-1.2-0.2-2.3-0.6-3.2-1.1c-1.5-0.9-2.5-2.1-3-3.7c-0.3-0.8-0.4-1.7-0.4-2.6c0-0.9,0.2-1.8,0.5-2.6
		c0.3-0.9,0.7-1.6,1.3-2.2c0.5-0.6,1.1-1.1,1.8-1.4c0.9-0.5,1.8-0.9,2.9-1.1c1-0.2,2-0.3,3.1-0.4c1-0.1,2-0.2,3-0.3
		c1-0.2,1.9-0.4,2.7-0.6c0-0.3,0-0.7,0-1c0-0.3,0-0.7,0-1c-0.1-1.1-0.6-1.9-1.5-2.6c-0.6-0.4-1.2-0.5-2-0.5c-0.8,0-1.4,0.1-2,0.4
		c-0.7,0.3-1.2,0.8-1.6,1.4c-0.4,0.6-0.6,1.3-0.7,2h-7.4c0.3-1,0.6-2,1.1-3c0.5-1,1.2-1.8,2.2-2.5c1-0.7,2.2-1.3,3.4-1.7
		c1.3-0.4,2.6-0.6,4-0.7c1.4-0.1,2.8,0,4.2,0.3c1.4,0.3,2.7,0.8,3.8,1.5c1,0.6,1.8,1.5,2.5,2.5c0.6,1,1,2.3,1,3.7c0,0.8,0,1.7,0,2.7
		c0,1,0,2.1,0.1,3.2c0,1.1,0.1,2.1,0.1,3.1c0,1,0,1.8,0.1,2.4c0.1,2,0.5,3.8,1.2,5.4H162.9z M161.9,34.1c0-0.4,0-0.8,0-1.3
		s0-1.1,0-1.6s0-1.1,0-1.7s0-1.1,0-1.4c-0.5,0.2-1.1,0.3-1.8,0.4c-0.7,0.1-1.3,0.2-2,0.3c-0.4,0.1-0.9,0.1-1.3,0.2
		c-0.4,0.1-0.8,0.2-1.1,0.5c-0.3,0.2-0.6,0.5-0.9,0.7c-0.2,0.3-0.4,0.6-0.6,1.1c-0.2,0.8-0.3,1.4-0.1,2c0.2,0.6,0.4,1.1,0.9,1.4
		c0.8,0.8,1.9,1.1,3.2,0.8c0.6-0.1,1.2-0.3,1.9-0.6C160.7,34.6,161.4,34.3,161.9,34.1z"/>
	<path class="st1" d="M187.7,24.8l8.3,14.8h-7.9l-5.2-9.3l-2.7,2.8v6.5h-7.1V5.9h7.1v17.3l7.2-8.2h8.8L187.7,24.8z"/>
	<path class="st1" d="M220.4,34.7c-0.7,1.3-1.6,2.4-2.6,3.2c-1.1,0.9-2.4,1.4-3.8,1.7c-1.4,0.3-2.8,0.4-4.2,0.4
		c-1.9,0-3.7-0.4-5.4-1.1c-1.7-0.7-3.1-1.8-4.2-3.4c-0.8-1.1-1.4-2.4-1.7-3.7s-0.5-2.8-0.5-4.3c0-1.4,0.2-2.7,0.5-4.1
		c0.4-1.3,0.9-2.6,1.6-3.8c0.9-1.3,2-2.4,3.3-3.2s2.7-1.3,4.3-1.6c1.3-0.2,2.6-0.3,4-0.1c1.4,0.2,2.7,0.5,3.9,1.1
		c1.1,0.5,2,1.2,2.9,2.1c0.9,0.9,1.5,1.9,2,3c0.8,1.7,1,3.5,0.8,5.4c-0.1,0.7-0.3,1.2-0.8,1.6c-0.4,0.4-1,0.6-1.7,0.6h-13.3
		c0,1,0.1,2,0.3,3c0.2,1,0.6,2,1.2,2.8c0.4,0.6,0.9,1,1.5,1.3c0.6,0.3,1.1,0.4,1.7,0.4c0.6,0,1.2-0.2,1.8-0.5c0.6-0.3,1-0.8,1.4-1.4
		c0.5-0.9,0.8-2,0.9-3.2h7.4C221.5,32.1,221.1,33.4,220.4,34.7z M213.5,22.6c-0.1-0.6-0.2-1.2-0.5-1.7c-0.5-1.1-1.3-1.8-2.5-2
		c-0.6-0.1-1.2,0-1.9,0.2c-0.6,0.2-1.2,0.6-1.6,1.1c-0.4,0.6-0.8,1.2-1,2c-0.2,0.7-0.4,1.5-0.5,2.2h7.8
		C213.5,23.8,213.5,23.2,213.5,22.6z"/>
	<path class="st1" d="M245.9,39.9c-0.2-0.3-0.6-0.7-0.9-1.2c-0.4-0.5-0.7-1-0.9-1.3c-1,0.8-2.2,1.4-3.4,1.8
		c-1.2,0.4-2.5,0.6-3.8,0.7c-1.2,0.1-2.5,0-3.9-0.2c-1.4-0.2-2.7-0.6-3.7-1.2c-1.3-0.7-2.3-1.7-3.2-2.9c-0.9-1.3-1.3-2.6-1.5-4
		c-0.1-1.3,0-2.5,0.5-3.6c0.4-1.1,1-2.2,1.8-3.2c0.7-0.9,1.5-1.7,2.3-2.5c0.8-0.8,1.7-1.5,2.6-2.2c-0.5-0.9-1-1.8-1.5-2.7
		s-0.8-1.9-1.1-2.9c-0.2-1.1-0.3-2.1-0.1-3.2c0.2-1.1,0.6-2,1.2-2.9c0.8-1.1,1.8-1.9,3-2.4c1.2-0.5,2.5-0.7,3.8-0.7
		c1.2,0,2.4,0.1,3.7,0.4s2.3,0.8,3.3,1.6c0.8,0.7,1.4,1.5,1.8,2.4c0.4,0.9,0.6,1.9,0.5,2.9c0,1.1-0.2,2.1-0.6,3s-0.9,1.7-1.6,2.5
		c-0.5,0.6-1.1,1.2-1.7,1.8c-0.6,0.6-1.2,1.1-1.9,1.7c0.2,0.4,0.5,0.8,0.9,1.3c0.3,0.5,0.7,1,1,1.4s0.7,1,1,1.4
		c0.3,0.5,0.6,0.9,0.9,1.2c0.3-0.4,0.5-1,0.8-1.6c0.2-0.6,0.4-1.2,0.6-1.6h7.2c-0.2,0.6-0.4,1.3-0.7,2c-0.3,0.8-0.6,1.6-1,2.4
		s-0.8,1.6-1.2,2.4s-0.9,1.5-1.3,2c0.4,0.5,0.9,1.1,1.4,1.7c0.5,0.6,1,1.3,1.5,1.9c0.5,0.7,1.1,1.3,1.6,1.9c0.5,0.6,1,1.2,1.4,1.7
		H245.9z M240.4,32.8c-0.3-0.4-0.7-0.9-1.1-1.5c-0.5-0.6-0.9-1.2-1.4-1.9s-0.9-1.3-1.3-1.9s-0.8-1.1-1.1-1.6
		c-0.6,0.5-1.2,1.1-1.7,1.6c-0.6,0.6-1.1,1.1-1.5,1.8c-0.4,0.6-0.7,1.1-0.9,1.8c-0.2,0.6-0.2,1.3-0.1,2c0.2,0.7,0.5,1.3,0.9,1.7
		c0.4,0.4,1,0.7,1.6,0.8c0.5,0.1,1,0.2,1.6,0.1c0.5,0,1.1-0.2,1.6-0.4c0.6-0.3,1.2-0.6,1.8-1.1C239.4,33.8,239.9,33.3,240.4,32.8z
		 M239.5,12.7c0.2-0.4,0.3-0.9,0.3-1.3s-0.1-0.8-0.4-1.2c-0.2-0.3-0.5-0.5-0.8-0.6c-0.3-0.1-0.7-0.1-1-0.1c-0.4,0-0.8,0.1-1.2,0.2
		s-0.7,0.4-0.9,0.8c-0.2,0.4-0.4,0.9-0.4,1.3c0,0.5,0.1,0.9,0.2,1.3c0.2,0.5,0.4,1,0.6,1.4c0.3,0.4,0.5,0.9,0.8,1.3
		c0.5-0.5,1-1,1.5-1.5C238.8,14,239.2,13.4,239.5,12.7z"/>
	<path class="st1" d="M284.3,28.8c0.1,1.5,0,2.9-0.4,4.3c-0.4,1.4-1.1,2.5-2.1,3.6c-0.6,0.6-1.2,1.1-1.8,1.5c-0.7,0.4-1.4,0.7-2.1,1
		c-0.8,0.3-1.5,0.5-2.3,0.6c-0.8,0.1-1.6,0.2-2.3,0.3c-1.3,0.1-2.6,0.1-3.9,0c-1.3-0.1-2.6-0.3-3.7-0.5c-1.3-0.2-2.5-0.7-3.7-1.5
		c-1.2-0.8-2.3-1.7-3.2-2.7c-0.3-0.4-0.6-0.8-0.9-1.3c-0.3-0.5-0.6-1-0.8-1.6c-0.2-0.6-0.4-1.1-0.5-1.7c-0.1-0.6-0.2-1.1-0.1-1.6
		h7.8c0.1,0.8,0.2,1.5,0.4,2.2c0.2,0.7,0.6,1.4,1,2c0.6,0.9,1.4,1.5,2.2,2s1.8,0.7,2.9,0.8c1.2,0.1,2.2,0,3.1-0.3
		c0.9-0.3,1.6-0.7,2.1-1.2c0.7-0.6,1.1-1.4,1.3-2.3c0.2-0.9,0.1-1.7-0.3-2.6c-0.3-0.8-0.9-1.5-1.7-2.1s-1.9-1-3.3-1.3
		c-1.3-0.2-2.6-0.5-4-0.9c-1.4-0.4-2.7-0.7-3.9-1.2c-1.2-0.4-2.2-1-3-1.8c-0.9-0.8-1.6-1.7-2.2-2.8c-0.6-1.1-0.9-2.1-1.1-3.1
		c-0.1-1,0-2.1,0.2-3.2c0.3-1.2,0.8-2.3,1.5-3.3c0.7-1,1.6-1.8,2.8-2.6c1.1-0.6,2.3-1.1,3.5-1.4s2.6-0.4,4-0.4
		c1.2,0,2.4,0.1,3.7,0.3c1.3,0.2,2.5,0.4,3.6,0.8c2,0.7,3.6,1.8,4.7,3.4c0.6,0.8,1,1.7,1.4,2.6c0.4,1,0.7,2,1,3.2h-7.9
		c-0.1-0.6-0.2-1.3-0.4-2c-0.2-0.7-0.5-1.3-0.8-1.8c-0.6-0.8-1.3-1.4-2.2-1.8c-0.9-0.4-1.8-0.5-2.8-0.5c-0.7,0.1-1.3,0.2-2,0.4
		c-0.6,0.2-1.2,0.5-1.7,1c-0.6,0.5-0.9,1-1.2,1.7c-0.2,0.7-0.2,1.5,0,2.4c0.2,0.8,0.7,1.4,1.5,1.9c0.7,0.5,1.5,0.8,2.2,1.1
		c0.8,0.2,1.6,0.5,2.5,0.6c0.9,0.2,1.8,0.4,2.6,0.6c1.5,0.4,2.9,0.9,4.3,1.4s2.6,1.2,3.6,2.2c0.7,0.7,1.3,1.5,1.8,2.4
		S284.2,27.5,284.3,28.8z"/>
	<path class="st1" d="M314.3,39.5h-6l-4.4-14.8l-4.6,14.8h-6.1l-7.3-24.5h7.2l3.5,15.2l4.1-15.2h5.8l4.6,14.9l3-14.9h7.4L314.3,39.5
		z"/>
	<path class="st1" d="M345.7,34.7c-0.7,1.3-1.6,2.4-2.6,3.2c-1.1,0.9-2.4,1.4-3.8,1.7c-1.4,0.3-2.8,0.4-4.2,0.4
		c-1.9,0-3.7-0.4-5.4-1.1c-1.7-0.7-3.1-1.8-4.2-3.4c-0.8-1.1-1.4-2.4-1.7-3.7s-0.5-2.8-0.5-4.3c0-1.4,0.2-2.7,0.5-4.1
		c0.4-1.3,0.9-2.6,1.6-3.8c0.9-1.3,2-2.4,3.3-3.2s2.7-1.3,4.3-1.6c1.3-0.2,2.6-0.3,4-0.1c1.4,0.2,2.7,0.5,3.9,1.1
		c1.1,0.5,2,1.2,2.9,2.1c0.9,0.9,1.5,1.9,2,3c0.8,1.7,1,3.5,0.8,5.4c-0.1,0.7-0.3,1.2-0.8,1.6c-0.4,0.4-1,0.6-1.7,0.6h-13.3
		c0,1,0.1,2,0.3,3c0.2,1,0.6,2,1.2,2.8c0.4,0.6,0.9,1,1.5,1.3c0.6,0.3,1.1,0.4,1.7,0.4c0.6,0,1.2-0.2,1.8-0.5c0.6-0.3,1-0.8,1.4-1.4
		c0.5-0.9,0.8-2,0.9-3.2h7.4C346.8,32.1,346.4,33.4,345.7,34.7z M338.8,22.6c-0.1-0.6-0.2-1.2-0.5-1.7c-0.5-1.1-1.3-1.8-2.5-2
		c-0.6-0.1-1.2,0-1.9,0.2s-1.2,0.6-1.6,1.1c-0.4,0.6-0.8,1.2-1,2c-0.2,0.7-0.4,1.5-0.5,2.2h7.8C338.8,23.8,338.8,23.2,338.8,22.6z"
		/>
	<path class="st1" d="M372.3,34.7c-0.7,1.3-1.6,2.4-2.6,3.2c-1.1,0.9-2.4,1.4-3.8,1.7c-1.4,0.3-2.8,0.4-4.2,0.4
		c-1.9,0-3.7-0.4-5.4-1.1c-1.7-0.7-3.1-1.8-4.2-3.4c-0.8-1.1-1.4-2.4-1.7-3.7s-0.5-2.8-0.5-4.3c0-1.4,0.2-2.7,0.5-4.1
		c0.4-1.3,0.9-2.6,1.6-3.8c0.9-1.3,2-2.4,3.3-3.2s2.7-1.3,4.3-1.6c1.3-0.2,2.6-0.3,4-0.1c1.4,0.2,2.7,0.5,3.9,1.1
		c1.1,0.5,2,1.2,2.9,2.1c0.9,0.9,1.5,1.9,2,3c0.8,1.7,1,3.5,0.8,5.4c-0.1,0.7-0.3,1.2-0.8,1.6c-0.4,0.4-1,0.6-1.7,0.6h-13.3
		c0,1,0.1,2,0.3,3c0.2,1,0.6,2,1.2,2.8c0.4,0.6,0.9,1,1.5,1.3c0.6,0.3,1.1,0.4,1.7,0.4c0.6,0,1.2-0.2,1.8-0.5c0.6-0.3,1-0.8,1.4-1.4
		c0.5-0.9,0.8-2,0.9-3.2h7.4C373.4,32.1,373,33.4,372.3,34.7z M365.5,22.6c-0.1-0.6-0.2-1.2-0.5-1.7c-0.5-1.1-1.3-1.8-2.5-2
		c-0.6-0.1-1.2,0-1.9,0.2s-1.2,0.6-1.6,1.1c-0.4,0.6-0.8,1.2-1,2c-0.2,0.7-0.4,1.5-0.5,2.2h7.8C365.5,23.8,365.5,23.2,365.5,22.6z"
		/>
	<path class="st1" d="M392.4,39.5h-8c-0.7,0-1.4-0.2-1.9-0.5c-0.5-0.3-0.9-0.8-1.3-1.3c-0.5-0.9-0.8-2-0.8-3.3V19.2h-4.3V15h4.3V5.9
		h7.1V15h5.2v4.2h-5.2V34c0,0.4,0.1,0.7,0.3,1c0.2,0.2,0.5,0.4,0.9,0.4h5L392.4,39.5z"/>
	<path class="st1" d="M409.7,22.1c-0.1-0.3-0.2-0.7-0.3-1c-0.1-0.3-0.3-0.6-0.5-0.9c-0.2-0.3-0.5-0.6-0.9-0.8
		c-0.4-0.2-0.7-0.3-1.2-0.4c-0.4-0.1-0.9-0.1-1.3-0.1s-0.9,0.1-1.3,0.2c-0.5,0.1-0.9,0.3-1.2,0.7c-0.4,0.3-0.5,0.7-0.4,1.3
		c0,0.4,0.2,0.8,0.5,1.2c0.3,0.3,0.7,0.6,1.2,0.7c0.7,0.2,1.5,0.4,2.3,0.6c0.8,0.2,1.6,0.5,2.3,0.7c0.8,0.2,1.5,0.5,2.2,0.7
		c0.7,0.2,1.3,0.5,1.8,0.7c1,0.4,1.8,1,2.6,1.7c0.8,0.7,1.3,1.5,1.6,2.6c0.3,0.9,0.4,1.8,0.4,2.9s-0.3,1.9-0.7,2.8
		c-0.6,1.1-1.3,1.9-2.1,2.6c-0.9,0.6-1.9,1.1-3.1,1.5c-0.6,0.2-1.3,0.3-2,0.4s-1.5,0.1-2.3,0.2c-0.8,0-1.5,0-2.3,0
		c-0.8,0-1.4-0.1-2.1-0.3c-1.2-0.3-2.3-0.7-3.3-1.3c-1-0.6-1.9-1.4-2.6-2.5c-0.4-0.7-0.8-1.4-1-2.2s-0.4-1.6-0.5-2.4h7.1
		c0.1,0.4,0.3,0.9,0.4,1.3s0.4,0.9,0.6,1.3c0.2,0.4,0.5,0.7,0.9,1c0.3,0.3,0.8,0.5,1.2,0.6c0.6,0.1,1.2,0.2,1.8,0.3
		c0.7,0.1,1.3,0,1.8-0.2c0.5-0.2,0.8-0.4,1-0.8c0.2-0.3,0.4-0.7,0.4-1.1c0.1-0.5,0-1-0.3-1.4c-0.3-0.5-0.7-0.8-1.2-1.1
		c-0.4-0.2-0.9-0.4-1.5-0.6c-0.6-0.2-1.2-0.4-1.9-0.6c-0.7-0.2-1.4-0.4-2-0.6c-0.7-0.2-1.3-0.4-1.9-0.5c-0.9-0.2-1.7-0.6-2.5-0.9
		s-1.3-0.8-1.8-1.4c-0.6-0.7-1-1.5-1.3-2.5c-0.2-1-0.3-1.9-0.2-2.8c0.2-1.2,0.6-2.3,1.3-3.3c0.7-1,1.6-1.7,2.7-2.3
		c1.2-0.6,2.5-1,4-1.2s2.9-0.2,4.4,0c1.2,0.2,2.4,0.4,3.4,0.9c1,0.4,2,1.1,2.8,2c0.6,0.7,1.1,1.4,1.5,2.1c0.4,0.7,0.7,1.5,0.9,2.4
		H409.7z"/>
</g>
</svg>
