<?xml version="1.0" encoding="utf-8"?>
<!-- Generator: Adobe Illustrator 24.0.1, SVG Export Plug-In . SVG Version: 6.00 Build 0)  -->
<svg version="1.1" id="圖層_7" xmlns="http://www.w3.org/2000/svg" xmlns:xlink="http://www.w3.org/1999/xlink" x="0px" y="0px"
	 viewBox="0 0 28 56" style="enable-background:new 0 0 28 56;" xml:space="preserve">
<style type="text/css">
	.st0{fill:#FFFFFF;}
</style>
<g>
	<g>
		<path class="st0" d="M14,39.54c-7.65,0-13.88-6.22-13.88-13.88V13.98C0.12,6.33,6.35,0.1,14,0.1s13.88,6.22,13.88,13.88v11.69
			C27.88,33.32,21.65,39.54,14,39.54z M14,3.1C8,3.1,3.12,7.98,3.12,13.98v11.69c0,6,4.88,10.88,10.88,10.88s10.88-4.88,10.88-10.88
			V13.98C24.88,7.98,20,3.1,14,3.1z"/>
	</g>
	<g>
		<path class="st0" d="M14,16.84L14,16.84c-0.65,0-1.17-0.53-1.17-1.17v-5.43c0-0.65,0.53-1.17,1.17-1.17h0
			c0.65,0,1.17,0.53,1.17,1.17v5.43C15.17,16.31,14.65,16.84,14,16.84z"/>
	</g>
	<g>
		<path class="st0" d="M14,55.9c-0.4,0-0.78-0.16-1.06-0.44l-5.81-5.81c-0.59-0.59-0.59-1.54,0-2.12s1.54-0.59,2.12,0L14,52.28
			l4.74-4.75c0.58-0.59,1.53-0.59,2.12,0c0.59,0.58,0.59,1.54,0,2.12l-5.8,5.81C14.78,55.74,14.4,55.9,14,55.9
			C14,55.9,14,55.9,14,55.9z"/>
	</g>
</g>
</svg>
