<?xml version="1.0" encoding="utf-8"?>
<!-- Generator: Adobe Illustrator 24.0.1, SVG Export Plug-In . SVG Version: 6.00 Build 0)  -->
<svg version="1.1" id="分離模式" xmlns="http://www.w3.org/2000/svg" xmlns:xlink="http://www.w3.org/1999/xlink" x="0px"
	 y="0px" viewBox="0 0 25 53" style="enable-background:new 0 0 25 53;" xml:space="preserve">
<style type="text/css">
	.st0{fill:#FFFFFF;}
</style>
<path class="st0" d="M0.82,28.04c2.8-0.5,5.62-3.69,7.74-8.76c2.16-5.17,3.41-11.89,3.41-18.42c0-0.3,0.24-0.54,0.54-0.54
	s0.54,0.24,0.54,0.54c0,6.53,1.24,13.24,3.41,18.42c2.12,5.07,4.94,8.26,7.74,8.76c0.26,0.05,0.44,0.27,0.44,0.53
	c0,0.03,0,0.06-0.01,0.1c-0.05,0.29-0.33,0.49-0.62,0.43c-1.45-0.26-2.88,0.19-4.24,1.33c-4.02,3.36-6.71,12.08-6.71,21.7
	c0,0.3-0.24,0.54-0.54,0.54s-0.54-0.24-0.54-0.54c0-9.62-2.7-18.34-6.71-21.7c-1.37-1.14-2.79-1.59-4.24-1.33
	c-0.29,0.05-0.57-0.14-0.62-0.43c-0.01-0.03-0.01-0.06-0.01-0.1C0.38,28.31,0.56,28.09,0.82,28.04z"/>
</svg>
