<?xml version="1.0" encoding="utf-8"?>
<!-- Generator: Adobe Illustrator 24.0.1, SVG Export Plug-In . SVG Version: 6.00 Build 0)  -->
<svg version="1.1" id="_x0A_cream" xmlns="http://www.w3.org/2000/svg" xmlns:xlink="http://www.w3.org/1999/xlink" x="0px" y="0px"
	 viewBox="0 0 81.6 76.06" style="enable-background:new 0 0 81.6 76.06;" xml:space="preserve">
<style type="text/css">
	.st0{fill:#849B0E;}
	.st1{fill:#7A8E0E;}
	.st2{fill:#A1B728;}
	.st3{fill:#FB1803;}
	.st4{fill:#FF400F;}
	.st5{fill:#FFB78E;}
	.st6{fill:#FF6D4F;}
</style>
<g id="圖層_5">
</g>
<g>
	<g>
		<g>
			<path class="st0" d="M70.32,22.55c-5.64,0.41-12.67,2.82-12.43,5.16c0.23,2.33,7.62,3.69,13.27,3.27
				c5.64-0.41,9.79-4.97,9.79-4.97S75.96,22.14,70.32,22.55z"/>
			<path class="st1" d="M72.53,30.1c-4.37-1.32-10.36-1.56-10.85,0.21c-0.5,1.77,4.69,4.91,9.05,6.23c4.37,1.32,8.81-0.83,8.81-0.83
				S76.9,31.43,72.53,30.1z"/>
		</g>
		<g>
			<path class="st1" d="M61.32,11.97c-1.32,5.51-4.82,12.05-7.08,11.45c-2.26-0.6-2.42-8.12-1.11-13.62
				c1.31-5.5,6.47-8.88,6.47-8.88S62.63,6.47,61.32,11.97z"/>
			<path class="st0" d="M54.22,8.59c0.61,4.53-0.11,10.47-1.94,10.68c-1.84,0.21-4.1-5.41-4.7-9.94C46.97,4.8,49.8,0.76,49.8,0.76
				S53.61,4.06,54.22,8.59z"/>
		</g>
	</g>
	<path class="st2" d="M52.55,17.9c1.01,1.18,2.55,1.9,4.38,1.89c1.83-0.01,3.62-0.75,5.02-1.95l6.69-5.69l2.74,3.21l-6.69,5.69
		c-1.4,1.19-2.43,2.84-2.73,4.65c-0.3,1.81,0.16,3.45,1.17,4.63l1.44,1.69l-3.27,2.5L48.12,19.04l2.99-2.83L52.55,17.9z"/>
	<path class="st3" d="M30.93,5.75c7.45-0.85,14.99,1.13,19.87,9.16c1.61,2.65,5.09,8.46,6.53,10.15c1.45,1.7,6.62,6.07,8.97,8.08
		c7.16,6.11,8.09,13.38,5.87,21.08c-2.59,9-9.74,14.77-17.95,17.45c-11.73,3.84-18.23,2.26-29.08,3.3
		c-5.51,0.53-13.58,2.59-20.51-5.07c-6.45-8.06-3.13-15.7-1.72-21.05c2.76-10.54,2.24-17.21,7.9-28.18
		C14.8,13,21.63,6.81,30.93,5.75z"/>
	<path class="st4" d="M35.12,9.51c6.37-0.89,12.75,0.6,16.73,7.27c1.31,2.19,4.15,7.02,5.33,8.42c1.19,1.4,5.5,4.97,7.46,6.61
		c5.95,5,6.58,11.11,4.51,17.67c-2.42,7.67-8.65,12.71-15.71,15.18c-10.09,3.52-15.6,2.33-24.87,3.47
		c-4.71,0.58-11.64,2.5-17.37-3.8c-5.31-6.67-2.3-13.2-0.97-17.75c2.6-8.97,2.31-14.59,7.4-23.99
		C21.19,16.01,27.16,10.62,35.12,9.51z"/>
	<path class="st5" d="M7.82,29.81c0,0,12.08,6.38,15.79,4.61c1.87-0.89,1.68-3.73,2.69-5.37c-4.05-3.99-6.96-8.91-9.96-13.75
		c0,0,8.17,10.91,12.22,10.67c0.36-0.02,2.47-2.33,3.37-3.01c-2.64-4.19-4.33-9.02-6.14-13.78c0,0,5.32,11.16,8.97,11.91
		c1.5,0.31,2.66-1.38,4-1.86c-1.17-3.57-1.4-7.48-1.73-11.37c0,0,1.68,9.31,4.22,10.63c3.9,2.03,8.4-0.79,11.84,0.17
		c1.57,2.54,3.33,5.31,4.25,6.39c0.99,1.16,3.71,3.56,6.09,5.62c0.32,3.47-3.25,7.37-1.94,11.48c0.85,2.66,9.6,5.74,9.6,5.74
		c-3.53-0.83-6.96-1.17-10.76-3.47c-0.72,1.26-2.63,2.12-2.58,3.68c0.11,3.7,10.24,10.68,10.24,10.68
		c-4.62-2.42-9.12-4.92-12.6-8.24c-0.83,0.75-3.51,2.4-3.59,2.74c-0.94,3.97,8.62,13.85,8.62,13.85c-4.25-3.77-8.6-7.42-12.12-12.16
		c-1.75,0.69-4.47,0.06-5.62,1.71c-2.37,3.43,2.06,16.54,2.06,16.54c-2.24-5.02-5-9.69-5.76-15.73c-3.06,0.6-9.22,1.68-9.37,1.82
		c-2.98,2.59-5.52,14.81-5.52,14.81c0.34-4.68,0.27-9.47,1.81-13.89c-5.16,1.4-8.46,2.54-10.32,0.36
		c-1.86-2.19-0.08-5.14,2.09-10.07C13,50.86,8.32,50.51,3.63,50.04c0,0,12.45-0.51,15.45-3.07c2.24-1.9,2.63-6,3.17-9.07
		C17.11,36.14,12.5,32.87,7.82,29.81z"/>
	<path class="st6" d="M61.04,28.59c-1.43,5.37-5.58,12.91-13.09,18.56c-5.52,4.16-12.08,3.85-18.06,6.71
		c-6.47,3.1-11.97,7.09-13.12,5.73c-1.11-1.31,3.49-5.78,7.3-11.38c3.82-5.61,4.86-12.36,9.97-17.41
		c6.77-6.69,14.94-9.35,20.56-9.73c1.09,1.71,2.12,3.25,2.75,4C58.01,25.85,59.45,27.18,61.04,28.59z"/>
</g>
</svg>
