<?xml version="1.0" encoding="utf-8"?>
<!-- Generator: Adobe Illustrator 24.0.1, SVG Export Plug-In . SVG Version: 6.00 Build 0)  -->
<svg version="1.1" id="top" xmlns="http://www.w3.org/2000/svg" xmlns:xlink="http://www.w3.org/1999/xlink" x="0px" y="0px"
	 viewBox="0 0 216 159.75" style="enable-background:new 0 0 216 159.75;" xml:space="preserve">
<style type="text/css">
	.st0{fill:#FFFFFF;stroke:#0F9E9B;stroke-width:3;stroke-linecap:round;stroke-linejoin:round;stroke-miterlimit:10;}
	.st1{fill:#009E9B;}
</style>
<path class="st0" d="M187,5.23H29.01c-13.54,0-24.62,11.08-24.62,24.62v63.61c0,13.54,11.08,24.62,24.62,24.62l88.05-0.24
	l14.85,31.08c4.57,9.58,12.06,9.58,16.63,0l14.85-31.08l23.61,0.24c13.54,0,24.62-11.08,24.62-24.62V29.86
	C211.62,16.31,200.54,5.23,187,5.23z"/>
<g>
	<path class="st1" d="M70.47,48.89v1.54h-1.42V37.31h5.46v11.58H70.47z M70.47,38.75v8.7h2.62v-8.7H70.47z M81.33,43.67
		c0,0.28,0,0.58-0.02,0.9c0.76,3.72,2.44,6.72,5.52,7.86c-0.34,0.3-0.78,0.86-1,1.26c-2.48-1.08-4.04-3.22-5.02-6.08
		c-0.68,2.18-2.26,4.42-5.78,6.16c-0.2-0.34-0.7-0.86-1.04-1.12c5.42-2.6,5.88-6.36,5.88-9.02v-1.68h1.46V43.67z M78.19,40.47
		c-0.62,1.66-1.36,3.14-2.2,4.28c-0.28-0.22-0.96-0.64-1.32-0.82c1.6-1.98,2.74-5.14,3.36-8.4l1.48,0.24
		c-0.22,1.12-0.5,2.22-0.84,3.26h6.66l0.26-0.06l1.08,0.32c-0.48,1.82-1.1,3.9-1.74,5.22l-1.26-0.44c0.4-0.92,0.82-2.3,1.14-3.6
		H78.19z"/>
	<path class="st1" d="M96.81,51.49c-0.38-0.66-1.22-1.9-1.94-2.86c-0.46,1.84-1.28,3.58-2.74,5.1c-0.2-0.32-0.68-0.8-0.98-1.02
		c2.66-2.84,2.96-6.54,2.96-10.14v-6.9h1.34v6.9c0,1.5-0.04,2.96-0.26,4.42c0.7,0.8,2.28,2.84,2.66,3.34L96.81,51.49z M92.29,44.77
		c-0.18-1.36-0.64-3.78-1.12-5.58l1.1-0.24c0.48,1.8,1,4.14,1.2,5.46L92.29,44.77z M98.35,39.21c-0.56,1.36-1.22,3.02-1.78,4.1
		l-0.92-0.46c0.48-1.1,1.12-2.92,1.44-4.12L98.35,39.21z M97.09,52.63c0.64-1.02,1.16-2.7,1.4-3.98l1.12,0.4
		c-0.26,1.3-0.74,3.08-1.4,4.18L97.09,52.63z M108.11,46.81h-9.36v-9.26h2.84c0.2-0.68,0.4-1.5,0.48-2.12l1.66,0.16
		c-0.22,0.66-0.46,1.38-0.7,1.96h5.08V46.81z M106.65,38.71h-6.48v1.56h6.48V38.71z M106.65,41.37h-6.48v1.58h6.48V41.37z
		 M106.65,44.05h-6.48v1.6h6.48V44.05z M105.03,52.31c0.62,0,0.74-0.24,0.8-2.24c0.3,0.24,0.82,0.44,1.2,0.52
		c-0.14,2.38-0.54,2.94-1.86,2.94h-2.86c-1.66,0-2.06-0.38-2.06-1.76v-3.44h1.3v3.44c0,0.46,0.14,0.54,0.9,0.54H105.03z
		 M103.07,47.05c0.78,0.72,1.7,1.8,2.14,2.5l-1.04,0.52c-0.44-0.72-1.34-1.82-2.14-2.58L103.07,47.05z M107.51,48.19
		c0.84,1.22,1.78,2.86,2.16,3.86l-1.16,0.6c-0.34-1.06-1.26-2.74-2.08-3.96L107.51,48.19z"/>
	<path class="st1" d="M119.89,47.51c0.48,1.56,0.94,3.58,1.12,4.92l-1.08,0.3c-0.04-0.4-0.12-0.86-0.22-1.36
		c-1.94,0.38-3.9,0.72-5.46,1.02l-0.22-1.46c0.8-0.12,1.78-0.26,2.84-0.44v-4.16h-1.26v1.08h-1v-8.3h2.28v-3.52h1.22v3.52h2.34v7.22
		h-2.34v3.96l1.34-0.24c-0.18-0.78-0.38-1.58-0.58-2.28L119.89,47.51z M115.71,40.37v4.7h1.3v-4.7H115.71z M119.33,40.37h-1.38v4.7
		h1.38V40.37z M123.11,40.15c-0.5-0.64-1.36-1.48-2.32-2.28c0.82-0.78,1.66-1.68,2.18-2.32l1.26,0.38c-0.58,0.66-1.26,1.34-1.88,1.9
		c0.8,0.66,1.6,1.42,2.06,1.98l-0.8,0.34h3.14c-0.56-0.66-1.52-1.5-2.58-2.32c0.88-0.78,1.78-1.66,2.3-2.28l1.24,0.38
		c-0.6,0.66-1.32,1.3-1.96,1.86c0.82,0.62,1.66,1.36,2.14,1.9l-0.98,0.46h3.26c-0.62-0.64-1.6-1.52-2.72-2.32
		c0.96-0.78,1.94-1.7,2.5-2.3l1.26,0.4c-0.66,0.64-1.44,1.3-2.16,1.88c0.9,0.62,1.82,1.4,2.36,1.94l-0.8,0.4h0.7v5.56h-10v-5.56
		H123.11z M122.81,47.19h2.2v1.06h-2.2v1.18h2.2v1.04h-2.2v1.54l1.9-0.46c0.02,0.34,0.1,0.76,0.18,1.02
		c-2.72,0.84-3.18,1.04-3.46,1.22c-0.04-0.32-0.22-0.86-0.4-1.18c0.28-0.06,0.6-0.18,0.6-0.82v-5.6h1.18V47.19z M130.01,41.13h-7.46
		v3.6h7.46V41.13z M129.13,44.35c-0.7-0.36-1.92-0.9-2.96-1.32c-0.74,0.6-1.58,1.12-2.42,1.48c-0.18-0.18-0.58-0.54-0.86-0.7
		c1.44-0.56,2.82-1.42,3.46-2.54l1.08,0.26c-0.14,0.26-0.32,0.54-0.54,0.8c1,0.36,2.18,0.86,2.82,1.18L129.13,44.35z M129.17,51.39
		c0.02,0.34,0.12,0.76,0.2,1.04c-3.16,0.96-3.66,1.14-3.94,1.36c-0.04-0.32-0.24-0.88-0.38-1.16c0.26-0.08,0.58-0.2,0.58-0.84v-5.62
		h1.16v1.06h2.24v1.04h-2.24v1.18h2.22v1.04h-2.22v1.52L129.17,51.39z M130.65,46.23c-0.06,3.56,0.24,6.18,0.64,6.18
		c0.16,0,0.3-0.48,0.36-1.5c0.22,0.22,0.58,0.48,0.8,0.58c-0.22,1.68-0.64,2.24-1.1,2.24c-1.4,0-1.88-3.38-1.9-7.5H130.65z"/>
	<path class="st1" d="M142.05,51.23c-0.36-0.64-1.1-1.84-1.76-2.8c-0.38,1.94-1.14,3.76-2.48,5.38c-0.22-0.32-0.72-0.76-1-0.98
		c2.42-2.96,2.66-6.7,2.66-10.32v-6.8h1.32v6.8c0,1.46-0.04,2.9-0.22,4.3c0.6,0.76,2.1,2.86,2.48,3.38L142.05,51.23z M137.49,44.89
		c-0.08-1.4-0.38-3.84-0.68-5.74l1.1-0.16c0.34,1.88,0.68,4.26,0.76,5.62L137.49,44.89z M143.37,39.21
		c-0.52,1.4-1.12,3.18-1.64,4.26l-0.92-0.36c0.46-1.14,1.02-3.04,1.3-4.32L143.37,39.21z M154.37,43.13c-0.2,7.12-0.38,9.32-0.88,10
		c-0.28,0.44-0.66,0.58-1.14,0.62c-0.44,0.06-1.14,0.06-1.84,0.02c-0.02-0.3-0.14-0.76-0.32-1.06c0.68,0.08,1.28,0.08,1.54,0.08
		c0.28,0,0.42-0.04,0.56-0.28c0.34-0.48,0.54-2.64,0.7-8.82h-7.88c-0.64,0.78-1.34,1.48-2.04,2.04c-0.2-0.22-0.74-0.72-1.02-0.92
		c1.3-0.98,2.54-2.42,3.34-3.94h-1.84v-4.54h10.62v4.54h-7.24c-0.28,0.54-0.58,1.1-0.94,1.6h8.38V43.13z M150.79,52.27
		c-0.08-0.22-0.16-0.44-0.3-0.7c-2.68,0.3-5.38,0.54-7.38,0.74l-0.2-1.26c1.12-0.06,2.58-0.14,4.16-0.24v-1.78h-3.12v-3.84h3.12
		v-0.98h1.18v0.98h3.2v3.84h-3.2v1.7l1.74-0.12c-0.2-0.32-0.38-0.66-0.6-0.92l0.92-0.42c0.6,0.76,1.2,1.84,1.46,2.54L150.79,52.27z
		 M144.69,39.71h2.04v-2.22h-2.04V39.71z M147.07,48.05v-1.88h-1.98v1.88H147.07z M147.71,39.71h2.12v-2.22h-2.12V39.71z
		 M148.25,46.17v1.88h2.02v-1.88H148.25z M150.83,39.71h2.18v-2.22h-2.18V39.71z"/>
	<path class="st1" d="M39.53,62.21c-0.44,1.06-1.14,1.94-2,2.66c1.08,0.62,2.3,1.1,3.6,1.38c-0.3,0.28-0.68,0.78-0.86,1.14
		c-1.38-0.38-2.68-0.98-3.8-1.72c-1.06,0.66-2.3,1.16-3.62,1.58c-0.16-0.28-0.56-0.78-0.84-1.04c1.28-0.32,2.44-0.76,3.44-1.34
		c-0.6-0.5-1.12-1.08-1.56-1.66c-0.36,0.38-0.7,0.72-1.08,1.04c-0.18-0.22-0.52-0.58-0.8-0.84c-0.14,2.14-0.28,3-0.62,3.36
		c-0.22,0.26-0.5,0.36-0.94,0.4c-0.3,0.02-0.92,0.04-1.58,0c-0.02-0.24-0.08-0.54-0.16-0.84h-3.02v0.6h-1.08v-2.52
		c-0.28,0.3-0.58,0.58-0.94,0.84c-0.2-0.26-0.58-0.62-0.86-0.76c1.12-0.78,1.84-1.8,2.24-2.7l1.16,0.18
		c-0.06,0.14-0.12,0.3-0.18,0.44h6.02c0,0,0,0.34-0.02,0.5l-0.02,0.18c1.14-0.9,2.16-2.2,2.76-3.54l1.28,0.34
		c-0.18,0.42-0.4,0.8-0.62,1.2h5.26v1.12H39.53z M26.01,61.23h-2.7v-0.96h2.7v-0.74h1.22v2.3h-1.22V61.23z M23.45,77.11
		c0.68-0.66,1.38-1.76,1.82-2.54l1.2,0.6c-0.48,0.82-1.12,1.92-1.8,2.62L23.45,77.11z M29.33,66.17c0.26,0,0.44,0,0.54,0
		c0.22,0,0.36,0,0.48-0.14c0.16-0.22,0.28-0.92,0.38-2.72h-5.24c-0.16,0.22-0.32,0.44-0.5,0.66h4.34V66.17z M40.29,73.31
		c0,0-0.04,0.36-0.08,0.54c-0.24,2.18-0.46,3.12-0.88,3.5c-0.28,0.28-0.6,0.38-1.06,0.42c-0.42,0.02-1.2,0.02-2.04-0.04
		c-0.02-0.32-0.14-0.74-0.32-1.08l-0.2,0.1c-0.24-0.5-0.8-1.22-1.3-1.74l1.02-0.44c0.52,0.5,1.08,1.18,1.36,1.64l-0.78,0.4
		c0.72,0.08,1.36,0.08,1.62,0.08c0.26,0,0.44-0.02,0.56-0.16c0.22-0.22,0.4-0.82,0.58-2.24H25.65v-6.72h13.28v1h-5.78v1h5.04v0.86
		h-5.04v1h5.1v0.86h-5.1v1.02H40.29z M28.23,64.71h-2.54v0.9h2.54V64.71z M27.07,68.57v1h4.66v-1H27.07z M31.73,70.43h-4.66v1h4.66
		V70.43z M27.07,73.31h4.66v-1.02h-4.66V73.31z M29.07,74.93c0.28,0.76,0.54,1.78,0.6,2.44l-1.28,0.24
		c-0.06-0.68-0.28-1.7-0.54-2.48L29.07,74.93z M29.89,62.07h-1.22v-2.54h1.22v0.74h2.72v0.98h-2.72V62.07z M32.29,74.85
		c0.46,0.64,0.88,1.54,1.06,2.14l-1.18,0.38c-0.16-0.62-0.58-1.54-1.02-2.2L32.29,74.85z M34.63,62.27c0.48,0.7,1.12,1.32,1.86,1.9
		c0.7-0.56,1.24-1.2,1.64-1.96h-3.44L34.63,62.27z"/>
	<path class="st1" d="M63.75,70.67v1.18H45.83v-1.18h5.02c-0.16-0.44-0.4-0.92-0.64-1.3l0.76-0.22h-2.18v-3.62h12.06v3.62h-1.76
		l0.36,0.08c-0.28,0.52-0.6,1.02-0.88,1.44H63.75z M53.99,62.03h-7.54v-1.12h7.54v-1.44h1.5v1.44h7.72v1.12h-7.72v1.38h6.38v1.1
		H47.85v-1.1h6.14V62.03z M48.43,72.95h12.82v4.78h-1.5v-0.6h-9.86v0.62h-1.46V72.95z M49.89,74.03v2.02h9.86v-2.02H49.89z
		 M50.21,68.13h9.16v-1.58h-9.16V68.13z M51.65,69.15c0.32,0.48,0.62,1.08,0.74,1.52h4.68c0.24-0.46,0.54-1.04,0.72-1.52H51.65z"/>
	<path class="st1" d="M75.69,65.11c-0.06,2.24-0.36,4.94-1.68,7.58c1,0.88,1.9,1.72,2.5,2.42l-0.96,1.24
		c-0.56-0.68-1.38-1.5-2.3-2.36c-0.88,1.34-2.1,2.64-3.72,3.82c-0.22-0.32-0.74-0.8-1.04-1.02c1.64-1.16,2.82-2.46,3.66-3.78
		c-1.06-0.94-2.2-1.86-3.22-2.64c0.4-1.3,0.82-3.08,1.22-4.94l-1.58,0.08l-0.16-1.42c0.58-0.02,1.26-0.06,2-0.08
		c0.28-1.52,0.5-3.1,0.64-4.46l1.46,0.08c-0.16,1.34-0.4,2.84-0.66,4.32l2.44-0.14v-1.46h1.4v1.38l1.16-0.06l-0.02,1.36L75.69,65.11
		z M71.59,65.35c-0.32,1.62-0.7,3.22-1.04,4.52c0.76,0.58,1.56,1.2,2.32,1.86c1.1-2.28,1.36-4.6,1.4-6.54L71.59,65.35z M86.71,69.35
		h-4.4v6.64c0,0.88-0.22,1.3-0.84,1.54c-0.62,0.22-1.58,0.26-3.14,0.24c-0.08-0.42-0.32-1-0.54-1.42c1.18,0.04,2.28,0.04,2.58,0.02
		c0.32,0,0.44-0.1,0.44-0.38v-6.64h-4.62v-1.42h4.62v-2.28c1.02-0.84,2.1-2.14,2.92-3.3h-6.66v-1.38h7.68l0.34-0.08l1.02,0.74
		c-0.98,1.48-2.4,3.16-3.8,4.38v1.92h4.4V69.35z"/>
	<path class="st1" d="M97.13,71.73c-0.36-0.56-1.1-1.56-1.74-2.4v8.42h-1.36v-8c-0.74,0.84-1.5,1.58-2.26,2.16
		c-0.12-0.42-0.44-1.16-0.66-1.42c1.88-1.36,3.82-3.76,4.94-6.2h-4.54v-1.36h5.26l0.26-0.06l0.8,0.54c-0.54,1.5-1.32,2.98-2.22,4.3
		c0.7,0.76,2.1,2.38,2.46,2.82L97.13,71.73z M94.63,62.87c-0.28-0.72-0.98-1.8-1.64-2.58l1.08-0.7c0.7,0.76,1.4,1.8,1.72,2.5
		L94.63,62.87z M109.51,76.21v1.16h-11.9v-1.16h3.68c-0.22-0.6-0.48-1.34-0.76-1.94l1.16-0.32c0.34,0.7,0.7,1.62,0.92,2.26h2.14
		c0.38-0.7,0.78-1.64,1-2.3l1.36,0.36c-0.38,0.68-0.76,1.36-1.1,1.94H109.51z M109.33,69.01H98.05v-1.14h11.28V69.01z M108.73,66.89
		H98.71v-5.74h2.88v-1.64h1.2v1.64h1.74v-1.64h1.22v1.64h2.98V66.89z M99.33,73.75v-3.72h8.76v3.72H99.33z M99.95,63.53h1.8v-1.38
		h-1.8V63.53z M99.95,65.89h1.8v-1.42h-1.8V65.89z M100.59,72.75h6.2v-1.72h-6.2V72.75z M104.53,63.53v-1.38h-1.74v1.38H104.53z
		 M102.79,64.47v1.42h1.74v-1.42H102.79z M107.43,62.15h-1.86v1.38h1.86V62.15z M107.43,64.47h-1.86v1.42h1.86V64.47z"/>
	<path class="st1" d="M117.13,62.23c-0.6,0.92-1.28,1.74-1.98,2.38c-0.2-0.24-0.72-0.74-1.06-0.98c1.26-1.06,2.4-2.64,3.08-4.26
		l1.32,0.36c-0.18,0.4-0.36,0.8-0.56,1.2h5.14v1.3h-3.74c0.68,0.58,1.5,1.32,1.92,1.8l-0.98,0.88c-0.44-0.58-1.34-1.48-2.08-2.1
		l0.72-0.58H117.13z M127.97,71.57h3.98v1.26h-3.98v3.38c0,0.86-0.22,1.2-0.88,1.38c-0.68,0.2-1.82,0.2-3.56,0.2
		c-0.04-0.4-0.22-0.86-0.4-1.26c1.34,0.06,2.56,0.06,2.9,0.04c0.34-0.04,0.44-0.12,0.44-0.4v-3.34h-12.06v-1.26h12.06v-1.4h1.5
		V71.57z M132.31,60.95v1.3h-4.4c0.66,0.6,1.46,1.42,1.86,1.96l-1.02,0.86c-0.38-0.58-1.2-1.5-1.9-2.14l0.88-0.68h-1.96
		c-0.52,0.94-1.1,1.74-1.68,2.4l-0.18-0.16v0.94h7.32v1.3h-7.32v1.78h6.2v1.2h-13.96v-1.2h6.26v-1.78h-7.26v-1.3h7.26v-1.24h1.12
		c-0.2-0.16-0.42-0.32-0.58-0.42c1.1-1.08,1.98-2.7,2.48-4.4l1.38,0.32c-0.12,0.44-0.28,0.84-0.46,1.26H132.31z M118.77,73.01
		c1.14,0.88,2.64,2.14,3.4,2.96l-1.1,0.88c-0.72-0.8-2.2-2.14-3.36-3.06L118.77,73.01z"/>
	<path class="st1" d="M154.25,64.61c-1.14,1.1-2.48,2.1-4,3h4.56v1.32h-6.96c-1.14,0.56-2.34,1.08-3.56,1.54h8.66v7.26h-1.48v-0.6
		h-8.88v0.6h-1.46v-6.16c-1.18,0.36-2.38,0.68-3.54,0.98c-0.16-0.32-0.52-0.92-0.76-1.22c2.74-0.56,5.5-1.38,8.02-2.4h-7.62v-1.32
		h6.74v-1.8h-5.08v-1.26h5.08v-1.46h1.46v1.46h4.82v1.26h-4.82v1.8h2.32c2.08-1.08,3.96-2.32,5.38-3.72L154.25,64.61z M141.27,62.19
		h-4v-1.3h4v-1.4h1.46v1.4h2.76v1.3h-2.76v1.52h-1.46V62.19z M151.47,71.67h-8.88v1.6h8.88V71.67z M151.47,75.95v-1.64h-8.88v1.64
		H151.47z M154.81,60.89v1.3h-4.04v1.54h-1.46v-1.54h-2.94v-1.3h2.94v-1.4h1.46v1.4H154.81z"/>
	<path class="st1" d="M165.53,59.99c-0.58,1.48-1.28,2.92-2.06,4.28v13.44h-1.42V66.49c-0.64,0.92-1.34,1.74-2.02,2.48
		c-0.16-0.36-0.56-1.12-0.84-1.46c1.96-1.92,3.8-4.9,4.94-7.94L165.53,59.99z M172.47,64.71v11.24c0,0.84-0.18,1.28-0.7,1.52
		c-0.54,0.26-1.38,0.3-2.64,0.3c-0.08-0.42-0.32-1.08-0.52-1.5c0.94,0.04,1.8,0.02,2.06,0.02c0.26,0,0.34-0.08,0.34-0.34V64.71
		h-3.04c-0.56,1.32-1.22,2.5-1.94,3.44c-0.24-0.22-0.86-0.72-1.18-0.94c1.46-1.84,2.62-4.7,3.28-7.62l1.46,0.32
		c-0.3,1.16-0.66,2.32-1.06,3.42h8.1l0.24-0.06l1.02,0.24c-0.26,1.46-0.62,3.18-0.88,4.24l-1.24-0.24c0.12-0.72,0.3-1.78,0.46-2.8
		H172.47z M169.23,68.29c-0.64,2.62-1.7,5.14-2.92,6.8c-0.28-0.24-0.92-0.62-1.28-0.82c1.26-1.52,2.2-3.9,2.74-6.26L169.23,68.29z
		 M175.23,67.85c1.14,2.12,2.16,4.86,2.5,6.68l-1.42,0.48c-0.32-1.82-1.32-4.62-2.38-6.72L175.23,67.85z"/>
	<path class="st1" d="M189.99,74.75c0-0.94,0.72-1.56,1.6-1.56c0.88,0,1.6,0.62,1.6,1.56c0,0.98-0.72,1.58-1.6,1.58
		C190.71,76.33,189.99,75.73,189.99,74.75z M190.45,63.63l-0.06-2.36h2.4l-0.04,2.36l-0.5,7.76h-1.32L190.45,63.63z"/>
</g>
</svg>
