<?xml version="1.0" encoding="utf-8"?>
<!-- Generator: Adobe Illustrator 24.0.1, SVG Export Plug-In . SVG Version: 6.00 Build 0)  -->
<svg version="1.1" id="圖層_6" xmlns="http://www.w3.org/2000/svg" xmlns:xlink="http://www.w3.org/1999/xlink" x="0px" y="0px"
	 viewBox="0 0 214.5 61.5" style="enable-background:new 0 0 214.5 61.5;" xml:space="preserve">
<style type="text/css">
	.st0{fill:none;stroke:#FFFFFF;stroke-width:2;stroke-miterlimit:10;}
	.st1{fill:#FFFFFF;}
</style>
<g>
	<path class="st0" d="M49.5,6.6h-4.7c-1.6,0-3.1,1-3.7,2.5c-0.2,0.4-0.4,0.9-0.6,1.3V8.9c0-2.2-1.8-4-4-4h-4.5c-2.2,0-4,1.8-4,4v1.2
		c-0.2-0.4-0.4-0.8-0.6-1.2c-0.7-1.4-2.1-2.3-3.6-2.3h-4.9c-1.2,0-2.3,0.5-3.1,1.5c-0.1-0.3-0.2-0.5-0.4-0.8
		c-0.6-1.5-2.1-2.4-3.7-2.4H6.9c-1.4,0-2.6,0.7-3.4,1.8s-0.9,2.6-0.3,3.8c1,2.2,2.1,4.4,3.3,6.5c-1,0.2-1.9,0.8-2.6,1.6
		c-0.7,1.1-0.9,2.4-0.5,3.6c1.2,3.5,3.1,7.3,5.7,11.5c0.3,0.5,0.7,0.9,1.1,1.2c-1.7,6.2-3.8,11.1-6.5,15.4c-0.8,1.2-0.8,2.8-0.1,4.1
		s2,2.1,3.5,2.1h5.2c1.5,0,2.8-0.8,3.5-2.1c0.2-0.4,0.4-0.8,0.6-1.2c0.4,1.8,2,3.2,3.9,3.2h4.6c2.2,0,4-1.8,4-4v-5.9h4.9
		c-0.1,0.1-0.1,0.2-0.2,0.2c-0.7,1.1-0.9,2.5-0.3,3.8l1.5,3.4c0.6,1.5,2.1,2.4,3.7,2.4H44c2.1,0,4.1-0.7,5.7-2.1
		c0.1-0.1,0.1-0.1,0.2-0.2c1.6-1.6,2.4-3.6,2.4-5.8V27.3c0-2.1-0.7-4.1-2-5.6c0,0-0.1-0.1-0.1-0.1c-0.4-0.4-0.8-0.8-1.2-1.2
		c1.5-2.4,3.2-5.3,4.3-8.6c0.4-1.2,0.2-2.6-0.6-3.6C51.9,7.2,50.7,6.6,49.5,6.6z"/>
	<path class="st0" d="M104.6,49c-1.1-0.4-2.2-1-3.2-1.5c1.1-1.4,1.7-3.1,1.7-4.9v-9.5c0-0.2,0-0.4,0-0.6c0.6-0.5,1.1-1,1.5-1.6
		c0.9-1.4,1.4-3.1,1.4-5.1c0-0.1,0-0.2,0-0.4c-0.2-1.9-0.8-3.6-1.8-5c-0.3-0.4-0.6-0.8-1-1.1c0.5-0.9,0.7-1.9,0.7-2.9V14
		c0-1.9-0.8-3.7-2.3-5.1c-1.3-1.1-2.9-1.8-4.5-1.8h-4.7c-0.6-1.4-2-2.4-3.7-2.4h-4.5c-1.5,0-2.9,0.9-3.5,2.1c-0.7-1.3-2-2.1-3.5-2.1
		h-4.5c-1.6,0-3,1-3.7,2.4H60c-2.2,0-4,1.8-4,4v3c0,1,0.4,2,1,2.7c0,0,0,0,0,0.1c0,0,0,0.1,0,0.1c-0.5,1.5-0.7,3.5-0.7,4.8
		c0,2.2,1.3,4.6,3.4,5.8c-0.9,1.3-1.5,2.9-1.5,4.5v10.3c0,2.1,0.7,4,2.1,5.6c0.1,0.1,0.2,0.2,0.3,0.3c-0.5,0.2-1,0.4-1.4,0.5
		c-1.9,0.6-3.1,2.4-2.8,4.4c0.3,2,2,3.4,4,3.4h9.4c0.7,0,1.4-0.2,2-0.6c2.9-1.7,5.2-3.5,6.9-5.4h4.9c0.2,0.2,0.4,0.4,0.6,0.5
		c2.3,1.6,5.1,3.4,7.8,4.9c0.6,0.3,1.3,0.5,2,0.5h9.3c1.9,0,3.6-1.3,3.9-3.2S106.3,49.7,104.6,49z"/>
	<path class="st0" d="M155.1,24.9h-5.2c2.5-2.7,5.5-6.3,6.7-8.7c1.1-2.2,1-4.7-0.3-6.7c-1.2-2.1-3.5-3.4-5.8-3.4h-19.8
		c-2.2,0-4,1.8-4,4v2.4c-0.8-0.3-1.7-0.4-2.6-0.4c0.1-1,0.2-2,0.3-2.8c0.1-1.1-0.3-2.2-1.1-3S121.6,5,120.4,5h-4.2
		c-2.1,0-3.9,1.6-4,3.7c-0.1,1.2-0.2,2.3-0.3,3.4h-0.4c-2.2,0-4,1.8-4,4v3.5c0,1.8,1.2,3.4,2.9,3.9c-0.4,2.5-0.8,5-1.2,6.9
		c-0.5,2.5-0.3,4.6,0.7,6.3c1,1.9,2.4,4.2,3.9,6.7c-1.7,2.3-3.5,4.5-5.6,6.5c-1.2,1.1-1.5,2.9-0.9,4.4c0.6,1.5,2.1,2.5,3.7,2.5h6.1
		c1.2,0,2.3-0.5,3.1-1.4c0.2-0.3,0.5-0.6,0.7-0.9c0.2,0.3,0.4,0.5,0.5,0.7c0.8,1,1.9,1.6,3.2,1.6h5.9c0.9,0,1.7-0.3,2.3-0.7
		c0.7,0.5,1.5,0.7,2.3,0.7h4.8c2.5,0,4.8-0.9,6.4-2.6c1.4-1.5,2.2-3.6,2.2-6V36.3h6.6c2.2,0,4-1.8,4-4v-3.4
		C159.1,26.7,157.3,24.9,155.1,24.9z M140.3,17.6c-1,1-2,2-3.1,3.1c-0.8,0.8-1.3,1.8-1.3,2.9v1.3h-3.7c0.1-1.2,0.2-2.4,0.2-3.7
		c0.1-1.3-0.1-2.5-0.5-3.6H140.3z M130.7,46.3c-0.8-1.1-1.6-2.3-2.4-3.5c1-2.1,1.7-4.2,2.3-6.5h5.4v8.8h-2.5
		C132.4,45.1,131.4,45.5,130.7,46.3z"/>
	<path class="st0" d="M208.3,45.3c0.9-1.2,1.5-2.7,1.5-4.3v-2.9c0-0.8-0.1-1.5-0.3-2.2c1.2-0.7,2-2,2-3.5v-3.3
		c0-1.4-0.7-2.6-1.7-3.3c0.4-0.9,0.6-2,0.6-3v-6.6c0-2.1-0.7-4.1-2.1-5.6c-1.4-1.6-3.5-2.6-5.7-2.6c-0.4-1.7-2-3-3.9-3h-3.9
		c-0.6,0-1.2,0.1-1.7,0.4c-0.5-0.2-1.1-0.4-1.7-0.4h-3.9c-1.9,0-3.4,1.3-3.9,3c-1.7,0.1-3.3,0.7-4.8,1.9c-0.5,0.4-0.9,0.8-1.3,1.3
		c-0.2-0.1-0.5-0.1-0.7-0.2c-0.3-1-0.6-1.9-0.8-2.8c-0.4-1.8-2-3.1-3.9-3.1h-4.6c-1.2,0-2.4,0.6-3.2,1.6c-0.8,1-1,2.3-0.7,3.5
		c0.1,0.2,0.1,0.5,0.2,0.8c-2,0.2-3.5,1.9-3.5,4v3.4c0,2.2,1.8,4,4,4h3.7c-1.9,3.9-4.3,7.5-7.1,10.8c-1,1.2-1.3,2.9-0.6,4.3
		c0.7,1.4,2.1,2.3,3.6,2.3h0.9v13.1c0,2.2,1.8,4,4,4h4.4c1.1,0,2.1-0.5,2.9-1.2c0.7,0.7,1.7,1.2,2.8,1.2h28.6c2.2,0,4-1.8,4-4v-3.4
		C211.6,47.2,210.2,45.6,208.3,45.3z M177.3,45.6v-2.2c0.2,0.7,0.6,1.3,1,1.9C178,45.3,177.6,45.4,177.3,45.6z"/>
</g>
<g>
	<g>
		<path class="st1" d="M12.8,19.3C10.5,16,8.5,12.5,6.9,8.9h4.9c1.6,3.8,3.9,7.1,6.4,10.4H12.8z M12.3,52.5H7.1
			c3.7-5.8,6-12.2,7.6-18.7h4.6C17.6,40.3,15.5,46.7,12.3,52.5z M12.6,31.7c-2.1-3.5-4-7.1-5.3-10.8H12c1.2,3.9,3.6,7.4,6,10.8H12.6
			z M24.5,20.4c-2.2-3.1-4.1-6.4-5.7-9.8h4.9c1.6,3.4,3.6,6.6,6.1,9.8H24.5z M47.1,51.4c-0.8,0.7-1.9,1.1-3.1,1.1h-5.5l-1.5-3.4h5.8
			c0.5,0,0.9-0.3,0.9-0.9v-5.6H24.9v9.9h-4.6V26.9c0-1.2,0.4-2.2,1.2-3c0.8-0.8,2-1.2,3.2-1.2h7.1V8.9h4.5v13.9h7.7
			c1.2,0,2.3,0.6,3.1,1.5c0.7,0.9,1.1,2,1.1,3.1v21.1C48.3,49.7,47.8,50.7,47.1,51.4z M43.8,27.6c0-0.8-0.5-1.4-1.3-1.4H26.1
			c-0.7,0-1.1,0.3-1.1,1.2v3.2h18.8V27.6z M43.8,34.3H24.9v4.8h18.8V34.3z M44.1,20.4h-5.3c2.2-2.9,4.7-6.5,6-9.8h4.7
			C48.3,14.1,46.3,17.3,44.1,20.4z"/>
	</g>
	<g>
		<path class="st1" d="M101.2,28.5c-0.6,0.9-1.5,1.5-2.8,1.6c0.4,0.8,0.6,1.9,0.6,3v9.5c0,1.2-0.5,2.2-1.3,2.9
			c-0.9,0.9-2.2,1.2-3.5,1.2H65.7c-0.8,0-1.8-0.5-2.5-1.3c-0.6-0.8-1.1-1.8-1.1-3V32.1c0-1,0.5-2,1.2-2.8c0.7-0.7,1.6-1.1,2.5-1.1h2
			c0.9-0.9,2.4-2.6,3.1-3.8h-8.4c-1.2,0-2.4-1.5-2.4-2.6c0-1.1,0.2-2.7,0.5-3.6c0.4-1.1,1.5-2,2.9-2h9.2v-2.1H60v-3h12.8V8.8h4.5
			v2.4h7.1V8.8h4.5v2.4h8.4c0.6,0,1.3,0.3,1.8,0.8c0.6,0.6,1,1.3,1,2.1v2.2c0,0.8-0.4,1.5-1.1,2.1c-0.6,0.6-1.4,0.9-2.2,0.9h-7.9
			v2.1h9.8c1,0,1.8,0.5,2.4,1.2c0.6,0.8,1,1.9,1.1,3C102,26.7,101.8,27.7,101.2,28.5z M69.5,52.7h-9.4c3.1-0.9,5.9-2.6,8.5-4.8h6.9
			C73.8,49.9,71.6,51.4,69.5,52.7z M65.7,19.3c-0.2,0-0.5,0.1-0.7,0.4c-0.1,0.2-0.2,0.8-0.1,1c0,0.4,0.2,0.7,0.6,0.7h6.8
			c0.2-0.6,0.4-1.5,0.4-2.1H65.7z M94.5,32.2c0-0.7-0.6-1-1.4-1H67.9c-0.6,0-1.3,0.4-1.3,0.9v1.1h27.9V32.2z M94.5,36.3H66.6v2.1
			h27.9V36.3z M94.5,41.5H66.6v1c0,0.6,0.6,1.1,1.2,1.1h25.5c0.7,0,1.3-0.5,1.3-1.2V41.5z M84.3,24.5h-8.4c-0.5,1.2-1.4,2.8-2.1,3.8
			h10.5V24.5z M84.3,19.3h-7.1c-0.1,0.6-0.2,1.5-0.4,2.1h7.4V19.3z M84.3,14.2h-7.1v2.1h7.1V14.2z M93.8,52.7
			c-2.5-1.4-5.1-3.1-7.5-4.8h8.3c2.2,1.7,5.6,3.5,8.5,4.8H93.8z M95.4,14.8c0-0.4-0.4-0.6-0.7-0.6h-6v2.1h6c0.3,0,0.6-0.2,0.6-0.6
			V14.8z M96,24.5h-7.2v3.8h5.1L92.9,27H96c0.9,0,1.2-0.7,1.2-1.3C97.2,25.1,96.8,24.5,96,24.5z"/>
	</g>
	<g>
		<path class="st1" d="M124.6,52.7c-0.9-1.2-2.7-3.9-3.5-5.3c-1.3,1.9-2.7,3.8-4,5.3H111c2.9-2.9,5.5-6,7.6-9.3
			c-1.8-2.9-3.8-6.2-5.2-8.8c-0.5-1-0.5-2.3-0.2-3.6c0.6-3.1,1.5-8,1.9-11.5h-3.5v-3.5h3.9c0.4-2.4,0.7-4.9,0.8-7.1h4.2
			c-0.1,1.9-0.5,5-0.9,7.1h4.5c1.1,0,2.1,0.4,2.9,1c1.1,0.9,1.7,2.3,1.6,4c-0.4,7.9-1.2,15.6-4.9,22.1c2.2,3.3,4.5,6.6,6.9,9.7
			H124.6z M123,19.6h-3.8c-0.5,3.7-1.4,9.2-2,12.2c-0.1,0.5,0,1,0.2,1.4c1,1.8,2.4,4.1,3.5,5.8c2.5-5.6,3.2-11.7,3.4-18
			C124.4,20.2,123.7,19.6,123,19.6z M144.6,32.3v15.8c0,1.4-0.4,2.5-1.1,3.3c-0.9,0.9-2,1.4-3.5,1.4h-4.8l-1.7-3.6h5.4
			c0.6,0,1.1-0.5,1.1-1V32.3h-10.8v-3.4H140v-5.3c3.1-3,6.1-6.2,8.4-9.5c0.1-0.2,0-0.5-0.3-0.5h-17.3v-3.5h19.8c1,0,1.9,0.6,2.4,1.5
			c0.5,0.8,0.6,1.9,0.1,2.9c-1.4,2.6-5.9,7.8-8.5,10.2v4.4h10.6v3.4H144.6z"/>
	</g>
	<g>
		<path class="st1" d="M175.9,37.4c-1.1-2.3-2.1-5.6-2.7-7.7v23h-4.4V35.6h-4.9c4.3-5,7.6-10.6,9.8-16.5c0.1-0.4-0.1-1-0.5-1h-8.9
			v-3.4h5.3c-0.8-1.8-1.8-4.4-2.1-5.8h4.6c0.4,2,1,4.1,2.1,5.8h1.2c1.2,0,2,0.4,2.5,1.1c0.6,0.8,0.7,1.9,0.4,3
			c-1,3.6-2.8,6.9-4.6,10.1h3.7c0.8,2.9,1.7,5.8,3.1,8.4H175.9z M179,52.6v-3.4h7.8c-0.6-1.2-1.1-2.5-1.5-3.8h4.7
			c0.5,1.3,1,2.7,1.8,3.8h2.9c0.8-1.2,1.5-2.5,2.1-3.8h5c-0.5,1.2-1.2,2.6-1.9,3.8h7.9v3.4H179z M179.2,32.4v-3.3h28.3v3.3H179.2z
			 M205.2,25.7c-0.8,0.7-1.8,1.2-3.4,1.2h-18.4c-0.9,0-1.7-0.5-2.3-1.1c-0.6-0.6-1.1-1.6-1.1-2.5v-7.7c0-1,0.6-2.1,1.4-2.8
			c0.8-0.6,1.7-1,2.6-1h3.5v-3h3.9v3h3.4v-3h3.9v3h3.5c1.3,0,2.4,0.5,3.1,1.3c0.6,0.8,1.1,1.8,1.1,3v6.6
			C206.4,23.8,206,24.9,205.2,25.7z M204.9,43.2c-0.6,0.5-1.4,0.9-2.4,0.9h-18.7c-0.9,0-1.6-0.4-2.1-0.9c-0.5-0.6-0.8-1.3-0.8-2.1
			v-3.4c0-0.9,0.4-1.6,0.9-2.1c0.6-0.6,1.4-0.9,2.4-0.9h18.3c1.1,0,1.9,0.3,2.4,0.9c0.6,0.6,0.9,1.5,0.9,2.6V41
			C205.8,41.8,205.5,42.6,204.9,43.2z M187.6,15h-2.2c-0.7,0-1.1,0.6-1.1,1.2v1.6h3.4V15z M187.6,20.7h-3.4v1.9c0,0.7,0.4,1.1,1,1.1
			h2.3V20.7z M201.3,38.7c0-0.5-0.2-0.9-0.8-0.9h-14.2c-0.5,0-0.9,0.5-0.9,1v1.6c0,0.4,0.4,0.8,0.9,0.8h14c0.5,0,1-0.4,1-1V38.7z
			 M194.9,15h-3.4v2.9h3.4V15z M194.9,20.7h-3.4v3h3.4V20.7z M202.1,16.2c0-0.7-0.5-1.2-1.2-1.2h-2.2v2.9h3.4V16.2z M202.1,20.7
			h-3.4v3h2.5c0.4,0,0.9-0.4,0.9-1V20.7z"/>
	</g>
</g>
</svg>
