<?xml version="1.0" encoding="utf-8"?>
<!-- Generator: Adobe Illustrator 24.0.1, SVG Export Plug-In . SVG Version: 6.00 Build 0)  -->
<svg version="1.1" id="圖層_6" xmlns="http://www.w3.org/2000/svg" xmlns:xlink="http://www.w3.org/1999/xlink" x="0px" y="0px"
	 viewBox="0 0 214.5 61.5" style="enable-background:new 0 0 214.5 61.5;" xml:space="preserve">
<style type="text/css">
	.st0{fill:#FFFFFF;}
</style>
<g>
	<g>
		<g>
			<path class="st0" d="M50.4,57.5H21.6c-2.8,0-5-2.2-5-5v-1c-2.8,1.2-6,2.5-8.1,3.3C7,55.4,5.3,55.1,4,54.2
				c-1.3-0.9-2.1-2.5-2.1-4.1v-4.1c0-2.2,1.5-4.2,3.7-4.8c0.4-0.1,1-0.3,1.6-0.5v-6.2c-2.5-0.3-4.5-2.4-4.5-5v-3.4
				c0-2.6,2-4.7,4.5-5v-2H6.6c-2.8,0-5-2.2-5-5v-3.4c0-2.8,2.2-5,5-5h15c0.5,0,1,0.1,1.4,0.2c1.6-1.1,3.6-1.7,5.7-1.7h14.6
				c2.7,0,5.2,1,6.9,2.8l0.1,0.1c1.7,1.8,2.6,4.3,2.6,7V29c0,2.1-0.7,4.1-2.1,5.7c1.6,0.8,2.7,2.5,2.7,4.4v3.3
				c0,0.8-0.2,1.6-0.6,2.4c1.5,0.9,2.4,2.5,2.4,4.3v3.5C55.4,55.3,53.2,57.5,50.4,57.5z M18.6,48.5v4c0,1.7,1.3,3,3,3h28.8
				c1.7,0,3-1.3,3-3v-3.5c0-1.4-0.9-2.6-2.2-2.9l-1.7-0.4l1.2-1.2c0.5-0.6,0.8-1.3,0.8-2.1v-3.3c0-1.5-1.1-2.8-2.6-3l-2.3-0.3
				l1.8-1.5C50,33,51,31,51,29V14.3c0-2.2-0.7-4.2-2.1-5.7c-1.5-1.5-3.4-2.2-5.6-2.2H28.7c-1.8,0-3.6,0.6-4.9,1.6l-0.5,0.4l-0.5-0.2
				C22.4,8,22,7.9,21.6,7.9h-15c-1.7,0-3,1.3-3,3v3.4c0,1.7,1.3,3,3,3h2.5v6H7.6c-1.7,0-3,1.3-3,3v3.4c0,1.7,1.3,3,3,3h1.5v9.6
				l-0.7,0.2c-0.6,0.2-1.5,0.5-2.4,0.8c-1.3,0.4-2.2,1.5-2.2,2.9v4.1c0,1,0.5,1.9,1.3,2.5c0.8,0.6,1.8,0.7,2.7,0.4
				c2.4-0.8,6.4-2.6,9.4-3.8L18.6,48.5z M19.5,37.4v-4.8h1.1c0.2,0,0.4,0,0.6-0.1l0.6-0.1l0.4,0.5c0.3,0.5,0.7,1,1.2,1.3l0.1,0.1
				l1.6,1.4L23,36.1c-0.5,0.1-0.9,0.3-1.3,0.6l-0.2,0.1l-0.2,0c-0.2,0-0.3,0.1-0.4,0.1L19.5,37.4z"/>
		</g>
		<g>
			<path class="st0" d="M94.8,57.5h-5.3c-2,0-3.7-1.1-4.5-2.9l-0.4-0.8c-0.1,0.4-0.2,0.7-0.4,1.1c-0.9,1.6-2.6,2.6-4.4,2.6h-5.1
				c-1.7,0-3.4-0.9-4.3-2.4c-0.3-0.5-0.6-1.1-1-1.8c-0.3,0.7-0.7,1.3-1,1.8c-0.9,1.5-2.5,2.4-4.3,2.4h-5.1c-1.9,0-3.5-1-4.4-2.6
				c-0.9-1.6-0.8-3.6,0.3-5.1c1.4-2.1,2.6-4.9,3.3-7c-0.1-0.1-0.2-0.2-0.3-0.3l-0.1-0.1c-1.5-1.7-2.3-4-2.3-6.5V13.8
				c0-2.8,1.1-5.4,3-7.1l0.2-0.1c1.7-1.4,3.8-2.1,6.2-2.1h8.8c2.7,0,5.2,0.9,6.9,2.7c1.5,1.5,2.4,3.5,2.7,5.7h6.7V8.8
				c0-2.8,2.2-5,5-5h4.5c2.8,0,5,2.2,5,5v4.2c2.1,0.6,3.6,2.5,3.6,4.8v3.5c0,2.3-1.5,4.2-3.6,4.8v22c0,2.4-0.8,4.6-2.2,6.3l-0.1,0.2
				C100.8,55.9,98.5,57.5,94.8,57.5z M81.6,49.6h3.3l0.3,0.6l1.6,3.5c0.5,1.1,1.6,1.8,2.7,1.8h5.3c3,0,4.8-1.2,5.8-2.3l0.1-0.1
				c1.1-1.3,1.7-3,1.7-5V24.4l0.9-0.1c1.5-0.2,2.7-1.4,2.7-3v-3.5c0-1.5-1.2-2.8-2.7-3l-0.9-0.1v-6c0-1.7-1.3-3-3-3h-4.5
				c-1.7,0-3,1.3-3,3v6.1H81.3l0-1c0-2.1-0.8-3.9-2.1-5.3c-1.3-1.3-3.3-2.1-5.5-2.1h-8.8c-1.9,0-3.6,0.5-4.9,1.6l-0.1,0.1
				c-1.5,1.3-2.4,3.3-2.4,5.6v21.9c0,2,0.6,3.9,1.8,5.2l0.1,0.1c0.2,0.2,0.4,0.4,0.7,0.6l0.5,0.4l-0.2,0.6c-0.7,2.3-2.1,5.7-3.8,8.1
				c-0.6,0.9-0.7,2.1-0.2,3.1c0.5,1,1.5,1.6,2.6,1.6h5.1c1,0,2-0.5,2.6-1.4c0.6-1,1.2-2.2,1.8-3.6l0.9-2.2l0.9,2.2
				c0.6,1.4,1.2,2.7,1.7,3.6c0.5,0.9,1.5,1.4,2.6,1.4h5.1c1.1,0,2.1-0.6,2.6-1.6c0.5-0.9,0.5-2,0-2.9L81.6,49.6z M91.9,46h-3.8
				l0.6-1.4c0.4-1,0.9-2.1,1.3-3.2l1.9-5.3V46z M81.2,37.2V24.3h2.6l-0.2,1.2c-0.1,0.8-0.3,1.5-0.4,2.3L81.2,37.2z"/>
		</g>
		<g>
			<path class="st0" d="M140.3,57.6h-4.8c-0.8,0-1.6-0.2-2.3-0.6c-0.7,0.4-1.5,0.6-2.3,0.6h-5.9c-1.4,0-2.8-0.6-3.7-1.7
				c-0.9,1.1-2.3,1.7-3.8,1.7h-6.1c-2,0-3.9-1.2-4.6-3.1c-0.8-1.9-0.3-4,1.1-5.5c1.8-1.8,3.6-3.8,5.1-5.8c-1.4-2.3-2.6-4.4-3.6-6.1
				c-1.1-1.9-1.3-4.2-0.8-7c0.4-1.9,0.8-4.1,1.1-6.1c-1.7-0.8-2.8-2.6-2.8-4.5v-3.5c0-2.6,2-4.7,4.5-5c0.1-0.8,0.1-1.6,0.2-2.5
				c0.2-2.6,2.4-4.7,5-4.7h4.2c1.4,0,2.7,0.6,3.7,1.6c0.9,1,1.4,2.4,1.3,3.8c0,0.5-0.1,1.1-0.2,1.8c0.2,0,0.3,0,0.5,0.1V9.9
				c0-2.8,2.2-5,5-5h19.8c2.7,0,5.3,1.5,6.7,3.9c1.4,2.3,1.5,5.2,0.3,7.7c-1.1,2.1-3.3,4.9-5.4,7.3h3c2.8,0,5,2.2,5,5v3.4
				c0,2.8-2.2,5-5,5h-5.6V48c0,2.6-0.8,4.9-2.4,6.7C145.6,56.5,143.1,57.6,140.3,57.6z M133.2,54.6l0.6,0.4c0.5,0.4,1.1,0.6,1.7,0.6
				h4.8c2.2,0,4.2-0.8,5.6-2.3c1.2-1.3,1.9-3.2,1.9-5.3V35.2h7.6c1.7,0,3-1.3,3-3v-3.4c0-1.7-1.3-3-3-3h-7.5l1.6-1.7
				c2.2-2.4,5.3-6.1,6.6-8.5c0.9-1.8,0.8-4-0.2-5.7c-1.1-1.8-3-2.9-5-2.9H131c-1.7,0-3,1.3-3,3v3.8l-1.3-0.4
				c-0.7-0.2-1.5-0.3-2.3-0.3l-1.1,0l0.1-1.1c0.1-1,0.2-2,0.3-2.7c0.1-0.8-0.2-1.7-0.8-2.3c-0.6-0.6-1.4-1-2.2-1h-4.2
				c-1.6,0-2.9,1.2-3,2.8c-0.1,1.2-0.2,2.3-0.3,3.4l-0.1,0.9h-1.3c-1.7,0-3,1.3-3,3v3.5c0,1.3,0.9,2.5,2.2,2.9l0.9,0.2l-0.1,0.9
				c-0.3,2.2-0.8,4.7-1.2,6.9c-0.4,2.3-0.2,4.1,0.6,5.6c1,1.8,2.4,4.2,3.9,6.6l0.3,0.6l-0.4,0.5c-1.7,2.4-3.6,4.6-5.7,6.6
				c-0.9,0.9-1.1,2.1-0.7,3.3c0.5,1.1,1.6,1.9,2.8,1.9h6.1c0.9,0,1.7-0.4,2.3-1.1c0.2-0.3,0.5-0.6,0.7-0.9l0.8-1l0.8,1.1
				c0.2,0.3,0.4,0.5,0.5,0.7c0.6,0.8,1.5,1.2,2.4,1.2h5.9c0.6,0,1.2-0.2,1.7-0.6L133.2,54.6z M130.9,47.6l-0.7-0.9
				c-0.8-1.1-1.6-2.3-2.4-3.5l-0.3-0.5l0.2-0.5c0.9-2,1.6-4,2.2-6.3l0.2-0.8h7.2V46h-3.5c-0.8,0-1.5,0.3-2.1,0.9L130.9,47.6z
				 M129.7,42.5c0.5,0.7,1,1.4,1.5,2.1c0.8-0.5,1.7-0.7,2.6-0.7h1.5v-6.8h-3.6C131.1,39.1,130.5,40.8,129.7,42.5z M137.3,25.8h-5.8
				l0.1-1.1c0.1-1.2,0.2-2.4,0.2-3.6c0.1-1.2-0.1-2.2-0.4-3.3l-0.5-1.3h12l-1.6,1.7c-1,1-2,2.1-3.1,3.1c-0.6,0.6-0.9,1.4-0.9,2.2
				V25.8z M133.6,23.8h1.6v-0.3c0-1.4,0.6-2.7,1.6-3.6c0.5-0.5,1-0.9,1.4-1.4h-4.6c0.2,0.9,0.2,1.8,0.2,2.7
				C133.7,22,133.7,22.9,133.6,23.8z"/>
		</g>
		<g>
			<path class="st0" d="M173.6,57.5h-4.4c-2.8,0-5-2.2-5-5V40.4c-1.9-0.1-3.6-1.2-4.4-2.9c-0.8-1.8-0.5-3.9,0.8-5.4
				c2.4-2.8,4.5-5.8,6.3-9.1h-2c-2.8,0-5-2.2-5-5v-3.4c0-2.1,1.3-4,3.3-4.7c-0.3-1.4,0-3,0.9-4.1c0.9-1.2,2.4-2,4-2h4.6
				c2.4,0,4.4,1.6,4.9,3.9c0.1,0.5,0.3,1.1,0.4,1.7c0.2-0.2,0.5-0.4,0.7-0.6c1.4-1.1,3-1.8,4.7-2c0.8-1.8,2.6-3.1,4.6-3.1h3.9
				c0.6,0,1.2,0.1,1.7,0.3c0.5-0.2,1.1-0.3,1.7-0.3h3.9c2,0,3.8,1.2,4.6,3.1c2.3,0.3,4.3,1.3,5.7,2.9c1.5,1.7,2.3,3.9,2.3,6.3v6.6
				c0,0.9-0.1,1.8-0.4,2.7c1,0.9,1.5,2.2,1.5,3.6v3.3c0,1.5-0.7,3-1.9,3.9c0.1,0.6,0.2,1.2,0.2,1.8v2.9c0,1.3-0.3,2.6-0.9,3.8
				c1.6,0.8,2.7,2.5,2.7,4.5v3.4c0,2.8-2.2,5-5,5h-28.6c-1,0-2-0.3-2.8-0.9C175.6,57.2,174.7,57.5,173.6,57.5z M168,5.8
				c-0.9,0-1.8,0.4-2.4,1.2c-0.6,0.7-0.8,1.7-0.5,2.6c0.1,0.2,0.1,0.5,0.2,0.7l0.4,1.1l-1.2,0.1c-1.5,0.2-2.6,1.5-2.6,3V18
				c0,1.7,1.3,3,3,3h5.3l-0.7,1.4c-2,4-4.4,7.7-7.3,11c-0.8,0.9-1,2.1-0.5,3.2c0.5,1.1,1.6,1.8,2.7,1.8h1.9v14.1c0,1.7,1.3,3,3,3
				h4.4c0.8,0,1.6-0.3,2.2-0.9l0.7-0.7l0.7,0.7c0.6,0.6,1.3,0.9,2.1,0.9h28.6c1.7,0,3-1.3,3-3v-3.4c0-1.4-1-2.7-2.4-2.9l-1.6-0.3
				l1-1.3c0.8-1.1,1.2-2.3,1.2-3.7V38c0-0.7-0.1-1.4-0.3-2l-0.2-0.7l0.7-0.4c0.9-0.5,1.5-1.5,1.5-2.6V29c0-1-0.5-1.9-1.3-2.5
				l-0.7-0.5l0.3-0.7c0.3-0.8,0.5-1.7,0.5-2.6V16c0-1.9-0.6-3.6-1.8-5c-1.2-1.4-3-2.2-5-2.3l-0.7,0L201.9,8
				c-0.3-1.3-1.5-2.3-2.9-2.3h-3.9c-0.4,0-0.9,0.1-1.3,0.3l-0.4,0.2L193,6c-0.4-0.2-0.8-0.3-1.3-0.3h-3.9c-1.4,0-2.6,0.9-2.9,2.3
				l-0.2,0.7l-0.7,0c-1.5,0.1-2.9,0.6-4.2,1.6c-0.4,0.3-0.8,0.7-1.1,1.1l-0.4,0.5l-0.6-0.2c-0.2-0.1-0.4-0.1-0.6-0.1l-0.6-0.1
				l-0.2-0.5c-0.4-1.1-0.6-2.1-0.8-2.9c-0.3-1.4-1.5-2.3-2.9-2.3H168z M176.6,47v-9.7l1.9,5.5c0.2,0.6,0.5,1.1,0.9,1.6l1,1.3
				l-1.6,0.3c-0.3,0-0.5,0.1-0.8,0.2L176.6,47z"/>
		</g>
	</g>
	<g>
		<g>
			<path class="st0" d="M6.8,50.1v-4.1c1.6-0.5,4-1.3,5.3-1.9V29.6H7.6v-3.4h4.5v-12H6.6v-3.4h15v3.4h-5.1v12h4.1v3.4h-4.1v12.7
				c1.6-0.7,3.7-1.7,5.3-2.5v4C17.1,45.9,10.1,49,6.8,50.1z M21.6,52.5v-3.5h12v-6.7H23.5v-3.3h10.1v-5.9h-4.4c-1.6,0-3-0.4-3.9-1.2
				c-0.9-0.8-1.4-2-1.4-3.5V13.8c0-1.4,0.5-2.5,1.4-3.2c0.9-0.8,2-1.2,3.4-1.2h14.6c1.4,0,2.6,0.5,3.4,1.3c0.9,0.9,1.2,2.2,1.2,3.6
				V29c0,1.2-0.6,2.4-1.6,3.2c-0.9,0.7-2,1.1-3.2,1.1h-4.8v5.9h10.3v3.3H38.3v6.7h12.1v3.5H21.6z M33.6,12.7h-4.1
				c-0.5,0-1.1,0.4-1.1,1.1v5.9h5.2V12.7z M33.6,23.1h-5.2v6c0,0.4,0.6,0.9,1,0.9h4.2V23.1z M43.5,14c0-0.7-0.5-1.4-1.2-1.4h-4v7
				h5.2V14z M43.5,23.1h-5.2v6.8h3.9c1,0,1.3-0.5,1.3-1.4V23.1z"/>
		</g>
		<g>
			<path class="st0" d="M64.1,52.5h-5.1c2-2.9,3.6-6.9,4.5-9.9h4.6C67.1,45.7,65.7,49.9,64.1,52.5z M77.3,38.8
				c-0.8,1-1.9,1.5-3.4,1.5h-9.2c-1.4,0-2.5-0.5-3.2-1.3c-0.7-0.8-1-2-1-3.2V13.8c0-1.5,0.5-2.6,1.4-3.4c0.8-0.6,1.8-1,3-1h8.8
				c1.5,0,2.6,0.5,3.4,1.2c0.9,0.9,1.3,2,1.3,3.2v22.1C78.3,37.2,77.9,38.1,77.3,38.8z M73.9,13.9c0-0.6-0.4-1.1-1-1.1h-7
				c-0.6,0-1,0.5-1,1.1v4.5h9.1V13.9z M73.9,21.9h-9.1v5.8h9.1V21.9z M73.9,31.1h-9.1v4.6c0,0.9,0.6,1.4,1.4,1.4h6.5
				c0.8,0,1.2-0.6,1.2-1.4V31.1z M74.6,52.5c-1.4-2.4-3.1-7.1-3.8-9.9h4.6c0.6,2.8,2.6,7.3,4.3,9.9H74.6z M84.5,46.6h-5.3
				c3.8-6.1,6.7-15,7.6-21.9h4.5C90.1,31.4,87.8,40.1,84.5,46.6z M99.4,21.3v26.8c0,1.2-0.3,2.2-1,3c-0.8,0.9-2,1.4-3.6,1.4h-5.3
				L87.9,49h5.7c0.7,0,1.3-0.5,1.3-1.4V21.3H80v-3.5h14.9V8.8h4.5v9.1h3.6v3.5H99.4z"/>
		</g>
		<g>
			<path class="st0" d="M124.9,52.6c-0.9-1.2-2.7-3.9-3.5-5.3c-1.3,1.9-2.7,3.8-4,5.3h-6.1c2.9-2.9,5.5-6,7.6-9.3
				c-1.8-2.9-3.8-6.2-5.2-8.8c-0.5-1-0.5-2.3-0.2-3.6c0.6-3.1,1.5-8,1.9-11.5h-3.5v-3.5h3.9c0.4-2.4,0.7-4.9,0.8-7.1h4.2
				c-0.1,1.9-0.5,5-0.9,7.1h4.5c1.1,0,2.1,0.4,2.9,1c1.1,0.9,1.7,2.3,1.6,4c-0.4,7.9-1.3,15.6-4.9,22.1c2.2,3.3,4.5,6.6,6.9,9.7
				H124.9z M123.3,19.5h-3.8c-0.5,3.7-1.4,9.2-2,12.2c-0.1,0.5,0,1,0.2,1.4c1,1.8,2.4,4.1,3.5,5.8c2.5-5.6,3.2-11.7,3.4-18
				C124.7,20.1,124,19.5,123.3,19.5z M144.9,32.2V48c0,1.4-0.4,2.5-1.1,3.3c-0.9,0.9-2,1.4-3.5,1.4h-4.8l-1.7-3.6h5.4
				c0.6,0,1.1-0.5,1.1-1V32.2h-10.8v-3.4h10.8v-5.3c3.1-3,6.1-6.2,8.4-9.5c0.1-0.2,0-0.5-0.3-0.5h-17.3V9.9h19.8
				c1,0,1.9,0.6,2.4,1.5c0.5,0.8,0.6,1.9,0.1,2.9c-1.4,2.6-5.9,7.8-8.5,10.2v4.4h10.6v3.4H144.9z"/>
		</g>
		<g>
			<path class="st0" d="M176.2,37.2c-1.1-2.3-2.1-5.6-2.7-7.7v23h-4.4V35.5h-4.9c4.3-5,7.6-10.6,9.8-16.5c0.1-0.4-0.1-1-0.5-1h-8.9
				v-3.4h5.3c-0.8-1.8-1.8-4.4-2.1-5.8h4.6c0.4,2,1,4.1,2.1,5.8h1.2c1.2,0,2,0.4,2.5,1.1c0.6,0.8,0.7,1.9,0.4,3
				c-1,3.6-2.8,6.9-4.6,10.1h3.7c0.8,2.9,1.7,5.8,3.1,8.4H176.2z M179.3,52.5v-3.4h7.8c-0.6-1.2-1.1-2.5-1.5-3.8h4.7
				c0.5,1.3,1,2.7,1.8,3.8h2.9c0.8-1.2,1.5-2.5,2.1-3.8h5c-0.5,1.2-1.2,2.6-1.9,3.8h7.9v3.4H179.3z M179.6,32.3V29h28.3v3.3H179.6z
				 M205.5,25.6c-0.8,0.7-1.8,1.2-3.4,1.2h-18.4c-0.9,0-1.7-0.5-2.3-1.1c-0.6-0.6-1.1-1.6-1.1-2.5v-7.7c0-1,0.6-2.1,1.4-2.8
				c0.8-0.6,1.7-1,2.6-1h3.5v-3h3.9v3h3.4v-3h3.9v3h3.5c1.3,0,2.4,0.5,3.1,1.3c0.6,0.8,1.1,1.8,1.1,3v6.6
				C206.7,23.7,206.3,24.8,205.5,25.6z M205.2,43c-0.6,0.5-1.4,0.9-2.4,0.9h-18.7c-0.9,0-1.6-0.4-2.1-0.9c-0.5-0.6-0.8-1.3-0.8-2.1
				v-3.4c0-0.9,0.4-1.6,0.9-2.1c0.6-0.6,1.4-0.9,2.4-0.9h18.3c1.1,0,1.9,0.3,2.4,0.9c0.6,0.6,0.9,1.5,0.9,2.6v2.9
				C206.1,41.6,205.8,42.4,205.2,43z M187.9,14.8h-2.2c-0.7,0-1.1,0.6-1.1,1.2v1.6h3.4V14.8z M187.9,20.6h-3.4v1.9
				c0,0.7,0.4,1.1,1,1.1h2.3V20.6z M201.6,38.5c0-0.5-0.2-0.9-0.8-0.9h-14.2c-0.5,0-0.9,0.5-0.9,1v1.6c0,0.4,0.4,0.8,0.9,0.8h14
				c0.5,0,1-0.4,1-1V38.5z M195.2,14.8h-3.4v2.9h3.4V14.8z M195.2,20.6h-3.4v3h3.4V20.6z M202.4,16c0-0.7-0.5-1.2-1.2-1.2H199v2.9
				h3.4V16z M202.4,20.6H199v3h2.5c0.4,0,0.9-0.4,0.9-1V20.6z"/>
		</g>
	</g>
</g>
</svg>
